%TF.GenerationSoftware,KiCad,Pcbnew,8.0.5*%
%TF.CreationDate,2024-11-27T23:03:38-05:00*%
%TF.ProjectId,HacKeys,4861634b-6579-4732-9e6b-696361645f70,rev?*%
%TF.SameCoordinates,Original*%
%TF.FileFunction,Copper,L4,Bot*%
%TF.FilePolarity,Positive*%
%FSLAX46Y46*%
G04 Gerber Fmt 4.6, Leading zero omitted, Abs format (unit mm)*
G04 Created by KiCad (PCBNEW 8.0.5) date 2024-11-27 23:03:38*
%MOMM*%
%LPD*%
G01*
G04 APERTURE LIST*
G04 Aperture macros list*
%AMRoundRect*
0 Rectangle with rounded corners*
0 $1 Rounding radius*
0 $2 $3 $4 $5 $6 $7 $8 $9 X,Y pos of 4 corners*
0 Add a 4 corners polygon primitive as box body*
4,1,4,$2,$3,$4,$5,$6,$7,$8,$9,$2,$3,0*
0 Add four circle primitives for the rounded corners*
1,1,$1+$1,$2,$3*
1,1,$1+$1,$4,$5*
1,1,$1+$1,$6,$7*
1,1,$1+$1,$8,$9*
0 Add four rect primitives between the rounded corners*
20,1,$1+$1,$2,$3,$4,$5,0*
20,1,$1+$1,$4,$5,$6,$7,0*
20,1,$1+$1,$6,$7,$8,$9,0*
20,1,$1+$1,$8,$9,$2,$3,0*%
G04 Aperture macros list end*
%TA.AperFunction,NonConductor*%
%ADD10C,0.200000*%
%TD*%
%TA.AperFunction,SMDPad,CuDef*%
%ADD11R,0.400000X0.800000*%
%TD*%
%TA.AperFunction,SMDPad,CuDef*%
%ADD12R,0.300000X0.800000*%
%TD*%
%TA.AperFunction,SMDPad,CuDef*%
%ADD13RoundRect,0.250000X-0.350000X-0.450000X0.350000X-0.450000X0.350000X0.450000X-0.350000X0.450000X0*%
%TD*%
%TA.AperFunction,SMDPad,CuDef*%
%ADD14R,1.000000X1.200000*%
%TD*%
%TA.AperFunction,ConnectorPad*%
%ADD15R,0.700000X3.200000*%
%TD*%
%TA.AperFunction,ConnectorPad*%
%ADD16R,0.700000X4.300000*%
%TD*%
%TA.AperFunction,ComponentPad*%
%ADD17C,4.600000*%
%TD*%
%TA.AperFunction,ComponentPad*%
%ADD18C,1.800000*%
%TD*%
%TA.AperFunction,ComponentPad*%
%ADD19R,1.700000X1.700000*%
%TD*%
%TA.AperFunction,ComponentPad*%
%ADD20O,1.700000X1.700000*%
%TD*%
%TA.AperFunction,ComponentPad*%
%ADD21C,5.600000*%
%TD*%
%TA.AperFunction,ComponentPad*%
%ADD22R,2.781300X2.781300*%
%TD*%
%TA.AperFunction,ComponentPad*%
%ADD23C,2.781300*%
%TD*%
%TA.AperFunction,ComponentPad*%
%ADD24C,1.803400*%
%TD*%
%TA.AperFunction,SMDPad,CuDef*%
%ADD25RoundRect,0.250000X-0.450000X0.350000X-0.450000X-0.350000X0.450000X-0.350000X0.450000X0.350000X0*%
%TD*%
%TA.AperFunction,SMDPad,CuDef*%
%ADD26RoundRect,0.250000X0.450000X-0.350000X0.450000X0.350000X-0.450000X0.350000X-0.450000X-0.350000X0*%
%TD*%
%TA.AperFunction,ViaPad*%
%ADD27C,0.460000*%
%TD*%
%TA.AperFunction,Conductor*%
%ADD28C,0.228600*%
%TD*%
%TA.AperFunction,Conductor*%
%ADD29C,0.203200*%
%TD*%
%TA.AperFunction,Conductor*%
%ADD30C,0.609600*%
%TD*%
%TA.AperFunction,Conductor*%
%ADD31C,0.152400*%
%TD*%
G04 APERTURE END LIST*
D10*
X36762500Y-80050000D02*
X43862500Y-80050000D01*
X43862500Y-154050000D01*
X36762500Y-154050000D01*
X36762500Y-80050000D01*
%TA.AperFunction,NonConductor*%
G36*
X36762500Y-80050000D02*
G01*
X43862500Y-80050000D01*
X43862500Y-154050000D01*
X36762500Y-154050000D01*
X36762500Y-80050000D01*
G37*
%TD.AperFunction*%
D11*
%TO.P,J12,SH2,SH2*%
%TO.N,GND*%
X38262500Y-62362500D03*
%TO.P,J12,SH1,SH1*%
X43762500Y-62362500D03*
D12*
%TO.P,J12,8,Pin_8*%
%TO.N,LED BLU*%
X39262500Y-59862500D03*
%TO.P,J12,7,Pin_7*%
%TO.N,GND*%
X39762500Y-59862500D03*
%TO.P,J12,6,Pin_6*%
%TO.N,LED GRN*%
X40262500Y-59862500D03*
%TO.P,J12,5,Pin_5*%
%TO.N,GND*%
X40762500Y-59862500D03*
%TO.P,J12,4,Pin_4*%
%TO.N,LED YLW*%
X41262500Y-59862500D03*
%TO.P,J12,3,Pin_3*%
%TO.N,GND*%
X41762500Y-59862500D03*
%TO.P,J12,2,Pin_2*%
%TO.N,LED RED*%
X42262500Y-59862500D03*
%TO.P,J12,1,Pin_1*%
%TO.N,GND*%
X42762500Y-59862500D03*
%TD*%
D13*
%TO.P,R8,1*%
%TO.N,GND*%
X37762500Y-55550000D03*
%TO.P,R8,2*%
%TO.N,Net-(D8-K)*%
X39762500Y-55550000D03*
%TD*%
%TO.P,R7,1*%
%TO.N,GND*%
X37762500Y-52050000D03*
%TO.P,R7,2*%
%TO.N,Net-(D7-K)*%
X39762500Y-52050000D03*
%TD*%
%TO.P,R6,1*%
%TO.N,GND*%
X37762500Y-48550000D03*
%TO.P,R6,2*%
%TO.N,Net-(D6-K)*%
X39762500Y-48550000D03*
%TD*%
%TO.P,R5,2*%
%TO.N,Net-(D5-K)*%
X39762500Y-45050000D03*
%TO.P,R5,1*%
%TO.N,GND*%
X37762500Y-45050000D03*
%TD*%
D14*
%TO.P,D8,2,A*%
%TO.N,LED BLU*%
X44262500Y-55550000D03*
%TO.P,D8,1,K*%
%TO.N,Net-(D8-K)*%
X41262500Y-55550000D03*
%TD*%
%TO.P,D7,2,A*%
%TO.N,LED GRN*%
X44262500Y-52050000D03*
%TO.P,D7,1,K*%
%TO.N,Net-(D7-K)*%
X41262500Y-52050000D03*
%TD*%
%TO.P,D6,2,A*%
%TO.N,LED YLW*%
X44262500Y-48550000D03*
%TO.P,D6,1,K*%
%TO.N,Net-(D6-K)*%
X41262500Y-48550000D03*
%TD*%
%TO.P,D5,2,A*%
%TO.N,LED RED*%
X44262500Y-45050000D03*
%TO.P,D5,1,K*%
%TO.N,Net-(D5-K)*%
X41262500Y-45050000D03*
%TD*%
D15*
%TO.P,J3,A1,PRSNT_A*%
%TO.N,Net-(J3-PRSNT_A)*%
X191112500Y-141750000D03*
D16*
%TO.P,J3,A2,+5V*%
%TO.N,+5V*%
X192112500Y-142300000D03*
%TO.P,J3,A3,GND*%
%TO.N,GND*%
X193112500Y-142300000D03*
%TO.P,J3,A4,+12V*%
%TO.N,+12V*%
X194112500Y-142300000D03*
%TO.P,J3,A5,GND*%
%TO.N,GND*%
X195112500Y-142300000D03*
%TO.P,J3,A6,GND*%
X196112500Y-142300000D03*
%TO.P,J3,A7,-12V*%
%TO.N,-12V*%
X197112500Y-142300000D03*
%TO.P,J3,A8,GND*%
%TO.N,GND*%
X198112500Y-142300000D03*
%TO.P,J3,A9,EURO_GATE*%
%TO.N,/Bus/CON_GATE*%
X199112500Y-142300000D03*
%TO.P,J3,A10,EURO_CV*%
%TO.N,/Bus/CON_CV*%
X200112500Y-142300000D03*
%TO.P,J3,A11,GND*%
%TO.N,GND*%
X201112500Y-142300000D03*
%TO.P,J3,A12,USB_5V*%
%TO.N,Net-(J3-USB_5V)*%
X204112500Y-142300000D03*
%TO.P,J3,A13,USB_D-*%
%TO.N,Net-(J3-USB_D-)*%
X205112500Y-142300000D03*
%TO.P,J3,A14,Audio_Out_A*%
%TO.N,Net-(J3-Audio_Out_A)*%
X206112500Y-142300000D03*
%TO.P,J3,A15,GND*%
%TO.N,GND*%
X207112500Y-142300000D03*
%TO.P,J3,A16,Audio_Out_B*%
%TO.N,Net-(J3-Audio_Out_B)*%
X208112500Y-142300000D03*
%TO.P,J3,A17,GND*%
%TO.N,GND*%
X209112500Y-142300000D03*
%TO.P,J3,A18,Audio_Out_C*%
%TO.N,Net-(J3-Audio_Out_C)*%
X210112500Y-142300000D03*
%TO.P,J3,A19,GND*%
%TO.N,GND*%
X211112500Y-142300000D03*
%TO.P,J3,A20,Audio_Out_D*%
%TO.N,Net-(J3-Audio_Out_D)*%
X212112500Y-142300000D03*
%TO.P,J3,A21,GND*%
%TO.N,GND*%
X213112500Y-142300000D03*
%TO.P,J3,A22,UART_TX*%
%TO.N,Net-(J3-UART_TX)*%
X214112500Y-142300000D03*
%TO.P,J3,A23,GND*%
%TO.N,GND*%
X215112500Y-142300000D03*
%TO.P,J3,A24,I2C0_SDA*%
%TO.N,/Bus/I2C0_SDA*%
X216112500Y-142300000D03*
%TO.P,J3,A25,I2C_ID_1*%
%TO.N,unconnected-(J3-I2C_ID_1-PadA25)*%
X217112500Y-142300000D03*
%TO.P,J3,A26,GND*%
%TO.N,GND*%
X218112500Y-142300000D03*
%TO.P,J3,A27,I2C1_SCL*%
%TO.N,/Bus/I2C1_SCL*%
X219112500Y-142300000D03*
%TO.P,J3,A28*%
%TO.N,N/C*%
X220112500Y-142300000D03*
%TO.P,J3,A29*%
X221112500Y-142300000D03*
%TO.P,J3,A30*%
X222112500Y-142300000D03*
%TO.P,J3,A31*%
X223112500Y-142300000D03*
%TO.P,J3,A32*%
X224112500Y-142300000D03*
%TD*%
D17*
%TO.P,RV2,*%
%TO.N,*%
X148737500Y-54100000D03*
X158737500Y-54100000D03*
D18*
%TO.P,RV2,1,1*%
%TO.N,unconnected-(RV2-Pad1)*%
X156237500Y-50800000D03*
%TO.P,RV2,2,2*%
%TO.N,unconnected-(RV2-Pad2)*%
X153737500Y-50800000D03*
%TO.P,RV2,3,3*%
%TO.N,unconnected-(RV2-Pad3)*%
X151237500Y-50800000D03*
%TD*%
D19*
%TO.P,J4,1,Pin_1*%
%TO.N,Net-(J3-USB_5V)*%
X221762500Y-110850000D03*
D20*
%TO.P,J4,2,Pin_2*%
%TO.N,Net-(J3-USB_D-)*%
X221762500Y-113390000D03*
%TO.P,J4,3,Pin_3*%
%TO.N,/Bus/USB_D+*%
X221762500Y-115930000D03*
%TO.P,J4,4,Pin_4*%
%TO.N,GND*%
X221762500Y-118470000D03*
%TD*%
D21*
%TO.P,H6,1,1*%
%TO.N,unconnected-(H6-Pad1)*%
X219762500Y-70850000D03*
%TD*%
%TO.P,H1,1,1*%
%TO.N,unconnected-(H1-Pad1)*%
X129762500Y-90850000D03*
%TD*%
%TO.P,H5,1,1*%
%TO.N,unconnected-(H5-Pad1)*%
X129762500Y-70850000D03*
%TD*%
D17*
%TO.P,RV3,*%
%TO.N,*%
X165737500Y-54100000D03*
X175737500Y-54100000D03*
D18*
%TO.P,RV3,1,1*%
%TO.N,unconnected-(RV3-Pad1)*%
X173237500Y-50800000D03*
%TO.P,RV3,2,2*%
%TO.N,unconnected-(RV3-Pad2)*%
X170737500Y-50800000D03*
%TO.P,RV3,3,3*%
%TO.N,unconnected-(RV3-Pad3)*%
X168237500Y-50800000D03*
%TD*%
D21*
%TO.P,H3,1,1*%
%TO.N,unconnected-(H3-Pad1)*%
X129762500Y-140850000D03*
%TD*%
D22*
%TO.P,SW1,1*%
%TO.N,unconnected-(SW1-Pad1)*%
X191224000Y-65360000D03*
D23*
%TO.P,SW1,2*%
%TO.N,unconnected-(SW1-Pad2)*%
X186525000Y-65360000D03*
%TO.P,SW1,3*%
%TO.N,unconnected-(SW1-Pad3)*%
X181826000Y-65360000D03*
%TO.P,SW1,4*%
%TO.N,unconnected-(SW1-Pad4)*%
X191224000Y-61550000D03*
%TO.P,SW1,5*%
%TO.N,unconnected-(SW1-Pad5)*%
X186525000Y-61550000D03*
%TO.P,SW1,6*%
%TO.N,unconnected-(SW1-Pad6)*%
X181826000Y-61550000D03*
%TO.P,SW1,7*%
%TO.N,N/C*%
X189065000Y-48850000D03*
%TO.P,SW1,8*%
X183985000Y-48850000D03*
%TD*%
D21*
%TO.P,H4,1,1*%
%TO.N,unconnected-(H4-Pad1)*%
X179762500Y-140850000D03*
%TD*%
%TO.P,H2,1,1*%
%TO.N,unconnected-(H2-Pad1)*%
X179762500Y-90850000D03*
%TD*%
D19*
%TO.P,J8,1,Pin_1*%
%TO.N,GND*%
X219182500Y-96770000D03*
D20*
%TO.P,J8,2,Pin_2*%
X221722500Y-96770000D03*
%TO.P,J8,3,Pin_3*%
%TO.N,+5V*%
X219182500Y-99310000D03*
%TO.P,J8,4,Pin_4*%
X221722500Y-99310000D03*
%TO.P,J8,5,Pin_5*%
%TO.N,/Bus/I2C0_SCL*%
X219182500Y-101850000D03*
%TO.P,J8,6,Pin_6*%
%TO.N,/Bus/I2C1_SCL*%
X221722500Y-101850000D03*
%TO.P,J8,7,Pin_7*%
%TO.N,/Bus/I2C0_SDA*%
X219182500Y-104390000D03*
%TO.P,J8,8,Pin_8*%
%TO.N,/Bus/I2C1_SDA*%
X221722500Y-104390000D03*
%TD*%
D17*
%TO.P,RV1,*%
%TO.N,*%
X131262500Y-54150000D03*
X141262500Y-54150000D03*
D18*
%TO.P,RV1,1,1*%
%TO.N,unconnected-(RV1-Pad1)*%
X138762500Y-50850000D03*
%TO.P,RV1,2,2*%
%TO.N,unconnected-(RV1-Pad2)*%
X136262500Y-50850000D03*
%TO.P,RV1,3,3*%
%TO.N,unconnected-(RV1-Pad3)*%
X133762500Y-50850000D03*
%TD*%
D24*
%TO.P,J2,1,Pin_1*%
%TO.N,-12V*%
X203362500Y-130510000D03*
%TO.P,J2,2,Pin_2*%
X203362500Y-133050000D03*
%TO.P,J2,3,Pin_3*%
%TO.N,GND*%
X200822500Y-130510000D03*
%TO.P,J2,4,Pin_4*%
X200822500Y-133050000D03*
%TO.P,J2,5,Pin_5*%
X198282500Y-130510000D03*
%TO.P,J2,6,Pin_6*%
X198282500Y-133050000D03*
%TO.P,J2,7,Pin_7*%
X195742500Y-130510000D03*
%TO.P,J2,8,Pin_8*%
X195742500Y-133050000D03*
%TO.P,J2,9,Pin_9*%
%TO.N,+12V*%
X193202500Y-130510000D03*
%TO.P,J2,10,Pin_10*%
X193202500Y-133050000D03*
%TO.P,J2,11,Pin_11*%
%TO.N,+5V*%
X190662500Y-130510000D03*
%TO.P,J2,12,Pin_12*%
X190662500Y-133050000D03*
%TO.P,J2,13,Pin_13*%
%TO.N,/Bus/CON_CV*%
X188122500Y-130510000D03*
%TO.P,J2,14,Pin_14*%
X188122500Y-133050000D03*
%TO.P,J2,15,Pin_15*%
%TO.N,/Bus/CON_GATE*%
X185582500Y-130510000D03*
%TO.P,J2,16,Pin_16*%
X185582500Y-133050000D03*
%TD*%
D25*
%TO.P,R4,1*%
%TO.N,Net-(J3-PRSNT_A)*%
X200262500Y-123850000D03*
%TO.P,R4,2*%
%TO.N,Net-(D4-K)*%
X200262500Y-125850000D03*
%TD*%
D26*
%TO.P,R1,1*%
%TO.N,GND*%
X189262500Y-125850000D03*
%TO.P,R1,2*%
%TO.N,Net-(D1-K)*%
X189262500Y-123850000D03*
%TD*%
%TO.P,R3,1*%
%TO.N,Net-(D3-A)*%
X196762500Y-125850000D03*
%TO.P,R3,2*%
%TO.N,GND*%
X196762500Y-123850000D03*
%TD*%
%TO.P,R2,1*%
%TO.N,GND*%
X192762500Y-125850000D03*
%TO.P,R2,2*%
%TO.N,Net-(D2-K)*%
X192762500Y-123850000D03*
%TD*%
D27*
%TO.N,GND*%
X220762000Y-132000000D03*
X219762000Y-131000000D03*
X221762000Y-133000000D03*
X218762000Y-130000000D03*
X215738000Y-137490000D03*
%TO.N,-12V*%
X197149000Y-139634000D03*
%TO.N,Net-(D4-K)*%
X201423000Y-125879000D03*
%TO.N,Net-(D1-K)*%
X188111000Y-124316000D03*
%TO.N,Net-(D3-A)*%
X196248000Y-126906000D03*
%TO.N,/Bus/CON_GATE*%
X194724000Y-135702000D03*
%TO.N,Net-(J3-Audio_Out_D)*%
X221262000Y-132500000D03*
%TO.N,Net-(J3-Audio_Out_B)*%
X219262000Y-130500000D03*
%TO.N,Net-(J3-Audio_Out_A)*%
X218262000Y-129500000D03*
%TO.N,Net-(J3-Audio_Out_C)*%
X220262000Y-131500000D03*
%TO.N,Net-(D2-K)*%
X191278300Y-123631500D03*
X191630000Y-124316000D03*
%TO.N,/EXT_JACK_TN_3*%
X135912100Y-102286001D03*
%TO.N,/EXT_JACK_T_4*%
X137293100Y-102630001D03*
%TO.N,/EXT_JACK_TN_4*%
X137293100Y-103631001D03*
%TO.N,/EXT_JACK_R_4*%
X137293100Y-104630000D03*
%TO.N,/EXT_JACK_T_3*%
X135793101Y-101637001D03*
%TO.N,/EXT_JACK_R_3*%
X136402100Y-102728999D03*
%TD*%
D28*
%TO.N,LED BLU*%
X45262500Y-57300000D02*
X40012500Y-57300000D01*
X40012500Y-57300000D02*
X39262500Y-58050000D01*
X39262500Y-58050000D02*
X39262500Y-59862500D01*
D29*
%TO.N,LED RED*%
X42262500Y-59286150D02*
X43026350Y-58522300D01*
X43026350Y-58522300D02*
X45790200Y-58522300D01*
X42262500Y-59862500D02*
X42262500Y-59286150D01*
X45790200Y-58522300D02*
X46972100Y-57340400D01*
X46972100Y-46759600D02*
X45262500Y-45050000D01*
X45262500Y-45050000D02*
X44262500Y-45050000D01*
X46972100Y-57340400D02*
X46972100Y-46759600D01*
%TO.N,LED YLW*%
X44262500Y-48550000D02*
X45262500Y-48550000D01*
X46568900Y-57151982D02*
X45601782Y-58119100D01*
X46568900Y-49856400D02*
X46568900Y-57151982D01*
X45601782Y-58119100D02*
X42012500Y-58119100D01*
X45262500Y-48550000D02*
X46568900Y-49856400D01*
X41262500Y-58869100D02*
X41262500Y-59862500D01*
X42012500Y-58119100D02*
X41262500Y-58869100D01*
%TO.N,LED GRN*%
X44262500Y-52050000D02*
X45262500Y-52050000D01*
X40262500Y-58550000D02*
X40262500Y-59862500D01*
X46165700Y-56984971D02*
X45434771Y-57715900D01*
X45262500Y-52050000D02*
X46165700Y-52953200D01*
X46165700Y-52953200D02*
X46165700Y-56984971D01*
X41096600Y-57715900D02*
X40262500Y-58550000D01*
X45434771Y-57715900D02*
X41096600Y-57715900D01*
%TO.N,LED BLU*%
X45762500Y-56050000D02*
X45762500Y-56800000D01*
X44262500Y-55550000D02*
X45262500Y-55550000D01*
X45262500Y-55550000D02*
X45762500Y-56050000D01*
X45762500Y-56800000D02*
X45262500Y-57300000D01*
D30*
%TO.N,Net-(D8-K)*%
X41262500Y-55550000D02*
X39762500Y-55550000D01*
%TO.N,Net-(D7-K)*%
X41262500Y-52050000D02*
X39762500Y-52050000D01*
%TO.N,Net-(D6-K)*%
X41262500Y-48550000D02*
X39762500Y-48550000D01*
%TO.N,Net-(D5-K)*%
X41262500Y-45050000D02*
X39762500Y-45050000D01*
D31*
%TO.N,GND*%
X220657000Y-132105000D02*
X220762000Y-132000000D01*
X219465000Y-131297000D02*
X219762000Y-131000000D01*
X192762000Y-128078000D02*
X192762000Y-125850000D01*
X213112000Y-142300000D02*
X213112000Y-139872000D01*
X211112000Y-142300000D02*
X211112000Y-139872000D01*
X213356000Y-139872000D02*
X215738000Y-137490000D01*
X209112000Y-142300000D02*
X209112000Y-139872000D01*
X211112000Y-139872000D02*
X218879000Y-132105000D01*
X216913000Y-130072000D02*
X218690000Y-130072000D01*
X217688000Y-131297000D02*
X219465000Y-131297000D01*
X213112000Y-139872000D02*
X213356000Y-139872000D01*
X218690000Y-130072000D02*
X218762000Y-130000000D01*
X207112000Y-142300000D02*
X207112000Y-139872000D01*
X218879000Y-132105000D02*
X220657000Y-132105000D01*
X207112000Y-139872000D02*
X216913000Y-130072000D01*
X209112000Y-139872000D02*
X217688000Y-131297000D01*
%TO.N,+5V*%
X192112000Y-137218500D02*
X192112500Y-137219000D01*
X191025000Y-133412000D02*
X191388000Y-133775000D01*
X191388000Y-133775000D02*
X192112000Y-135525000D01*
X190662000Y-132075900D02*
X190662500Y-132075400D01*
X192112000Y-135525000D02*
X192112000Y-137218500D01*
X190662000Y-133050000D02*
X190662000Y-132075900D01*
X190843500Y-133231000D02*
X190662500Y-133050000D01*
X192112000Y-137218500D02*
X192112000Y-138912000D01*
X191025000Y-133412000D02*
X190843500Y-133231000D01*
X190662500Y-132075400D02*
X190662500Y-130510000D01*
X190843500Y-133231000D02*
X190662000Y-133050000D01*
X190662000Y-132075900D02*
X190662000Y-131780000D01*
X192112500Y-137219000D02*
X192112500Y-142300000D01*
X190843500Y-133231000D02*
X190662000Y-133050000D01*
X191025000Y-133412000D02*
X190843500Y-133231000D01*
%TO.N,+12V*%
X194112000Y-137600000D02*
X194112000Y-139166000D01*
X193202000Y-132415000D02*
X193202000Y-132414000D01*
X193202000Y-131145000D02*
X193202500Y-131144500D01*
X193202000Y-132732500D02*
X193202000Y-132415000D01*
X193202000Y-132732500D02*
X193202500Y-132733000D01*
X194112000Y-137600000D02*
X194112000Y-139166000D01*
X193202000Y-133050000D02*
X193202000Y-132732500D01*
X193657000Y-133505000D02*
X194112000Y-134603000D01*
X193203000Y-133050500D02*
X193203000Y-133051000D01*
X193202000Y-132415000D02*
X193202000Y-132414000D01*
X193202500Y-131144500D02*
X193202500Y-130510000D01*
X193202500Y-132733000D02*
X193202500Y-133050000D01*
X194112000Y-140733000D02*
X194112500Y-140733500D01*
X194112000Y-140733000D02*
X194112000Y-142300000D01*
X194112500Y-140733500D02*
X194112500Y-142300000D01*
X193202500Y-133050000D02*
X193203000Y-133050500D01*
X194112000Y-137599000D02*
X194112000Y-137600000D01*
X194112000Y-137599000D02*
X194112000Y-137600000D01*
X193202000Y-131145000D02*
X193202000Y-130510000D01*
X193203000Y-133051000D02*
X193657000Y-133505000D01*
X193202000Y-132414000D02*
X193202000Y-131780000D01*
X193202000Y-131780000D02*
X193202000Y-131145000D01*
X194112000Y-134603000D02*
X194112000Y-137599000D01*
X193202000Y-132414000D02*
X193202000Y-131780000D01*
X194112000Y-139166000D02*
X194112000Y-140733000D01*
%TO.N,-12V*%
X197149000Y-139634000D02*
X197130000Y-139652000D01*
X203362500Y-130510000D02*
X203362000Y-130510000D01*
X197130000Y-139652000D02*
X197112000Y-139697000D01*
X197112000Y-140342000D02*
X197112000Y-140985000D01*
X197112000Y-140985000D02*
X197112000Y-141642500D01*
X203362000Y-133050000D02*
X203362000Y-131780000D01*
X197112000Y-141642500D02*
X197112500Y-141643000D01*
X197112000Y-141642500D02*
X197112000Y-142300000D01*
X203362000Y-131780000D02*
X203362500Y-131780500D01*
X197112500Y-141643000D02*
X197112500Y-142300000D01*
X197112000Y-140341000D02*
X197112000Y-140342000D01*
X197112000Y-140341000D02*
X197112000Y-140342000D01*
X197112000Y-140342000D02*
X197112000Y-140985000D01*
X197112000Y-139697000D02*
X197112000Y-140341000D01*
X203362500Y-131780500D02*
X203362500Y-133050000D01*
X203362000Y-131780000D02*
X203362000Y-130510000D01*
%TO.N,Net-(D4-K)*%
X201408000Y-125864000D02*
X201373000Y-125850000D01*
X201373000Y-125850000D02*
X200262500Y-125850000D01*
X201423000Y-125879000D02*
X201408000Y-125864000D01*
X200262500Y-125850000D02*
X200262000Y-125850000D01*
%TO.N,Net-(D1-K)*%
X188905000Y-123850000D02*
X188344000Y-124083000D01*
X188344000Y-124083000D02*
X188111000Y-124316000D01*
X189262000Y-123850000D02*
X188905000Y-123850000D01*
X189262500Y-123850000D02*
X189262000Y-123850000D01*
%TO.N,Net-(D3-A)*%
X196601000Y-126011000D02*
X196602000Y-126011000D01*
X196602000Y-126011000D02*
X196762000Y-125850000D01*
X196248000Y-126906000D02*
X196248000Y-126635000D01*
X196248000Y-126635000D02*
X196440000Y-126172000D01*
X196440000Y-126172000D02*
X196601000Y-126011000D01*
X196762000Y-125850000D02*
X196601000Y-126011000D01*
X196762500Y-125850000D02*
X196762000Y-125850000D01*
%TO.N,/Bus/CON_GATE*%
X185582000Y-132415000D02*
X185582000Y-133050000D01*
X185582000Y-131621000D02*
X185582000Y-131462000D01*
X198817000Y-139795000D02*
X199003000Y-139872000D01*
X185582000Y-131145000D02*
X185582000Y-130827500D01*
X185582000Y-132415000D02*
X185582500Y-132415500D01*
X199112000Y-141693000D02*
X199112000Y-142300000D01*
X185582000Y-131780000D02*
X185582000Y-132415000D01*
X199112500Y-141693500D02*
X199112500Y-142300000D01*
X185582000Y-130827500D02*
X185582000Y-130510000D01*
X185582000Y-131621000D02*
X185582000Y-131622000D01*
X185582500Y-132415500D02*
X185582500Y-133050000D01*
X199112000Y-141693000D02*
X199112500Y-141693500D01*
X199112000Y-140534000D02*
X199112000Y-141086000D01*
X185582000Y-131462000D02*
X185582000Y-131145000D01*
X199112000Y-140534000D02*
X199112000Y-141086000D01*
X185582000Y-131462000D02*
X185582000Y-131145000D01*
X185582000Y-131780000D02*
X185582000Y-131622000D01*
X185582000Y-131622000D02*
X185582000Y-131621000D01*
X185582500Y-130827000D02*
X185582500Y-130510000D01*
X185582000Y-130827500D02*
X185582500Y-130827000D01*
X194724000Y-135702000D02*
X198817000Y-139795000D01*
X199112000Y-139981000D02*
X199112000Y-140534000D01*
X185582000Y-131622000D02*
X185582000Y-131780000D01*
X199003000Y-139872000D02*
X199112000Y-139981000D01*
X199112000Y-141086000D02*
X199112000Y-141693000D01*
%TO.N,/Bus/CON_CV*%
X200725000Y-138224000D02*
X200112000Y-139702000D01*
X188122000Y-130228000D02*
X188122000Y-130510000D01*
X188122000Y-129944000D02*
X188122000Y-130227000D01*
X191505000Y-125524000D02*
X193132000Y-124850000D01*
X202041000Y-124873000D02*
X202041000Y-135544000D01*
X188122000Y-129943000D02*
X188122000Y-129944000D01*
X200112000Y-140135000D02*
X200112000Y-140136000D01*
X188122000Y-130228000D02*
X188122000Y-130510000D01*
X202041000Y-135544000D02*
X201076000Y-137872000D01*
X200087000Y-122920000D02*
X201468000Y-123492000D01*
X200112000Y-139702000D02*
X200112000Y-140135000D01*
X201076000Y-137872000D02*
X200725000Y-138224000D01*
X188122500Y-131780500D02*
X188122500Y-133050000D01*
X188122000Y-129942000D02*
X188122000Y-129425000D01*
X197379000Y-122920000D02*
X200087000Y-122920000D01*
X195049000Y-123885000D02*
X197379000Y-122920000D01*
X200112500Y-141434500D02*
X200112500Y-142300000D01*
X200112000Y-140136000D02*
X200112000Y-140568000D01*
X193132000Y-124850000D02*
X194758000Y-124176000D01*
X188122000Y-131780000D02*
X188122500Y-131780500D01*
X188122000Y-131145000D02*
X188122500Y-131144500D01*
X188122000Y-130228000D02*
X188122000Y-130510000D01*
X188122000Y-129944000D02*
X188122000Y-130227000D01*
X188122000Y-129943000D02*
X188122000Y-129942000D01*
X188122000Y-130227000D02*
X188122000Y-130228000D01*
X200112000Y-141434000D02*
X200112500Y-141434500D01*
X188122000Y-130227000D02*
X188122000Y-130228000D01*
X194758000Y-124176000D02*
X195049000Y-123885000D01*
X200112000Y-140135000D02*
X200112000Y-140136000D01*
X188122000Y-133050000D02*
X188122000Y-131780000D01*
X188122500Y-131144500D02*
X188122500Y-130510000D01*
X200112000Y-141434000D02*
X200112000Y-142300000D01*
X188122000Y-129425000D02*
X188488000Y-128541000D01*
X188122000Y-130227000D02*
X188122000Y-130228000D01*
X188122000Y-131145000D02*
X188122000Y-130510000D01*
X188122000Y-129943000D02*
X188122000Y-129944000D01*
X188488000Y-128541000D02*
X191505000Y-125524000D01*
X188122000Y-129942000D02*
X188122000Y-129943000D01*
X200112000Y-140136000D02*
X200112000Y-140568000D01*
X188122000Y-131780000D02*
X188122000Y-131145000D01*
X200112000Y-140568000D02*
X200112000Y-141434000D01*
X201468000Y-123492000D02*
X202041000Y-124873000D01*
%TO.N,Net-(J3-PRSNT_A)*%
X199166000Y-124947000D02*
X199293000Y-124819500D01*
X199293000Y-124819500D02*
X199420000Y-124692000D01*
X191112000Y-139136000D02*
X191112000Y-136522000D01*
X191112000Y-139136000D02*
X191112500Y-139136500D01*
X192990000Y-128942000D02*
X196838000Y-127348000D01*
X189467000Y-132548000D02*
X189467000Y-130734000D01*
X191112000Y-136522000D02*
X190290000Y-134535000D01*
X191258000Y-128942000D02*
X192990000Y-128942000D01*
X200262500Y-123850000D02*
X199293000Y-124819500D01*
X199114000Y-125072000D02*
X199140000Y-125010000D01*
X199140000Y-125010000D02*
X199166000Y-124947000D01*
X191112000Y-141750000D02*
X191112000Y-139136000D01*
X191112500Y-139136500D02*
X191112500Y-141750000D01*
X196838000Y-127348000D02*
X199114000Y-125072000D01*
X189992000Y-129467000D02*
X191258000Y-128942000D01*
X189467000Y-130734000D02*
X189992000Y-129467000D01*
X190290000Y-134535000D02*
X189467000Y-132548000D01*
%TO.N,Net-(J3-Audio_Out_D)*%
X212112500Y-142300000D02*
X212112000Y-142300000D01*
X212112000Y-139872000D02*
X219429000Y-132556000D01*
X221206000Y-132556000D02*
X221262000Y-132500000D01*
X212112000Y-142300000D02*
X212112000Y-139872000D01*
X219429000Y-132556000D02*
X221206000Y-132556000D01*
%TO.N,Net-(J3-Audio_Out_B)*%
X208112000Y-142300000D02*
X208112000Y-139872000D01*
X208112000Y-139872000D02*
X217135000Y-130850000D01*
X218912000Y-130850000D02*
X219262000Y-130500000D01*
X217135000Y-130850000D02*
X218912000Y-130850000D01*
X208112500Y-142300000D02*
X208112000Y-142300000D01*
%TO.N,Net-(J3-Audio_Out_A)*%
X206112000Y-139872000D02*
X216485000Y-129500000D01*
X206112500Y-142300000D02*
X206112000Y-142300000D01*
X206112000Y-142300000D02*
X206112000Y-139872000D01*
X216485000Y-129500000D02*
X218262000Y-129500000D01*
%TO.N,Net-(J3-Audio_Out_C)*%
X210112500Y-142300000D02*
X210112000Y-142300000D01*
X210112000Y-139872000D02*
X218295000Y-131690000D01*
X218295000Y-131690000D02*
X220072000Y-131690000D01*
X220072000Y-131690000D02*
X220262000Y-131500000D01*
X210112000Y-142300000D02*
X210112000Y-139872000D01*
%TO.N,Net-(D2-K)*%
X191278300Y-123964300D02*
X191278300Y-123631500D01*
X191862000Y-124083000D02*
X192424000Y-123850000D01*
X192424000Y-123850000D02*
X192762000Y-123850000D01*
X191630000Y-124316000D02*
X191862000Y-124083000D01*
X192762000Y-123850000D02*
X192762500Y-123850000D01*
X191630000Y-124316000D02*
X191278300Y-123964300D01*
%TO.N,/EXT_JACK_TN_3*%
X138293101Y-99130000D02*
X141793100Y-95630000D01*
X136299101Y-101899001D02*
X136299100Y-99637001D01*
X136793100Y-99130001D02*
X138293101Y-99130000D01*
X135912100Y-102286001D02*
X136299101Y-101899001D01*
X136293101Y-99630000D02*
X136793100Y-99130001D01*
X136299100Y-99637001D02*
X136293101Y-99630000D01*
%TO.N,/EXT_JACK_T_4*%
X138293101Y-100130000D02*
X142793101Y-95630000D01*
X137293100Y-102630001D02*
X137293100Y-100629999D01*
X137793100Y-100129999D02*
X138293101Y-100130000D01*
X137293100Y-100629999D02*
X137793100Y-100129999D01*
%TO.N,/EXT_JACK_TN_4*%
X137799100Y-101124000D02*
X143293099Y-95630000D01*
X137799100Y-103124001D02*
X137799100Y-101124000D01*
X137293100Y-103631001D02*
X137799100Y-103124001D01*
%TO.N,/EXT_JACK_R_4*%
X138293100Y-103631000D02*
X138293100Y-101130000D01*
X138293100Y-101130000D02*
X143793100Y-95630000D01*
X137293100Y-104630000D02*
X138293100Y-103631000D01*
%TO.N,/EXT_JACK_T_3*%
X138293100Y-98630000D02*
X141293100Y-95630000D01*
X136293100Y-98630001D02*
X138293100Y-98630000D01*
X135793101Y-99130000D02*
X136293100Y-98630001D01*
X135793101Y-101637001D02*
X135793101Y-99130000D01*
%TO.N,/EXT_JACK_R_3*%
X138293099Y-99630000D02*
X142293100Y-95629999D01*
X136793100Y-102337000D02*
X136793100Y-100130000D01*
X136793100Y-100130000D02*
X137293100Y-99630000D01*
X136402100Y-102728999D02*
X136338100Y-102792000D01*
X137293100Y-99630000D02*
X138293099Y-99630000D01*
X136338100Y-102792000D02*
X136793100Y-102337000D01*
%TD*%
%TA.AperFunction,Conductor*%
%TO.N,GND*%
G36*
X221256575Y-96577007D02*
G01*
X221222500Y-96704174D01*
X221222500Y-96835826D01*
X221256575Y-96962993D01*
X221289488Y-97020000D01*
X219615512Y-97020000D01*
X219648425Y-96962993D01*
X219682500Y-96835826D01*
X219682500Y-96704174D01*
X219648425Y-96577007D01*
X219615512Y-96520000D01*
X221289488Y-96520000D01*
X221256575Y-96577007D01*
G37*
%TD.AperFunction*%
%TA.AperFunction,Conductor*%
G36*
X217443492Y-72769685D02*
G01*
X217466647Y-72788906D01*
X217546930Y-72874000D01*
X217699942Y-73036183D01*
X217876403Y-73184251D01*
X217967686Y-73260847D01*
X217967694Y-73260853D01*
X218259703Y-73452911D01*
X218259707Y-73452913D01*
X218572049Y-73609777D01*
X218900489Y-73729319D01*
X219240586Y-73809923D01*
X219587741Y-73850500D01*
X219587748Y-73850500D01*
X219937252Y-73850500D01*
X219937259Y-73850500D01*
X220284414Y-73809923D01*
X220624511Y-73729319D01*
X220952951Y-73609777D01*
X221265293Y-73452913D01*
X221557311Y-73260849D01*
X221825058Y-73036183D01*
X221985738Y-72865871D01*
X222058353Y-72788906D01*
X222118676Y-72753652D01*
X222148547Y-72750000D01*
X224438000Y-72750000D01*
X224505039Y-72769685D01*
X224550794Y-72822489D01*
X224562000Y-72874000D01*
X224562000Y-139825500D01*
X224542315Y-139892539D01*
X224489511Y-139938294D01*
X224438000Y-139949500D01*
X223742747Y-139949500D01*
X223684270Y-139961131D01*
X223684268Y-139961132D01*
X223681387Y-139963058D01*
X223674155Y-139965322D01*
X223672987Y-139965806D01*
X223672943Y-139965701D01*
X223614709Y-139983933D01*
X223547329Y-139965446D01*
X223543613Y-139963058D01*
X223540731Y-139961132D01*
X223540729Y-139961131D01*
X223482252Y-139949500D01*
X223482248Y-139949500D01*
X222742752Y-139949500D01*
X222742747Y-139949500D01*
X222684270Y-139961131D01*
X222684268Y-139961132D01*
X222681387Y-139963058D01*
X222674155Y-139965322D01*
X222672987Y-139965806D01*
X222672943Y-139965701D01*
X222614709Y-139983933D01*
X222547329Y-139965446D01*
X222543613Y-139963058D01*
X222540731Y-139961132D01*
X222540729Y-139961131D01*
X222482252Y-139949500D01*
X222482248Y-139949500D01*
X221742752Y-139949500D01*
X221742747Y-139949500D01*
X221684270Y-139961131D01*
X221684268Y-139961132D01*
X221681387Y-139963058D01*
X221674155Y-139965322D01*
X221672987Y-139965806D01*
X221672943Y-139965701D01*
X221614709Y-139983933D01*
X221547329Y-139965446D01*
X221543613Y-139963058D01*
X221540731Y-139961132D01*
X221540729Y-139961131D01*
X221482252Y-139949500D01*
X221482248Y-139949500D01*
X220742752Y-139949500D01*
X220742747Y-139949500D01*
X220684270Y-139961131D01*
X220684268Y-139961132D01*
X220681387Y-139963058D01*
X220674155Y-139965322D01*
X220672987Y-139965806D01*
X220672943Y-139965701D01*
X220614709Y-139983933D01*
X220547329Y-139965446D01*
X220543613Y-139963058D01*
X220540731Y-139961132D01*
X220540729Y-139961131D01*
X220482252Y-139949500D01*
X220482248Y-139949500D01*
X219742752Y-139949500D01*
X219742747Y-139949500D01*
X219684270Y-139961131D01*
X219684268Y-139961132D01*
X219681387Y-139963058D01*
X219674155Y-139965322D01*
X219672987Y-139965806D01*
X219672943Y-139965701D01*
X219614709Y-139983933D01*
X219547329Y-139965446D01*
X219543613Y-139963058D01*
X219540731Y-139961132D01*
X219540729Y-139961131D01*
X219482252Y-139949500D01*
X219482248Y-139949500D01*
X218999056Y-139949500D01*
X218932017Y-139929815D01*
X218899790Y-139899811D01*
X218819690Y-139792812D01*
X218819687Y-139792809D01*
X218704593Y-139706649D01*
X218704586Y-139706645D01*
X218569879Y-139656403D01*
X218569872Y-139656401D01*
X218510344Y-139650000D01*
X218362500Y-139650000D01*
X218362500Y-144950000D01*
X218510328Y-144950000D01*
X218510344Y-144949999D01*
X218569872Y-144943598D01*
X218569879Y-144943596D01*
X218704586Y-144893354D01*
X218704593Y-144893350D01*
X218819687Y-144807190D01*
X218819690Y-144807187D01*
X218899790Y-144700189D01*
X218955723Y-144658318D01*
X218999056Y-144650500D01*
X219482250Y-144650500D01*
X219482251Y-144650499D01*
X219497068Y-144647552D01*
X219540729Y-144638868D01*
X219540731Y-144638867D01*
X219543608Y-144636945D01*
X219550835Y-144634681D01*
X219552013Y-144634194D01*
X219552056Y-144634299D01*
X219610285Y-144616066D01*
X219677665Y-144634550D01*
X219681392Y-144636945D01*
X219684268Y-144638867D01*
X219684270Y-144638868D01*
X219742747Y-144650499D01*
X219742750Y-144650500D01*
X219742752Y-144650500D01*
X220482250Y-144650500D01*
X220482251Y-144650499D01*
X220497068Y-144647552D01*
X220540729Y-144638868D01*
X220540731Y-144638867D01*
X220543608Y-144636945D01*
X220550835Y-144634681D01*
X220552013Y-144634194D01*
X220552056Y-144634299D01*
X220610285Y-144616066D01*
X220677665Y-144634550D01*
X220681392Y-144636945D01*
X220684268Y-144638867D01*
X220684270Y-144638868D01*
X220742747Y-144650499D01*
X220742750Y-144650500D01*
X220742752Y-144650500D01*
X221482250Y-144650500D01*
X221482251Y-144650499D01*
X221497068Y-144647552D01*
X221540729Y-144638868D01*
X221540731Y-144638867D01*
X221543608Y-144636945D01*
X221550835Y-144634681D01*
X221552013Y-144634194D01*
X221552056Y-144634299D01*
X221610285Y-144616066D01*
X221677665Y-144634550D01*
X221681392Y-144636945D01*
X221684268Y-144638867D01*
X221684270Y-144638868D01*
X221742747Y-144650499D01*
X221742750Y-144650500D01*
X221742752Y-144650500D01*
X222482250Y-144650500D01*
X222482251Y-144650499D01*
X222497068Y-144647552D01*
X222540729Y-144638868D01*
X222540731Y-144638867D01*
X222543608Y-144636945D01*
X222550835Y-144634681D01*
X222552013Y-144634194D01*
X222552056Y-144634299D01*
X222610285Y-144616066D01*
X222677665Y-144634550D01*
X222681392Y-144636945D01*
X222684268Y-144638867D01*
X222684270Y-144638868D01*
X222742747Y-144650499D01*
X222742750Y-144650500D01*
X222742752Y-144650500D01*
X223482250Y-144650500D01*
X223482251Y-144650499D01*
X223497068Y-144647552D01*
X223540729Y-144638868D01*
X223540731Y-144638867D01*
X223543608Y-144636945D01*
X223550835Y-144634681D01*
X223552013Y-144634194D01*
X223552056Y-144634299D01*
X223610285Y-144616066D01*
X223677665Y-144634550D01*
X223681392Y-144636945D01*
X223684268Y-144638867D01*
X223684270Y-144638868D01*
X223742747Y-144650499D01*
X223742750Y-144650500D01*
X224438000Y-144650500D01*
X224505039Y-144670185D01*
X224550794Y-144722989D01*
X224562000Y-144774500D01*
X224562000Y-145115588D01*
X224542315Y-145182627D01*
X224525681Y-145203269D01*
X224215769Y-145513181D01*
X224154446Y-145546666D01*
X224128088Y-145549500D01*
X204196912Y-145549500D01*
X204129873Y-145529815D01*
X204109231Y-145513181D01*
X203799319Y-145203269D01*
X203765834Y-145141946D01*
X203763000Y-145115588D01*
X203763000Y-144774500D01*
X203782685Y-144707461D01*
X203835489Y-144661706D01*
X203887000Y-144650500D01*
X204482250Y-144650500D01*
X204482251Y-144650499D01*
X204497068Y-144647552D01*
X204540729Y-144638868D01*
X204540731Y-144638867D01*
X204543608Y-144636945D01*
X204550835Y-144634681D01*
X204552013Y-144634194D01*
X204552056Y-144634299D01*
X204610285Y-144616066D01*
X204677665Y-144634550D01*
X204681392Y-144636945D01*
X204684268Y-144638867D01*
X204684270Y-144638868D01*
X204742747Y-144650499D01*
X204742750Y-144650500D01*
X204742752Y-144650500D01*
X205482250Y-144650500D01*
X205482251Y-144650499D01*
X205497068Y-144647552D01*
X205540729Y-144638868D01*
X205540731Y-144638867D01*
X205543608Y-144636945D01*
X205550835Y-144634681D01*
X205552013Y-144634194D01*
X205552056Y-144634299D01*
X205610285Y-144616066D01*
X205677665Y-144634550D01*
X205681392Y-144636945D01*
X205684268Y-144638867D01*
X205684270Y-144638868D01*
X205742747Y-144650499D01*
X205742750Y-144650500D01*
X206225944Y-144650500D01*
X206292983Y-144670185D01*
X206325210Y-144700189D01*
X206405309Y-144807187D01*
X206405312Y-144807190D01*
X206520406Y-144893350D01*
X206520413Y-144893354D01*
X206655120Y-144943596D01*
X206655127Y-144943598D01*
X206714655Y-144949999D01*
X206714672Y-144950000D01*
X206862500Y-144950000D01*
X206862500Y-139650000D01*
X207362500Y-139650000D01*
X207362500Y-144950000D01*
X207510328Y-144950000D01*
X207510344Y-144949999D01*
X207569872Y-144943598D01*
X207569879Y-144943596D01*
X207704586Y-144893354D01*
X207704593Y-144893350D01*
X207819687Y-144807190D01*
X207819690Y-144807187D01*
X207899790Y-144700189D01*
X207955723Y-144658318D01*
X207999056Y-144650500D01*
X208225944Y-144650500D01*
X208292983Y-144670185D01*
X208325210Y-144700189D01*
X208405309Y-144807187D01*
X208405312Y-144807190D01*
X208520406Y-144893350D01*
X208520413Y-144893354D01*
X208655120Y-144943596D01*
X208655127Y-144943598D01*
X208714655Y-144949999D01*
X208714672Y-144950000D01*
X208862500Y-144950000D01*
X208862500Y-139650000D01*
X209362500Y-139650000D01*
X209362500Y-144950000D01*
X209510328Y-144950000D01*
X209510344Y-144949999D01*
X209569872Y-144943598D01*
X209569879Y-144943596D01*
X209704586Y-144893354D01*
X209704593Y-144893350D01*
X209819687Y-144807190D01*
X209819690Y-144807187D01*
X209899790Y-144700189D01*
X209955723Y-144658318D01*
X209999056Y-144650500D01*
X210225944Y-144650500D01*
X210292983Y-144670185D01*
X210325210Y-144700189D01*
X210405309Y-144807187D01*
X210405312Y-144807190D01*
X210520406Y-144893350D01*
X210520413Y-144893354D01*
X210655120Y-144943596D01*
X210655127Y-144943598D01*
X210714655Y-144949999D01*
X210714672Y-144950000D01*
X210862500Y-144950000D01*
X210862500Y-139650000D01*
X211362500Y-139650000D01*
X211362500Y-144950000D01*
X211510328Y-144950000D01*
X211510344Y-144949999D01*
X211569872Y-144943598D01*
X211569879Y-144943596D01*
X211704586Y-144893354D01*
X211704593Y-144893350D01*
X211819687Y-144807190D01*
X211819690Y-144807187D01*
X211899790Y-144700189D01*
X211955723Y-144658318D01*
X211999056Y-144650500D01*
X212225944Y-144650500D01*
X212292983Y-144670185D01*
X212325210Y-144700189D01*
X212405309Y-144807187D01*
X212405312Y-144807190D01*
X212520406Y-144893350D01*
X212520413Y-144893354D01*
X212655120Y-144943596D01*
X212655127Y-144943598D01*
X212714655Y-144949999D01*
X212714672Y-144950000D01*
X212862500Y-144950000D01*
X213362500Y-144950000D01*
X213510328Y-144950000D01*
X213510344Y-144949999D01*
X213569872Y-144943598D01*
X213569879Y-144943596D01*
X213704586Y-144893354D01*
X213704593Y-144893350D01*
X213819687Y-144807190D01*
X213819690Y-144807187D01*
X213899790Y-144700189D01*
X213955723Y-144658318D01*
X213999056Y-144650500D01*
X214225944Y-144650500D01*
X214292983Y-144670185D01*
X214325210Y-144700189D01*
X214405309Y-144807187D01*
X214405312Y-144807190D01*
X214520406Y-144893350D01*
X214520413Y-144893354D01*
X214655120Y-144943596D01*
X214655127Y-144943598D01*
X214714655Y-144949999D01*
X214714672Y-144950000D01*
X214862500Y-144950000D01*
X215362500Y-144950000D01*
X215510328Y-144950000D01*
X215510344Y-144949999D01*
X215569872Y-144943598D01*
X215569879Y-144943596D01*
X215704586Y-144893354D01*
X215704593Y-144893350D01*
X215819687Y-144807190D01*
X215819690Y-144807187D01*
X215899790Y-144700189D01*
X215955723Y-144658318D01*
X215999056Y-144650500D01*
X216482250Y-144650500D01*
X216482251Y-144650499D01*
X216497068Y-144647552D01*
X216540729Y-144638868D01*
X216540731Y-144638867D01*
X216543608Y-144636945D01*
X216550835Y-144634681D01*
X216552013Y-144634194D01*
X216552056Y-144634299D01*
X216610285Y-144616066D01*
X216677665Y-144634550D01*
X216681392Y-144636945D01*
X216684268Y-144638867D01*
X216684270Y-144638868D01*
X216742747Y-144650499D01*
X216742750Y-144650500D01*
X217225944Y-144650500D01*
X217292983Y-144670185D01*
X217325210Y-144700189D01*
X217405309Y-144807187D01*
X217405312Y-144807190D01*
X217520406Y-144893350D01*
X217520413Y-144893354D01*
X217655120Y-144943596D01*
X217655127Y-144943598D01*
X217714655Y-144949999D01*
X217714672Y-144950000D01*
X217862500Y-144950000D01*
X217862500Y-139650000D01*
X217714655Y-139650000D01*
X217655127Y-139656401D01*
X217655120Y-139656403D01*
X217520413Y-139706645D01*
X217520406Y-139706649D01*
X217405312Y-139792809D01*
X217405309Y-139792812D01*
X217325210Y-139899811D01*
X217269277Y-139941682D01*
X217225944Y-139949500D01*
X216742747Y-139949500D01*
X216684270Y-139961131D01*
X216684268Y-139961132D01*
X216681387Y-139963058D01*
X216674155Y-139965322D01*
X216672987Y-139965806D01*
X216672943Y-139965701D01*
X216614709Y-139983933D01*
X216547329Y-139965446D01*
X216543613Y-139963058D01*
X216540731Y-139961132D01*
X216540729Y-139961131D01*
X216482252Y-139949500D01*
X216482248Y-139949500D01*
X215999056Y-139949500D01*
X215932017Y-139929815D01*
X215899790Y-139899811D01*
X215819690Y-139792812D01*
X215819687Y-139792809D01*
X215704593Y-139706649D01*
X215704586Y-139706645D01*
X215569879Y-139656403D01*
X215569872Y-139656401D01*
X215510344Y-139650000D01*
X215362500Y-139650000D01*
X215362500Y-144950000D01*
X214862500Y-144950000D01*
X214862500Y-139650000D01*
X214714655Y-139650000D01*
X214655127Y-139656401D01*
X214655120Y-139656403D01*
X214520413Y-139706645D01*
X214520406Y-139706649D01*
X214405312Y-139792809D01*
X214405309Y-139792812D01*
X214325210Y-139899811D01*
X214269277Y-139941682D01*
X214225944Y-139949500D01*
X213999056Y-139949500D01*
X213932017Y-139929815D01*
X213899790Y-139899811D01*
X213819690Y-139792812D01*
X213819687Y-139792809D01*
X213704593Y-139706649D01*
X213704586Y-139706645D01*
X213569879Y-139656403D01*
X213569872Y-139656401D01*
X213510344Y-139650000D01*
X213362500Y-139650000D01*
X213362500Y-144950000D01*
X212862500Y-144950000D01*
X212862500Y-139634098D01*
X212848142Y-139607804D01*
X212853126Y-139538112D01*
X212881633Y-139493759D01*
X213177029Y-139198404D01*
X219507284Y-132869012D01*
X219568609Y-132835532D01*
X219594959Y-132832700D01*
X220947003Y-132832700D01*
X221014041Y-132852384D01*
X221027562Y-132861073D01*
X221081323Y-132895623D01*
X221081327Y-132895625D01*
X221200100Y-132930499D01*
X221200102Y-132930500D01*
X221200103Y-132930500D01*
X221323898Y-132930500D01*
X221323898Y-132930499D01*
X221442675Y-132895624D01*
X221546817Y-132828696D01*
X221627884Y-132735139D01*
X221679309Y-132622533D01*
X221696927Y-132500000D01*
X221679309Y-132377467D01*
X221670772Y-132358774D01*
X221645880Y-132304268D01*
X221627884Y-132264861D01*
X221546817Y-132171304D01*
X221546814Y-132171302D01*
X221546812Y-132171300D01*
X221442677Y-132104376D01*
X221442672Y-132104374D01*
X221323899Y-132069500D01*
X221323897Y-132069500D01*
X221200103Y-132069500D01*
X221200100Y-132069500D01*
X221081327Y-132104374D01*
X221081322Y-132104376D01*
X220977187Y-132171300D01*
X220977185Y-132171302D01*
X220920688Y-132236503D01*
X220861909Y-132274277D01*
X220826975Y-132279300D01*
X219436305Y-132279300D01*
X219436301Y-132279299D01*
X219392590Y-132279296D01*
X219392575Y-132279298D01*
X219368454Y-132285761D01*
X219360150Y-132287987D01*
X219322204Y-132298151D01*
X219293355Y-132314807D01*
X219293354Y-132314808D01*
X219259112Y-132334575D01*
X219259102Y-132334585D01*
X219237143Y-132356543D01*
X211946451Y-139646239D01*
X211946402Y-139646283D01*
X211914802Y-139677884D01*
X211914798Y-139677889D01*
X211914797Y-139677890D01*
X211893142Y-139699543D01*
X211886974Y-139705710D01*
X211885942Y-139704678D01*
X211833146Y-139739438D01*
X211763280Y-139740210D01*
X211722588Y-139720121D01*
X211704589Y-139706647D01*
X211704586Y-139706645D01*
X211569879Y-139656403D01*
X211569872Y-139656401D01*
X211510344Y-139650000D01*
X211362500Y-139650000D01*
X210862500Y-139650000D01*
X210862500Y-139634101D01*
X210848138Y-139607800D01*
X210853122Y-139538108D01*
X210881628Y-139493755D01*
X218373286Y-132003013D01*
X218434611Y-131969532D01*
X218460962Y-131966700D01*
X220108428Y-131966700D01*
X220108433Y-131966699D01*
X220178800Y-131947845D01*
X220178800Y-131947844D01*
X220178803Y-131947844D01*
X220180069Y-131947112D01*
X220181486Y-131946733D01*
X220186313Y-131944734D01*
X220186576Y-131945369D01*
X220242070Y-131930500D01*
X220323898Y-131930500D01*
X220323898Y-131930499D01*
X220436221Y-131897519D01*
X220442672Y-131895625D01*
X220442673Y-131895624D01*
X220442675Y-131895624D01*
X220450764Y-131890426D01*
X220546812Y-131828699D01*
X220546811Y-131828699D01*
X220546817Y-131828696D01*
X220627884Y-131735139D01*
X220679309Y-131622533D01*
X220696927Y-131500000D01*
X220679309Y-131377467D01*
X220668161Y-131353057D01*
X220647977Y-131308860D01*
X220627884Y-131264861D01*
X220546817Y-131171304D01*
X220546814Y-131171302D01*
X220546812Y-131171300D01*
X220442677Y-131104376D01*
X220442672Y-131104374D01*
X220323899Y-131069500D01*
X220323897Y-131069500D01*
X220200103Y-131069500D01*
X220200100Y-131069500D01*
X220081327Y-131104374D01*
X220081322Y-131104376D01*
X219977187Y-131171300D01*
X219977185Y-131171302D01*
X219977183Y-131171303D01*
X219977183Y-131171304D01*
X219970883Y-131178575D01*
X219896117Y-131264859D01*
X219896115Y-131264862D01*
X219861430Y-131340812D01*
X219815675Y-131393616D01*
X219748636Y-131413300D01*
X218287731Y-131413300D01*
X218287727Y-131413299D01*
X218258568Y-131413297D01*
X218258532Y-131413302D01*
X218257758Y-131413517D01*
X218218950Y-131423915D01*
X218218949Y-131423915D01*
X218218947Y-131423916D01*
X218205390Y-131427547D01*
X218188208Y-131432151D01*
X218188204Y-131432153D01*
X218188196Y-131432156D01*
X218155650Y-131450947D01*
X218155648Y-131450948D01*
X218125115Y-131468574D01*
X218125103Y-131468582D01*
X218100562Y-131493124D01*
X218100558Y-131493128D01*
X209945728Y-139646960D01*
X209945727Y-139646959D01*
X209931793Y-139660894D01*
X209918072Y-139674615D01*
X209890814Y-139701870D01*
X209886971Y-139705713D01*
X209885937Y-139704679D01*
X209833153Y-139739436D01*
X209763288Y-139740212D01*
X209722588Y-139720121D01*
X209704589Y-139706647D01*
X209704586Y-139706645D01*
X209569879Y-139656403D01*
X209569872Y-139656401D01*
X209510344Y-139650000D01*
X209362500Y-139650000D01*
X208862500Y-139650000D01*
X208862500Y-139634105D01*
X208848134Y-139607796D01*
X208853118Y-139538104D01*
X208881623Y-139493753D01*
X217156083Y-131220211D01*
X217213286Y-131163014D01*
X217274611Y-131129532D01*
X217300962Y-131126700D01*
X218948428Y-131126700D01*
X218948433Y-131126699D01*
X219018803Y-131107844D01*
X219018804Y-131107844D01*
X219053775Y-131087652D01*
X219081898Y-131071415D01*
X219186495Y-130966817D01*
X219247816Y-130933334D01*
X219274175Y-130930500D01*
X219323898Y-130930500D01*
X219323898Y-130930499D01*
X219442675Y-130895624D01*
X219489565Y-130865490D01*
X219546812Y-130828699D01*
X219546811Y-130828699D01*
X219546817Y-130828696D01*
X219627884Y-130735139D01*
X219679309Y-130622533D01*
X219696927Y-130500000D01*
X219679309Y-130377467D01*
X219627884Y-130264861D01*
X219546817Y-130171304D01*
X219546814Y-130171302D01*
X219546812Y-130171300D01*
X219442677Y-130104376D01*
X219442672Y-130104374D01*
X219323899Y-130069500D01*
X219323897Y-130069500D01*
X219200103Y-130069500D01*
X219200100Y-130069500D01*
X219081327Y-130104374D01*
X219081322Y-130104376D01*
X218977187Y-130171300D01*
X218977185Y-130171302D01*
X218896117Y-130264859D01*
X218896115Y-130264862D01*
X218844691Y-130377466D01*
X218831825Y-130466948D01*
X218802800Y-130530503D01*
X218744021Y-130568277D01*
X218709087Y-130573300D01*
X217135016Y-130573300D01*
X217133359Y-130573299D01*
X217098587Y-130573298D01*
X217098586Y-130573298D01*
X217098566Y-130573298D01*
X217098533Y-130573302D01*
X217097732Y-130573525D01*
X217065293Y-130582216D01*
X217065292Y-130582216D01*
X217028203Y-130592152D01*
X216996580Y-130610410D01*
X216996577Y-130610412D01*
X216965112Y-130628576D01*
X216965104Y-130628582D01*
X216938052Y-130655634D01*
X216938048Y-130655637D01*
X207946446Y-139646243D01*
X207946421Y-139646265D01*
X207937029Y-139655658D01*
X207918072Y-139674615D01*
X207890814Y-139701870D01*
X207886970Y-139705714D01*
X207885938Y-139704682D01*
X207833132Y-139739442D01*
X207763266Y-139740206D01*
X207722585Y-139720119D01*
X207704590Y-139706647D01*
X207704586Y-139706645D01*
X207569879Y-139656403D01*
X207569872Y-139656401D01*
X207510344Y-139650000D01*
X207362500Y-139650000D01*
X206862500Y-139650000D01*
X206862500Y-139634108D01*
X206848130Y-139607792D01*
X206853114Y-139538100D01*
X206881619Y-139493749D01*
X207171896Y-139203500D01*
X216563288Y-129813014D01*
X216624612Y-129779533D01*
X216650964Y-129776700D01*
X217875499Y-129776700D01*
X217942538Y-129796385D01*
X217969213Y-129819498D01*
X217977184Y-129828697D01*
X218081322Y-129895623D01*
X218081327Y-129895625D01*
X218200100Y-129930499D01*
X218200102Y-129930500D01*
X218200103Y-129930500D01*
X218323898Y-129930500D01*
X218323898Y-129930499D01*
X218442675Y-129895624D01*
X218546817Y-129828696D01*
X218627884Y-129735139D01*
X218679309Y-129622533D01*
X218696927Y-129500000D01*
X218679672Y-129379991D01*
X218679309Y-129377466D01*
X218641584Y-129294860D01*
X218627884Y-129264861D01*
X218546817Y-129171304D01*
X218546814Y-129171302D01*
X218546812Y-129171300D01*
X218442677Y-129104376D01*
X218442672Y-129104374D01*
X218323899Y-129069500D01*
X218323897Y-129069500D01*
X218200103Y-129069500D01*
X218200100Y-129069500D01*
X218081327Y-129104374D01*
X218081322Y-129104376D01*
X217977184Y-129171302D01*
X217969213Y-129180502D01*
X217910435Y-129218277D01*
X217875499Y-129223300D01*
X216485014Y-129223300D01*
X216483095Y-129223299D01*
X216448585Y-129223298D01*
X216448584Y-129223298D01*
X216448567Y-129223298D01*
X216448526Y-129223303D01*
X216447695Y-129223534D01*
X216419066Y-129231205D01*
X216419065Y-129231205D01*
X216419063Y-129231206D01*
X216378209Y-129242151D01*
X216378207Y-129242151D01*
X216378206Y-129242152D01*
X216378195Y-129242157D01*
X216349799Y-129258552D01*
X216349797Y-129258553D01*
X216315113Y-129278576D01*
X216315107Y-129278580D01*
X216315105Y-129278582D01*
X216284024Y-129309662D01*
X216284022Y-129309663D01*
X205945228Y-139647459D01*
X205945194Y-139647491D01*
X205931792Y-139660894D01*
X205921680Y-139671006D01*
X205894527Y-139698157D01*
X205890592Y-139702092D01*
X205890585Y-139702101D01*
X205876131Y-139727134D01*
X205854162Y-139765181D01*
X205854159Y-139765189D01*
X205854158Y-139765193D01*
X205854156Y-139765198D01*
X205846758Y-139792809D01*
X205846157Y-139795053D01*
X205846156Y-139795056D01*
X205835305Y-139835547D01*
X205835302Y-139835560D01*
X205835300Y-139835569D01*
X205835299Y-139835576D01*
X205835210Y-139837010D01*
X205835072Y-139837387D01*
X205834822Y-139839396D01*
X205834365Y-139839338D01*
X205811393Y-139902695D01*
X205755844Y-139945077D01*
X205735642Y-139950913D01*
X205684270Y-139961131D01*
X205684268Y-139961132D01*
X205681387Y-139963058D01*
X205674155Y-139965322D01*
X205672987Y-139965806D01*
X205672943Y-139965701D01*
X205614709Y-139983933D01*
X205547329Y-139965446D01*
X205543613Y-139963058D01*
X205540731Y-139961132D01*
X205540729Y-139961131D01*
X205482252Y-139949500D01*
X205482248Y-139949500D01*
X204742752Y-139949500D01*
X204742747Y-139949500D01*
X204684270Y-139961131D01*
X204684268Y-139961132D01*
X204681387Y-139963058D01*
X204674155Y-139965322D01*
X204672987Y-139965806D01*
X204672943Y-139965701D01*
X204614709Y-139983933D01*
X204547329Y-139965446D01*
X204543613Y-139963058D01*
X204540731Y-139961132D01*
X204540729Y-139961131D01*
X204482252Y-139949500D01*
X204482248Y-139949500D01*
X203887000Y-139949500D01*
X203819961Y-139929815D01*
X203774206Y-139877011D01*
X203763000Y-139825500D01*
X203763000Y-138199346D01*
X203763000Y-138199344D01*
X203728043Y-138001091D01*
X203659190Y-137811920D01*
X203558535Y-137637579D01*
X203429134Y-137483366D01*
X203274921Y-137353965D01*
X203198975Y-137310118D01*
X203100584Y-137253312D01*
X203100581Y-137253311D01*
X203100580Y-137253310D01*
X203076690Y-137244615D01*
X202911408Y-137184456D01*
X202713158Y-137149500D01*
X202713156Y-137149500D01*
X202511844Y-137149500D01*
X202511841Y-137149500D01*
X202313591Y-137184456D01*
X202124422Y-137253309D01*
X202124415Y-137253312D01*
X201950078Y-137353965D01*
X201950074Y-137353968D01*
X201795860Y-137483370D01*
X201794180Y-137485051D01*
X201793258Y-137485553D01*
X201791719Y-137486846D01*
X201791459Y-137486536D01*
X201732854Y-137518531D01*
X201663163Y-137513540D01*
X201607233Y-137471663D01*
X201582822Y-137406197D01*
X201591957Y-137349881D01*
X202286577Y-135674156D01*
X202293732Y-135659655D01*
X202298844Y-135650802D01*
X202301460Y-135641036D01*
X202306690Y-135625636D01*
X202310559Y-135616303D01*
X202311895Y-135606176D01*
X202315052Y-135590306D01*
X202317700Y-135580428D01*
X202317700Y-135570319D01*
X202318765Y-135554100D01*
X202320088Y-135544072D01*
X202320088Y-135544071D01*
X202318757Y-135533941D01*
X202317700Y-135517788D01*
X202317700Y-134094800D01*
X202582293Y-133830206D01*
X202695429Y-133933342D01*
X202695431Y-133933344D01*
X202869098Y-134040874D01*
X202869104Y-134040877D01*
X202909455Y-134056508D01*
X203059576Y-134114666D01*
X203260366Y-134152200D01*
X203260368Y-134152200D01*
X203464632Y-134152200D01*
X203464634Y-134152200D01*
X203665424Y-134114666D01*
X203855898Y-134040876D01*
X204029570Y-133933343D01*
X204180525Y-133795729D01*
X204303624Y-133632719D01*
X204394674Y-133449866D01*
X204450575Y-133253396D01*
X204469422Y-133050000D01*
X204450575Y-132846604D01*
X204394674Y-132650134D01*
X204388197Y-132637127D01*
X204343269Y-132546899D01*
X204303624Y-132467281D01*
X204180525Y-132304271D01*
X204180522Y-132304268D01*
X204180518Y-132304264D01*
X204029570Y-132166657D01*
X204029568Y-132166655D01*
X203862500Y-132063210D01*
X203862500Y-131496788D01*
X204029570Y-131393343D01*
X204180525Y-131255729D01*
X204303624Y-131092719D01*
X204394674Y-130909866D01*
X204450575Y-130713396D01*
X204469422Y-130510000D01*
X204450575Y-130306604D01*
X204394674Y-130110134D01*
X204388191Y-130097115D01*
X204343269Y-130006899D01*
X204303624Y-129927281D01*
X204180525Y-129764271D01*
X204180522Y-129764268D01*
X204180518Y-129764264D01*
X204029570Y-129626657D01*
X204029568Y-129626655D01*
X203855901Y-129519125D01*
X203855895Y-129519122D01*
X203816272Y-129503772D01*
X203362500Y-129050000D01*
X202317700Y-129050000D01*
X202317700Y-124899147D01*
X202318751Y-124883034D01*
X202320088Y-124872833D01*
X202318770Y-124862865D01*
X202317700Y-124846610D01*
X202317700Y-124836575D01*
X202317700Y-124836572D01*
X202315035Y-124826627D01*
X202311885Y-124810815D01*
X202310535Y-124800605D01*
X202306687Y-124791333D01*
X202301442Y-124775897D01*
X202298844Y-124766198D01*
X202293701Y-124757291D01*
X202286557Y-124742816D01*
X202273615Y-124711625D01*
X201723914Y-123386779D01*
X201723887Y-123386712D01*
X201709692Y-123352445D01*
X201709624Y-123352327D01*
X201709614Y-123352314D01*
X201709613Y-123352311D01*
X201687968Y-123324138D01*
X201671598Y-123302804D01*
X201665341Y-123294649D01*
X201665235Y-123294543D01*
X201636547Y-123272557D01*
X201636548Y-123272555D01*
X201636502Y-123272522D01*
X201607540Y-123250301D01*
X201607538Y-123250300D01*
X201607530Y-123250294D01*
X201607402Y-123250220D01*
X201572712Y-123235875D01*
X201572717Y-123235862D01*
X201572645Y-123235848D01*
X201488510Y-123201000D01*
X200217149Y-122674410D01*
X200202599Y-122667235D01*
X200193804Y-122662157D01*
X200193803Y-122662156D01*
X200193802Y-122662156D01*
X200183968Y-122659521D01*
X200168622Y-122654311D01*
X200159231Y-122650421D01*
X200159223Y-122650419D01*
X200149137Y-122649091D01*
X200133249Y-122645930D01*
X200123430Y-122643300D01*
X200123428Y-122643300D01*
X200113260Y-122643300D01*
X200097075Y-122642239D01*
X200097067Y-122642238D01*
X200086995Y-122640912D01*
X200076916Y-122642239D01*
X200060729Y-122643300D01*
X197405273Y-122643300D01*
X197389082Y-122642238D01*
X197379012Y-122640912D01*
X197379011Y-122640912D01*
X197368919Y-122642240D01*
X197352742Y-122643300D01*
X197342568Y-122643300D01*
X197332746Y-122645931D01*
X197316853Y-122649092D01*
X197306780Y-122650418D01*
X197306777Y-122650419D01*
X197297368Y-122654315D01*
X197282037Y-122659519D01*
X197272198Y-122662156D01*
X197272188Y-122662160D01*
X197263388Y-122667240D01*
X197248849Y-122674409D01*
X197089122Y-122740563D01*
X197041674Y-122750000D01*
X197012499Y-122750000D01*
X196991882Y-122770617D01*
X196951650Y-122797498D01*
X196683948Y-122908370D01*
X196614478Y-122915836D01*
X196552000Y-122884558D01*
X196516350Y-122824468D01*
X196512500Y-122793807D01*
X196512500Y-122750000D01*
X196262529Y-122750000D01*
X196262512Y-122750001D01*
X196159802Y-122760494D01*
X195993380Y-122815641D01*
X195993375Y-122815643D01*
X195844154Y-122907684D01*
X195720184Y-123031654D01*
X195628143Y-123180875D01*
X195628141Y-123180880D01*
X195582703Y-123318005D01*
X195542930Y-123375450D01*
X195512445Y-123393564D01*
X194967383Y-123619309D01*
X194952037Y-123624519D01*
X194942195Y-123627156D01*
X194933394Y-123632238D01*
X194918852Y-123639409D01*
X194909467Y-123643296D01*
X194901389Y-123649494D01*
X194887915Y-123658496D01*
X194879104Y-123663583D01*
X194879099Y-123663587D01*
X194871913Y-123670772D01*
X194859726Y-123681459D01*
X194851664Y-123687644D01*
X194851664Y-123687645D01*
X194845463Y-123695725D01*
X194834777Y-123707908D01*
X194618663Y-123924022D01*
X194578464Y-123950890D01*
X193834482Y-124259281D01*
X193765015Y-124266767D01*
X193702527Y-124235509D01*
X193666860Y-124175429D01*
X193663000Y-124144732D01*
X193663000Y-123445730D01*
X193660146Y-123415300D01*
X193660146Y-123415298D01*
X193617928Y-123294649D01*
X193615293Y-123287118D01*
X193534650Y-123177850D01*
X193425382Y-123097207D01*
X193425380Y-123097206D01*
X193297200Y-123052353D01*
X193266770Y-123049500D01*
X193266766Y-123049500D01*
X192258234Y-123049500D01*
X192258230Y-123049500D01*
X192227800Y-123052353D01*
X192227798Y-123052353D01*
X192099619Y-123097206D01*
X192099617Y-123097207D01*
X191990350Y-123177850D01*
X191909707Y-123287117D01*
X191874673Y-123387238D01*
X191833951Y-123444013D01*
X191768998Y-123469760D01*
X191700437Y-123456303D01*
X191650034Y-123407916D01*
X191644845Y-123397810D01*
X191644184Y-123396361D01*
X191563117Y-123302804D01*
X191563114Y-123302802D01*
X191563112Y-123302800D01*
X191458977Y-123235876D01*
X191458972Y-123235874D01*
X191340199Y-123201000D01*
X191340197Y-123201000D01*
X191216403Y-123201000D01*
X191216400Y-123201000D01*
X191097627Y-123235874D01*
X191097622Y-123235876D01*
X190993487Y-123302800D01*
X190993485Y-123302802D01*
X190912417Y-123396359D01*
X190912415Y-123396362D01*
X190860990Y-123508966D01*
X190843373Y-123631500D01*
X190860990Y-123754033D01*
X190912415Y-123866637D01*
X190912417Y-123866640D01*
X190972393Y-123935857D01*
X190998548Y-123993131D01*
X190999496Y-123992878D01*
X191001005Y-123998512D01*
X191001417Y-123999413D01*
X191001596Y-124000717D01*
X191020455Y-124071103D01*
X191020455Y-124071104D01*
X191056881Y-124134192D01*
X191056884Y-124134197D01*
X191056885Y-124134198D01*
X191158755Y-124236068D01*
X191192239Y-124297389D01*
X191193304Y-124307294D01*
X191193811Y-124307222D01*
X191212690Y-124438533D01*
X191249493Y-124519119D01*
X191264116Y-124551139D01*
X191345183Y-124644696D01*
X191345185Y-124644697D01*
X191345187Y-124644699D01*
X191449322Y-124711623D01*
X191449327Y-124711625D01*
X191522211Y-124733025D01*
X191558880Y-124743792D01*
X191568100Y-124746499D01*
X191568102Y-124746500D01*
X191700766Y-124746500D01*
X191700766Y-124748549D01*
X191758360Y-124756830D01*
X191811165Y-124802584D01*
X191830851Y-124869623D01*
X191811168Y-124936663D01*
X191794533Y-124957306D01*
X191720180Y-125031659D01*
X191655313Y-125136825D01*
X191603365Y-125183550D01*
X191597233Y-125186287D01*
X191423370Y-125258312D01*
X191408015Y-125263525D01*
X191398200Y-125266155D01*
X191398195Y-125266157D01*
X191389381Y-125271246D01*
X191374857Y-125278409D01*
X191365447Y-125282308D01*
X191365446Y-125282308D01*
X191365443Y-125282310D01*
X191365439Y-125282312D01*
X191357373Y-125288501D01*
X191343909Y-125297498D01*
X191335102Y-125302583D01*
X191335098Y-125302586D01*
X191327899Y-125309785D01*
X191315725Y-125320462D01*
X191307646Y-125326662D01*
X191301453Y-125334733D01*
X191290761Y-125346924D01*
X190574004Y-126063681D01*
X190512681Y-126097166D01*
X190486323Y-126100000D01*
X189512500Y-126100000D01*
X189512500Y-126950072D01*
X189545897Y-127011234D01*
X189540913Y-127080926D01*
X189512412Y-127125273D01*
X188310894Y-128326791D01*
X188298721Y-128337469D01*
X188290624Y-128343684D01*
X188290620Y-128343688D01*
X188284449Y-128351733D01*
X188273754Y-128363931D01*
X188266589Y-128371096D01*
X188266582Y-128371105D01*
X188261478Y-128379945D01*
X188252493Y-128393394D01*
X188246284Y-128401489D01*
X188246279Y-128401498D01*
X188242409Y-128410846D01*
X188235230Y-128425407D01*
X188230157Y-128434193D01*
X188230155Y-128434199D01*
X188227513Y-128444057D01*
X188222309Y-128459390D01*
X187876402Y-129294860D01*
X187869226Y-129309415D01*
X187866128Y-129314780D01*
X187864154Y-129318201D01*
X187861514Y-129328055D01*
X187856312Y-129343384D01*
X187852411Y-129352807D01*
X187852410Y-129352809D01*
X187851089Y-129362857D01*
X187847923Y-129378778D01*
X187847598Y-129379991D01*
X187811234Y-129439652D01*
X187772617Y-129463526D01*
X187629104Y-129519122D01*
X187629098Y-129519125D01*
X187455431Y-129626655D01*
X187455429Y-129626657D01*
X187304481Y-129764264D01*
X187304477Y-129764268D01*
X187181376Y-129927280D01*
X187090330Y-130110123D01*
X187090325Y-130110136D01*
X187034424Y-130306604D01*
X187015578Y-130509999D01*
X187015578Y-130510000D01*
X187034424Y-130713395D01*
X187090325Y-130909863D01*
X187090330Y-130909876D01*
X187141731Y-131013101D01*
X187181376Y-131092719D01*
X187300653Y-131250668D01*
X187304477Y-131255731D01*
X187304481Y-131255735D01*
X187455429Y-131393342D01*
X187455431Y-131393344D01*
X187629098Y-131500874D01*
X187629100Y-131500875D01*
X187629102Y-131500876D01*
X187766094Y-131553947D01*
X187821495Y-131596519D01*
X187845086Y-131662285D01*
X187845300Y-131669573D01*
X187845300Y-131890426D01*
X187825615Y-131957465D01*
X187772811Y-132003220D01*
X187766094Y-132006053D01*
X187629104Y-132059122D01*
X187629098Y-132059125D01*
X187455431Y-132166655D01*
X187455429Y-132166657D01*
X187304481Y-132304264D01*
X187304477Y-132304268D01*
X187181376Y-132467280D01*
X187090330Y-132650123D01*
X187090325Y-132650136D01*
X187034424Y-132846604D01*
X187015578Y-133049999D01*
X187015578Y-133050000D01*
X187034424Y-133253395D01*
X187090325Y-133449863D01*
X187090330Y-133449876D01*
X187141731Y-133553101D01*
X187181376Y-133632719D01*
X187300653Y-133790668D01*
X187304477Y-133795731D01*
X187304481Y-133795735D01*
X187455429Y-133933342D01*
X187455431Y-133933344D01*
X187629098Y-134040874D01*
X187629104Y-134040877D01*
X187669455Y-134056508D01*
X187819576Y-134114666D01*
X188020366Y-134152200D01*
X188020368Y-134152200D01*
X188224632Y-134152200D01*
X188224634Y-134152200D01*
X188425424Y-134114666D01*
X188615898Y-134040876D01*
X188789570Y-133933343D01*
X188940525Y-133795729D01*
X189063624Y-133632719D01*
X189154674Y-133449866D01*
X189210575Y-133253396D01*
X189210576Y-133253376D01*
X189211329Y-133249357D01*
X189242994Y-133187075D01*
X189303304Y-133151798D01*
X189373113Y-133154729D01*
X189430255Y-133194935D01*
X189447781Y-133224685D01*
X190034631Y-134641539D01*
X190034619Y-134641543D01*
X190034651Y-134641588D01*
X190825882Y-136554208D01*
X190835300Y-136601609D01*
X190835300Y-136907238D01*
X190815615Y-136974277D01*
X190762811Y-137020032D01*
X190693653Y-137029976D01*
X190630097Y-137000951D01*
X190593369Y-136945557D01*
X190575045Y-136889163D01*
X190489259Y-136720800D01*
X190463423Y-136685240D01*
X190378190Y-136567927D01*
X190244573Y-136434310D01*
X190091699Y-136323240D01*
X189923336Y-136237454D01*
X189743618Y-136179059D01*
X189556986Y-136149500D01*
X189556981Y-136149500D01*
X189502382Y-136149500D01*
X188502382Y-136149500D01*
X188462500Y-136149500D01*
X188368019Y-136149500D01*
X188368014Y-136149500D01*
X188181381Y-136179059D01*
X188001663Y-136237454D01*
X187833300Y-136323240D01*
X187746079Y-136386610D01*
X187680427Y-136434310D01*
X187680425Y-136434312D01*
X187680424Y-136434312D01*
X187546812Y-136567924D01*
X187546812Y-136567925D01*
X187546810Y-136567927D01*
X187499110Y-136633579D01*
X187435740Y-136720800D01*
X187349954Y-136889163D01*
X187291559Y-137068881D01*
X187262000Y-137255513D01*
X187262000Y-143346249D01*
X187261774Y-143353736D01*
X187245686Y-143619688D01*
X187243881Y-143634552D01*
X187196532Y-143892931D01*
X187192948Y-143907470D01*
X187114803Y-144158246D01*
X187109494Y-144172247D01*
X187001684Y-144411791D01*
X186994725Y-144425050D01*
X186858831Y-144649846D01*
X186850325Y-144662169D01*
X186688323Y-144868949D01*
X186678393Y-144880157D01*
X186492657Y-145065893D01*
X186481449Y-145075823D01*
X186274669Y-145237825D01*
X186262346Y-145246331D01*
X186037550Y-145382225D01*
X186024291Y-145389184D01*
X185784747Y-145496994D01*
X185770746Y-145502303D01*
X185519970Y-145580448D01*
X185505431Y-145584032D01*
X185247052Y-145631381D01*
X185232188Y-145633186D01*
X184966236Y-145649274D01*
X184958749Y-145649500D01*
X129765206Y-145649500D01*
X129759797Y-145649382D01*
X129757323Y-145649274D01*
X129623065Y-145643412D01*
X129349602Y-145631472D01*
X129338826Y-145630529D01*
X128934450Y-145577292D01*
X128923796Y-145575414D01*
X128525578Y-145487131D01*
X128515130Y-145484331D01*
X128126139Y-145361683D01*
X128115973Y-145357983D01*
X127739142Y-145201894D01*
X127729338Y-145197322D01*
X127572328Y-145115588D01*
X127367542Y-145008983D01*
X127358186Y-145003582D01*
X127146856Y-144868949D01*
X127014190Y-144784431D01*
X127005329Y-144778227D01*
X126681733Y-144529923D01*
X126673446Y-144522969D01*
X126372732Y-144247416D01*
X126365083Y-144239767D01*
X126089530Y-143939053D01*
X126082576Y-143930766D01*
X125834272Y-143607170D01*
X125828068Y-143598309D01*
X125669877Y-143350000D01*
X125608913Y-143254305D01*
X125603520Y-143244965D01*
X125415174Y-142883155D01*
X125410605Y-142873357D01*
X125372742Y-142781949D01*
X125254515Y-142496524D01*
X125250816Y-142486360D01*
X125128168Y-142097369D01*
X125125368Y-142086921D01*
X125037085Y-141688703D01*
X125035207Y-141678049D01*
X124981968Y-141273654D01*
X124981028Y-141262917D01*
X124963118Y-140852702D01*
X124963059Y-140849996D01*
X126756915Y-140849996D01*
X126756915Y-140850003D01*
X126777238Y-141198927D01*
X126777239Y-141198938D01*
X126837928Y-141543127D01*
X126837930Y-141543134D01*
X126938174Y-141877972D01*
X127076607Y-142198895D01*
X127076613Y-142198908D01*
X127251370Y-142501597D01*
X127460084Y-142781949D01*
X127460089Y-142781955D01*
X127555573Y-142883161D01*
X127699942Y-143036183D01*
X127818894Y-143135995D01*
X127967686Y-143260847D01*
X127967694Y-143260853D01*
X128259703Y-143452911D01*
X128259707Y-143452913D01*
X128572049Y-143609777D01*
X128900489Y-143729319D01*
X129240586Y-143809923D01*
X129587741Y-143850500D01*
X129587748Y-143850500D01*
X129937252Y-143850500D01*
X129937259Y-143850500D01*
X130284414Y-143809923D01*
X130624511Y-143729319D01*
X130952951Y-143609777D01*
X131265293Y-143452913D01*
X131557311Y-143260849D01*
X131825058Y-143036183D01*
X132064912Y-142781953D01*
X132273630Y-142501596D01*
X132448389Y-142198904D01*
X132586826Y-141877971D01*
X132687069Y-141543136D01*
X132747762Y-141198927D01*
X132768085Y-140850000D01*
X132768085Y-140849996D01*
X176756915Y-140849996D01*
X176756915Y-140850003D01*
X176777238Y-141198927D01*
X176777239Y-141198938D01*
X176837928Y-141543127D01*
X176837930Y-141543134D01*
X176938174Y-141877972D01*
X177076607Y-142198895D01*
X177076613Y-142198908D01*
X177251370Y-142501597D01*
X177460084Y-142781949D01*
X177460089Y-142781955D01*
X177555573Y-142883161D01*
X177699942Y-143036183D01*
X177818894Y-143135995D01*
X177967686Y-143260847D01*
X177967694Y-143260853D01*
X178259703Y-143452911D01*
X178259707Y-143452913D01*
X178572049Y-143609777D01*
X178900489Y-143729319D01*
X179240586Y-143809923D01*
X179587741Y-143850500D01*
X179587748Y-143850500D01*
X179937252Y-143850500D01*
X179937259Y-143850500D01*
X180284414Y-143809923D01*
X180624511Y-143729319D01*
X180952951Y-143609777D01*
X181265293Y-143452913D01*
X181557311Y-143260849D01*
X181825058Y-143036183D01*
X182064912Y-142781953D01*
X182273630Y-142501596D01*
X182448389Y-142198904D01*
X182586826Y-141877971D01*
X182687069Y-141543136D01*
X182747762Y-141198927D01*
X182768085Y-140850000D01*
X182767927Y-140847293D01*
X182764054Y-140780796D01*
X182747762Y-140501073D01*
X182747760Y-140501061D01*
X182687071Y-140156872D01*
X182687069Y-140156865D01*
X182629870Y-139965806D01*
X182586826Y-139822029D01*
X182448389Y-139501096D01*
X182335349Y-139305304D01*
X182273629Y-139198402D01*
X182064915Y-138918050D01*
X182064910Y-138918044D01*
X181948933Y-138795117D01*
X181825058Y-138663817D01*
X181676988Y-138539572D01*
X181557313Y-138439152D01*
X181557305Y-138439146D01*
X181265296Y-138247088D01*
X180952958Y-138090226D01*
X180952952Y-138090223D01*
X180624512Y-137970681D01*
X180624509Y-137970680D01*
X180284415Y-137890077D01*
X180241019Y-137885004D01*
X179937259Y-137849500D01*
X179587741Y-137849500D01*
X179283980Y-137885004D01*
X179240585Y-137890077D01*
X179240583Y-137890077D01*
X178900490Y-137970680D01*
X178900487Y-137970681D01*
X178572047Y-138090223D01*
X178572041Y-138090226D01*
X178259703Y-138247088D01*
X177967694Y-138439146D01*
X177967686Y-138439152D01*
X177699942Y-138663817D01*
X177699940Y-138663819D01*
X177460089Y-138918044D01*
X177460084Y-138918050D01*
X177251370Y-139198402D01*
X177076613Y-139501091D01*
X177076607Y-139501104D01*
X176938174Y-139822027D01*
X176837930Y-140156865D01*
X176837928Y-140156872D01*
X176777239Y-140501061D01*
X176777238Y-140501072D01*
X176756915Y-140849996D01*
X132768085Y-140849996D01*
X132767927Y-140847293D01*
X132764054Y-140780796D01*
X132747762Y-140501073D01*
X132747760Y-140501061D01*
X132687071Y-140156872D01*
X132687069Y-140156865D01*
X132629870Y-139965806D01*
X132586826Y-139822029D01*
X132448389Y-139501096D01*
X132335349Y-139305304D01*
X132273629Y-139198402D01*
X132064915Y-138918050D01*
X132064910Y-138918044D01*
X131948933Y-138795117D01*
X131825058Y-138663817D01*
X131676988Y-138539572D01*
X131557313Y-138439152D01*
X131557305Y-138439146D01*
X131265296Y-138247088D01*
X130952958Y-138090226D01*
X130952952Y-138090223D01*
X130624512Y-137970681D01*
X130624509Y-137970680D01*
X130284415Y-137890077D01*
X130241019Y-137885004D01*
X129937259Y-137849500D01*
X129587741Y-137849500D01*
X129283980Y-137885004D01*
X129240585Y-137890077D01*
X129240583Y-137890077D01*
X128900490Y-137970680D01*
X128900487Y-137970681D01*
X128572047Y-138090223D01*
X128572041Y-138090226D01*
X128259703Y-138247088D01*
X127967694Y-138439146D01*
X127967686Y-138439152D01*
X127699942Y-138663817D01*
X127699940Y-138663819D01*
X127460089Y-138918044D01*
X127460084Y-138918050D01*
X127251370Y-139198402D01*
X127076613Y-139501091D01*
X127076607Y-139501104D01*
X126938174Y-139822027D01*
X126837930Y-140156865D01*
X126837928Y-140156872D01*
X126777239Y-140501061D01*
X126777238Y-140501072D01*
X126756915Y-140849996D01*
X124963059Y-140849996D01*
X124963000Y-140847293D01*
X124963000Y-130509999D01*
X184475578Y-130509999D01*
X184475578Y-130510000D01*
X184494424Y-130713395D01*
X184550325Y-130909863D01*
X184550330Y-130909876D01*
X184601731Y-131013101D01*
X184641376Y-131092719D01*
X184760653Y-131250668D01*
X184764477Y-131255731D01*
X184764481Y-131255735D01*
X184915429Y-131393342D01*
X184915431Y-131393344D01*
X185089098Y-131500874D01*
X185089100Y-131500875D01*
X185089102Y-131500876D01*
X185226094Y-131553947D01*
X185281495Y-131596519D01*
X185305086Y-131662285D01*
X185305300Y-131669573D01*
X185305300Y-131890426D01*
X185285615Y-131957465D01*
X185232811Y-132003220D01*
X185226094Y-132006053D01*
X185089104Y-132059122D01*
X185089098Y-132059125D01*
X184915431Y-132166655D01*
X184915429Y-132166657D01*
X184764481Y-132304264D01*
X184764477Y-132304268D01*
X184641376Y-132467280D01*
X184550330Y-132650123D01*
X184550325Y-132650136D01*
X184494424Y-132846604D01*
X184475578Y-133049999D01*
X184475578Y-133050000D01*
X184494424Y-133253395D01*
X184550325Y-133449863D01*
X184550330Y-133449876D01*
X184601731Y-133553101D01*
X184641376Y-133632719D01*
X184760653Y-133790668D01*
X184764477Y-133795731D01*
X184764481Y-133795735D01*
X184915429Y-133933342D01*
X184915431Y-133933344D01*
X185089098Y-134040874D01*
X185089104Y-134040877D01*
X185129455Y-134056508D01*
X185279576Y-134114666D01*
X185480366Y-134152200D01*
X185480368Y-134152200D01*
X185684632Y-134152200D01*
X185684634Y-134152200D01*
X185885424Y-134114666D01*
X186075898Y-134040876D01*
X186249570Y-133933343D01*
X186400525Y-133795729D01*
X186523624Y-133632719D01*
X186614674Y-133449866D01*
X186670575Y-133253396D01*
X186689422Y-133050000D01*
X186670575Y-132846604D01*
X186614674Y-132650134D01*
X186608197Y-132637127D01*
X186563269Y-132546899D01*
X186523624Y-132467281D01*
X186400525Y-132304271D01*
X186400522Y-132304268D01*
X186400518Y-132304264D01*
X186249570Y-132166657D01*
X186249568Y-132166655D01*
X186075901Y-132059125D01*
X186075895Y-132059123D01*
X185937905Y-132005665D01*
X185882505Y-131963093D01*
X185858914Y-131897326D01*
X185858700Y-131890039D01*
X185858700Y-131669961D01*
X185878385Y-131602922D01*
X185931189Y-131557167D01*
X185937895Y-131554338D01*
X186075898Y-131500876D01*
X186249570Y-131393343D01*
X186400525Y-131255729D01*
X186523624Y-131092719D01*
X186614674Y-130909866D01*
X186670575Y-130713396D01*
X186689422Y-130510000D01*
X186670575Y-130306604D01*
X186614674Y-130110134D01*
X186608191Y-130097115D01*
X186563269Y-130006899D01*
X186523624Y-129927281D01*
X186400525Y-129764271D01*
X186400522Y-129764268D01*
X186400518Y-129764264D01*
X186249570Y-129626657D01*
X186249568Y-129626655D01*
X186075901Y-129519125D01*
X186075895Y-129519122D01*
X185918963Y-129458327D01*
X185885424Y-129445334D01*
X185684634Y-129407800D01*
X185480366Y-129407800D01*
X185279576Y-129445334D01*
X185279573Y-129445334D01*
X185279573Y-129445335D01*
X185089104Y-129519122D01*
X185089098Y-129519125D01*
X184915431Y-129626655D01*
X184915429Y-129626657D01*
X184764481Y-129764264D01*
X184764477Y-129764268D01*
X184641376Y-129927280D01*
X184550330Y-130110123D01*
X184550325Y-130110136D01*
X184494424Y-130306604D01*
X184475578Y-130509999D01*
X124963000Y-130509999D01*
X124963000Y-126249986D01*
X188062501Y-126249986D01*
X188072994Y-126352697D01*
X188128141Y-126519119D01*
X188128143Y-126519124D01*
X188220184Y-126668345D01*
X188344154Y-126792315D01*
X188493375Y-126884356D01*
X188493380Y-126884358D01*
X188659802Y-126939505D01*
X188659809Y-126939506D01*
X188762519Y-126949999D01*
X189012499Y-126949999D01*
X189012500Y-126949998D01*
X189012500Y-126100000D01*
X188062501Y-126100000D01*
X188062501Y-126249986D01*
X124963000Y-126249986D01*
X124963000Y-124316000D01*
X187676073Y-124316000D01*
X187693690Y-124438533D01*
X187730493Y-124519119D01*
X187745116Y-124551139D01*
X187826183Y-124644696D01*
X187826185Y-124644697D01*
X187826187Y-124644699D01*
X187930322Y-124711623D01*
X187930327Y-124711625D01*
X188003211Y-124733025D01*
X188039880Y-124743792D01*
X188049100Y-124746499D01*
X188049102Y-124746500D01*
X188049103Y-124746500D01*
X188172895Y-124746500D01*
X188172897Y-124746500D01*
X188177378Y-124745183D01*
X188247246Y-124745181D01*
X188306025Y-124782953D01*
X188335053Y-124846508D01*
X188325113Y-124915667D01*
X188299998Y-124951841D01*
X188220182Y-125031657D01*
X188128143Y-125180875D01*
X188128141Y-125180880D01*
X188072994Y-125347302D01*
X188072993Y-125347309D01*
X188062500Y-125450013D01*
X188062500Y-125600000D01*
X190462499Y-125600000D01*
X190462499Y-125450028D01*
X190462498Y-125450013D01*
X190452005Y-125347302D01*
X190396858Y-125180880D01*
X190396856Y-125180875D01*
X190304815Y-125031654D01*
X190180845Y-124907684D01*
X190031624Y-124815643D01*
X190031621Y-124815642D01*
X189986526Y-124800699D01*
X189929082Y-124760926D01*
X189902259Y-124696410D01*
X189914574Y-124627634D01*
X189951894Y-124583225D01*
X190034650Y-124522150D01*
X190115293Y-124412882D01*
X190137719Y-124348790D01*
X190160146Y-124284701D01*
X190160146Y-124284699D01*
X190163000Y-124254269D01*
X190163000Y-123445730D01*
X190160146Y-123415300D01*
X190160146Y-123415298D01*
X190117928Y-123294649D01*
X190115293Y-123287118D01*
X190034650Y-123177850D01*
X189925382Y-123097207D01*
X189925380Y-123097206D01*
X189797200Y-123052353D01*
X189766770Y-123049500D01*
X189766766Y-123049500D01*
X188758234Y-123049500D01*
X188758230Y-123049500D01*
X188727800Y-123052353D01*
X188727798Y-123052353D01*
X188599619Y-123097206D01*
X188599617Y-123097207D01*
X188490350Y-123177850D01*
X188409707Y-123287117D01*
X188409706Y-123287119D01*
X188364853Y-123415298D01*
X188364853Y-123415300D01*
X188362000Y-123445730D01*
X188362000Y-123693138D01*
X188342315Y-123760177D01*
X188289511Y-123805932D01*
X188285558Y-123807655D01*
X188262295Y-123817316D01*
X188246841Y-123822571D01*
X188237203Y-123825154D01*
X188237200Y-123825155D01*
X188237197Y-123825156D01*
X188237194Y-123825157D01*
X188237188Y-123825160D01*
X188228214Y-123830341D01*
X188213797Y-123837460D01*
X188204225Y-123841436D01*
X188196309Y-123847522D01*
X188182746Y-123856593D01*
X188167071Y-123865645D01*
X188166037Y-123863854D01*
X188111165Y-123885070D01*
X188100844Y-123885500D01*
X188049100Y-123885500D01*
X187930327Y-123920374D01*
X187930322Y-123920376D01*
X187826187Y-123987300D01*
X187826185Y-123987302D01*
X187745117Y-124080859D01*
X187745115Y-124080862D01*
X187693690Y-124193466D01*
X187676073Y-124316000D01*
X124963000Y-124316000D01*
X124963000Y-118219999D01*
X220431864Y-118219999D01*
X220431864Y-118220000D01*
X221329488Y-118220000D01*
X221296575Y-118277007D01*
X221262500Y-118404174D01*
X221262500Y-118535826D01*
X221296575Y-118662993D01*
X221329488Y-118720000D01*
X220431864Y-118720000D01*
X220489067Y-118933486D01*
X220489070Y-118933492D01*
X220588899Y-119147578D01*
X220724394Y-119341082D01*
X220891417Y-119508105D01*
X221084921Y-119643600D01*
X221299007Y-119743429D01*
X221299016Y-119743433D01*
X221512500Y-119800634D01*
X221512500Y-118903012D01*
X221569507Y-118935925D01*
X221696674Y-118970000D01*
X221828326Y-118970000D01*
X221955493Y-118935925D01*
X222012500Y-118903012D01*
X222012500Y-119800633D01*
X222225983Y-119743433D01*
X222225992Y-119743429D01*
X222440078Y-119643600D01*
X222633582Y-119508105D01*
X222800605Y-119341082D01*
X222936100Y-119147578D01*
X223035929Y-118933492D01*
X223035932Y-118933486D01*
X223093136Y-118720000D01*
X222195512Y-118720000D01*
X222228425Y-118662993D01*
X222262500Y-118535826D01*
X222262500Y-118404174D01*
X222228425Y-118277007D01*
X222195512Y-118220000D01*
X223093136Y-118220000D01*
X223093135Y-118219999D01*
X223035932Y-118006513D01*
X223035929Y-118006507D01*
X222936100Y-117792422D01*
X222936099Y-117792420D01*
X222800613Y-117598926D01*
X222800608Y-117598920D01*
X222633582Y-117431894D01*
X222440078Y-117296399D01*
X222225992Y-117196570D01*
X222225986Y-117196567D01*
X222103849Y-117163841D01*
X222044189Y-117127476D01*
X222013660Y-117064629D01*
X222021955Y-116995253D01*
X222066440Y-116941375D01*
X222099944Y-116925407D01*
X222166454Y-116905232D01*
X222348950Y-116807685D01*
X222508910Y-116676410D01*
X222640185Y-116516450D01*
X222737732Y-116333954D01*
X222797800Y-116135934D01*
X222818083Y-115930000D01*
X222797800Y-115724066D01*
X222737732Y-115526046D01*
X222640185Y-115343550D01*
X222588202Y-115280209D01*
X222508910Y-115183589D01*
X222348952Y-115052317D01*
X222348953Y-115052317D01*
X222348950Y-115052315D01*
X222166454Y-114954768D01*
X221968434Y-114894700D01*
X221968432Y-114894699D01*
X221968434Y-114894699D01*
X221762500Y-114874417D01*
X221556567Y-114894699D01*
X221358543Y-114954769D01*
X221248398Y-115013643D01*
X221176050Y-115052315D01*
X221176048Y-115052316D01*
X221176047Y-115052317D01*
X221016089Y-115183589D01*
X220884817Y-115343547D01*
X220787269Y-115526043D01*
X220727199Y-115724067D01*
X220706917Y-115930000D01*
X220727199Y-116135932D01*
X220727200Y-116135934D01*
X220787268Y-116333954D01*
X220884815Y-116516450D01*
X220884817Y-116516452D01*
X221016089Y-116676410D01*
X221112709Y-116755702D01*
X221176050Y-116807685D01*
X221358546Y-116905232D01*
X221425051Y-116925405D01*
X221483489Y-116963702D01*
X221511946Y-117027514D01*
X221501387Y-117096581D01*
X221455163Y-117148975D01*
X221421150Y-117163841D01*
X221299014Y-117196567D01*
X221299007Y-117196570D01*
X221084922Y-117296399D01*
X221084920Y-117296400D01*
X220891426Y-117431886D01*
X220891420Y-117431891D01*
X220724391Y-117598920D01*
X220724386Y-117598926D01*
X220588900Y-117792420D01*
X220588899Y-117792422D01*
X220489070Y-118006507D01*
X220489067Y-118006513D01*
X220431864Y-118219999D01*
X124963000Y-118219999D01*
X124963000Y-113390000D01*
X220706917Y-113390000D01*
X220727199Y-113595932D01*
X220727200Y-113595934D01*
X220787268Y-113793954D01*
X220884815Y-113976450D01*
X220884817Y-113976452D01*
X221016089Y-114136410D01*
X221112709Y-114215702D01*
X221176050Y-114267685D01*
X221358546Y-114365232D01*
X221556566Y-114425300D01*
X221556565Y-114425300D01*
X221575029Y-114427118D01*
X221762500Y-114445583D01*
X221968434Y-114425300D01*
X222166454Y-114365232D01*
X222348950Y-114267685D01*
X222508910Y-114136410D01*
X222640185Y-113976450D01*
X222737732Y-113793954D01*
X222797800Y-113595934D01*
X222818083Y-113390000D01*
X222797800Y-113184066D01*
X222737732Y-112986046D01*
X222640185Y-112803550D01*
X222588202Y-112740209D01*
X222508910Y-112643589D01*
X222348952Y-112512317D01*
X222348953Y-112512317D01*
X222348950Y-112512315D01*
X222166454Y-112414768D01*
X221968434Y-112354700D01*
X221968432Y-112354699D01*
X221968434Y-112354699D01*
X221762500Y-112334417D01*
X221556567Y-112354699D01*
X221358543Y-112414769D01*
X221248398Y-112473643D01*
X221176050Y-112512315D01*
X221176048Y-112512316D01*
X221176047Y-112512317D01*
X221016089Y-112643589D01*
X220884817Y-112803547D01*
X220787269Y-112986043D01*
X220727199Y-113184067D01*
X220706917Y-113390000D01*
X124963000Y-113390000D01*
X124963000Y-109980247D01*
X220712000Y-109980247D01*
X220712000Y-111719752D01*
X220723631Y-111778229D01*
X220723632Y-111778230D01*
X220767947Y-111844552D01*
X220834269Y-111888867D01*
X220834270Y-111888868D01*
X220892747Y-111900499D01*
X220892750Y-111900500D01*
X220892752Y-111900500D01*
X222632250Y-111900500D01*
X222632251Y-111900499D01*
X222647068Y-111897552D01*
X222690729Y-111888868D01*
X222690729Y-111888867D01*
X222690731Y-111888867D01*
X222757052Y-111844552D01*
X222801367Y-111778231D01*
X222801367Y-111778229D01*
X222801368Y-111778229D01*
X222812999Y-111719752D01*
X222813000Y-111719750D01*
X222813000Y-109980249D01*
X222812999Y-109980247D01*
X222801368Y-109921770D01*
X222801367Y-109921769D01*
X222757052Y-109855447D01*
X222690730Y-109811132D01*
X222690729Y-109811131D01*
X222632252Y-109799500D01*
X222632248Y-109799500D01*
X220892752Y-109799500D01*
X220892747Y-109799500D01*
X220834270Y-109811131D01*
X220834269Y-109811132D01*
X220767947Y-109855447D01*
X220723632Y-109921769D01*
X220723631Y-109921770D01*
X220712000Y-109980247D01*
X124963000Y-109980247D01*
X124963000Y-101637001D01*
X135358174Y-101637001D01*
X135375791Y-101759534D01*
X135417106Y-101850000D01*
X135427217Y-101872140D01*
X135506408Y-101963533D01*
X135535433Y-102027087D01*
X135525490Y-102096244D01*
X135494790Y-102163467D01*
X135477173Y-102286001D01*
X135494790Y-102408534D01*
X135546215Y-102521138D01*
X135546216Y-102521140D01*
X135627283Y-102614697D01*
X135627285Y-102614698D01*
X135627287Y-102614700D01*
X135731422Y-102681624D01*
X135731427Y-102681626D01*
X135850200Y-102716500D01*
X135850202Y-102716501D01*
X135850203Y-102716501D01*
X135857929Y-102716501D01*
X135924968Y-102736186D01*
X135970723Y-102788990D01*
X135980667Y-102822852D01*
X135984791Y-102851533D01*
X136031807Y-102954483D01*
X136036216Y-102964138D01*
X136117283Y-103057695D01*
X136117285Y-103057696D01*
X136117287Y-103057698D01*
X136221422Y-103124622D01*
X136221427Y-103124624D01*
X136340200Y-103159498D01*
X136340202Y-103159499D01*
X136340203Y-103159499D01*
X136463998Y-103159499D01*
X136463998Y-103159498D01*
X136582775Y-103124623D01*
X136686917Y-103057695D01*
X136767984Y-102964138D01*
X136772394Y-102954479D01*
X136818145Y-102901678D01*
X136885184Y-102881991D01*
X136952224Y-102901673D01*
X136978901Y-102924788D01*
X137008284Y-102958698D01*
X137113297Y-103026186D01*
X137159051Y-103078990D01*
X137168995Y-103148148D01*
X137139970Y-103211704D01*
X137113297Y-103234816D01*
X137008285Y-103302303D01*
X136927217Y-103395860D01*
X136927215Y-103395863D01*
X136875790Y-103508467D01*
X136858173Y-103631001D01*
X136875790Y-103753534D01*
X136927215Y-103866138D01*
X136927216Y-103866140D01*
X137008283Y-103959697D01*
X137008285Y-103959698D01*
X137008287Y-103959700D01*
X137111739Y-104026185D01*
X137157494Y-104078989D01*
X137167438Y-104148147D01*
X137138413Y-104211703D01*
X137111740Y-104234815D01*
X137008285Y-104301302D01*
X136927217Y-104394859D01*
X136927215Y-104394862D01*
X136875790Y-104507466D01*
X136858173Y-104630000D01*
X136875790Y-104752533D01*
X136927215Y-104865137D01*
X136927216Y-104865139D01*
X137008283Y-104958696D01*
X137008285Y-104958697D01*
X137008287Y-104958699D01*
X137112422Y-105025623D01*
X137112427Y-105025625D01*
X137231200Y-105060499D01*
X137231202Y-105060500D01*
X137231203Y-105060500D01*
X137354998Y-105060500D01*
X137354998Y-105060499D01*
X137473775Y-105025624D01*
X137577917Y-104958696D01*
X137658984Y-104865139D01*
X137710409Y-104752533D01*
X137728027Y-104630000D01*
X137728026Y-104629999D01*
X137729289Y-104621221D01*
X137732811Y-104621727D01*
X137747712Y-104570982D01*
X137764386Y-104550300D01*
X137924847Y-104390000D01*
X218126917Y-104390000D01*
X218147199Y-104595932D01*
X218177234Y-104694944D01*
X218207268Y-104793954D01*
X218304815Y-104976450D01*
X218304817Y-104976452D01*
X218436089Y-105136410D01*
X218532709Y-105215702D01*
X218596050Y-105267685D01*
X218778546Y-105365232D01*
X218976566Y-105425300D01*
X218976565Y-105425300D01*
X218995029Y-105427118D01*
X219182500Y-105445583D01*
X219388434Y-105425300D01*
X219586454Y-105365232D01*
X219768950Y-105267685D01*
X219928910Y-105136410D01*
X220060185Y-104976450D01*
X220157732Y-104793954D01*
X220217800Y-104595934D01*
X220238083Y-104390000D01*
X220666917Y-104390000D01*
X220687199Y-104595932D01*
X220717234Y-104694944D01*
X220747268Y-104793954D01*
X220844815Y-104976450D01*
X220844817Y-104976452D01*
X220976089Y-105136410D01*
X221072709Y-105215702D01*
X221136050Y-105267685D01*
X221318546Y-105365232D01*
X221516566Y-105425300D01*
X221516565Y-105425300D01*
X221535029Y-105427118D01*
X221722500Y-105445583D01*
X221928434Y-105425300D01*
X222126454Y-105365232D01*
X222308950Y-105267685D01*
X222468910Y-105136410D01*
X222600185Y-104976450D01*
X222697732Y-104793954D01*
X222757800Y-104595934D01*
X222778083Y-104390000D01*
X222757800Y-104184066D01*
X222697732Y-103986046D01*
X222600185Y-103803550D01*
X222517257Y-103702501D01*
X222468910Y-103643589D01*
X222308952Y-103512317D01*
X222308953Y-103512317D01*
X222308950Y-103512315D01*
X222126454Y-103414768D01*
X221928434Y-103354700D01*
X221928432Y-103354699D01*
X221928434Y-103354699D01*
X221722500Y-103334417D01*
X221516567Y-103354699D01*
X221318543Y-103414769D01*
X221208398Y-103473643D01*
X221136050Y-103512315D01*
X221136048Y-103512316D01*
X221136047Y-103512317D01*
X220976089Y-103643589D01*
X220846950Y-103800948D01*
X220844815Y-103803550D01*
X220811361Y-103866138D01*
X220747269Y-103986043D01*
X220687199Y-104184067D01*
X220666917Y-104390000D01*
X220238083Y-104390000D01*
X220217800Y-104184066D01*
X220157732Y-103986046D01*
X220060185Y-103803550D01*
X219977257Y-103702501D01*
X219928910Y-103643589D01*
X219768952Y-103512317D01*
X219768953Y-103512317D01*
X219768950Y-103512315D01*
X219586454Y-103414768D01*
X219388434Y-103354700D01*
X219388432Y-103354699D01*
X219388434Y-103354699D01*
X219182500Y-103334417D01*
X218976567Y-103354699D01*
X218778543Y-103414769D01*
X218668398Y-103473643D01*
X218596050Y-103512315D01*
X218596048Y-103512316D01*
X218596047Y-103512317D01*
X218436089Y-103643589D01*
X218306950Y-103800948D01*
X218304815Y-103803550D01*
X218271361Y-103866138D01*
X218207269Y-103986043D01*
X218147199Y-104184067D01*
X218126917Y-104390000D01*
X137924847Y-104390000D01*
X138457063Y-103858316D01*
X138457318Y-103858094D01*
X138462995Y-103852416D01*
X138462998Y-103852415D01*
X138489370Y-103826041D01*
X138489414Y-103825999D01*
X138497747Y-103817673D01*
X138514430Y-103801008D01*
X138514432Y-103801003D01*
X138514439Y-103800997D01*
X138514504Y-103800912D01*
X138514508Y-103800904D01*
X138514515Y-103800898D01*
X138532813Y-103769202D01*
X138532857Y-103769160D01*
X138532843Y-103769152D01*
X138535928Y-103763814D01*
X138550890Y-103737932D01*
X138550891Y-103737927D01*
X138550896Y-103737919D01*
X138550942Y-103737808D01*
X138560384Y-103702569D01*
X138560399Y-103702573D01*
X138560400Y-103702504D01*
X138569782Y-103667566D01*
X138569782Y-103667558D01*
X138569800Y-103667430D01*
X138569800Y-103632122D01*
X138569801Y-103631001D01*
X138569819Y-103594710D01*
X138569818Y-103594707D01*
X138569822Y-103586925D01*
X138569800Y-103586570D01*
X138569800Y-101850000D01*
X218126917Y-101850000D01*
X218147199Y-102055932D01*
X218147200Y-102055934D01*
X218207268Y-102253954D01*
X218304815Y-102436450D01*
X218304817Y-102436452D01*
X218436089Y-102596410D01*
X218512431Y-102659061D01*
X218596050Y-102727685D01*
X218778546Y-102825232D01*
X218976566Y-102885300D01*
X218976565Y-102885300D01*
X218995029Y-102887118D01*
X219182500Y-102905583D01*
X219388434Y-102885300D01*
X219586454Y-102825232D01*
X219768950Y-102727685D01*
X219928910Y-102596410D01*
X220060185Y-102436450D01*
X220157732Y-102253954D01*
X220217800Y-102055934D01*
X220238083Y-101850000D01*
X220666917Y-101850000D01*
X220687199Y-102055932D01*
X220687200Y-102055934D01*
X220747268Y-102253954D01*
X220844815Y-102436450D01*
X220844817Y-102436452D01*
X220976089Y-102596410D01*
X221052431Y-102659061D01*
X221136050Y-102727685D01*
X221318546Y-102825232D01*
X221516566Y-102885300D01*
X221516565Y-102885300D01*
X221535029Y-102887118D01*
X221722500Y-102905583D01*
X221928434Y-102885300D01*
X222126454Y-102825232D01*
X222308950Y-102727685D01*
X222468910Y-102596410D01*
X222600185Y-102436450D01*
X222697732Y-102253954D01*
X222757800Y-102055934D01*
X222778083Y-101850000D01*
X222757800Y-101644066D01*
X222697732Y-101446046D01*
X222600185Y-101263550D01*
X222548202Y-101200209D01*
X222468910Y-101103589D01*
X222308952Y-100972317D01*
X222308953Y-100972317D01*
X222308950Y-100972315D01*
X222126454Y-100874768D01*
X221928434Y-100814700D01*
X221928432Y-100814699D01*
X221928434Y-100814699D01*
X221722500Y-100794417D01*
X221516567Y-100814699D01*
X221318543Y-100874769D01*
X221208398Y-100933643D01*
X221136050Y-100972315D01*
X221136048Y-100972316D01*
X221136047Y-100972317D01*
X220976089Y-101103589D01*
X220853729Y-101252688D01*
X220844815Y-101263550D01*
X220823681Y-101303088D01*
X220747269Y-101446043D01*
X220687199Y-101644067D01*
X220666917Y-101850000D01*
X220238083Y-101850000D01*
X220217800Y-101644066D01*
X220157732Y-101446046D01*
X220060185Y-101263550D01*
X220008202Y-101200209D01*
X219928910Y-101103589D01*
X219768952Y-100972317D01*
X219768953Y-100972317D01*
X219768950Y-100972315D01*
X219586454Y-100874768D01*
X219388434Y-100814700D01*
X219388432Y-100814699D01*
X219388434Y-100814699D01*
X219182500Y-100794417D01*
X218976567Y-100814699D01*
X218778543Y-100874769D01*
X218668398Y-100933643D01*
X218596050Y-100972315D01*
X218596048Y-100972316D01*
X218596047Y-100972317D01*
X218436089Y-101103589D01*
X218313729Y-101252688D01*
X218304815Y-101263550D01*
X218283681Y-101303088D01*
X218207269Y-101446043D01*
X218147199Y-101644067D01*
X218126917Y-101850000D01*
X138569800Y-101850000D01*
X138569800Y-101295975D01*
X138589485Y-101228936D01*
X138606119Y-101208294D01*
X143942258Y-95872155D01*
X217832500Y-95872155D01*
X217832500Y-96520000D01*
X218749488Y-96520000D01*
X218716575Y-96577007D01*
X218682500Y-96704174D01*
X218682500Y-96835826D01*
X218716575Y-96962993D01*
X218749488Y-97020000D01*
X217832500Y-97020000D01*
X217832500Y-97667844D01*
X217838901Y-97727372D01*
X217838903Y-97727379D01*
X217889145Y-97862086D01*
X217889149Y-97862093D01*
X217975309Y-97977187D01*
X217975312Y-97977190D01*
X218090406Y-98063350D01*
X218090413Y-98063354D01*
X218225120Y-98113596D01*
X218225127Y-98113598D01*
X218284655Y-98119999D01*
X218284672Y-98120000D01*
X218685313Y-98120000D01*
X218752352Y-98139685D01*
X218798107Y-98192489D01*
X218808051Y-98261647D01*
X218779026Y-98325203D01*
X218743767Y-98353357D01*
X218596050Y-98432315D01*
X218596048Y-98432316D01*
X218596047Y-98432317D01*
X218436089Y-98563589D01*
X218304817Y-98723547D01*
X218207269Y-98906043D01*
X218147199Y-99104067D01*
X218126917Y-99310000D01*
X218147199Y-99515932D01*
X218147200Y-99515934D01*
X218207268Y-99713954D01*
X218304815Y-99896450D01*
X218304817Y-99896452D01*
X218436089Y-100056410D01*
X218532709Y-100135702D01*
X218596050Y-100187685D01*
X218778546Y-100285232D01*
X218976566Y-100345300D01*
X218976565Y-100345300D01*
X218995029Y-100347118D01*
X219182500Y-100365583D01*
X219388434Y-100345300D01*
X219586454Y-100285232D01*
X219768950Y-100187685D01*
X219928910Y-100056410D01*
X220060185Y-99896450D01*
X220157732Y-99713954D01*
X220217800Y-99515934D01*
X220238083Y-99310000D01*
X220217800Y-99104066D01*
X220157732Y-98906046D01*
X220060185Y-98723550D01*
X220008202Y-98660209D01*
X219928910Y-98563589D01*
X219768952Y-98432317D01*
X219768953Y-98432317D01*
X219768950Y-98432315D01*
X219621232Y-98353357D01*
X219571389Y-98304395D01*
X219555929Y-98236257D01*
X219579761Y-98170578D01*
X219635319Y-98128209D01*
X219679687Y-98120000D01*
X220080328Y-98120000D01*
X220080344Y-98119999D01*
X220139872Y-98113598D01*
X220139879Y-98113596D01*
X220274586Y-98063354D01*
X220274593Y-98063350D01*
X220389687Y-97977190D01*
X220389690Y-97977187D01*
X220475850Y-97862093D01*
X220475854Y-97862086D01*
X220525114Y-97730013D01*
X220566985Y-97674079D01*
X220632449Y-97649662D01*
X220700722Y-97664513D01*
X220728977Y-97685665D01*
X220851417Y-97808105D01*
X221044921Y-97943600D01*
X221259007Y-98043429D01*
X221259016Y-98043433D01*
X221381149Y-98076158D01*
X221440810Y-98112523D01*
X221471339Y-98175369D01*
X221463045Y-98244745D01*
X221418559Y-98298623D01*
X221385052Y-98314593D01*
X221318546Y-98334767D01*
X221187858Y-98404622D01*
X221136050Y-98432315D01*
X221136048Y-98432316D01*
X221136047Y-98432317D01*
X220976089Y-98563589D01*
X220844817Y-98723547D01*
X220747269Y-98906043D01*
X220687199Y-99104067D01*
X220666917Y-99310000D01*
X220687199Y-99515932D01*
X220687200Y-99515934D01*
X220747268Y-99713954D01*
X220844815Y-99896450D01*
X220844817Y-99896452D01*
X220976089Y-100056410D01*
X221072709Y-100135702D01*
X221136050Y-100187685D01*
X221318546Y-100285232D01*
X221516566Y-100345300D01*
X221516565Y-100345300D01*
X221535029Y-100347118D01*
X221722500Y-100365583D01*
X221928434Y-100345300D01*
X222126454Y-100285232D01*
X222308950Y-100187685D01*
X222468910Y-100056410D01*
X222600185Y-99896450D01*
X222697732Y-99713954D01*
X222757800Y-99515934D01*
X222778083Y-99310000D01*
X222757800Y-99104066D01*
X222697732Y-98906046D01*
X222600185Y-98723550D01*
X222548202Y-98660209D01*
X222468910Y-98563589D01*
X222308952Y-98432317D01*
X222308953Y-98432317D01*
X222308950Y-98432315D01*
X222126454Y-98334768D01*
X222059947Y-98314593D01*
X222001509Y-98276296D01*
X221973053Y-98212484D01*
X221983613Y-98143417D01*
X222029837Y-98091023D01*
X222063850Y-98076158D01*
X222185983Y-98043433D01*
X222185992Y-98043429D01*
X222400078Y-97943600D01*
X222593582Y-97808105D01*
X222760605Y-97641082D01*
X222896100Y-97447578D01*
X222995929Y-97233492D01*
X222995932Y-97233486D01*
X223053136Y-97020000D01*
X222155512Y-97020000D01*
X222188425Y-96962993D01*
X222222500Y-96835826D01*
X222222500Y-96704174D01*
X222188425Y-96577007D01*
X222155512Y-96520000D01*
X223053136Y-96520000D01*
X223053135Y-96519999D01*
X222995932Y-96306513D01*
X222995929Y-96306507D01*
X222896100Y-96092422D01*
X222896099Y-96092420D01*
X222760613Y-95898926D01*
X222760608Y-95898920D01*
X222593582Y-95731894D01*
X222400078Y-95596399D01*
X222185992Y-95496570D01*
X222185986Y-95496567D01*
X221972500Y-95439364D01*
X221972500Y-96336988D01*
X221915493Y-96304075D01*
X221788326Y-96270000D01*
X221656674Y-96270000D01*
X221529507Y-96304075D01*
X221472500Y-96336988D01*
X221472500Y-95439364D01*
X221472499Y-95439364D01*
X221259013Y-95496567D01*
X221259007Y-95496570D01*
X221044922Y-95596399D01*
X221044920Y-95596400D01*
X220851426Y-95731886D01*
X220728977Y-95854335D01*
X220667654Y-95887819D01*
X220597962Y-95882835D01*
X220542029Y-95840963D01*
X220525114Y-95809986D01*
X220475854Y-95677913D01*
X220475850Y-95677906D01*
X220389690Y-95562812D01*
X220389687Y-95562809D01*
X220274593Y-95476649D01*
X220274586Y-95476645D01*
X220139879Y-95426403D01*
X220139872Y-95426401D01*
X220080344Y-95420000D01*
X219432500Y-95420000D01*
X219432500Y-96336988D01*
X219375493Y-96304075D01*
X219248326Y-96270000D01*
X219116674Y-96270000D01*
X218989507Y-96304075D01*
X218932500Y-96336988D01*
X218932500Y-95420000D01*
X218284655Y-95420000D01*
X218225127Y-95426401D01*
X218225120Y-95426403D01*
X218090413Y-95476645D01*
X218090406Y-95476649D01*
X217975312Y-95562809D01*
X217975309Y-95562812D01*
X217889149Y-95677906D01*
X217889145Y-95677913D01*
X217838903Y-95812620D01*
X217838901Y-95812627D01*
X217832500Y-95872155D01*
X143942258Y-95872155D01*
X144014512Y-95799901D01*
X144014515Y-95799898D01*
X144030752Y-95771775D01*
X144050944Y-95736804D01*
X144050944Y-95736803D01*
X144069799Y-95666433D01*
X144069800Y-95666427D01*
X144069800Y-95593572D01*
X144069799Y-95593566D01*
X144050944Y-95523196D01*
X144050944Y-95523195D01*
X144014518Y-95460107D01*
X144014512Y-95460098D01*
X143963001Y-95408587D01*
X143962992Y-95408581D01*
X143899904Y-95372155D01*
X143829533Y-95353300D01*
X143829528Y-95353300D01*
X143756672Y-95353300D01*
X143756666Y-95353300D01*
X143686297Y-95372155D01*
X143623205Y-95408582D01*
X143618587Y-95412127D01*
X143553418Y-95437321D01*
X143484973Y-95423283D01*
X143467613Y-95412127D01*
X143462991Y-95408580D01*
X143399903Y-95372155D01*
X143329532Y-95353300D01*
X143329527Y-95353300D01*
X143256671Y-95353300D01*
X143256665Y-95353300D01*
X143186296Y-95372155D01*
X143123201Y-95408584D01*
X143118585Y-95412127D01*
X143053416Y-95437320D01*
X142984971Y-95423281D01*
X142967610Y-95412123D01*
X142962995Y-95408581D01*
X142899905Y-95372155D01*
X142829534Y-95353300D01*
X142829529Y-95353300D01*
X142756673Y-95353300D01*
X142756667Y-95353300D01*
X142686298Y-95372155D01*
X142623200Y-95408586D01*
X142618582Y-95412130D01*
X142553412Y-95437321D01*
X142484968Y-95423279D01*
X142467614Y-95412126D01*
X142462992Y-95408579D01*
X142399904Y-95372154D01*
X142329533Y-95353299D01*
X142329528Y-95353299D01*
X142256672Y-95353299D01*
X142256666Y-95353299D01*
X142186297Y-95372154D01*
X142123199Y-95408585D01*
X142118581Y-95412129D01*
X142053411Y-95437320D01*
X141984967Y-95423279D01*
X141967609Y-95412123D01*
X141962994Y-95408581D01*
X141899904Y-95372155D01*
X141829533Y-95353300D01*
X141829528Y-95353300D01*
X141756672Y-95353300D01*
X141756666Y-95353300D01*
X141686297Y-95372155D01*
X141623199Y-95408586D01*
X141618581Y-95412130D01*
X141553411Y-95437321D01*
X141484967Y-95423279D01*
X141467615Y-95412127D01*
X141462995Y-95408582D01*
X141399904Y-95372155D01*
X141329533Y-95353300D01*
X141329528Y-95353300D01*
X141256672Y-95353300D01*
X141256666Y-95353300D01*
X141186296Y-95372155D01*
X141186295Y-95372155D01*
X141123207Y-95408581D01*
X141123198Y-95408587D01*
X138214804Y-98316981D01*
X138153481Y-98350466D01*
X138127123Y-98353300D01*
X136256675Y-98353300D01*
X136256673Y-98353300D01*
X136256672Y-98353301D01*
X136186298Y-98372157D01*
X136186297Y-98372157D01*
X136186295Y-98372158D01*
X136186294Y-98372158D01*
X136126416Y-98406729D01*
X136123901Y-98408081D01*
X136123201Y-98408586D01*
X135571688Y-98960098D01*
X135571682Y-98960107D01*
X135535258Y-99023193D01*
X135535257Y-99023197D01*
X135517380Y-99089920D01*
X135516401Y-99093572D01*
X135516401Y-99093574D01*
X135516401Y-101252688D01*
X135496716Y-101319727D01*
X135486114Y-101333890D01*
X135427221Y-101401856D01*
X135427216Y-101401863D01*
X135375791Y-101514467D01*
X135358174Y-101637001D01*
X124963000Y-101637001D01*
X124963000Y-90849996D01*
X126756915Y-90849996D01*
X126756915Y-90850003D01*
X126777238Y-91198927D01*
X126777239Y-91198938D01*
X126837928Y-91543127D01*
X126837930Y-91543134D01*
X126938174Y-91877972D01*
X127076607Y-92198895D01*
X127076613Y-92198908D01*
X127251370Y-92501597D01*
X127460084Y-92781949D01*
X127460089Y-92781955D01*
X127583963Y-92913253D01*
X127699942Y-93036183D01*
X127876403Y-93184251D01*
X127967686Y-93260847D01*
X127967694Y-93260853D01*
X128259703Y-93452911D01*
X128259707Y-93452913D01*
X128572049Y-93609777D01*
X128900489Y-93729319D01*
X129240586Y-93809923D01*
X129587741Y-93850500D01*
X129587748Y-93850500D01*
X129937252Y-93850500D01*
X129937259Y-93850500D01*
X130284414Y-93809923D01*
X130624511Y-93729319D01*
X130952951Y-93609777D01*
X131265293Y-93452913D01*
X131557311Y-93260849D01*
X131825058Y-93036183D01*
X132064912Y-92781953D01*
X132273630Y-92501596D01*
X132448389Y-92198904D01*
X132586826Y-91877971D01*
X132687069Y-91543136D01*
X132747762Y-91198927D01*
X132768085Y-90850000D01*
X132768085Y-90849996D01*
X176756915Y-90849996D01*
X176756915Y-90850003D01*
X176777238Y-91198927D01*
X176777239Y-91198938D01*
X176837928Y-91543127D01*
X176837930Y-91543134D01*
X176938174Y-91877972D01*
X177076607Y-92198895D01*
X177076613Y-92198908D01*
X177251370Y-92501597D01*
X177460084Y-92781949D01*
X177460089Y-92781955D01*
X177583963Y-92913253D01*
X177699942Y-93036183D01*
X177876403Y-93184251D01*
X177967686Y-93260847D01*
X177967694Y-93260853D01*
X178259703Y-93452911D01*
X178259707Y-93452913D01*
X178572049Y-93609777D01*
X178900489Y-93729319D01*
X179240586Y-93809923D01*
X179587741Y-93850500D01*
X179587748Y-93850500D01*
X179937252Y-93850500D01*
X179937259Y-93850500D01*
X180284414Y-93809923D01*
X180624511Y-93729319D01*
X180952951Y-93609777D01*
X181265293Y-93452913D01*
X181557311Y-93260849D01*
X181825058Y-93036183D01*
X182064912Y-92781953D01*
X182273630Y-92501596D01*
X182448389Y-92198904D01*
X182586826Y-91877971D01*
X182687069Y-91543136D01*
X182747762Y-91198927D01*
X182768085Y-90850000D01*
X182747762Y-90501073D01*
X182747760Y-90501061D01*
X182687071Y-90156872D01*
X182687069Y-90156865D01*
X182586825Y-89822027D01*
X182448392Y-89501104D01*
X182448389Y-89501096D01*
X182273630Y-89198404D01*
X182273629Y-89198402D01*
X182064915Y-88918050D01*
X182064910Y-88918044D01*
X181948933Y-88795117D01*
X181825058Y-88663817D01*
X181676988Y-88539572D01*
X181557313Y-88439152D01*
X181557305Y-88439146D01*
X181265296Y-88247088D01*
X180952958Y-88090226D01*
X180952952Y-88090223D01*
X180624512Y-87970681D01*
X180624509Y-87970680D01*
X180284415Y-87890077D01*
X180241019Y-87885004D01*
X179937259Y-87849500D01*
X179587741Y-87849500D01*
X179283980Y-87885004D01*
X179240585Y-87890077D01*
X179240583Y-87890077D01*
X178900490Y-87970680D01*
X178900487Y-87970681D01*
X178572047Y-88090223D01*
X178572041Y-88090226D01*
X178259703Y-88247088D01*
X177967694Y-88439146D01*
X177967686Y-88439152D01*
X177699942Y-88663817D01*
X177699940Y-88663819D01*
X177460089Y-88918044D01*
X177460084Y-88918050D01*
X177251370Y-89198402D01*
X177076613Y-89501091D01*
X177076607Y-89501104D01*
X176938174Y-89822027D01*
X176837930Y-90156865D01*
X176837928Y-90156872D01*
X176777239Y-90501061D01*
X176777238Y-90501072D01*
X176756915Y-90849996D01*
X132768085Y-90849996D01*
X132747762Y-90501073D01*
X132747760Y-90501061D01*
X132687071Y-90156872D01*
X132687069Y-90156865D01*
X132586825Y-89822027D01*
X132448392Y-89501104D01*
X132448389Y-89501096D01*
X132273630Y-89198404D01*
X132273629Y-89198402D01*
X132064915Y-88918050D01*
X132064910Y-88918044D01*
X131948933Y-88795117D01*
X131825058Y-88663817D01*
X131676988Y-88539572D01*
X131557313Y-88439152D01*
X131557305Y-88439146D01*
X131265296Y-88247088D01*
X130952958Y-88090226D01*
X130952952Y-88090223D01*
X130624512Y-87970681D01*
X130624509Y-87970680D01*
X130284415Y-87890077D01*
X130241019Y-87885004D01*
X129937259Y-87849500D01*
X129587741Y-87849500D01*
X129283980Y-87885004D01*
X129240585Y-87890077D01*
X129240583Y-87890077D01*
X128900490Y-87970680D01*
X128900487Y-87970681D01*
X128572047Y-88090223D01*
X128572041Y-88090226D01*
X128259703Y-88247088D01*
X127967694Y-88439146D01*
X127967686Y-88439152D01*
X127699942Y-88663817D01*
X127699940Y-88663819D01*
X127460089Y-88918044D01*
X127460084Y-88918050D01*
X127251370Y-89198402D01*
X127076613Y-89501091D01*
X127076607Y-89501104D01*
X126938174Y-89822027D01*
X126837930Y-90156865D01*
X126837928Y-90156872D01*
X126777239Y-90501061D01*
X126777238Y-90501072D01*
X126756915Y-90849996D01*
X124963000Y-90849996D01*
X124963000Y-85057751D01*
X124982685Y-84990712D01*
X125035489Y-84944957D01*
X125086699Y-84933752D01*
X202262500Y-84750000D01*
X202262500Y-75801362D01*
X202282185Y-75734323D01*
X202298819Y-75713681D01*
X205226181Y-72786319D01*
X205287504Y-72752834D01*
X205313862Y-72750000D01*
X217376453Y-72750000D01*
X217443492Y-72769685D01*
G37*
%TD.AperFunction*%
%TA.AperFunction,Conductor*%
G36*
X192888282Y-129238385D02*
G01*
X192934037Y-129291189D01*
X192943981Y-129360347D01*
X192914956Y-129423903D01*
X192866037Y-129458327D01*
X192709104Y-129519122D01*
X192709098Y-129519125D01*
X192535431Y-129626655D01*
X192535429Y-129626657D01*
X192384481Y-129764264D01*
X192384477Y-129764268D01*
X192261376Y-129927280D01*
X192170330Y-130110123D01*
X192170325Y-130110136D01*
X192114424Y-130306604D01*
X192095578Y-130509999D01*
X192095578Y-130510000D01*
X192114424Y-130713395D01*
X192170325Y-130909863D01*
X192170330Y-130909876D01*
X192221731Y-131013101D01*
X192261376Y-131092719D01*
X192380653Y-131250668D01*
X192384477Y-131255731D01*
X192384481Y-131255735D01*
X192535429Y-131393342D01*
X192535431Y-131393344D01*
X192709098Y-131500874D01*
X192709100Y-131500875D01*
X192709102Y-131500876D01*
X192846094Y-131553947D01*
X192901495Y-131596519D01*
X192925086Y-131662285D01*
X192925300Y-131669573D01*
X192925300Y-131890426D01*
X192905615Y-131957465D01*
X192852811Y-132003220D01*
X192846094Y-132006053D01*
X192709104Y-132059122D01*
X192709098Y-132059125D01*
X192535431Y-132166655D01*
X192535429Y-132166657D01*
X192384481Y-132304264D01*
X192384477Y-132304268D01*
X192261376Y-132467280D01*
X192170330Y-132650123D01*
X192170325Y-132650136D01*
X192114424Y-132846604D01*
X192095578Y-133049999D01*
X192095578Y-133050000D01*
X192114424Y-133253395D01*
X192170325Y-133449863D01*
X192170330Y-133449876D01*
X192221731Y-133553101D01*
X192261376Y-133632719D01*
X192380653Y-133790668D01*
X192384477Y-133795731D01*
X192384481Y-133795735D01*
X192535429Y-133933342D01*
X192535431Y-133933344D01*
X192709098Y-134040874D01*
X192709104Y-134040877D01*
X192749455Y-134056508D01*
X192899576Y-134114666D01*
X193100366Y-134152200D01*
X193100368Y-134152200D01*
X193304632Y-134152200D01*
X193304634Y-134152200D01*
X193362500Y-134141382D01*
X193362500Y-139050000D01*
X193835300Y-139522800D01*
X193835300Y-139576805D01*
X193815615Y-139643844D01*
X193762811Y-139689599D01*
X193693653Y-139699543D01*
X193667967Y-139692987D01*
X193569880Y-139656403D01*
X193569872Y-139656401D01*
X193510344Y-139650000D01*
X193362500Y-139650000D01*
X193362500Y-144950000D01*
X193510328Y-144950000D01*
X193510344Y-144949999D01*
X193569872Y-144943598D01*
X193569879Y-144943596D01*
X193704586Y-144893354D01*
X193704593Y-144893350D01*
X193819687Y-144807190D01*
X193819690Y-144807187D01*
X193899790Y-144700189D01*
X193955723Y-144658318D01*
X193999056Y-144650500D01*
X194225944Y-144650500D01*
X194292983Y-144670185D01*
X194325210Y-144700189D01*
X194405309Y-144807187D01*
X194405312Y-144807190D01*
X194520406Y-144893350D01*
X194520413Y-144893354D01*
X194655120Y-144943596D01*
X194655127Y-144943598D01*
X194714655Y-144949999D01*
X194714672Y-144950000D01*
X194862500Y-144950000D01*
X194862500Y-142550000D01*
X195362500Y-142550000D01*
X195362500Y-144950000D01*
X195510328Y-144950000D01*
X195510344Y-144949999D01*
X195569877Y-144943597D01*
X195577433Y-144941813D01*
X195577772Y-144943250D01*
X195638842Y-144938874D01*
X195654133Y-144943364D01*
X195655122Y-144943597D01*
X195714655Y-144949999D01*
X195714672Y-144950000D01*
X195862500Y-144950000D01*
X195862500Y-142550000D01*
X196362500Y-142550000D01*
X196362500Y-144950000D01*
X196510328Y-144950000D01*
X196510344Y-144949999D01*
X196569872Y-144943598D01*
X196569879Y-144943596D01*
X196704586Y-144893354D01*
X196704593Y-144893350D01*
X196819687Y-144807190D01*
X196819690Y-144807187D01*
X196899790Y-144700189D01*
X196955723Y-144658318D01*
X196999056Y-144650500D01*
X197225944Y-144650500D01*
X197292983Y-144670185D01*
X197325210Y-144700189D01*
X197405309Y-144807187D01*
X197405312Y-144807190D01*
X197520406Y-144893350D01*
X197520413Y-144893354D01*
X197655120Y-144943596D01*
X197655127Y-144943598D01*
X197714655Y-144949999D01*
X197714672Y-144950000D01*
X197862500Y-144950000D01*
X197862500Y-142174000D01*
X197882185Y-142106961D01*
X197934989Y-142061206D01*
X197986500Y-142050000D01*
X198238500Y-142050000D01*
X198305539Y-142069685D01*
X198351294Y-142122489D01*
X198362500Y-142174000D01*
X198362500Y-144950000D01*
X198510328Y-144950000D01*
X198510344Y-144949999D01*
X198569872Y-144943598D01*
X198569879Y-144943596D01*
X198704586Y-144893354D01*
X198704593Y-144893350D01*
X198819687Y-144807190D01*
X198819690Y-144807187D01*
X198899790Y-144700189D01*
X198955723Y-144658318D01*
X198999056Y-144650500D01*
X199482250Y-144650500D01*
X199482251Y-144650499D01*
X199497068Y-144647552D01*
X199540729Y-144638868D01*
X199540731Y-144638867D01*
X199543608Y-144636945D01*
X199550835Y-144634681D01*
X199552013Y-144634194D01*
X199552056Y-144634299D01*
X199610285Y-144616066D01*
X199677665Y-144634550D01*
X199681392Y-144636945D01*
X199684268Y-144638867D01*
X199684270Y-144638868D01*
X199742747Y-144650499D01*
X199742750Y-144650500D01*
X200225944Y-144650500D01*
X200292983Y-144670185D01*
X200325210Y-144700189D01*
X200405309Y-144807187D01*
X200405312Y-144807190D01*
X200520406Y-144893350D01*
X200520413Y-144893354D01*
X200655120Y-144943596D01*
X200655127Y-144943598D01*
X200714655Y-144949999D01*
X200714672Y-144950000D01*
X200862500Y-144950000D01*
X200862500Y-139650000D01*
X200714655Y-139650000D01*
X200655127Y-139656401D01*
X200647570Y-139658187D01*
X200647190Y-139656578D01*
X200586719Y-139660894D01*
X200525401Y-139627399D01*
X200491926Y-139566071D01*
X200496921Y-139496380D01*
X200498543Y-139492261D01*
X200950206Y-138403261D01*
X200976930Y-138363221D01*
X201252716Y-138086649D01*
X201313989Y-138053080D01*
X201383687Y-138057966D01*
X201439680Y-138099758D01*
X201464190Y-138165187D01*
X201462636Y-138195737D01*
X201462000Y-138199342D01*
X201462000Y-139526000D01*
X201442315Y-139593039D01*
X201389511Y-139638794D01*
X201369311Y-139643188D01*
X201362500Y-139650000D01*
X201362500Y-144950000D01*
X201372684Y-144960184D01*
X201405039Y-144969685D01*
X201450794Y-145022489D01*
X201462000Y-145074000D01*
X201462000Y-145115588D01*
X201442315Y-145182627D01*
X201425681Y-145203269D01*
X201115769Y-145513181D01*
X201054446Y-145546666D01*
X201028088Y-145549500D01*
X191096912Y-145549500D01*
X191029873Y-145529815D01*
X191009231Y-145513181D01*
X190699319Y-145203269D01*
X190665834Y-145141946D01*
X190663000Y-145115588D01*
X190663000Y-143674500D01*
X190682685Y-143607461D01*
X190735489Y-143561706D01*
X190787000Y-143550500D01*
X191438000Y-143550500D01*
X191505039Y-143570185D01*
X191550794Y-143622989D01*
X191562000Y-143674500D01*
X191562000Y-144469752D01*
X191573631Y-144528229D01*
X191573632Y-144528230D01*
X191617947Y-144594552D01*
X191684269Y-144638867D01*
X191684270Y-144638868D01*
X191742747Y-144650499D01*
X191742750Y-144650500D01*
X192225944Y-144650500D01*
X192292983Y-144670185D01*
X192325210Y-144700189D01*
X192405309Y-144807187D01*
X192405312Y-144807190D01*
X192520406Y-144893350D01*
X192520413Y-144893354D01*
X192655120Y-144943596D01*
X192655127Y-144943598D01*
X192714655Y-144949999D01*
X192714672Y-144950000D01*
X192862500Y-144950000D01*
X192862500Y-139650000D01*
X192714655Y-139650000D01*
X192655127Y-139656401D01*
X192655116Y-139656403D01*
X192556532Y-139693173D01*
X192486841Y-139698157D01*
X192425518Y-139664671D01*
X192392033Y-139603348D01*
X192389200Y-139576991D01*
X192389200Y-137178279D01*
X192388700Y-137170649D01*
X192388700Y-135551348D01*
X192389768Y-135535111D01*
X192389806Y-135534822D01*
X192391088Y-135525118D01*
X192389754Y-135514951D01*
X192388700Y-135498820D01*
X192388700Y-135488571D01*
X192386093Y-135478843D01*
X192382921Y-135462879D01*
X192381609Y-135452883D01*
X192381609Y-135452881D01*
X192377687Y-135443402D01*
X192372495Y-135428094D01*
X192369844Y-135418198D01*
X192364804Y-135409469D01*
X192357609Y-135394872D01*
X192348684Y-135373300D01*
X191827970Y-134114666D01*
X191653691Y-133693410D01*
X191648497Y-133678097D01*
X191645845Y-133668201D01*
X191642734Y-133660689D01*
X191644504Y-133659955D01*
X191630510Y-133602270D01*
X191643370Y-133552898D01*
X191694669Y-133449876D01*
X191694668Y-133449876D01*
X191694674Y-133449866D01*
X191750575Y-133253396D01*
X191769422Y-133050000D01*
X191750575Y-132846604D01*
X191694674Y-132650134D01*
X191688197Y-132637127D01*
X191643269Y-132546899D01*
X191603624Y-132467281D01*
X191480525Y-132304271D01*
X191480522Y-132304268D01*
X191480518Y-132304264D01*
X191329570Y-132166657D01*
X191329568Y-132166655D01*
X191155901Y-132059125D01*
X191155886Y-132059118D01*
X191018406Y-132005858D01*
X190963004Y-131963286D01*
X190939414Y-131897519D01*
X190939200Y-131890232D01*
X190939200Y-131669767D01*
X190958885Y-131602728D01*
X191011689Y-131556973D01*
X191018398Y-131554143D01*
X191155898Y-131500876D01*
X191329570Y-131393343D01*
X191480525Y-131255729D01*
X191603624Y-131092719D01*
X191694674Y-130909866D01*
X191750575Y-130713396D01*
X191769422Y-130510000D01*
X191750575Y-130306604D01*
X191694674Y-130110134D01*
X191688191Y-130097115D01*
X191643269Y-130006899D01*
X191603624Y-129927281D01*
X191480525Y-129764271D01*
X191480522Y-129764268D01*
X191480518Y-129764264D01*
X191329570Y-129626657D01*
X191329568Y-129626655D01*
X191155901Y-129519125D01*
X191155889Y-129519119D01*
X191150973Y-129517215D01*
X191095574Y-129474639D01*
X191071988Y-129408871D01*
X191087703Y-129340791D01*
X191137730Y-129292015D01*
X191148265Y-129287053D01*
X191219437Y-129257539D01*
X191290291Y-129228158D01*
X191337789Y-129218700D01*
X192821243Y-129218700D01*
X192888282Y-129238385D01*
G37*
%TD.AperFunction*%
%TA.AperFunction,Conductor*%
G36*
X201764300Y-135464239D02*
G01*
X201754849Y-135511722D01*
X200850774Y-137692741D01*
X200824031Y-137732814D01*
X200547878Y-138009755D01*
X200535518Y-138020606D01*
X200527745Y-138026564D01*
X200521317Y-138034934D01*
X200510794Y-138046945D01*
X200504677Y-138053080D01*
X200503340Y-138054421D01*
X200498453Y-138062913D01*
X200489334Y-138076575D01*
X200483369Y-138084341D01*
X200483360Y-138084357D01*
X200479323Y-138094091D01*
X200472268Y-138108415D01*
X200467008Y-138117557D01*
X200467003Y-138117568D01*
X200464479Y-138127039D01*
X200459202Y-138142606D01*
X199866436Y-139571820D01*
X199859286Y-139586311D01*
X199854158Y-139595193D01*
X199854153Y-139595205D01*
X199851547Y-139604931D01*
X199846315Y-139620335D01*
X199842453Y-139629645D01*
X199841110Y-139639816D01*
X199837956Y-139655658D01*
X199835300Y-139665570D01*
X199835300Y-139675640D01*
X199834232Y-139691878D01*
X199832912Y-139701870D01*
X199832912Y-139701872D01*
X199833538Y-139706647D01*
X199834246Y-139712037D01*
X199835300Y-139728171D01*
X199835300Y-139829326D01*
X199815615Y-139896365D01*
X199762811Y-139942120D01*
X199735492Y-139950943D01*
X199684270Y-139961132D01*
X199684268Y-139961132D01*
X199681387Y-139963058D01*
X199674155Y-139965322D01*
X199672987Y-139965806D01*
X199672943Y-139965701D01*
X199614709Y-139983933D01*
X199547329Y-139965446D01*
X199543613Y-139963058D01*
X199540731Y-139961132D01*
X199540729Y-139961131D01*
X199482252Y-139949500D01*
X199476188Y-139948903D01*
X199476347Y-139947285D01*
X199416851Y-139929815D01*
X199374474Y-139880910D01*
X199373909Y-139881237D01*
X199372213Y-139878301D01*
X199371096Y-139877011D01*
X199369951Y-139874381D01*
X199339724Y-139822029D01*
X199333415Y-139811102D01*
X199281898Y-139759585D01*
X199217198Y-139694885D01*
X199206526Y-139682720D01*
X199200305Y-139674615D01*
X199200302Y-139674612D01*
X199200300Y-139674610D01*
X199192264Y-139668446D01*
X199180054Y-139657740D01*
X199172901Y-139650587D01*
X199172898Y-139650585D01*
X199164049Y-139645475D01*
X199150594Y-139636487D01*
X199142495Y-139630275D01*
X199133140Y-139626402D01*
X199118578Y-139619222D01*
X199109807Y-139614158D01*
X199109805Y-139614157D01*
X199109803Y-139614156D01*
X199099929Y-139611510D01*
X199084604Y-139606309D01*
X199081275Y-139604931D01*
X198996519Y-139569844D01*
X198956267Y-139542954D01*
X197912906Y-138499593D01*
X201764300Y-134648200D01*
X201764300Y-135464239D01*
G37*
%TD.AperFunction*%
%TA.AperFunction,Conductor*%
G36*
X198069006Y-139438319D02*
G01*
X198102491Y-139499642D01*
X198097507Y-139569334D01*
X198055635Y-139625267D01*
X197990171Y-139649684D01*
X197981325Y-139650000D01*
X197714672Y-139650000D01*
X197707147Y-139650809D01*
X197638387Y-139638403D01*
X197587250Y-139590792D01*
X197571154Y-139545165D01*
X197566309Y-139511466D01*
X197514884Y-139398862D01*
X197514884Y-139398861D01*
X197433817Y-139305304D01*
X197433814Y-139305302D01*
X197433812Y-139305300D01*
X197362500Y-139259470D01*
X197362500Y-139050000D01*
X197521593Y-138890906D01*
X198069006Y-139438319D01*
G37*
%TD.AperFunction*%
%TA.AperFunction,Conductor*%
G36*
X195523000Y-124066638D02*
G01*
X195558650Y-124126728D01*
X195562500Y-124157388D01*
X195562500Y-124249970D01*
X195562501Y-124249987D01*
X195572994Y-124352697D01*
X195628141Y-124519119D01*
X195628143Y-124519124D01*
X195720184Y-124668345D01*
X195844154Y-124792315D01*
X195993375Y-124884356D01*
X195993380Y-124884358D01*
X196038472Y-124899300D01*
X196095917Y-124939072D01*
X196122740Y-125003588D01*
X196110425Y-125072364D01*
X196073102Y-125116776D01*
X195990350Y-125177850D01*
X195909707Y-125287117D01*
X195909706Y-125287119D01*
X195864853Y-125415298D01*
X195864853Y-125415300D01*
X195862000Y-125445730D01*
X195862000Y-126254269D01*
X195864853Y-126284699D01*
X195864853Y-126284701D01*
X195909706Y-126412880D01*
X195909707Y-126412882D01*
X195909708Y-126412883D01*
X195940911Y-126455162D01*
X195964881Y-126520791D01*
X195949565Y-126588961D01*
X195934854Y-126609997D01*
X195882117Y-126670859D01*
X195882115Y-126670862D01*
X195830690Y-126783466D01*
X195813073Y-126906000D01*
X195830690Y-127028533D01*
X195882115Y-127141137D01*
X195882120Y-127141144D01*
X195962919Y-127234392D01*
X195991944Y-127297947D01*
X195982000Y-127367106D01*
X195936245Y-127419910D01*
X195916661Y-127430154D01*
X192957746Y-128655860D01*
X192910291Y-128665300D01*
X191284184Y-128665300D01*
X191268052Y-128664246D01*
X191257885Y-128662911D01*
X191257884Y-128662911D01*
X191248907Y-128664097D01*
X191247890Y-128664232D01*
X191231652Y-128665300D01*
X191221567Y-128665300D01*
X191211664Y-128667954D01*
X191195821Y-128671109D01*
X191185655Y-128672452D01*
X191185648Y-128672454D01*
X191176333Y-128676316D01*
X191160946Y-128681543D01*
X191151200Y-128684155D01*
X191151198Y-128684155D01*
X191142316Y-128689283D01*
X191127826Y-128696432D01*
X189886486Y-129211207D01*
X189886426Y-129211232D01*
X189852424Y-129225311D01*
X189852408Y-129225320D01*
X189823813Y-129247281D01*
X189823761Y-129247321D01*
X189794662Y-129269643D01*
X189794586Y-129269719D01*
X189772613Y-129298379D01*
X189772576Y-129298427D01*
X189750296Y-129327456D01*
X189750263Y-129327512D01*
X189739798Y-129352807D01*
X189736679Y-129360347D01*
X189736542Y-129360677D01*
X189736517Y-129360737D01*
X189401477Y-130169298D01*
X189357629Y-130223695D01*
X189291332Y-130245752D01*
X189223635Y-130228464D01*
X189176031Y-130177320D01*
X189167661Y-130155779D01*
X189154674Y-130110134D01*
X189148191Y-130097115D01*
X189103269Y-130006899D01*
X189063624Y-129927281D01*
X188940525Y-129764271D01*
X188940522Y-129764268D01*
X188940518Y-129764264D01*
X188789570Y-129626657D01*
X188789568Y-129626655D01*
X188615901Y-129519125D01*
X188615895Y-129519122D01*
X188533077Y-129487039D01*
X188477676Y-129444466D01*
X188454085Y-129378699D01*
X188463300Y-129323983D01*
X188713153Y-128720514D01*
X188740036Y-128680275D01*
X191350823Y-126069488D01*
X191412142Y-126036006D01*
X191481834Y-126040990D01*
X191537767Y-126082862D01*
X191562184Y-126148326D01*
X191562500Y-126157171D01*
X191562500Y-126249970D01*
X191562501Y-126249987D01*
X191572994Y-126352697D01*
X191628141Y-126519119D01*
X191628143Y-126519124D01*
X191720184Y-126668345D01*
X191844154Y-126792315D01*
X191993375Y-126884356D01*
X191993380Y-126884358D01*
X192159802Y-126939505D01*
X192159809Y-126939506D01*
X192262519Y-126949999D01*
X192512499Y-126949999D01*
X193012500Y-126949999D01*
X193262472Y-126949999D01*
X193262486Y-126949998D01*
X193365197Y-126939505D01*
X193531619Y-126884358D01*
X193531624Y-126884356D01*
X193680845Y-126792315D01*
X193804815Y-126668345D01*
X193896856Y-126519124D01*
X193896858Y-126519119D01*
X193952005Y-126352697D01*
X193952006Y-126352690D01*
X193962499Y-126249986D01*
X193962500Y-126249973D01*
X193962500Y-126100000D01*
X193012500Y-126100000D01*
X193012500Y-126949999D01*
X192512499Y-126949999D01*
X192512500Y-126949998D01*
X192512500Y-125724000D01*
X192532185Y-125656961D01*
X192584989Y-125611206D01*
X192636500Y-125600000D01*
X193962499Y-125600000D01*
X193962499Y-125450028D01*
X193962498Y-125450013D01*
X193952005Y-125347302D01*
X193896858Y-125180880D01*
X193896853Y-125180869D01*
X193802145Y-125027324D01*
X193783704Y-124959932D01*
X193804626Y-124893268D01*
X193858268Y-124848498D01*
X193860073Y-124847731D01*
X194839648Y-124441684D01*
X194855018Y-124436465D01*
X194864803Y-124433844D01*
X194873648Y-124428736D01*
X194888178Y-124421568D01*
X194897606Y-124417661D01*
X194905634Y-124411496D01*
X194919138Y-124402472D01*
X194927898Y-124397415D01*
X194935115Y-124390196D01*
X194947285Y-124379520D01*
X194955396Y-124373295D01*
X194961549Y-124365270D01*
X194972263Y-124353048D01*
X195188292Y-124137019D01*
X195228519Y-124110141D01*
X195391054Y-124042825D01*
X195460522Y-124035360D01*
X195523000Y-124066638D01*
G37*
%TD.AperFunction*%
%TA.AperFunction,Conductor*%
G36*
X199281334Y-125398492D02*
G01*
X199337267Y-125440364D01*
X199361684Y-125505828D01*
X199362000Y-125514674D01*
X199362000Y-126254269D01*
X199364853Y-126284699D01*
X199364853Y-126284701D01*
X199409706Y-126412880D01*
X199409707Y-126412882D01*
X199490350Y-126522150D01*
X199599618Y-126602793D01*
X199620206Y-126609997D01*
X199727799Y-126647646D01*
X199758230Y-126650500D01*
X199758234Y-126650500D01*
X200766770Y-126650500D01*
X200797199Y-126647646D01*
X200797201Y-126647646D01*
X200861290Y-126625219D01*
X200925382Y-126602793D01*
X201034650Y-126522150D01*
X201115293Y-126412882D01*
X201132083Y-126364897D01*
X201172803Y-126308125D01*
X201237755Y-126282377D01*
X201284058Y-126286878D01*
X201361102Y-126309500D01*
X201361103Y-126309500D01*
X201484897Y-126309500D01*
X201605365Y-126274128D01*
X201675235Y-126274128D01*
X201734013Y-126311903D01*
X201763038Y-126375458D01*
X201764300Y-126393105D01*
X201764300Y-129050000D01*
X194362500Y-129050000D01*
X193817860Y-129594639D01*
X193695901Y-129519125D01*
X193695895Y-129519122D01*
X193538963Y-129458327D01*
X193505424Y-129445334D01*
X193304634Y-129407800D01*
X193211895Y-129407800D01*
X193144856Y-129388115D01*
X193099101Y-129335311D01*
X193089157Y-129266153D01*
X193118182Y-129202597D01*
X193164440Y-129169240D01*
X193405218Y-129069500D01*
X196919625Y-127613687D01*
X196934977Y-127608476D01*
X196944803Y-127605844D01*
X196953611Y-127600757D01*
X196968167Y-127593580D01*
X196970021Y-127592811D01*
X196977549Y-127589694D01*
X196985608Y-127583508D01*
X196999098Y-127574494D01*
X197007898Y-127569415D01*
X197015080Y-127562231D01*
X197027273Y-127551538D01*
X197035350Y-127545341D01*
X197041548Y-127537262D01*
X197052231Y-127525080D01*
X199150319Y-125426993D01*
X199211642Y-125393508D01*
X199281334Y-125398492D01*
G37*
%TD.AperFunction*%
%TA.AperFunction,Conductor*%
G36*
X199333623Y-123216385D02*
G01*
X199379378Y-123269189D01*
X199389322Y-123338347D01*
X199383625Y-123361655D01*
X199364853Y-123415298D01*
X199364853Y-123415300D01*
X199362000Y-123445730D01*
X199362000Y-124254271D01*
X199365552Y-124292153D01*
X199352212Y-124360737D01*
X199329775Y-124391410D01*
X199257940Y-124463245D01*
X199252876Y-124467696D01*
X199105305Y-124615848D01*
X199097205Y-124623980D01*
X199097035Y-124624150D01*
X199066511Y-124654675D01*
X199065642Y-124655667D01*
X198988588Y-124733025D01*
X198976351Y-124743792D01*
X198968402Y-124749907D01*
X198968391Y-124749918D01*
X198962129Y-124758101D01*
X198951525Y-124770233D01*
X198944256Y-124777531D01*
X198944250Y-124777540D01*
X198939248Y-124786241D01*
X198930230Y-124799786D01*
X198924121Y-124807770D01*
X198924120Y-124807771D01*
X198920186Y-124817303D01*
X198913081Y-124831770D01*
X198907946Y-124840704D01*
X198905368Y-124850402D01*
X198900156Y-124865837D01*
X198889437Y-124891812D01*
X198862494Y-124932192D01*
X197874681Y-125920005D01*
X197813358Y-125953490D01*
X197743666Y-125948506D01*
X197687733Y-125906634D01*
X197663316Y-125841170D01*
X197663000Y-125832324D01*
X197663000Y-125445730D01*
X197660146Y-125415300D01*
X197660146Y-125415298D01*
X197615293Y-125287119D01*
X197615292Y-125287117D01*
X197611746Y-125282312D01*
X197534650Y-125177850D01*
X197451896Y-125116775D01*
X197409647Y-125061129D01*
X197404188Y-124991472D01*
X197437256Y-124929923D01*
X197486528Y-124899300D01*
X197531617Y-124884359D01*
X197531624Y-124884356D01*
X197680845Y-124792315D01*
X197804815Y-124668345D01*
X197896856Y-124519124D01*
X197896858Y-124519119D01*
X197952005Y-124352697D01*
X197952006Y-124352690D01*
X197962499Y-124249986D01*
X197962500Y-124249973D01*
X197962500Y-124100000D01*
X196636500Y-124100000D01*
X196569461Y-124080315D01*
X196523706Y-124027511D01*
X196512500Y-123976000D01*
X196512500Y-123661221D01*
X196532185Y-123594182D01*
X196584989Y-123548427D01*
X196588983Y-123546687D01*
X196841056Y-123442288D01*
X196910522Y-123434823D01*
X196973000Y-123466101D01*
X197008650Y-123526191D01*
X197012500Y-123556852D01*
X197012500Y-123600000D01*
X197962499Y-123600000D01*
X197962499Y-123450028D01*
X197962498Y-123450013D01*
X197952005Y-123347296D01*
X197951866Y-123346646D01*
X197951896Y-123346234D01*
X197951318Y-123340569D01*
X197952329Y-123340465D01*
X197957087Y-123276972D01*
X197999148Y-123221181D01*
X198064695Y-123196987D01*
X198073121Y-123196700D01*
X199266584Y-123196700D01*
X199333623Y-123216385D01*
G37*
%TD.AperFunction*%
%TD*%
%TA.AperFunction,Conductor*%
%TO.N,GND*%
G36*
X194547628Y-136098887D02*
G01*
X194620631Y-136120323D01*
X194662102Y-136132500D01*
X194662103Y-136132500D01*
X194711825Y-136132500D01*
X194778864Y-136152185D01*
X194799506Y-136168819D01*
X197521593Y-138890906D01*
X197362500Y-139050000D01*
X197362500Y-139259471D01*
X197350091Y-139251497D01*
X197329675Y-139238376D01*
X197329673Y-139238375D01*
X197329671Y-139238374D01*
X197329672Y-139238374D01*
X197210899Y-139203500D01*
X197210897Y-139203500D01*
X197087103Y-139203500D01*
X197087100Y-139203500D01*
X196968327Y-139238374D01*
X196968322Y-139238376D01*
X196864187Y-139305300D01*
X196864185Y-139305302D01*
X196783117Y-139398859D01*
X196783115Y-139398862D01*
X196731691Y-139511465D01*
X196725516Y-139554410D01*
X196696490Y-139617965D01*
X196637711Y-139655739D01*
X196574274Y-139657440D01*
X196569881Y-139656402D01*
X196510344Y-139650000D01*
X196362500Y-139650000D01*
X196362500Y-142426000D01*
X196342815Y-142493039D01*
X196290011Y-142538794D01*
X196238500Y-142550000D01*
X194986500Y-142550000D01*
X194919461Y-142530315D01*
X194873706Y-142477511D01*
X194862500Y-142426000D01*
X194862500Y-142050000D01*
X195362500Y-142050000D01*
X195862500Y-142050000D01*
X195862500Y-139650000D01*
X195714655Y-139650000D01*
X195655124Y-139656401D01*
X195647573Y-139658186D01*
X195647234Y-139656754D01*
X195586130Y-139661119D01*
X195570850Y-139656632D01*
X195569875Y-139656401D01*
X195510344Y-139650000D01*
X195362500Y-139650000D01*
X195362500Y-142050000D01*
X194862500Y-142050000D01*
X194862500Y-139650000D01*
X194714655Y-139650000D01*
X194655127Y-139656401D01*
X194655119Y-139656403D01*
X194556033Y-139693360D01*
X194486341Y-139698344D01*
X194425018Y-139664859D01*
X194391534Y-139603535D01*
X194388700Y-139577178D01*
X194388700Y-136217866D01*
X194408385Y-136150827D01*
X194461189Y-136105072D01*
X194530347Y-136095128D01*
X194547628Y-136098887D01*
G37*
%TD.AperFunction*%
%TA.AperFunction,Conductor*%
G36*
X193573265Y-134122009D02*
G01*
X193627943Y-134165507D01*
X193641089Y-134189397D01*
X193825854Y-134635265D01*
X193835300Y-134682735D01*
X193835300Y-137562572D01*
X193835300Y-137563572D01*
X193835300Y-139129572D01*
X193835300Y-139522800D01*
X193362500Y-139050000D01*
X193362500Y-134141383D01*
X193503753Y-134114978D01*
X193573265Y-134122009D01*
G37*
%TD.AperFunction*%
%TA.AperFunction,Conductor*%
G36*
X200248516Y-133356801D02*
G01*
X200319399Y-133462885D01*
X200409615Y-133553101D01*
X200515699Y-133623984D01*
X200576770Y-133649280D01*
X200022489Y-134203561D01*
X200022490Y-134203563D01*
X200053212Y-134227475D01*
X200053218Y-134227480D01*
X200257507Y-134338035D01*
X200257517Y-134338040D01*
X200477221Y-134413464D01*
X200706353Y-134451700D01*
X200938647Y-134451700D01*
X201167778Y-134413464D01*
X201387482Y-134338040D01*
X201387487Y-134338038D01*
X201581282Y-134233161D01*
X201649610Y-134218566D01*
X201714983Y-134243229D01*
X201756644Y-134299319D01*
X201764300Y-134342216D01*
X201764300Y-134648200D01*
X197912906Y-138499593D01*
X195195246Y-135781933D01*
X195161761Y-135720610D01*
X195160696Y-135710706D01*
X195160189Y-135710779D01*
X195141309Y-135579466D01*
X195089884Y-135466862D01*
X195089884Y-135466861D01*
X195008817Y-135373304D01*
X195008814Y-135373302D01*
X195008812Y-135373300D01*
X194904677Y-135306376D01*
X194904672Y-135306374D01*
X194785899Y-135271500D01*
X194785897Y-135271500D01*
X194662103Y-135271500D01*
X194662100Y-135271500D01*
X194547634Y-135305110D01*
X194477765Y-135305110D01*
X194418987Y-135267335D01*
X194389962Y-135203779D01*
X194388700Y-135186133D01*
X194388700Y-134629237D01*
X194389758Y-134613073D01*
X194391088Y-134602957D01*
X194389763Y-134592904D01*
X194388700Y-134576701D01*
X194388700Y-134566574D01*
X194388700Y-134566572D01*
X194386058Y-134556714D01*
X194382899Y-134540831D01*
X194381567Y-134530728D01*
X194381567Y-134530726D01*
X194377687Y-134521363D01*
X194372466Y-134505985D01*
X194369844Y-134496199D01*
X194369843Y-134496197D01*
X194364742Y-134487361D01*
X194357576Y-134472832D01*
X194200923Y-134094800D01*
X194084151Y-133813009D01*
X194076673Y-133743542D01*
X194099751Y-133690814D01*
X194143624Y-133632719D01*
X194183269Y-133553101D01*
X194197694Y-133524133D01*
X194245196Y-133472895D01*
X194312859Y-133455474D01*
X194379200Y-133477399D01*
X194422250Y-133529594D01*
X194505515Y-133719418D01*
X194590084Y-133848861D01*
X195143218Y-133295727D01*
X195168516Y-133356801D01*
X195239399Y-133462885D01*
X195329615Y-133553101D01*
X195435699Y-133623984D01*
X195496771Y-133649281D01*
X194942489Y-134203562D01*
X194942490Y-134203563D01*
X194973212Y-134227475D01*
X194973218Y-134227480D01*
X195177507Y-134338035D01*
X195177517Y-134338040D01*
X195397221Y-134413464D01*
X195626353Y-134451700D01*
X195858647Y-134451700D01*
X196087778Y-134413464D01*
X196307482Y-134338040D01*
X196307487Y-134338038D01*
X196511788Y-134227475D01*
X196542508Y-134203563D01*
X196542508Y-134203562D01*
X195988228Y-133649281D01*
X196049301Y-133623984D01*
X196155385Y-133553101D01*
X196245601Y-133462885D01*
X196316484Y-133356801D01*
X196341781Y-133295728D01*
X196894913Y-133848860D01*
X196908690Y-133827775D01*
X196961837Y-133782419D01*
X197031068Y-133772995D01*
X197094404Y-133802497D01*
X197116308Y-133827775D01*
X197130084Y-133848861D01*
X197683218Y-133295727D01*
X197708516Y-133356801D01*
X197779399Y-133462885D01*
X197869615Y-133553101D01*
X197975699Y-133623984D01*
X198036771Y-133649281D01*
X197482489Y-134203562D01*
X197482490Y-134203563D01*
X197513212Y-134227475D01*
X197513218Y-134227480D01*
X197717507Y-134338035D01*
X197717517Y-134338040D01*
X197937221Y-134413464D01*
X198166353Y-134451700D01*
X198398647Y-134451700D01*
X198627778Y-134413464D01*
X198847482Y-134338040D01*
X198847487Y-134338038D01*
X199051788Y-134227475D01*
X199082508Y-134203563D01*
X199082508Y-134203562D01*
X198528228Y-133649281D01*
X198589301Y-133623984D01*
X198695385Y-133553101D01*
X198785601Y-133462885D01*
X198856484Y-133356801D01*
X198881781Y-133295728D01*
X199434913Y-133848860D01*
X199448690Y-133827775D01*
X199501837Y-133782419D01*
X199571068Y-133772995D01*
X199634404Y-133802497D01*
X199656308Y-133827775D01*
X199670084Y-133848861D01*
X200223218Y-133295727D01*
X200248516Y-133356801D01*
G37*
%TD.AperFunction*%
%TA.AperFunction,Conductor*%
G36*
X202522903Y-133771682D02*
G01*
X202540649Y-133790663D01*
X202544475Y-133795729D01*
X202582293Y-133830205D01*
X202317700Y-134094800D01*
X202317700Y-133865395D01*
X202337385Y-133798356D01*
X202390189Y-133752601D01*
X202459347Y-133742657D01*
X202522903Y-133771682D01*
G37*
%TD.AperFunction*%
%TA.AperFunction,Conductor*%
G36*
X195168516Y-130816801D02*
G01*
X195239399Y-130922885D01*
X195329615Y-131013101D01*
X195435699Y-131083984D01*
X195496771Y-131109281D01*
X194942489Y-131663562D01*
X194942490Y-131663563D01*
X194966366Y-131682147D01*
X195007178Y-131738858D01*
X195010851Y-131808631D01*
X194976219Y-131869313D01*
X194966365Y-131877852D01*
X194942490Y-131896434D01*
X194942490Y-131896436D01*
X195496772Y-132450718D01*
X195435699Y-132476016D01*
X195329615Y-132546899D01*
X195239399Y-132637115D01*
X195168516Y-132743199D01*
X195143218Y-132804271D01*
X194590084Y-132251137D01*
X194505517Y-132380576D01*
X194422250Y-132570406D01*
X194377293Y-132623891D01*
X194310557Y-132644581D01*
X194243230Y-132625906D01*
X194197694Y-132575867D01*
X194168666Y-132517572D01*
X194143624Y-132467281D01*
X194020525Y-132304271D01*
X194020522Y-132304268D01*
X194020518Y-132304264D01*
X193869570Y-132166657D01*
X193869568Y-132166655D01*
X193695901Y-132059125D01*
X193695895Y-132059123D01*
X193557905Y-132005665D01*
X193502505Y-131963093D01*
X193478914Y-131897326D01*
X193478700Y-131890039D01*
X193478700Y-131669961D01*
X193498385Y-131602922D01*
X193551189Y-131557167D01*
X193557895Y-131554338D01*
X193695898Y-131500876D01*
X193869570Y-131393343D01*
X194020525Y-131255729D01*
X194143624Y-131092719D01*
X194197694Y-130984132D01*
X194245197Y-130932895D01*
X194312860Y-130915474D01*
X194379200Y-130937400D01*
X194422250Y-130989594D01*
X194505515Y-131179418D01*
X194590084Y-131308861D01*
X195143218Y-130755727D01*
X195168516Y-130816801D01*
G37*
%TD.AperFunction*%
%TA.AperFunction,Conductor*%
G36*
X197708516Y-130816801D02*
G01*
X197779399Y-130922885D01*
X197869615Y-131013101D01*
X197975699Y-131083984D01*
X198036771Y-131109281D01*
X197482489Y-131663562D01*
X197482490Y-131663563D01*
X197506366Y-131682147D01*
X197547178Y-131738858D01*
X197550851Y-131808631D01*
X197516219Y-131869313D01*
X197506365Y-131877852D01*
X197482490Y-131896434D01*
X197482490Y-131896436D01*
X198036772Y-132450718D01*
X197975699Y-132476016D01*
X197869615Y-132546899D01*
X197779399Y-132637115D01*
X197708516Y-132743199D01*
X197683218Y-132804271D01*
X197130084Y-132251137D01*
X197130083Y-132251137D01*
X197116307Y-132272223D01*
X197063160Y-132317580D01*
X196993929Y-132327003D01*
X196930593Y-132297500D01*
X196908691Y-132272223D01*
X196894914Y-132251137D01*
X196341780Y-132804270D01*
X196316484Y-132743199D01*
X196245601Y-132637115D01*
X196155385Y-132546899D01*
X196049301Y-132476016D01*
X195988227Y-132450718D01*
X196542509Y-131896436D01*
X196542509Y-131896435D01*
X196518634Y-131877853D01*
X196477821Y-131821143D01*
X196474148Y-131751370D01*
X196508779Y-131690686D01*
X196518632Y-131682149D01*
X196542508Y-131663564D01*
X196542508Y-131663562D01*
X195988228Y-131109281D01*
X196049301Y-131083984D01*
X196155385Y-131013101D01*
X196245601Y-130922885D01*
X196316484Y-130816801D01*
X196341781Y-130755728D01*
X196894913Y-131308860D01*
X196908690Y-131287775D01*
X196961837Y-131242419D01*
X197031068Y-131232995D01*
X197094404Y-131262497D01*
X197116308Y-131287775D01*
X197130084Y-131308861D01*
X197683218Y-130755727D01*
X197708516Y-130816801D01*
G37*
%TD.AperFunction*%
%TA.AperFunction,Conductor*%
G36*
X200248516Y-130816801D02*
G01*
X200319399Y-130922885D01*
X200409615Y-131013101D01*
X200515699Y-131083984D01*
X200576770Y-131109280D01*
X200022489Y-131663561D01*
X200022490Y-131663563D01*
X200046366Y-131682147D01*
X200087178Y-131738858D01*
X200090851Y-131808631D01*
X200056219Y-131869313D01*
X200046365Y-131877852D01*
X200022490Y-131896434D01*
X200022490Y-131896436D01*
X200576772Y-132450718D01*
X200515699Y-132476016D01*
X200409615Y-132546899D01*
X200319399Y-132637115D01*
X200248516Y-132743199D01*
X200223218Y-132804271D01*
X199670084Y-132251137D01*
X199670083Y-132251137D01*
X199656307Y-132272223D01*
X199603160Y-132317580D01*
X199533929Y-132327003D01*
X199470593Y-132297500D01*
X199448691Y-132272223D01*
X199434914Y-132251137D01*
X198881780Y-132804270D01*
X198856484Y-132743199D01*
X198785601Y-132637115D01*
X198695385Y-132546899D01*
X198589301Y-132476016D01*
X198528227Y-132450718D01*
X199082509Y-131896436D01*
X199082509Y-131896435D01*
X199058634Y-131877853D01*
X199017821Y-131821143D01*
X199014148Y-131751370D01*
X199048779Y-131690686D01*
X199058632Y-131682149D01*
X199082508Y-131663564D01*
X199082508Y-131663562D01*
X198528228Y-131109281D01*
X198589301Y-131083984D01*
X198695385Y-131013101D01*
X198785601Y-130922885D01*
X198856484Y-130816801D01*
X198881781Y-130755728D01*
X199434913Y-131308860D01*
X199448690Y-131287775D01*
X199501837Y-131242419D01*
X199571068Y-131232995D01*
X199634404Y-131262497D01*
X199656308Y-131287775D01*
X199670084Y-131308861D01*
X200223218Y-130755727D01*
X200248516Y-130816801D01*
G37*
%TD.AperFunction*%
%TA.AperFunction,Conductor*%
G36*
X203862500Y-132063211D02*
G01*
X203855901Y-132059126D01*
X203855902Y-132059126D01*
X203855898Y-132059124D01*
X203855895Y-132059122D01*
X203855886Y-132059118D01*
X203718406Y-132005858D01*
X203663004Y-131963286D01*
X203639414Y-131897519D01*
X203639200Y-131890232D01*
X203639200Y-131739779D01*
X203638700Y-131732149D01*
X203638700Y-131669961D01*
X203658385Y-131602922D01*
X203711189Y-131557167D01*
X203717895Y-131554338D01*
X203855898Y-131500876D01*
X203862500Y-131496788D01*
X203862500Y-132063211D01*
G37*
%TD.AperFunction*%
%TA.AperFunction,Conductor*%
G36*
X201764300Y-129217783D02*
G01*
X201744615Y-129284822D01*
X201691811Y-129330577D01*
X201622653Y-129340521D01*
X201581283Y-129326838D01*
X201387492Y-129221964D01*
X201387482Y-129221959D01*
X201167778Y-129146535D01*
X200938647Y-129108300D01*
X200706353Y-129108300D01*
X200477221Y-129146535D01*
X200257517Y-129221959D01*
X200257507Y-129221964D01*
X200053217Y-129332520D01*
X200053206Y-129332527D01*
X200022490Y-129356434D01*
X200022490Y-129356436D01*
X200576772Y-129910718D01*
X200515699Y-129936016D01*
X200409615Y-130006899D01*
X200319399Y-130097115D01*
X200248516Y-130203199D01*
X200223218Y-130264271D01*
X199670084Y-129711137D01*
X199670083Y-129711137D01*
X199656307Y-129732223D01*
X199603160Y-129777580D01*
X199533929Y-129787003D01*
X199470593Y-129757500D01*
X199448691Y-129732223D01*
X199434914Y-129711137D01*
X198881780Y-130264270D01*
X198856484Y-130203199D01*
X198785601Y-130097115D01*
X198695385Y-130006899D01*
X198589301Y-129936016D01*
X198528227Y-129910718D01*
X199082509Y-129356436D01*
X199082509Y-129356435D01*
X199051786Y-129332523D01*
X199051781Y-129332519D01*
X198847492Y-129221964D01*
X198847482Y-129221959D01*
X198627778Y-129146535D01*
X198398647Y-129108300D01*
X198166353Y-129108300D01*
X197937221Y-129146535D01*
X197717517Y-129221959D01*
X197717507Y-129221964D01*
X197513217Y-129332520D01*
X197513206Y-129332527D01*
X197482490Y-129356434D01*
X197482490Y-129356436D01*
X198036772Y-129910718D01*
X197975699Y-129936016D01*
X197869615Y-130006899D01*
X197779399Y-130097115D01*
X197708516Y-130203199D01*
X197683218Y-130264271D01*
X197130084Y-129711137D01*
X197130083Y-129711137D01*
X197116307Y-129732223D01*
X197063160Y-129777580D01*
X196993929Y-129787003D01*
X196930593Y-129757500D01*
X196908691Y-129732223D01*
X196894914Y-129711137D01*
X196341780Y-130264270D01*
X196316484Y-130203199D01*
X196245601Y-130097115D01*
X196155385Y-130006899D01*
X196049301Y-129936016D01*
X195988227Y-129910718D01*
X196542509Y-129356436D01*
X196542509Y-129356435D01*
X196511786Y-129332523D01*
X196511781Y-129332519D01*
X196307492Y-129221964D01*
X196307482Y-129221959D01*
X196087778Y-129146535D01*
X195858647Y-129108300D01*
X195626353Y-129108300D01*
X195397221Y-129146535D01*
X195177517Y-129221959D01*
X195177507Y-129221964D01*
X194973217Y-129332520D01*
X194973206Y-129332527D01*
X194942490Y-129356434D01*
X194942490Y-129356436D01*
X195496772Y-129910718D01*
X195435699Y-129936016D01*
X195329615Y-130006899D01*
X195239399Y-130097115D01*
X195168516Y-130203199D01*
X195143218Y-130264271D01*
X194590084Y-129711137D01*
X194505517Y-129840576D01*
X194422250Y-130030406D01*
X194377293Y-130083891D01*
X194310557Y-130104581D01*
X194243230Y-130085906D01*
X194197694Y-130035867D01*
X194168666Y-129977572D01*
X194143624Y-129927281D01*
X194020525Y-129764271D01*
X194020522Y-129764268D01*
X194020518Y-129764264D01*
X193869571Y-129626658D01*
X193869570Y-129626657D01*
X193848818Y-129613808D01*
X193817860Y-129594639D01*
X194362500Y-129050000D01*
X201764300Y-129050000D01*
X201764300Y-129217783D01*
G37*
%TD.AperFunction*%
%TA.AperFunction,Conductor*%
G36*
X203816272Y-129503772D02*
G01*
X203698236Y-129458045D01*
X203665424Y-129445334D01*
X203464634Y-129407800D01*
X203260366Y-129407800D01*
X203059576Y-129445334D01*
X203059573Y-129445334D01*
X203059573Y-129445335D01*
X202869104Y-129519122D01*
X202869098Y-129519125D01*
X202695431Y-129626655D01*
X202695429Y-129626657D01*
X202544481Y-129764264D01*
X202544474Y-129764272D01*
X202540650Y-129769336D01*
X202484540Y-129810969D01*
X202414827Y-129815657D01*
X202353647Y-129781912D01*
X202320423Y-129720447D01*
X202317700Y-129694604D01*
X202317700Y-129050000D01*
X203362500Y-129050000D01*
X203816272Y-129503772D01*
G37*
%TD.AperFunction*%
%TD*%
%TA.AperFunction,Conductor*%
%TO.N,GND*%
G36*
X47705539Y-34270185D02*
G01*
X47751294Y-34322989D01*
X47762500Y-34374500D01*
X47762500Y-63426000D01*
X47742815Y-63493039D01*
X47690011Y-63538794D01*
X47638500Y-63550000D01*
X36087000Y-63550000D01*
X36019961Y-63530315D01*
X35974206Y-63477511D01*
X35963000Y-63426000D01*
X35963000Y-62810344D01*
X37562500Y-62810344D01*
X37568901Y-62869872D01*
X37568903Y-62869879D01*
X37619145Y-63004586D01*
X37619149Y-63004593D01*
X37705309Y-63119687D01*
X37705312Y-63119690D01*
X37820406Y-63205850D01*
X37820413Y-63205854D01*
X37955120Y-63256096D01*
X37955127Y-63256098D01*
X38014655Y-63262499D01*
X38014672Y-63262500D01*
X38062500Y-63262500D01*
X38462500Y-63262500D01*
X38510328Y-63262500D01*
X38510344Y-63262499D01*
X38569872Y-63256098D01*
X38569879Y-63256096D01*
X38704586Y-63205854D01*
X38704593Y-63205850D01*
X38819687Y-63119690D01*
X38819690Y-63119687D01*
X38905850Y-63004593D01*
X38905854Y-63004586D01*
X38956096Y-62869879D01*
X38956098Y-62869872D01*
X38962499Y-62810344D01*
X43062500Y-62810344D01*
X43068901Y-62869872D01*
X43068903Y-62869879D01*
X43119145Y-63004586D01*
X43119149Y-63004593D01*
X43205309Y-63119687D01*
X43205312Y-63119690D01*
X43320406Y-63205850D01*
X43320413Y-63205854D01*
X43455120Y-63256096D01*
X43455127Y-63256098D01*
X43514655Y-63262499D01*
X43514672Y-63262500D01*
X43562500Y-63262500D01*
X43962500Y-63262500D01*
X44010328Y-63262500D01*
X44010344Y-63262499D01*
X44069872Y-63256098D01*
X44069879Y-63256096D01*
X44204586Y-63205854D01*
X44204593Y-63205850D01*
X44319687Y-63119690D01*
X44319690Y-63119687D01*
X44405850Y-63004593D01*
X44405854Y-63004586D01*
X44456096Y-62869879D01*
X44456098Y-62869872D01*
X44462499Y-62810344D01*
X44462500Y-62810327D01*
X44462500Y-62562500D01*
X43962500Y-62562500D01*
X43962500Y-63262500D01*
X43562500Y-63262500D01*
X43562500Y-62562500D01*
X43062500Y-62562500D01*
X43062500Y-62810344D01*
X38962499Y-62810344D01*
X38962500Y-62810327D01*
X38962500Y-62562500D01*
X38462500Y-62562500D01*
X38462500Y-63262500D01*
X38062500Y-63262500D01*
X38062500Y-62562500D01*
X37562500Y-62562500D01*
X37562500Y-62810344D01*
X35963000Y-62810344D01*
X35963000Y-61914655D01*
X37562500Y-61914655D01*
X37562500Y-62162500D01*
X38062500Y-62162500D01*
X38462500Y-62162500D01*
X38962500Y-62162500D01*
X38962500Y-61914672D01*
X38962499Y-61914655D01*
X43062500Y-61914655D01*
X43062500Y-62162500D01*
X43562500Y-62162500D01*
X43962500Y-62162500D01*
X44462500Y-62162500D01*
X44462500Y-61914672D01*
X44462499Y-61914655D01*
X44456098Y-61855127D01*
X44456096Y-61855120D01*
X44405854Y-61720413D01*
X44405850Y-61720406D01*
X44319690Y-61605312D01*
X44319687Y-61605309D01*
X44204593Y-61519149D01*
X44204586Y-61519145D01*
X44069879Y-61468903D01*
X44069872Y-61468901D01*
X44010344Y-61462500D01*
X43962500Y-61462500D01*
X43962500Y-62162500D01*
X43562500Y-62162500D01*
X43562500Y-61462500D01*
X43514655Y-61462500D01*
X43455127Y-61468901D01*
X43455120Y-61468903D01*
X43320413Y-61519145D01*
X43320406Y-61519149D01*
X43205312Y-61605309D01*
X43205309Y-61605312D01*
X43119149Y-61720406D01*
X43119145Y-61720413D01*
X43068903Y-61855120D01*
X43068901Y-61855127D01*
X43062500Y-61914655D01*
X38962499Y-61914655D01*
X38956098Y-61855127D01*
X38956096Y-61855120D01*
X38905854Y-61720413D01*
X38905850Y-61720406D01*
X38819690Y-61605312D01*
X38819687Y-61605309D01*
X38704593Y-61519149D01*
X38704586Y-61519145D01*
X38569879Y-61468903D01*
X38569872Y-61468901D01*
X38510344Y-61462500D01*
X38462500Y-61462500D01*
X38462500Y-62162500D01*
X38062500Y-62162500D01*
X38062500Y-61462500D01*
X38014655Y-61462500D01*
X37955127Y-61468901D01*
X37955120Y-61468903D01*
X37820413Y-61519145D01*
X37820406Y-61519149D01*
X37705312Y-61605309D01*
X37705309Y-61605312D01*
X37619149Y-61720406D01*
X37619145Y-61720413D01*
X37568903Y-61855120D01*
X37568901Y-61855127D01*
X37562500Y-61914655D01*
X35963000Y-61914655D01*
X35963000Y-56049986D01*
X36662501Y-56049986D01*
X36672994Y-56152697D01*
X36728141Y-56319119D01*
X36728143Y-56319124D01*
X36820184Y-56468345D01*
X36944154Y-56592315D01*
X37093375Y-56684356D01*
X37093380Y-56684358D01*
X37259802Y-56739505D01*
X37259809Y-56739506D01*
X37362519Y-56749999D01*
X37512499Y-56749999D01*
X37512500Y-56749998D01*
X37512500Y-55800000D01*
X36662501Y-55800000D01*
X36662501Y-56049986D01*
X35963000Y-56049986D01*
X35963000Y-55050013D01*
X36662500Y-55050013D01*
X36662500Y-55300000D01*
X37512500Y-55300000D01*
X37512500Y-54350000D01*
X37362527Y-54350000D01*
X37362512Y-54350001D01*
X37259802Y-54360494D01*
X37093380Y-54415641D01*
X37093375Y-54415643D01*
X36944154Y-54507684D01*
X36820184Y-54631654D01*
X36728143Y-54780875D01*
X36728141Y-54780880D01*
X36672994Y-54947302D01*
X36672993Y-54947309D01*
X36662500Y-55050013D01*
X35963000Y-55050013D01*
X35963000Y-52549986D01*
X36662501Y-52549986D01*
X36672994Y-52652697D01*
X36728141Y-52819119D01*
X36728143Y-52819124D01*
X36820184Y-52968345D01*
X36944154Y-53092315D01*
X37093375Y-53184356D01*
X37093380Y-53184358D01*
X37259802Y-53239505D01*
X37259809Y-53239506D01*
X37362519Y-53249999D01*
X37512499Y-53249999D01*
X37512500Y-53249998D01*
X37512500Y-52300000D01*
X36662501Y-52300000D01*
X36662501Y-52549986D01*
X35963000Y-52549986D01*
X35963000Y-51550013D01*
X36662500Y-51550013D01*
X36662500Y-51800000D01*
X37512500Y-51800000D01*
X37512500Y-50850000D01*
X37362527Y-50850000D01*
X37362512Y-50850001D01*
X37259802Y-50860494D01*
X37093380Y-50915641D01*
X37093375Y-50915643D01*
X36944154Y-51007684D01*
X36820184Y-51131654D01*
X36728143Y-51280875D01*
X36728141Y-51280880D01*
X36672994Y-51447302D01*
X36672993Y-51447309D01*
X36662500Y-51550013D01*
X35963000Y-51550013D01*
X35963000Y-49049986D01*
X36662501Y-49049986D01*
X36672994Y-49152697D01*
X36728141Y-49319119D01*
X36728143Y-49319124D01*
X36820184Y-49468345D01*
X36944154Y-49592315D01*
X37093375Y-49684356D01*
X37093380Y-49684358D01*
X37259802Y-49739505D01*
X37259809Y-49739506D01*
X37362519Y-49749999D01*
X37512499Y-49749999D01*
X37512500Y-49749998D01*
X37512500Y-48800000D01*
X36662501Y-48800000D01*
X36662501Y-49049986D01*
X35963000Y-49049986D01*
X35963000Y-48050013D01*
X36662500Y-48050013D01*
X36662500Y-48300000D01*
X37512500Y-48300000D01*
X37512500Y-47350000D01*
X37362527Y-47350000D01*
X37362512Y-47350001D01*
X37259802Y-47360494D01*
X37093380Y-47415641D01*
X37093375Y-47415643D01*
X36944154Y-47507684D01*
X36820184Y-47631654D01*
X36728143Y-47780875D01*
X36728141Y-47780880D01*
X36672994Y-47947302D01*
X36672993Y-47947309D01*
X36662500Y-48050013D01*
X35963000Y-48050013D01*
X35963000Y-45549986D01*
X36662501Y-45549986D01*
X36672994Y-45652697D01*
X36728141Y-45819119D01*
X36728143Y-45819124D01*
X36820184Y-45968345D01*
X36944154Y-46092315D01*
X37093375Y-46184356D01*
X37093380Y-46184358D01*
X37259802Y-46239505D01*
X37259809Y-46239506D01*
X37362519Y-46249999D01*
X37512499Y-46249999D01*
X38012500Y-46249999D01*
X38162472Y-46249999D01*
X38162486Y-46249998D01*
X38265197Y-46239505D01*
X38431619Y-46184358D01*
X38431624Y-46184356D01*
X38580845Y-46092315D01*
X38704815Y-45968345D01*
X38796856Y-45819124D01*
X38796859Y-45819117D01*
X38811800Y-45774028D01*
X38851572Y-45716583D01*
X38916087Y-45689759D01*
X38984863Y-45702073D01*
X39029275Y-45739396D01*
X39090350Y-45822150D01*
X39199618Y-45902793D01*
X39221612Y-45910489D01*
X39327799Y-45947646D01*
X39358230Y-45950500D01*
X39358234Y-45950500D01*
X40166770Y-45950500D01*
X40197199Y-45947646D01*
X40197201Y-45947646D01*
X40261290Y-45925219D01*
X40325382Y-45902793D01*
X40434650Y-45822150D01*
X40438640Y-45816744D01*
X40494287Y-45774493D01*
X40563943Y-45769034D01*
X40605420Y-45791317D01*
X40607793Y-45787767D01*
X40684269Y-45838867D01*
X40684270Y-45838868D01*
X40742747Y-45850499D01*
X40742750Y-45850500D01*
X40742752Y-45850500D01*
X41782250Y-45850500D01*
X41782251Y-45850499D01*
X41805751Y-45845825D01*
X41837059Y-45839598D01*
X41906650Y-45845825D01*
X41948930Y-45873533D01*
X41978190Y-45902792D01*
X41985887Y-45910489D01*
X42088614Y-45969799D01*
X42203191Y-46000500D01*
X42203194Y-46000500D01*
X43321806Y-46000500D01*
X43321809Y-46000500D01*
X43436386Y-45969799D01*
X43539113Y-45910489D01*
X43576068Y-45873534D01*
X43637391Y-45840049D01*
X43687940Y-45839598D01*
X43742747Y-45850499D01*
X43742750Y-45850500D01*
X43742752Y-45850500D01*
X44782250Y-45850500D01*
X44782251Y-45850499D01*
X44805751Y-45845825D01*
X44840729Y-45838868D01*
X44840729Y-45838867D01*
X44840731Y-45838867D01*
X44907052Y-45794552D01*
X44951367Y-45728231D01*
X44951367Y-45728229D01*
X44951368Y-45728229D01*
X44962999Y-45669752D01*
X44963000Y-45669750D01*
X44963000Y-45477096D01*
X44982685Y-45410057D01*
X45035489Y-45364302D01*
X45104647Y-45354358D01*
X45168203Y-45383383D01*
X45174681Y-45389415D01*
X46633681Y-46848415D01*
X46667166Y-46909738D01*
X46670000Y-46936096D01*
X46670000Y-49230903D01*
X46650315Y-49297942D01*
X46597511Y-49343697D01*
X46528353Y-49353641D01*
X46464797Y-49324616D01*
X46458319Y-49318584D01*
X45447996Y-48308261D01*
X45379105Y-48268485D01*
X45302275Y-48247900D01*
X45302272Y-48247900D01*
X45087000Y-48247900D01*
X45019961Y-48228215D01*
X44974206Y-48175411D01*
X44963000Y-48123900D01*
X44963000Y-47930249D01*
X44962999Y-47930247D01*
X44951368Y-47871770D01*
X44951367Y-47871769D01*
X44907052Y-47805447D01*
X44840730Y-47761132D01*
X44840729Y-47761131D01*
X44782252Y-47749500D01*
X44782248Y-47749500D01*
X43742752Y-47749500D01*
X43742747Y-47749500D01*
X43687940Y-47760402D01*
X43618348Y-47754175D01*
X43576068Y-47726466D01*
X43539115Y-47689513D01*
X43539113Y-47689511D01*
X43436386Y-47630201D01*
X43321809Y-47599500D01*
X43302382Y-47599500D01*
X42302382Y-47599500D01*
X42262500Y-47599500D01*
X42203191Y-47599500D01*
X42088614Y-47630201D01*
X42088612Y-47630201D01*
X42088612Y-47630202D01*
X41985887Y-47689511D01*
X41985883Y-47689514D01*
X41948930Y-47726467D01*
X41887607Y-47759952D01*
X41837059Y-47760402D01*
X41782251Y-47749500D01*
X41782248Y-47749500D01*
X40742752Y-47749500D01*
X40742747Y-47749500D01*
X40684270Y-47761131D01*
X40684269Y-47761132D01*
X40607793Y-47812233D01*
X40605381Y-47808624D01*
X40564645Y-47830815D01*
X40494958Y-47825760D01*
X40439067Y-47783831D01*
X40438642Y-47783259D01*
X40434650Y-47777850D01*
X40325382Y-47697207D01*
X40325380Y-47697206D01*
X40197200Y-47652353D01*
X40166770Y-47649500D01*
X40166766Y-47649500D01*
X39358234Y-47649500D01*
X39358230Y-47649500D01*
X39327800Y-47652353D01*
X39327798Y-47652353D01*
X39199619Y-47697206D01*
X39199617Y-47697207D01*
X39090350Y-47777850D01*
X39029276Y-47860602D01*
X38973628Y-47902853D01*
X38903972Y-47908311D01*
X38842423Y-47875243D01*
X38811800Y-47825972D01*
X38796858Y-47780880D01*
X38796856Y-47780875D01*
X38704815Y-47631654D01*
X38580845Y-47507684D01*
X38431624Y-47415643D01*
X38431619Y-47415641D01*
X38265197Y-47360494D01*
X38265190Y-47360493D01*
X38162486Y-47350000D01*
X38012500Y-47350000D01*
X38012500Y-49749999D01*
X38162472Y-49749999D01*
X38162486Y-49749998D01*
X38265197Y-49739505D01*
X38431619Y-49684358D01*
X38431624Y-49684356D01*
X38580845Y-49592315D01*
X38704815Y-49468345D01*
X38796856Y-49319124D01*
X38796859Y-49319117D01*
X38811800Y-49274028D01*
X38851572Y-49216583D01*
X38916087Y-49189759D01*
X38984863Y-49202073D01*
X39029275Y-49239396D01*
X39090350Y-49322150D01*
X39199618Y-49402793D01*
X39221612Y-49410489D01*
X39327799Y-49447646D01*
X39358230Y-49450500D01*
X39358234Y-49450500D01*
X40166770Y-49450500D01*
X40197199Y-49447646D01*
X40197201Y-49447646D01*
X40261290Y-49425219D01*
X40325382Y-49402793D01*
X40434650Y-49322150D01*
X40438640Y-49316744D01*
X40494287Y-49274493D01*
X40563943Y-49269034D01*
X40605420Y-49291317D01*
X40607793Y-49287767D01*
X40684269Y-49338867D01*
X40684270Y-49338868D01*
X40742747Y-49350499D01*
X40742750Y-49350500D01*
X40742752Y-49350500D01*
X41782250Y-49350500D01*
X41782251Y-49350499D01*
X41805751Y-49345825D01*
X41837059Y-49339598D01*
X41906650Y-49345825D01*
X41948930Y-49373533D01*
X41978190Y-49402792D01*
X41985887Y-49410489D01*
X42088614Y-49469799D01*
X42203191Y-49500500D01*
X42203194Y-49500500D01*
X43321806Y-49500500D01*
X43321809Y-49500500D01*
X43436386Y-49469799D01*
X43539113Y-49410489D01*
X43576068Y-49373534D01*
X43637391Y-49340049D01*
X43687940Y-49339598D01*
X43742747Y-49350499D01*
X43742750Y-49350500D01*
X43742752Y-49350500D01*
X44782250Y-49350500D01*
X44782251Y-49350499D01*
X44805751Y-49345825D01*
X44840729Y-49338868D01*
X44840729Y-49338867D01*
X44840731Y-49338867D01*
X44907052Y-49294552D01*
X44951367Y-49228231D01*
X44951367Y-49228229D01*
X44951368Y-49228229D01*
X44962999Y-49169752D01*
X44963000Y-49169750D01*
X44963000Y-48977096D01*
X44982685Y-48910057D01*
X45035489Y-48864302D01*
X45104647Y-48854358D01*
X45168203Y-48883383D01*
X45174681Y-48889415D01*
X46230481Y-49945215D01*
X46263966Y-50006538D01*
X46266800Y-50032896D01*
X46266800Y-52327703D01*
X46247115Y-52394742D01*
X46194311Y-52440497D01*
X46125153Y-52450441D01*
X46061597Y-52421416D01*
X46055119Y-52415384D01*
X45447996Y-51808261D01*
X45379105Y-51768485D01*
X45302275Y-51747900D01*
X45302272Y-51747900D01*
X45087000Y-51747900D01*
X45019961Y-51728215D01*
X44974206Y-51675411D01*
X44963000Y-51623900D01*
X44963000Y-51430249D01*
X44962999Y-51430247D01*
X44951368Y-51371770D01*
X44951367Y-51371769D01*
X44907052Y-51305447D01*
X44840730Y-51261132D01*
X44840729Y-51261131D01*
X44782252Y-51249500D01*
X44782248Y-51249500D01*
X43742752Y-51249500D01*
X43742747Y-51249500D01*
X43687940Y-51260402D01*
X43618348Y-51254175D01*
X43576068Y-51226466D01*
X43539115Y-51189513D01*
X43539113Y-51189511D01*
X43436386Y-51130201D01*
X43321809Y-51099500D01*
X43302382Y-51099500D01*
X42302382Y-51099500D01*
X42262500Y-51099500D01*
X42203191Y-51099500D01*
X42088614Y-51130201D01*
X42088612Y-51130201D01*
X42088612Y-51130202D01*
X41985887Y-51189511D01*
X41985883Y-51189514D01*
X41948930Y-51226467D01*
X41887607Y-51259952D01*
X41837059Y-51260402D01*
X41782251Y-51249500D01*
X41782248Y-51249500D01*
X40742752Y-51249500D01*
X40742747Y-51249500D01*
X40684270Y-51261131D01*
X40684269Y-51261132D01*
X40607793Y-51312233D01*
X40605381Y-51308624D01*
X40564645Y-51330815D01*
X40494958Y-51325760D01*
X40439067Y-51283831D01*
X40438642Y-51283259D01*
X40434650Y-51277850D01*
X40325382Y-51197207D01*
X40325380Y-51197206D01*
X40197200Y-51152353D01*
X40166770Y-51149500D01*
X40166766Y-51149500D01*
X39358234Y-51149500D01*
X39358230Y-51149500D01*
X39327800Y-51152353D01*
X39327798Y-51152353D01*
X39199619Y-51197206D01*
X39199617Y-51197207D01*
X39090350Y-51277850D01*
X39029276Y-51360602D01*
X38973628Y-51402853D01*
X38903972Y-51408311D01*
X38842423Y-51375243D01*
X38811800Y-51325972D01*
X38796858Y-51280880D01*
X38796856Y-51280875D01*
X38704815Y-51131654D01*
X38580845Y-51007684D01*
X38431624Y-50915643D01*
X38431619Y-50915641D01*
X38265197Y-50860494D01*
X38265190Y-50860493D01*
X38162486Y-50850000D01*
X38012500Y-50850000D01*
X38012500Y-53249999D01*
X38162472Y-53249999D01*
X38162486Y-53249998D01*
X38265197Y-53239505D01*
X38431619Y-53184358D01*
X38431624Y-53184356D01*
X38580845Y-53092315D01*
X38704815Y-52968345D01*
X38796856Y-52819124D01*
X38796859Y-52819117D01*
X38811800Y-52774028D01*
X38851572Y-52716583D01*
X38916087Y-52689759D01*
X38984863Y-52702073D01*
X39029275Y-52739396D01*
X39090350Y-52822150D01*
X39199618Y-52902793D01*
X39221612Y-52910489D01*
X39327799Y-52947646D01*
X39358230Y-52950500D01*
X39358234Y-52950500D01*
X40166770Y-52950500D01*
X40197199Y-52947646D01*
X40197201Y-52947646D01*
X40261290Y-52925219D01*
X40325382Y-52902793D01*
X40434650Y-52822150D01*
X40438640Y-52816744D01*
X40494287Y-52774493D01*
X40563943Y-52769034D01*
X40605420Y-52791317D01*
X40607793Y-52787767D01*
X40684269Y-52838867D01*
X40684270Y-52838868D01*
X40742747Y-52850499D01*
X40742750Y-52850500D01*
X40742752Y-52850500D01*
X41782250Y-52850500D01*
X41782251Y-52850499D01*
X41805751Y-52845825D01*
X41837059Y-52839598D01*
X41906650Y-52845825D01*
X41948930Y-52873533D01*
X41978190Y-52902792D01*
X41985887Y-52910489D01*
X42088614Y-52969799D01*
X42203191Y-53000500D01*
X42203194Y-53000500D01*
X43321806Y-53000500D01*
X43321809Y-53000500D01*
X43436386Y-52969799D01*
X43539113Y-52910489D01*
X43576068Y-52873534D01*
X43637391Y-52840049D01*
X43687940Y-52839598D01*
X43742747Y-52850499D01*
X43742750Y-52850500D01*
X43742752Y-52850500D01*
X44782250Y-52850500D01*
X44782251Y-52850499D01*
X44805751Y-52845825D01*
X44840729Y-52838868D01*
X44840729Y-52838867D01*
X44840731Y-52838867D01*
X44907052Y-52794552D01*
X44951367Y-52728231D01*
X44951367Y-52728229D01*
X44951368Y-52728229D01*
X44962999Y-52669752D01*
X44963000Y-52669750D01*
X44963000Y-52477096D01*
X44982685Y-52410057D01*
X45035489Y-52364302D01*
X45104647Y-52354358D01*
X45168203Y-52383383D01*
X45174681Y-52389415D01*
X45827281Y-53042015D01*
X45860766Y-53103338D01*
X45863600Y-53129696D01*
X45863600Y-55424503D01*
X45843915Y-55491542D01*
X45791111Y-55537297D01*
X45721953Y-55547241D01*
X45658397Y-55518216D01*
X45651919Y-55512184D01*
X45447996Y-55308261D01*
X45379105Y-55268485D01*
X45302275Y-55247900D01*
X45302272Y-55247900D01*
X45087000Y-55247900D01*
X45019961Y-55228215D01*
X44974206Y-55175411D01*
X44963000Y-55123900D01*
X44963000Y-54930249D01*
X44962999Y-54930247D01*
X44951368Y-54871770D01*
X44951367Y-54871769D01*
X44907052Y-54805447D01*
X44840730Y-54761132D01*
X44840729Y-54761131D01*
X44782252Y-54749500D01*
X44782248Y-54749500D01*
X43742752Y-54749500D01*
X43742747Y-54749500D01*
X43687940Y-54760402D01*
X43618348Y-54754175D01*
X43576068Y-54726466D01*
X43539115Y-54689513D01*
X43539113Y-54689511D01*
X43436386Y-54630201D01*
X43321809Y-54599500D01*
X43302382Y-54599500D01*
X42302382Y-54599500D01*
X42262500Y-54599500D01*
X42203191Y-54599500D01*
X42088614Y-54630201D01*
X42088612Y-54630201D01*
X42088612Y-54630202D01*
X41985887Y-54689511D01*
X41985883Y-54689514D01*
X41948930Y-54726467D01*
X41887607Y-54759952D01*
X41837059Y-54760402D01*
X41782251Y-54749500D01*
X41782248Y-54749500D01*
X40742752Y-54749500D01*
X40742747Y-54749500D01*
X40684270Y-54761131D01*
X40684269Y-54761132D01*
X40607793Y-54812233D01*
X40605381Y-54808624D01*
X40564645Y-54830815D01*
X40494958Y-54825760D01*
X40439067Y-54783831D01*
X40438642Y-54783259D01*
X40434650Y-54777850D01*
X40325382Y-54697207D01*
X40325380Y-54697206D01*
X40197200Y-54652353D01*
X40166770Y-54649500D01*
X40166766Y-54649500D01*
X39358234Y-54649500D01*
X39358230Y-54649500D01*
X39327800Y-54652353D01*
X39327798Y-54652353D01*
X39199619Y-54697206D01*
X39199617Y-54697207D01*
X39090350Y-54777850D01*
X39029276Y-54860602D01*
X38973628Y-54902853D01*
X38903972Y-54908311D01*
X38842423Y-54875243D01*
X38811800Y-54825972D01*
X38796858Y-54780880D01*
X38796856Y-54780875D01*
X38704815Y-54631654D01*
X38580845Y-54507684D01*
X38431624Y-54415643D01*
X38431619Y-54415641D01*
X38265197Y-54360494D01*
X38265190Y-54360493D01*
X38162486Y-54350000D01*
X38012500Y-54350000D01*
X38012500Y-56749999D01*
X38162472Y-56749999D01*
X38162486Y-56749998D01*
X38265197Y-56739505D01*
X38431619Y-56684358D01*
X38431624Y-56684356D01*
X38580845Y-56592315D01*
X38704815Y-56468345D01*
X38796856Y-56319124D01*
X38796859Y-56319117D01*
X38811800Y-56274028D01*
X38851572Y-56216583D01*
X38916087Y-56189759D01*
X38984863Y-56202073D01*
X39029275Y-56239396D01*
X39090350Y-56322150D01*
X39199618Y-56402793D01*
X39221612Y-56410489D01*
X39327799Y-56447646D01*
X39358230Y-56450500D01*
X39358234Y-56450500D01*
X40166770Y-56450500D01*
X40197199Y-56447646D01*
X40197201Y-56447646D01*
X40261290Y-56425219D01*
X40325382Y-56402793D01*
X40434650Y-56322150D01*
X40438640Y-56316744D01*
X40494287Y-56274493D01*
X40563943Y-56269034D01*
X40605420Y-56291317D01*
X40607793Y-56287767D01*
X40684269Y-56338867D01*
X40684270Y-56338868D01*
X40742747Y-56350499D01*
X40742750Y-56350500D01*
X40742752Y-56350500D01*
X41782250Y-56350500D01*
X41782251Y-56350499D01*
X41805751Y-56345825D01*
X41837059Y-56339598D01*
X41906650Y-56345825D01*
X41948930Y-56373533D01*
X41978190Y-56402792D01*
X41985887Y-56410489D01*
X42088614Y-56469799D01*
X42203191Y-56500500D01*
X42203194Y-56500500D01*
X43321806Y-56500500D01*
X43321809Y-56500500D01*
X43436386Y-56469799D01*
X43539113Y-56410489D01*
X43576068Y-56373534D01*
X43637391Y-56340049D01*
X43687940Y-56339598D01*
X43742747Y-56350499D01*
X43742750Y-56350500D01*
X43742752Y-56350500D01*
X44782250Y-56350500D01*
X44782251Y-56350499D01*
X44805751Y-56345825D01*
X44840729Y-56338868D01*
X44840729Y-56338867D01*
X44840731Y-56338867D01*
X44907052Y-56294552D01*
X44951367Y-56228231D01*
X44951367Y-56228229D01*
X44951368Y-56228229D01*
X44962999Y-56169752D01*
X44963000Y-56169750D01*
X44963000Y-55977096D01*
X44982685Y-55910057D01*
X45035489Y-55864302D01*
X45104647Y-55854358D01*
X45168203Y-55883383D01*
X45174681Y-55889415D01*
X45424081Y-56138815D01*
X45457566Y-56200138D01*
X45460400Y-56226496D01*
X45460400Y-56623504D01*
X45440715Y-56690543D01*
X45424081Y-56711185D01*
X45186385Y-56948881D01*
X45125062Y-56982366D01*
X45098704Y-56985200D01*
X39971050Y-56985200D01*
X39907915Y-57002116D01*
X39907916Y-57002117D01*
X39890993Y-57006652D01*
X39890984Y-57006656D01*
X39819206Y-57048098D01*
X39010599Y-57856705D01*
X39010594Y-57856711D01*
X38969154Y-57928488D01*
X38969154Y-57928489D01*
X38969153Y-57928492D01*
X38947700Y-58008556D01*
X38947700Y-59310635D01*
X38928015Y-59377674D01*
X38926804Y-59379523D01*
X38923633Y-59384268D01*
X38923631Y-59384271D01*
X38912000Y-59442747D01*
X38912000Y-60282252D01*
X38923631Y-60340729D01*
X38923632Y-60340730D01*
X38967947Y-60407052D01*
X39034269Y-60451367D01*
X39034270Y-60451368D01*
X39098726Y-60464189D01*
X39098185Y-60466904D01*
X39151916Y-60488527D01*
X39174356Y-60511548D01*
X39255312Y-60619690D01*
X39370406Y-60705850D01*
X39370413Y-60705854D01*
X39505120Y-60756096D01*
X39505127Y-60756098D01*
X39564655Y-60762499D01*
X39564672Y-60762500D01*
X39612500Y-60762500D01*
X39612500Y-60293415D01*
X39613000Y-60283247D01*
X39613000Y-59441762D01*
X39612500Y-59431584D01*
X39612500Y-58961569D01*
X39580134Y-58902296D01*
X39577300Y-58875938D01*
X39577300Y-58231756D01*
X39596985Y-58164717D01*
X39613619Y-58144075D01*
X40106575Y-57651119D01*
X40167898Y-57617634D01*
X40194256Y-57614800D01*
X40471104Y-57614800D01*
X40538143Y-57634485D01*
X40583898Y-57687289D01*
X40593842Y-57756447D01*
X40564817Y-57820003D01*
X40558785Y-57826481D01*
X40020762Y-58364502D01*
X39980986Y-58433395D01*
X39960400Y-58510226D01*
X39960400Y-58863238D01*
X39940715Y-58930277D01*
X39924081Y-58950919D01*
X39912500Y-58962500D01*
X39912500Y-59431584D01*
X39912000Y-59441762D01*
X39912000Y-60283247D01*
X39912500Y-60293415D01*
X39912500Y-60762500D01*
X39960328Y-60762500D01*
X39960344Y-60762499D01*
X40019872Y-60756098D01*
X40019876Y-60756097D01*
X40154590Y-60705851D01*
X40188188Y-60680700D01*
X40253652Y-60656282D01*
X40321925Y-60671133D01*
X40336812Y-60680700D01*
X40370409Y-60705851D01*
X40505123Y-60756097D01*
X40505127Y-60756098D01*
X40564655Y-60762499D01*
X40564672Y-60762500D01*
X40612500Y-60762500D01*
X40612500Y-60293415D01*
X40613000Y-60283247D01*
X40613000Y-59441762D01*
X40612500Y-59431584D01*
X40612500Y-58962500D01*
X40600919Y-58950919D01*
X40567434Y-58889596D01*
X40564600Y-58863238D01*
X40564600Y-58726496D01*
X40584285Y-58659457D01*
X40600919Y-58638815D01*
X41185415Y-58054319D01*
X41246738Y-58020834D01*
X41273096Y-58018000D01*
X41387004Y-58018000D01*
X41454043Y-58037685D01*
X41499798Y-58090489D01*
X41509742Y-58159647D01*
X41480717Y-58223203D01*
X41474685Y-58229681D01*
X41020762Y-58683602D01*
X40980986Y-58752495D01*
X40977893Y-58764040D01*
X40961721Y-58824399D01*
X40961719Y-58824405D01*
X40960400Y-58829327D01*
X40960400Y-58863238D01*
X40940715Y-58930277D01*
X40924081Y-58950919D01*
X40912500Y-58962500D01*
X40912500Y-59431584D01*
X40912000Y-59441762D01*
X40912000Y-60283247D01*
X40912500Y-60293415D01*
X40912500Y-60762500D01*
X40960328Y-60762500D01*
X40960344Y-60762499D01*
X41019872Y-60756098D01*
X41019876Y-60756097D01*
X41154590Y-60705851D01*
X41188188Y-60680700D01*
X41253652Y-60656282D01*
X41321925Y-60671133D01*
X41336812Y-60680700D01*
X41370409Y-60705851D01*
X41505123Y-60756097D01*
X41505127Y-60756098D01*
X41564655Y-60762499D01*
X41564672Y-60762500D01*
X41612500Y-60762500D01*
X41612500Y-60293415D01*
X41613000Y-60283247D01*
X41613000Y-59836500D01*
X41632685Y-59769461D01*
X41685489Y-59723706D01*
X41737000Y-59712500D01*
X41788000Y-59712500D01*
X41855039Y-59732185D01*
X41900794Y-59784989D01*
X41912000Y-59836500D01*
X41912000Y-60283247D01*
X41912500Y-60293415D01*
X41912500Y-60762500D01*
X41960328Y-60762500D01*
X41960344Y-60762499D01*
X42019872Y-60756098D01*
X42019876Y-60756097D01*
X42154590Y-60705851D01*
X42188188Y-60680700D01*
X42253652Y-60656282D01*
X42321925Y-60671133D01*
X42336812Y-60680700D01*
X42370409Y-60705851D01*
X42505123Y-60756097D01*
X42505127Y-60756098D01*
X42564655Y-60762499D01*
X42564672Y-60762500D01*
X42612500Y-60762500D01*
X42912500Y-60762500D01*
X42960328Y-60762500D01*
X42960344Y-60762499D01*
X43019872Y-60756098D01*
X43019879Y-60756096D01*
X43154586Y-60705854D01*
X43154593Y-60705850D01*
X43269687Y-60619690D01*
X43269690Y-60619687D01*
X43355850Y-60504593D01*
X43355854Y-60504586D01*
X43406096Y-60369879D01*
X43406098Y-60369872D01*
X43412499Y-60310344D01*
X43412500Y-60310327D01*
X43412500Y-60012500D01*
X42912500Y-60012500D01*
X42912500Y-60762500D01*
X42612500Y-60762500D01*
X42612500Y-60293415D01*
X42613000Y-60283247D01*
X42613000Y-59836500D01*
X42632685Y-59769461D01*
X42685489Y-59723706D01*
X42737000Y-59712500D01*
X43412500Y-59712500D01*
X43412500Y-59414672D01*
X43412499Y-59414655D01*
X43406098Y-59355127D01*
X43406096Y-59355120D01*
X43355854Y-59220413D01*
X43355850Y-59220406D01*
X43269690Y-59105313D01*
X43192686Y-59047667D01*
X43150815Y-58991733D01*
X43145831Y-58922041D01*
X43179316Y-58860718D01*
X43240640Y-58827234D01*
X43266997Y-58824400D01*
X45829969Y-58824400D01*
X45829972Y-58824400D01*
X45852802Y-58818282D01*
X45906805Y-58803814D01*
X45906807Y-58803813D01*
X45975694Y-58764040D01*
X47213840Y-57525894D01*
X47253613Y-57457007D01*
X47274200Y-57380172D01*
X47274200Y-57300628D01*
X47274200Y-46719828D01*
X47253613Y-46642994D01*
X47253613Y-46642993D01*
X47213840Y-46574106D01*
X47213838Y-46574104D01*
X47213837Y-46574102D01*
X45447996Y-44808261D01*
X45379105Y-44768485D01*
X45302275Y-44747900D01*
X45302272Y-44747900D01*
X45087000Y-44747900D01*
X45019961Y-44728215D01*
X44974206Y-44675411D01*
X44963000Y-44623900D01*
X44963000Y-44430249D01*
X44962999Y-44430247D01*
X44951368Y-44371770D01*
X44951367Y-44371769D01*
X44907052Y-44305447D01*
X44840730Y-44261132D01*
X44840729Y-44261131D01*
X44782252Y-44249500D01*
X44782248Y-44249500D01*
X43742752Y-44249500D01*
X43742747Y-44249500D01*
X43687940Y-44260402D01*
X43618348Y-44254175D01*
X43576068Y-44226466D01*
X43539115Y-44189513D01*
X43539113Y-44189511D01*
X43436386Y-44130201D01*
X43321809Y-44099500D01*
X43302382Y-44099500D01*
X42302382Y-44099500D01*
X42262500Y-44099500D01*
X42203191Y-44099500D01*
X42088614Y-44130201D01*
X42088612Y-44130201D01*
X42088612Y-44130202D01*
X41985887Y-44189511D01*
X41985883Y-44189514D01*
X41948930Y-44226467D01*
X41887607Y-44259952D01*
X41837059Y-44260402D01*
X41782251Y-44249500D01*
X41782248Y-44249500D01*
X40742752Y-44249500D01*
X40742747Y-44249500D01*
X40684270Y-44261131D01*
X40684269Y-44261132D01*
X40607793Y-44312233D01*
X40605381Y-44308624D01*
X40564645Y-44330815D01*
X40494958Y-44325760D01*
X40439067Y-44283831D01*
X40438642Y-44283259D01*
X40434650Y-44277850D01*
X40325382Y-44197207D01*
X40325380Y-44197206D01*
X40197200Y-44152353D01*
X40166770Y-44149500D01*
X40166766Y-44149500D01*
X39358234Y-44149500D01*
X39358230Y-44149500D01*
X39327800Y-44152353D01*
X39327798Y-44152353D01*
X39199619Y-44197206D01*
X39199617Y-44197207D01*
X39090350Y-44277850D01*
X39029276Y-44360602D01*
X38973628Y-44402853D01*
X38903972Y-44408311D01*
X38842423Y-44375243D01*
X38811800Y-44325972D01*
X38796858Y-44280880D01*
X38796856Y-44280875D01*
X38704815Y-44131654D01*
X38580845Y-44007684D01*
X38431624Y-43915643D01*
X38431619Y-43915641D01*
X38265197Y-43860494D01*
X38265190Y-43860493D01*
X38162486Y-43850000D01*
X38012500Y-43850000D01*
X38012500Y-46249999D01*
X37512499Y-46249999D01*
X37512500Y-46249998D01*
X37512500Y-45300000D01*
X36662501Y-45300000D01*
X36662501Y-45549986D01*
X35963000Y-45549986D01*
X35963000Y-44550013D01*
X36662500Y-44550013D01*
X36662500Y-44800000D01*
X37512500Y-44800000D01*
X37512500Y-43850000D01*
X37362527Y-43850000D01*
X37362512Y-43850001D01*
X37259802Y-43860494D01*
X37093380Y-43915641D01*
X37093375Y-43915643D01*
X36944154Y-44007684D01*
X36820184Y-44131654D01*
X36728143Y-44280875D01*
X36728141Y-44280880D01*
X36672994Y-44447302D01*
X36672993Y-44447309D01*
X36662500Y-44550013D01*
X35963000Y-44550013D01*
X35963000Y-36821227D01*
X36962000Y-36821227D01*
X36962000Y-37078772D01*
X36998651Y-37333696D01*
X36998654Y-37333706D01*
X37071214Y-37580822D01*
X37178196Y-37815080D01*
X37178209Y-37815103D01*
X37317439Y-38031749D01*
X37317443Y-38031755D01*
X37486101Y-38226398D01*
X37680744Y-38395056D01*
X37680750Y-38395060D01*
X37897396Y-38534290D01*
X37897419Y-38534303D01*
X38131677Y-38641285D01*
X38131681Y-38641286D01*
X38131683Y-38641287D01*
X38378799Y-38713847D01*
X38378800Y-38713847D01*
X38378803Y-38713848D01*
X38447851Y-38723775D01*
X38633726Y-38750500D01*
X38633729Y-38750500D01*
X43391271Y-38750500D01*
X43391274Y-38750500D01*
X43600513Y-38720415D01*
X43646196Y-38713848D01*
X43646197Y-38713847D01*
X43646201Y-38713847D01*
X43893317Y-38641287D01*
X43893320Y-38641285D01*
X43893322Y-38641285D01*
X44127580Y-38534303D01*
X44127584Y-38534300D01*
X44127592Y-38534297D01*
X44344256Y-38395056D01*
X44538898Y-38226398D01*
X44707556Y-38031756D01*
X44846797Y-37815092D01*
X44846800Y-37815084D01*
X44846803Y-37815080D01*
X44953785Y-37580822D01*
X44953785Y-37580820D01*
X44953787Y-37580817D01*
X45026347Y-37333701D01*
X45063000Y-37078774D01*
X45063000Y-36821226D01*
X45026347Y-36566299D01*
X44953787Y-36319183D01*
X44953786Y-36319181D01*
X44953785Y-36319177D01*
X44846803Y-36084919D01*
X44846790Y-36084896D01*
X44707560Y-35868250D01*
X44707556Y-35868244D01*
X44538898Y-35673601D01*
X44344255Y-35504943D01*
X44344249Y-35504939D01*
X44127603Y-35365709D01*
X44127580Y-35365696D01*
X43893322Y-35258714D01*
X43646206Y-35186154D01*
X43646196Y-35186151D01*
X43438002Y-35156218D01*
X43391274Y-35149500D01*
X43302382Y-35149500D01*
X38802382Y-35149500D01*
X38762500Y-35149500D01*
X38633726Y-35149500D01*
X38610361Y-35152859D01*
X38378803Y-35186151D01*
X38378793Y-35186154D01*
X38131677Y-35258714D01*
X37897419Y-35365696D01*
X37897396Y-35365709D01*
X37680750Y-35504939D01*
X37680744Y-35504943D01*
X37486101Y-35673601D01*
X37317443Y-35868244D01*
X37317439Y-35868250D01*
X37178209Y-36084896D01*
X37178196Y-36084919D01*
X37071214Y-36319177D01*
X36998654Y-36566293D01*
X36998651Y-36566303D01*
X36962000Y-36821227D01*
X35963000Y-36821227D01*
X35963000Y-34374500D01*
X35982685Y-34307461D01*
X36035489Y-34261706D01*
X36087000Y-34250500D01*
X47638500Y-34250500D01*
X47705539Y-34270185D01*
G37*
%TD.AperFunction*%
%TD*%
M02*
