%TF.GenerationSoftware,KiCad,Pcbnew,8.0.5*%
%TF.CreationDate,2024-11-27T23:03:38-05:00*%
%TF.ProjectId,HacKeys,4861634b-6579-4732-9e6b-696361645f70,rev?*%
%TF.SameCoordinates,Original*%
%TF.FileFunction,Soldermask,Bot*%
%TF.FilePolarity,Negative*%
%FSLAX46Y46*%
G04 Gerber Fmt 4.6, Leading zero omitted, Abs format (unit mm)*
G04 Created by KiCad (PCBNEW 8.0.5) date 2024-11-27 23:03:38*
%MOMM*%
%LPD*%
G01*
G04 APERTURE LIST*
G04 Aperture macros list*
%AMRoundRect*
0 Rectangle with rounded corners*
0 $1 Rounding radius*
0 $2 $3 $4 $5 $6 $7 $8 $9 X,Y pos of 4 corners*
0 Add a 4 corners polygon primitive as box body*
4,1,4,$2,$3,$4,$5,$6,$7,$8,$9,$2,$3,0*
0 Add four circle primitives for the rounded corners*
1,1,$1+$1,$2,$3*
1,1,$1+$1,$4,$5*
1,1,$1+$1,$6,$7*
1,1,$1+$1,$8,$9*
0 Add four rect primitives between the rounded corners*
20,1,$1+$1,$2,$3,$4,$5,0*
20,1,$1+$1,$4,$5,$6,$7,0*
20,1,$1+$1,$6,$7,$8,$9,0*
20,1,$1+$1,$8,$9,$2,$3,0*%
G04 Aperture macros list end*
%ADD10C,0.100000*%
%ADD11RoundRect,0.102000X0.200000X0.400000X-0.200000X0.400000X-0.200000X-0.400000X0.200000X-0.400000X0*%
%ADD12RoundRect,0.102000X0.150000X0.400000X-0.150000X0.400000X-0.150000X-0.400000X0.150000X-0.400000X0*%
%ADD13RoundRect,0.250000X-0.350000X-0.450000X0.350000X-0.450000X0.350000X0.450000X-0.350000X0.450000X0*%
%ADD14RoundRect,0.102000X-0.500000X-0.600000X0.500000X-0.600000X0.500000X0.600000X-0.500000X0.600000X0*%
%ADD15C,1.700000*%
%ADD16R,0.700000X3.200000*%
%ADD17R,0.700000X4.300000*%
%ADD18C,4.600000*%
%ADD19C,1.800000*%
%ADD20R,1.700000X1.700000*%
%ADD21O,1.700000X1.700000*%
%ADD22C,5.600000*%
%ADD23RoundRect,0.102000X1.390650X1.390650X-1.390650X1.390650X-1.390650X-1.390650X1.390650X-1.390650X0*%
%ADD24C,2.985300*%
%ADD25C,1.803400*%
%ADD26RoundRect,0.250000X-0.450000X0.350000X-0.450000X-0.350000X0.450000X-0.350000X0.450000X0.350000X0*%
%ADD27RoundRect,0.250000X0.450000X-0.350000X0.450000X0.350000X-0.450000X0.350000X-0.450000X-0.350000X0*%
%ADD28C,0.460000*%
G04 APERTURE END LIST*
D10*
%TO.C,D8*%
X43262500Y-54550000D02*
X43262500Y-54550000D01*
G75*
G02*
X43762500Y-55050000I0J-500000D01*
G01*
X43762500Y-56050000D01*
G75*
G02*
X43262500Y-56550000I-500000J0D01*
G01*
X42262500Y-56550000D01*
G75*
G02*
X41762500Y-56050000I0J500000D01*
G01*
X41762500Y-55050000D01*
G75*
G02*
X42262500Y-54550000I500000J0D01*
G01*
X43262500Y-54550000D01*
G36*
X43262500Y-54550000D02*
G01*
X43262500Y-54550000D01*
G75*
G02*
X43762500Y-55050000I0J-500000D01*
G01*
X43762500Y-56050000D01*
G75*
G02*
X43262500Y-56550000I-500000J0D01*
G01*
X42262500Y-56550000D01*
G75*
G02*
X41762500Y-56050000I0J500000D01*
G01*
X41762500Y-55050000D01*
G75*
G02*
X42262500Y-54550000I500000J0D01*
G01*
X43262500Y-54550000D01*
G37*
%TO.C,D7*%
X43262500Y-51050000D02*
X43262500Y-51050000D01*
G75*
G02*
X43762500Y-51550000I0J-500000D01*
G01*
X43762500Y-52550000D01*
G75*
G02*
X43262500Y-53050000I-500000J0D01*
G01*
X42262500Y-53050000D01*
G75*
G02*
X41762500Y-52550000I0J500000D01*
G01*
X41762500Y-51550000D01*
G75*
G02*
X42262500Y-51050000I500000J0D01*
G01*
X43262500Y-51050000D01*
G36*
X43262500Y-51050000D02*
G01*
X43262500Y-51050000D01*
G75*
G02*
X43762500Y-51550000I0J-500000D01*
G01*
X43762500Y-52550000D01*
G75*
G02*
X43262500Y-53050000I-500000J0D01*
G01*
X42262500Y-53050000D01*
G75*
G02*
X41762500Y-52550000I0J500000D01*
G01*
X41762500Y-51550000D01*
G75*
G02*
X42262500Y-51050000I500000J0D01*
G01*
X43262500Y-51050000D01*
G37*
%TO.C,D6*%
X43262500Y-47550000D02*
X43262500Y-47550000D01*
G75*
G02*
X43762500Y-48050000I0J-500000D01*
G01*
X43762500Y-49050000D01*
G75*
G02*
X43262500Y-49550000I-500000J0D01*
G01*
X42262500Y-49550000D01*
G75*
G02*
X41762500Y-49050000I0J500000D01*
G01*
X41762500Y-48050000D01*
G75*
G02*
X42262500Y-47550000I500000J0D01*
G01*
X43262500Y-47550000D01*
G36*
X43262500Y-47550000D02*
G01*
X43262500Y-47550000D01*
G75*
G02*
X43762500Y-48050000I0J-500000D01*
G01*
X43762500Y-49050000D01*
G75*
G02*
X43262500Y-49550000I-500000J0D01*
G01*
X42262500Y-49550000D01*
G75*
G02*
X41762500Y-49050000I0J500000D01*
G01*
X41762500Y-48050000D01*
G75*
G02*
X42262500Y-47550000I500000J0D01*
G01*
X43262500Y-47550000D01*
G37*
%TO.C,D5*%
X43262500Y-44050000D02*
X43262500Y-44050000D01*
G75*
G02*
X43762500Y-44550000I0J-500000D01*
G01*
X43762500Y-45550000D01*
G75*
G02*
X43262500Y-46050000I-500000J0D01*
G01*
X42262500Y-46050000D01*
G75*
G02*
X41762500Y-45550000I0J500000D01*
G01*
X41762500Y-44550000D01*
G75*
G02*
X42262500Y-44050000I500000J0D01*
G01*
X43262500Y-44050000D01*
G36*
X43262500Y-44050000D02*
G01*
X43262500Y-44050000D01*
G75*
G02*
X43762500Y-44550000I0J-500000D01*
G01*
X43762500Y-45550000D01*
G75*
G02*
X43262500Y-46050000I-500000J0D01*
G01*
X42262500Y-46050000D01*
G75*
G02*
X41762500Y-45550000I0J500000D01*
G01*
X41762500Y-44550000D01*
G75*
G02*
X42262500Y-44050000I500000J0D01*
G01*
X43262500Y-44050000D01*
G37*
%TD*%
D11*
%TO.C,J12*%
X38262500Y-62362500D03*
X43762500Y-62362500D03*
D12*
X39262500Y-59862500D03*
X39762500Y-59862500D03*
X40262500Y-59862500D03*
X40762500Y-59862500D03*
X41262500Y-59862500D03*
X41762500Y-59862500D03*
X42262500Y-59862500D03*
X42762500Y-59862500D03*
%TD*%
D13*
%TO.C,R8*%
X37762500Y-55550000D03*
X39762500Y-55550000D03*
%TD*%
%TO.C,R7*%
X37762500Y-52050000D03*
X39762500Y-52050000D03*
%TD*%
%TO.C,R6*%
X37762500Y-48550000D03*
X39762500Y-48550000D03*
%TD*%
%TO.C,R5*%
X39762500Y-45050000D03*
X37762500Y-45050000D03*
%TD*%
D14*
%TO.C,D8*%
X44262500Y-55550000D03*
X41262500Y-55550000D03*
%TD*%
%TO.C,D7*%
X44262500Y-52050000D03*
X41262500Y-52050000D03*
%TD*%
%TO.C,D6*%
X44262500Y-48550000D03*
X41262500Y-48550000D03*
%TD*%
%TO.C,D5*%
X44262500Y-45050000D03*
X41262500Y-45050000D03*
%TD*%
D15*
%TO.C,J10*%
X213262500Y-49550000D03*
X213262500Y-56550001D03*
%TD*%
D16*
%TO.C,J3*%
X191112500Y-141750000D03*
D17*
X192112500Y-142300000D03*
X193112500Y-142300000D03*
X194112500Y-142300000D03*
X195112500Y-142300000D03*
X196112500Y-142300000D03*
X197112500Y-142300000D03*
X198112500Y-142300000D03*
X199112500Y-142300000D03*
X200112500Y-142300000D03*
X201112500Y-142300000D03*
X204112500Y-142300000D03*
X205112500Y-142300000D03*
X206112500Y-142300000D03*
X207112500Y-142300000D03*
X208112500Y-142300000D03*
X209112500Y-142300000D03*
X210112500Y-142300000D03*
X211112500Y-142300000D03*
X212112500Y-142300000D03*
X213112500Y-142300000D03*
X214112500Y-142300000D03*
X215112500Y-142300000D03*
X216112500Y-142300000D03*
X217112500Y-142300000D03*
X218112500Y-142300000D03*
X219112500Y-142300000D03*
X220112500Y-142300000D03*
X221112500Y-142300000D03*
X222112500Y-142300000D03*
X223112500Y-142300000D03*
X224112500Y-142300000D03*
%TD*%
D18*
%TO.C,RV2*%
X148737500Y-54100000D03*
X158737500Y-54100000D03*
D19*
X156237500Y-50800000D03*
X153737500Y-50800000D03*
X151237500Y-50800000D03*
%TD*%
D15*
%TO.C,J9*%
X200762500Y-49550000D03*
X200762500Y-56550001D03*
%TD*%
D20*
%TO.C,J4*%
X221762500Y-110850000D03*
D21*
X221762500Y-113390000D03*
X221762500Y-115930000D03*
X221762500Y-118470000D03*
%TD*%
D22*
%TO.C,H6*%
X219762500Y-70850000D03*
%TD*%
%TO.C,H1*%
X129762500Y-90850000D03*
%TD*%
%TO.C,H5*%
X129762500Y-70850000D03*
%TD*%
D18*
%TO.C,RV3*%
X165737500Y-54100000D03*
X175737500Y-54100000D03*
D19*
X173237500Y-50800000D03*
X170737500Y-50800000D03*
X168237500Y-50800000D03*
%TD*%
D22*
%TO.C,H3*%
X129762500Y-140850000D03*
%TD*%
D23*
%TO.C,SW1*%
X191224000Y-65360000D03*
D24*
X186525000Y-65360000D03*
X181826000Y-65360000D03*
X191224000Y-61550000D03*
X186525000Y-61550000D03*
X181826000Y-61550000D03*
X189065000Y-48850000D03*
X183985000Y-48850000D03*
%TD*%
D22*
%TO.C,H4*%
X179762500Y-140850000D03*
%TD*%
%TO.C,H2*%
X179762500Y-90850000D03*
%TD*%
D20*
%TO.C,J8*%
X219182500Y-96770000D03*
D21*
X221722500Y-96770000D03*
X219182500Y-99310000D03*
X221722500Y-99310000D03*
X219182500Y-101850000D03*
X221722500Y-101850000D03*
X219182500Y-104390000D03*
X221722500Y-104390000D03*
%TD*%
D18*
%TO.C,RV1*%
X131262500Y-54150000D03*
X141262500Y-54150000D03*
D19*
X138762500Y-50850000D03*
X136262500Y-50850000D03*
X133762500Y-50850000D03*
%TD*%
D25*
%TO.C,J2*%
X203362500Y-130510000D03*
X203362500Y-133050000D03*
X200822500Y-130510000D03*
X200822500Y-133050000D03*
X198282500Y-130510000D03*
X198282500Y-133050000D03*
X195742500Y-130510000D03*
X195742500Y-133050000D03*
X193202500Y-130510000D03*
X193202500Y-133050000D03*
X190662500Y-130510000D03*
X190662500Y-133050000D03*
X188122500Y-130510000D03*
X188122500Y-133050000D03*
X185582500Y-130510000D03*
X185582500Y-133050000D03*
%TD*%
D26*
%TO.C,R4*%
X200262500Y-123850000D03*
X200262500Y-125850000D03*
%TD*%
D27*
%TO.C,R1*%
X189262500Y-125850000D03*
X189262500Y-123850000D03*
%TD*%
%TO.C,R3*%
X196762500Y-125850000D03*
X196762500Y-123850000D03*
%TD*%
%TO.C,R2*%
X192762500Y-125850000D03*
X192762500Y-123850000D03*
%TD*%
D28*
X220762000Y-132000000D03*
X219762000Y-131000000D03*
X221762000Y-133000000D03*
X218762000Y-130000000D03*
X215738000Y-137490000D03*
X197149000Y-139634000D03*
X201423000Y-125879000D03*
X188111000Y-124316000D03*
X196248000Y-126906000D03*
X194724000Y-135702000D03*
X221262000Y-132500000D03*
X219262000Y-130500000D03*
X218262000Y-129500000D03*
X220262000Y-131500000D03*
X191278300Y-123631500D03*
X191630000Y-124316000D03*
X135912100Y-102286001D03*
X137293100Y-102630001D03*
X137293100Y-103631001D03*
X137293100Y-104630000D03*
X135793101Y-101637001D03*
X136402100Y-102728999D03*
M02*
