%TF.GenerationSoftware,KiCad,Pcbnew,8.0.5*%
%TF.CreationDate,2024-11-27T23:03:38-05:00*%
%TF.ProjectId,HacKeys,4861634b-6579-4732-9e6b-696361645f70,rev?*%
%TF.SameCoordinates,Original*%
%TF.FileFunction,Legend,Bot*%
%TF.FilePolarity,Positive*%
%FSLAX46Y46*%
G04 Gerber Fmt 4.6, Leading zero omitted, Abs format (unit mm)*
G04 Created by KiCad (PCBNEW 8.0.5) date 2024-11-27 23:03:38*
%MOMM*%
%LPD*%
G01*
G04 APERTURE LIST*
G04 Aperture macros list*
%AMRoundRect*
0 Rectangle with rounded corners*
0 $1 Rounding radius*
0 $2 $3 $4 $5 $6 $7 $8 $9 X,Y pos of 4 corners*
0 Add a 4 corners polygon primitive as box body*
4,1,4,$2,$3,$4,$5,$6,$7,$8,$9,$2,$3,0*
0 Add four circle primitives for the rounded corners*
1,1,$1+$1,$2,$3*
1,1,$1+$1,$4,$5*
1,1,$1+$1,$6,$7*
1,1,$1+$1,$8,$9*
0 Add four rect primitives between the rounded corners*
20,1,$1+$1,$2,$3,$4,$5,0*
20,1,$1+$1,$4,$5,$6,$7,0*
20,1,$1+$1,$6,$7,$8,$9,0*
20,1,$1+$1,$8,$9,$2,$3,0*%
G04 Aperture macros list end*
%ADD10C,0.100000*%
%ADD11C,0.250000*%
%ADD12C,0.300000*%
%ADD13RoundRect,0.102000X0.200000X0.400000X-0.200000X0.400000X-0.200000X-0.400000X0.200000X-0.400000X0*%
%ADD14RoundRect,0.102000X0.150000X0.400000X-0.150000X0.400000X-0.150000X-0.400000X0.150000X-0.400000X0*%
%ADD15RoundRect,0.250000X-0.350000X-0.450000X0.350000X-0.450000X0.350000X0.450000X-0.350000X0.450000X0*%
%ADD16RoundRect,0.102000X-0.500000X-0.600000X0.500000X-0.600000X0.500000X0.600000X-0.500000X0.600000X0*%
%ADD17C,1.700000*%
%ADD18R,0.700000X3.200000*%
%ADD19R,0.700000X4.300000*%
%ADD20C,4.600000*%
%ADD21C,1.800000*%
%ADD22R,1.700000X1.700000*%
%ADD23O,1.700000X1.700000*%
%ADD24C,5.600000*%
%ADD25RoundRect,0.102000X1.390650X1.390650X-1.390650X1.390650X-1.390650X-1.390650X1.390650X-1.390650X0*%
%ADD26C,2.985300*%
%ADD27C,1.803400*%
%ADD28RoundRect,0.250000X-0.450000X0.350000X-0.450000X-0.350000X0.450000X-0.350000X0.450000X0.350000X0*%
%ADD29RoundRect,0.250000X0.450000X-0.350000X0.450000X0.350000X-0.450000X0.350000X-0.450000X-0.350000X0*%
%ADD30C,0.460000*%
G04 APERTURE END LIST*
D10*
X37762500Y-148050000D02*
X42762500Y-148050000D01*
X42762500Y-153050000D01*
X37762500Y-153050000D01*
X37762500Y-148050000D01*
G36*
X37762500Y-148050000D02*
G01*
X42762500Y-148050000D01*
X42762500Y-153050000D01*
X37762500Y-153050000D01*
X37762500Y-148050000D01*
G37*
D11*
G36*
X41253911Y-101749490D02*
G01*
X41254443Y-101788892D01*
X41227661Y-101851223D01*
X41221958Y-101902263D01*
X41234130Y-101974418D01*
X41276869Y-102031125D01*
X41340610Y-102059647D01*
X41416214Y-102067608D01*
X41484393Y-102061293D01*
X41545761Y-102038843D01*
X41596564Y-101988468D01*
X41615866Y-101925800D01*
X41616967Y-101907785D01*
X41607552Y-101841002D01*
X41596177Y-101812931D01*
X41623638Y-101752387D01*
X41662445Y-101743414D01*
X41706624Y-101769077D01*
X41729822Y-101831883D01*
X41738401Y-101899959D01*
X41738784Y-101921428D01*
X41733078Y-101989268D01*
X41710416Y-102063293D01*
X41671384Y-102124550D01*
X41616934Y-102172183D01*
X41548019Y-102205336D01*
X41483112Y-102220859D01*
X41410042Y-102226131D01*
X41340926Y-102221112D01*
X41264665Y-102200957D01*
X41200821Y-102165781D01*
X41150637Y-102116013D01*
X41115354Y-102052086D01*
X41096214Y-101974431D01*
X41092996Y-101921428D01*
X41100447Y-101854928D01*
X41120543Y-101792891D01*
X41146595Y-101745363D01*
X41193697Y-101722949D01*
X41253911Y-101749490D01*
G37*
G36*
X41495452Y-101397760D02*
G01*
X41578079Y-101414865D01*
X41655131Y-101442693D01*
X41725765Y-101480687D01*
X41789138Y-101528288D01*
X41844407Y-101584940D01*
X41890728Y-101650086D01*
X41927258Y-101723168D01*
X41953155Y-101803628D01*
X41967576Y-101890910D01*
X41970397Y-101952613D01*
X41964135Y-102041317D01*
X41945896Y-102124591D01*
X41916498Y-102201715D01*
X41876762Y-102271969D01*
X41827505Y-102334635D01*
X41769547Y-102388993D01*
X41703707Y-102434323D01*
X41630804Y-102469905D01*
X41551656Y-102495021D01*
X41467084Y-102508951D01*
X41408093Y-102511668D01*
X41320933Y-102505921D01*
X41238529Y-102489026D01*
X41161715Y-102461499D01*
X41091324Y-102423858D01*
X41028190Y-102376619D01*
X40973146Y-102320300D01*
X40927027Y-102255418D01*
X40890664Y-102182490D01*
X40864893Y-102102034D01*
X40850545Y-102014565D01*
X40847739Y-101952613D01*
X40947141Y-101952613D01*
X40952108Y-102024687D01*
X40966631Y-102092172D01*
X40990141Y-102154522D01*
X41022069Y-102211191D01*
X41076754Y-102276969D01*
X41144045Y-102330383D01*
X41201978Y-102361550D01*
X41265676Y-102384489D01*
X41334570Y-102398653D01*
X41408093Y-102403495D01*
X41482061Y-102398792D01*
X41551533Y-102384990D01*
X41615903Y-102362548D01*
X41674562Y-102331925D01*
X41742844Y-102279162D01*
X41798457Y-102213760D01*
X41830987Y-102157070D01*
X41854974Y-102094343D01*
X41869812Y-102026037D01*
X41874893Y-101952613D01*
X41869928Y-101879248D01*
X41855392Y-101810944D01*
X41831818Y-101748172D01*
X41799742Y-101691403D01*
X41744671Y-101625862D01*
X41676704Y-101572943D01*
X41618027Y-101542210D01*
X41553343Y-101519674D01*
X41483187Y-101505808D01*
X41408093Y-101501081D01*
X41333595Y-101505963D01*
X41264107Y-101520231D01*
X41200137Y-101543318D01*
X41142190Y-101574657D01*
X41075170Y-101628298D01*
X41020956Y-101694258D01*
X40980747Y-101771194D01*
X40960503Y-101835289D01*
X40949316Y-101904235D01*
X40947141Y-101952613D01*
X40847739Y-101952613D01*
X40854015Y-101864319D01*
X40872283Y-101781209D01*
X40901705Y-101704048D01*
X40941442Y-101633600D01*
X40990658Y-101570629D01*
X41048512Y-101515900D01*
X41114167Y-101470177D01*
X41186784Y-101434225D01*
X41265525Y-101408808D01*
X41349553Y-101394691D01*
X41408093Y-101391934D01*
X41495452Y-101397760D01*
G37*
G36*
X40866905Y-100962492D02*
G01*
X40922004Y-100925392D01*
X40980812Y-100882966D01*
X41040280Y-100838024D01*
X41097359Y-100793377D01*
X41149003Y-100751834D01*
X41199506Y-100710038D01*
X41206366Y-100704242D01*
X41258945Y-100659824D01*
X41312224Y-100617387D01*
X41368122Y-100575741D01*
X41428558Y-100533699D01*
X41486416Y-100498564D01*
X41546484Y-100468735D01*
X41609532Y-100445201D01*
X41676332Y-100428952D01*
X41747655Y-100420978D01*
X41772567Y-100420329D01*
X41848277Y-100425630D01*
X41917721Y-100441906D01*
X41979719Y-100468985D01*
X42033091Y-100506697D01*
X42085878Y-100568527D01*
X42115526Y-100629535D01*
X42132714Y-100700618D01*
X42136716Y-100760439D01*
X42131791Y-100826612D01*
X42112894Y-100902088D01*
X42081763Y-100969311D01*
X42040459Y-101028058D01*
X41991039Y-101078105D01*
X41935565Y-101119231D01*
X41900230Y-101139531D01*
X41837211Y-101158372D01*
X41779336Y-101127125D01*
X41768669Y-101091779D01*
X41797401Y-101030383D01*
X41817071Y-101016416D01*
X41875158Y-100980121D01*
X41929685Y-100930378D01*
X41967128Y-100867064D01*
X41982236Y-100796629D01*
X41983065Y-100773433D01*
X41972952Y-100706770D01*
X41938556Y-100650254D01*
X41875768Y-100610599D01*
X41806079Y-100594879D01*
X41762172Y-100592821D01*
X41690631Y-100598802D01*
X41619933Y-100617379D01*
X41556401Y-100644535D01*
X41499103Y-100675851D01*
X41435999Y-100715681D01*
X41408743Y-100734127D01*
X41352479Y-100776596D01*
X41290207Y-100826019D01*
X41233012Y-100871964D01*
X41171334Y-100921464D01*
X41107087Y-100972542D01*
X41042187Y-101023224D01*
X40978547Y-101071533D01*
X40963058Y-101083009D01*
X40907745Y-101117651D01*
X40844302Y-101138926D01*
X40833121Y-101139531D01*
X40769870Y-101119677D01*
X40731115Y-101062376D01*
X40723000Y-101005046D01*
X40723000Y-100435921D01*
X40745885Y-100374605D01*
X40801612Y-100352112D01*
X40863005Y-100379915D01*
X40879574Y-100435596D01*
X40866905Y-100962492D01*
G37*
G36*
X41489801Y-99480398D02*
G01*
X41537984Y-99524051D01*
X41561019Y-99584810D01*
X41561744Y-99598151D01*
X41544917Y-99662031D01*
X41500979Y-99710244D01*
X41439744Y-99733214D01*
X41426285Y-99733936D01*
X41362254Y-99717164D01*
X41313747Y-99673234D01*
X41290580Y-99611721D01*
X41289851Y-99598151D01*
X41306773Y-99535148D01*
X41350996Y-99487289D01*
X41412708Y-99464388D01*
X41426285Y-99463666D01*
X41489801Y-99480398D01*
G37*
G36*
X41508513Y-99184698D02*
G01*
X41589155Y-99188931D01*
X41664303Y-99196347D01*
X41733946Y-99206944D01*
X41798076Y-99220717D01*
X41883910Y-99247326D01*
X41957281Y-99281064D01*
X42018155Y-99321919D01*
X42066499Y-99369881D01*
X42102279Y-99424939D01*
X42125462Y-99487080D01*
X42136012Y-99556294D01*
X42136716Y-99580935D01*
X42130394Y-99653529D01*
X42111423Y-99720378D01*
X42079797Y-99781200D01*
X42035510Y-99835715D01*
X41978554Y-99883641D01*
X41908925Y-99924697D01*
X41826614Y-99958602D01*
X41731617Y-99985075D01*
X41661233Y-99998456D01*
X41585206Y-100008326D01*
X41503534Y-100014601D01*
X41416214Y-100017199D01*
X41330784Y-100016228D01*
X41250659Y-100011979D01*
X41175866Y-100004453D01*
X41106436Y-99993653D01*
X41042396Y-99979580D01*
X40956505Y-99952343D01*
X40882903Y-99917756D01*
X40821687Y-99875829D01*
X40772952Y-99826570D01*
X40736795Y-99769987D01*
X40713313Y-99706087D01*
X40702601Y-99634879D01*
X40701885Y-99609521D01*
X40702501Y-99602699D01*
X40847739Y-99602699D01*
X40859572Y-99669541D01*
X40896339Y-99727675D01*
X40952321Y-99771960D01*
X40976052Y-99784936D01*
X41044501Y-99812477D01*
X41117943Y-99831385D01*
X41188383Y-99843486D01*
X41266271Y-99851984D01*
X41333343Y-99856016D01*
X41404153Y-99857442D01*
X41422386Y-99857376D01*
X41497517Y-99855400D01*
X41569891Y-99850551D01*
X41638849Y-99842621D01*
X41703728Y-99831401D01*
X41775266Y-99813303D01*
X41838835Y-99789809D01*
X41896569Y-99758976D01*
X41947329Y-99716048D01*
X41982913Y-99656785D01*
X41993460Y-99593279D01*
X41981447Y-99525040D01*
X41944179Y-99466568D01*
X41887520Y-99423129D01*
X41863523Y-99410717D01*
X41796152Y-99385678D01*
X41724821Y-99368237D01*
X41655800Y-99356970D01*
X41578071Y-99349022D01*
X41509618Y-99345273D01*
X41435592Y-99344026D01*
X41416214Y-99344124D01*
X41348248Y-99345811D01*
X41283247Y-99349459D01*
X41206787Y-99356885D01*
X41136392Y-99367629D01*
X41072858Y-99381832D01*
X41006794Y-99403640D01*
X40978326Y-99416564D01*
X40920920Y-99452911D01*
X40876205Y-99501987D01*
X40850887Y-99566529D01*
X40847739Y-99602699D01*
X40702501Y-99602699D01*
X40708347Y-99538009D01*
X40727679Y-99472363D01*
X40759801Y-99412817D01*
X40804633Y-99359600D01*
X40862094Y-99312944D01*
X40932104Y-99273080D01*
X41014583Y-99240239D01*
X41109451Y-99214654D01*
X41179539Y-99201741D01*
X41255073Y-99192224D01*
X41336030Y-99186172D01*
X41422386Y-99183652D01*
X41508513Y-99184698D01*
G37*
G36*
X40866905Y-98613227D02*
G01*
X40922004Y-98576128D01*
X40980812Y-98533702D01*
X41040280Y-98488760D01*
X41097359Y-98444112D01*
X41149003Y-98402570D01*
X41199506Y-98360774D01*
X41206366Y-98354977D01*
X41258945Y-98310560D01*
X41312224Y-98268122D01*
X41368122Y-98226476D01*
X41428558Y-98184435D01*
X41486416Y-98149299D01*
X41546484Y-98119470D01*
X41609532Y-98095937D01*
X41676332Y-98079688D01*
X41747655Y-98071713D01*
X41772567Y-98071064D01*
X41848277Y-98076365D01*
X41917721Y-98092641D01*
X41979719Y-98119720D01*
X42033091Y-98157432D01*
X42085878Y-98219262D01*
X42115526Y-98280270D01*
X42132714Y-98351353D01*
X42136716Y-98411175D01*
X42131791Y-98477348D01*
X42112894Y-98552824D01*
X42081763Y-98620046D01*
X42040459Y-98678793D01*
X41991039Y-98728841D01*
X41935565Y-98769967D01*
X41900230Y-98790267D01*
X41837211Y-98809108D01*
X41779336Y-98777861D01*
X41768669Y-98742515D01*
X41797401Y-98681118D01*
X41817071Y-98667151D01*
X41875158Y-98630856D01*
X41929685Y-98581113D01*
X41967128Y-98517799D01*
X41982236Y-98447365D01*
X41983065Y-98424169D01*
X41972952Y-98357506D01*
X41938556Y-98300990D01*
X41875768Y-98261335D01*
X41806079Y-98245614D01*
X41762172Y-98243556D01*
X41690631Y-98249537D01*
X41619933Y-98268115D01*
X41556401Y-98295271D01*
X41499103Y-98326586D01*
X41435999Y-98366417D01*
X41408743Y-98384863D01*
X41352479Y-98427331D01*
X41290207Y-98476754D01*
X41233012Y-98522699D01*
X41171334Y-98572199D01*
X41107087Y-98623278D01*
X41042187Y-98673960D01*
X40978547Y-98722269D01*
X40963058Y-98733744D01*
X40907745Y-98768386D01*
X40844302Y-98789661D01*
X40833121Y-98790267D01*
X40769870Y-98770413D01*
X40731115Y-98713111D01*
X40723000Y-98655782D01*
X40723000Y-98086657D01*
X40745885Y-98025340D01*
X40801612Y-98002847D01*
X40863005Y-98030651D01*
X40879574Y-98086332D01*
X40866905Y-98613227D01*
G37*
G36*
X42020747Y-97226148D02*
G01*
X42067849Y-97216727D01*
X42125890Y-97250988D01*
X42136716Y-97295664D01*
X42111889Y-97356378D01*
X42073372Y-97379149D01*
X41238525Y-97662412D01*
X41175029Y-97680136D01*
X41163162Y-97680928D01*
X41100792Y-97652017D01*
X41078077Y-97590336D01*
X41076429Y-97561711D01*
X41076429Y-97176122D01*
X40780497Y-97176122D01*
X40718577Y-97150572D01*
X40702210Y-97096860D01*
X40725991Y-97034763D01*
X40780497Y-97016949D01*
X41076429Y-97016949D01*
X41076429Y-96813922D01*
X41114070Y-96759309D01*
X41148869Y-96751877D01*
X41208051Y-96778790D01*
X41220009Y-96813922D01*
X41220009Y-97016949D01*
X41507170Y-97016949D01*
X41569906Y-97040459D01*
X41590980Y-97096860D01*
X41564327Y-97157628D01*
X41507170Y-97176122D01*
X41220009Y-97176122D01*
X41220009Y-97502589D01*
X42020747Y-97226148D01*
G37*
G36*
X41641006Y-95309574D02*
G01*
X40862032Y-95055872D01*
X40799333Y-95031341D01*
X40744640Y-94989748D01*
X40723123Y-94925085D01*
X40723000Y-94918463D01*
X40738458Y-94854965D01*
X40786785Y-94810877D01*
X40852821Y-94781886D01*
X40861707Y-94778781D01*
X41632885Y-94508836D01*
X41697291Y-94492074D01*
X41713446Y-94490645D01*
X41771895Y-94522844D01*
X41783287Y-94569907D01*
X41756934Y-94630571D01*
X41696511Y-94659870D01*
X41685509Y-94663461D01*
X40910759Y-94913591D01*
X41692981Y-95145528D01*
X41755208Y-95174657D01*
X41783287Y-95236160D01*
X41761523Y-95298205D01*
X41708573Y-95322243D01*
X41644548Y-95310626D01*
X41641006Y-95309574D01*
G37*
G36*
X41454352Y-93294246D02*
G01*
X41537452Y-93314639D01*
X41611808Y-93348608D01*
X41675371Y-93396623D01*
X41726094Y-93459157D01*
X41761930Y-93536682D01*
X41777804Y-93604948D01*
X41783287Y-93682111D01*
X41777745Y-93759876D01*
X41761422Y-93831604D01*
X41734778Y-93896963D01*
X41698269Y-93955620D01*
X41652353Y-94007243D01*
X41597489Y-94051500D01*
X41534133Y-94088057D01*
X41462743Y-94116583D01*
X41383778Y-94136745D01*
X41297694Y-94148211D01*
X41236576Y-94150859D01*
X41145556Y-94146979D01*
X41062172Y-94133866D01*
X40986713Y-94111776D01*
X40919464Y-94080967D01*
X40860714Y-94041696D01*
X40810751Y-93994219D01*
X40769862Y-93938794D01*
X40738333Y-93875677D01*
X40716453Y-93805125D01*
X40704510Y-93727396D01*
X40702210Y-93671716D01*
X40706035Y-93595954D01*
X40717062Y-93526828D01*
X40737478Y-93457063D01*
X40769404Y-93389718D01*
X40814959Y-93327851D01*
X40824026Y-93318287D01*
X40882497Y-93287833D01*
X40931224Y-93301720D01*
X40949960Y-93366429D01*
X40929600Y-93406319D01*
X40892654Y-93462720D01*
X40868164Y-93525699D01*
X40854820Y-93594525D01*
X40851312Y-93668467D01*
X40859227Y-93742057D01*
X40879670Y-93805734D01*
X40920864Y-93871506D01*
X40977069Y-93922057D01*
X41045750Y-93957536D01*
X41124372Y-93978091D01*
X41192722Y-93983890D01*
X41191655Y-93911282D01*
X41190846Y-93840884D01*
X41190362Y-93776259D01*
X41325812Y-93776259D01*
X41326355Y-93847578D01*
X41327324Y-93916155D01*
X41328507Y-93980317D01*
X41393612Y-93973139D01*
X41467796Y-93953248D01*
X41531928Y-93920662D01*
X41583806Y-93874779D01*
X41621231Y-93814997D01*
X41642001Y-93740714D01*
X41645554Y-93688933D01*
X41638587Y-93622290D01*
X41612158Y-93555109D01*
X41569282Y-93504738D01*
X41513430Y-93469996D01*
X41448074Y-93449701D01*
X41376688Y-93442670D01*
X41332405Y-93444326D01*
X41328745Y-93509483D01*
X41326767Y-93582103D01*
X41326034Y-93650852D01*
X41325908Y-93703875D01*
X41325812Y-93776259D01*
X41190362Y-93776259D01*
X41190297Y-93767640D01*
X41190124Y-93703226D01*
X41190791Y-93635376D01*
X41192158Y-93567756D01*
X41194550Y-93501529D01*
X41198960Y-93429039D01*
X41201168Y-93403071D01*
X41216094Y-93335271D01*
X41269231Y-93294656D01*
X41317787Y-93288076D01*
X41387521Y-93287576D01*
X41454352Y-93294246D01*
G37*
G36*
X41265162Y-92141381D02*
G01*
X41329910Y-92163507D01*
X41353520Y-92219993D01*
X41325139Y-92280498D01*
X41264188Y-92295681D01*
X41196126Y-92293820D01*
X41122830Y-92294378D01*
X41056656Y-92298710D01*
X40990485Y-92309409D01*
X40961434Y-92317445D01*
X40899895Y-92348367D01*
X40857592Y-92401187D01*
X40843312Y-92471205D01*
X40843191Y-92479542D01*
X40854822Y-92546460D01*
X40896834Y-92597617D01*
X40952014Y-92621823D01*
X41018184Y-92634843D01*
X41088261Y-92641574D01*
X41117684Y-92643588D01*
X41185202Y-92646131D01*
X41260257Y-92647417D01*
X41352219Y-92648213D01*
X41421131Y-92648493D01*
X41494877Y-92648585D01*
X41572383Y-92648501D01*
X41652576Y-92648254D01*
X41734384Y-92647855D01*
X41816735Y-92647315D01*
X41898556Y-92646648D01*
X41978773Y-92645865D01*
X42056316Y-92644978D01*
X42130111Y-92643998D01*
X42199086Y-92642938D01*
X42199086Y-92941469D01*
X42181774Y-93006041D01*
X42128920Y-93032750D01*
X42068662Y-93001756D01*
X42055181Y-92941469D01*
X42055181Y-92799188D01*
X41968968Y-92799832D01*
X41872815Y-92800612D01*
X41804711Y-92801162D01*
X41734470Y-92801707D01*
X41663003Y-92802220D01*
X41591223Y-92802674D01*
X41520042Y-92803045D01*
X41450373Y-92803305D01*
X41383127Y-92803429D01*
X41288797Y-92803301D01*
X41205051Y-92802719D01*
X41134968Y-92801594D01*
X41081626Y-92799837D01*
X41010786Y-92795360D01*
X40941778Y-92786204D01*
X40877118Y-92769606D01*
X40866580Y-92765729D01*
X40806297Y-92733566D01*
X40755039Y-92683439D01*
X40722184Y-92621059D01*
X40705486Y-92547814D01*
X40702210Y-92489612D01*
X40706772Y-92423008D01*
X40724118Y-92352242D01*
X40754123Y-92291603D01*
X40796479Y-92241231D01*
X40850878Y-92201268D01*
X40882497Y-92185234D01*
X40948708Y-92162255D01*
X41013582Y-92149054D01*
X41085654Y-92141360D01*
X41151011Y-92138822D01*
X41221006Y-92139520D01*
X41265162Y-92141381D01*
G37*
G36*
X41641006Y-91785677D02*
G01*
X40862032Y-91531975D01*
X40799333Y-91507444D01*
X40744640Y-91465852D01*
X40723123Y-91401188D01*
X40723000Y-91394566D01*
X40738458Y-91331068D01*
X40786785Y-91286980D01*
X40852821Y-91257989D01*
X40861707Y-91254884D01*
X41632885Y-90984939D01*
X41697291Y-90968177D01*
X41713446Y-90966748D01*
X41771895Y-90998947D01*
X41783287Y-91046010D01*
X41756934Y-91106674D01*
X41696511Y-91135973D01*
X41685509Y-91139565D01*
X40910759Y-91389694D01*
X41692981Y-91621632D01*
X41755208Y-91650761D01*
X41783287Y-91712263D01*
X41761523Y-91774308D01*
X41708573Y-91798346D01*
X41644548Y-91786730D01*
X41641006Y-91785677D01*
G37*
G36*
X41953180Y-90175106D02*
G01*
X41969600Y-90110211D01*
X42017996Y-90058496D01*
X42086041Y-90038672D01*
X42153563Y-90058496D01*
X42202035Y-90110211D01*
X42218577Y-90175106D01*
X42202035Y-90240590D01*
X42153563Y-90292811D01*
X42086041Y-90312839D01*
X42017996Y-90292811D01*
X41969600Y-90240590D01*
X41953180Y-90175106D01*
G37*
G36*
X41762497Y-90147819D02*
G01*
X41762497Y-90470063D01*
X41739182Y-90533226D01*
X41692981Y-90550624D01*
X41634021Y-90522317D01*
X41619241Y-90470063D01*
X41619241Y-90218960D01*
X41538671Y-90218306D01*
X41472899Y-90217917D01*
X41403520Y-90217618D01*
X41331410Y-90217410D01*
X41257447Y-90217295D01*
X41182508Y-90217274D01*
X41107469Y-90217348D01*
X41033208Y-90217521D01*
X40960601Y-90217792D01*
X40890524Y-90218163D01*
X40867879Y-90218310D01*
X40867879Y-90487280D01*
X40837141Y-90547778D01*
X40792191Y-90559720D01*
X40732374Y-90527544D01*
X40723000Y-90487280D01*
X40723000Y-89808358D01*
X40744926Y-89745136D01*
X40792191Y-89726498D01*
X40853010Y-89755762D01*
X40867879Y-89808358D01*
X40867879Y-90056538D01*
X40942877Y-90057020D01*
X41020212Y-90057378D01*
X41099034Y-90057624D01*
X41178493Y-90057772D01*
X41257741Y-90057834D01*
X41335927Y-90057823D01*
X41412202Y-90057752D01*
X41485716Y-90057635D01*
X41555619Y-90057483D01*
X41621064Y-90057309D01*
X41661796Y-90057188D01*
X41728996Y-90072050D01*
X41761723Y-90131547D01*
X41762497Y-90147819D01*
G37*
G36*
X41391937Y-88645992D02*
G01*
X41459192Y-88650818D01*
X41527108Y-88661338D01*
X41592296Y-88680746D01*
X41653794Y-88713286D01*
X41660821Y-88718185D01*
X41712270Y-88766175D01*
X41748405Y-88824121D01*
X41770982Y-88891534D01*
X41780873Y-88956480D01*
X41783287Y-89015416D01*
X41778580Y-89083844D01*
X41764272Y-89156228D01*
X41740080Y-89228921D01*
X41705721Y-89298273D01*
X41660912Y-89360637D01*
X41643605Y-89379241D01*
X41584289Y-89407450D01*
X41577986Y-89407502D01*
X41519060Y-89374268D01*
X41519247Y-89305569D01*
X41526661Y-89296081D01*
X41568492Y-89241637D01*
X41600755Y-89184964D01*
X41625361Y-89117596D01*
X41636271Y-89047601D01*
X41636783Y-89029710D01*
X41632118Y-88963725D01*
X41611370Y-88900473D01*
X41561953Y-88847114D01*
X41491160Y-88817744D01*
X41437329Y-88808491D01*
X41369120Y-88799561D01*
X41303759Y-88796508D01*
X41283354Y-88796797D01*
X41326478Y-88852896D01*
X41353628Y-88918648D01*
X41369007Y-88990171D01*
X41372685Y-89059920D01*
X41364887Y-89142091D01*
X41345561Y-89216444D01*
X41315333Y-89282010D01*
X41274827Y-89337823D01*
X41224666Y-89382917D01*
X41165476Y-89416323D01*
X41097881Y-89437077D01*
X41022505Y-89444209D01*
X40954088Y-89437633D01*
X40877775Y-89411893D01*
X40813176Y-89368373D01*
X40761883Y-89308879D01*
X40731498Y-89250997D01*
X40711461Y-89184974D01*
X40702588Y-89111733D01*
X40702210Y-89092404D01*
X40705999Y-89042703D01*
X40839618Y-89042703D01*
X40845190Y-89112539D01*
X40867422Y-89179560D01*
X40911238Y-89235182D01*
X40970052Y-89267180D01*
X41039397Y-89276265D01*
X41108613Y-89264654D01*
X41171247Y-89228291D01*
X41214352Y-89169765D01*
X41235738Y-89103879D01*
X41242579Y-89039105D01*
X41242748Y-89025162D01*
X41236342Y-88954546D01*
X41214920Y-88886460D01*
X41173259Y-88830616D01*
X41106137Y-88796724D01*
X41054339Y-88790950D01*
X40987554Y-88799958D01*
X40922916Y-88833040D01*
X40875067Y-88890100D01*
X40849394Y-88957830D01*
X40840074Y-89027376D01*
X40839618Y-89042703D01*
X40705999Y-89042703D01*
X40707937Y-89017280D01*
X40723285Y-88952768D01*
X40750530Y-88889499D01*
X40788477Y-88835399D01*
X40835395Y-88797447D01*
X40795115Y-88797447D01*
X40735229Y-88768779D01*
X40723000Y-88719160D01*
X40751011Y-88660260D01*
X40800312Y-88654841D01*
X40795115Y-88654841D01*
X41313239Y-88644446D01*
X41391937Y-88645992D01*
G37*
G36*
X41388278Y-87558821D02*
G01*
X41388278Y-88163028D01*
X41364650Y-88226700D01*
X41305768Y-88252035D01*
X41244122Y-88223648D01*
X41223258Y-88163028D01*
X41223258Y-87558821D01*
X41247408Y-87494891D01*
X41306418Y-87469814D01*
X41367678Y-87497931D01*
X41388278Y-87558821D01*
G37*
G36*
X42075971Y-86461176D02*
G01*
X42070266Y-86391667D01*
X42055477Y-86324277D01*
X42049009Y-86298430D01*
X42069565Y-86233992D01*
X42118525Y-86214295D01*
X42176746Y-86247770D01*
X42185118Y-86263347D01*
X42204646Y-86325889D01*
X42215737Y-86391540D01*
X42219868Y-86458558D01*
X42219876Y-86465074D01*
X42213514Y-86540485D01*
X42196203Y-86604604D01*
X42159888Y-86669769D01*
X42108126Y-86719353D01*
X42041839Y-86754502D01*
X41978970Y-86772996D01*
X41907868Y-86783570D01*
X41888861Y-86785045D01*
X41821956Y-86787348D01*
X41762497Y-86787968D01*
X41762497Y-87013084D01*
X41731842Y-87070377D01*
X41690057Y-87080652D01*
X41630884Y-87052027D01*
X41619241Y-87013084D01*
X41619241Y-86788293D01*
X40867879Y-86788293D01*
X40867879Y-87007562D01*
X40837372Y-87068071D01*
X40793490Y-87080652D01*
X40734553Y-87050906D01*
X40723000Y-87007562D01*
X40723000Y-86386787D01*
X40751830Y-86325833D01*
X40794790Y-86313048D01*
X40855616Y-86342544D01*
X40867879Y-86386787D01*
X40867879Y-86630744D01*
X41619241Y-86630744D01*
X41619241Y-86328965D01*
X41650455Y-86271261D01*
X41691681Y-86260098D01*
X41751308Y-86293012D01*
X41762497Y-86341309D01*
X41762497Y-86633018D01*
X41829224Y-86633179D01*
X41892434Y-86630419D01*
X41961650Y-86619909D01*
X42021894Y-86592914D01*
X42063692Y-86537687D01*
X42075775Y-86472327D01*
X42075971Y-86461176D01*
G37*
G36*
X41953180Y-85476577D02*
G01*
X41969600Y-85411683D01*
X42017996Y-85359967D01*
X42086041Y-85340143D01*
X42153563Y-85359967D01*
X42202035Y-85411683D01*
X42218577Y-85476577D01*
X42202035Y-85542061D01*
X42153563Y-85594282D01*
X42086041Y-85614310D01*
X42017996Y-85594282D01*
X41969600Y-85542061D01*
X41953180Y-85476577D01*
G37*
G36*
X41762497Y-85449290D02*
G01*
X41762497Y-85771534D01*
X41739182Y-85834697D01*
X41692981Y-85852095D01*
X41634021Y-85823788D01*
X41619241Y-85771534D01*
X41619241Y-85520431D01*
X41538671Y-85519777D01*
X41472899Y-85519388D01*
X41403520Y-85519089D01*
X41331410Y-85518881D01*
X41257447Y-85518766D01*
X41182508Y-85518745D01*
X41107469Y-85518819D01*
X41033208Y-85518992D01*
X40960601Y-85519263D01*
X40890524Y-85519635D01*
X40867879Y-85519781D01*
X40867879Y-85788751D01*
X40837141Y-85849249D01*
X40792191Y-85861191D01*
X40732374Y-85829015D01*
X40723000Y-85788751D01*
X40723000Y-85109829D01*
X40744926Y-85046607D01*
X40792191Y-85027969D01*
X40853010Y-85057233D01*
X40867879Y-85109829D01*
X40867879Y-85358009D01*
X40942877Y-85358491D01*
X41020212Y-85358849D01*
X41099034Y-85359095D01*
X41178493Y-85359243D01*
X41257741Y-85359305D01*
X41335927Y-85359294D01*
X41412202Y-85359223D01*
X41485716Y-85359106D01*
X41555619Y-85358954D01*
X41621064Y-85358780D01*
X41661796Y-85358659D01*
X41728996Y-85373521D01*
X41761723Y-85433018D01*
X41762497Y-85449290D01*
G37*
G36*
X42075971Y-84111912D02*
G01*
X42070266Y-84042402D01*
X42055477Y-83975013D01*
X42049009Y-83949165D01*
X42069565Y-83884727D01*
X42118525Y-83865031D01*
X42176746Y-83898506D01*
X42185118Y-83914082D01*
X42204646Y-83976625D01*
X42215737Y-84042275D01*
X42219868Y-84109294D01*
X42219876Y-84115810D01*
X42213514Y-84191220D01*
X42196203Y-84255340D01*
X42159888Y-84320505D01*
X42108126Y-84370089D01*
X42041839Y-84405237D01*
X41978970Y-84423731D01*
X41907868Y-84434305D01*
X41888861Y-84435780D01*
X41821956Y-84438083D01*
X41762497Y-84438704D01*
X41762497Y-84663820D01*
X41731842Y-84721113D01*
X41690057Y-84731387D01*
X41630884Y-84702762D01*
X41619241Y-84663820D01*
X41619241Y-84439028D01*
X40867879Y-84439028D01*
X40867879Y-84658297D01*
X40837372Y-84718806D01*
X40793490Y-84731387D01*
X40734553Y-84701641D01*
X40723000Y-84658297D01*
X40723000Y-84037523D01*
X40751830Y-83976568D01*
X40794790Y-83963783D01*
X40855616Y-83993280D01*
X40867879Y-84037523D01*
X40867879Y-84281480D01*
X41619241Y-84281480D01*
X41619241Y-83979700D01*
X41650455Y-83921996D01*
X41691681Y-83910834D01*
X41751308Y-83943747D01*
X41762497Y-83992045D01*
X41762497Y-84283754D01*
X41829224Y-84283915D01*
X41892434Y-84281155D01*
X41961650Y-84270645D01*
X42021894Y-84243649D01*
X42063692Y-84188422D01*
X42075775Y-84123062D01*
X42075971Y-84111912D01*
G37*
G36*
X41762497Y-83192606D02*
G01*
X41952530Y-83190657D01*
X42018157Y-83203310D01*
X42055395Y-83259389D01*
X42055830Y-83268944D01*
X42025178Y-83330126D01*
X41958838Y-83349948D01*
X41952855Y-83350155D01*
X41762497Y-83354053D01*
X41762497Y-83560003D01*
X41739199Y-83621487D01*
X41693955Y-83637966D01*
X41633545Y-83611280D01*
X41619241Y-83560003D01*
X41619241Y-83354703D01*
X41545840Y-83355701D01*
X41477072Y-83356351D01*
X41402818Y-83356804D01*
X41326256Y-83356997D01*
X41250565Y-83356871D01*
X41178924Y-83356364D01*
X41099908Y-83355102D01*
X41072855Y-83354378D01*
X41002379Y-83349902D01*
X40933490Y-83340289D01*
X40870124Y-83322972D01*
X40860083Y-83318970D01*
X40800891Y-83285311D01*
X40751204Y-83232859D01*
X40719985Y-83168251D01*
X40704727Y-83093628D01*
X40702210Y-83035382D01*
X40707083Y-82969931D01*
X40724945Y-82900615D01*
X40762024Y-82833896D01*
X40809712Y-82786732D01*
X40876877Y-82748672D01*
X40941951Y-82728093D01*
X41021122Y-82715891D01*
X41115735Y-82713463D01*
X41179120Y-82737988D01*
X41198894Y-82794673D01*
X41162321Y-82849735D01*
X41114110Y-82859642D01*
X41048271Y-82861294D01*
X40980910Y-82870795D01*
X40912302Y-82898136D01*
X40866702Y-82949725D01*
X40851312Y-83023363D01*
X40859015Y-83090354D01*
X40895052Y-83145620D01*
X40930249Y-83165969D01*
X40995012Y-83183886D01*
X41063434Y-83191513D01*
X41097219Y-83193256D01*
X41164070Y-83195761D01*
X41232962Y-83197281D01*
X41302646Y-83197955D01*
X41371873Y-83197925D01*
X41439395Y-83197332D01*
X41519497Y-83196013D01*
X41592544Y-83194308D01*
X41619241Y-83193580D01*
X41619241Y-82861591D01*
X41646482Y-82800464D01*
X41696879Y-82785253D01*
X41752653Y-82819249D01*
X41762497Y-82861591D01*
X41762497Y-83192606D01*
G37*
G36*
X41064734Y-81753551D02*
G01*
X41128699Y-81731066D01*
X41194311Y-81707937D01*
X41260439Y-81684599D01*
X41325956Y-81661487D01*
X41389731Y-81639037D01*
X41470106Y-81610885D01*
X41542703Y-81585715D01*
X41604845Y-81564558D01*
X41663745Y-81545327D01*
X41731147Y-81538412D01*
X41779376Y-81586857D01*
X41783287Y-81609646D01*
X41761811Y-81674420D01*
X41703376Y-81705150D01*
X41626739Y-81728894D01*
X41550231Y-81752609D01*
X41473998Y-81776285D01*
X41398186Y-81799910D01*
X41322942Y-81823472D01*
X41248412Y-81846962D01*
X41174741Y-81870367D01*
X41102076Y-81893676D01*
X41030563Y-81916878D01*
X40960348Y-81939961D01*
X40914332Y-81955279D01*
X41704350Y-82219051D01*
X41764042Y-82250011D01*
X41783287Y-82311632D01*
X41754699Y-82371766D01*
X41685419Y-82384513D01*
X41651726Y-82375301D01*
X40719751Y-82040713D01*
X40648042Y-82069014D01*
X40575147Y-82100398D01*
X40509322Y-82133058D01*
X40452049Y-82169953D01*
X40418946Y-82205408D01*
X40397731Y-82268866D01*
X40396874Y-82333946D01*
X40398806Y-82355810D01*
X40383917Y-82421623D01*
X40341634Y-82447416D01*
X40277453Y-82430571D01*
X40248079Y-82378874D01*
X40241205Y-82313488D01*
X40244831Y-82254459D01*
X40260049Y-82187398D01*
X40291138Y-82124470D01*
X40333709Y-82073476D01*
X40375742Y-82039088D01*
X40439335Y-82000773D01*
X40508856Y-81966509D01*
X40574374Y-81937462D01*
X40644358Y-81908380D01*
X40716534Y-81879649D01*
X40774325Y-81857176D01*
X40839930Y-81832999D01*
X40908626Y-81808299D01*
X40970392Y-81786539D01*
X41034535Y-81764146D01*
X41064734Y-81753551D01*
G37*
G36*
X38554218Y-101567349D02*
G01*
X38606797Y-101525962D01*
X38624709Y-101523171D01*
X38685009Y-101552727D01*
X38698448Y-101584891D01*
X38678633Y-101644987D01*
X38644843Y-101707118D01*
X38625871Y-101772848D01*
X38623084Y-101813256D01*
X38634531Y-101895565D01*
X38667329Y-101964612D01*
X38719169Y-102021082D01*
X38787739Y-102065659D01*
X38848757Y-102091699D01*
X38916910Y-102111725D01*
X38991226Y-102126025D01*
X39070728Y-102134888D01*
X39154442Y-102138604D01*
X39183114Y-102138748D01*
X39250418Y-102137163D01*
X39343393Y-102129682D01*
X39426807Y-102116385D01*
X39500679Y-102097614D01*
X39565029Y-102073714D01*
X39636050Y-102034463D01*
X39690222Y-101987518D01*
X39727591Y-101933694D01*
X39750743Y-101857981D01*
X39752239Y-101841842D01*
X39747898Y-101772647D01*
X39725158Y-101706576D01*
X39688894Y-101645961D01*
X39673302Y-101597235D01*
X39708413Y-101539236D01*
X39754188Y-101523171D01*
X39814152Y-101551746D01*
X39826953Y-101567674D01*
X39861066Y-101624684D01*
X39884490Y-101687054D01*
X39897987Y-101753322D01*
X39902316Y-101822026D01*
X39895230Y-101901158D01*
X39874581Y-101975019D01*
X39840730Y-102043067D01*
X39794041Y-102104758D01*
X39734876Y-102159550D01*
X39663600Y-102206899D01*
X39580574Y-102246264D01*
X39518875Y-102267803D01*
X39452224Y-102285391D01*
X39380726Y-102298867D01*
X39304491Y-102308071D01*
X39223625Y-102312841D01*
X39181490Y-102313514D01*
X39096977Y-102311854D01*
X39017547Y-102306189D01*
X38943252Y-102296587D01*
X38874142Y-102283116D01*
X38810269Y-102265843D01*
X38724388Y-102232957D01*
X38650574Y-102191901D01*
X38589001Y-102142905D01*
X38539838Y-102086198D01*
X38503260Y-102022011D01*
X38479436Y-101950573D01*
X38468539Y-101872114D01*
X38467810Y-101844441D01*
X38471307Y-101777802D01*
X38484336Y-101706991D01*
X38506548Y-101644458D01*
X38541524Y-101583934D01*
X38554218Y-101567349D01*
G37*
G36*
X38554218Y-100392717D02*
G01*
X38606797Y-100351330D01*
X38624709Y-100348539D01*
X38685009Y-100378095D01*
X38698448Y-100410259D01*
X38678633Y-100470355D01*
X38644843Y-100532486D01*
X38625871Y-100598216D01*
X38623084Y-100638623D01*
X38634531Y-100720933D01*
X38667329Y-100789980D01*
X38719169Y-100846449D01*
X38787739Y-100891026D01*
X38848757Y-100917067D01*
X38916910Y-100937093D01*
X38991226Y-100951393D01*
X39070728Y-100960256D01*
X39154442Y-100963972D01*
X39183114Y-100964116D01*
X39250418Y-100962530D01*
X39343393Y-100955050D01*
X39426807Y-100941753D01*
X39500679Y-100922982D01*
X39565029Y-100899082D01*
X39636050Y-100859830D01*
X39690222Y-100812885D01*
X39727591Y-100759061D01*
X39750743Y-100683349D01*
X39752239Y-100667210D01*
X39747898Y-100598015D01*
X39725158Y-100531944D01*
X39688894Y-100471329D01*
X39673302Y-100422603D01*
X39708413Y-100364604D01*
X39754188Y-100348539D01*
X39814152Y-100377114D01*
X39826953Y-100393042D01*
X39861066Y-100450052D01*
X39884490Y-100512422D01*
X39897987Y-100578690D01*
X39902316Y-100647394D01*
X39895230Y-100726526D01*
X39874581Y-100800387D01*
X39840730Y-100868435D01*
X39794041Y-100930126D01*
X39734876Y-100984917D01*
X39663600Y-101032267D01*
X39580574Y-101071632D01*
X39518875Y-101093171D01*
X39452224Y-101110759D01*
X39380726Y-101124235D01*
X39304491Y-101133439D01*
X39223625Y-101138209D01*
X39181490Y-101138882D01*
X39096977Y-101137222D01*
X39017547Y-101131557D01*
X38943252Y-101121955D01*
X38874142Y-101108483D01*
X38810269Y-101091211D01*
X38724388Y-101058325D01*
X38650574Y-101017268D01*
X38589001Y-100968272D01*
X38539838Y-100911566D01*
X38503260Y-100847379D01*
X38479436Y-100775941D01*
X38468539Y-100697482D01*
X38467810Y-100669808D01*
X38471307Y-100603170D01*
X38484336Y-100532359D01*
X38506548Y-100469826D01*
X38541524Y-100409301D01*
X38554218Y-100392717D01*
G37*
G36*
X39153878Y-99305143D02*
G01*
X39153878Y-99909351D01*
X39130250Y-99973023D01*
X39071368Y-99998358D01*
X39009722Y-99969971D01*
X38988858Y-99909351D01*
X38988858Y-99305143D01*
X39013008Y-99241213D01*
X39072018Y-99216136D01*
X39133278Y-99244253D01*
X39153878Y-99305143D01*
G37*
G36*
X38959300Y-97983649D02*
G01*
X39036411Y-98004742D01*
X39104357Y-98042293D01*
X39160134Y-98096511D01*
X39193974Y-98152025D01*
X39216565Y-98218446D01*
X39226370Y-98295879D01*
X39226643Y-98316971D01*
X39246796Y-98241993D01*
X39285223Y-98174463D01*
X39330695Y-98126926D01*
X39387957Y-98089943D01*
X39456601Y-98065959D01*
X39536218Y-98057421D01*
X39605936Y-98062121D01*
X39684514Y-98082304D01*
X39747846Y-98117131D01*
X39797226Y-98165222D01*
X39833949Y-98225200D01*
X39859309Y-98295686D01*
X39874600Y-98375303D01*
X39880239Y-98440178D01*
X39881526Y-98485564D01*
X39880611Y-98554343D01*
X39877392Y-98620778D01*
X39874055Y-98663578D01*
X39859054Y-98728417D01*
X39797364Y-98761416D01*
X39754188Y-98764279D01*
X38607492Y-98763630D01*
X38539108Y-98750470D01*
X38497041Y-98696956D01*
X38488924Y-98655457D01*
X38474739Y-98587773D01*
X38471314Y-98522815D01*
X38471867Y-98483940D01*
X38613339Y-98483940D01*
X38614797Y-98551966D01*
X38620486Y-98607055D01*
X39133738Y-98607055D01*
X39136104Y-98563851D01*
X39257828Y-98563851D01*
X39257828Y-98607055D01*
X39739570Y-98607055D01*
X39744744Y-98539038D01*
X39745092Y-98494984D01*
X39741617Y-98425048D01*
X39728369Y-98353956D01*
X39698184Y-98290729D01*
X39641240Y-98244327D01*
X39571969Y-98225216D01*
X39514454Y-98221792D01*
X39443759Y-98229239D01*
X39372703Y-98258810D01*
X39317719Y-98312528D01*
X39284974Y-98376991D01*
X39267796Y-98442176D01*
X39258990Y-98520021D01*
X39257828Y-98563851D01*
X39136104Y-98563851D01*
X39137408Y-98540030D01*
X39138285Y-98491411D01*
X39135580Y-98416296D01*
X39126748Y-98348825D01*
X39105467Y-98276350D01*
X39070854Y-98218387D01*
X39020821Y-98176365D01*
X38953278Y-98151712D01*
X38885233Y-98145453D01*
X38807791Y-98152325D01*
X38743068Y-98173972D01*
X38682409Y-98221629D01*
X38646216Y-98281225D01*
X38623241Y-98360544D01*
X38614483Y-98439240D01*
X38613339Y-98483940D01*
X38471867Y-98483940D01*
X38472033Y-98472245D01*
X38477803Y-98390033D01*
X38490545Y-98314134D01*
X38510259Y-98244937D01*
X38536945Y-98182828D01*
X38583372Y-98111710D01*
X38642194Y-98054800D01*
X38713411Y-98013014D01*
X38774958Y-97992152D01*
X38843477Y-97980700D01*
X38893029Y-97978484D01*
X38959300Y-97983649D01*
G37*
G36*
X39776927Y-97666310D02*
G01*
X39007699Y-97336270D01*
X38573708Y-97336270D01*
X38512061Y-97315111D01*
X38488600Y-97253435D01*
X38512061Y-97191239D01*
X38573708Y-97170275D01*
X39007699Y-97170275D01*
X39750290Y-96849330D01*
X39810797Y-96824188D01*
X39818832Y-96823992D01*
X39872481Y-96863896D01*
X39881526Y-96907477D01*
X39856306Y-96967938D01*
X39816233Y-96991286D01*
X39170445Y-97250836D01*
X39835074Y-97510061D01*
X39889535Y-97546283D01*
X39902316Y-97590622D01*
X39881515Y-97653428D01*
X39837023Y-97679629D01*
X39776927Y-97666310D01*
G37*
G36*
X39153878Y-95781246D02*
G01*
X39153878Y-96385454D01*
X39130250Y-96449126D01*
X39071368Y-96474461D01*
X39009722Y-96446074D01*
X38988858Y-96385454D01*
X38988858Y-95781246D01*
X39013008Y-95717316D01*
X39072018Y-95692239D01*
X39133278Y-95720357D01*
X39153878Y-95781246D01*
G37*
G36*
X39772054Y-94663137D02*
G01*
X39705180Y-94665723D01*
X39632695Y-94666715D01*
X39556317Y-94666470D01*
X39477764Y-94665345D01*
X39398752Y-94663696D01*
X39321000Y-94661880D01*
X39290637Y-94661188D01*
X39213312Y-94659412D01*
X39136037Y-94657335D01*
X39058800Y-94655083D01*
X38981589Y-94652782D01*
X38904394Y-94650557D01*
X38827203Y-94648534D01*
X38750004Y-94646838D01*
X38672785Y-94645595D01*
X38659142Y-94642022D01*
X38672461Y-94647219D01*
X38739795Y-94670442D01*
X38810816Y-94694985D01*
X38884749Y-94720585D01*
X38960820Y-94746977D01*
X39038253Y-94773898D01*
X39116275Y-94801084D01*
X39194110Y-94828273D01*
X39270984Y-94855200D01*
X39346122Y-94881602D01*
X39418749Y-94907214D01*
X39488092Y-94931774D01*
X39553374Y-94955018D01*
X39641990Y-94986840D01*
X39717115Y-95014217D01*
X39758411Y-95029560D01*
X39818113Y-95057382D01*
X39867079Y-95103428D01*
X39881526Y-95161121D01*
X39864995Y-95224058D01*
X39809459Y-95265773D01*
X39775952Y-95274491D01*
X39704568Y-95280841D01*
X39638024Y-95283319D01*
X39557608Y-95284891D01*
X39484968Y-95285632D01*
X39406328Y-95286025D01*
X39322968Y-95286172D01*
X39279917Y-95286185D01*
X39208737Y-95286107D01*
X39137194Y-95286041D01*
X39065869Y-95285964D01*
X38995341Y-95285854D01*
X38926190Y-95285689D01*
X38858995Y-95285445D01*
X38773448Y-95284959D01*
X38693785Y-95284241D01*
X38621378Y-95283238D01*
X38588326Y-95282612D01*
X38524548Y-95268839D01*
X38489009Y-95209794D01*
X38488600Y-95199452D01*
X38525035Y-95142518D01*
X38588651Y-95131560D01*
X38659281Y-95132893D01*
X38738469Y-95134685D01*
X38806217Y-95136375D01*
X38876418Y-95138230D01*
X38947729Y-95140194D01*
X39018806Y-95142209D01*
X39088305Y-95144219D01*
X39122043Y-95145204D01*
X39192440Y-95146962D01*
X39262822Y-95148614D01*
X39333204Y-95150206D01*
X39403601Y-95151782D01*
X39474028Y-95153388D01*
X39544502Y-95155071D01*
X39615036Y-95156875D01*
X39685646Y-95158847D01*
X39698315Y-95161771D01*
X39685321Y-95158522D01*
X39615900Y-95134967D01*
X39541277Y-95109712D01*
X39462562Y-95083083D01*
X39380867Y-95055405D01*
X39297301Y-95027004D01*
X39212973Y-94998205D01*
X39128995Y-94969333D01*
X39046477Y-94940715D01*
X38966528Y-94912675D01*
X38890258Y-94885540D01*
X38818779Y-94859634D01*
X38753199Y-94835283D01*
X38668321Y-94802385D01*
X38602962Y-94774816D01*
X38572084Y-94759940D01*
X38518254Y-94722974D01*
X38489589Y-94662797D01*
X38488600Y-94641047D01*
X38507741Y-94573265D01*
X38560623Y-94535330D01*
X38626331Y-94520794D01*
X38634779Y-94519881D01*
X38706554Y-94515440D01*
X38780656Y-94514326D01*
X38852842Y-94514667D01*
X38919277Y-94515403D01*
X38991556Y-94516179D01*
X39006724Y-94516308D01*
X39076953Y-94516579D01*
X39149615Y-94517007D01*
X39224060Y-94517559D01*
X39299637Y-94518203D01*
X39375695Y-94518907D01*
X39451585Y-94519639D01*
X39526656Y-94520367D01*
X39600258Y-94521058D01*
X39671740Y-94521681D01*
X39740451Y-94522203D01*
X39784398Y-94522480D01*
X39850345Y-94538399D01*
X39881526Y-94597843D01*
X39851510Y-94655593D01*
X39784686Y-94664877D01*
X39770755Y-94663137D01*
X39772054Y-94663137D01*
G37*
G36*
X38554218Y-93344924D02*
G01*
X38606797Y-93303537D01*
X38624709Y-93300745D01*
X38685009Y-93330301D01*
X38698448Y-93362465D01*
X38678633Y-93422561D01*
X38644843Y-93484693D01*
X38625871Y-93550423D01*
X38623084Y-93590830D01*
X38634531Y-93673140D01*
X38667329Y-93742186D01*
X38719169Y-93798656D01*
X38787739Y-93843233D01*
X38848757Y-93869274D01*
X38916910Y-93889299D01*
X38991226Y-93903599D01*
X39070728Y-93912463D01*
X39154442Y-93916178D01*
X39183114Y-93916323D01*
X39250418Y-93914737D01*
X39343393Y-93907256D01*
X39426807Y-93893959D01*
X39500679Y-93875189D01*
X39565029Y-93851289D01*
X39636050Y-93812037D01*
X39690222Y-93765092D01*
X39727591Y-93711268D01*
X39750743Y-93635556D01*
X39752239Y-93619416D01*
X39747898Y-93550221D01*
X39725158Y-93484151D01*
X39688894Y-93423536D01*
X39673302Y-93374809D01*
X39708413Y-93316810D01*
X39754188Y-93300745D01*
X39814152Y-93329320D01*
X39826953Y-93345249D01*
X39861066Y-93402259D01*
X39884490Y-93464628D01*
X39897987Y-93530896D01*
X39902316Y-93599601D01*
X39895230Y-93678733D01*
X39874581Y-93752594D01*
X39840730Y-93820641D01*
X39794041Y-93882332D01*
X39734876Y-93937124D01*
X39663600Y-93984473D01*
X39580574Y-94023838D01*
X39518875Y-94045377D01*
X39452224Y-94062965D01*
X39380726Y-94076442D01*
X39304491Y-94085645D01*
X39223625Y-94090416D01*
X39181490Y-94091088D01*
X39096977Y-94089428D01*
X39017547Y-94083763D01*
X38943252Y-94074161D01*
X38874142Y-94060690D01*
X38810269Y-94043418D01*
X38724388Y-94010531D01*
X38650574Y-93969475D01*
X38589001Y-93920479D01*
X38539838Y-93863773D01*
X38503260Y-93799586D01*
X38479436Y-93728148D01*
X38468539Y-93649689D01*
X38467810Y-93622015D01*
X38471307Y-93555376D01*
X38484336Y-93484566D01*
X38506548Y-93422033D01*
X38541524Y-93361508D01*
X38554218Y-93344924D01*
G37*
G36*
X39153878Y-92257349D02*
G01*
X39153878Y-92861557D01*
X39130250Y-92925229D01*
X39071368Y-92950564D01*
X39009722Y-92922177D01*
X38988858Y-92861557D01*
X38988858Y-92257349D01*
X39013008Y-92193420D01*
X39072018Y-92168342D01*
X39133278Y-92196460D01*
X39153878Y-92257349D01*
G37*
G36*
X39798691Y-91023921D02*
G01*
X39831551Y-91083098D01*
X39854826Y-91147324D01*
X39871579Y-91219469D01*
X39879726Y-91284935D01*
X39881526Y-91329273D01*
X39877875Y-91399496D01*
X39866633Y-91464510D01*
X39840520Y-91542556D01*
X39802546Y-91610055D01*
X39753646Y-91666273D01*
X39694750Y-91710475D01*
X39626793Y-91741926D01*
X39550706Y-91759892D01*
X39509906Y-91763588D01*
X39442639Y-91761748D01*
X39366162Y-91744593D01*
X39298372Y-91710788D01*
X39239522Y-91660177D01*
X39199048Y-91607483D01*
X39164588Y-91543853D01*
X39136269Y-91469207D01*
X39130164Y-91448815D01*
X39112010Y-91386242D01*
X39096381Y-91333496D01*
X39073481Y-91268582D01*
X39039836Y-91208283D01*
X38990311Y-91160460D01*
X38927607Y-91134816D01*
X38861686Y-91128835D01*
X38849500Y-91129170D01*
X38784912Y-91139219D01*
X38721852Y-91168855D01*
X38674625Y-91216125D01*
X38643309Y-91279397D01*
X38629420Y-91343170D01*
X38626333Y-91400739D01*
X38631623Y-91469579D01*
X38647937Y-91538141D01*
X38676034Y-91604202D01*
X38706569Y-91654766D01*
X38727799Y-91717709D01*
X38700722Y-91775282D01*
X38638374Y-91794368D01*
X38583778Y-91765537D01*
X38544006Y-91708405D01*
X38515295Y-91648809D01*
X38490970Y-91577255D01*
X38476273Y-91510050D01*
X38468548Y-91437290D01*
X38467810Y-91406911D01*
X38472217Y-91332320D01*
X38485081Y-91263351D01*
X38505866Y-91200335D01*
X38544974Y-91126140D01*
X38595937Y-91063892D01*
X38657485Y-91014371D01*
X38728347Y-90978357D01*
X38807250Y-90956630D01*
X38870940Y-90950181D01*
X38943745Y-90953201D01*
X39008450Y-90967154D01*
X39078542Y-90999460D01*
X39137369Y-91047670D01*
X39185703Y-91111132D01*
X39217335Y-91172442D01*
X39243144Y-91242758D01*
X39248732Y-91261706D01*
X39266598Y-91324806D01*
X39284465Y-91388394D01*
X39308835Y-91456824D01*
X39343534Y-91518441D01*
X39392007Y-91565347D01*
X39458667Y-91591057D01*
X39517052Y-91594345D01*
X39590585Y-91581310D01*
X39650327Y-91548995D01*
X39695097Y-91498813D01*
X39723713Y-91432177D01*
X39734368Y-91365098D01*
X39734697Y-91320177D01*
X39726931Y-91254686D01*
X39709832Y-91191524D01*
X39683135Y-91129263D01*
X39673302Y-91110654D01*
X39662277Y-91046540D01*
X39696366Y-90998583D01*
X39763660Y-90994434D01*
X39798691Y-91023921D01*
G37*
G36*
X38597097Y-89749237D02*
G01*
X39788296Y-90075054D01*
X39851913Y-90100539D01*
X39894779Y-90150063D01*
X39902316Y-90195571D01*
X39885597Y-90259530D01*
X39831039Y-90304356D01*
X39786672Y-90321285D01*
X38600021Y-90677638D01*
X38545122Y-90682836D01*
X38494437Y-90639750D01*
X38488600Y-90606822D01*
X38510957Y-90543924D01*
X38555517Y-90518790D01*
X38868666Y-90430433D01*
X38868666Y-90394375D01*
X39008348Y-90394375D01*
X39707101Y-90203365D01*
X39008348Y-90027627D01*
X39008348Y-90394375D01*
X38868666Y-90394375D01*
X38868666Y-89994168D01*
X38563638Y-89910684D01*
X38506141Y-89879986D01*
X38488600Y-89822002D01*
X38514777Y-89759523D01*
X38548695Y-89745014D01*
X38597097Y-89749237D01*
G37*
G36*
X39786347Y-87829090D02*
G01*
X39833449Y-87819669D01*
X39891490Y-87853930D01*
X39902316Y-87898606D01*
X39877489Y-87959320D01*
X39838972Y-87982091D01*
X39004125Y-88265354D01*
X38940629Y-88283078D01*
X38928762Y-88283870D01*
X38866392Y-88254959D01*
X38843677Y-88193278D01*
X38842029Y-88164653D01*
X38842029Y-87779064D01*
X38546097Y-87779064D01*
X38484177Y-87753514D01*
X38467810Y-87699802D01*
X38491591Y-87637705D01*
X38546097Y-87619891D01*
X38842029Y-87619891D01*
X38842029Y-87416864D01*
X38879670Y-87362251D01*
X38914469Y-87354819D01*
X38973651Y-87381732D01*
X38985609Y-87416864D01*
X38985609Y-87619891D01*
X39272770Y-87619891D01*
X39335506Y-87643401D01*
X39356580Y-87699802D01*
X39329927Y-87760570D01*
X39272770Y-87779064D01*
X38985609Y-87779064D01*
X38985609Y-88105531D01*
X39786347Y-87829090D01*
G37*
G36*
X38460663Y-86723324D02*
G01*
X38476748Y-86655033D01*
X38519654Y-86601176D01*
X38581359Y-86569559D01*
X38620811Y-86564476D01*
X38688677Y-86580366D01*
X38742644Y-86622831D01*
X38774516Y-86684067D01*
X38779659Y-86723324D01*
X38763603Y-86791945D01*
X38720899Y-86846156D01*
X38659743Y-86878021D01*
X38620811Y-86883147D01*
X38552127Y-86867125D01*
X38497787Y-86824349D01*
X38465811Y-86762754D01*
X38460663Y-86723324D01*
G37*
G36*
X39255401Y-85384811D02*
G01*
X39303584Y-85428464D01*
X39326619Y-85489223D01*
X39327344Y-85502564D01*
X39310517Y-85566445D01*
X39266579Y-85614657D01*
X39205344Y-85637627D01*
X39191885Y-85638349D01*
X39127854Y-85621577D01*
X39079347Y-85577647D01*
X39056180Y-85516134D01*
X39055451Y-85502564D01*
X39072373Y-85439561D01*
X39116596Y-85391702D01*
X39178308Y-85368801D01*
X39191885Y-85368079D01*
X39255401Y-85384811D01*
G37*
G36*
X39274113Y-85089111D02*
G01*
X39354755Y-85093344D01*
X39429903Y-85100761D01*
X39499546Y-85111357D01*
X39563676Y-85125130D01*
X39649510Y-85151739D01*
X39722881Y-85185477D01*
X39783755Y-85226333D01*
X39832099Y-85274295D01*
X39867879Y-85329352D01*
X39891062Y-85391493D01*
X39901612Y-85460707D01*
X39902316Y-85485348D01*
X39895994Y-85557942D01*
X39877023Y-85624791D01*
X39845397Y-85685614D01*
X39801110Y-85740128D01*
X39744154Y-85788054D01*
X39674525Y-85829110D01*
X39592214Y-85863015D01*
X39497217Y-85889488D01*
X39426833Y-85902869D01*
X39350806Y-85912739D01*
X39269134Y-85919014D01*
X39181814Y-85921612D01*
X39096384Y-85920642D01*
X39016259Y-85916392D01*
X38941466Y-85908866D01*
X38872036Y-85898066D01*
X38807996Y-85883994D01*
X38722105Y-85856756D01*
X38648503Y-85822169D01*
X38587287Y-85780243D01*
X38538552Y-85730984D01*
X38502395Y-85674400D01*
X38478913Y-85610500D01*
X38468201Y-85539293D01*
X38467485Y-85513934D01*
X38468101Y-85507112D01*
X38613339Y-85507112D01*
X38625172Y-85573954D01*
X38661939Y-85632088D01*
X38717921Y-85676373D01*
X38741652Y-85689349D01*
X38810101Y-85716890D01*
X38883543Y-85735798D01*
X38953983Y-85747899D01*
X39031871Y-85756398D01*
X39098943Y-85760429D01*
X39169753Y-85761855D01*
X39187986Y-85761789D01*
X39263117Y-85759813D01*
X39335491Y-85754964D01*
X39404449Y-85747034D01*
X39469328Y-85735814D01*
X39540866Y-85717716D01*
X39604435Y-85694222D01*
X39662169Y-85663389D01*
X39712929Y-85620461D01*
X39748513Y-85561199D01*
X39759060Y-85497692D01*
X39747047Y-85429453D01*
X39709779Y-85370981D01*
X39653120Y-85327542D01*
X39629123Y-85315130D01*
X39561752Y-85290091D01*
X39490421Y-85272650D01*
X39421400Y-85261383D01*
X39343671Y-85253435D01*
X39275218Y-85249687D01*
X39201192Y-85248439D01*
X39181814Y-85248537D01*
X39113848Y-85250224D01*
X39048847Y-85253872D01*
X38972387Y-85261298D01*
X38901992Y-85272042D01*
X38838458Y-85286245D01*
X38772394Y-85308053D01*
X38743926Y-85320977D01*
X38686520Y-85357324D01*
X38641805Y-85406400D01*
X38616487Y-85470942D01*
X38613339Y-85507112D01*
X38468101Y-85507112D01*
X38473947Y-85442422D01*
X38493279Y-85376777D01*
X38525401Y-85317230D01*
X38570233Y-85264013D01*
X38627694Y-85217357D01*
X38697704Y-85177493D01*
X38780183Y-85144653D01*
X38875051Y-85119067D01*
X38945139Y-85106154D01*
X39020673Y-85096638D01*
X39101630Y-85090585D01*
X39187986Y-85088065D01*
X39274113Y-85089111D01*
G37*
D10*
G36*
X44367018Y-143606437D02*
G01*
X46606114Y-144218876D01*
X46720064Y-144263337D01*
X46798816Y-144365289D01*
X46805783Y-144426482D01*
X46772764Y-144544258D01*
X46672232Y-144618461D01*
X46602451Y-144643859D01*
X44371903Y-145313695D01*
X44276038Y-145322854D01*
X44190713Y-145231538D01*
X44187500Y-145198900D01*
X44236152Y-145082615D01*
X44299241Y-145052965D01*
X44901910Y-144882606D01*
X44901910Y-144825819D01*
X45125392Y-144825819D01*
X46470560Y-144458234D01*
X46470560Y-144424040D01*
X45125392Y-144085764D01*
X45125392Y-144825819D01*
X44901910Y-144825819D01*
X44901910Y-144033251D01*
X44313895Y-143872051D01*
X44204977Y-143807571D01*
X44187500Y-143724895D01*
X44240006Y-143613110D01*
X44282754Y-143599110D01*
X44367018Y-143606437D01*
G37*
G36*
X46600008Y-142970184D02*
G01*
X45172409Y-142970184D01*
X45035507Y-142968329D01*
X44913360Y-142962811D01*
X44789602Y-142951840D01*
X44660325Y-142930739D01*
X44613703Y-142918893D01*
X44484960Y-142867372D01*
X44375374Y-142794587D01*
X44286037Y-142701281D01*
X44218037Y-142588194D01*
X44172466Y-142456066D01*
X44150413Y-142305638D01*
X44148421Y-142240509D01*
X44160742Y-142101717D01*
X44197082Y-141968343D01*
X44256504Y-141844998D01*
X44338073Y-141736293D01*
X44440850Y-141646841D01*
X44563901Y-141581254D01*
X44618588Y-141562735D01*
X44744430Y-141535366D01*
X44875415Y-141518955D01*
X45012911Y-141509818D01*
X45148253Y-141506628D01*
X45172409Y-141506559D01*
X46600008Y-141506559D01*
X46721821Y-141534492D01*
X46766704Y-141646999D01*
X46710443Y-141759633D01*
X46600008Y-141779501D01*
X46469696Y-141779315D01*
X46332486Y-141778814D01*
X46190467Y-141778084D01*
X46045730Y-141777211D01*
X45900362Y-141776281D01*
X45756454Y-141775379D01*
X45616096Y-141774592D01*
X45481376Y-141774005D01*
X45358363Y-141774154D01*
X45234207Y-141774814D01*
X45101613Y-141776729D01*
X44984342Y-141780722D01*
X44851449Y-141791132D01*
X44725913Y-141812051D01*
X44609798Y-141853340D01*
X44600881Y-141858269D01*
X44502534Y-141935585D01*
X44429514Y-142048498D01*
X44397854Y-142174872D01*
X44394495Y-142238677D01*
X44411168Y-142372945D01*
X44460642Y-142486311D01*
X44553093Y-142584190D01*
X44600881Y-142614200D01*
X44719452Y-142658733D01*
X44843035Y-142681512D01*
X44954422Y-142692358D01*
X45080893Y-142698594D01*
X45213416Y-142701684D01*
X45336951Y-142702696D01*
X45370245Y-142702739D01*
X45512453Y-142702450D01*
X45664463Y-142701689D01*
X45823085Y-142700613D01*
X45985127Y-142699380D01*
X46147398Y-142698147D01*
X46306707Y-142697071D01*
X46459862Y-142696310D01*
X46603672Y-142696022D01*
X46723995Y-142721763D01*
X46766704Y-142829134D01*
X46716595Y-142945649D01*
X46600008Y-142970184D01*
G37*
G36*
X45703803Y-139212094D02*
G01*
X45831186Y-139221704D01*
X46009420Y-139249092D01*
X46171361Y-139293482D01*
X46316018Y-139356490D01*
X46442395Y-139439730D01*
X46549501Y-139544819D01*
X46636342Y-139673369D01*
X46701926Y-139826998D01*
X46745258Y-140007320D01*
X46761293Y-140143161D01*
X46766704Y-140292062D01*
X46762957Y-140422028D01*
X46752741Y-140550561D01*
X46750218Y-140572941D01*
X46712866Y-140690793D01*
X46603313Y-140753811D01*
X46499869Y-140762229D01*
X44427468Y-140762229D01*
X44299225Y-140746342D01*
X44204529Y-140658215D01*
X44187500Y-140588206D01*
X44174922Y-140460442D01*
X44174066Y-140376936D01*
X44178209Y-140293893D01*
X44421973Y-140293893D01*
X44423541Y-140419336D01*
X44432353Y-140496004D01*
X46517576Y-140496004D01*
X46528057Y-140369968D01*
X46529788Y-140246266D01*
X46516522Y-140103886D01*
X46489406Y-139977652D01*
X46429866Y-139833651D01*
X46341286Y-139716415D01*
X46221139Y-139624835D01*
X46108794Y-139572319D01*
X45976206Y-139533144D01*
X45822310Y-139506840D01*
X45646040Y-139492941D01*
X45515570Y-139490334D01*
X45380090Y-139493476D01*
X45254475Y-139502898D01*
X45084120Y-139528809D01*
X44934859Y-139568848D01*
X44806031Y-139623013D01*
X44696975Y-139691301D01*
X44581180Y-139804314D01*
X44497793Y-139942422D01*
X44455577Y-140062467D01*
X44430048Y-140196621D01*
X44421973Y-140293893D01*
X44178209Y-140293893D01*
X44180585Y-140246274D01*
X44195650Y-140121931D01*
X44235306Y-139947905D01*
X44296857Y-139789745D01*
X44381901Y-139648442D01*
X44492040Y-139524986D01*
X44628872Y-139420367D01*
X44793998Y-139335575D01*
X44920591Y-139290551D01*
X45060943Y-139255073D01*
X45215531Y-139229433D01*
X45384826Y-139213926D01*
X45569303Y-139208845D01*
X45569914Y-139208845D01*
X45703803Y-139212094D01*
G37*
G36*
X46727625Y-137277494D02*
G01*
X46727625Y-138394295D01*
X46662418Y-138498429D01*
X46608557Y-138509699D01*
X46496325Y-138450613D01*
X46482161Y-138394295D01*
X46482161Y-137972976D01*
X44437848Y-137972976D01*
X44437848Y-138477337D01*
X44366418Y-138577028D01*
X44309621Y-138586636D01*
X44198080Y-138526873D01*
X44187500Y-138477337D01*
X44187500Y-137186514D01*
X44254907Y-137079073D01*
X44310842Y-137067445D01*
X44420444Y-137123724D01*
X44437848Y-137186514D01*
X44437848Y-137706751D01*
X46482161Y-137706751D01*
X46482161Y-137277494D01*
X46552924Y-137173605D01*
X46609167Y-137162090D01*
X46717359Y-137227520D01*
X46727625Y-137277494D01*
G37*
G36*
X45640445Y-134813518D02*
G01*
X45791375Y-134821238D01*
X45931744Y-134835035D01*
X46061577Y-134854920D01*
X46236616Y-134896190D01*
X46388073Y-134951224D01*
X46516021Y-135020061D01*
X46620536Y-135102742D01*
X46701695Y-135199305D01*
X46759572Y-135309789D01*
X46794243Y-135434234D01*
X46805783Y-135572679D01*
X46794236Y-135713335D01*
X46759519Y-135842374D01*
X46701518Y-135959352D01*
X46620118Y-136063826D01*
X46515203Y-136155350D01*
X46386660Y-136233483D01*
X46234373Y-136297780D01*
X46058228Y-136347797D01*
X45927487Y-136372990D01*
X45786057Y-136391507D01*
X45633905Y-136403217D01*
X45470996Y-136407990D01*
X45311444Y-136406263D01*
X45162069Y-136398324D01*
X45022887Y-136384158D01*
X44893915Y-136363749D01*
X44719633Y-136321399D01*
X44568413Y-136264918D01*
X44440308Y-136194255D01*
X44335374Y-136109359D01*
X44253663Y-136010178D01*
X44195231Y-135896660D01*
X44160132Y-135768756D01*
X44148421Y-135626413D01*
X44149510Y-135613590D01*
X44390832Y-135613590D01*
X44410488Y-135743804D01*
X44469838Y-135855263D01*
X44569453Y-135948048D01*
X44642402Y-135991556D01*
X44772398Y-136042366D01*
X44911143Y-136077418D01*
X45043795Y-136099933D01*
X45190126Y-136115796D01*
X45315904Y-136123339D01*
X45448489Y-136126013D01*
X45482597Y-136125889D01*
X45615402Y-136122296D01*
X45740979Y-136114316D01*
X45886982Y-136098293D01*
X46019830Y-136075693D01*
X46138490Y-136046670D01*
X46260698Y-136003580D01*
X46313023Y-135978733D01*
X46425127Y-135904659D01*
X46512794Y-135803569D01*
X46559908Y-135684620D01*
X46568867Y-135595882D01*
X46548880Y-135463396D01*
X46488375Y-135351686D01*
X46386538Y-135261239D01*
X46311802Y-135220359D01*
X46184714Y-135172573D01*
X46050283Y-135139283D01*
X45920387Y-135117742D01*
X45774335Y-135102478D01*
X45645917Y-135095191D01*
X45507256Y-135092614D01*
X45470996Y-135092742D01*
X45333737Y-135096670D01*
X45205601Y-135104706D01*
X45058643Y-135120330D01*
X44926820Y-135141919D01*
X44789301Y-135175346D01*
X44658426Y-135224161D01*
X44642402Y-135231960D01*
X44531739Y-135303611D01*
X44445609Y-135403235D01*
X44399554Y-135522837D01*
X44390832Y-135613590D01*
X44149510Y-135613590D01*
X44160197Y-135487792D01*
X44195493Y-135361023D01*
X44254256Y-135246462D01*
X44336436Y-135144465D01*
X44441981Y-135055388D01*
X44570840Y-134979587D01*
X44722961Y-134917420D01*
X44898294Y-134869241D01*
X45028052Y-134845069D01*
X45168088Y-134827378D01*
X45318387Y-134816274D01*
X45478934Y-134811863D01*
X45640445Y-134813518D01*
G37*
G36*
X46727625Y-130476552D02*
G01*
X46727625Y-131917585D01*
X46672259Y-132030702D01*
X46608557Y-132044591D01*
X46502031Y-131982765D01*
X46489488Y-131913921D01*
X46489488Y-131347889D01*
X44348700Y-131347889D01*
X44229844Y-131317110D01*
X44187500Y-131206838D01*
X44239082Y-131093414D01*
X44348700Y-131070062D01*
X46489488Y-131070062D01*
X46489488Y-130479605D01*
X46541548Y-130366927D01*
X46611610Y-130350157D01*
X46717741Y-130416016D01*
X46727625Y-130476552D01*
G37*
G36*
X46766704Y-128403541D02*
G01*
X46716608Y-128518409D01*
X46618937Y-128543981D01*
X45629754Y-128543981D01*
X45629754Y-129435467D01*
X46618937Y-129435467D01*
X46737400Y-129476239D01*
X46766704Y-129571632D01*
X46716608Y-129687281D01*
X46618937Y-129713293D01*
X44332824Y-129713293D01*
X44216523Y-129670911D01*
X44187500Y-129572854D01*
X44235414Y-129460116D01*
X44332824Y-129435467D01*
X45398944Y-129435467D01*
X45398944Y-128543981D01*
X44332824Y-128543981D01*
X44216523Y-128501598D01*
X44187500Y-128403541D01*
X44240850Y-128288080D01*
X44332824Y-128267376D01*
X46618937Y-128267376D01*
X46737400Y-128307663D01*
X46766704Y-128403541D01*
G37*
G36*
X46727625Y-126237718D02*
G01*
X46727625Y-127354518D01*
X46662418Y-127458653D01*
X46608557Y-127469923D01*
X46496325Y-127410837D01*
X46482161Y-127354518D01*
X46482161Y-126933199D01*
X44437848Y-126933199D01*
X44437848Y-127437561D01*
X44366418Y-127537251D01*
X44309621Y-127546859D01*
X44198080Y-127487096D01*
X44187500Y-127437561D01*
X44187500Y-126146737D01*
X44254907Y-126039296D01*
X44310842Y-126027669D01*
X44420444Y-126083947D01*
X44437848Y-126146737D01*
X44437848Y-126666974D01*
X46482161Y-126666974D01*
X46482161Y-126237718D01*
X46552924Y-126133829D01*
X46609167Y-126122313D01*
X46717359Y-126187743D01*
X46727625Y-126237718D01*
G37*
G36*
X46580469Y-124120743D02*
G01*
X46455009Y-124117801D01*
X46318927Y-124114279D01*
X46175467Y-124110398D01*
X46027869Y-124106384D01*
X45879377Y-124102459D01*
X45733234Y-124098847D01*
X45676160Y-124097540D01*
X45530811Y-124094202D01*
X45385549Y-124090298D01*
X45240344Y-124086066D01*
X45095167Y-124081740D01*
X44949990Y-124077558D01*
X44804785Y-124073755D01*
X44659523Y-124070567D01*
X44514174Y-124068230D01*
X44468989Y-124081053D01*
X44506847Y-124109141D01*
X44633516Y-124152793D01*
X44767088Y-124198927D01*
X44906112Y-124247046D01*
X45049133Y-124296655D01*
X45194698Y-124347259D01*
X45341353Y-124398361D01*
X45487644Y-124449468D01*
X45632120Y-124500082D01*
X45773325Y-124549709D01*
X45909806Y-124597853D01*
X46040111Y-124644019D01*
X46162785Y-124687710D01*
X46329309Y-124747525D01*
X46470489Y-124798986D01*
X46548107Y-124827826D01*
X46665908Y-124883491D01*
X46750385Y-124972940D01*
X46766704Y-125056803D01*
X46729772Y-125178669D01*
X46615757Y-125243913D01*
X46584743Y-125250366D01*
X46451554Y-125262301D01*
X46327106Y-125266959D01*
X46176528Y-125269915D01*
X46040371Y-125271308D01*
X45892836Y-125272046D01*
X45736300Y-125272322D01*
X45655399Y-125272348D01*
X45521602Y-125272201D01*
X45387128Y-125272077D01*
X45253067Y-125271932D01*
X45120514Y-125271725D01*
X44990562Y-125271414D01*
X44864302Y-125270955D01*
X44703589Y-125270042D01*
X44553974Y-125268693D01*
X44418048Y-125266807D01*
X44356027Y-125265631D01*
X44233608Y-125236675D01*
X44187500Y-125128855D01*
X44266073Y-125030299D01*
X44356027Y-125020778D01*
X44488546Y-125023283D01*
X44637227Y-125026652D01*
X44764483Y-125029828D01*
X44896383Y-125033315D01*
X45030394Y-125037007D01*
X45163983Y-125040795D01*
X45294616Y-125044572D01*
X45358033Y-125046423D01*
X45490359Y-125049729D01*
X45622655Y-125052834D01*
X45754952Y-125055825D01*
X45887277Y-125058788D01*
X46019660Y-125061808D01*
X46152128Y-125064970D01*
X46284711Y-125068362D01*
X46417437Y-125072069D01*
X46461400Y-125058025D01*
X46423543Y-125033600D01*
X46293072Y-124989324D01*
X46152864Y-124941854D01*
X46005001Y-124891805D01*
X45851566Y-124839790D01*
X45694643Y-124786422D01*
X45536315Y-124732316D01*
X45378665Y-124678084D01*
X45223776Y-124624341D01*
X45073731Y-124571700D01*
X44930614Y-124520774D01*
X44796508Y-124472177D01*
X44673495Y-124426523D01*
X44514334Y-124364902D01*
X44391851Y-124313354D01*
X44334045Y-124285607D01*
X44232318Y-124214814D01*
X44187649Y-124099276D01*
X44187500Y-124079832D01*
X44225528Y-123954510D01*
X44334074Y-123890239D01*
X44444565Y-123871004D01*
X44578593Y-123862656D01*
X44717242Y-123860562D01*
X44852572Y-123861203D01*
X44977342Y-123862588D01*
X45113315Y-123864045D01*
X45141878Y-123864288D01*
X45273888Y-123864798D01*
X45410471Y-123865603D01*
X45550404Y-123866640D01*
X45692466Y-123867851D01*
X45835433Y-123869175D01*
X45978084Y-123870551D01*
X46119195Y-123871918D01*
X46257543Y-123873218D01*
X46391907Y-123874388D01*
X46521064Y-123875370D01*
X46603672Y-123875889D01*
X46727320Y-123908099D01*
X46766704Y-123998011D01*
X46698368Y-124105201D01*
X46578026Y-124120743D01*
X46580469Y-124120743D01*
G37*
G36*
X44382894Y-121578175D02*
G01*
X45380626Y-121578175D01*
X45494131Y-121628621D01*
X45512517Y-121710066D01*
X45512517Y-122236409D01*
X45456883Y-122348775D01*
X45393449Y-122363415D01*
X45291096Y-122292747D01*
X45281707Y-122236409D01*
X45281707Y-121849895D01*
X45142579Y-121846546D01*
X44996866Y-121844743D01*
X44872256Y-121844421D01*
X44746331Y-121845172D01*
X44620574Y-121846997D01*
X44496467Y-121849895D01*
X44435072Y-121957915D01*
X44403686Y-122078054D01*
X44395717Y-122184508D01*
X44412596Y-122334171D01*
X44463322Y-122462811D01*
X44548022Y-122570757D01*
X44666826Y-122658339D01*
X44778387Y-122710859D01*
X44909257Y-122752247D01*
X45059492Y-122782644D01*
X45229145Y-122802187D01*
X45353062Y-122809254D01*
X45485650Y-122811601D01*
X45614270Y-122809072D01*
X45792283Y-122795830D01*
X45952249Y-122771320D01*
X46094007Y-122735621D01*
X46217392Y-122688810D01*
X46353045Y-122609248D01*
X46455361Y-122510259D01*
X46523952Y-122392028D01*
X46558433Y-122254743D01*
X46562761Y-122179012D01*
X46552528Y-122047741D01*
X46513116Y-121921103D01*
X46447056Y-121804706D01*
X46407056Y-121747313D01*
X46393253Y-121621766D01*
X46492681Y-121543936D01*
X46509028Y-121542759D01*
X46615273Y-121600157D01*
X46684778Y-121704231D01*
X46744130Y-121827935D01*
X46782373Y-121953551D01*
X46801924Y-122080504D01*
X46805783Y-122171685D01*
X46793066Y-122330220D01*
X46755378Y-122475124D01*
X46693408Y-122605969D01*
X46607850Y-122722326D01*
X46499392Y-122823766D01*
X46368728Y-122909861D01*
X46216549Y-122980182D01*
X46043545Y-123034301D01*
X45916981Y-123061167D01*
X45781674Y-123080514D01*
X45637829Y-123092215D01*
X45485650Y-123096144D01*
X45331274Y-123093003D01*
X45185410Y-123083497D01*
X45048259Y-123067498D01*
X44920018Y-123044882D01*
X44800886Y-123015521D01*
X44639702Y-122958559D01*
X44500130Y-122885713D01*
X44382841Y-122796559D01*
X44288504Y-122690669D01*
X44217790Y-122567618D01*
X44171369Y-122426982D01*
X44149910Y-122268333D01*
X44148421Y-122211374D01*
X44157658Y-122076213D01*
X44184452Y-121945392D01*
X44227427Y-121821831D01*
X44285206Y-121708453D01*
X44356412Y-121608181D01*
X44382894Y-121578175D01*
G37*
G36*
X46580469Y-117496877D02*
G01*
X46455009Y-117493935D01*
X46318927Y-117490413D01*
X46175467Y-117486532D01*
X46027869Y-117482518D01*
X45879377Y-117478593D01*
X45733234Y-117474981D01*
X45676160Y-117473674D01*
X45530811Y-117470336D01*
X45385549Y-117466432D01*
X45240344Y-117462200D01*
X45095167Y-117457874D01*
X44949990Y-117453692D01*
X44804785Y-117449889D01*
X44659523Y-117446701D01*
X44514174Y-117444364D01*
X44468989Y-117457187D01*
X44506847Y-117485275D01*
X44633516Y-117528927D01*
X44767088Y-117575061D01*
X44906112Y-117623180D01*
X45049133Y-117672789D01*
X45194698Y-117723393D01*
X45341353Y-117774495D01*
X45487644Y-117825602D01*
X45632120Y-117876216D01*
X45773325Y-117925843D01*
X45909806Y-117973987D01*
X46040111Y-118020153D01*
X46162785Y-118063844D01*
X46329309Y-118123659D01*
X46470489Y-118175120D01*
X46548107Y-118203960D01*
X46665908Y-118259625D01*
X46750385Y-118349074D01*
X46766704Y-118432937D01*
X46729772Y-118554803D01*
X46615757Y-118620047D01*
X46584743Y-118626500D01*
X46451554Y-118638435D01*
X46327106Y-118643093D01*
X46176528Y-118646049D01*
X46040371Y-118647442D01*
X45892836Y-118648180D01*
X45736300Y-118648456D01*
X45655399Y-118648482D01*
X45521602Y-118648335D01*
X45387128Y-118648211D01*
X45253067Y-118648066D01*
X45120514Y-118647859D01*
X44990562Y-118647548D01*
X44864302Y-118647089D01*
X44703589Y-118646176D01*
X44553974Y-118644827D01*
X44418048Y-118642941D01*
X44356027Y-118641765D01*
X44233608Y-118612809D01*
X44187500Y-118504989D01*
X44266073Y-118406433D01*
X44356027Y-118396912D01*
X44488546Y-118399417D01*
X44637227Y-118402786D01*
X44764483Y-118405962D01*
X44896383Y-118409449D01*
X45030394Y-118413141D01*
X45163983Y-118416929D01*
X45294616Y-118420706D01*
X45358033Y-118422557D01*
X45490359Y-118425863D01*
X45622655Y-118428968D01*
X45754952Y-118431959D01*
X45887277Y-118434922D01*
X46019660Y-118437942D01*
X46152128Y-118441104D01*
X46284711Y-118444496D01*
X46417437Y-118448203D01*
X46461400Y-118434159D01*
X46423543Y-118409734D01*
X46293072Y-118365458D01*
X46152864Y-118317988D01*
X46005001Y-118267939D01*
X45851566Y-118215924D01*
X45694643Y-118162556D01*
X45536315Y-118108450D01*
X45378665Y-118054218D01*
X45223776Y-118000475D01*
X45073731Y-117947834D01*
X44930614Y-117896908D01*
X44796508Y-117848311D01*
X44673495Y-117802657D01*
X44514334Y-117741036D01*
X44391851Y-117689488D01*
X44334045Y-117661741D01*
X44232318Y-117590948D01*
X44187649Y-117475410D01*
X44187500Y-117455966D01*
X44225528Y-117330644D01*
X44334074Y-117266372D01*
X44444565Y-117247138D01*
X44578593Y-117238790D01*
X44717242Y-117236696D01*
X44852572Y-117237337D01*
X44977342Y-117238722D01*
X45113315Y-117240179D01*
X45141878Y-117240422D01*
X45273888Y-117240932D01*
X45410471Y-117241737D01*
X45550404Y-117242774D01*
X45692466Y-117243985D01*
X45835433Y-117245309D01*
X45978084Y-117246685D01*
X46119195Y-117248052D01*
X46257543Y-117249352D01*
X46391907Y-117250522D01*
X46521064Y-117251504D01*
X46603672Y-117252023D01*
X46727320Y-117284233D01*
X46766704Y-117374145D01*
X46698368Y-117481335D01*
X46578026Y-117496877D01*
X46580469Y-117496877D01*
G37*
G36*
X44367018Y-114903018D02*
G01*
X46606114Y-115515457D01*
X46720064Y-115559918D01*
X46798816Y-115661870D01*
X46805783Y-115723063D01*
X46772764Y-115840838D01*
X46672232Y-115915041D01*
X46602451Y-115940439D01*
X44371903Y-116610275D01*
X44276038Y-116619434D01*
X44190713Y-116528119D01*
X44187500Y-116495481D01*
X44236152Y-116379196D01*
X44299241Y-116349546D01*
X44901910Y-116179187D01*
X44901910Y-116122400D01*
X45125392Y-116122400D01*
X46470560Y-115754815D01*
X46470560Y-115720621D01*
X45125392Y-115382344D01*
X45125392Y-116122400D01*
X44901910Y-116122400D01*
X44901910Y-115329832D01*
X44313895Y-115168632D01*
X44204977Y-115104151D01*
X44187500Y-115021475D01*
X44240006Y-114909690D01*
X44282754Y-114895690D01*
X44367018Y-114903018D01*
G37*
G36*
X45757981Y-113515108D02*
G01*
X45736610Y-113537090D01*
X45757981Y-113558461D01*
X45883904Y-113598045D01*
X46006536Y-113637573D01*
X46123730Y-113676356D01*
X46259304Y-113722742D01*
X46378834Y-113765550D01*
X46495189Y-113810308D01*
X46552991Y-113835066D01*
X46661072Y-113892944D01*
X46741826Y-113994841D01*
X46748996Y-114050610D01*
X46716582Y-114172206D01*
X46616959Y-114244613D01*
X46482962Y-114271011D01*
X46465064Y-114272260D01*
X46316052Y-114277356D01*
X46171428Y-114279680D01*
X46043403Y-114280951D01*
X45901397Y-114281878D01*
X45747912Y-114282515D01*
X45585450Y-114282916D01*
X45416513Y-114283136D01*
X45243605Y-114283230D01*
X45069228Y-114283251D01*
X45011209Y-114283251D01*
X44873307Y-114283505D01*
X44739784Y-114283992D01*
X44612573Y-114284302D01*
X44474714Y-114283892D01*
X44351142Y-114282030D01*
X44229021Y-114249668D01*
X44187500Y-114144033D01*
X44239953Y-114028274D01*
X44351142Y-114005425D01*
X44486001Y-114006320D01*
X44624368Y-114008010D01*
X44769948Y-114010157D01*
X44909274Y-114012438D01*
X45031969Y-114014584D01*
X45159361Y-114016900D01*
X45291765Y-114019391D01*
X45428044Y-114022074D01*
X45567058Y-114024963D01*
X45707670Y-114028074D01*
X45848742Y-114031421D01*
X45989136Y-114035019D01*
X46127713Y-114038885D01*
X46263336Y-114043031D01*
X46394867Y-114047475D01*
X46479719Y-114050610D01*
X46484603Y-114020690D01*
X46365955Y-113977881D01*
X46239746Y-113934340D01*
X46121404Y-113894362D01*
X45999086Y-113853486D01*
X45897810Y-113819801D01*
X45772679Y-113776070D01*
X45650634Y-113730658D01*
X45535976Y-113682671D01*
X45485040Y-113656158D01*
X45405724Y-113561849D01*
X45404439Y-113543196D01*
X45470071Y-113438084D01*
X45485040Y-113429012D01*
X45605638Y-113376770D01*
X45723148Y-113333195D01*
X45845304Y-113289623D01*
X45921013Y-113262927D01*
X46037509Y-113222940D01*
X46153336Y-113183371D01*
X46281921Y-113139155D01*
X46411930Y-113093255D01*
X46479719Y-113068143D01*
X46477276Y-113037002D01*
X46350390Y-113040001D01*
X46216951Y-113042506D01*
X46078395Y-113044572D01*
X45936155Y-113046254D01*
X45791666Y-113047606D01*
X45646360Y-113048683D01*
X45501671Y-113049538D01*
X45359035Y-113050226D01*
X45219884Y-113050801D01*
X45085653Y-113051318D01*
X44999607Y-113051657D01*
X44869505Y-113052916D01*
X44723389Y-113054168D01*
X44597656Y-113055063D01*
X44460023Y-113055714D01*
X44347479Y-113055321D01*
X44227189Y-113022042D01*
X44187500Y-112911828D01*
X44244100Y-112798859D01*
X44342594Y-112777494D01*
X44482350Y-112776107D01*
X44624308Y-112776917D01*
X44749542Y-112778633D01*
X44879638Y-112780655D01*
X45016093Y-112782379D01*
X45191341Y-112783749D01*
X45366103Y-112784834D01*
X45537864Y-112785739D01*
X45704110Y-112786565D01*
X45862327Y-112787415D01*
X46009998Y-112788392D01*
X46144611Y-112789599D01*
X46299434Y-112791742D01*
X46444948Y-112795621D01*
X46485825Y-112797644D01*
X46612687Y-112818772D01*
X46717710Y-112887739D01*
X46748996Y-113000366D01*
X46712378Y-113118482D01*
X46618603Y-113198845D01*
X46540169Y-113240945D01*
X46414517Y-113295289D01*
X46284459Y-113343385D01*
X46156245Y-113387491D01*
X46012776Y-113434660D01*
X45888763Y-113474226D01*
X45757981Y-113515108D01*
G37*
G36*
X46545054Y-111934856D02*
G01*
X44342594Y-111934856D01*
X44221999Y-111900128D01*
X44187500Y-111779762D01*
X44187500Y-110735624D01*
X44250710Y-110630057D01*
X44320001Y-110616556D01*
X44427728Y-110674490D01*
X44437848Y-110728297D01*
X44437848Y-111653977D01*
X45359255Y-111656420D01*
X45359255Y-110816835D01*
X45434216Y-110718603D01*
X45481987Y-110711810D01*
X45588437Y-110776075D01*
X45594338Y-110816835D01*
X45594338Y-111656420D01*
X46482161Y-111656420D01*
X46482161Y-110778367D01*
X46543153Y-110670733D01*
X46611610Y-110659298D01*
X46717650Y-110721966D01*
X46727625Y-110778367D01*
X46727625Y-111726029D01*
X46713813Y-111848058D01*
X46614506Y-111929817D01*
X46545054Y-111934856D01*
G37*
D12*
G36*
X41436969Y-143623201D02*
G01*
X41262251Y-143636031D01*
X41092352Y-143642937D01*
X40895818Y-143647857D01*
X40678655Y-143651098D01*
X40525386Y-143652478D01*
X40367396Y-143653341D01*
X40206467Y-143653777D01*
X40044378Y-143653877D01*
X39882908Y-143653733D01*
X39723837Y-143653436D01*
X39568945Y-143653078D01*
X39420010Y-143652749D01*
X39211673Y-143652511D01*
X39068320Y-143605795D01*
X39017500Y-143472992D01*
X39066815Y-143334129D01*
X39211673Y-143286146D01*
X39426031Y-143286624D01*
X39579225Y-143287391D01*
X39738279Y-143288426D01*
X39901160Y-143289651D01*
X40065838Y-143290987D01*
X40230280Y-143292355D01*
X40392455Y-143293678D01*
X40550331Y-143294877D01*
X40701875Y-143295874D01*
X40912877Y-143296818D01*
X41098204Y-143296866D01*
X41251001Y-143295753D01*
X41392273Y-143292008D01*
X41563954Y-143276704D01*
X41708399Y-143248296D01*
X41852694Y-143192922D01*
X41976118Y-143094901D01*
X42049562Y-142959428D01*
X42077545Y-142783316D01*
X42078107Y-142749789D01*
X42065157Y-142602624D01*
X42013465Y-142465153D01*
X41898880Y-142355898D01*
X41750130Y-142303523D01*
X41587861Y-142287275D01*
X41472873Y-142288903D01*
X41410712Y-142431539D01*
X41320567Y-142562912D01*
X41203509Y-142673458D01*
X41060610Y-142753613D01*
X40892943Y-142793815D01*
X40831735Y-142796684D01*
X40665897Y-142776416D01*
X40526598Y-142719109D01*
X40405877Y-142630009D01*
X40295774Y-142514363D01*
X40234562Y-142438379D01*
X40140040Y-142316014D01*
X40037599Y-142194327D01*
X39928520Y-142095523D01*
X39791890Y-142027286D01*
X39687946Y-142012664D01*
X39539101Y-142031683D01*
X39399709Y-142108560D01*
X39314409Y-142243599D01*
X39298867Y-142340194D01*
X39311255Y-142487108D01*
X39367549Y-142628225D01*
X39389726Y-142663327D01*
X39414806Y-142813841D01*
X39341366Y-142900731D01*
X39188573Y-142916559D01*
X39109091Y-142861897D01*
X39029846Y-142721067D01*
X38987205Y-142576529D01*
X38968080Y-142426394D01*
X38966209Y-142360710D01*
X38986341Y-142180549D01*
X39044839Y-142016196D01*
X39138851Y-141873370D01*
X39265525Y-141757791D01*
X39422012Y-141675175D01*
X39566749Y-141636661D01*
X39685748Y-141625783D01*
X39838101Y-141635387D01*
X40000325Y-141684255D01*
X40133197Y-141764753D01*
X40244328Y-141863291D01*
X40359670Y-141993840D01*
X40432398Y-142088868D01*
X40523257Y-142210501D01*
X40620550Y-142322989D01*
X40744291Y-142405836D01*
X40858114Y-142428121D01*
X41011271Y-142401088D01*
X41142184Y-142311718D01*
X41222212Y-142172614D01*
X41247363Y-142020469D01*
X41246460Y-141973097D01*
X41400141Y-141956701D01*
X41606856Y-141950995D01*
X41786183Y-141966960D01*
X41939447Y-142003482D01*
X42105549Y-142082227D01*
X42230817Y-142192888D01*
X42318394Y-142332820D01*
X42371423Y-142499381D01*
X42393046Y-142689923D01*
X42393913Y-142740996D01*
X42382571Y-142930132D01*
X42346457Y-143100171D01*
X42282436Y-143249395D01*
X42187375Y-143376089D01*
X42058138Y-143478533D01*
X41891593Y-143555012D01*
X41740314Y-143594298D01*
X41564964Y-143617287D01*
X41434038Y-143623201D01*
X41436969Y-143623201D01*
G37*
G36*
X41409125Y-132756384D02*
G01*
X41401065Y-132846509D01*
X41489956Y-132725666D01*
X41584455Y-132599663D01*
X41675863Y-132479957D01*
X41774851Y-132353745D01*
X41792342Y-132332134D01*
X41929132Y-132269167D01*
X42057788Y-132339765D01*
X42079525Y-132487897D01*
X42052461Y-132536565D01*
X41962737Y-132653651D01*
X41854921Y-132792259D01*
X41756375Y-132917098D01*
X41654303Y-133044338D01*
X41552815Y-133168278D01*
X41456020Y-133283215D01*
X41340873Y-133375700D01*
X41228874Y-133398987D01*
X41084264Y-133346268D01*
X41004659Y-133268561D01*
X40909487Y-133147627D01*
X40802620Y-133007812D01*
X40693397Y-132862114D01*
X40591161Y-132723530D01*
X40490854Y-132584920D01*
X40430200Y-132497730D01*
X40392945Y-132345334D01*
X40490488Y-132230936D01*
X40638164Y-132243321D01*
X40716697Y-132313083D01*
X40811963Y-132442541D01*
X40895997Y-132562922D01*
X40985322Y-132693506D01*
X41072071Y-132821776D01*
X41083794Y-132839182D01*
X41081596Y-132756384D01*
X41064204Y-132573452D01*
X41014036Y-132408921D01*
X40934107Y-132264638D01*
X40827431Y-132142449D01*
X40697021Y-132044199D01*
X40545891Y-131971734D01*
X40377056Y-131926902D01*
X40193529Y-131911548D01*
X40009800Y-131927025D01*
X39842712Y-131972169D01*
X39694687Y-132045049D01*
X39568145Y-132143731D01*
X39465509Y-132266284D01*
X39389199Y-132410776D01*
X39341637Y-132575275D01*
X39325245Y-132757849D01*
X39341875Y-132939530D01*
X39390138Y-133102586D01*
X39467595Y-133245292D01*
X39571809Y-133365922D01*
X39700340Y-133462750D01*
X39850749Y-133534049D01*
X40020599Y-133578094D01*
X40207451Y-133593160D01*
X40355043Y-133583345D01*
X40504040Y-133550925D01*
X40579677Y-133524283D01*
X40727413Y-133524192D01*
X40820744Y-133618072D01*
X40821058Y-133772468D01*
X40721826Y-133866467D01*
X40570883Y-133918137D01*
X40426821Y-133948377D01*
X40276195Y-133963109D01*
X40207451Y-133964653D01*
X40009452Y-133952587D01*
X39824086Y-133917044D01*
X39652854Y-133859005D01*
X39497261Y-133779452D01*
X39358809Y-133679366D01*
X39239002Y-133559730D01*
X39139344Y-133421525D01*
X39061337Y-133265733D01*
X39006486Y-133093335D01*
X38976292Y-132905314D01*
X38970605Y-132771771D01*
X38984268Y-132573324D01*
X39023727Y-132388523D01*
X39087304Y-132218653D01*
X39173323Y-132064994D01*
X39280106Y-131928830D01*
X39405976Y-131811442D01*
X39549256Y-131714113D01*
X39708268Y-131638125D01*
X39881335Y-131584762D01*
X40066781Y-131555304D01*
X40196460Y-131549580D01*
X40386040Y-131561079D01*
X40564952Y-131595209D01*
X40731453Y-131651414D01*
X40883801Y-131729140D01*
X41020253Y-131827833D01*
X41139068Y-131946939D01*
X41238502Y-132085903D01*
X41316813Y-132244172D01*
X41372259Y-132421191D01*
X41403098Y-132616405D01*
X41409125Y-132756384D01*
G37*
D10*
X37762500Y-103292288D02*
X42762500Y-103292288D01*
X42762500Y-124292288D01*
X37762500Y-124292288D01*
X37762500Y-103292288D01*
G36*
X37762500Y-103292288D02*
G01*
X42762500Y-103292288D01*
X42762500Y-124292288D01*
X37762500Y-124292288D01*
X37762500Y-103292288D01*
G37*
X37762500Y-135292288D02*
X42762500Y-135292288D01*
X42762500Y-140292288D01*
X37762500Y-140292288D01*
X37762500Y-135292288D01*
G36*
X37762500Y-135292288D02*
G01*
X42762500Y-135292288D01*
X42762500Y-140292288D01*
X37762500Y-140292288D01*
X37762500Y-135292288D01*
G37*
X37762500Y-140292288D02*
X42762500Y-140292288D01*
X42762500Y-145292288D01*
X37762500Y-145292288D01*
X37762500Y-140292288D01*
X37762500Y-130292288D02*
X42762500Y-130292288D01*
X42762500Y-135292288D01*
X37762500Y-135292288D01*
X37762500Y-130292288D01*
X37762500Y-125292288D02*
X42762500Y-125292288D01*
X42762500Y-130292288D01*
X37762500Y-130292288D01*
X37762500Y-125292288D01*
G36*
X37762500Y-125292288D02*
G01*
X42762500Y-125292288D01*
X42762500Y-130292288D01*
X37762500Y-130292288D01*
X37762500Y-125292288D01*
G37*
X42322023Y-56319919D02*
X42322023Y-57034204D01*
X42322023Y-57034204D02*
X42369642Y-57177061D01*
X42369642Y-57177061D02*
X42464880Y-57272300D01*
X42464880Y-57272300D02*
X42607737Y-57319919D01*
X42607737Y-57319919D02*
X42702975Y-57319919D01*
X41322023Y-57319919D02*
X41893451Y-57319919D01*
X41607737Y-57319919D02*
X41607737Y-56319919D01*
X41607737Y-56319919D02*
X41702975Y-56462776D01*
X41702975Y-56462776D02*
X41798213Y-56558014D01*
X41798213Y-56558014D02*
X41893451Y-56605633D01*
X40941070Y-56415157D02*
X40893451Y-56367538D01*
X40893451Y-56367538D02*
X40798213Y-56319919D01*
X40798213Y-56319919D02*
X40560118Y-56319919D01*
X40560118Y-56319919D02*
X40464880Y-56367538D01*
X40464880Y-56367538D02*
X40417261Y-56415157D01*
X40417261Y-56415157D02*
X40369642Y-56510395D01*
X40369642Y-56510395D02*
X40369642Y-56605633D01*
X40369642Y-56605633D02*
X40417261Y-56748490D01*
X40417261Y-56748490D02*
X40988689Y-57319919D01*
X40988689Y-57319919D02*
X40369642Y-57319919D01*
X38929166Y-57657419D02*
X39262499Y-57181228D01*
X39500594Y-57657419D02*
X39500594Y-56657419D01*
X39500594Y-56657419D02*
X39119642Y-56657419D01*
X39119642Y-56657419D02*
X39024404Y-56705038D01*
X39024404Y-56705038D02*
X38976785Y-56752657D01*
X38976785Y-56752657D02*
X38929166Y-56847895D01*
X38929166Y-56847895D02*
X38929166Y-56990752D01*
X38929166Y-56990752D02*
X38976785Y-57085990D01*
X38976785Y-57085990D02*
X39024404Y-57133609D01*
X39024404Y-57133609D02*
X39119642Y-57181228D01*
X39119642Y-57181228D02*
X39500594Y-57181228D01*
X38357737Y-57085990D02*
X38452975Y-57038371D01*
X38452975Y-57038371D02*
X38500594Y-56990752D01*
X38500594Y-56990752D02*
X38548213Y-56895514D01*
X38548213Y-56895514D02*
X38548213Y-56847895D01*
X38548213Y-56847895D02*
X38500594Y-56752657D01*
X38500594Y-56752657D02*
X38452975Y-56705038D01*
X38452975Y-56705038D02*
X38357737Y-56657419D01*
X38357737Y-56657419D02*
X38167261Y-56657419D01*
X38167261Y-56657419D02*
X38072023Y-56705038D01*
X38072023Y-56705038D02*
X38024404Y-56752657D01*
X38024404Y-56752657D02*
X37976785Y-56847895D01*
X37976785Y-56847895D02*
X37976785Y-56895514D01*
X37976785Y-56895514D02*
X38024404Y-56990752D01*
X38024404Y-56990752D02*
X38072023Y-57038371D01*
X38072023Y-57038371D02*
X38167261Y-57085990D01*
X38167261Y-57085990D02*
X38357737Y-57085990D01*
X38357737Y-57085990D02*
X38452975Y-57133609D01*
X38452975Y-57133609D02*
X38500594Y-57181228D01*
X38500594Y-57181228D02*
X38548213Y-57276466D01*
X38548213Y-57276466D02*
X38548213Y-57466942D01*
X38548213Y-57466942D02*
X38500594Y-57562180D01*
X38500594Y-57562180D02*
X38452975Y-57609800D01*
X38452975Y-57609800D02*
X38357737Y-57657419D01*
X38357737Y-57657419D02*
X38167261Y-57657419D01*
X38167261Y-57657419D02*
X38072023Y-57609800D01*
X38072023Y-57609800D02*
X38024404Y-57562180D01*
X38024404Y-57562180D02*
X37976785Y-57466942D01*
X37976785Y-57466942D02*
X37976785Y-57276466D01*
X37976785Y-57276466D02*
X38024404Y-57181228D01*
X38024404Y-57181228D02*
X38072023Y-57133609D01*
X38072023Y-57133609D02*
X38167261Y-57085990D01*
X38929166Y-54157419D02*
X39262499Y-53681228D01*
X39500594Y-54157419D02*
X39500594Y-53157419D01*
X39500594Y-53157419D02*
X39119642Y-53157419D01*
X39119642Y-53157419D02*
X39024404Y-53205038D01*
X39024404Y-53205038D02*
X38976785Y-53252657D01*
X38976785Y-53252657D02*
X38929166Y-53347895D01*
X38929166Y-53347895D02*
X38929166Y-53490752D01*
X38929166Y-53490752D02*
X38976785Y-53585990D01*
X38976785Y-53585990D02*
X39024404Y-53633609D01*
X39024404Y-53633609D02*
X39119642Y-53681228D01*
X39119642Y-53681228D02*
X39500594Y-53681228D01*
X38595832Y-53157419D02*
X37929166Y-53157419D01*
X37929166Y-53157419D02*
X38357737Y-54157419D01*
X38929166Y-50657419D02*
X39262499Y-50181228D01*
X39500594Y-50657419D02*
X39500594Y-49657419D01*
X39500594Y-49657419D02*
X39119642Y-49657419D01*
X39119642Y-49657419D02*
X39024404Y-49705038D01*
X39024404Y-49705038D02*
X38976785Y-49752657D01*
X38976785Y-49752657D02*
X38929166Y-49847895D01*
X38929166Y-49847895D02*
X38929166Y-49990752D01*
X38929166Y-49990752D02*
X38976785Y-50085990D01*
X38976785Y-50085990D02*
X39024404Y-50133609D01*
X39024404Y-50133609D02*
X39119642Y-50181228D01*
X39119642Y-50181228D02*
X39500594Y-50181228D01*
X38072023Y-49657419D02*
X38262499Y-49657419D01*
X38262499Y-49657419D02*
X38357737Y-49705038D01*
X38357737Y-49705038D02*
X38405356Y-49752657D01*
X38405356Y-49752657D02*
X38500594Y-49895514D01*
X38500594Y-49895514D02*
X38548213Y-50085990D01*
X38548213Y-50085990D02*
X38548213Y-50466942D01*
X38548213Y-50466942D02*
X38500594Y-50562180D01*
X38500594Y-50562180D02*
X38452975Y-50609800D01*
X38452975Y-50609800D02*
X38357737Y-50657419D01*
X38357737Y-50657419D02*
X38167261Y-50657419D01*
X38167261Y-50657419D02*
X38072023Y-50609800D01*
X38072023Y-50609800D02*
X38024404Y-50562180D01*
X38024404Y-50562180D02*
X37976785Y-50466942D01*
X37976785Y-50466942D02*
X37976785Y-50228847D01*
X37976785Y-50228847D02*
X38024404Y-50133609D01*
X38024404Y-50133609D02*
X38072023Y-50085990D01*
X38072023Y-50085990D02*
X38167261Y-50038371D01*
X38167261Y-50038371D02*
X38357737Y-50038371D01*
X38357737Y-50038371D02*
X38452975Y-50085990D01*
X38452975Y-50085990D02*
X38500594Y-50133609D01*
X38500594Y-50133609D02*
X38548213Y-50228847D01*
X38929166Y-47157419D02*
X39262499Y-46681228D01*
X39500594Y-47157419D02*
X39500594Y-46157419D01*
X39500594Y-46157419D02*
X39119642Y-46157419D01*
X39119642Y-46157419D02*
X39024404Y-46205038D01*
X39024404Y-46205038D02*
X38976785Y-46252657D01*
X38976785Y-46252657D02*
X38929166Y-46347895D01*
X38929166Y-46347895D02*
X38929166Y-46490752D01*
X38929166Y-46490752D02*
X38976785Y-46585990D01*
X38976785Y-46585990D02*
X39024404Y-46633609D01*
X39024404Y-46633609D02*
X39119642Y-46681228D01*
X39119642Y-46681228D02*
X39500594Y-46681228D01*
X38024404Y-46157419D02*
X38500594Y-46157419D01*
X38500594Y-46157419D02*
X38548213Y-46633609D01*
X38548213Y-46633609D02*
X38500594Y-46585990D01*
X38500594Y-46585990D02*
X38405356Y-46538371D01*
X38405356Y-46538371D02*
X38167261Y-46538371D01*
X38167261Y-46538371D02*
X38072023Y-46585990D01*
X38072023Y-46585990D02*
X38024404Y-46633609D01*
X38024404Y-46633609D02*
X37976785Y-46728847D01*
X37976785Y-46728847D02*
X37976785Y-46966942D01*
X37976785Y-46966942D02*
X38024404Y-47062180D01*
X38024404Y-47062180D02*
X38072023Y-47109800D01*
X38072023Y-47109800D02*
X38167261Y-47157419D01*
X38167261Y-47157419D02*
X38405356Y-47157419D01*
X38405356Y-47157419D02*
X38500594Y-47109800D01*
X38500594Y-47109800D02*
X38548213Y-47062180D01*
X43500594Y-54172419D02*
X43500594Y-53172419D01*
X43500594Y-53172419D02*
X43262499Y-53172419D01*
X43262499Y-53172419D02*
X43119642Y-53220038D01*
X43119642Y-53220038D02*
X43024404Y-53315276D01*
X43024404Y-53315276D02*
X42976785Y-53410514D01*
X42976785Y-53410514D02*
X42929166Y-53600990D01*
X42929166Y-53600990D02*
X42929166Y-53743847D01*
X42929166Y-53743847D02*
X42976785Y-53934323D01*
X42976785Y-53934323D02*
X43024404Y-54029561D01*
X43024404Y-54029561D02*
X43119642Y-54124800D01*
X43119642Y-54124800D02*
X43262499Y-54172419D01*
X43262499Y-54172419D02*
X43500594Y-54172419D01*
X42357737Y-53600990D02*
X42452975Y-53553371D01*
X42452975Y-53553371D02*
X42500594Y-53505752D01*
X42500594Y-53505752D02*
X42548213Y-53410514D01*
X42548213Y-53410514D02*
X42548213Y-53362895D01*
X42548213Y-53362895D02*
X42500594Y-53267657D01*
X42500594Y-53267657D02*
X42452975Y-53220038D01*
X42452975Y-53220038D02*
X42357737Y-53172419D01*
X42357737Y-53172419D02*
X42167261Y-53172419D01*
X42167261Y-53172419D02*
X42072023Y-53220038D01*
X42072023Y-53220038D02*
X42024404Y-53267657D01*
X42024404Y-53267657D02*
X41976785Y-53362895D01*
X41976785Y-53362895D02*
X41976785Y-53410514D01*
X41976785Y-53410514D02*
X42024404Y-53505752D01*
X42024404Y-53505752D02*
X42072023Y-53553371D01*
X42072023Y-53553371D02*
X42167261Y-53600990D01*
X42167261Y-53600990D02*
X42357737Y-53600990D01*
X42357737Y-53600990D02*
X42452975Y-53648609D01*
X42452975Y-53648609D02*
X42500594Y-53696228D01*
X42500594Y-53696228D02*
X42548213Y-53791466D01*
X42548213Y-53791466D02*
X42548213Y-53981942D01*
X42548213Y-53981942D02*
X42500594Y-54077180D01*
X42500594Y-54077180D02*
X42452975Y-54124800D01*
X42452975Y-54124800D02*
X42357737Y-54172419D01*
X42357737Y-54172419D02*
X42167261Y-54172419D01*
X42167261Y-54172419D02*
X42072023Y-54124800D01*
X42072023Y-54124800D02*
X42024404Y-54077180D01*
X42024404Y-54077180D02*
X41976785Y-53981942D01*
X41976785Y-53981942D02*
X41976785Y-53791466D01*
X41976785Y-53791466D02*
X42024404Y-53696228D01*
X42024404Y-53696228D02*
X42072023Y-53648609D01*
X42072023Y-53648609D02*
X42167261Y-53600990D01*
X46143451Y-55626466D02*
X45381547Y-55626466D01*
X45762499Y-56007419D02*
X45762499Y-55245514D01*
X43500594Y-50672419D02*
X43500594Y-49672419D01*
X43500594Y-49672419D02*
X43262499Y-49672419D01*
X43262499Y-49672419D02*
X43119642Y-49720038D01*
X43119642Y-49720038D02*
X43024404Y-49815276D01*
X43024404Y-49815276D02*
X42976785Y-49910514D01*
X42976785Y-49910514D02*
X42929166Y-50100990D01*
X42929166Y-50100990D02*
X42929166Y-50243847D01*
X42929166Y-50243847D02*
X42976785Y-50434323D01*
X42976785Y-50434323D02*
X43024404Y-50529561D01*
X43024404Y-50529561D02*
X43119642Y-50624800D01*
X43119642Y-50624800D02*
X43262499Y-50672419D01*
X43262499Y-50672419D02*
X43500594Y-50672419D01*
X42595832Y-49672419D02*
X41929166Y-49672419D01*
X41929166Y-49672419D02*
X42357737Y-50672419D01*
X46143451Y-52126466D02*
X45381547Y-52126466D01*
X45762499Y-52507419D02*
X45762499Y-51745514D01*
X43500594Y-47172419D02*
X43500594Y-46172419D01*
X43500594Y-46172419D02*
X43262499Y-46172419D01*
X43262499Y-46172419D02*
X43119642Y-46220038D01*
X43119642Y-46220038D02*
X43024404Y-46315276D01*
X43024404Y-46315276D02*
X42976785Y-46410514D01*
X42976785Y-46410514D02*
X42929166Y-46600990D01*
X42929166Y-46600990D02*
X42929166Y-46743847D01*
X42929166Y-46743847D02*
X42976785Y-46934323D01*
X42976785Y-46934323D02*
X43024404Y-47029561D01*
X43024404Y-47029561D02*
X43119642Y-47124800D01*
X43119642Y-47124800D02*
X43262499Y-47172419D01*
X43262499Y-47172419D02*
X43500594Y-47172419D01*
X42072023Y-46172419D02*
X42262499Y-46172419D01*
X42262499Y-46172419D02*
X42357737Y-46220038D01*
X42357737Y-46220038D02*
X42405356Y-46267657D01*
X42405356Y-46267657D02*
X42500594Y-46410514D01*
X42500594Y-46410514D02*
X42548213Y-46600990D01*
X42548213Y-46600990D02*
X42548213Y-46981942D01*
X42548213Y-46981942D02*
X42500594Y-47077180D01*
X42500594Y-47077180D02*
X42452975Y-47124800D01*
X42452975Y-47124800D02*
X42357737Y-47172419D01*
X42357737Y-47172419D02*
X42167261Y-47172419D01*
X42167261Y-47172419D02*
X42072023Y-47124800D01*
X42072023Y-47124800D02*
X42024404Y-47077180D01*
X42024404Y-47077180D02*
X41976785Y-46981942D01*
X41976785Y-46981942D02*
X41976785Y-46743847D01*
X41976785Y-46743847D02*
X42024404Y-46648609D01*
X42024404Y-46648609D02*
X42072023Y-46600990D01*
X42072023Y-46600990D02*
X42167261Y-46553371D01*
X42167261Y-46553371D02*
X42357737Y-46553371D01*
X42357737Y-46553371D02*
X42452975Y-46600990D01*
X42452975Y-46600990D02*
X42500594Y-46648609D01*
X42500594Y-46648609D02*
X42548213Y-46743847D01*
X46143451Y-48626466D02*
X45381547Y-48626466D01*
X45762499Y-49007419D02*
X45762499Y-48245514D01*
X43500594Y-43672419D02*
X43500594Y-42672419D01*
X43500594Y-42672419D02*
X43262499Y-42672419D01*
X43262499Y-42672419D02*
X43119642Y-42720038D01*
X43119642Y-42720038D02*
X43024404Y-42815276D01*
X43024404Y-42815276D02*
X42976785Y-42910514D01*
X42976785Y-42910514D02*
X42929166Y-43100990D01*
X42929166Y-43100990D02*
X42929166Y-43243847D01*
X42929166Y-43243847D02*
X42976785Y-43434323D01*
X42976785Y-43434323D02*
X43024404Y-43529561D01*
X43024404Y-43529561D02*
X43119642Y-43624800D01*
X43119642Y-43624800D02*
X43262499Y-43672419D01*
X43262499Y-43672419D02*
X43500594Y-43672419D01*
X42024404Y-42672419D02*
X42500594Y-42672419D01*
X42500594Y-42672419D02*
X42548213Y-43148609D01*
X42548213Y-43148609D02*
X42500594Y-43100990D01*
X42500594Y-43100990D02*
X42405356Y-43053371D01*
X42405356Y-43053371D02*
X42167261Y-43053371D01*
X42167261Y-43053371D02*
X42072023Y-43100990D01*
X42072023Y-43100990D02*
X42024404Y-43148609D01*
X42024404Y-43148609D02*
X41976785Y-43243847D01*
X41976785Y-43243847D02*
X41976785Y-43481942D01*
X41976785Y-43481942D02*
X42024404Y-43577180D01*
X42024404Y-43577180D02*
X42072023Y-43624800D01*
X42072023Y-43624800D02*
X42167261Y-43672419D01*
X42167261Y-43672419D02*
X42405356Y-43672419D01*
X42405356Y-43672419D02*
X42500594Y-43624800D01*
X42500594Y-43624800D02*
X42548213Y-43577180D01*
X46143451Y-45126466D02*
X45381547Y-45126466D01*
X45762499Y-45507419D02*
X45762499Y-44745514D01*
X201705530Y-127413909D02*
X201133110Y-127514924D01*
X201301469Y-127009848D02*
X200594362Y-127716954D01*
X200594362Y-127716954D02*
X200863736Y-127986328D01*
X200863736Y-127986328D02*
X200964751Y-128020000D01*
X200964751Y-128020000D02*
X201032095Y-128020000D01*
X201032095Y-128020000D02*
X201133110Y-127986328D01*
X201133110Y-127986328D02*
X201234125Y-127885313D01*
X201234125Y-127885313D02*
X201267797Y-127784298D01*
X201267797Y-127784298D02*
X201267797Y-127716954D01*
X201267797Y-127716954D02*
X201234125Y-127615939D01*
X201234125Y-127615939D02*
X200964751Y-127346565D01*
X201840217Y-128491405D02*
X202311621Y-128020000D01*
X201402484Y-128592420D02*
X201739202Y-127918985D01*
X201739202Y-127918985D02*
X202176934Y-128356718D01*
X190455080Y-125016666D02*
X190931271Y-125349999D01*
X190455080Y-125588094D02*
X191455080Y-125588094D01*
X191455080Y-125588094D02*
X191455080Y-125207142D01*
X191455080Y-125207142D02*
X191407461Y-125111904D01*
X191407461Y-125111904D02*
X191359842Y-125064285D01*
X191359842Y-125064285D02*
X191264604Y-125016666D01*
X191264604Y-125016666D02*
X191121747Y-125016666D01*
X191121747Y-125016666D02*
X191026509Y-125064285D01*
X191026509Y-125064285D02*
X190978890Y-125111904D01*
X190978890Y-125111904D02*
X190931271Y-125207142D01*
X190931271Y-125207142D02*
X190931271Y-125588094D01*
X190455080Y-124064285D02*
X190455080Y-124635713D01*
X190455080Y-124349999D02*
X191455080Y-124349999D01*
X191455080Y-124349999D02*
X191312223Y-124445237D01*
X191312223Y-124445237D02*
X191216985Y-124540475D01*
X191216985Y-124540475D02*
X191169366Y-124635713D01*
X197955080Y-125016666D02*
X198431271Y-125349999D01*
X197955080Y-125588094D02*
X198955080Y-125588094D01*
X198955080Y-125588094D02*
X198955080Y-125207142D01*
X198955080Y-125207142D02*
X198907461Y-125111904D01*
X198907461Y-125111904D02*
X198859842Y-125064285D01*
X198859842Y-125064285D02*
X198764604Y-125016666D01*
X198764604Y-125016666D02*
X198621747Y-125016666D01*
X198621747Y-125016666D02*
X198526509Y-125064285D01*
X198526509Y-125064285D02*
X198478890Y-125111904D01*
X198478890Y-125111904D02*
X198431271Y-125207142D01*
X198431271Y-125207142D02*
X198431271Y-125588094D01*
X198955080Y-124683332D02*
X198955080Y-124064285D01*
X198955080Y-124064285D02*
X198574128Y-124397618D01*
X198574128Y-124397618D02*
X198574128Y-124254761D01*
X198574128Y-124254761D02*
X198526509Y-124159523D01*
X198526509Y-124159523D02*
X198478890Y-124111904D01*
X198478890Y-124111904D02*
X198383652Y-124064285D01*
X198383652Y-124064285D02*
X198145557Y-124064285D01*
X198145557Y-124064285D02*
X198050319Y-124111904D01*
X198050319Y-124111904D02*
X198002700Y-124159523D01*
X198002700Y-124159523D02*
X197955080Y-124254761D01*
X197955080Y-124254761D02*
X197955080Y-124540475D01*
X197955080Y-124540475D02*
X198002700Y-124635713D01*
X198002700Y-124635713D02*
X198050319Y-124683332D01*
X193955080Y-125016666D02*
X194431271Y-125349999D01*
X193955080Y-125588094D02*
X194955080Y-125588094D01*
X194955080Y-125588094D02*
X194955080Y-125207142D01*
X194955080Y-125207142D02*
X194907461Y-125111904D01*
X194907461Y-125111904D02*
X194859842Y-125064285D01*
X194859842Y-125064285D02*
X194764604Y-125016666D01*
X194764604Y-125016666D02*
X194621747Y-125016666D01*
X194621747Y-125016666D02*
X194526509Y-125064285D01*
X194526509Y-125064285D02*
X194478890Y-125111904D01*
X194478890Y-125111904D02*
X194431271Y-125207142D01*
X194431271Y-125207142D02*
X194431271Y-125588094D01*
X194859842Y-124635713D02*
X194907461Y-124588094D01*
X194907461Y-124588094D02*
X194955080Y-124492856D01*
X194955080Y-124492856D02*
X194955080Y-124254761D01*
X194955080Y-124254761D02*
X194907461Y-124159523D01*
X194907461Y-124159523D02*
X194859842Y-124111904D01*
X194859842Y-124111904D02*
X194764604Y-124064285D01*
X194764604Y-124064285D02*
X194669366Y-124064285D01*
X194669366Y-124064285D02*
X194526509Y-124111904D01*
X194526509Y-124111904D02*
X193955080Y-124683332D01*
X193955080Y-124683332D02*
X193955080Y-124064285D01*
%TO.C,J12*%
X42862500Y-58862500D02*
G75*
G02*
X42662500Y-58862500I-100000J0D01*
G01*
X42662500Y-58862500D02*
G75*
G02*
X42862500Y-58862500I100000J0D01*
G01*
X37977500Y-61642500D02*
X37977500Y-60112500D01*
X43242500Y-62612500D02*
X38782500Y-62612500D01*
X37977500Y-60112500D02*
X38792500Y-60112500D01*
X44047500Y-60112500D02*
X44047500Y-61642500D01*
X43232500Y-60112500D02*
X44047500Y-60112500D01*
%TO.C,R8*%
X38989564Y-56285000D02*
X38535436Y-56285000D01*
X38989564Y-54815000D02*
X38535436Y-54815000D01*
%TO.C,R7*%
X38989564Y-52785000D02*
X38535436Y-52785000D01*
X38989564Y-51315000D02*
X38535436Y-51315000D01*
%TO.C,R6*%
X38989564Y-49285000D02*
X38535436Y-49285000D01*
X38989564Y-47815000D02*
X38535436Y-47815000D01*
%TO.C,R5*%
X38989564Y-44315000D02*
X38535436Y-44315000D01*
X38989564Y-45785000D02*
X38535436Y-45785000D01*
%TO.C,D8*%
X42162500Y-56550000D02*
X43362500Y-56550000D01*
X42162500Y-54550000D02*
X43362500Y-54550000D01*
%TO.C,D7*%
X42162500Y-53050000D02*
X43362500Y-53050000D01*
X42162500Y-51050000D02*
X43362500Y-51050000D01*
%TO.C,D6*%
X42162500Y-49550000D02*
X43362500Y-49550000D01*
X42162500Y-47550000D02*
X43362500Y-47550000D01*
%TO.C,D5*%
X42162500Y-46050000D02*
X43362500Y-46050000D01*
X42162500Y-44050000D02*
X43362500Y-44050000D01*
%TO.C,J7*%
X213215100Y-112086100D02*
G75*
G02*
X212453100Y-112086100I-381000J0D01*
G01*
X212453100Y-112086100D02*
G75*
G02*
X213215100Y-112086100I381000J0D01*
G01*
%TO.C,J2*%
X209585500Y-130510000D02*
G75*
G02*
X208823500Y-130510000I-381000J0D01*
G01*
X208823500Y-130510000D02*
G75*
G02*
X209585500Y-130510000I381000J0D01*
G01*
%TO.C,R4*%
X199527500Y-125077064D02*
X199527500Y-124622936D01*
X200997500Y-125077064D02*
X200997500Y-124622936D01*
%TO.C,R1*%
X188527500Y-124622936D02*
X188527500Y-125077064D01*
X189997500Y-124622936D02*
X189997500Y-125077064D01*
%TO.C,R3*%
X196027500Y-124622936D02*
X196027500Y-125077064D01*
X197497500Y-124622936D02*
X197497500Y-125077064D01*
%TO.C,R2*%
X192027500Y-124622936D02*
X192027500Y-125077064D01*
X193497500Y-124622936D02*
X193497500Y-125077064D01*
%TD*%
%LPC*%
%TO.C,D8*%
X43262500Y-54550000D02*
X43262500Y-54550000D01*
G75*
G02*
X43762500Y-55050000I0J-500000D01*
G01*
X43762500Y-56050000D01*
G75*
G02*
X43262500Y-56550000I-500000J0D01*
G01*
X42262500Y-56550000D01*
G75*
G02*
X41762500Y-56050000I0J500000D01*
G01*
X41762500Y-55050000D01*
G75*
G02*
X42262500Y-54550000I500000J0D01*
G01*
X43262500Y-54550000D01*
G36*
X43262500Y-54550000D02*
G01*
X43262500Y-54550000D01*
G75*
G02*
X43762500Y-55050000I0J-500000D01*
G01*
X43762500Y-56050000D01*
G75*
G02*
X43262500Y-56550000I-500000J0D01*
G01*
X42262500Y-56550000D01*
G75*
G02*
X41762500Y-56050000I0J500000D01*
G01*
X41762500Y-55050000D01*
G75*
G02*
X42262500Y-54550000I500000J0D01*
G01*
X43262500Y-54550000D01*
G37*
%TO.C,D7*%
X43262500Y-51050000D02*
X43262500Y-51050000D01*
G75*
G02*
X43762500Y-51550000I0J-500000D01*
G01*
X43762500Y-52550000D01*
G75*
G02*
X43262500Y-53050000I-500000J0D01*
G01*
X42262500Y-53050000D01*
G75*
G02*
X41762500Y-52550000I0J500000D01*
G01*
X41762500Y-51550000D01*
G75*
G02*
X42262500Y-51050000I500000J0D01*
G01*
X43262500Y-51050000D01*
G36*
X43262500Y-51050000D02*
G01*
X43262500Y-51050000D01*
G75*
G02*
X43762500Y-51550000I0J-500000D01*
G01*
X43762500Y-52550000D01*
G75*
G02*
X43262500Y-53050000I-500000J0D01*
G01*
X42262500Y-53050000D01*
G75*
G02*
X41762500Y-52550000I0J500000D01*
G01*
X41762500Y-51550000D01*
G75*
G02*
X42262500Y-51050000I500000J0D01*
G01*
X43262500Y-51050000D01*
G37*
%TO.C,D6*%
X43262500Y-47550000D02*
X43262500Y-47550000D01*
G75*
G02*
X43762500Y-48050000I0J-500000D01*
G01*
X43762500Y-49050000D01*
G75*
G02*
X43262500Y-49550000I-500000J0D01*
G01*
X42262500Y-49550000D01*
G75*
G02*
X41762500Y-49050000I0J500000D01*
G01*
X41762500Y-48050000D01*
G75*
G02*
X42262500Y-47550000I500000J0D01*
G01*
X43262500Y-47550000D01*
G36*
X43262500Y-47550000D02*
G01*
X43262500Y-47550000D01*
G75*
G02*
X43762500Y-48050000I0J-500000D01*
G01*
X43762500Y-49050000D01*
G75*
G02*
X43262500Y-49550000I-500000J0D01*
G01*
X42262500Y-49550000D01*
G75*
G02*
X41762500Y-49050000I0J500000D01*
G01*
X41762500Y-48050000D01*
G75*
G02*
X42262500Y-47550000I500000J0D01*
G01*
X43262500Y-47550000D01*
G37*
%TO.C,D5*%
X43262500Y-44050000D02*
X43262500Y-44050000D01*
G75*
G02*
X43762500Y-44550000I0J-500000D01*
G01*
X43762500Y-45550000D01*
G75*
G02*
X43262500Y-46050000I-500000J0D01*
G01*
X42262500Y-46050000D01*
G75*
G02*
X41762500Y-45550000I0J500000D01*
G01*
X41762500Y-44550000D01*
G75*
G02*
X42262500Y-44050000I500000J0D01*
G01*
X43262500Y-44050000D01*
G36*
X43262500Y-44050000D02*
G01*
X43262500Y-44050000D01*
G75*
G02*
X43762500Y-44550000I0J-500000D01*
G01*
X43762500Y-45550000D01*
G75*
G02*
X43262500Y-46050000I-500000J0D01*
G01*
X42262500Y-46050000D01*
G75*
G02*
X41762500Y-45550000I0J500000D01*
G01*
X41762500Y-44550000D01*
G75*
G02*
X42262500Y-44050000I500000J0D01*
G01*
X43262500Y-44050000D01*
G37*
%TD*%
D13*
%TO.C,J12*%
X38262500Y-62362500D03*
X43762500Y-62362500D03*
D14*
X39262500Y-59862500D03*
X39762500Y-59862500D03*
X40262500Y-59862500D03*
X40762500Y-59862500D03*
X41262500Y-59862500D03*
X41762500Y-59862500D03*
X42262500Y-59862500D03*
X42762500Y-59862500D03*
%TD*%
D15*
%TO.C,R8*%
X37762500Y-55550000D03*
X39762500Y-55550000D03*
%TD*%
%TO.C,R7*%
X37762500Y-52050000D03*
X39762500Y-52050000D03*
%TD*%
%TO.C,R6*%
X37762500Y-48550000D03*
X39762500Y-48550000D03*
%TD*%
%TO.C,R5*%
X39762500Y-45050000D03*
X37762500Y-45050000D03*
%TD*%
D16*
%TO.C,D8*%
X44262500Y-55550000D03*
X41262500Y-55550000D03*
%TD*%
%TO.C,D7*%
X44262500Y-52050000D03*
X41262500Y-52050000D03*
%TD*%
%TO.C,D6*%
X44262500Y-48550000D03*
X41262500Y-48550000D03*
%TD*%
%TO.C,D5*%
X44262500Y-45050000D03*
X41262500Y-45050000D03*
%TD*%
D17*
%TO.C,J10*%
X213262500Y-49550000D03*
X213262500Y-56550001D03*
%TD*%
D18*
%TO.C,J3*%
X191112500Y-141750000D03*
D19*
X192112500Y-142300000D03*
X193112500Y-142300000D03*
X194112500Y-142300000D03*
X195112500Y-142300000D03*
X196112500Y-142300000D03*
X197112500Y-142300000D03*
X198112500Y-142300000D03*
X199112500Y-142300000D03*
X200112500Y-142300000D03*
X201112500Y-142300000D03*
X204112500Y-142300000D03*
X205112500Y-142300000D03*
X206112500Y-142300000D03*
X207112500Y-142300000D03*
X208112500Y-142300000D03*
X209112500Y-142300000D03*
X210112500Y-142300000D03*
X211112500Y-142300000D03*
X212112500Y-142300000D03*
X213112500Y-142300000D03*
X214112500Y-142300000D03*
X215112500Y-142300000D03*
X216112500Y-142300000D03*
X217112500Y-142300000D03*
X218112500Y-142300000D03*
X219112500Y-142300000D03*
X220112500Y-142300000D03*
X221112500Y-142300000D03*
X222112500Y-142300000D03*
X223112500Y-142300000D03*
X224112500Y-142300000D03*
%TD*%
D20*
%TO.C,RV2*%
X148737500Y-54100000D03*
X158737500Y-54100000D03*
D21*
X156237500Y-50800000D03*
X153737500Y-50800000D03*
X151237500Y-50800000D03*
%TD*%
D17*
%TO.C,J9*%
X200762500Y-49550000D03*
X200762500Y-56550001D03*
%TD*%
D22*
%TO.C,J4*%
X221762500Y-110850000D03*
D23*
X221762500Y-113390000D03*
X221762500Y-115930000D03*
X221762500Y-118470000D03*
%TD*%
D24*
%TO.C,H6*%
X219762500Y-70850000D03*
%TD*%
%TO.C,H1*%
X129762500Y-90850000D03*
%TD*%
%TO.C,H5*%
X129762500Y-70850000D03*
%TD*%
D20*
%TO.C,RV3*%
X165737500Y-54100000D03*
X175737500Y-54100000D03*
D21*
X173237500Y-50800000D03*
X170737500Y-50800000D03*
X168237500Y-50800000D03*
%TD*%
D24*
%TO.C,H3*%
X129762500Y-140850000D03*
%TD*%
D25*
%TO.C,SW1*%
X191224000Y-65360000D03*
D26*
X186525000Y-65360000D03*
X181826000Y-65360000D03*
X191224000Y-61550000D03*
X186525000Y-61550000D03*
X181826000Y-61550000D03*
X189065000Y-48850000D03*
X183985000Y-48850000D03*
%TD*%
D24*
%TO.C,H4*%
X179762500Y-140850000D03*
%TD*%
%TO.C,H2*%
X179762500Y-90850000D03*
%TD*%
D22*
%TO.C,J8*%
X219182500Y-96770000D03*
D23*
X221722500Y-96770000D03*
X219182500Y-99310000D03*
X221722500Y-99310000D03*
X219182500Y-101850000D03*
X221722500Y-101850000D03*
X219182500Y-104390000D03*
X221722500Y-104390000D03*
%TD*%
D20*
%TO.C,RV1*%
X131262500Y-54150000D03*
X141262500Y-54150000D03*
D21*
X138762500Y-50850000D03*
X136262500Y-50850000D03*
X133762500Y-50850000D03*
%TD*%
D27*
%TO.C,J2*%
X203362500Y-130510000D03*
X203362500Y-133050000D03*
X200822500Y-130510000D03*
X200822500Y-133050000D03*
X198282500Y-130510000D03*
X198282500Y-133050000D03*
X195742500Y-130510000D03*
X195742500Y-133050000D03*
X193202500Y-130510000D03*
X193202500Y-133050000D03*
X190662500Y-130510000D03*
X190662500Y-133050000D03*
X188122500Y-130510000D03*
X188122500Y-133050000D03*
X185582500Y-130510000D03*
X185582500Y-133050000D03*
%TD*%
D28*
%TO.C,R4*%
X200262500Y-123850000D03*
X200262500Y-125850000D03*
%TD*%
D29*
%TO.C,R1*%
X189262500Y-125850000D03*
X189262500Y-123850000D03*
%TD*%
%TO.C,R3*%
X196762500Y-125850000D03*
X196762500Y-123850000D03*
%TD*%
%TO.C,R2*%
X192762500Y-125850000D03*
X192762500Y-123850000D03*
%TD*%
D30*
X220762000Y-132000000D03*
X219762000Y-131000000D03*
X221762000Y-133000000D03*
X218762000Y-130000000D03*
X215738000Y-137490000D03*
X197149000Y-139634000D03*
X201423000Y-125879000D03*
X188111000Y-124316000D03*
X196248000Y-126906000D03*
X194724000Y-135702000D03*
X221262000Y-132500000D03*
X219262000Y-130500000D03*
X218262000Y-129500000D03*
X220262000Y-131500000D03*
X191278300Y-123631500D03*
X191630000Y-124316000D03*
X135912100Y-102286001D03*
X137293100Y-102630001D03*
X137293100Y-103631001D03*
X137293100Y-104630000D03*
X135793101Y-101637001D03*
X136402100Y-102728999D03*
%LPD*%
M02*
