%TF.GenerationSoftware,KiCad,Pcbnew,8.0.5*%
%TF.CreationDate,2024-11-27T23:03:38-05:00*%
%TF.ProjectId,HacKeys,4861634b-6579-4732-9e6b-696361645f70,rev?*%
%TF.SameCoordinates,Original*%
%TF.FileFunction,Copper,L3,Inr*%
%TF.FilePolarity,Positive*%
%FSLAX46Y46*%
G04 Gerber Fmt 4.6, Leading zero omitted, Abs format (unit mm)*
G04 Created by KiCad (PCBNEW 8.0.5) date 2024-11-27 23:03:38*
%MOMM*%
%LPD*%
G01*
G04 APERTURE LIST*
%TA.AperFunction,ComponentPad*%
%ADD10C,4.600000*%
%TD*%
%TA.AperFunction,ComponentPad*%
%ADD11C,1.800000*%
%TD*%
%TA.AperFunction,ComponentPad*%
%ADD12R,1.700000X1.700000*%
%TD*%
%TA.AperFunction,ComponentPad*%
%ADD13O,1.700000X1.700000*%
%TD*%
%TA.AperFunction,ComponentPad*%
%ADD14C,5.600000*%
%TD*%
%TA.AperFunction,ComponentPad*%
%ADD15R,2.781300X2.781300*%
%TD*%
%TA.AperFunction,ComponentPad*%
%ADD16C,2.781300*%
%TD*%
%TA.AperFunction,ComponentPad*%
%ADD17C,1.803400*%
%TD*%
%TA.AperFunction,ViaPad*%
%ADD18C,0.460000*%
%TD*%
G04 APERTURE END LIST*
D10*
%TO.N,*%
%TO.C,RV2*%
X148737500Y-54100000D03*
X158737500Y-54100000D03*
D11*
%TO.N,unconnected-(RV2-Pad1)*%
X156237500Y-50800000D03*
%TO.N,unconnected-(RV2-Pad2)*%
X153737500Y-50800000D03*
%TO.N,unconnected-(RV2-Pad3)*%
X151237500Y-50800000D03*
%TD*%
D12*
%TO.N,Net-(J3-USB_5V)*%
%TO.C,J4*%
X221762500Y-110850000D03*
D13*
%TO.N,Net-(J3-USB_D-)*%
X221762500Y-113390000D03*
%TO.N,/Bus/USB_D+*%
X221762500Y-115930000D03*
%TO.N,GND*%
X221762500Y-118470000D03*
%TD*%
D14*
%TO.N,unconnected-(H6-Pad1)*%
%TO.C,H6*%
X219762500Y-70850000D03*
%TD*%
%TO.N,unconnected-(H1-Pad1)*%
%TO.C,H1*%
X129762500Y-90850000D03*
%TD*%
%TO.N,unconnected-(H5-Pad1)*%
%TO.C,H5*%
X129762500Y-70850000D03*
%TD*%
D10*
%TO.N,*%
%TO.C,RV3*%
X165737500Y-54100000D03*
X175737500Y-54100000D03*
D11*
%TO.N,unconnected-(RV3-Pad1)*%
X173237500Y-50800000D03*
%TO.N,unconnected-(RV3-Pad2)*%
X170737500Y-50800000D03*
%TO.N,unconnected-(RV3-Pad3)*%
X168237500Y-50800000D03*
%TD*%
D14*
%TO.N,unconnected-(H3-Pad1)*%
%TO.C,H3*%
X129762500Y-140850000D03*
%TD*%
D15*
%TO.N,unconnected-(SW1-Pad1)*%
%TO.C,SW1*%
X191224000Y-65360000D03*
D16*
%TO.N,unconnected-(SW1-Pad2)*%
X186525000Y-65360000D03*
%TO.N,unconnected-(SW1-Pad3)*%
X181826000Y-65360000D03*
%TO.N,unconnected-(SW1-Pad4)*%
X191224000Y-61550000D03*
%TO.N,unconnected-(SW1-Pad5)*%
X186525000Y-61550000D03*
%TO.N,unconnected-(SW1-Pad6)*%
X181826000Y-61550000D03*
%TO.N,N/C*%
X189065000Y-48850000D03*
X183985000Y-48850000D03*
%TD*%
D14*
%TO.N,unconnected-(H4-Pad1)*%
%TO.C,H4*%
X179762500Y-140850000D03*
%TD*%
%TO.N,unconnected-(H2-Pad1)*%
%TO.C,H2*%
X179762500Y-90850000D03*
%TD*%
D12*
%TO.N,GND*%
%TO.C,J8*%
X219182500Y-96770000D03*
D13*
X221722500Y-96770000D03*
%TO.N,+5V*%
X219182500Y-99310000D03*
X221722500Y-99310000D03*
%TO.N,/Bus/I2C0_SCL*%
X219182500Y-101850000D03*
%TO.N,/Bus/I2C1_SCL*%
X221722500Y-101850000D03*
%TO.N,/Bus/I2C0_SDA*%
X219182500Y-104390000D03*
%TO.N,/Bus/I2C1_SDA*%
X221722500Y-104390000D03*
%TD*%
D10*
%TO.N,*%
%TO.C,RV1*%
X131262500Y-54150000D03*
X141262500Y-54150000D03*
D11*
%TO.N,unconnected-(RV1-Pad1)*%
X138762500Y-50850000D03*
%TO.N,unconnected-(RV1-Pad2)*%
X136262500Y-50850000D03*
%TO.N,unconnected-(RV1-Pad3)*%
X133762500Y-50850000D03*
%TD*%
D17*
%TO.N,-12V*%
%TO.C,J2*%
X203362500Y-130510000D03*
X203362500Y-133050000D03*
%TO.N,GND*%
X200822500Y-130510000D03*
X200822500Y-133050000D03*
X198282500Y-130510000D03*
X198282500Y-133050000D03*
X195742500Y-130510000D03*
X195742500Y-133050000D03*
%TO.N,+12V*%
X193202500Y-130510000D03*
X193202500Y-133050000D03*
%TO.N,+5V*%
X190662500Y-130510000D03*
X190662500Y-133050000D03*
%TO.N,/Bus/CON_CV*%
X188122500Y-130510000D03*
X188122500Y-133050000D03*
%TO.N,/Bus/CON_GATE*%
X185582500Y-130510000D03*
X185582500Y-133050000D03*
%TD*%
D18*
%TO.N,GND*%
X220762000Y-132000000D03*
X219762000Y-131000000D03*
X221762000Y-133000000D03*
X218762000Y-130000000D03*
X215738000Y-137490000D03*
%TO.N,-12V*%
X197149000Y-139634000D03*
%TO.N,Net-(D4-K)*%
X201423000Y-125879000D03*
%TO.N,Net-(D1-K)*%
X188111000Y-124316000D03*
%TO.N,Net-(D3-A)*%
X196248000Y-126906000D03*
%TO.N,/Bus/CON_GATE*%
X194724000Y-135702000D03*
%TO.N,Net-(J3-Audio_Out_D)*%
X221262000Y-132500000D03*
%TO.N,Net-(J3-Audio_Out_B)*%
X219262000Y-130500000D03*
%TO.N,Net-(J3-Audio_Out_A)*%
X218262000Y-129500000D03*
%TO.N,Net-(J3-Audio_Out_C)*%
X220262000Y-131500000D03*
%TO.N,Net-(D2-K)*%
X191278300Y-123631500D03*
X191630000Y-124316000D03*
%TO.N,/EXT_JACK_TN_3*%
X135912100Y-102286001D03*
%TO.N,/EXT_JACK_T_4*%
X137293100Y-102630001D03*
%TO.N,/EXT_JACK_TN_4*%
X137293100Y-103631001D03*
%TO.N,/EXT_JACK_R_4*%
X137293100Y-104630000D03*
%TO.N,/EXT_JACK_T_3*%
X135793101Y-101637001D03*
%TO.N,/EXT_JACK_R_3*%
X136402100Y-102728999D03*
%TD*%
M02*
