%TF.GenerationSoftware,KiCad,Pcbnew,8.0.5*%
%TF.CreationDate,2024-11-27T23:03:38-05:00*%
%TF.ProjectId,HacKeys,4861634b-6579-4732-9e6b-696361645f70,rev?*%
%TF.SameCoordinates,Original*%
%TF.FileFunction,Other,Comment*%
%FSLAX46Y46*%
G04 Gerber Fmt 4.6, Leading zero omitted, Abs format (unit mm)*
G04 Created by KiCad (PCBNEW 8.0.5) date 2024-11-27 23:03:38*
%MOMM*%
%LPD*%
G01*
G04 APERTURE LIST*
%ADD10C,0.150000*%
%ADD11C,0.100000*%
%ADD12C,0.187500*%
G04 APERTURE END LIST*
D10*
X36051660Y-21804272D02*
X36527850Y-21804272D01*
X35956422Y-22089987D02*
X36289755Y-21089987D01*
X36289755Y-21089987D02*
X36623088Y-22089987D01*
X36956422Y-21709034D02*
X37718327Y-21709034D01*
X38718326Y-22089987D02*
X38146898Y-22089987D01*
X38432612Y-22089987D02*
X38432612Y-21089987D01*
X38432612Y-21089987D02*
X38337374Y-21232844D01*
X38337374Y-21232844D02*
X38242136Y-21328082D01*
X38242136Y-21328082D02*
X38146898Y-21375701D01*
X39337374Y-21089987D02*
X39432612Y-21089987D01*
X39432612Y-21089987D02*
X39527850Y-21137606D01*
X39527850Y-21137606D02*
X39575469Y-21185225D01*
X39575469Y-21185225D02*
X39623088Y-21280463D01*
X39623088Y-21280463D02*
X39670707Y-21470939D01*
X39670707Y-21470939D02*
X39670707Y-21709034D01*
X39670707Y-21709034D02*
X39623088Y-21899510D01*
X39623088Y-21899510D02*
X39575469Y-21994748D01*
X39575469Y-21994748D02*
X39527850Y-22042368D01*
X39527850Y-22042368D02*
X39432612Y-22089987D01*
X39432612Y-22089987D02*
X39337374Y-22089987D01*
X39337374Y-22089987D02*
X39242136Y-22042368D01*
X39242136Y-22042368D02*
X39194517Y-21994748D01*
X39194517Y-21994748D02*
X39146898Y-21899510D01*
X39146898Y-21899510D02*
X39099279Y-21709034D01*
X39099279Y-21709034D02*
X39099279Y-21470939D01*
X39099279Y-21470939D02*
X39146898Y-21280463D01*
X39146898Y-21280463D02*
X39194517Y-21185225D01*
X39194517Y-21185225D02*
X39242136Y-21137606D01*
X39242136Y-21137606D02*
X39337374Y-21089987D01*
X40289755Y-21089987D02*
X40384993Y-21089987D01*
X40384993Y-21089987D02*
X40480231Y-21137606D01*
X40480231Y-21137606D02*
X40527850Y-21185225D01*
X40527850Y-21185225D02*
X40575469Y-21280463D01*
X40575469Y-21280463D02*
X40623088Y-21470939D01*
X40623088Y-21470939D02*
X40623088Y-21709034D01*
X40623088Y-21709034D02*
X40575469Y-21899510D01*
X40575469Y-21899510D02*
X40527850Y-21994748D01*
X40527850Y-21994748D02*
X40480231Y-22042368D01*
X40480231Y-22042368D02*
X40384993Y-22089987D01*
X40384993Y-22089987D02*
X40289755Y-22089987D01*
X40289755Y-22089987D02*
X40194517Y-22042368D01*
X40194517Y-22042368D02*
X40146898Y-21994748D01*
X40146898Y-21994748D02*
X40099279Y-21899510D01*
X40099279Y-21899510D02*
X40051660Y-21709034D01*
X40051660Y-21709034D02*
X40051660Y-21470939D01*
X40051660Y-21470939D02*
X40099279Y-21280463D01*
X40099279Y-21280463D02*
X40146898Y-21185225D01*
X40146898Y-21185225D02*
X40194517Y-21137606D01*
X40194517Y-21137606D02*
X40289755Y-21089987D01*
X42384993Y-21994748D02*
X42337374Y-22042368D01*
X42337374Y-22042368D02*
X42194517Y-22089987D01*
X42194517Y-22089987D02*
X42099279Y-22089987D01*
X42099279Y-22089987D02*
X41956422Y-22042368D01*
X41956422Y-22042368D02*
X41861184Y-21947129D01*
X41861184Y-21947129D02*
X41813565Y-21851891D01*
X41813565Y-21851891D02*
X41765946Y-21661415D01*
X41765946Y-21661415D02*
X41765946Y-21518558D01*
X41765946Y-21518558D02*
X41813565Y-21328082D01*
X41813565Y-21328082D02*
X41861184Y-21232844D01*
X41861184Y-21232844D02*
X41956422Y-21137606D01*
X41956422Y-21137606D02*
X42099279Y-21089987D01*
X42099279Y-21089987D02*
X42194517Y-21089987D01*
X42194517Y-21089987D02*
X42337374Y-21137606D01*
X42337374Y-21137606D02*
X42384993Y-21185225D01*
X42956422Y-22089987D02*
X42861184Y-22042368D01*
X42861184Y-22042368D02*
X42813565Y-21994748D01*
X42813565Y-21994748D02*
X42765946Y-21899510D01*
X42765946Y-21899510D02*
X42765946Y-21613796D01*
X42765946Y-21613796D02*
X42813565Y-21518558D01*
X42813565Y-21518558D02*
X42861184Y-21470939D01*
X42861184Y-21470939D02*
X42956422Y-21423320D01*
X42956422Y-21423320D02*
X43099279Y-21423320D01*
X43099279Y-21423320D02*
X43194517Y-21470939D01*
X43194517Y-21470939D02*
X43242136Y-21518558D01*
X43242136Y-21518558D02*
X43289755Y-21613796D01*
X43289755Y-21613796D02*
X43289755Y-21899510D01*
X43289755Y-21899510D02*
X43242136Y-21994748D01*
X43242136Y-21994748D02*
X43194517Y-22042368D01*
X43194517Y-22042368D02*
X43099279Y-22089987D01*
X43099279Y-22089987D02*
X42956422Y-22089987D01*
X43718327Y-21423320D02*
X43718327Y-22089987D01*
X43718327Y-21518558D02*
X43765946Y-21470939D01*
X43765946Y-21470939D02*
X43861184Y-21423320D01*
X43861184Y-21423320D02*
X44004041Y-21423320D01*
X44004041Y-21423320D02*
X44099279Y-21470939D01*
X44099279Y-21470939D02*
X44146898Y-21566177D01*
X44146898Y-21566177D02*
X44146898Y-22089987D01*
X44575470Y-22042368D02*
X44670708Y-22089987D01*
X44670708Y-22089987D02*
X44861184Y-22089987D01*
X44861184Y-22089987D02*
X44956422Y-22042368D01*
X44956422Y-22042368D02*
X45004041Y-21947129D01*
X45004041Y-21947129D02*
X45004041Y-21899510D01*
X45004041Y-21899510D02*
X44956422Y-21804272D01*
X44956422Y-21804272D02*
X44861184Y-21756653D01*
X44861184Y-21756653D02*
X44718327Y-21756653D01*
X44718327Y-21756653D02*
X44623089Y-21709034D01*
X44623089Y-21709034D02*
X44575470Y-21613796D01*
X44575470Y-21613796D02*
X44575470Y-21566177D01*
X44575470Y-21566177D02*
X44623089Y-21470939D01*
X44623089Y-21470939D02*
X44718327Y-21423320D01*
X44718327Y-21423320D02*
X44861184Y-21423320D01*
X44861184Y-21423320D02*
X44956422Y-21470939D01*
X45289756Y-21423320D02*
X45670708Y-21423320D01*
X45432613Y-21089987D02*
X45432613Y-21947129D01*
X45432613Y-21947129D02*
X45480232Y-22042368D01*
X45480232Y-22042368D02*
X45575470Y-22089987D01*
X45575470Y-22089987D02*
X45670708Y-22089987D01*
X46004042Y-22089987D02*
X46004042Y-21423320D01*
X46004042Y-21613796D02*
X46051661Y-21518558D01*
X46051661Y-21518558D02*
X46099280Y-21470939D01*
X46099280Y-21470939D02*
X46194518Y-21423320D01*
X46194518Y-21423320D02*
X46289756Y-21423320D01*
X47051661Y-21423320D02*
X47051661Y-22089987D01*
X46623090Y-21423320D02*
X46623090Y-21947129D01*
X46623090Y-21947129D02*
X46670709Y-22042368D01*
X46670709Y-22042368D02*
X46765947Y-22089987D01*
X46765947Y-22089987D02*
X46908804Y-22089987D01*
X46908804Y-22089987D02*
X47004042Y-22042368D01*
X47004042Y-22042368D02*
X47051661Y-21994748D01*
X47956423Y-22042368D02*
X47861185Y-22089987D01*
X47861185Y-22089987D02*
X47670709Y-22089987D01*
X47670709Y-22089987D02*
X47575471Y-22042368D01*
X47575471Y-22042368D02*
X47527852Y-21994748D01*
X47527852Y-21994748D02*
X47480233Y-21899510D01*
X47480233Y-21899510D02*
X47480233Y-21613796D01*
X47480233Y-21613796D02*
X47527852Y-21518558D01*
X47527852Y-21518558D02*
X47575471Y-21470939D01*
X47575471Y-21470939D02*
X47670709Y-21423320D01*
X47670709Y-21423320D02*
X47861185Y-21423320D01*
X47861185Y-21423320D02*
X47956423Y-21470939D01*
X48242138Y-21423320D02*
X48623090Y-21423320D01*
X48384995Y-21089987D02*
X48384995Y-21947129D01*
X48384995Y-21947129D02*
X48432614Y-22042368D01*
X48432614Y-22042368D02*
X48527852Y-22089987D01*
X48527852Y-22089987D02*
X48623090Y-22089987D01*
X48956424Y-22089987D02*
X48956424Y-21423320D01*
X48956424Y-21089987D02*
X48908805Y-21137606D01*
X48908805Y-21137606D02*
X48956424Y-21185225D01*
X48956424Y-21185225D02*
X49004043Y-21137606D01*
X49004043Y-21137606D02*
X48956424Y-21089987D01*
X48956424Y-21089987D02*
X48956424Y-21185225D01*
X49575471Y-22089987D02*
X49480233Y-22042368D01*
X49480233Y-22042368D02*
X49432614Y-21994748D01*
X49432614Y-21994748D02*
X49384995Y-21899510D01*
X49384995Y-21899510D02*
X49384995Y-21613796D01*
X49384995Y-21613796D02*
X49432614Y-21518558D01*
X49432614Y-21518558D02*
X49480233Y-21470939D01*
X49480233Y-21470939D02*
X49575471Y-21423320D01*
X49575471Y-21423320D02*
X49718328Y-21423320D01*
X49718328Y-21423320D02*
X49813566Y-21470939D01*
X49813566Y-21470939D02*
X49861185Y-21518558D01*
X49861185Y-21518558D02*
X49908804Y-21613796D01*
X49908804Y-21613796D02*
X49908804Y-21899510D01*
X49908804Y-21899510D02*
X49861185Y-21994748D01*
X49861185Y-21994748D02*
X49813566Y-22042368D01*
X49813566Y-22042368D02*
X49718328Y-22089987D01*
X49718328Y-22089987D02*
X49575471Y-22089987D01*
X50337376Y-21423320D02*
X50337376Y-22089987D01*
X50337376Y-21518558D02*
X50384995Y-21470939D01*
X50384995Y-21470939D02*
X50480233Y-21423320D01*
X50480233Y-21423320D02*
X50623090Y-21423320D01*
X50623090Y-21423320D02*
X50718328Y-21470939D01*
X50718328Y-21470939D02*
X50765947Y-21566177D01*
X50765947Y-21566177D02*
X50765947Y-22089987D01*
X52004043Y-22089987D02*
X52004043Y-21089987D01*
X52004043Y-21089987D02*
X52242138Y-21089987D01*
X52242138Y-21089987D02*
X52384995Y-21137606D01*
X52384995Y-21137606D02*
X52480233Y-21232844D01*
X52480233Y-21232844D02*
X52527852Y-21328082D01*
X52527852Y-21328082D02*
X52575471Y-21518558D01*
X52575471Y-21518558D02*
X52575471Y-21661415D01*
X52575471Y-21661415D02*
X52527852Y-21851891D01*
X52527852Y-21851891D02*
X52480233Y-21947129D01*
X52480233Y-21947129D02*
X52384995Y-22042368D01*
X52384995Y-22042368D02*
X52242138Y-22089987D01*
X52242138Y-22089987D02*
X52004043Y-22089987D01*
X53384995Y-22042368D02*
X53289757Y-22089987D01*
X53289757Y-22089987D02*
X53099281Y-22089987D01*
X53099281Y-22089987D02*
X53004043Y-22042368D01*
X53004043Y-22042368D02*
X52956424Y-21947129D01*
X52956424Y-21947129D02*
X52956424Y-21566177D01*
X52956424Y-21566177D02*
X53004043Y-21470939D01*
X53004043Y-21470939D02*
X53099281Y-21423320D01*
X53099281Y-21423320D02*
X53289757Y-21423320D01*
X53289757Y-21423320D02*
X53384995Y-21470939D01*
X53384995Y-21470939D02*
X53432614Y-21566177D01*
X53432614Y-21566177D02*
X53432614Y-21661415D01*
X53432614Y-21661415D02*
X52956424Y-21756653D01*
X53718329Y-21423320D02*
X54099281Y-21423320D01*
X53861186Y-21089987D02*
X53861186Y-21947129D01*
X53861186Y-21947129D02*
X53908805Y-22042368D01*
X53908805Y-22042368D02*
X54004043Y-22089987D01*
X54004043Y-22089987D02*
X54099281Y-22089987D01*
X54861186Y-22089987D02*
X54861186Y-21566177D01*
X54861186Y-21566177D02*
X54813567Y-21470939D01*
X54813567Y-21470939D02*
X54718329Y-21423320D01*
X54718329Y-21423320D02*
X54527853Y-21423320D01*
X54527853Y-21423320D02*
X54432615Y-21470939D01*
X54861186Y-22042368D02*
X54765948Y-22089987D01*
X54765948Y-22089987D02*
X54527853Y-22089987D01*
X54527853Y-22089987D02*
X54432615Y-22042368D01*
X54432615Y-22042368D02*
X54384996Y-21947129D01*
X54384996Y-21947129D02*
X54384996Y-21851891D01*
X54384996Y-21851891D02*
X54432615Y-21756653D01*
X54432615Y-21756653D02*
X54527853Y-21709034D01*
X54527853Y-21709034D02*
X54765948Y-21709034D01*
X54765948Y-21709034D02*
X54861186Y-21661415D01*
X55337377Y-22089987D02*
X55337377Y-21423320D01*
X55337377Y-21089987D02*
X55289758Y-21137606D01*
X55289758Y-21137606D02*
X55337377Y-21185225D01*
X55337377Y-21185225D02*
X55384996Y-21137606D01*
X55384996Y-21137606D02*
X55337377Y-21089987D01*
X55337377Y-21089987D02*
X55337377Y-21185225D01*
X55956424Y-22089987D02*
X55861186Y-22042368D01*
X55861186Y-22042368D02*
X55813567Y-21947129D01*
X55813567Y-21947129D02*
X55813567Y-21089987D01*
X56289758Y-22042368D02*
X56384996Y-22089987D01*
X56384996Y-22089987D02*
X56575472Y-22089987D01*
X56575472Y-22089987D02*
X56670710Y-22042368D01*
X56670710Y-22042368D02*
X56718329Y-21947129D01*
X56718329Y-21947129D02*
X56718329Y-21899510D01*
X56718329Y-21899510D02*
X56670710Y-21804272D01*
X56670710Y-21804272D02*
X56575472Y-21756653D01*
X56575472Y-21756653D02*
X56432615Y-21756653D01*
X56432615Y-21756653D02*
X56337377Y-21709034D01*
X56337377Y-21709034D02*
X56289758Y-21613796D01*
X56289758Y-21613796D02*
X56289758Y-21566177D01*
X56289758Y-21566177D02*
X56337377Y-21470939D01*
X56337377Y-21470939D02*
X56432615Y-21423320D01*
X56432615Y-21423320D02*
X56575472Y-21423320D01*
X56575472Y-21423320D02*
X56670710Y-21470939D01*
X36099279Y-23699931D02*
X36099279Y-22699931D01*
X36527850Y-23699931D02*
X36527850Y-23176121D01*
X36527850Y-23176121D02*
X36480231Y-23080883D01*
X36480231Y-23080883D02*
X36384993Y-23033264D01*
X36384993Y-23033264D02*
X36242136Y-23033264D01*
X36242136Y-23033264D02*
X36146898Y-23080883D01*
X36146898Y-23080883D02*
X36099279Y-23128502D01*
X36861184Y-23033264D02*
X37242136Y-23033264D01*
X37004041Y-22699931D02*
X37004041Y-23557073D01*
X37004041Y-23557073D02*
X37051660Y-23652312D01*
X37051660Y-23652312D02*
X37146898Y-23699931D01*
X37146898Y-23699931D02*
X37242136Y-23699931D01*
X37432613Y-23033264D02*
X37813565Y-23033264D01*
X37575470Y-22699931D02*
X37575470Y-23557073D01*
X37575470Y-23557073D02*
X37623089Y-23652312D01*
X37623089Y-23652312D02*
X37718327Y-23699931D01*
X37718327Y-23699931D02*
X37813565Y-23699931D01*
X38146899Y-23033264D02*
X38146899Y-24033264D01*
X38146899Y-23080883D02*
X38242137Y-23033264D01*
X38242137Y-23033264D02*
X38432613Y-23033264D01*
X38432613Y-23033264D02*
X38527851Y-23080883D01*
X38527851Y-23080883D02*
X38575470Y-23128502D01*
X38575470Y-23128502D02*
X38623089Y-23223740D01*
X38623089Y-23223740D02*
X38623089Y-23509454D01*
X38623089Y-23509454D02*
X38575470Y-23604692D01*
X38575470Y-23604692D02*
X38527851Y-23652312D01*
X38527851Y-23652312D02*
X38432613Y-23699931D01*
X38432613Y-23699931D02*
X38242137Y-23699931D01*
X38242137Y-23699931D02*
X38146899Y-23652312D01*
X39004042Y-23652312D02*
X39099280Y-23699931D01*
X39099280Y-23699931D02*
X39289756Y-23699931D01*
X39289756Y-23699931D02*
X39384994Y-23652312D01*
X39384994Y-23652312D02*
X39432613Y-23557073D01*
X39432613Y-23557073D02*
X39432613Y-23509454D01*
X39432613Y-23509454D02*
X39384994Y-23414216D01*
X39384994Y-23414216D02*
X39289756Y-23366597D01*
X39289756Y-23366597D02*
X39146899Y-23366597D01*
X39146899Y-23366597D02*
X39051661Y-23318978D01*
X39051661Y-23318978D02*
X39004042Y-23223740D01*
X39004042Y-23223740D02*
X39004042Y-23176121D01*
X39004042Y-23176121D02*
X39051661Y-23080883D01*
X39051661Y-23080883D02*
X39146899Y-23033264D01*
X39146899Y-23033264D02*
X39289756Y-23033264D01*
X39289756Y-23033264D02*
X39384994Y-23080883D01*
X39861185Y-23604692D02*
X39908804Y-23652312D01*
X39908804Y-23652312D02*
X39861185Y-23699931D01*
X39861185Y-23699931D02*
X39813566Y-23652312D01*
X39813566Y-23652312D02*
X39861185Y-23604692D01*
X39861185Y-23604692D02*
X39861185Y-23699931D01*
X39861185Y-23080883D02*
X39908804Y-23128502D01*
X39908804Y-23128502D02*
X39861185Y-23176121D01*
X39861185Y-23176121D02*
X39813566Y-23128502D01*
X39813566Y-23128502D02*
X39861185Y-23080883D01*
X39861185Y-23080883D02*
X39861185Y-23176121D01*
X41051660Y-22652312D02*
X40194518Y-23938026D01*
X42099279Y-22652312D02*
X41242137Y-23938026D01*
X42861184Y-23699931D02*
X42861184Y-22699931D01*
X42861184Y-23652312D02*
X42765946Y-23699931D01*
X42765946Y-23699931D02*
X42575470Y-23699931D01*
X42575470Y-23699931D02*
X42480232Y-23652312D01*
X42480232Y-23652312D02*
X42432613Y-23604692D01*
X42432613Y-23604692D02*
X42384994Y-23509454D01*
X42384994Y-23509454D02*
X42384994Y-23223740D01*
X42384994Y-23223740D02*
X42432613Y-23128502D01*
X42432613Y-23128502D02*
X42480232Y-23080883D01*
X42480232Y-23080883D02*
X42575470Y-23033264D01*
X42575470Y-23033264D02*
X42765946Y-23033264D01*
X42765946Y-23033264D02*
X42861184Y-23080883D01*
X43480232Y-23699931D02*
X43384994Y-23652312D01*
X43384994Y-23652312D02*
X43337375Y-23604692D01*
X43337375Y-23604692D02*
X43289756Y-23509454D01*
X43289756Y-23509454D02*
X43289756Y-23223740D01*
X43289756Y-23223740D02*
X43337375Y-23128502D01*
X43337375Y-23128502D02*
X43384994Y-23080883D01*
X43384994Y-23080883D02*
X43480232Y-23033264D01*
X43480232Y-23033264D02*
X43623089Y-23033264D01*
X43623089Y-23033264D02*
X43718327Y-23080883D01*
X43718327Y-23080883D02*
X43765946Y-23128502D01*
X43765946Y-23128502D02*
X43813565Y-23223740D01*
X43813565Y-23223740D02*
X43813565Y-23509454D01*
X43813565Y-23509454D02*
X43765946Y-23604692D01*
X43765946Y-23604692D02*
X43718327Y-23652312D01*
X43718327Y-23652312D02*
X43623089Y-23699931D01*
X43623089Y-23699931D02*
X43480232Y-23699931D01*
X44623089Y-23652312D02*
X44527851Y-23699931D01*
X44527851Y-23699931D02*
X44337375Y-23699931D01*
X44337375Y-23699931D02*
X44242137Y-23652312D01*
X44242137Y-23652312D02*
X44194518Y-23557073D01*
X44194518Y-23557073D02*
X44194518Y-23176121D01*
X44194518Y-23176121D02*
X44242137Y-23080883D01*
X44242137Y-23080883D02*
X44337375Y-23033264D01*
X44337375Y-23033264D02*
X44527851Y-23033264D01*
X44527851Y-23033264D02*
X44623089Y-23080883D01*
X44623089Y-23080883D02*
X44670708Y-23176121D01*
X44670708Y-23176121D02*
X44670708Y-23271359D01*
X44670708Y-23271359D02*
X44194518Y-23366597D01*
X45099280Y-23033264D02*
X45099280Y-24033264D01*
X45099280Y-23080883D02*
X45194518Y-23033264D01*
X45194518Y-23033264D02*
X45384994Y-23033264D01*
X45384994Y-23033264D02*
X45480232Y-23080883D01*
X45480232Y-23080883D02*
X45527851Y-23128502D01*
X45527851Y-23128502D02*
X45575470Y-23223740D01*
X45575470Y-23223740D02*
X45575470Y-23509454D01*
X45575470Y-23509454D02*
X45527851Y-23604692D01*
X45527851Y-23604692D02*
X45480232Y-23652312D01*
X45480232Y-23652312D02*
X45384994Y-23699931D01*
X45384994Y-23699931D02*
X45194518Y-23699931D01*
X45194518Y-23699931D02*
X45099280Y-23652312D01*
X45861185Y-23033264D02*
X46242137Y-23033264D01*
X46004042Y-23699931D02*
X46004042Y-22842788D01*
X46004042Y-22842788D02*
X46051661Y-22747550D01*
X46051661Y-22747550D02*
X46146899Y-22699931D01*
X46146899Y-22699931D02*
X46242137Y-22699931D01*
X46956423Y-23652312D02*
X46861185Y-23699931D01*
X46861185Y-23699931D02*
X46670709Y-23699931D01*
X46670709Y-23699931D02*
X46575471Y-23652312D01*
X46575471Y-23652312D02*
X46527852Y-23557073D01*
X46527852Y-23557073D02*
X46527852Y-23176121D01*
X46527852Y-23176121D02*
X46575471Y-23080883D01*
X46575471Y-23080883D02*
X46670709Y-23033264D01*
X46670709Y-23033264D02*
X46861185Y-23033264D01*
X46861185Y-23033264D02*
X46956423Y-23080883D01*
X46956423Y-23080883D02*
X47004042Y-23176121D01*
X47004042Y-23176121D02*
X47004042Y-23271359D01*
X47004042Y-23271359D02*
X46527852Y-23366597D01*
X47432614Y-23699931D02*
X47432614Y-23033264D01*
X47432614Y-23223740D02*
X47480233Y-23128502D01*
X47480233Y-23128502D02*
X47527852Y-23080883D01*
X47527852Y-23080883D02*
X47623090Y-23033264D01*
X47623090Y-23033264D02*
X47718328Y-23033264D01*
X48051662Y-23604692D02*
X48099281Y-23652312D01*
X48099281Y-23652312D02*
X48051662Y-23699931D01*
X48051662Y-23699931D02*
X48004043Y-23652312D01*
X48004043Y-23652312D02*
X48051662Y-23604692D01*
X48051662Y-23604692D02*
X48051662Y-23699931D01*
X48956423Y-23699931D02*
X48956423Y-22699931D01*
X48956423Y-23652312D02*
X48861185Y-23699931D01*
X48861185Y-23699931D02*
X48670709Y-23699931D01*
X48670709Y-23699931D02*
X48575471Y-23652312D01*
X48575471Y-23652312D02*
X48527852Y-23604692D01*
X48527852Y-23604692D02*
X48480233Y-23509454D01*
X48480233Y-23509454D02*
X48480233Y-23223740D01*
X48480233Y-23223740D02*
X48527852Y-23128502D01*
X48527852Y-23128502D02*
X48575471Y-23080883D01*
X48575471Y-23080883D02*
X48670709Y-23033264D01*
X48670709Y-23033264D02*
X48861185Y-23033264D01*
X48861185Y-23033264D02*
X48956423Y-23080883D01*
X49813566Y-23652312D02*
X49718328Y-23699931D01*
X49718328Y-23699931D02*
X49527852Y-23699931D01*
X49527852Y-23699931D02*
X49432614Y-23652312D01*
X49432614Y-23652312D02*
X49384995Y-23557073D01*
X49384995Y-23557073D02*
X49384995Y-23176121D01*
X49384995Y-23176121D02*
X49432614Y-23080883D01*
X49432614Y-23080883D02*
X49527852Y-23033264D01*
X49527852Y-23033264D02*
X49718328Y-23033264D01*
X49718328Y-23033264D02*
X49813566Y-23080883D01*
X49813566Y-23080883D02*
X49861185Y-23176121D01*
X49861185Y-23176121D02*
X49861185Y-23271359D01*
X49861185Y-23271359D02*
X49384995Y-23366597D01*
X51004042Y-22652312D02*
X50146900Y-23938026D01*
X51765947Y-23699931D02*
X51765947Y-23176121D01*
X51765947Y-23176121D02*
X51718328Y-23080883D01*
X51718328Y-23080883D02*
X51623090Y-23033264D01*
X51623090Y-23033264D02*
X51432614Y-23033264D01*
X51432614Y-23033264D02*
X51337376Y-23080883D01*
X51765947Y-23652312D02*
X51670709Y-23699931D01*
X51670709Y-23699931D02*
X51432614Y-23699931D01*
X51432614Y-23699931D02*
X51337376Y-23652312D01*
X51337376Y-23652312D02*
X51289757Y-23557073D01*
X51289757Y-23557073D02*
X51289757Y-23461835D01*
X51289757Y-23461835D02*
X51337376Y-23366597D01*
X51337376Y-23366597D02*
X51432614Y-23318978D01*
X51432614Y-23318978D02*
X51670709Y-23318978D01*
X51670709Y-23318978D02*
X51765947Y-23271359D01*
X52765947Y-23699931D02*
X52194519Y-23699931D01*
X52480233Y-23699931D02*
X52480233Y-22699931D01*
X52480233Y-22699931D02*
X52384995Y-22842788D01*
X52384995Y-22842788D02*
X52289757Y-22938026D01*
X52289757Y-22938026D02*
X52194519Y-22985645D01*
X53384995Y-22699931D02*
X53480233Y-22699931D01*
X53480233Y-22699931D02*
X53575471Y-22747550D01*
X53575471Y-22747550D02*
X53623090Y-22795169D01*
X53623090Y-22795169D02*
X53670709Y-22890407D01*
X53670709Y-22890407D02*
X53718328Y-23080883D01*
X53718328Y-23080883D02*
X53718328Y-23318978D01*
X53718328Y-23318978D02*
X53670709Y-23509454D01*
X53670709Y-23509454D02*
X53623090Y-23604692D01*
X53623090Y-23604692D02*
X53575471Y-23652312D01*
X53575471Y-23652312D02*
X53480233Y-23699931D01*
X53480233Y-23699931D02*
X53384995Y-23699931D01*
X53384995Y-23699931D02*
X53289757Y-23652312D01*
X53289757Y-23652312D02*
X53242138Y-23604692D01*
X53242138Y-23604692D02*
X53194519Y-23509454D01*
X53194519Y-23509454D02*
X53146900Y-23318978D01*
X53146900Y-23318978D02*
X53146900Y-23080883D01*
X53146900Y-23080883D02*
X53194519Y-22890407D01*
X53194519Y-22890407D02*
X53242138Y-22795169D01*
X53242138Y-22795169D02*
X53289757Y-22747550D01*
X53289757Y-22747550D02*
X53384995Y-22699931D01*
X54337376Y-22699931D02*
X54432614Y-22699931D01*
X54432614Y-22699931D02*
X54527852Y-22747550D01*
X54527852Y-22747550D02*
X54575471Y-22795169D01*
X54575471Y-22795169D02*
X54623090Y-22890407D01*
X54623090Y-22890407D02*
X54670709Y-23080883D01*
X54670709Y-23080883D02*
X54670709Y-23318978D01*
X54670709Y-23318978D02*
X54623090Y-23509454D01*
X54623090Y-23509454D02*
X54575471Y-23604692D01*
X54575471Y-23604692D02*
X54527852Y-23652312D01*
X54527852Y-23652312D02*
X54432614Y-23699931D01*
X54432614Y-23699931D02*
X54337376Y-23699931D01*
X54337376Y-23699931D02*
X54242138Y-23652312D01*
X54242138Y-23652312D02*
X54194519Y-23604692D01*
X54194519Y-23604692D02*
X54146900Y-23509454D01*
X54146900Y-23509454D02*
X54099281Y-23318978D01*
X54099281Y-23318978D02*
X54099281Y-23080883D01*
X54099281Y-23080883D02*
X54146900Y-22890407D01*
X54146900Y-22890407D02*
X54194519Y-22795169D01*
X54194519Y-22795169D02*
X54242138Y-22747550D01*
X54242138Y-22747550D02*
X54337376Y-22699931D01*
X54861186Y-23795169D02*
X55623090Y-23795169D01*
X55861186Y-23699931D02*
X55861186Y-23033264D01*
X55861186Y-23128502D02*
X55908805Y-23080883D01*
X55908805Y-23080883D02*
X56004043Y-23033264D01*
X56004043Y-23033264D02*
X56146900Y-23033264D01*
X56146900Y-23033264D02*
X56242138Y-23080883D01*
X56242138Y-23080883D02*
X56289757Y-23176121D01*
X56289757Y-23176121D02*
X56289757Y-23699931D01*
X56289757Y-23176121D02*
X56337376Y-23080883D01*
X56337376Y-23080883D02*
X56432614Y-23033264D01*
X56432614Y-23033264D02*
X56575471Y-23033264D01*
X56575471Y-23033264D02*
X56670710Y-23080883D01*
X56670710Y-23080883D02*
X56718329Y-23176121D01*
X56718329Y-23176121D02*
X56718329Y-23699931D01*
X57623090Y-23699931D02*
X57623090Y-23176121D01*
X57623090Y-23176121D02*
X57575471Y-23080883D01*
X57575471Y-23080883D02*
X57480233Y-23033264D01*
X57480233Y-23033264D02*
X57289757Y-23033264D01*
X57289757Y-23033264D02*
X57194519Y-23080883D01*
X57623090Y-23652312D02*
X57527852Y-23699931D01*
X57527852Y-23699931D02*
X57289757Y-23699931D01*
X57289757Y-23699931D02*
X57194519Y-23652312D01*
X57194519Y-23652312D02*
X57146900Y-23557073D01*
X57146900Y-23557073D02*
X57146900Y-23461835D01*
X57146900Y-23461835D02*
X57194519Y-23366597D01*
X57194519Y-23366597D02*
X57289757Y-23318978D01*
X57289757Y-23318978D02*
X57527852Y-23318978D01*
X57527852Y-23318978D02*
X57623090Y-23271359D01*
X58099281Y-23033264D02*
X58099281Y-23699931D01*
X58099281Y-23128502D02*
X58146900Y-23080883D01*
X58146900Y-23080883D02*
X58242138Y-23033264D01*
X58242138Y-23033264D02*
X58384995Y-23033264D01*
X58384995Y-23033264D02*
X58480233Y-23080883D01*
X58480233Y-23080883D02*
X58527852Y-23176121D01*
X58527852Y-23176121D02*
X58527852Y-23699931D01*
X59718328Y-22652312D02*
X58861186Y-23938026D01*
X60480233Y-23699931D02*
X60480233Y-23176121D01*
X60480233Y-23176121D02*
X60432614Y-23080883D01*
X60432614Y-23080883D02*
X60337376Y-23033264D01*
X60337376Y-23033264D02*
X60146900Y-23033264D01*
X60146900Y-23033264D02*
X60051662Y-23080883D01*
X60480233Y-23652312D02*
X60384995Y-23699931D01*
X60384995Y-23699931D02*
X60146900Y-23699931D01*
X60146900Y-23699931D02*
X60051662Y-23652312D01*
X60051662Y-23652312D02*
X60004043Y-23557073D01*
X60004043Y-23557073D02*
X60004043Y-23461835D01*
X60004043Y-23461835D02*
X60051662Y-23366597D01*
X60051662Y-23366597D02*
X60146900Y-23318978D01*
X60146900Y-23318978D02*
X60384995Y-23318978D01*
X60384995Y-23318978D02*
X60480233Y-23271359D01*
X61480233Y-23699931D02*
X60908805Y-23699931D01*
X61194519Y-23699931D02*
X61194519Y-22699931D01*
X61194519Y-22699931D02*
X61099281Y-22842788D01*
X61099281Y-22842788D02*
X61004043Y-22938026D01*
X61004043Y-22938026D02*
X60908805Y-22985645D01*
X62099281Y-22699931D02*
X62194519Y-22699931D01*
X62194519Y-22699931D02*
X62289757Y-22747550D01*
X62289757Y-22747550D02*
X62337376Y-22795169D01*
X62337376Y-22795169D02*
X62384995Y-22890407D01*
X62384995Y-22890407D02*
X62432614Y-23080883D01*
X62432614Y-23080883D02*
X62432614Y-23318978D01*
X62432614Y-23318978D02*
X62384995Y-23509454D01*
X62384995Y-23509454D02*
X62337376Y-23604692D01*
X62337376Y-23604692D02*
X62289757Y-23652312D01*
X62289757Y-23652312D02*
X62194519Y-23699931D01*
X62194519Y-23699931D02*
X62099281Y-23699931D01*
X62099281Y-23699931D02*
X62004043Y-23652312D01*
X62004043Y-23652312D02*
X61956424Y-23604692D01*
X61956424Y-23604692D02*
X61908805Y-23509454D01*
X61908805Y-23509454D02*
X61861186Y-23318978D01*
X61861186Y-23318978D02*
X61861186Y-23080883D01*
X61861186Y-23080883D02*
X61908805Y-22890407D01*
X61908805Y-22890407D02*
X61956424Y-22795169D01*
X61956424Y-22795169D02*
X62004043Y-22747550D01*
X62004043Y-22747550D02*
X62099281Y-22699931D01*
X63051662Y-22699931D02*
X63146900Y-22699931D01*
X63146900Y-22699931D02*
X63242138Y-22747550D01*
X63242138Y-22747550D02*
X63289757Y-22795169D01*
X63289757Y-22795169D02*
X63337376Y-22890407D01*
X63337376Y-22890407D02*
X63384995Y-23080883D01*
X63384995Y-23080883D02*
X63384995Y-23318978D01*
X63384995Y-23318978D02*
X63337376Y-23509454D01*
X63337376Y-23509454D02*
X63289757Y-23604692D01*
X63289757Y-23604692D02*
X63242138Y-23652312D01*
X63242138Y-23652312D02*
X63146900Y-23699931D01*
X63146900Y-23699931D02*
X63051662Y-23699931D01*
X63051662Y-23699931D02*
X62956424Y-23652312D01*
X62956424Y-23652312D02*
X62908805Y-23604692D01*
X62908805Y-23604692D02*
X62861186Y-23509454D01*
X62861186Y-23509454D02*
X62813567Y-23318978D01*
X62813567Y-23318978D02*
X62813567Y-23080883D01*
X62813567Y-23080883D02*
X62861186Y-22890407D01*
X62861186Y-22890407D02*
X62908805Y-22795169D01*
X62908805Y-22795169D02*
X62956424Y-22747550D01*
X62956424Y-22747550D02*
X63051662Y-22699931D01*
X63813567Y-23699931D02*
X63813567Y-23033264D01*
X63813567Y-23128502D02*
X63861186Y-23080883D01*
X63861186Y-23080883D02*
X63956424Y-23033264D01*
X63956424Y-23033264D02*
X64099281Y-23033264D01*
X64099281Y-23033264D02*
X64194519Y-23080883D01*
X64194519Y-23080883D02*
X64242138Y-23176121D01*
X64242138Y-23176121D02*
X64242138Y-23699931D01*
X64242138Y-23176121D02*
X64289757Y-23080883D01*
X64289757Y-23080883D02*
X64384995Y-23033264D01*
X64384995Y-23033264D02*
X64527852Y-23033264D01*
X64527852Y-23033264D02*
X64623091Y-23080883D01*
X64623091Y-23080883D02*
X64670710Y-23176121D01*
X64670710Y-23176121D02*
X64670710Y-23699931D01*
X64908805Y-23795169D02*
X65670709Y-23795169D01*
X66289757Y-23652312D02*
X66194519Y-23699931D01*
X66194519Y-23699931D02*
X66004043Y-23699931D01*
X66004043Y-23699931D02*
X65908805Y-23652312D01*
X65908805Y-23652312D02*
X65861186Y-23557073D01*
X65861186Y-23557073D02*
X65861186Y-23176121D01*
X65861186Y-23176121D02*
X65908805Y-23080883D01*
X65908805Y-23080883D02*
X66004043Y-23033264D01*
X66004043Y-23033264D02*
X66194519Y-23033264D01*
X66194519Y-23033264D02*
X66289757Y-23080883D01*
X66289757Y-23080883D02*
X66337376Y-23176121D01*
X66337376Y-23176121D02*
X66337376Y-23271359D01*
X66337376Y-23271359D02*
X65861186Y-23366597D01*
X66765948Y-23604692D02*
X66813567Y-23652312D01*
X66813567Y-23652312D02*
X66765948Y-23699931D01*
X66765948Y-23699931D02*
X66718329Y-23652312D01*
X66718329Y-23652312D02*
X66765948Y-23604692D01*
X66765948Y-23604692D02*
X66765948Y-23699931D01*
X67242138Y-23699931D02*
X67242138Y-22699931D01*
X67670709Y-23699931D02*
X67670709Y-23176121D01*
X67670709Y-23176121D02*
X67623090Y-23080883D01*
X67623090Y-23080883D02*
X67527852Y-23033264D01*
X67527852Y-23033264D02*
X67384995Y-23033264D01*
X67384995Y-23033264D02*
X67289757Y-23080883D01*
X67289757Y-23080883D02*
X67242138Y-23128502D01*
X68004043Y-23033264D02*
X68384995Y-23033264D01*
X68146900Y-22699931D02*
X68146900Y-23557073D01*
X68146900Y-23557073D02*
X68194519Y-23652312D01*
X68194519Y-23652312D02*
X68289757Y-23699931D01*
X68289757Y-23699931D02*
X68384995Y-23699931D01*
X68718329Y-23699931D02*
X68718329Y-23033264D01*
X68718329Y-23128502D02*
X68765948Y-23080883D01*
X68765948Y-23080883D02*
X68861186Y-23033264D01*
X68861186Y-23033264D02*
X69004043Y-23033264D01*
X69004043Y-23033264D02*
X69099281Y-23080883D01*
X69099281Y-23080883D02*
X69146900Y-23176121D01*
X69146900Y-23176121D02*
X69146900Y-23699931D01*
X69146900Y-23176121D02*
X69194519Y-23080883D01*
X69194519Y-23080883D02*
X69289757Y-23033264D01*
X69289757Y-23033264D02*
X69432614Y-23033264D01*
X69432614Y-23033264D02*
X69527853Y-23080883D01*
X69527853Y-23080883D02*
X69575472Y-23176121D01*
X69575472Y-23176121D02*
X69575472Y-23699931D01*
X36099279Y-26919819D02*
X36099279Y-25919819D01*
X36099279Y-26396009D02*
X36670707Y-26396009D01*
X36670707Y-26919819D02*
X36670707Y-25919819D01*
X37146898Y-26919819D02*
X37146898Y-25919819D01*
X37146898Y-25919819D02*
X37527850Y-25919819D01*
X37527850Y-25919819D02*
X37623088Y-25967438D01*
X37623088Y-25967438D02*
X37670707Y-26015057D01*
X37670707Y-26015057D02*
X37718326Y-26110295D01*
X37718326Y-26110295D02*
X37718326Y-26253152D01*
X37718326Y-26253152D02*
X37670707Y-26348390D01*
X37670707Y-26348390D02*
X37623088Y-26396009D01*
X37623088Y-26396009D02*
X37527850Y-26443628D01*
X37527850Y-26443628D02*
X37146898Y-26443628D01*
X38908803Y-26396009D02*
X39670708Y-26396009D01*
X39670708Y-26681723D02*
X38908803Y-26681723D01*
X41384993Y-25919819D02*
X40908803Y-25919819D01*
X40908803Y-25919819D02*
X40861184Y-26396009D01*
X40861184Y-26396009D02*
X40908803Y-26348390D01*
X40908803Y-26348390D02*
X41004041Y-26300771D01*
X41004041Y-26300771D02*
X41242136Y-26300771D01*
X41242136Y-26300771D02*
X41337374Y-26348390D01*
X41337374Y-26348390D02*
X41384993Y-26396009D01*
X41384993Y-26396009D02*
X41432612Y-26491247D01*
X41432612Y-26491247D02*
X41432612Y-26729342D01*
X41432612Y-26729342D02*
X41384993Y-26824580D01*
X41384993Y-26824580D02*
X41337374Y-26872200D01*
X41337374Y-26872200D02*
X41242136Y-26919819D01*
X41242136Y-26919819D02*
X41004041Y-26919819D01*
X41004041Y-26919819D02*
X40908803Y-26872200D01*
X40908803Y-26872200D02*
X40861184Y-26824580D01*
X41861184Y-26824580D02*
X41908803Y-26872200D01*
X41908803Y-26872200D02*
X41861184Y-26919819D01*
X41861184Y-26919819D02*
X41813565Y-26872200D01*
X41813565Y-26872200D02*
X41861184Y-26824580D01*
X41861184Y-26824580D02*
X41861184Y-26919819D01*
X42527850Y-25919819D02*
X42623088Y-25919819D01*
X42623088Y-25919819D02*
X42718326Y-25967438D01*
X42718326Y-25967438D02*
X42765945Y-26015057D01*
X42765945Y-26015057D02*
X42813564Y-26110295D01*
X42813564Y-26110295D02*
X42861183Y-26300771D01*
X42861183Y-26300771D02*
X42861183Y-26538866D01*
X42861183Y-26538866D02*
X42813564Y-26729342D01*
X42813564Y-26729342D02*
X42765945Y-26824580D01*
X42765945Y-26824580D02*
X42718326Y-26872200D01*
X42718326Y-26872200D02*
X42623088Y-26919819D01*
X42623088Y-26919819D02*
X42527850Y-26919819D01*
X42527850Y-26919819D02*
X42432612Y-26872200D01*
X42432612Y-26872200D02*
X42384993Y-26824580D01*
X42384993Y-26824580D02*
X42337374Y-26729342D01*
X42337374Y-26729342D02*
X42289755Y-26538866D01*
X42289755Y-26538866D02*
X42289755Y-26300771D01*
X42289755Y-26300771D02*
X42337374Y-26110295D01*
X42337374Y-26110295D02*
X42384993Y-26015057D01*
X42384993Y-26015057D02*
X42432612Y-25967438D01*
X42432612Y-25967438D02*
X42527850Y-25919819D01*
X43432612Y-26348390D02*
X43337374Y-26300771D01*
X43337374Y-26300771D02*
X43289755Y-26253152D01*
X43289755Y-26253152D02*
X43242136Y-26157914D01*
X43242136Y-26157914D02*
X43242136Y-26110295D01*
X43242136Y-26110295D02*
X43289755Y-26015057D01*
X43289755Y-26015057D02*
X43337374Y-25967438D01*
X43337374Y-25967438D02*
X43432612Y-25919819D01*
X43432612Y-25919819D02*
X43623088Y-25919819D01*
X43623088Y-25919819D02*
X43718326Y-25967438D01*
X43718326Y-25967438D02*
X43765945Y-26015057D01*
X43765945Y-26015057D02*
X43813564Y-26110295D01*
X43813564Y-26110295D02*
X43813564Y-26157914D01*
X43813564Y-26157914D02*
X43765945Y-26253152D01*
X43765945Y-26253152D02*
X43718326Y-26300771D01*
X43718326Y-26300771D02*
X43623088Y-26348390D01*
X43623088Y-26348390D02*
X43432612Y-26348390D01*
X43432612Y-26348390D02*
X43337374Y-26396009D01*
X43337374Y-26396009D02*
X43289755Y-26443628D01*
X43289755Y-26443628D02*
X43242136Y-26538866D01*
X43242136Y-26538866D02*
X43242136Y-26729342D01*
X43242136Y-26729342D02*
X43289755Y-26824580D01*
X43289755Y-26824580D02*
X43337374Y-26872200D01*
X43337374Y-26872200D02*
X43432612Y-26919819D01*
X43432612Y-26919819D02*
X43623088Y-26919819D01*
X43623088Y-26919819D02*
X43718326Y-26872200D01*
X43718326Y-26872200D02*
X43765945Y-26824580D01*
X43765945Y-26824580D02*
X43813564Y-26729342D01*
X43813564Y-26729342D02*
X43813564Y-26538866D01*
X43813564Y-26538866D02*
X43765945Y-26443628D01*
X43765945Y-26443628D02*
X43718326Y-26396009D01*
X43718326Y-26396009D02*
X43623088Y-26348390D01*
X44242136Y-26919819D02*
X44242136Y-26253152D01*
X44242136Y-26348390D02*
X44289755Y-26300771D01*
X44289755Y-26300771D02*
X44384993Y-26253152D01*
X44384993Y-26253152D02*
X44527850Y-26253152D01*
X44527850Y-26253152D02*
X44623088Y-26300771D01*
X44623088Y-26300771D02*
X44670707Y-26396009D01*
X44670707Y-26396009D02*
X44670707Y-26919819D01*
X44670707Y-26396009D02*
X44718326Y-26300771D01*
X44718326Y-26300771D02*
X44813564Y-26253152D01*
X44813564Y-26253152D02*
X44956421Y-26253152D01*
X44956421Y-26253152D02*
X45051660Y-26300771D01*
X45051660Y-26300771D02*
X45099279Y-26396009D01*
X45099279Y-26396009D02*
X45099279Y-26919819D01*
X45575469Y-26919819D02*
X45575469Y-26253152D01*
X45575469Y-26348390D02*
X45623088Y-26300771D01*
X45623088Y-26300771D02*
X45718326Y-26253152D01*
X45718326Y-26253152D02*
X45861183Y-26253152D01*
X45861183Y-26253152D02*
X45956421Y-26300771D01*
X45956421Y-26300771D02*
X46004040Y-26396009D01*
X46004040Y-26396009D02*
X46004040Y-26919819D01*
X46004040Y-26396009D02*
X46051659Y-26300771D01*
X46051659Y-26300771D02*
X46146897Y-26253152D01*
X46146897Y-26253152D02*
X46289754Y-26253152D01*
X46289754Y-26253152D02*
X46384993Y-26300771D01*
X46384993Y-26300771D02*
X46432612Y-26396009D01*
X46432612Y-26396009D02*
X46432612Y-26919819D01*
X46956421Y-26872200D02*
X46956421Y-26919819D01*
X46956421Y-26919819D02*
X46908802Y-27015057D01*
X46908802Y-27015057D02*
X46861183Y-27062676D01*
X48004040Y-26538866D02*
X48051659Y-26491247D01*
X48051659Y-26491247D02*
X48146897Y-26443628D01*
X48146897Y-26443628D02*
X48337373Y-26538866D01*
X48337373Y-26538866D02*
X48432611Y-26491247D01*
X48432611Y-26491247D02*
X48480230Y-26443628D01*
X49337373Y-25919819D02*
X48861183Y-25919819D01*
X48861183Y-25919819D02*
X48813564Y-26396009D01*
X48813564Y-26396009D02*
X48861183Y-26348390D01*
X48861183Y-26348390D02*
X48956421Y-26300771D01*
X48956421Y-26300771D02*
X49194516Y-26300771D01*
X49194516Y-26300771D02*
X49289754Y-26348390D01*
X49289754Y-26348390D02*
X49337373Y-26396009D01*
X49337373Y-26396009D02*
X49384992Y-26491247D01*
X49384992Y-26491247D02*
X49384992Y-26729342D01*
X49384992Y-26729342D02*
X49337373Y-26824580D01*
X49337373Y-26824580D02*
X49289754Y-26872200D01*
X49289754Y-26872200D02*
X49194516Y-26919819D01*
X49194516Y-26919819D02*
X48956421Y-26919819D01*
X48956421Y-26919819D02*
X48861183Y-26872200D01*
X48861183Y-26872200D02*
X48813564Y-26824580D01*
X49813564Y-26824580D02*
X49861183Y-26872200D01*
X49861183Y-26872200D02*
X49813564Y-26919819D01*
X49813564Y-26919819D02*
X49765945Y-26872200D01*
X49765945Y-26872200D02*
X49813564Y-26824580D01*
X49813564Y-26824580D02*
X49813564Y-26919819D01*
X50480230Y-25919819D02*
X50575468Y-25919819D01*
X50575468Y-25919819D02*
X50670706Y-25967438D01*
X50670706Y-25967438D02*
X50718325Y-26015057D01*
X50718325Y-26015057D02*
X50765944Y-26110295D01*
X50765944Y-26110295D02*
X50813563Y-26300771D01*
X50813563Y-26300771D02*
X50813563Y-26538866D01*
X50813563Y-26538866D02*
X50765944Y-26729342D01*
X50765944Y-26729342D02*
X50718325Y-26824580D01*
X50718325Y-26824580D02*
X50670706Y-26872200D01*
X50670706Y-26872200D02*
X50575468Y-26919819D01*
X50575468Y-26919819D02*
X50480230Y-26919819D01*
X50480230Y-26919819D02*
X50384992Y-26872200D01*
X50384992Y-26872200D02*
X50337373Y-26824580D01*
X50337373Y-26824580D02*
X50289754Y-26729342D01*
X50289754Y-26729342D02*
X50242135Y-26538866D01*
X50242135Y-26538866D02*
X50242135Y-26300771D01*
X50242135Y-26300771D02*
X50289754Y-26110295D01*
X50289754Y-26110295D02*
X50337373Y-26015057D01*
X50337373Y-26015057D02*
X50384992Y-25967438D01*
X50384992Y-25967438D02*
X50480230Y-25919819D01*
X51242135Y-26919819D02*
X51242135Y-26253152D01*
X51242135Y-26348390D02*
X51289754Y-26300771D01*
X51289754Y-26300771D02*
X51384992Y-26253152D01*
X51384992Y-26253152D02*
X51527849Y-26253152D01*
X51527849Y-26253152D02*
X51623087Y-26300771D01*
X51623087Y-26300771D02*
X51670706Y-26396009D01*
X51670706Y-26396009D02*
X51670706Y-26919819D01*
X51670706Y-26396009D02*
X51718325Y-26300771D01*
X51718325Y-26300771D02*
X51813563Y-26253152D01*
X51813563Y-26253152D02*
X51956420Y-26253152D01*
X51956420Y-26253152D02*
X52051659Y-26300771D01*
X52051659Y-26300771D02*
X52099278Y-26396009D01*
X52099278Y-26396009D02*
X52099278Y-26919819D01*
X52575468Y-26919819D02*
X52575468Y-26253152D01*
X52575468Y-26348390D02*
X52623087Y-26300771D01*
X52623087Y-26300771D02*
X52718325Y-26253152D01*
X52718325Y-26253152D02*
X52861182Y-26253152D01*
X52861182Y-26253152D02*
X52956420Y-26300771D01*
X52956420Y-26300771D02*
X53004039Y-26396009D01*
X53004039Y-26396009D02*
X53004039Y-26919819D01*
X53004039Y-26396009D02*
X53051658Y-26300771D01*
X53051658Y-26300771D02*
X53146896Y-26253152D01*
X53146896Y-26253152D02*
X53289753Y-26253152D01*
X53289753Y-26253152D02*
X53384992Y-26300771D01*
X53384992Y-26300771D02*
X53432611Y-26396009D01*
X53432611Y-26396009D02*
X53432611Y-26919819D01*
X54670706Y-26919819D02*
X54670706Y-25919819D01*
X54670706Y-25919819D02*
X55242134Y-26919819D01*
X55242134Y-26919819D02*
X55242134Y-25919819D01*
X55861182Y-26919819D02*
X55765944Y-26872200D01*
X55765944Y-26872200D02*
X55718325Y-26824580D01*
X55718325Y-26824580D02*
X55670706Y-26729342D01*
X55670706Y-26729342D02*
X55670706Y-26443628D01*
X55670706Y-26443628D02*
X55718325Y-26348390D01*
X55718325Y-26348390D02*
X55765944Y-26300771D01*
X55765944Y-26300771D02*
X55861182Y-26253152D01*
X55861182Y-26253152D02*
X56004039Y-26253152D01*
X56004039Y-26253152D02*
X56099277Y-26300771D01*
X56099277Y-26300771D02*
X56146896Y-26348390D01*
X56146896Y-26348390D02*
X56194515Y-26443628D01*
X56194515Y-26443628D02*
X56194515Y-26729342D01*
X56194515Y-26729342D02*
X56146896Y-26824580D01*
X56146896Y-26824580D02*
X56099277Y-26872200D01*
X56099277Y-26872200D02*
X56004039Y-26919819D01*
X56004039Y-26919819D02*
X55861182Y-26919819D01*
X56623087Y-26919819D02*
X56623087Y-26253152D01*
X56623087Y-26348390D02*
X56670706Y-26300771D01*
X56670706Y-26300771D02*
X56765944Y-26253152D01*
X56765944Y-26253152D02*
X56908801Y-26253152D01*
X56908801Y-26253152D02*
X57004039Y-26300771D01*
X57004039Y-26300771D02*
X57051658Y-26396009D01*
X57051658Y-26396009D02*
X57051658Y-26919819D01*
X57051658Y-26396009D02*
X57099277Y-26300771D01*
X57099277Y-26300771D02*
X57194515Y-26253152D01*
X57194515Y-26253152D02*
X57337372Y-26253152D01*
X57337372Y-26253152D02*
X57432611Y-26300771D01*
X57432611Y-26300771D02*
X57480230Y-26396009D01*
X57480230Y-26396009D02*
X57480230Y-26919819D01*
X57956420Y-26919819D02*
X57956420Y-26253152D01*
X57956420Y-25919819D02*
X57908801Y-25967438D01*
X57908801Y-25967438D02*
X57956420Y-26015057D01*
X57956420Y-26015057D02*
X58004039Y-25967438D01*
X58004039Y-25967438D02*
X57956420Y-25919819D01*
X57956420Y-25919819D02*
X57956420Y-26015057D01*
X58432610Y-26253152D02*
X58432610Y-26919819D01*
X58432610Y-26348390D02*
X58480229Y-26300771D01*
X58480229Y-26300771D02*
X58575467Y-26253152D01*
X58575467Y-26253152D02*
X58718324Y-26253152D01*
X58718324Y-26253152D02*
X58813562Y-26300771D01*
X58813562Y-26300771D02*
X58861181Y-26396009D01*
X58861181Y-26396009D02*
X58861181Y-26919819D01*
X59765943Y-26919819D02*
X59765943Y-26396009D01*
X59765943Y-26396009D02*
X59718324Y-26300771D01*
X59718324Y-26300771D02*
X59623086Y-26253152D01*
X59623086Y-26253152D02*
X59432610Y-26253152D01*
X59432610Y-26253152D02*
X59337372Y-26300771D01*
X59765943Y-26872200D02*
X59670705Y-26919819D01*
X59670705Y-26919819D02*
X59432610Y-26919819D01*
X59432610Y-26919819D02*
X59337372Y-26872200D01*
X59337372Y-26872200D02*
X59289753Y-26776961D01*
X59289753Y-26776961D02*
X59289753Y-26681723D01*
X59289753Y-26681723D02*
X59337372Y-26586485D01*
X59337372Y-26586485D02*
X59432610Y-26538866D01*
X59432610Y-26538866D02*
X59670705Y-26538866D01*
X59670705Y-26538866D02*
X59765943Y-26491247D01*
X60384991Y-26919819D02*
X60289753Y-26872200D01*
X60289753Y-26872200D02*
X60242134Y-26776961D01*
X60242134Y-26776961D02*
X60242134Y-25919819D01*
D11*
X179762500Y-38850000D02*
X181762500Y-36850000D01*
X224762500Y-21350000D02*
X224762500Y-38850000D01*
X179762500Y-38850000D02*
X179762500Y-21350000D01*
X224762500Y-21350000D02*
X212262500Y-21350000D01*
X224762500Y-38850000D02*
X226762500Y-36850000D01*
X179762500Y-38850000D02*
X177762500Y-36850000D01*
X226762500Y-36850000D02*
X224762500Y-38850000D01*
X224762500Y-60850000D02*
X223662500Y-60850000D01*
X223262500Y-60850000D02*
X222162500Y-60850000D01*
X221762500Y-60850000D02*
X220662500Y-60850000D01*
X220262500Y-60850000D02*
X219162500Y-60850000D01*
X218762500Y-60850000D02*
X217662500Y-60850000D01*
X217262500Y-60850000D02*
X216162500Y-60850000D01*
X215762500Y-60850000D02*
X214662500Y-60850000D01*
X214262500Y-60850000D02*
X213162500Y-60850000D01*
X212762500Y-60850000D02*
X211662500Y-60850000D01*
X211262500Y-60850000D02*
X210162500Y-60850000D01*
X209762500Y-60850000D02*
X208662500Y-60850000D01*
X208262500Y-60850000D02*
X207162500Y-60850000D01*
X206762500Y-60850000D02*
X205662500Y-60850000D01*
X205262500Y-60850000D02*
X204162500Y-60850000D01*
X203762500Y-60850000D02*
X202662500Y-60850000D01*
X202262500Y-60850000D02*
X201162500Y-60850000D01*
X200762500Y-60850000D02*
X199662500Y-60850000D01*
X199262500Y-60850000D02*
X198162500Y-60850000D01*
X197762500Y-60850000D02*
X196662500Y-60850000D01*
X196262500Y-60850000D02*
X195162500Y-60850000D01*
X194762500Y-60850000D02*
X193662500Y-60850000D01*
X193262500Y-60850000D02*
X192162500Y-60850000D01*
X191762500Y-60850000D02*
X190662500Y-60850000D01*
X190262500Y-60850000D02*
X189162500Y-60850000D01*
X188762500Y-60850000D02*
X187662500Y-60850000D01*
X187262500Y-60850000D02*
X186162500Y-60850000D01*
X185762500Y-60850000D02*
X184662500Y-60850000D01*
X184262500Y-60850000D02*
X183162500Y-60850000D01*
X182762500Y-60850000D02*
X181662500Y-60850000D01*
X181262500Y-60850000D02*
X180162500Y-60850000D01*
X179762500Y-60850000D02*
X178662500Y-60850000D01*
X178262500Y-60850000D02*
X177162500Y-60850000D01*
X176762500Y-60850000D02*
X175662500Y-60850000D01*
X175262500Y-60850000D02*
X174162500Y-60850000D01*
X173762500Y-60850000D02*
X172662500Y-60850000D01*
X172262500Y-60850000D02*
X171162500Y-60850000D01*
X170762500Y-60850000D02*
X169662500Y-60850000D01*
X169262500Y-60850000D02*
X168162500Y-60850000D01*
X167762500Y-60850000D02*
X166662500Y-60850000D01*
X166262500Y-60850000D02*
X165162500Y-60850000D01*
X164762500Y-60850000D02*
X163662500Y-60850000D01*
X163262500Y-60850000D02*
X162162500Y-60850000D01*
X161762500Y-60850000D02*
X160662500Y-60850000D01*
X160262500Y-60850000D02*
X159162500Y-60850000D01*
X158762500Y-60850000D02*
X157662500Y-60850000D01*
X157262500Y-60850000D02*
X156162500Y-60850000D01*
X155762500Y-60850000D02*
X154662500Y-60850000D01*
X154262500Y-60850000D02*
X153162500Y-60850000D01*
X152762500Y-60850000D02*
X151662500Y-60850000D01*
X151262500Y-60850000D02*
X150162500Y-60850000D01*
X149762500Y-60850000D02*
X148662500Y-60850000D01*
X148262500Y-60850000D02*
X147162500Y-60850000D01*
X146762500Y-60850000D02*
X145662500Y-60850000D01*
X145262500Y-60850000D02*
X144162500Y-60850000D01*
X143762500Y-60850000D02*
X142662500Y-60850000D01*
X142262500Y-60850000D02*
X141162500Y-60850000D01*
X140762500Y-60850000D02*
X139662500Y-60850000D01*
X139262500Y-60850000D02*
X138162500Y-60850000D01*
X137762500Y-60850000D02*
X136662500Y-60850000D01*
X136262500Y-60850000D02*
X135162500Y-60850000D01*
X134762500Y-60850000D02*
X133662500Y-60850000D01*
X133262500Y-60850000D02*
X132162500Y-60850000D01*
X131762500Y-60850000D02*
X130662500Y-60850000D01*
X130262500Y-60850000D02*
X129162500Y-60850000D01*
X128762500Y-60850000D02*
X127662500Y-60850000D01*
X127262500Y-60850000D02*
X126162500Y-60850000D01*
X125762500Y-60850000D02*
X124762500Y-60850000D01*
X224762500Y-38850000D02*
X222762500Y-36850000D01*
X179762500Y-21350000D02*
X190762500Y-21350000D01*
D10*
X137551660Y-60434104D02*
X138027850Y-60434104D01*
X137456422Y-60719819D02*
X137789755Y-59719819D01*
X137789755Y-59719819D02*
X138123088Y-60719819D01*
X138456422Y-60053152D02*
X138456422Y-61053152D01*
X138456422Y-60100771D02*
X138551660Y-60053152D01*
X138551660Y-60053152D02*
X138742136Y-60053152D01*
X138742136Y-60053152D02*
X138837374Y-60100771D01*
X138837374Y-60100771D02*
X138884993Y-60148390D01*
X138884993Y-60148390D02*
X138932612Y-60243628D01*
X138932612Y-60243628D02*
X138932612Y-60529342D01*
X138932612Y-60529342D02*
X138884993Y-60624580D01*
X138884993Y-60624580D02*
X138837374Y-60672200D01*
X138837374Y-60672200D02*
X138742136Y-60719819D01*
X138742136Y-60719819D02*
X138551660Y-60719819D01*
X138551660Y-60719819D02*
X138456422Y-60672200D01*
X139361184Y-60719819D02*
X139361184Y-60053152D01*
X139361184Y-60243628D02*
X139408803Y-60148390D01*
X139408803Y-60148390D02*
X139456422Y-60100771D01*
X139456422Y-60100771D02*
X139551660Y-60053152D01*
X139551660Y-60053152D02*
X139646898Y-60053152D01*
X140123089Y-60719819D02*
X140027851Y-60672200D01*
X140027851Y-60672200D02*
X139980232Y-60624580D01*
X139980232Y-60624580D02*
X139932613Y-60529342D01*
X139932613Y-60529342D02*
X139932613Y-60243628D01*
X139932613Y-60243628D02*
X139980232Y-60148390D01*
X139980232Y-60148390D02*
X140027851Y-60100771D01*
X140027851Y-60100771D02*
X140123089Y-60053152D01*
X140123089Y-60053152D02*
X140265946Y-60053152D01*
X140265946Y-60053152D02*
X140361184Y-60100771D01*
X140361184Y-60100771D02*
X140408803Y-60148390D01*
X140408803Y-60148390D02*
X140456422Y-60243628D01*
X140456422Y-60243628D02*
X140456422Y-60529342D01*
X140456422Y-60529342D02*
X140408803Y-60624580D01*
X140408803Y-60624580D02*
X140361184Y-60672200D01*
X140361184Y-60672200D02*
X140265946Y-60719819D01*
X140265946Y-60719819D02*
X140123089Y-60719819D01*
X140789756Y-60719819D02*
X141313565Y-60053152D01*
X140789756Y-60053152D02*
X141313565Y-60719819D01*
X141694518Y-60624580D02*
X141742137Y-60672200D01*
X141742137Y-60672200D02*
X141694518Y-60719819D01*
X141694518Y-60719819D02*
X141646899Y-60672200D01*
X141646899Y-60672200D02*
X141694518Y-60624580D01*
X141694518Y-60624580D02*
X141694518Y-60719819D01*
X143265946Y-60196009D02*
X142932613Y-60196009D01*
X142932613Y-60719819D02*
X142932613Y-59719819D01*
X142932613Y-59719819D02*
X143408803Y-59719819D01*
X143789756Y-60719819D02*
X143789756Y-60053152D01*
X143789756Y-60243628D02*
X143837375Y-60148390D01*
X143837375Y-60148390D02*
X143884994Y-60100771D01*
X143884994Y-60100771D02*
X143980232Y-60053152D01*
X143980232Y-60053152D02*
X144075470Y-60053152D01*
X144551661Y-60719819D02*
X144456423Y-60672200D01*
X144456423Y-60672200D02*
X144408804Y-60624580D01*
X144408804Y-60624580D02*
X144361185Y-60529342D01*
X144361185Y-60529342D02*
X144361185Y-60243628D01*
X144361185Y-60243628D02*
X144408804Y-60148390D01*
X144408804Y-60148390D02*
X144456423Y-60100771D01*
X144456423Y-60100771D02*
X144551661Y-60053152D01*
X144551661Y-60053152D02*
X144694518Y-60053152D01*
X144694518Y-60053152D02*
X144789756Y-60100771D01*
X144789756Y-60100771D02*
X144837375Y-60148390D01*
X144837375Y-60148390D02*
X144884994Y-60243628D01*
X144884994Y-60243628D02*
X144884994Y-60529342D01*
X144884994Y-60529342D02*
X144837375Y-60624580D01*
X144837375Y-60624580D02*
X144789756Y-60672200D01*
X144789756Y-60672200D02*
X144694518Y-60719819D01*
X144694518Y-60719819D02*
X144551661Y-60719819D01*
X145313566Y-60053152D02*
X145313566Y-60719819D01*
X145313566Y-60148390D02*
X145361185Y-60100771D01*
X145361185Y-60100771D02*
X145456423Y-60053152D01*
X145456423Y-60053152D02*
X145599280Y-60053152D01*
X145599280Y-60053152D02*
X145694518Y-60100771D01*
X145694518Y-60100771D02*
X145742137Y-60196009D01*
X145742137Y-60196009D02*
X145742137Y-60719819D01*
X146075471Y-60053152D02*
X146456423Y-60053152D01*
X146218328Y-59719819D02*
X146218328Y-60576961D01*
X146218328Y-60576961D02*
X146265947Y-60672200D01*
X146265947Y-60672200D02*
X146361185Y-60719819D01*
X146361185Y-60719819D02*
X146456423Y-60719819D01*
X147551662Y-60719819D02*
X147551662Y-59719819D01*
X147551662Y-59719819D02*
X147932614Y-59719819D01*
X147932614Y-59719819D02*
X148027852Y-59767438D01*
X148027852Y-59767438D02*
X148075471Y-59815057D01*
X148075471Y-59815057D02*
X148123090Y-59910295D01*
X148123090Y-59910295D02*
X148123090Y-60053152D01*
X148123090Y-60053152D02*
X148075471Y-60148390D01*
X148075471Y-60148390D02*
X148027852Y-60196009D01*
X148027852Y-60196009D02*
X147932614Y-60243628D01*
X147932614Y-60243628D02*
X147551662Y-60243628D01*
X148980233Y-60719819D02*
X148980233Y-60196009D01*
X148980233Y-60196009D02*
X148932614Y-60100771D01*
X148932614Y-60100771D02*
X148837376Y-60053152D01*
X148837376Y-60053152D02*
X148646900Y-60053152D01*
X148646900Y-60053152D02*
X148551662Y-60100771D01*
X148980233Y-60672200D02*
X148884995Y-60719819D01*
X148884995Y-60719819D02*
X148646900Y-60719819D01*
X148646900Y-60719819D02*
X148551662Y-60672200D01*
X148551662Y-60672200D02*
X148504043Y-60576961D01*
X148504043Y-60576961D02*
X148504043Y-60481723D01*
X148504043Y-60481723D02*
X148551662Y-60386485D01*
X148551662Y-60386485D02*
X148646900Y-60338866D01*
X148646900Y-60338866D02*
X148884995Y-60338866D01*
X148884995Y-60338866D02*
X148980233Y-60291247D01*
X149456424Y-60053152D02*
X149456424Y-60719819D01*
X149456424Y-60148390D02*
X149504043Y-60100771D01*
X149504043Y-60100771D02*
X149599281Y-60053152D01*
X149599281Y-60053152D02*
X149742138Y-60053152D01*
X149742138Y-60053152D02*
X149837376Y-60100771D01*
X149837376Y-60100771D02*
X149884995Y-60196009D01*
X149884995Y-60196009D02*
X149884995Y-60719819D01*
X150742138Y-60672200D02*
X150646900Y-60719819D01*
X150646900Y-60719819D02*
X150456424Y-60719819D01*
X150456424Y-60719819D02*
X150361186Y-60672200D01*
X150361186Y-60672200D02*
X150313567Y-60576961D01*
X150313567Y-60576961D02*
X150313567Y-60196009D01*
X150313567Y-60196009D02*
X150361186Y-60100771D01*
X150361186Y-60100771D02*
X150456424Y-60053152D01*
X150456424Y-60053152D02*
X150646900Y-60053152D01*
X150646900Y-60053152D02*
X150742138Y-60100771D01*
X150742138Y-60100771D02*
X150789757Y-60196009D01*
X150789757Y-60196009D02*
X150789757Y-60291247D01*
X150789757Y-60291247D02*
X150313567Y-60386485D01*
X151361186Y-60719819D02*
X151265948Y-60672200D01*
X151265948Y-60672200D02*
X151218329Y-60576961D01*
X151218329Y-60576961D02*
X151218329Y-59719819D01*
X152504044Y-60719819D02*
X152504044Y-59719819D01*
X152504044Y-59719819D02*
X152742139Y-59719819D01*
X152742139Y-59719819D02*
X152884996Y-59767438D01*
X152884996Y-59767438D02*
X152980234Y-59862676D01*
X152980234Y-59862676D02*
X153027853Y-59957914D01*
X153027853Y-59957914D02*
X153075472Y-60148390D01*
X153075472Y-60148390D02*
X153075472Y-60291247D01*
X153075472Y-60291247D02*
X153027853Y-60481723D01*
X153027853Y-60481723D02*
X152980234Y-60576961D01*
X152980234Y-60576961D02*
X152884996Y-60672200D01*
X152884996Y-60672200D02*
X152742139Y-60719819D01*
X152742139Y-60719819D02*
X152504044Y-60719819D01*
X153884996Y-60672200D02*
X153789758Y-60719819D01*
X153789758Y-60719819D02*
X153599282Y-60719819D01*
X153599282Y-60719819D02*
X153504044Y-60672200D01*
X153504044Y-60672200D02*
X153456425Y-60576961D01*
X153456425Y-60576961D02*
X153456425Y-60196009D01*
X153456425Y-60196009D02*
X153504044Y-60100771D01*
X153504044Y-60100771D02*
X153599282Y-60053152D01*
X153599282Y-60053152D02*
X153789758Y-60053152D01*
X153789758Y-60053152D02*
X153884996Y-60100771D01*
X153884996Y-60100771D02*
X153932615Y-60196009D01*
X153932615Y-60196009D02*
X153932615Y-60291247D01*
X153932615Y-60291247D02*
X153456425Y-60386485D01*
X154265949Y-60053152D02*
X154504044Y-60719819D01*
X154504044Y-60719819D02*
X154742139Y-60053152D01*
X155123092Y-60719819D02*
X155123092Y-60053152D01*
X155123092Y-59719819D02*
X155075473Y-59767438D01*
X155075473Y-59767438D02*
X155123092Y-59815057D01*
X155123092Y-59815057D02*
X155170711Y-59767438D01*
X155170711Y-59767438D02*
X155123092Y-59719819D01*
X155123092Y-59719819D02*
X155123092Y-59815057D01*
X156027853Y-60672200D02*
X155932615Y-60719819D01*
X155932615Y-60719819D02*
X155742139Y-60719819D01*
X155742139Y-60719819D02*
X155646901Y-60672200D01*
X155646901Y-60672200D02*
X155599282Y-60624580D01*
X155599282Y-60624580D02*
X155551663Y-60529342D01*
X155551663Y-60529342D02*
X155551663Y-60243628D01*
X155551663Y-60243628D02*
X155599282Y-60148390D01*
X155599282Y-60148390D02*
X155646901Y-60100771D01*
X155646901Y-60100771D02*
X155742139Y-60053152D01*
X155742139Y-60053152D02*
X155932615Y-60053152D01*
X155932615Y-60053152D02*
X156027853Y-60100771D01*
X156837377Y-60672200D02*
X156742139Y-60719819D01*
X156742139Y-60719819D02*
X156551663Y-60719819D01*
X156551663Y-60719819D02*
X156456425Y-60672200D01*
X156456425Y-60672200D02*
X156408806Y-60576961D01*
X156408806Y-60576961D02*
X156408806Y-60196009D01*
X156408806Y-60196009D02*
X156456425Y-60100771D01*
X156456425Y-60100771D02*
X156551663Y-60053152D01*
X156551663Y-60053152D02*
X156742139Y-60053152D01*
X156742139Y-60053152D02*
X156837377Y-60100771D01*
X156837377Y-60100771D02*
X156884996Y-60196009D01*
X156884996Y-60196009D02*
X156884996Y-60291247D01*
X156884996Y-60291247D02*
X156408806Y-60386485D01*
X158456425Y-60672200D02*
X158361187Y-60719819D01*
X158361187Y-60719819D02*
X158170711Y-60719819D01*
X158170711Y-60719819D02*
X158075473Y-60672200D01*
X158075473Y-60672200D02*
X158027854Y-60576961D01*
X158027854Y-60576961D02*
X158027854Y-60196009D01*
X158027854Y-60196009D02*
X158075473Y-60100771D01*
X158075473Y-60100771D02*
X158170711Y-60053152D01*
X158170711Y-60053152D02*
X158361187Y-60053152D01*
X158361187Y-60053152D02*
X158456425Y-60100771D01*
X158456425Y-60100771D02*
X158504044Y-60196009D01*
X158504044Y-60196009D02*
X158504044Y-60291247D01*
X158504044Y-60291247D02*
X158027854Y-60386485D01*
X158932616Y-60053152D02*
X158932616Y-60719819D01*
X158932616Y-60148390D02*
X158980235Y-60100771D01*
X158980235Y-60100771D02*
X159075473Y-60053152D01*
X159075473Y-60053152D02*
X159218330Y-60053152D01*
X159218330Y-60053152D02*
X159313568Y-60100771D01*
X159313568Y-60100771D02*
X159361187Y-60196009D01*
X159361187Y-60196009D02*
X159361187Y-60719819D01*
X160265949Y-60719819D02*
X160265949Y-59719819D01*
X160265949Y-60672200D02*
X160170711Y-60719819D01*
X160170711Y-60719819D02*
X159980235Y-60719819D01*
X159980235Y-60719819D02*
X159884997Y-60672200D01*
X159884997Y-60672200D02*
X159837378Y-60624580D01*
X159837378Y-60624580D02*
X159789759Y-60529342D01*
X159789759Y-60529342D02*
X159789759Y-60243628D01*
X159789759Y-60243628D02*
X159837378Y-60148390D01*
X159837378Y-60148390D02*
X159884997Y-60100771D01*
X159884997Y-60100771D02*
X159980235Y-60053152D01*
X159980235Y-60053152D02*
X160170711Y-60053152D01*
X160170711Y-60053152D02*
X160265949Y-60100771D01*
D11*
G36*
X186573770Y-19557711D02*
G01*
X186573770Y-20435764D01*
X186587057Y-20483680D01*
X186629702Y-20500000D01*
X186674886Y-20481380D01*
X186685633Y-20436985D01*
X186682946Y-20065736D01*
X187035389Y-20065736D01*
X187075265Y-20035030D01*
X187078376Y-20016643D01*
X187055578Y-19973263D01*
X187035389Y-19968527D01*
X186682946Y-19968527D01*
X186682946Y-19582135D01*
X187047357Y-19582135D01*
X187091128Y-19558064D01*
X187096938Y-19533042D01*
X187071904Y-19488874D01*
X187047357Y-19483949D01*
X186646554Y-19483949D01*
X186598975Y-19495788D01*
X186574864Y-19540096D01*
X186573770Y-19557711D01*
G37*
G36*
X187696212Y-19722000D02*
G01*
X187747391Y-19732799D01*
X187792934Y-19750712D01*
X187844885Y-19785476D01*
X187886801Y-19832441D01*
X187911649Y-19875518D01*
X187930843Y-19925207D01*
X187944382Y-19981402D01*
X187952260Y-20043993D01*
X187954475Y-20112875D01*
X187952723Y-20158692D01*
X187944976Y-20222911D01*
X187931234Y-20281490D01*
X187911663Y-20334167D01*
X187886432Y-20380679D01*
X187855705Y-20420766D01*
X187819650Y-20454163D01*
X187778433Y-20480611D01*
X187732222Y-20499846D01*
X187681181Y-20511607D01*
X187625480Y-20515631D01*
X187587506Y-20514074D01*
X187534998Y-20505617D01*
X187473373Y-20483107D01*
X187421432Y-20448033D01*
X187379288Y-20400690D01*
X187354177Y-20357312D01*
X187334686Y-20307326D01*
X187320862Y-20250859D01*
X187312753Y-20188035D01*
X187310406Y-20118981D01*
X187310418Y-20118492D01*
X187420071Y-20118492D01*
X187420210Y-20137373D01*
X187423355Y-20190332D01*
X187433745Y-20252383D01*
X187450953Y-20304703D01*
X187481611Y-20356504D01*
X187521905Y-20393301D01*
X187571270Y-20415206D01*
X187629143Y-20422330D01*
X187665581Y-20419572D01*
X187719498Y-20403260D01*
X187764435Y-20372163D01*
X187799855Y-20326118D01*
X187820978Y-20278412D01*
X187835392Y-20220952D01*
X187841635Y-20171407D01*
X187843833Y-20116294D01*
X187843675Y-20097397D01*
X187840758Y-20044213D01*
X187831186Y-19981525D01*
X187815145Y-19928306D01*
X187786041Y-19875210D01*
X187746930Y-19837170D01*
X187697869Y-19814331D01*
X187638913Y-19806838D01*
X187602385Y-19809622D01*
X187547978Y-19826580D01*
X187502266Y-19858824D01*
X187465941Y-19906225D01*
X187444106Y-19954973D01*
X187429077Y-20013274D01*
X187422485Y-20063229D01*
X187420071Y-20118492D01*
X187310418Y-20118492D01*
X187310991Y-20095055D01*
X187317190Y-20027457D01*
X187329796Y-19966220D01*
X187348477Y-19911455D01*
X187372900Y-19863276D01*
X187402730Y-19821798D01*
X187437635Y-19787133D01*
X187491493Y-19751709D01*
X187536943Y-19733384D01*
X187586357Y-19722250D01*
X187639401Y-19718422D01*
X187696212Y-19722000D01*
G37*
G36*
X188235843Y-20500000D02*
G01*
X188730679Y-20500000D01*
X188776167Y-20481691D01*
X188784900Y-20451639D01*
X188757422Y-20410740D01*
X188730679Y-20406699D01*
X188507196Y-20406699D01*
X188506438Y-20357320D01*
X188506056Y-20305679D01*
X188506139Y-20256381D01*
X188506219Y-20247208D01*
X188506237Y-20196220D01*
X188506175Y-20146849D01*
X188506852Y-20097842D01*
X188508662Y-20058408D01*
X188515763Y-20001611D01*
X188528331Y-19951850D01*
X188550604Y-19899759D01*
X188578822Y-19859165D01*
X188618502Y-19826019D01*
X188669667Y-19809425D01*
X188677189Y-19809036D01*
X188726820Y-19816661D01*
X188740937Y-19824180D01*
X188740937Y-19978541D01*
X188766424Y-20021571D01*
X188788076Y-20025191D01*
X188831051Y-19999696D01*
X188835703Y-19974877D01*
X188835999Y-19924284D01*
X188836069Y-19872204D01*
X188835999Y-19819317D01*
X188835747Y-19769989D01*
X188835703Y-19765317D01*
X188795109Y-19736977D01*
X188746179Y-19722386D01*
X188701369Y-19718422D01*
X188644722Y-19726419D01*
X188595741Y-19751279D01*
X188555344Y-19793070D01*
X188528900Y-19840878D01*
X188512853Y-19887649D01*
X188501641Y-19942021D01*
X188499625Y-19956803D01*
X188493519Y-19956803D01*
X188498404Y-19813433D01*
X188497427Y-19770935D01*
X188464271Y-19734587D01*
X188454440Y-19734054D01*
X188242437Y-19734054D01*
X188196592Y-19755463D01*
X188191146Y-19779483D01*
X188216898Y-19821680D01*
X188242437Y-19826133D01*
X188399729Y-19826133D01*
X188400769Y-19881849D01*
X188401605Y-19938652D01*
X188402248Y-19996236D01*
X188402711Y-20054293D01*
X188403003Y-20112515D01*
X188403137Y-20170596D01*
X188403149Y-20193719D01*
X188403057Y-20243140D01*
X188402782Y-20296728D01*
X188402325Y-20352057D01*
X188401683Y-20406699D01*
X188235843Y-20406699D01*
X188190285Y-20425840D01*
X188183330Y-20452128D01*
X188207429Y-20494701D01*
X188235843Y-20500000D01*
G37*
G36*
X190288948Y-19871807D02*
G01*
X190280155Y-19880355D01*
X190271607Y-19871807D01*
X190255773Y-19821438D01*
X190239962Y-19772385D01*
X190224449Y-19725507D01*
X190205894Y-19671278D01*
X190188771Y-19623466D01*
X190170868Y-19576924D01*
X190160965Y-19553803D01*
X190137813Y-19510571D01*
X190097055Y-19478269D01*
X190074747Y-19475401D01*
X190026108Y-19488366D01*
X189997146Y-19528216D01*
X189986586Y-19581814D01*
X189986087Y-19588974D01*
X189984048Y-19648579D01*
X189983119Y-19706428D01*
X189982611Y-19757638D01*
X189982240Y-19814440D01*
X189981985Y-19875835D01*
X189981825Y-19940819D01*
X189981736Y-20008394D01*
X189981699Y-20077557D01*
X189981691Y-20147308D01*
X189981690Y-20170516D01*
X189981589Y-20225677D01*
X189981394Y-20279086D01*
X189981270Y-20329970D01*
X189981434Y-20385114D01*
X189982179Y-20434542D01*
X189995124Y-20483391D01*
X190037378Y-20500000D01*
X190083681Y-20479018D01*
X190092821Y-20434542D01*
X190092463Y-20380599D01*
X190091787Y-20325252D01*
X190090928Y-20267020D01*
X190090016Y-20211290D01*
X190089157Y-20162212D01*
X190088231Y-20111255D01*
X190087234Y-20058293D01*
X190086161Y-20003782D01*
X190085006Y-19948176D01*
X190083761Y-19891931D01*
X190082423Y-19835503D01*
X190080983Y-19779345D01*
X190079437Y-19723914D01*
X190077778Y-19669665D01*
X190076001Y-19617052D01*
X190074747Y-19583112D01*
X190086715Y-19581158D01*
X190103839Y-19628617D01*
X190121255Y-19679101D01*
X190137246Y-19726438D01*
X190153596Y-19775365D01*
X190167071Y-19815875D01*
X190184563Y-19865928D01*
X190202728Y-19914746D01*
X190221923Y-19960609D01*
X190232528Y-19980983D01*
X190270251Y-20012710D01*
X190277713Y-20013224D01*
X190319757Y-19986971D01*
X190323386Y-19980983D01*
X190344283Y-19932744D01*
X190361713Y-19885740D01*
X190379142Y-19836878D01*
X190389820Y-19806594D01*
X190405815Y-19759996D01*
X190421642Y-19713665D01*
X190439329Y-19662231D01*
X190457689Y-19610227D01*
X190467734Y-19583112D01*
X190480190Y-19584089D01*
X190478991Y-19634843D01*
X190477989Y-19688219D01*
X190477162Y-19743641D01*
X190476489Y-19800537D01*
X190475948Y-19858333D01*
X190475518Y-19916455D01*
X190475176Y-19974331D01*
X190474901Y-20031385D01*
X190474671Y-20087046D01*
X190474464Y-20140738D01*
X190474328Y-20175157D01*
X190473824Y-20227197D01*
X190473324Y-20285644D01*
X190472966Y-20335937D01*
X190472705Y-20390990D01*
X190472863Y-20436008D01*
X190486174Y-20484124D01*
X190530260Y-20500000D01*
X190575447Y-20477359D01*
X190583993Y-20437962D01*
X190584548Y-20382059D01*
X190584224Y-20325276D01*
X190583538Y-20275183D01*
X190582729Y-20223144D01*
X190582039Y-20168562D01*
X190581491Y-20098463D01*
X190581057Y-20028558D01*
X190580695Y-19959854D01*
X190580365Y-19893355D01*
X190580025Y-19830069D01*
X190579634Y-19771000D01*
X190579151Y-19717155D01*
X190578294Y-19655226D01*
X190576742Y-19597020D01*
X190575933Y-19580669D01*
X190567482Y-19529925D01*
X190539896Y-19487915D01*
X190494845Y-19475401D01*
X190447598Y-19490048D01*
X190415453Y-19527558D01*
X190398613Y-19558932D01*
X190376875Y-19609192D01*
X190357637Y-19661216D01*
X190339995Y-19712501D01*
X190321127Y-19769889D01*
X190305301Y-19819494D01*
X190288948Y-19871807D01*
G37*
G36*
X191211428Y-19719518D02*
G01*
X191267490Y-19727261D01*
X191316560Y-19743577D01*
X191358560Y-19769816D01*
X191393414Y-19807327D01*
X191397007Y-19812471D01*
X191420855Y-19857483D01*
X191435057Y-19905360D01*
X191442744Y-19955501D01*
X191446265Y-20005395D01*
X191447392Y-20064026D01*
X191447392Y-20449685D01*
X191442733Y-20475994D01*
X191399032Y-20500000D01*
X191373831Y-20496320D01*
X191347985Y-20453593D01*
X191347985Y-20389357D01*
X191341518Y-20401603D01*
X191311267Y-20442342D01*
X191268453Y-20477132D01*
X191221047Y-20499577D01*
X191173540Y-20511406D01*
X191118397Y-20515631D01*
X191063258Y-20511349D01*
X191013475Y-20498870D01*
X190959715Y-20472580D01*
X190916485Y-20435414D01*
X190884988Y-20388445D01*
X190866426Y-20332747D01*
X190861697Y-20282623D01*
X190862902Y-20269678D01*
X190972339Y-20269678D01*
X190979718Y-20323979D01*
X191005224Y-20370534D01*
X191049103Y-20405522D01*
X191101522Y-20423411D01*
X191155766Y-20427948D01*
X191190201Y-20425727D01*
X191240556Y-20414656D01*
X191289085Y-20390265D01*
X191324250Y-20355154D01*
X191345647Y-20310803D01*
X191352870Y-20258688D01*
X191345723Y-20208743D01*
X191321137Y-20164535D01*
X191276826Y-20131420D01*
X191223399Y-20114329D01*
X191168955Y-20109211D01*
X191147738Y-20109808D01*
X191098874Y-20116901D01*
X191049125Y-20135877D01*
X191005269Y-20172259D01*
X190981582Y-20215486D01*
X190972339Y-20269678D01*
X190862902Y-20269678D01*
X190866845Y-20227337D01*
X190881859Y-20177893D01*
X190906095Y-20134705D01*
X190938909Y-20098189D01*
X190979657Y-20068761D01*
X191027695Y-20046834D01*
X191082379Y-20032824D01*
X191143065Y-20027145D01*
X191160739Y-20027187D01*
X191210289Y-20032393D01*
X191261015Y-20046831D01*
X191308729Y-20072012D01*
X191347985Y-20107990D01*
X191348370Y-20070247D01*
X191346022Y-20018684D01*
X191339681Y-19969748D01*
X191338275Y-19958531D01*
X191326951Y-19909797D01*
X191304308Y-19866232D01*
X191266223Y-19833372D01*
X191216553Y-19816748D01*
X191165535Y-19812944D01*
X191151755Y-19813343D01*
X191097705Y-19821838D01*
X191045613Y-19840888D01*
X191001891Y-19865711D01*
X190960127Y-19897697D01*
X190915113Y-19906372D01*
X190889297Y-19864724D01*
X190908348Y-19821249D01*
X190922044Y-19808462D01*
X190967901Y-19775403D01*
X191018871Y-19750112D01*
X191072336Y-19732346D01*
X191125679Y-19721863D01*
X191176282Y-19718422D01*
X191211428Y-19719518D01*
G37*
G36*
X192112709Y-20088206D02*
G01*
X192329353Y-19811479D01*
X192350160Y-19766923D01*
X192350846Y-19757013D01*
X192317092Y-19720037D01*
X192303707Y-19718422D01*
X192258916Y-19740073D01*
X192242402Y-19760676D01*
X192053847Y-20018353D01*
X191871397Y-19760921D01*
X191836432Y-19725221D01*
X191808871Y-19718422D01*
X191764814Y-19741901D01*
X191758069Y-19763363D01*
X191777120Y-19808548D01*
X191993763Y-20093824D01*
X191744879Y-20407676D01*
X191725026Y-20452421D01*
X191724852Y-20456769D01*
X191754733Y-20496679D01*
X191775166Y-20500000D01*
X191819479Y-20479228D01*
X191835982Y-20458967D01*
X192050183Y-20160746D01*
X192264384Y-20458234D01*
X192299349Y-20493322D01*
X192326910Y-20500000D01*
X192371301Y-20476550D01*
X192377468Y-20454815D01*
X192357453Y-20408411D01*
X192353533Y-20403279D01*
X192112709Y-20088206D01*
G37*
G36*
X192953882Y-19575052D02*
G01*
X193003424Y-19561652D01*
X193039458Y-19522764D01*
X193048648Y-19482972D01*
X193035139Y-19435749D01*
X192995362Y-19400345D01*
X192953882Y-19391137D01*
X192903855Y-19404640D01*
X192869522Y-19439594D01*
X192858138Y-19482972D01*
X192871800Y-19530587D01*
X192907865Y-19563879D01*
X192953882Y-19575052D01*
G37*
G36*
X192974398Y-19734054D02*
G01*
X192732109Y-19734054D01*
X192686192Y-19753386D01*
X192679353Y-19778506D01*
X192705861Y-19821658D01*
X192732109Y-19826133D01*
X192928725Y-19826133D01*
X192929216Y-19889307D01*
X192929508Y-19940336D01*
X192929733Y-19993845D01*
X192929890Y-20049252D01*
X192929976Y-20105975D01*
X192929992Y-20163432D01*
X192929936Y-20221041D01*
X192929807Y-20278221D01*
X192929603Y-20334389D01*
X192929323Y-20388962D01*
X192929213Y-20406699D01*
X192719164Y-20406699D01*
X192676966Y-20431746D01*
X192672514Y-20455792D01*
X192699356Y-20497154D01*
X192719164Y-20500000D01*
X193229632Y-20500000D01*
X193275813Y-20481721D01*
X193283365Y-20455792D01*
X193257771Y-20412082D01*
X193229632Y-20406699D01*
X193035214Y-20406699D01*
X193034852Y-20348311D01*
X193034583Y-20288539D01*
X193034398Y-20227985D01*
X193034287Y-20167247D01*
X193034240Y-20106926D01*
X193034248Y-20047622D01*
X193034302Y-19989936D01*
X193034390Y-19934467D01*
X193034504Y-19881815D01*
X193034635Y-19832581D01*
X193034726Y-19801953D01*
X193023915Y-19753340D01*
X192978310Y-19734105D01*
X192974398Y-19734054D01*
G37*
G36*
X193841704Y-19842742D02*
G01*
X193832408Y-19794174D01*
X193808560Y-19750692D01*
X193766073Y-19723800D01*
X193726910Y-19718422D01*
X193675202Y-19728896D01*
X193634188Y-19759575D01*
X193607843Y-19807525D01*
X193598438Y-19848848D01*
X193597523Y-19799339D01*
X193595752Y-19769958D01*
X193576247Y-19724891D01*
X193550078Y-19718422D01*
X193507446Y-19746533D01*
X193501950Y-19800049D01*
X193501963Y-19811967D01*
X193505138Y-20450907D01*
X193521526Y-20497344D01*
X193557894Y-20508304D01*
X193603670Y-20488104D01*
X193612116Y-20450907D01*
X193610651Y-20058408D01*
X193610699Y-20009184D01*
X193611917Y-19953248D01*
X193616109Y-19899743D01*
X193626526Y-19854954D01*
X193655149Y-19814691D01*
X193695159Y-19801709D01*
X193742001Y-19820369D01*
X193748892Y-19829553D01*
X193762814Y-19869853D01*
X193767116Y-19920126D01*
X193767455Y-19945324D01*
X193766233Y-19996890D01*
X193764279Y-20044242D01*
X193762502Y-20093664D01*
X193763791Y-20127529D01*
X193782986Y-20173327D01*
X193813616Y-20180774D01*
X193856054Y-20155276D01*
X193862221Y-20123621D01*
X193862378Y-20074317D01*
X193860755Y-20042044D01*
X193858390Y-19990713D01*
X193857092Y-19945812D01*
X193858978Y-19895851D01*
X193865640Y-19860816D01*
X193892138Y-19817291D01*
X193937936Y-19801709D01*
X193983367Y-19820068D01*
X194000951Y-19853000D01*
X194009280Y-19905413D01*
X194012581Y-19958521D01*
X194013940Y-20007628D01*
X194014384Y-20064515D01*
X194014384Y-20450907D01*
X194031410Y-20497344D01*
X194069583Y-20508304D01*
X194114366Y-20488104D01*
X194124049Y-20450907D01*
X194124049Y-20058897D01*
X194123931Y-20006142D01*
X194123064Y-19948468D01*
X194120730Y-19899125D01*
X194114985Y-19849621D01*
X194100300Y-19797486D01*
X194089122Y-19776308D01*
X194053725Y-19738829D01*
X194004488Y-19720457D01*
X193977015Y-19718422D01*
X193926676Y-19727437D01*
X193883498Y-19755763D01*
X193854952Y-19798709D01*
X193841704Y-19842742D01*
G37*
G36*
X194409813Y-19784368D02*
G01*
X194409553Y-19834551D01*
X194409394Y-19884700D01*
X194409255Y-19938294D01*
X194409097Y-19992358D01*
X194408881Y-20043917D01*
X194408836Y-20052058D01*
X194408761Y-20105041D01*
X194409316Y-20155441D01*
X194410593Y-20209641D01*
X194411279Y-20231088D01*
X194414611Y-20282314D01*
X194424300Y-20342669D01*
X194440383Y-20393976D01*
X194470141Y-20445442D01*
X194511420Y-20482901D01*
X194565069Y-20506425D01*
X194617466Y-20515261D01*
X194646973Y-20516364D01*
X194701947Y-20511733D01*
X194752713Y-20496735D01*
X194798257Y-20469706D01*
X194837563Y-20428986D01*
X194864821Y-20383395D01*
X194878515Y-20350523D01*
X194878515Y-20424284D01*
X194886096Y-20473177D01*
X194929408Y-20499963D01*
X194932249Y-20500000D01*
X194978190Y-20482409D01*
X194988180Y-20449930D01*
X194987801Y-20397884D01*
X194986005Y-20347278D01*
X194985494Y-20323900D01*
X194984365Y-20259103D01*
X194983705Y-20209788D01*
X194983185Y-20159933D01*
X194982790Y-20109604D01*
X194982502Y-20058866D01*
X194982303Y-20007788D01*
X194982179Y-19956434D01*
X194982110Y-19904873D01*
X194982081Y-19853169D01*
X194982074Y-19801389D01*
X194982074Y-19784124D01*
X194970198Y-19734970D01*
X194928829Y-19718422D01*
X194883517Y-19738760D01*
X194873386Y-19784124D01*
X194873370Y-19835659D01*
X194873705Y-19887514D01*
X194874179Y-19941839D01*
X194874617Y-19994260D01*
X194874852Y-20047173D01*
X194874772Y-20099554D01*
X194874126Y-20150188D01*
X194872898Y-20189567D01*
X194868582Y-20239448D01*
X194856846Y-20294928D01*
X194836945Y-20341756D01*
X194800603Y-20384992D01*
X194748715Y-20412315D01*
X194692108Y-20421570D01*
X194679213Y-20421842D01*
X194624330Y-20415007D01*
X194577396Y-20390842D01*
X194546404Y-20351038D01*
X194528762Y-20297480D01*
X194522898Y-20251849D01*
X194519909Y-20201154D01*
X194518118Y-20152236D01*
X194517697Y-20103096D01*
X194517769Y-20094312D01*
X194518150Y-20036902D01*
X194518408Y-19984861D01*
X194518593Y-19931738D01*
X194518688Y-19880100D01*
X194518661Y-19823707D01*
X194518501Y-19784368D01*
X194506839Y-19734634D01*
X194465501Y-19718422D01*
X194420438Y-19738897D01*
X194409813Y-19783879D01*
X194409813Y-19784368D01*
G37*
G36*
X195608069Y-19842742D02*
G01*
X195598772Y-19794174D01*
X195574924Y-19750692D01*
X195532437Y-19723800D01*
X195493274Y-19718422D01*
X195441566Y-19728896D01*
X195400552Y-19759575D01*
X195374207Y-19807525D01*
X195364803Y-19848848D01*
X195363887Y-19799339D01*
X195362116Y-19769958D01*
X195342611Y-19724891D01*
X195316443Y-19718422D01*
X195273810Y-19746533D01*
X195268314Y-19800049D01*
X195268327Y-19811967D01*
X195271502Y-20450907D01*
X195287890Y-20497344D01*
X195324258Y-20508304D01*
X195370034Y-20488104D01*
X195378480Y-20450907D01*
X195377015Y-20058408D01*
X195377063Y-20009184D01*
X195378281Y-19953248D01*
X195382473Y-19899743D01*
X195392891Y-19854954D01*
X195421513Y-19814691D01*
X195461523Y-19801709D01*
X195508365Y-19820369D01*
X195515256Y-19829553D01*
X195529178Y-19869853D01*
X195533480Y-19920126D01*
X195533819Y-19945324D01*
X195532598Y-19996890D01*
X195530644Y-20044242D01*
X195528866Y-20093664D01*
X195530155Y-20127529D01*
X195549350Y-20173327D01*
X195579981Y-20180774D01*
X195622418Y-20155276D01*
X195628585Y-20123621D01*
X195628742Y-20074317D01*
X195627120Y-20042044D01*
X195624754Y-19990713D01*
X195623456Y-19945812D01*
X195625342Y-19895851D01*
X195632004Y-19860816D01*
X195658502Y-19817291D01*
X195704300Y-19801709D01*
X195749731Y-19820068D01*
X195767315Y-19853000D01*
X195775644Y-19905413D01*
X195778945Y-19958521D01*
X195780304Y-20007628D01*
X195780748Y-20064515D01*
X195780748Y-20450907D01*
X195797774Y-20497344D01*
X195835947Y-20508304D01*
X195880730Y-20488104D01*
X195890413Y-20450907D01*
X195890413Y-20058897D01*
X195890295Y-20006142D01*
X195889428Y-19948468D01*
X195887094Y-19899125D01*
X195881350Y-19849621D01*
X195866665Y-19797486D01*
X195855487Y-19776308D01*
X195820089Y-19738829D01*
X195770853Y-19720457D01*
X195743379Y-19718422D01*
X195693040Y-19727437D01*
X195649862Y-19755763D01*
X195621316Y-19798709D01*
X195608069Y-19842742D01*
G37*
G36*
X197301369Y-19470482D02*
G01*
X197355706Y-19476896D01*
X197427834Y-19494229D01*
X197489286Y-19520462D01*
X197540706Y-19555199D01*
X197582741Y-19598041D01*
X197616038Y-19648592D01*
X197641241Y-19706455D01*
X197658997Y-19771231D01*
X197669952Y-19842525D01*
X197673796Y-19893478D01*
X197675096Y-19947034D01*
X197675096Y-19947278D01*
X197673063Y-20021069D01*
X197666860Y-20088787D01*
X197656604Y-20150622D01*
X197642413Y-20206763D01*
X197624404Y-20257400D01*
X197590487Y-20323451D01*
X197548639Y-20378183D01*
X197499257Y-20422239D01*
X197442735Y-20456257D01*
X197379472Y-20480877D01*
X197309861Y-20496739D01*
X197260124Y-20502765D01*
X197207859Y-20505373D01*
X197174457Y-20505031D01*
X197123351Y-20500000D01*
X197095348Y-20493188D01*
X197060097Y-20455309D01*
X197053742Y-20404012D01*
X197053742Y-19575052D01*
X197054318Y-19567969D01*
X197160232Y-19567969D01*
X197160232Y-20402058D01*
X197190899Y-20405583D01*
X197241076Y-20406210D01*
X197279985Y-20402980D01*
X197333647Y-20392768D01*
X197381665Y-20375882D01*
X197436908Y-20342527D01*
X197482113Y-20296209D01*
X197509428Y-20252587D01*
X197531094Y-20201056D01*
X197547110Y-20141351D01*
X197557474Y-20073209D01*
X197561243Y-20022963D01*
X197562500Y-19968771D01*
X197561457Y-19916583D01*
X197555898Y-19846075D01*
X197545376Y-19784517D01*
X197529706Y-19731482D01*
X197508700Y-19686544D01*
X197472068Y-19638485D01*
X197425173Y-19603053D01*
X197367573Y-19579237D01*
X197317079Y-19568391D01*
X197260127Y-19563084D01*
X197210646Y-19563776D01*
X197160232Y-19567969D01*
X197054318Y-19567969D01*
X197057109Y-19533674D01*
X197082317Y-19489853D01*
X197129457Y-19474912D01*
X197138409Y-19473903D01*
X197189823Y-19469817D01*
X197241809Y-19468318D01*
X197301369Y-19470482D01*
G37*
G36*
X198322427Y-19722392D02*
G01*
X198372575Y-19733903D01*
X198429440Y-19759941D01*
X198475221Y-19796895D01*
X198510293Y-19843341D01*
X198535032Y-19897857D01*
X198549810Y-19959020D01*
X198554585Y-20008400D01*
X198554126Y-20060118D01*
X198550763Y-20090271D01*
X198522760Y-20130567D01*
X198474747Y-20140474D01*
X198455296Y-20142134D01*
X198401027Y-20145450D01*
X198351437Y-20147249D01*
X198300752Y-20148277D01*
X198249799Y-20148778D01*
X198194307Y-20148607D01*
X198138516Y-20148137D01*
X198083596Y-20147439D01*
X198030713Y-20146580D01*
X198032093Y-20174569D01*
X198040395Y-20227757D01*
X198056104Y-20276409D01*
X198079243Y-20319544D01*
X198118651Y-20364217D01*
X198169749Y-20396830D01*
X198219074Y-20412953D01*
X198275933Y-20419155D01*
X198283171Y-20419194D01*
X198332533Y-20416388D01*
X198385629Y-20405997D01*
X198434374Y-20387041D01*
X198477922Y-20358583D01*
X198497286Y-20346798D01*
X198545577Y-20356140D01*
X198555048Y-20381005D01*
X198533854Y-20426238D01*
X198526826Y-20432898D01*
X198481407Y-20466353D01*
X198431970Y-20489783D01*
X198380677Y-20504755D01*
X198329694Y-20512833D01*
X198273491Y-20515631D01*
X198232277Y-20513957D01*
X198174837Y-20505253D01*
X198122801Y-20489280D01*
X198076335Y-20466219D01*
X198035606Y-20436253D01*
X198000782Y-20399565D01*
X197972027Y-20356337D01*
X197949510Y-20306750D01*
X197933397Y-20250988D01*
X197923854Y-20189233D01*
X197921048Y-20121667D01*
X197922992Y-20076285D01*
X197925116Y-20060118D01*
X198033156Y-20060118D01*
X198086095Y-20061149D01*
X198140134Y-20061950D01*
X198194722Y-20062385D01*
X198249311Y-20062316D01*
X198295857Y-20062178D01*
X198347993Y-20061506D01*
X198398297Y-20060002D01*
X198451788Y-20056943D01*
X198453144Y-20021299D01*
X198447632Y-19964001D01*
X198431664Y-19911694D01*
X198404385Y-19867095D01*
X198364939Y-19832921D01*
X198312471Y-19811888D01*
X198260546Y-19806350D01*
X198208019Y-19811313D01*
X198152585Y-19830575D01*
X198108146Y-19862785D01*
X198074311Y-19906272D01*
X198050688Y-19959364D01*
X198038879Y-20007630D01*
X198033156Y-20060118D01*
X197925116Y-20060118D01*
X197931374Y-20012480D01*
X197946114Y-19954075D01*
X197966984Y-19901378D01*
X197993759Y-19854701D01*
X198026210Y-19814353D01*
X198064112Y-19780646D01*
X198107236Y-19753888D01*
X198155356Y-19734392D01*
X198208244Y-19722467D01*
X198265675Y-19718422D01*
X198322427Y-19722392D01*
G37*
G36*
X199395787Y-20433321D02*
G01*
X199395854Y-20377071D01*
X199396019Y-20319741D01*
X199396221Y-20262367D01*
X199396405Y-20205981D01*
X199396511Y-20151617D01*
X199396519Y-20134124D01*
X199396470Y-20082176D01*
X199395974Y-20032786D01*
X199395787Y-20025680D01*
X199391984Y-19970638D01*
X199384996Y-19921049D01*
X199370428Y-19863397D01*
X199349485Y-19815404D01*
X199313724Y-19768964D01*
X199266575Y-19737546D01*
X199207243Y-19721109D01*
X199165466Y-19718422D01*
X199109238Y-19723948D01*
X199057836Y-19740679D01*
X199012430Y-19768848D01*
X198974189Y-19808685D01*
X198948638Y-19850965D01*
X198936366Y-19880355D01*
X198936854Y-19798290D01*
X198930533Y-19749182D01*
X198889888Y-19718606D01*
X198883609Y-19718422D01*
X198839007Y-19742078D01*
X198829876Y-19793649D01*
X198829876Y-20434787D01*
X198842625Y-20483049D01*
X198885563Y-20500000D01*
X198930140Y-20478479D01*
X198938808Y-20434787D01*
X198938530Y-20379324D01*
X198937679Y-20324297D01*
X198936782Y-20268583D01*
X198936374Y-20218388D01*
X198936366Y-20211060D01*
X198935927Y-20159762D01*
X198935786Y-20110432D01*
X198936810Y-20057575D01*
X198939053Y-20018597D01*
X198947071Y-19966469D01*
X198962528Y-19919599D01*
X198991595Y-19872356D01*
X199032950Y-19837324D01*
X199087453Y-19817033D01*
X199131516Y-19812944D01*
X199182695Y-19819323D01*
X199227907Y-19843683D01*
X199259085Y-19887577D01*
X199275896Y-19941794D01*
X199283711Y-19999340D01*
X199284656Y-20012247D01*
X199286713Y-20061467D01*
X199287988Y-20115046D01*
X199288320Y-20160990D01*
X199288216Y-20217432D01*
X199287648Y-20267913D01*
X199286903Y-20319682D01*
X199286232Y-20372121D01*
X199285886Y-20424611D01*
X199285877Y-20433321D01*
X199298340Y-20482732D01*
X199339611Y-20500000D01*
X199385481Y-20480525D01*
X199395787Y-20433321D01*
G37*
G36*
X200217175Y-19766538D02*
G01*
X200168399Y-19744448D01*
X200117653Y-19730025D01*
X200065855Y-19721556D01*
X200016684Y-19718490D01*
X200008103Y-19718422D01*
X199948666Y-19722879D01*
X199895897Y-19735435D01*
X199850169Y-19755422D01*
X199803478Y-19789834D01*
X199769096Y-19833502D01*
X199747751Y-19885116D01*
X199740169Y-19943370D01*
X199746498Y-20000486D01*
X199767307Y-20049141D01*
X199802858Y-20089526D01*
X199843932Y-20117003D01*
X199895575Y-20138984D01*
X199944600Y-20152686D01*
X199996103Y-20165154D01*
X200043381Y-20178240D01*
X200075759Y-20188834D01*
X200120372Y-20211159D01*
X200150222Y-20252685D01*
X200156115Y-20290439D01*
X200145513Y-20343104D01*
X200111235Y-20383312D01*
X200063224Y-20406765D01*
X200009639Y-20417127D01*
X199978794Y-20418667D01*
X199924126Y-20415385D01*
X199870838Y-20404909D01*
X199822863Y-20388670D01*
X199803672Y-20380076D01*
X199754102Y-20373899D01*
X199729422Y-20395464D01*
X199732277Y-20446453D01*
X199755556Y-20466782D01*
X199804224Y-20488976D01*
X199857839Y-20503757D01*
X199911525Y-20512120D01*
X199961779Y-20515404D01*
X199979283Y-20515631D01*
X200041886Y-20511403D01*
X200098130Y-20499026D01*
X200147401Y-20478962D01*
X200189087Y-20451670D01*
X200229596Y-20408094D01*
X200256100Y-20354846D01*
X200266415Y-20305888D01*
X200267734Y-20279448D01*
X200261500Y-20222819D01*
X200240162Y-20171804D01*
X200206482Y-20134429D01*
X200163406Y-20107993D01*
X200128515Y-20094312D01*
X200078118Y-20079827D01*
X200026899Y-20067749D01*
X199985633Y-20058408D01*
X199933318Y-20043385D01*
X199886818Y-20020414D01*
X199854051Y-19982331D01*
X199844705Y-19933112D01*
X199856142Y-19880313D01*
X199887295Y-19841551D01*
X199936720Y-19817673D01*
X199993821Y-19809654D01*
X200002974Y-19809525D01*
X200055738Y-19813330D01*
X200105165Y-19823783D01*
X200154690Y-19841625D01*
X200170525Y-19848604D01*
X200220853Y-19848980D01*
X200237203Y-19831018D01*
X200234146Y-19780700D01*
X200217175Y-19766538D01*
G37*
G36*
X200902521Y-19575052D02*
G01*
X200952063Y-19561652D01*
X200988097Y-19522764D01*
X200997287Y-19482972D01*
X200983778Y-19435749D01*
X200944001Y-19400345D01*
X200902521Y-19391137D01*
X200852494Y-19404640D01*
X200818161Y-19439594D01*
X200806778Y-19482972D01*
X200820440Y-19530587D01*
X200856505Y-19563879D01*
X200902521Y-19575052D01*
G37*
G36*
X200923037Y-19734054D02*
G01*
X200680748Y-19734054D01*
X200634831Y-19753386D01*
X200627992Y-19778506D01*
X200654501Y-19821658D01*
X200680748Y-19826133D01*
X200877364Y-19826133D01*
X200877856Y-19889307D01*
X200878148Y-19940336D01*
X200878372Y-19993845D01*
X200878529Y-20049252D01*
X200878616Y-20105975D01*
X200878631Y-20163432D01*
X200878575Y-20221041D01*
X200878446Y-20278221D01*
X200878242Y-20334389D01*
X200877962Y-20388962D01*
X200877852Y-20406699D01*
X200667803Y-20406699D01*
X200625605Y-20431746D01*
X200621153Y-20455792D01*
X200647996Y-20497154D01*
X200667803Y-20500000D01*
X201178271Y-20500000D01*
X201224453Y-20481721D01*
X201232004Y-20455792D01*
X201206410Y-20412082D01*
X201178271Y-20406699D01*
X200983854Y-20406699D01*
X200983491Y-20348311D01*
X200983223Y-20288539D01*
X200983037Y-20227985D01*
X200982926Y-20167247D01*
X200982880Y-20106926D01*
X200982888Y-20047622D01*
X200982941Y-19989936D01*
X200983029Y-19934467D01*
X200983144Y-19881815D01*
X200983274Y-19832581D01*
X200983365Y-19801953D01*
X200972554Y-19753340D01*
X200926949Y-19734105D01*
X200923037Y-19734054D01*
G37*
G36*
X201728794Y-19734054D02*
G01*
X201730260Y-19583356D01*
X201721038Y-19535368D01*
X201679213Y-19513503D01*
X201635774Y-19538304D01*
X201625968Y-19583356D01*
X201622793Y-19734054D01*
X201460371Y-19734054D01*
X201415088Y-19755049D01*
X201409569Y-19778018D01*
X201432950Y-19821064D01*
X201460371Y-19826133D01*
X201622793Y-19826133D01*
X201621945Y-19884443D01*
X201621400Y-19937936D01*
X201621020Y-19995021D01*
X201620849Y-20053397D01*
X201620928Y-20110763D01*
X201621302Y-20164817D01*
X201622248Y-20224222D01*
X201622793Y-20244521D01*
X201626105Y-20296905D01*
X201633179Y-20347762D01*
X201647419Y-20398154D01*
X201648927Y-20401814D01*
X201673140Y-20444689D01*
X201710828Y-20480551D01*
X201757498Y-20502974D01*
X201811909Y-20513863D01*
X201854824Y-20515631D01*
X201913276Y-20510411D01*
X201963870Y-20494992D01*
X202011322Y-20464584D01*
X202043964Y-20426363D01*
X202069353Y-20373230D01*
X202082233Y-20322172D01*
X202088740Y-20260398D01*
X202089053Y-20212770D01*
X202069914Y-20167049D01*
X202036296Y-20157815D01*
X201997381Y-20190479D01*
X201994775Y-20213747D01*
X201993358Y-20264357D01*
X201985554Y-20316576D01*
X201967380Y-20364021D01*
X201934092Y-20400017D01*
X201887861Y-20417110D01*
X201864105Y-20419155D01*
X201815164Y-20413912D01*
X201771805Y-20389722D01*
X201749311Y-20354919D01*
X201735521Y-20304888D01*
X201729633Y-20252387D01*
X201728306Y-20226692D01*
X201726423Y-20176321D01*
X201725283Y-20124331D01*
X201724785Y-20071574D01*
X201724825Y-20018902D01*
X201725301Y-19967169D01*
X201726108Y-19917228D01*
X201727427Y-19858621D01*
X201728306Y-19826133D01*
X201985494Y-19826133D01*
X202029305Y-19803438D01*
X202035075Y-19775819D01*
X202004769Y-19736546D01*
X201985494Y-19734054D01*
X201728794Y-19734054D01*
G37*
G36*
X202811279Y-20248185D02*
G01*
X202828185Y-20200097D01*
X202845574Y-20150782D01*
X202863117Y-20101086D01*
X202880487Y-20051855D01*
X202897355Y-20003937D01*
X202918495Y-19943550D01*
X202937381Y-19889007D01*
X202953232Y-19842315D01*
X202967594Y-19798046D01*
X202972852Y-19748831D01*
X202930255Y-19718852D01*
X202926073Y-19718422D01*
X202879834Y-19736131D01*
X202862570Y-19772889D01*
X202844705Y-19830535D01*
X202826815Y-19888204D01*
X202808875Y-19945895D01*
X202790858Y-20003604D01*
X202772740Y-20061329D01*
X202754495Y-20119067D01*
X202736098Y-20176817D01*
X202717524Y-20234576D01*
X202698746Y-20292342D01*
X202679741Y-20350111D01*
X202666931Y-20388625D01*
X202461279Y-19772400D01*
X202438503Y-19728833D01*
X202399974Y-19718422D01*
X202355800Y-19741744D01*
X202353851Y-19792212D01*
X202358452Y-19806838D01*
X202611000Y-20510258D01*
X202589251Y-20565479D01*
X202569639Y-20611542D01*
X202547750Y-20657531D01*
X202521150Y-20703248D01*
X202485961Y-20741132D01*
X202483016Y-20743021D01*
X202436138Y-20759493D01*
X202385858Y-20761098D01*
X202365047Y-20759385D01*
X202316144Y-20772499D01*
X202304719Y-20795778D01*
X202320709Y-20843633D01*
X202350148Y-20857327D01*
X202400671Y-20862272D01*
X202441006Y-20859525D01*
X202490027Y-20848556D01*
X202535567Y-20826105D01*
X202576810Y-20790539D01*
X202597566Y-20764515D01*
X202626059Y-20717176D01*
X202651575Y-20665289D01*
X202673239Y-20616317D01*
X202694971Y-20563946D01*
X202716490Y-20509876D01*
X202733365Y-20466538D01*
X202751544Y-20417232D01*
X202770115Y-20365632D01*
X202786476Y-20319227D01*
X202803313Y-20270961D01*
X202811279Y-20248185D01*
G37*
G36*
X204638215Y-19447801D02*
G01*
X204661635Y-19404463D01*
X204661662Y-19403105D01*
X204638312Y-19360174D01*
X204613058Y-19351325D01*
X204567715Y-19370686D01*
X204563965Y-19373796D01*
X204524831Y-19409647D01*
X204485023Y-19451846D01*
X204445529Y-19500249D01*
X204407336Y-19554712D01*
X204371433Y-19615093D01*
X204338807Y-19681246D01*
X204319365Y-19728485D01*
X204302111Y-19778182D01*
X204287337Y-19830297D01*
X204275338Y-19884786D01*
X204266404Y-19941606D01*
X204260829Y-20000716D01*
X204258906Y-20062072D01*
X204260635Y-20121188D01*
X204265631Y-20178089D01*
X204273604Y-20232773D01*
X204284265Y-20285234D01*
X204297327Y-20335468D01*
X204312500Y-20383471D01*
X204338586Y-20451283D01*
X204367798Y-20514050D01*
X204399163Y-20571759D01*
X204431704Y-20624395D01*
X204464448Y-20671944D01*
X204496421Y-20714390D01*
X204516826Y-20739846D01*
X204553551Y-20774340D01*
X204580818Y-20781367D01*
X204626386Y-20758735D01*
X204639192Y-20727390D01*
X204621607Y-20685380D01*
X204584709Y-20637064D01*
X204549456Y-20586853D01*
X204516280Y-20534652D01*
X204485615Y-20480369D01*
X204457896Y-20423911D01*
X204433554Y-20365185D01*
X204413024Y-20304098D01*
X204396739Y-20240556D01*
X204385133Y-20174468D01*
X204378639Y-20105740D01*
X204377364Y-20058408D01*
X204378756Y-20007255D01*
X204382832Y-19957920D01*
X204393653Y-19887287D01*
X204409676Y-19820643D01*
X204430395Y-19757923D01*
X204455308Y-19699066D01*
X204483911Y-19644009D01*
X204515700Y-19592688D01*
X204550173Y-19545042D01*
X204586825Y-19501006D01*
X204625154Y-19460519D01*
X204638215Y-19447801D01*
G37*
G36*
X205141600Y-20407676D02*
G01*
X205172827Y-20361159D01*
X205207063Y-20313394D01*
X205242379Y-20266387D01*
X205276847Y-20222144D01*
X205308537Y-20182674D01*
X205340184Y-20144434D01*
X205344565Y-20139253D01*
X205377779Y-20099903D01*
X205409504Y-20060027D01*
X205440633Y-20018181D01*
X205472060Y-19972923D01*
X205498274Y-19929953D01*
X205520412Y-19885520D01*
X205537797Y-19838988D01*
X205549752Y-19789718D01*
X205555603Y-19737075D01*
X205556080Y-19718667D01*
X205552270Y-19662849D01*
X205540528Y-19611883D01*
X205520939Y-19566567D01*
X205485542Y-19519084D01*
X205438174Y-19483236D01*
X205391769Y-19463984D01*
X205337890Y-19453975D01*
X205308173Y-19452686D01*
X205247963Y-19458224D01*
X205193797Y-19473876D01*
X205145784Y-19498199D01*
X205104028Y-19529751D01*
X205068636Y-19567091D01*
X205039714Y-19608776D01*
X205029981Y-19626343D01*
X205016792Y-19670062D01*
X205045274Y-19711403D01*
X205059290Y-19713782D01*
X205103685Y-19689515D01*
X205108871Y-19681297D01*
X205136811Y-19636850D01*
X205170285Y-19599225D01*
X205211669Y-19571106D01*
X205263342Y-19555177D01*
X205298404Y-19552581D01*
X205351061Y-19560760D01*
X205395940Y-19588366D01*
X205424742Y-19631102D01*
X205439309Y-19684426D01*
X205442018Y-19726482D01*
X205437396Y-19781316D01*
X205423115Y-19835589D01*
X205402348Y-19884267D01*
X205378499Y-19928007D01*
X205348273Y-19975968D01*
X205334307Y-19996615D01*
X205302265Y-20039144D01*
X205265051Y-20086080D01*
X205230488Y-20129133D01*
X205193276Y-20175523D01*
X205154900Y-20223811D01*
X205116844Y-20272561D01*
X205080596Y-20320337D01*
X205071990Y-20331960D01*
X205045056Y-20375197D01*
X205031005Y-20422419D01*
X205030958Y-20425017D01*
X205046547Y-20471501D01*
X205092793Y-20496952D01*
X205124258Y-20500000D01*
X205552172Y-20500000D01*
X205597778Y-20480018D01*
X205607371Y-20448709D01*
X205582991Y-20403972D01*
X205552660Y-20397906D01*
X205141600Y-20407676D01*
G37*
G36*
X207346136Y-20452372D02*
G01*
X207375733Y-20412781D01*
X207376422Y-20405478D01*
X207352407Y-20362528D01*
X207337343Y-20357850D01*
X207296799Y-20371528D01*
X207252914Y-20395676D01*
X207205290Y-20410989D01*
X207166129Y-20414515D01*
X207117268Y-20409469D01*
X207061190Y-20388002D01*
X207014994Y-20351411D01*
X206978149Y-20301573D01*
X206956334Y-20256632D01*
X206939258Y-20206087D01*
X206926698Y-20150732D01*
X206918430Y-20091359D01*
X206914231Y-20028759D01*
X206913582Y-19985624D01*
X206914813Y-19934572D01*
X206920637Y-19863882D01*
X206930991Y-19800282D01*
X206945602Y-19743798D01*
X206964197Y-19694457D01*
X206994716Y-19639825D01*
X207031185Y-19598002D01*
X207072958Y-19569051D01*
X207119388Y-19553033D01*
X207144147Y-19549895D01*
X207193028Y-19552343D01*
X207240724Y-19566926D01*
X207283876Y-19590623D01*
X207296310Y-19598988D01*
X207328550Y-19609246D01*
X207369932Y-19580160D01*
X207376422Y-19556245D01*
X207353147Y-19513209D01*
X207346136Y-19507885D01*
X207298867Y-19480315D01*
X207246894Y-19462594D01*
X207197719Y-19454452D01*
X207159534Y-19452686D01*
X207101132Y-19457885D01*
X207046674Y-19473049D01*
X206996549Y-19497943D01*
X206951144Y-19532332D01*
X206910850Y-19575980D01*
X206876055Y-19628651D01*
X206847148Y-19690111D01*
X206824517Y-19760123D01*
X206813109Y-19811433D01*
X206804778Y-19866370D01*
X206799640Y-19924864D01*
X206797810Y-19986845D01*
X206799016Y-20049899D01*
X206803152Y-20109073D01*
X206810172Y-20164343D01*
X206820029Y-20215682D01*
X206832676Y-20263064D01*
X206856779Y-20326660D01*
X206886898Y-20381206D01*
X206922878Y-20426614D01*
X206964561Y-20462795D01*
X207011791Y-20489661D01*
X207064410Y-20507125D01*
X207122262Y-20515098D01*
X207142681Y-20515631D01*
X207192057Y-20513097D01*
X207244042Y-20503602D01*
X207296211Y-20484307D01*
X207340101Y-20457152D01*
X207346136Y-20452372D01*
G37*
G36*
X207991888Y-19719518D02*
G01*
X208047951Y-19727261D01*
X208097020Y-19743577D01*
X208139021Y-19769816D01*
X208173875Y-19807327D01*
X208177468Y-19812471D01*
X208201316Y-19857483D01*
X208215518Y-19905360D01*
X208223204Y-19955501D01*
X208226726Y-20005395D01*
X208227852Y-20064026D01*
X208227852Y-20449685D01*
X208223194Y-20475994D01*
X208179492Y-20500000D01*
X208154292Y-20496320D01*
X208128445Y-20453593D01*
X208128445Y-20389357D01*
X208121979Y-20401603D01*
X208091728Y-20442342D01*
X208048914Y-20477132D01*
X208001507Y-20499577D01*
X207954001Y-20511406D01*
X207898857Y-20515631D01*
X207843719Y-20511349D01*
X207793936Y-20498870D01*
X207740175Y-20472580D01*
X207696946Y-20435414D01*
X207665449Y-20388445D01*
X207646887Y-20332747D01*
X207642158Y-20282623D01*
X207643363Y-20269678D01*
X207752800Y-20269678D01*
X207760179Y-20323979D01*
X207785685Y-20370534D01*
X207829564Y-20405522D01*
X207881983Y-20423411D01*
X207936226Y-20427948D01*
X207970661Y-20425727D01*
X208021017Y-20414656D01*
X208069545Y-20390265D01*
X208104711Y-20355154D01*
X208126108Y-20310803D01*
X208133330Y-20258688D01*
X208126184Y-20208743D01*
X208101598Y-20164535D01*
X208057287Y-20131420D01*
X208003860Y-20114329D01*
X207949415Y-20109211D01*
X207928199Y-20109808D01*
X207879334Y-20116901D01*
X207829586Y-20135877D01*
X207785730Y-20172259D01*
X207762042Y-20215486D01*
X207752800Y-20269678D01*
X207643363Y-20269678D01*
X207647306Y-20227337D01*
X207662319Y-20177893D01*
X207686555Y-20134705D01*
X207719369Y-20098189D01*
X207760117Y-20068761D01*
X207808155Y-20046834D01*
X207862839Y-20032824D01*
X207923526Y-20027145D01*
X207941200Y-20027187D01*
X207990750Y-20032393D01*
X208041476Y-20046831D01*
X208089189Y-20072012D01*
X208128445Y-20107990D01*
X208128831Y-20070247D01*
X208126482Y-20018684D01*
X208120141Y-19969748D01*
X208118736Y-19958531D01*
X208107412Y-19909797D01*
X208084768Y-19866232D01*
X208046684Y-19833372D01*
X207997013Y-19816748D01*
X207945996Y-19812944D01*
X207932215Y-19813343D01*
X207878166Y-19821838D01*
X207826074Y-19840888D01*
X207782351Y-19865711D01*
X207740588Y-19897697D01*
X207695573Y-19906372D01*
X207669757Y-19864724D01*
X207688808Y-19821249D01*
X207702505Y-19808462D01*
X207748362Y-19775403D01*
X207799331Y-19750112D01*
X207852797Y-19732346D01*
X207906140Y-19721863D01*
X207956743Y-19718422D01*
X207991888Y-19719518D01*
G37*
G36*
X208549032Y-20500000D02*
G01*
X209043868Y-20500000D01*
X209089356Y-20481691D01*
X209098090Y-20451639D01*
X209070611Y-20410740D01*
X209043868Y-20406699D01*
X208820385Y-20406699D01*
X208819628Y-20357320D01*
X208819245Y-20305679D01*
X208819328Y-20256381D01*
X208819408Y-20247208D01*
X208819426Y-20196220D01*
X208819364Y-20146849D01*
X208820041Y-20097842D01*
X208821851Y-20058408D01*
X208828952Y-20001611D01*
X208841520Y-19951850D01*
X208863793Y-19899759D01*
X208892011Y-19859165D01*
X208931691Y-19826019D01*
X208982856Y-19809425D01*
X208990378Y-19809036D01*
X209040009Y-19816661D01*
X209054126Y-19824180D01*
X209054126Y-19978541D01*
X209079613Y-20021571D01*
X209101265Y-20025191D01*
X209144241Y-19999696D01*
X209148892Y-19974877D01*
X209149188Y-19924284D01*
X209149258Y-19872204D01*
X209149188Y-19819317D01*
X209148936Y-19769989D01*
X209148892Y-19765317D01*
X209108299Y-19736977D01*
X209059368Y-19722386D01*
X209014558Y-19718422D01*
X208957911Y-19726419D01*
X208908930Y-19751279D01*
X208868533Y-19793070D01*
X208842089Y-19840878D01*
X208826042Y-19887649D01*
X208814830Y-19942021D01*
X208812814Y-19956803D01*
X208806708Y-19956803D01*
X208811593Y-19813433D01*
X208810616Y-19770935D01*
X208777460Y-19734587D01*
X208767629Y-19734054D01*
X208555626Y-19734054D01*
X208509781Y-19755463D01*
X208504335Y-19779483D01*
X208530087Y-19821680D01*
X208555626Y-19826133D01*
X208712919Y-19826133D01*
X208713958Y-19881849D01*
X208714794Y-19938652D01*
X208715438Y-19996236D01*
X208715900Y-20054293D01*
X208716193Y-20112515D01*
X208716326Y-20170596D01*
X208716338Y-20193719D01*
X208716246Y-20243140D01*
X208715972Y-20296728D01*
X208715514Y-20352057D01*
X208714873Y-20406699D01*
X208549032Y-20406699D01*
X208503475Y-20425840D01*
X208496519Y-20452128D01*
X208520618Y-20494701D01*
X208549032Y-20500000D01*
G37*
G36*
X209972335Y-19404185D02*
G01*
X209985912Y-19452198D01*
X209985912Y-20443091D01*
X209978428Y-20478818D01*
X209933156Y-20500000D01*
X209897903Y-20490205D01*
X209880399Y-20443335D01*
X209880399Y-20354187D01*
X209872816Y-20373629D01*
X209844458Y-20424544D01*
X209808242Y-20464279D01*
X209764885Y-20492756D01*
X209715101Y-20509899D01*
X209659604Y-20515631D01*
X209598990Y-20509168D01*
X209545451Y-20489936D01*
X209499377Y-20458173D01*
X209461157Y-20414118D01*
X209431180Y-20358006D01*
X209414341Y-20308154D01*
X209402522Y-20251754D01*
X209395887Y-20188907D01*
X209394831Y-20132141D01*
X209504561Y-20132141D01*
X209506333Y-20183233D01*
X209514138Y-20244090D01*
X209528097Y-20296378D01*
X209554090Y-20349246D01*
X209589446Y-20387708D01*
X209634027Y-20411199D01*
X209687692Y-20419155D01*
X209722963Y-20416375D01*
X209774470Y-20399482D01*
X209816703Y-20367464D01*
X209849453Y-20320551D01*
X209868687Y-20272449D01*
X209881614Y-20215078D01*
X209887107Y-20166037D01*
X209888948Y-20111898D01*
X209888790Y-20093929D01*
X209886380Y-20043149D01*
X209878480Y-19982861D01*
X209864952Y-19931251D01*
X209839681Y-19879275D01*
X209804581Y-19841622D01*
X209759076Y-19818719D01*
X209702591Y-19810990D01*
X209680652Y-19812210D01*
X209630763Y-19825837D01*
X209588388Y-19854357D01*
X209554063Y-19897498D01*
X209532759Y-19942352D01*
X209517226Y-19996247D01*
X209507738Y-20059044D01*
X209504754Y-20111898D01*
X209504754Y-20114096D01*
X209504561Y-20132141D01*
X209394831Y-20132141D01*
X209394600Y-20119713D01*
X209395409Y-20096600D01*
X209401675Y-20030803D01*
X209413479Y-19970525D01*
X209430528Y-19916032D01*
X209452532Y-19867589D01*
X209479200Y-19825462D01*
X209521509Y-19779577D01*
X209570902Y-19746022D01*
X209626689Y-19725427D01*
X209688180Y-19718422D01*
X209737500Y-19722969D01*
X209789732Y-19740260D01*
X209834361Y-19771278D01*
X209865064Y-19809441D01*
X209887482Y-19858862D01*
X209880399Y-19452198D01*
X209890100Y-19409541D01*
X209936087Y-19390160D01*
X209972335Y-19404185D01*
G37*
G36*
X210815361Y-19766538D02*
G01*
X210766585Y-19744448D01*
X210715839Y-19730025D01*
X210664041Y-19721556D01*
X210614870Y-19718490D01*
X210606289Y-19718422D01*
X210546851Y-19722879D01*
X210494082Y-19735435D01*
X210448355Y-19755422D01*
X210401663Y-19789834D01*
X210367282Y-19833502D01*
X210345937Y-19885116D01*
X210338355Y-19943370D01*
X210344684Y-20000486D01*
X210365493Y-20049141D01*
X210401043Y-20089526D01*
X210442117Y-20117003D01*
X210493760Y-20138984D01*
X210542786Y-20152686D01*
X210594289Y-20165154D01*
X210641567Y-20178240D01*
X210673944Y-20188834D01*
X210718557Y-20211159D01*
X210748408Y-20252685D01*
X210754300Y-20290439D01*
X210743699Y-20343104D01*
X210709421Y-20383312D01*
X210661410Y-20406765D01*
X210607825Y-20417127D01*
X210576980Y-20418667D01*
X210522312Y-20415385D01*
X210469024Y-20404909D01*
X210421049Y-20388670D01*
X210401858Y-20380076D01*
X210352288Y-20373899D01*
X210327608Y-20395464D01*
X210330463Y-20446453D01*
X210353742Y-20466782D01*
X210402410Y-20488976D01*
X210456025Y-20503757D01*
X210509710Y-20512120D01*
X210559964Y-20515404D01*
X210577468Y-20515631D01*
X210640072Y-20511403D01*
X210696316Y-20499026D01*
X210745587Y-20478962D01*
X210787273Y-20451670D01*
X210827782Y-20408094D01*
X210854285Y-20354846D01*
X210864601Y-20305888D01*
X210865919Y-20279448D01*
X210859685Y-20222819D01*
X210838347Y-20171804D01*
X210804668Y-20134429D01*
X210761591Y-20107993D01*
X210726701Y-20094312D01*
X210676304Y-20079827D01*
X210625085Y-20067749D01*
X210583819Y-20058408D01*
X210531503Y-20043385D01*
X210485004Y-20020414D01*
X210452237Y-19982331D01*
X210442891Y-19933112D01*
X210454328Y-19880313D01*
X210485481Y-19841551D01*
X210534905Y-19817673D01*
X210592007Y-19809654D01*
X210601160Y-19809525D01*
X210653924Y-19813330D01*
X210703351Y-19823783D01*
X210752876Y-19841625D01*
X210768711Y-19848604D01*
X210819039Y-19848980D01*
X210835389Y-19831018D01*
X210832332Y-19780700D01*
X210815361Y-19766538D01*
G37*
G36*
X212556568Y-19425331D02*
G01*
X212075898Y-20553489D01*
X212065152Y-20597941D01*
X212101916Y-20630986D01*
X212118641Y-20632379D01*
X212160024Y-20604473D01*
X212164070Y-20595987D01*
X212647671Y-19463677D01*
X212656952Y-19424842D01*
X212618966Y-19392057D01*
X212601753Y-19390160D01*
X212559885Y-19418199D01*
X212556568Y-19425331D01*
G37*
G36*
X214140483Y-19529623D02*
G01*
X214147078Y-19496650D01*
X214119000Y-19456455D01*
X214095542Y-19452686D01*
X214050445Y-19474634D01*
X214040099Y-19494940D01*
X213827120Y-20122644D01*
X213813984Y-20170795D01*
X213813686Y-20176866D01*
X213837986Y-20222120D01*
X213890137Y-20234197D01*
X213895508Y-20234263D01*
X214193240Y-20234263D01*
X214193240Y-20464584D01*
X214214897Y-20509204D01*
X214245019Y-20515631D01*
X214290391Y-20494913D01*
X214297287Y-20464584D01*
X214297287Y-20234263D01*
X214457755Y-20234263D01*
X214495245Y-20200625D01*
X214496589Y-20187613D01*
X214471043Y-20144250D01*
X214457755Y-20141939D01*
X214297287Y-20141939D01*
X214297287Y-19918213D01*
X214276902Y-19871813D01*
X214245019Y-19863014D01*
X214200570Y-19886316D01*
X214193240Y-19918213D01*
X214193240Y-20141939D01*
X213928969Y-20141939D01*
X214140483Y-19529623D01*
G37*
G36*
X215244949Y-19468318D02*
G01*
X215199002Y-19488356D01*
X215188773Y-19527424D01*
X215188773Y-19923098D01*
X214832179Y-19923098D01*
X214832179Y-19527424D01*
X214815870Y-19480039D01*
X214777713Y-19468318D01*
X214731453Y-19488356D01*
X214721048Y-19527424D01*
X214721048Y-20441870D01*
X214738001Y-20488390D01*
X214777224Y-20500000D01*
X214822319Y-20480834D01*
X214832179Y-20441870D01*
X214832179Y-20015422D01*
X215188773Y-20015422D01*
X215188773Y-20441870D01*
X215205726Y-20488390D01*
X215244949Y-20500000D01*
X215291134Y-20478659D01*
X215299415Y-20441870D01*
X215299415Y-19527424D01*
X215283300Y-19480039D01*
X215244949Y-19468318D01*
G37*
G36*
X215919551Y-19470127D02*
G01*
X215968787Y-19474757D01*
X216033735Y-19486771D01*
X216088606Y-19504571D01*
X216134090Y-19527820D01*
X216181321Y-19566717D01*
X216214718Y-19613910D01*
X216235911Y-19668603D01*
X216246533Y-19730002D01*
X216248543Y-19779972D01*
X216244663Y-19834541D01*
X216233913Y-19884999D01*
X216216390Y-19931070D01*
X216182661Y-19985201D01*
X216137297Y-20030396D01*
X216095779Y-20058039D01*
X216047945Y-20080015D01*
X215993893Y-20096052D01*
X215933720Y-20105876D01*
X215867524Y-20109211D01*
X215864467Y-20109204D01*
X215812969Y-20107313D01*
X215762500Y-20102372D01*
X215763965Y-20435764D01*
X215755285Y-20479337D01*
X215710232Y-20500000D01*
X215667245Y-20483635D01*
X215655766Y-20435764D01*
X215655766Y-19574075D01*
X215762500Y-19574075D01*
X215762500Y-20012247D01*
X215769304Y-20012919D01*
X215819419Y-20016795D01*
X215868990Y-20017864D01*
X215887002Y-20017431D01*
X215936634Y-20013183D01*
X215992947Y-20000840D01*
X216048489Y-19975172D01*
X216088830Y-19938770D01*
X216115364Y-19892321D01*
X216129482Y-19836512D01*
X216132772Y-19785589D01*
X216131866Y-19757483D01*
X216124477Y-19707292D01*
X216104315Y-19655520D01*
X216071345Y-19615474D01*
X216024851Y-19586662D01*
X215977437Y-19571371D01*
X215920544Y-19562703D01*
X215871432Y-19560397D01*
X215862119Y-19560331D01*
X215812566Y-19563282D01*
X215762500Y-19574075D01*
X215655766Y-19574075D01*
X215655766Y-19561618D01*
X215656230Y-19547680D01*
X215674994Y-19500506D01*
X215723909Y-19483949D01*
X215764354Y-19480570D01*
X215814085Y-19475859D01*
X215865326Y-19468318D01*
X215919551Y-19470127D01*
G37*
G36*
X216559464Y-19451221D02*
G01*
X216598038Y-19489812D01*
X216635234Y-19531872D01*
X216670524Y-19577495D01*
X216703381Y-19626775D01*
X216733277Y-19679806D01*
X216759685Y-19736683D01*
X216782077Y-19797500D01*
X216799925Y-19862350D01*
X216812702Y-19931329D01*
X216819879Y-20004529D01*
X216821293Y-20055722D01*
X216818549Y-20127423D01*
X216810576Y-20196154D01*
X216797761Y-20262036D01*
X216780489Y-20325188D01*
X216759147Y-20385733D01*
X216734121Y-20443790D01*
X216705798Y-20499480D01*
X216674564Y-20552924D01*
X216640805Y-20604243D01*
X216604909Y-20653557D01*
X216579981Y-20685380D01*
X216562639Y-20726413D01*
X216586157Y-20771256D01*
X216615884Y-20781367D01*
X216660295Y-20759008D01*
X216676945Y-20739846D01*
X216708515Y-20699635D01*
X216741558Y-20653862D01*
X216775074Y-20602709D01*
X216808063Y-20546358D01*
X216839527Y-20484993D01*
X216868464Y-20418794D01*
X216885859Y-20372067D01*
X216901390Y-20323327D01*
X216914761Y-20272628D01*
X216925677Y-20220025D01*
X216933841Y-20165570D01*
X216938956Y-20109319D01*
X216940727Y-20051325D01*
X216938920Y-19990439D01*
X216933501Y-19931986D01*
X216924754Y-19875977D01*
X216912960Y-19822424D01*
X216898401Y-19771338D01*
X216881359Y-19722731D01*
X216862116Y-19676614D01*
X216829742Y-19612132D01*
X216794000Y-19553318D01*
X216755844Y-19500210D01*
X216716225Y-19452846D01*
X216676093Y-19411265D01*
X216636401Y-19375505D01*
X216592978Y-19351365D01*
X216583644Y-19350837D01*
X216541005Y-19379111D01*
X216533330Y-19404570D01*
X216556635Y-19448491D01*
X216559464Y-19451221D01*
G37*
G36*
X192311035Y-21209134D02*
G01*
X192267609Y-21184966D01*
X192220410Y-21167882D01*
X192167275Y-21155605D01*
X192110734Y-21149099D01*
X192086087Y-21148318D01*
X192034152Y-21150958D01*
X191971127Y-21163005D01*
X191915652Y-21184205D01*
X191868208Y-21213916D01*
X191829277Y-21251493D01*
X191799339Y-21296292D01*
X191778875Y-21347669D01*
X191768366Y-21404980D01*
X191767350Y-21420160D01*
X191768663Y-21469659D01*
X191781072Y-21525685D01*
X191805655Y-21575150D01*
X191842634Y-21617987D01*
X191892234Y-21654129D01*
X191941152Y-21678178D01*
X191998404Y-21697864D01*
X192045451Y-21711514D01*
X192085110Y-21723265D01*
X192135101Y-21741059D01*
X192181875Y-21767560D01*
X192219334Y-21806673D01*
X192239696Y-21855928D01*
X192244599Y-21907265D01*
X192244356Y-21916706D01*
X192236357Y-21967069D01*
X192212842Y-22016486D01*
X192175586Y-22053699D01*
X192126118Y-22078515D01*
X192076665Y-22089586D01*
X192032354Y-22092072D01*
X191979425Y-22087972D01*
X191926543Y-22075361D01*
X191880877Y-22056466D01*
X191836959Y-22030523D01*
X191789362Y-22015502D01*
X191756603Y-22033454D01*
X191745287Y-22082249D01*
X191763442Y-22110390D01*
X191805387Y-22139680D01*
X191857370Y-22164045D01*
X191911361Y-22181146D01*
X191961848Y-22191009D01*
X192016394Y-22195494D01*
X192027713Y-22195631D01*
X192082870Y-22192429D01*
X192133752Y-22183071D01*
X192194570Y-22161670D01*
X192246887Y-22130886D01*
X192290188Y-22091607D01*
X192323958Y-22044726D01*
X192347681Y-21991130D01*
X192360843Y-21931712D01*
X192363303Y-21900097D01*
X192361193Y-21846654D01*
X192347413Y-21788375D01*
X192321596Y-21738941D01*
X192284111Y-21697683D01*
X192235327Y-21663930D01*
X192188412Y-21641879D01*
X192134691Y-21623859D01*
X192087247Y-21610425D01*
X192039437Y-21596992D01*
X191986639Y-21577980D01*
X191938820Y-21550577D01*
X191902110Y-21512195D01*
X191883141Y-21466804D01*
X191878969Y-21414298D01*
X191886530Y-21365810D01*
X191909685Y-21317125D01*
X191946951Y-21279798D01*
X191997005Y-21254882D01*
X192047531Y-21244360D01*
X192093170Y-21243084D01*
X192143633Y-21249041D01*
X192192274Y-21262217D01*
X192239987Y-21282718D01*
X192254126Y-21290223D01*
X192303904Y-21296336D01*
X192327887Y-21275812D01*
X192327712Y-21225953D01*
X192311035Y-21209134D01*
G37*
G36*
X192896973Y-21414054D02*
G01*
X192898439Y-21263356D01*
X192889216Y-21215368D01*
X192847392Y-21193503D01*
X192803953Y-21218304D01*
X192794147Y-21263356D01*
X192790972Y-21414054D01*
X192628550Y-21414054D01*
X192583267Y-21435049D01*
X192577748Y-21458018D01*
X192601129Y-21501064D01*
X192628550Y-21506133D01*
X192790972Y-21506133D01*
X192790124Y-21564443D01*
X192789579Y-21617936D01*
X192789199Y-21675021D01*
X192789027Y-21733397D01*
X192789107Y-21790763D01*
X192789481Y-21844817D01*
X192790427Y-21904222D01*
X192790972Y-21924521D01*
X192794284Y-21976905D01*
X192801358Y-22027762D01*
X192815598Y-22078154D01*
X192817106Y-22081814D01*
X192841319Y-22124689D01*
X192879007Y-22160551D01*
X192925677Y-22182974D01*
X192980087Y-22193863D01*
X193023002Y-22195631D01*
X193081455Y-22190411D01*
X193132049Y-22174992D01*
X193179501Y-22144584D01*
X193212143Y-22106363D01*
X193237532Y-22053230D01*
X193250412Y-22002172D01*
X193256919Y-21940398D01*
X193257231Y-21892770D01*
X193238093Y-21847049D01*
X193204475Y-21837815D01*
X193165560Y-21870479D01*
X193162954Y-21893747D01*
X193161536Y-21944357D01*
X193153733Y-21996576D01*
X193135559Y-22044021D01*
X193102271Y-22080017D01*
X193056040Y-22097110D01*
X193032284Y-22099155D01*
X192983343Y-22093912D01*
X192939984Y-22069722D01*
X192917490Y-22034919D01*
X192903700Y-21984888D01*
X192897812Y-21932387D01*
X192896485Y-21906692D01*
X192894601Y-21856321D01*
X192893462Y-21804331D01*
X192892964Y-21751574D01*
X192893004Y-21698902D01*
X192893479Y-21647169D01*
X192894287Y-21597228D01*
X192895605Y-21538621D01*
X192896485Y-21506133D01*
X193153672Y-21506133D01*
X193197483Y-21483438D01*
X193203254Y-21455819D01*
X193172947Y-21416546D01*
X193153672Y-21414054D01*
X192896973Y-21414054D01*
G37*
G36*
X193860974Y-21399518D02*
G01*
X193917037Y-21407261D01*
X193966106Y-21423577D01*
X194008107Y-21449816D01*
X194042961Y-21487327D01*
X194046554Y-21492471D01*
X194070402Y-21537483D01*
X194084604Y-21585360D01*
X194092290Y-21635501D01*
X194095812Y-21685395D01*
X194096938Y-21744026D01*
X194096938Y-22129685D01*
X194092280Y-22155994D01*
X194048578Y-22180000D01*
X194023378Y-22176320D01*
X193997531Y-22133593D01*
X193997531Y-22069357D01*
X193991065Y-22081603D01*
X193960814Y-22122342D01*
X193918000Y-22157132D01*
X193870593Y-22179577D01*
X193823087Y-22191406D01*
X193767943Y-22195631D01*
X193712805Y-22191349D01*
X193663022Y-22178870D01*
X193609261Y-22152580D01*
X193566032Y-22115414D01*
X193534535Y-22068445D01*
X193515973Y-22012747D01*
X193511244Y-21962623D01*
X193512449Y-21949678D01*
X193621886Y-21949678D01*
X193629265Y-22003979D01*
X193654771Y-22050534D01*
X193698650Y-22085522D01*
X193751069Y-22103411D01*
X193805312Y-22107948D01*
X193839747Y-22105727D01*
X193890103Y-22094656D01*
X193938631Y-22070265D01*
X193973797Y-22035154D01*
X193995194Y-21990803D01*
X194002416Y-21938688D01*
X193995270Y-21888743D01*
X193970684Y-21844535D01*
X193926373Y-21811420D01*
X193872946Y-21794329D01*
X193818501Y-21789211D01*
X193797285Y-21789808D01*
X193748420Y-21796901D01*
X193698672Y-21815877D01*
X193654816Y-21852259D01*
X193631128Y-21895486D01*
X193621886Y-21949678D01*
X193512449Y-21949678D01*
X193516392Y-21907337D01*
X193531405Y-21857893D01*
X193555641Y-21814705D01*
X193588455Y-21778189D01*
X193629203Y-21748761D01*
X193677241Y-21726834D01*
X193731925Y-21712824D01*
X193792612Y-21707145D01*
X193810286Y-21707187D01*
X193859836Y-21712393D01*
X193910562Y-21726831D01*
X193958275Y-21752012D01*
X193997531Y-21787990D01*
X193997917Y-21750247D01*
X193995568Y-21698684D01*
X193989227Y-21649748D01*
X193987822Y-21638531D01*
X193976498Y-21589797D01*
X193953854Y-21546232D01*
X193915770Y-21513372D01*
X193866099Y-21496748D01*
X193815082Y-21492944D01*
X193801301Y-21493343D01*
X193747252Y-21501838D01*
X193695160Y-21520888D01*
X193651437Y-21545711D01*
X193609674Y-21577697D01*
X193564659Y-21586372D01*
X193538843Y-21544724D01*
X193557894Y-21501249D01*
X193571591Y-21488462D01*
X193617448Y-21455403D01*
X193668418Y-21430112D01*
X193721883Y-21412346D01*
X193775226Y-21401863D01*
X193825829Y-21398422D01*
X193860974Y-21399518D01*
G37*
G36*
X194862640Y-21928185D02*
G01*
X194879546Y-21880097D01*
X194896935Y-21830782D01*
X194914478Y-21781086D01*
X194931848Y-21731855D01*
X194948716Y-21683937D01*
X194969856Y-21623550D01*
X194988742Y-21569007D01*
X195004593Y-21522315D01*
X195018955Y-21478046D01*
X195024213Y-21428831D01*
X194981616Y-21398852D01*
X194977434Y-21398422D01*
X194931195Y-21416131D01*
X194913931Y-21452889D01*
X194896066Y-21510535D01*
X194878176Y-21568204D01*
X194860236Y-21625895D01*
X194842219Y-21683604D01*
X194824101Y-21741329D01*
X194805856Y-21799067D01*
X194787459Y-21856817D01*
X194768885Y-21914576D01*
X194750107Y-21972342D01*
X194731102Y-22030111D01*
X194718292Y-22068625D01*
X194512640Y-21452400D01*
X194489864Y-21408833D01*
X194451335Y-21398422D01*
X194407161Y-21421744D01*
X194405212Y-21472212D01*
X194409813Y-21486838D01*
X194662360Y-22190258D01*
X194640612Y-22245479D01*
X194620999Y-22291542D01*
X194599111Y-22337531D01*
X194572511Y-22383248D01*
X194537322Y-22421132D01*
X194534377Y-22423021D01*
X194487499Y-22439493D01*
X194437219Y-22441098D01*
X194416408Y-22439385D01*
X194367505Y-22452499D01*
X194356080Y-22475778D01*
X194372070Y-22523633D01*
X194401509Y-22537327D01*
X194452032Y-22542272D01*
X194492367Y-22539525D01*
X194541388Y-22528556D01*
X194586928Y-22506105D01*
X194628171Y-22470539D01*
X194648927Y-22444515D01*
X194677420Y-22397176D01*
X194702936Y-22345289D01*
X194724600Y-22296317D01*
X194746332Y-22243946D01*
X194767851Y-22189876D01*
X194784726Y-22146538D01*
X194802905Y-22097232D01*
X194821476Y-22045632D01*
X194837837Y-21999227D01*
X194854674Y-21950961D01*
X194862640Y-21928185D01*
G37*
G36*
X196170560Y-21214996D02*
G01*
X196170560Y-21786036D01*
X196171302Y-21840797D01*
X196173510Y-21889655D01*
X196177898Y-21939159D01*
X196186338Y-21990869D01*
X196191076Y-22009518D01*
X196211685Y-22061015D01*
X196240799Y-22104850D01*
X196278121Y-22140585D01*
X196323356Y-22167784D01*
X196376208Y-22186013D01*
X196436379Y-22194834D01*
X196462430Y-22195631D01*
X196517947Y-22190702D01*
X196571297Y-22176166D01*
X196620635Y-22152398D01*
X196664117Y-22119770D01*
X196699897Y-22078659D01*
X196726132Y-22029439D01*
X196733540Y-22007564D01*
X196744488Y-21957227D01*
X196751052Y-21904833D01*
X196754707Y-21849835D01*
X196755982Y-21795698D01*
X196756010Y-21786036D01*
X196756010Y-21214996D01*
X196744837Y-21166271D01*
X196699834Y-21148318D01*
X196654781Y-21170822D01*
X196646834Y-21214996D01*
X196646908Y-21267121D01*
X196647108Y-21322005D01*
X196647400Y-21378812D01*
X196647750Y-21436707D01*
X196648122Y-21494854D01*
X196648482Y-21552418D01*
X196648797Y-21608561D01*
X196649032Y-21662449D01*
X196648972Y-21711654D01*
X196648708Y-21761316D01*
X196647942Y-21814354D01*
X196646345Y-21861263D01*
X196642181Y-21914420D01*
X196633813Y-21964634D01*
X196617298Y-22011080D01*
X196615326Y-22014647D01*
X196584400Y-22053986D01*
X196539235Y-22083194D01*
X196488685Y-22095858D01*
X196463163Y-22097201D01*
X196409456Y-22090532D01*
X196364109Y-22070742D01*
X196324958Y-22033762D01*
X196312954Y-22014647D01*
X196295141Y-21967219D01*
X196286029Y-21917785D01*
X196281691Y-21873230D01*
X196279196Y-21822642D01*
X196277960Y-21769633D01*
X196277556Y-21720219D01*
X196277538Y-21706901D01*
X196277654Y-21650018D01*
X196277958Y-21589214D01*
X196278389Y-21525765D01*
X196278882Y-21460949D01*
X196279375Y-21396040D01*
X196279805Y-21332317D01*
X196280110Y-21271055D01*
X196280225Y-21213531D01*
X196269929Y-21165401D01*
X196226980Y-21148318D01*
X196180374Y-21168361D01*
X196170560Y-21214996D01*
G37*
G36*
X197629423Y-22113321D02*
G01*
X197629490Y-22057071D01*
X197629654Y-21999741D01*
X197629857Y-21942367D01*
X197630041Y-21885981D01*
X197630147Y-21831617D01*
X197630155Y-21814124D01*
X197630106Y-21762176D01*
X197629610Y-21712786D01*
X197629423Y-21705680D01*
X197625620Y-21650638D01*
X197618632Y-21601049D01*
X197604064Y-21543397D01*
X197583121Y-21495404D01*
X197547360Y-21448964D01*
X197500210Y-21417546D01*
X197440879Y-21401109D01*
X197399102Y-21398422D01*
X197342873Y-21403948D01*
X197291472Y-21420679D01*
X197246066Y-21448848D01*
X197207825Y-21488685D01*
X197182274Y-21530965D01*
X197170002Y-21560355D01*
X197170490Y-21478290D01*
X197164169Y-21429182D01*
X197123524Y-21398606D01*
X197117245Y-21398422D01*
X197072643Y-21422078D01*
X197063512Y-21473649D01*
X197063512Y-22114787D01*
X197076261Y-22163049D01*
X197119199Y-22180000D01*
X197163776Y-22158479D01*
X197172444Y-22114787D01*
X197172166Y-22059324D01*
X197171315Y-22004297D01*
X197170418Y-21948583D01*
X197170010Y-21898388D01*
X197170002Y-21891060D01*
X197169563Y-21839762D01*
X197169422Y-21790432D01*
X197170445Y-21737575D01*
X197172688Y-21698597D01*
X197180707Y-21646469D01*
X197196164Y-21599599D01*
X197225231Y-21552356D01*
X197266586Y-21517324D01*
X197321088Y-21497033D01*
X197365152Y-21492944D01*
X197416330Y-21499323D01*
X197461543Y-21523683D01*
X197492721Y-21567577D01*
X197509532Y-21621794D01*
X197517347Y-21679340D01*
X197518292Y-21692247D01*
X197520349Y-21741467D01*
X197521624Y-21795046D01*
X197521956Y-21840990D01*
X197521852Y-21897432D01*
X197521284Y-21947913D01*
X197520539Y-21999682D01*
X197519868Y-22052121D01*
X197519522Y-22104611D01*
X197519513Y-22113321D01*
X197531976Y-22162732D01*
X197573247Y-22180000D01*
X197619117Y-22160525D01*
X197629423Y-22113321D01*
G37*
G36*
X198490967Y-21084185D02*
G01*
X198504545Y-21132198D01*
X198504545Y-22123091D01*
X198497061Y-22158818D01*
X198451788Y-22180000D01*
X198416536Y-22170205D01*
X198399032Y-22123335D01*
X198399032Y-22034187D01*
X198391448Y-22053629D01*
X198363090Y-22104544D01*
X198326875Y-22144279D01*
X198283517Y-22172756D01*
X198233733Y-22189899D01*
X198178236Y-22195631D01*
X198117622Y-22189168D01*
X198064083Y-22169936D01*
X198018009Y-22138173D01*
X197979789Y-22094118D01*
X197949812Y-22038006D01*
X197932973Y-21988154D01*
X197921154Y-21931754D01*
X197914519Y-21868907D01*
X197913464Y-21812141D01*
X198023194Y-21812141D01*
X198024966Y-21863233D01*
X198032771Y-21924090D01*
X198046729Y-21976378D01*
X198072722Y-22029246D01*
X198108079Y-22067708D01*
X198152659Y-22091199D01*
X198206324Y-22099155D01*
X198241595Y-22096375D01*
X198293103Y-22079482D01*
X198335335Y-22047464D01*
X198368086Y-22000551D01*
X198387320Y-21952449D01*
X198400247Y-21895078D01*
X198405739Y-21846037D01*
X198407580Y-21791898D01*
X198407422Y-21773929D01*
X198405012Y-21723149D01*
X198397112Y-21662861D01*
X198383585Y-21611251D01*
X198358313Y-21559275D01*
X198323213Y-21521622D01*
X198277708Y-21498719D01*
X198221223Y-21490990D01*
X198199284Y-21492210D01*
X198149396Y-21505837D01*
X198107020Y-21534357D01*
X198072695Y-21577498D01*
X198051392Y-21622352D01*
X198035858Y-21676247D01*
X198026370Y-21739044D01*
X198023386Y-21791898D01*
X198023386Y-21794096D01*
X198023194Y-21812141D01*
X197913464Y-21812141D01*
X197913233Y-21799713D01*
X197914041Y-21776600D01*
X197920308Y-21710803D01*
X197932111Y-21650525D01*
X197949161Y-21596032D01*
X197971165Y-21547589D01*
X197997832Y-21505462D01*
X198040141Y-21459577D01*
X198089534Y-21426022D01*
X198145321Y-21405427D01*
X198206813Y-21398422D01*
X198256133Y-21402969D01*
X198308364Y-21420260D01*
X198352993Y-21451278D01*
X198383697Y-21489441D01*
X198406115Y-21538862D01*
X198399032Y-21132198D01*
X198408733Y-21089541D01*
X198454719Y-21070160D01*
X198490967Y-21084185D01*
G37*
G36*
X199167519Y-21398793D02*
G01*
X199219179Y-21404218D01*
X199278295Y-21420881D01*
X199326769Y-21447328D01*
X199365165Y-21482472D01*
X199394047Y-21525231D01*
X199413979Y-21574518D01*
X199425525Y-21629249D01*
X199429248Y-21688339D01*
X199428796Y-21712935D01*
X199419781Y-21764313D01*
X199379480Y-21794951D01*
X199326666Y-21802400D01*
X199308727Y-21803660D01*
X199258374Y-21806232D01*
X199201116Y-21808024D01*
X199151147Y-21808934D01*
X199098144Y-21809408D01*
X199042722Y-21809475D01*
X198985498Y-21809165D01*
X198927085Y-21808506D01*
X198931267Y-21871018D01*
X198942361Y-21926479D01*
X198960113Y-21974619D01*
X198991277Y-22024084D01*
X199031948Y-22061154D01*
X199081628Y-22085296D01*
X199139820Y-22095980D01*
X199155071Y-22096569D01*
X199206821Y-22094205D01*
X199255530Y-22084928D01*
X199306608Y-22065824D01*
X199351823Y-22037606D01*
X199372885Y-22025814D01*
X199420455Y-22041270D01*
X199430251Y-22066030D01*
X199409709Y-22110879D01*
X199397035Y-22121571D01*
X199354620Y-22149057D01*
X199306706Y-22169897D01*
X199254693Y-22184400D01*
X199199982Y-22192875D01*
X199143972Y-22195631D01*
X199124558Y-22195204D01*
X199069676Y-22188845D01*
X199019919Y-22175015D01*
X198975392Y-22153895D01*
X198924339Y-22114710D01*
X198892423Y-22077290D01*
X198866087Y-22033188D01*
X198845435Y-21982586D01*
X198830574Y-21925668D01*
X198821607Y-21862614D01*
X198818641Y-21793607D01*
X198819037Y-21770641D01*
X198822639Y-21726685D01*
X198929772Y-21726685D01*
X198952437Y-21727114D01*
X199004055Y-21727937D01*
X199058569Y-21728452D01*
X199107953Y-21728452D01*
X199163287Y-21727801D01*
X199212360Y-21726685D01*
X199227772Y-21726447D01*
X199280346Y-21724900D01*
X199330330Y-21721311D01*
X199332795Y-21683252D01*
X199329353Y-21634361D01*
X199317569Y-21586510D01*
X199290784Y-21540867D01*
X199250091Y-21507696D01*
X199204245Y-21490387D01*
X199148369Y-21484396D01*
X199104304Y-21488005D01*
X199054800Y-21502825D01*
X199012269Y-21529378D01*
X198977545Y-21567958D01*
X198951460Y-21618863D01*
X198937371Y-21668659D01*
X198929772Y-21726685D01*
X198822639Y-21726685D01*
X198824385Y-21705380D01*
X198835852Y-21645755D01*
X198853286Y-21591991D01*
X198876533Y-21544317D01*
X198905439Y-21502958D01*
X198939851Y-21468143D01*
X198994034Y-21432293D01*
X199040698Y-21413627D01*
X199092357Y-21402261D01*
X199148857Y-21398422D01*
X199167519Y-21398793D01*
G37*
G36*
X199717210Y-22180000D02*
G01*
X200212046Y-22180000D01*
X200257535Y-22161691D01*
X200266268Y-22131639D01*
X200238790Y-22090740D01*
X200212046Y-22086699D01*
X199988564Y-22086699D01*
X199987806Y-22037320D01*
X199987424Y-21985679D01*
X199987507Y-21936381D01*
X199987587Y-21927208D01*
X199987605Y-21876220D01*
X199987543Y-21826849D01*
X199988220Y-21777842D01*
X199990030Y-21738408D01*
X199997131Y-21681611D01*
X200009699Y-21631850D01*
X200031972Y-21579759D01*
X200060190Y-21539165D01*
X200099870Y-21506019D01*
X200151035Y-21489425D01*
X200158557Y-21489036D01*
X200208188Y-21496661D01*
X200222305Y-21504180D01*
X200222305Y-21658541D01*
X200247792Y-21701571D01*
X200269444Y-21705191D01*
X200312419Y-21679696D01*
X200317071Y-21654877D01*
X200317367Y-21604284D01*
X200317437Y-21552204D01*
X200317367Y-21499317D01*
X200317115Y-21449989D01*
X200317071Y-21445317D01*
X200276477Y-21416977D01*
X200227547Y-21402386D01*
X200182737Y-21398422D01*
X200126089Y-21406419D01*
X200077108Y-21431279D01*
X200036712Y-21473070D01*
X200010268Y-21520878D01*
X199994221Y-21567649D01*
X199983008Y-21622021D01*
X199980993Y-21636803D01*
X199974887Y-21636803D01*
X199979772Y-21493433D01*
X199978795Y-21450935D01*
X199945639Y-21414587D01*
X199935808Y-21414054D01*
X199723805Y-21414054D01*
X199677960Y-21435463D01*
X199672514Y-21459483D01*
X199698266Y-21501680D01*
X199723805Y-21506133D01*
X199881097Y-21506133D01*
X199882137Y-21561849D01*
X199882973Y-21618652D01*
X199883616Y-21676236D01*
X199884079Y-21734293D01*
X199884371Y-21792515D01*
X199884505Y-21850596D01*
X199884517Y-21873719D01*
X199884425Y-21923140D01*
X199884150Y-21976728D01*
X199883692Y-22032057D01*
X199883051Y-22086699D01*
X199717210Y-22086699D01*
X199671653Y-22105840D01*
X199664698Y-22132128D01*
X199688797Y-22174701D01*
X199717210Y-22180000D01*
G37*
G36*
X201833230Y-21152710D02*
G01*
X201886783Y-21165215D01*
X201933376Y-21186064D01*
X201973214Y-21215487D01*
X202006502Y-21253715D01*
X202033442Y-21300979D01*
X202054239Y-21357510D01*
X202069097Y-21423537D01*
X202075804Y-21472946D01*
X202080023Y-21526746D01*
X202081814Y-21585006D01*
X202081237Y-21647794D01*
X202079987Y-21681103D01*
X202075232Y-21744647D01*
X202067517Y-21804079D01*
X202056897Y-21859382D01*
X202043430Y-21910541D01*
X202027171Y-21957538D01*
X201997675Y-22020196D01*
X201962216Y-22073398D01*
X201920986Y-22117089D01*
X201874176Y-22151213D01*
X201821976Y-22175715D01*
X201764578Y-22190540D01*
X201702172Y-22195631D01*
X201650266Y-22193011D01*
X201601884Y-22185612D01*
X201553266Y-22172189D01*
X201506534Y-22149469D01*
X201484182Y-22125666D01*
X201485529Y-22075952D01*
X201506719Y-22056169D01*
X201557336Y-22060809D01*
X201599535Y-22077386D01*
X201651005Y-22089633D01*
X201702172Y-22093049D01*
X201761591Y-22085917D01*
X201813814Y-22065854D01*
X201858836Y-22032384D01*
X201896650Y-21985033D01*
X201920278Y-21940123D01*
X201939847Y-21886938D01*
X201955353Y-21825275D01*
X201966795Y-21754936D01*
X201972164Y-21703123D01*
X201975724Y-21647306D01*
X201955917Y-21693235D01*
X201925296Y-21740989D01*
X201889280Y-21778476D01*
X201840622Y-21810607D01*
X201787985Y-21829531D01*
X201733435Y-21836106D01*
X201685288Y-21833202D01*
X201627520Y-21818512D01*
X201577469Y-21792086D01*
X201535543Y-21754613D01*
X201502147Y-21706778D01*
X201477689Y-21649269D01*
X201465455Y-21600201D01*
X201458649Y-21546368D01*
X201457451Y-21488548D01*
X201568083Y-21488548D01*
X201568161Y-21517547D01*
X201572918Y-21570815D01*
X201587531Y-21628115D01*
X201611833Y-21674508D01*
X201653869Y-21714894D01*
X201699701Y-21735069D01*
X201755417Y-21742316D01*
X201797996Y-21738587D01*
X201845981Y-21721900D01*
X201887152Y-21692761D01*
X201920447Y-21652141D01*
X201944804Y-21601014D01*
X201957142Y-21553201D01*
X201962535Y-21499783D01*
X201962034Y-21455923D01*
X201955465Y-21402881D01*
X201938179Y-21345880D01*
X201911335Y-21299939D01*
X201875500Y-21265835D01*
X201831236Y-21244345D01*
X201779109Y-21236245D01*
X201733366Y-21239443D01*
X201683112Y-21254958D01*
X201641130Y-21283181D01*
X201608041Y-21324019D01*
X201584466Y-21377376D01*
X201572873Y-21429010D01*
X201568083Y-21488548D01*
X201457451Y-21488548D01*
X201457441Y-21488060D01*
X201458296Y-21469462D01*
X201464748Y-21415929D01*
X201476877Y-21366098D01*
X201494487Y-21320368D01*
X201526155Y-21266464D01*
X201566756Y-21221510D01*
X201615827Y-21186451D01*
X201672903Y-21162236D01*
X201720685Y-21151761D01*
X201772514Y-21148318D01*
X201833230Y-21152710D01*
G37*
G36*
X202673526Y-21522742D02*
G01*
X202664230Y-21474174D01*
X202640381Y-21430692D01*
X202597895Y-21403800D01*
X202558732Y-21398422D01*
X202507024Y-21408896D01*
X202466009Y-21439575D01*
X202439664Y-21487525D01*
X202430260Y-21528848D01*
X202429344Y-21479339D01*
X202427573Y-21449958D01*
X202408069Y-21404891D01*
X202381900Y-21398422D01*
X202339267Y-21426533D01*
X202333772Y-21480049D01*
X202333784Y-21491967D01*
X202336959Y-22130907D01*
X202353347Y-22177344D01*
X202389716Y-22188304D01*
X202435491Y-22168104D01*
X202443938Y-22130907D01*
X202442472Y-21738408D01*
X202442521Y-21689184D01*
X202443739Y-21633248D01*
X202447930Y-21579743D01*
X202458348Y-21534954D01*
X202486970Y-21494691D01*
X202526980Y-21481709D01*
X202573822Y-21500369D01*
X202580714Y-21509553D01*
X202594635Y-21549853D01*
X202598938Y-21600126D01*
X202599276Y-21625324D01*
X202598055Y-21676890D01*
X202596101Y-21724242D01*
X202594323Y-21773664D01*
X202595612Y-21807529D01*
X202614807Y-21853327D01*
X202645438Y-21860774D01*
X202687876Y-21835276D01*
X202694042Y-21803621D01*
X202694200Y-21754317D01*
X202692577Y-21722044D01*
X202690212Y-21670713D01*
X202688913Y-21625812D01*
X202690799Y-21575851D01*
X202697462Y-21540816D01*
X202723959Y-21497291D01*
X202769758Y-21481709D01*
X202815189Y-21500068D01*
X202832772Y-21533000D01*
X202841101Y-21585413D01*
X202844402Y-21638521D01*
X202845761Y-21687628D01*
X202846206Y-21744515D01*
X202846206Y-22130907D01*
X202863231Y-22177344D01*
X202901404Y-22188304D01*
X202946187Y-22168104D01*
X202955871Y-22130907D01*
X202955871Y-21738897D01*
X202955752Y-21686142D01*
X202954885Y-21628468D01*
X202952551Y-21579125D01*
X202946807Y-21529621D01*
X202932122Y-21477486D01*
X202920944Y-21456308D01*
X202885546Y-21418829D01*
X202836310Y-21400457D01*
X202808836Y-21398422D01*
X202758497Y-21407437D01*
X202715320Y-21435763D01*
X202686773Y-21478709D01*
X202673526Y-21522742D01*
G37*
G36*
X203556708Y-21522742D02*
G01*
X203547412Y-21474174D01*
X203523563Y-21430692D01*
X203481077Y-21403800D01*
X203441914Y-21398422D01*
X203390206Y-21408896D01*
X203349191Y-21439575D01*
X203322847Y-21487525D01*
X203313442Y-21528848D01*
X203312526Y-21479339D01*
X203310755Y-21449958D01*
X203291251Y-21404891D01*
X203265082Y-21398422D01*
X203222449Y-21426533D01*
X203216954Y-21480049D01*
X203216966Y-21491967D01*
X203220141Y-22130907D01*
X203236530Y-22177344D01*
X203272898Y-22188304D01*
X203318674Y-22168104D01*
X203327120Y-22130907D01*
X203325654Y-21738408D01*
X203325703Y-21689184D01*
X203326921Y-21633248D01*
X203331112Y-21579743D01*
X203341530Y-21534954D01*
X203370152Y-21494691D01*
X203410162Y-21481709D01*
X203457004Y-21500369D01*
X203463896Y-21509553D01*
X203477818Y-21549853D01*
X203482120Y-21600126D01*
X203482458Y-21625324D01*
X203481237Y-21676890D01*
X203479283Y-21724242D01*
X203477506Y-21773664D01*
X203478795Y-21807529D01*
X203497989Y-21853327D01*
X203528620Y-21860774D01*
X203571058Y-21835276D01*
X203577224Y-21803621D01*
X203577382Y-21754317D01*
X203575759Y-21722044D01*
X203573394Y-21670713D01*
X203572095Y-21625812D01*
X203573981Y-21575851D01*
X203580644Y-21540816D01*
X203607141Y-21497291D01*
X203652940Y-21481709D01*
X203698371Y-21500068D01*
X203715954Y-21533000D01*
X203724283Y-21585413D01*
X203727585Y-21638521D01*
X203728943Y-21687628D01*
X203729388Y-21744515D01*
X203729388Y-22130907D01*
X203746413Y-22177344D01*
X203784587Y-22188304D01*
X203829370Y-22168104D01*
X203839053Y-22130907D01*
X203839053Y-21738897D01*
X203838934Y-21686142D01*
X203838067Y-21628468D01*
X203835734Y-21579125D01*
X203829989Y-21529621D01*
X203815304Y-21477486D01*
X203804126Y-21456308D01*
X203768728Y-21418829D01*
X203719492Y-21400457D01*
X203692019Y-21398422D01*
X203641679Y-21407437D01*
X203598502Y-21435763D01*
X203569956Y-21478709D01*
X203556708Y-21522742D01*
G37*
G36*
X205531167Y-21163949D02*
G01*
X205085912Y-21163949D01*
X205039029Y-21183873D01*
X205029492Y-21215484D01*
X205054428Y-21259975D01*
X205085912Y-21266531D01*
X205473770Y-21259692D01*
X205021921Y-22038094D01*
X205001568Y-22084439D01*
X204998229Y-22106727D01*
X205015016Y-22153468D01*
X205060585Y-22176733D01*
X205095194Y-22180000D01*
X205577573Y-22180000D01*
X205623499Y-22161390D01*
X205634970Y-22126999D01*
X205611698Y-22083491D01*
X205577573Y-22075952D01*
X205116199Y-22082547D01*
X205583924Y-21274347D01*
X205600136Y-21226646D01*
X205600288Y-21219637D01*
X205576737Y-21175065D01*
X205531167Y-21163949D01*
G37*
G36*
X207296310Y-21148318D02*
G01*
X207250363Y-21168356D01*
X207240134Y-21207424D01*
X207240134Y-21603098D01*
X206883540Y-21603098D01*
X206883540Y-21207424D01*
X206867231Y-21160039D01*
X206829074Y-21148318D01*
X206782814Y-21168356D01*
X206772409Y-21207424D01*
X206772409Y-22121870D01*
X206789362Y-22168390D01*
X206828585Y-22180000D01*
X206873680Y-22160834D01*
X206883540Y-22121870D01*
X206883540Y-21695422D01*
X207240134Y-21695422D01*
X207240134Y-22121870D01*
X207257087Y-22168390D01*
X207296310Y-22180000D01*
X207342495Y-22158659D01*
X207350776Y-22121870D01*
X207350776Y-21207424D01*
X207334661Y-21160039D01*
X207296310Y-21148318D01*
G37*
G36*
X208037431Y-21402392D02*
G01*
X208087579Y-21413903D01*
X208144444Y-21439941D01*
X208190225Y-21476895D01*
X208225297Y-21523341D01*
X208250035Y-21577857D01*
X208264814Y-21639020D01*
X208269588Y-21688400D01*
X208269130Y-21740118D01*
X208265767Y-21770271D01*
X208237764Y-21810567D01*
X208189751Y-21820474D01*
X208170300Y-21822134D01*
X208116030Y-21825450D01*
X208066441Y-21827249D01*
X208015756Y-21828277D01*
X207964803Y-21828778D01*
X207909310Y-21828607D01*
X207853520Y-21828137D01*
X207798599Y-21827439D01*
X207745717Y-21826580D01*
X207747097Y-21854569D01*
X207755399Y-21907757D01*
X207771107Y-21956409D01*
X207794247Y-21999544D01*
X207833654Y-22044217D01*
X207884752Y-22076830D01*
X207934078Y-22092953D01*
X207990937Y-22099155D01*
X207998174Y-22099194D01*
X208047536Y-22096388D01*
X208100632Y-22085997D01*
X208149378Y-22067041D01*
X208192926Y-22038583D01*
X208212290Y-22026798D01*
X208260581Y-22036140D01*
X208270052Y-22061005D01*
X208248857Y-22106238D01*
X208241830Y-22112898D01*
X208196411Y-22146353D01*
X208146973Y-22169783D01*
X208095681Y-22184755D01*
X208044698Y-22192833D01*
X207988494Y-22195631D01*
X207947281Y-22193957D01*
X207889841Y-22185253D01*
X207837804Y-22169280D01*
X207791338Y-22146219D01*
X207750610Y-22116253D01*
X207715785Y-22079565D01*
X207687031Y-22036337D01*
X207664514Y-21986750D01*
X207648401Y-21930988D01*
X207638858Y-21869233D01*
X207636052Y-21801667D01*
X207637996Y-21756285D01*
X207640120Y-21740118D01*
X207748160Y-21740118D01*
X207801099Y-21741149D01*
X207855138Y-21741950D01*
X207909726Y-21742385D01*
X207964314Y-21742316D01*
X208010860Y-21742178D01*
X208062997Y-21741506D01*
X208113301Y-21740002D01*
X208166792Y-21736943D01*
X208168148Y-21701299D01*
X208162636Y-21644001D01*
X208146668Y-21591694D01*
X208119389Y-21547095D01*
X208079943Y-21512921D01*
X208027475Y-21491888D01*
X207975550Y-21486350D01*
X207923023Y-21491313D01*
X207867589Y-21510575D01*
X207823150Y-21542785D01*
X207789315Y-21586272D01*
X207765692Y-21639364D01*
X207753883Y-21687630D01*
X207748160Y-21740118D01*
X207640120Y-21740118D01*
X207646378Y-21692480D01*
X207661117Y-21634075D01*
X207681988Y-21581378D01*
X207708763Y-21534701D01*
X207741214Y-21494353D01*
X207779115Y-21460646D01*
X207822239Y-21433888D01*
X207870359Y-21414392D01*
X207923248Y-21402467D01*
X207980679Y-21398422D01*
X208037431Y-21402392D01*
G37*
G36*
X208851160Y-21255052D02*
G01*
X208900703Y-21241652D01*
X208936736Y-21202764D01*
X208945926Y-21162972D01*
X208932418Y-21115749D01*
X208892641Y-21080345D01*
X208851160Y-21071137D01*
X208801134Y-21084640D01*
X208766800Y-21119594D01*
X208755417Y-21162972D01*
X208769079Y-21210587D01*
X208805144Y-21243879D01*
X208851160Y-21255052D01*
G37*
G36*
X208871677Y-21414054D02*
G01*
X208629388Y-21414054D01*
X208583471Y-21433386D01*
X208576631Y-21458506D01*
X208603140Y-21501658D01*
X208629388Y-21506133D01*
X208826003Y-21506133D01*
X208826495Y-21569307D01*
X208826787Y-21620336D01*
X208827012Y-21673845D01*
X208827168Y-21729252D01*
X208827255Y-21785975D01*
X208827271Y-21843432D01*
X208827215Y-21901041D01*
X208827085Y-21958221D01*
X208826881Y-22014389D01*
X208826602Y-22068962D01*
X208826492Y-22086699D01*
X208616443Y-22086699D01*
X208574244Y-22111746D01*
X208569792Y-22135792D01*
X208596635Y-22177154D01*
X208616443Y-22180000D01*
X209126910Y-22180000D01*
X209173092Y-22161721D01*
X209180644Y-22135792D01*
X209155050Y-22092082D01*
X209126910Y-22086699D01*
X208932493Y-22086699D01*
X208932131Y-22028311D01*
X208931862Y-21968539D01*
X208931677Y-21907985D01*
X208931566Y-21847247D01*
X208931519Y-21786926D01*
X208931527Y-21727622D01*
X208931580Y-21669936D01*
X208931669Y-21614467D01*
X208931783Y-21561815D01*
X208931913Y-21512581D01*
X208932005Y-21481953D01*
X208921194Y-21433340D01*
X208875589Y-21414105D01*
X208871677Y-21414054D01*
G37*
G36*
X209527566Y-22075194D02*
G01*
X209580210Y-22084973D01*
X209634523Y-22086447D01*
X209689744Y-22085401D01*
X209738788Y-22083792D01*
X209794915Y-22081814D01*
X209834492Y-22081241D01*
X209888005Y-22083876D01*
X209948833Y-22093816D01*
X209998200Y-22110974D01*
X210044730Y-22142358D01*
X210075515Y-22184527D01*
X210091758Y-22237206D01*
X210095089Y-22286734D01*
X210086633Y-22348396D01*
X210064211Y-22402314D01*
X210029225Y-22448343D01*
X209983073Y-22486341D01*
X209927155Y-22516164D01*
X209879650Y-22533081D01*
X209828029Y-22545259D01*
X209772883Y-22552638D01*
X209714803Y-22555157D01*
X209695918Y-22554947D01*
X209642144Y-22551287D01*
X209577474Y-22539452D01*
X209521315Y-22519861D01*
X209474193Y-22492722D01*
X209436631Y-22458244D01*
X209409152Y-22416636D01*
X209392281Y-22368108D01*
X209386541Y-22312868D01*
X209386636Y-22310914D01*
X209480330Y-22310914D01*
X209491903Y-22362034D01*
X209519438Y-22403851D01*
X209562461Y-22435565D01*
X209609803Y-22453695D01*
X209667298Y-22463788D01*
X209720421Y-22465764D01*
X209734868Y-22465389D01*
X209789307Y-22460953D01*
X209837991Y-22451781D01*
X209889966Y-22433579D01*
X209937976Y-22401721D01*
X209968668Y-22358774D01*
X209980295Y-22304563D01*
X209978940Y-22275037D01*
X209958461Y-22223449D01*
X209915415Y-22192566D01*
X209862127Y-22179271D01*
X209807158Y-22175388D01*
X209756813Y-22175847D01*
X209721627Y-22176974D01*
X209670522Y-22178275D01*
X209619798Y-22178637D01*
X209565921Y-22176516D01*
X209512081Y-22168520D01*
X209494026Y-22209546D01*
X209482090Y-22258217D01*
X209480330Y-22310914D01*
X209386636Y-22310914D01*
X209388212Y-22278592D01*
X209396880Y-22227833D01*
X209412736Y-22177282D01*
X209435546Y-22126294D01*
X209459701Y-22083003D01*
X209488390Y-22038583D01*
X209527566Y-22075194D01*
G37*
G36*
X210062257Y-21417779D02*
G01*
X210090937Y-21458995D01*
X210083870Y-21487185D01*
X210038180Y-21508087D01*
X209896764Y-21505645D01*
X209919402Y-21525981D01*
X209949035Y-21568803D01*
X209965598Y-21617371D01*
X209970525Y-21669043D01*
X209965112Y-21723939D01*
X209949524Y-21773995D01*
X209924737Y-21818447D01*
X209891726Y-21856530D01*
X209851469Y-21887481D01*
X209804940Y-21910535D01*
X209753116Y-21924927D01*
X209696973Y-21929895D01*
X209652529Y-21927415D01*
X209598282Y-21916580D01*
X209550322Y-21897474D01*
X209509260Y-21870461D01*
X209468561Y-21826127D01*
X209445247Y-21782651D01*
X209430811Y-21732448D01*
X209425864Y-21675882D01*
X209426554Y-21668555D01*
X209528934Y-21668555D01*
X209529088Y-21677256D01*
X209536575Y-21726950D01*
X209560052Y-21777040D01*
X209600191Y-21814867D01*
X209648487Y-21834529D01*
X209698927Y-21840013D01*
X209755633Y-21832186D01*
X209801104Y-21810364D01*
X209839607Y-21770543D01*
X209862048Y-21719024D01*
X209868187Y-21668555D01*
X209868035Y-21659567D01*
X209860609Y-21608559D01*
X209837289Y-21557659D01*
X209797354Y-21519552D01*
X209749237Y-21499874D01*
X209698927Y-21494410D01*
X209688576Y-21494636D01*
X209633179Y-21504943D01*
X209589388Y-21528919D01*
X209553161Y-21571058D01*
X209535015Y-21616659D01*
X209528934Y-21668555D01*
X209426554Y-21668555D01*
X209431173Y-21619542D01*
X209446536Y-21568717D01*
X209471111Y-21524023D01*
X209504052Y-21486075D01*
X209544515Y-21455489D01*
X209591655Y-21432880D01*
X209644628Y-21418863D01*
X209702591Y-21414054D01*
X209712928Y-21414144D01*
X209762919Y-21414054D01*
X210038180Y-21414054D01*
X210062257Y-21417779D01*
G37*
G36*
X210884970Y-22110635D02*
G01*
X210884970Y-21705680D01*
X210882780Y-21649228D01*
X210876259Y-21598781D01*
X210860953Y-21540691D01*
X210838253Y-21492868D01*
X210799745Y-21447169D01*
X210750297Y-21416687D01*
X210703091Y-21402949D01*
X210649276Y-21398422D01*
X210592519Y-21403901D01*
X210540612Y-21420512D01*
X210494694Y-21448514D01*
X210455904Y-21488170D01*
X210429848Y-21530307D01*
X210417245Y-21559623D01*
X210421886Y-21139036D01*
X210412344Y-21090939D01*
X210368641Y-21070160D01*
X210323546Y-21093392D01*
X210313686Y-21139036D01*
X210313686Y-22111123D01*
X210323800Y-22159286D01*
X210368153Y-22180000D01*
X210412876Y-22159286D01*
X210422863Y-22111123D01*
X210422504Y-22050634D01*
X210422108Y-22001133D01*
X210421720Y-21951623D01*
X210421387Y-21891096D01*
X210421396Y-21833724D01*
X210421931Y-21781268D01*
X210422863Y-21744026D01*
X210427747Y-21689889D01*
X210438170Y-21641532D01*
X210458948Y-21589887D01*
X210488288Y-21548831D01*
X210534730Y-21514762D01*
X210582733Y-21500053D01*
X210615571Y-21497585D01*
X210672458Y-21504943D01*
X210720909Y-21532072D01*
X210752564Y-21579087D01*
X210768315Y-21635142D01*
X210774679Y-21692920D01*
X210775305Y-21705680D01*
X210776590Y-21754670D01*
X210777140Y-21812698D01*
X210777183Y-21863910D01*
X210776981Y-21917963D01*
X210776635Y-21973549D01*
X210776244Y-22029359D01*
X210775909Y-22084086D01*
X210775794Y-22110635D01*
X210785748Y-22159184D01*
X210830016Y-22180000D01*
X210874967Y-22159184D01*
X210884970Y-22110635D01*
G37*
G36*
X211443798Y-21414054D02*
G01*
X211445263Y-21263356D01*
X211436041Y-21215368D01*
X211394217Y-21193503D01*
X211350777Y-21218304D01*
X211340972Y-21263356D01*
X211337797Y-21414054D01*
X211175375Y-21414054D01*
X211130092Y-21435049D01*
X211124573Y-21458018D01*
X211147954Y-21501064D01*
X211175375Y-21506133D01*
X211337797Y-21506133D01*
X211336948Y-21564443D01*
X211336403Y-21617936D01*
X211336024Y-21675021D01*
X211335852Y-21733397D01*
X211335932Y-21790763D01*
X211336306Y-21844817D01*
X211337252Y-21904222D01*
X211337797Y-21924521D01*
X211341109Y-21976905D01*
X211348183Y-22027762D01*
X211362423Y-22078154D01*
X211363931Y-22081814D01*
X211388143Y-22124689D01*
X211425831Y-22160551D01*
X211472502Y-22182974D01*
X211526912Y-22193863D01*
X211569827Y-22195631D01*
X211628280Y-22190411D01*
X211678874Y-22174992D01*
X211726326Y-22144584D01*
X211758968Y-22106363D01*
X211784357Y-22053230D01*
X211797237Y-22002172D01*
X211803744Y-21940398D01*
X211804056Y-21892770D01*
X211784918Y-21847049D01*
X211751300Y-21837815D01*
X211712385Y-21870479D01*
X211709778Y-21893747D01*
X211708361Y-21944357D01*
X211700558Y-21996576D01*
X211682384Y-22044021D01*
X211649096Y-22080017D01*
X211602865Y-22097110D01*
X211579109Y-22099155D01*
X211530168Y-22093912D01*
X211486809Y-22069722D01*
X211464314Y-22034919D01*
X211450524Y-21984888D01*
X211444636Y-21932387D01*
X211443310Y-21906692D01*
X211441426Y-21856321D01*
X211440287Y-21804331D01*
X211439789Y-21751574D01*
X211439829Y-21698902D01*
X211440304Y-21647169D01*
X211441111Y-21597228D01*
X211442430Y-21538621D01*
X211443310Y-21506133D01*
X211700497Y-21506133D01*
X211744308Y-21483438D01*
X211750079Y-21455819D01*
X211719772Y-21416546D01*
X211700497Y-21414054D01*
X211443798Y-21414054D01*
G37*
D12*
X168235512Y-115474788D02*
X168589065Y-115121235D01*
X169296172Y-115525296D02*
X168791096Y-116030372D01*
X168791096Y-116030372D02*
X167730436Y-114969712D01*
X167730436Y-114969712D02*
X168235512Y-114464635D01*
X169498203Y-113909051D02*
X170205309Y-114616158D01*
X169043634Y-114363620D02*
X169599218Y-114919204D01*
X169599218Y-114919204D02*
X169750741Y-114969712D01*
X169750741Y-114969712D02*
X169902264Y-114919204D01*
X169902264Y-114919204D02*
X170053787Y-114767681D01*
X170053787Y-114767681D02*
X170104294Y-114616158D01*
X170104294Y-114616158D02*
X170104294Y-114515143D01*
X170710386Y-114111082D02*
X170003279Y-113403975D01*
X170205310Y-113606006D02*
X170154802Y-113454483D01*
X170154802Y-113454483D02*
X170154802Y-113353467D01*
X170154802Y-113353467D02*
X170205310Y-113201945D01*
X170205310Y-113201945D02*
X170306325Y-113100929D01*
X171518508Y-113302960D02*
X171366985Y-113353468D01*
X171366985Y-113353468D02*
X171265969Y-113353468D01*
X171265969Y-113353468D02*
X171114446Y-113302960D01*
X171114446Y-113302960D02*
X170811401Y-112999914D01*
X170811401Y-112999914D02*
X170760893Y-112848391D01*
X170760893Y-112848391D02*
X170760893Y-112747376D01*
X170760893Y-112747376D02*
X170811401Y-112595853D01*
X170811401Y-112595853D02*
X170962924Y-112444330D01*
X170962924Y-112444330D02*
X171114446Y-112393823D01*
X171114446Y-112393823D02*
X171215462Y-112393823D01*
X171215462Y-112393823D02*
X171366985Y-112444330D01*
X171366985Y-112444330D02*
X171670030Y-112747376D01*
X171670030Y-112747376D02*
X171720538Y-112898899D01*
X171720538Y-112898899D02*
X171720538Y-112999914D01*
X171720538Y-112999914D02*
X171670030Y-113151437D01*
X171670030Y-113151437D02*
X171518508Y-113302960D01*
X173639828Y-110979609D02*
X173639828Y-111080625D01*
X173639828Y-111080625D02*
X173538813Y-111282655D01*
X173538813Y-111282655D02*
X173437797Y-111383670D01*
X173437797Y-111383670D02*
X173235767Y-111484686D01*
X173235767Y-111484686D02*
X173033736Y-111484686D01*
X173033736Y-111484686D02*
X172882213Y-111434178D01*
X172882213Y-111434178D02*
X172629675Y-111282655D01*
X172629675Y-111282655D02*
X172478152Y-111131132D01*
X172478152Y-111131132D02*
X172326630Y-110878594D01*
X172326630Y-110878594D02*
X172276122Y-110727071D01*
X172276122Y-110727071D02*
X172276122Y-110525041D01*
X172276122Y-110525041D02*
X172377137Y-110323010D01*
X172377137Y-110323010D02*
X172478152Y-110221995D01*
X172478152Y-110221995D02*
X172680183Y-110120980D01*
X172680183Y-110120980D02*
X172781198Y-110120980D01*
X172983229Y-109716919D02*
X174397442Y-110424025D01*
X174397442Y-110424025D02*
X173690335Y-109009812D01*
X172670526Y-115566147D02*
X172114943Y-115010563D01*
X172114943Y-115010563D02*
X171963420Y-114960056D01*
X171963420Y-114960056D02*
X171811897Y-115010563D01*
X171811897Y-115010563D02*
X171609866Y-115212594D01*
X171609866Y-115212594D02*
X171559359Y-115364117D01*
X172620019Y-115515640D02*
X172569511Y-115667162D01*
X172569511Y-115667162D02*
X172316973Y-115919701D01*
X172316973Y-115919701D02*
X172165450Y-115970208D01*
X172165450Y-115970208D02*
X172013927Y-115919701D01*
X172013927Y-115919701D02*
X171912912Y-115818685D01*
X171912912Y-115818685D02*
X171862404Y-115667162D01*
X171862404Y-115667162D02*
X171912912Y-115515640D01*
X171912912Y-115515640D02*
X172165450Y-115263101D01*
X172165450Y-115263101D02*
X172215958Y-115111579D01*
X172468496Y-114353964D02*
X173175603Y-115061071D01*
X172569511Y-114454979D02*
X172569511Y-114353964D01*
X172569511Y-114353964D02*
X172620019Y-114202441D01*
X172620019Y-114202441D02*
X172771542Y-114050918D01*
X172771542Y-114050918D02*
X172923065Y-114000411D01*
X172923065Y-114000411D02*
X173074588Y-114050918D01*
X173074588Y-114050918D02*
X173630171Y-114606502D01*
X174589816Y-113646857D02*
X173529156Y-112586197D01*
X174539309Y-113596350D02*
X174488801Y-113747872D01*
X174488801Y-113747872D02*
X174286771Y-113949903D01*
X174286771Y-113949903D02*
X174135248Y-114000411D01*
X174135248Y-114000411D02*
X174034233Y-114000411D01*
X174034233Y-114000411D02*
X173882710Y-113949903D01*
X173882710Y-113949903D02*
X173579664Y-113646857D01*
X173579664Y-113646857D02*
X173529156Y-113495334D01*
X173529156Y-113495334D02*
X173529156Y-113394319D01*
X173529156Y-113394319D02*
X173579664Y-113242796D01*
X173579664Y-113242796D02*
X173781694Y-113040766D01*
X173781694Y-113040766D02*
X173933217Y-112990258D01*
X171726479Y-119319309D02*
X172231555Y-118814233D01*
X171928509Y-119723370D02*
X171221403Y-118309157D01*
X171221403Y-118309157D02*
X172635616Y-119016263D01*
X172736631Y-117501035D02*
X173443738Y-118208142D01*
X172282063Y-117955603D02*
X172837646Y-118511187D01*
X172837646Y-118511187D02*
X172989169Y-118561695D01*
X172989169Y-118561695D02*
X173140692Y-118511187D01*
X173140692Y-118511187D02*
X173292215Y-118359664D01*
X173292215Y-118359664D02*
X173342723Y-118208142D01*
X173342723Y-118208142D02*
X173342723Y-118107126D01*
X174403383Y-117248497D02*
X173342723Y-116187836D01*
X174352875Y-117197989D02*
X174302368Y-117349512D01*
X174302368Y-117349512D02*
X174100337Y-117551542D01*
X174100337Y-117551542D02*
X173948814Y-117602050D01*
X173948814Y-117602050D02*
X173847799Y-117602050D01*
X173847799Y-117602050D02*
X173696276Y-117551542D01*
X173696276Y-117551542D02*
X173393230Y-117248497D01*
X173393230Y-117248497D02*
X173342723Y-117096974D01*
X173342723Y-117096974D02*
X173342723Y-116995958D01*
X173342723Y-116995958D02*
X173393230Y-116844436D01*
X173393230Y-116844436D02*
X173595261Y-116642405D01*
X173595261Y-116642405D02*
X173746784Y-116591897D01*
X174908459Y-116743420D02*
X174201353Y-116036313D01*
X173847799Y-115682760D02*
X173847799Y-115783775D01*
X173847799Y-115783775D02*
X173948814Y-115783775D01*
X173948814Y-115783775D02*
X173948814Y-115682760D01*
X173948814Y-115682760D02*
X173847799Y-115682760D01*
X173847799Y-115682760D02*
X173948814Y-115783775D01*
X175565059Y-116086821D02*
X175413536Y-116137328D01*
X175413536Y-116137328D02*
X175312521Y-116137328D01*
X175312521Y-116137328D02*
X175160998Y-116086821D01*
X175160998Y-116086821D02*
X174857952Y-115783775D01*
X174857952Y-115783775D02*
X174807444Y-115632252D01*
X174807444Y-115632252D02*
X174807444Y-115531237D01*
X174807444Y-115531237D02*
X174857952Y-115379714D01*
X174857952Y-115379714D02*
X175009475Y-115228191D01*
X175009475Y-115228191D02*
X175160998Y-115177684D01*
X175160998Y-115177684D02*
X175262013Y-115177684D01*
X175262013Y-115177684D02*
X175413536Y-115228191D01*
X175413536Y-115228191D02*
X175716582Y-115531237D01*
X175716582Y-115531237D02*
X175767089Y-115682760D01*
X175767089Y-115682760D02*
X175767089Y-115783775D01*
X175767089Y-115783775D02*
X175716582Y-115935298D01*
X175716582Y-115935298D02*
X175565059Y-116086821D01*
X177181303Y-114470577D02*
X176120643Y-113409917D01*
X176979273Y-113258394D02*
X177686379Y-113965500D01*
X177080288Y-113359409D02*
X177080288Y-113258394D01*
X177080288Y-113258394D02*
X177130795Y-113106871D01*
X177130795Y-113106871D02*
X177282318Y-112955348D01*
X177282318Y-112955348D02*
X177433841Y-112904840D01*
X177433841Y-112904840D02*
X177585364Y-112955348D01*
X177585364Y-112955348D02*
X178140948Y-113510932D01*
D11*
X139405354Y-74392419D02*
X139405354Y-73392419D01*
X139976782Y-74392419D02*
X139548211Y-73820990D01*
X139976782Y-73392419D02*
X139405354Y-73963847D01*
X140786306Y-74344800D02*
X140691068Y-74392419D01*
X140691068Y-74392419D02*
X140500592Y-74392419D01*
X140500592Y-74392419D02*
X140405354Y-74344800D01*
X140405354Y-74344800D02*
X140357735Y-74249561D01*
X140357735Y-74249561D02*
X140357735Y-73868609D01*
X140357735Y-73868609D02*
X140405354Y-73773371D01*
X140405354Y-73773371D02*
X140500592Y-73725752D01*
X140500592Y-73725752D02*
X140691068Y-73725752D01*
X140691068Y-73725752D02*
X140786306Y-73773371D01*
X140786306Y-73773371D02*
X140833925Y-73868609D01*
X140833925Y-73868609D02*
X140833925Y-73963847D01*
X140833925Y-73963847D02*
X140357735Y-74059085D01*
X141643449Y-74344800D02*
X141548211Y-74392419D01*
X141548211Y-74392419D02*
X141357735Y-74392419D01*
X141357735Y-74392419D02*
X141262497Y-74344800D01*
X141262497Y-74344800D02*
X141214878Y-74249561D01*
X141214878Y-74249561D02*
X141214878Y-73868609D01*
X141214878Y-73868609D02*
X141262497Y-73773371D01*
X141262497Y-73773371D02*
X141357735Y-73725752D01*
X141357735Y-73725752D02*
X141548211Y-73725752D01*
X141548211Y-73725752D02*
X141643449Y-73773371D01*
X141643449Y-73773371D02*
X141691068Y-73868609D01*
X141691068Y-73868609D02*
X141691068Y-73963847D01*
X141691068Y-73963847D02*
X141214878Y-74059085D01*
X142119640Y-73725752D02*
X142119640Y-74725752D01*
X142119640Y-73773371D02*
X142214878Y-73725752D01*
X142214878Y-73725752D02*
X142405354Y-73725752D01*
X142405354Y-73725752D02*
X142500592Y-73773371D01*
X142500592Y-73773371D02*
X142548211Y-73820990D01*
X142548211Y-73820990D02*
X142595830Y-73916228D01*
X142595830Y-73916228D02*
X142595830Y-74201942D01*
X142595830Y-74201942D02*
X142548211Y-74297180D01*
X142548211Y-74297180D02*
X142500592Y-74344800D01*
X142500592Y-74344800D02*
X142405354Y-74392419D01*
X142405354Y-74392419D02*
X142214878Y-74392419D01*
X142214878Y-74392419D02*
X142119640Y-74344800D01*
X143691069Y-73392419D02*
X144357735Y-73392419D01*
X144357735Y-73392419D02*
X143691069Y-74392419D01*
X143691069Y-74392419D02*
X144357735Y-74392419D01*
X145500593Y-74392419D02*
X145500593Y-73392419D01*
X145929164Y-74392419D02*
X145929164Y-73868609D01*
X145929164Y-73868609D02*
X145881545Y-73773371D01*
X145881545Y-73773371D02*
X145786307Y-73725752D01*
X145786307Y-73725752D02*
X145643450Y-73725752D01*
X145643450Y-73725752D02*
X145548212Y-73773371D01*
X145548212Y-73773371D02*
X145500593Y-73820990D01*
X146786307Y-74344800D02*
X146691069Y-74392419D01*
X146691069Y-74392419D02*
X146500593Y-74392419D01*
X146500593Y-74392419D02*
X146405355Y-74344800D01*
X146405355Y-74344800D02*
X146357736Y-74249561D01*
X146357736Y-74249561D02*
X146357736Y-73868609D01*
X146357736Y-73868609D02*
X146405355Y-73773371D01*
X146405355Y-73773371D02*
X146500593Y-73725752D01*
X146500593Y-73725752D02*
X146691069Y-73725752D01*
X146691069Y-73725752D02*
X146786307Y-73773371D01*
X146786307Y-73773371D02*
X146833926Y-73868609D01*
X146833926Y-73868609D02*
X146833926Y-73963847D01*
X146833926Y-73963847D02*
X146357736Y-74059085D01*
X147262498Y-74392419D02*
X147262498Y-73725752D01*
X147262498Y-73392419D02*
X147214879Y-73440038D01*
X147214879Y-73440038D02*
X147262498Y-73487657D01*
X147262498Y-73487657D02*
X147310117Y-73440038D01*
X147310117Y-73440038D02*
X147262498Y-73392419D01*
X147262498Y-73392419D02*
X147262498Y-73487657D01*
X148167259Y-73725752D02*
X148167259Y-74535276D01*
X148167259Y-74535276D02*
X148119640Y-74630514D01*
X148119640Y-74630514D02*
X148072021Y-74678133D01*
X148072021Y-74678133D02*
X147976783Y-74725752D01*
X147976783Y-74725752D02*
X147833926Y-74725752D01*
X147833926Y-74725752D02*
X147738688Y-74678133D01*
X148167259Y-74344800D02*
X148072021Y-74392419D01*
X148072021Y-74392419D02*
X147881545Y-74392419D01*
X147881545Y-74392419D02*
X147786307Y-74344800D01*
X147786307Y-74344800D02*
X147738688Y-74297180D01*
X147738688Y-74297180D02*
X147691069Y-74201942D01*
X147691069Y-74201942D02*
X147691069Y-73916228D01*
X147691069Y-73916228D02*
X147738688Y-73820990D01*
X147738688Y-73820990D02*
X147786307Y-73773371D01*
X147786307Y-73773371D02*
X147881545Y-73725752D01*
X147881545Y-73725752D02*
X148072021Y-73725752D01*
X148072021Y-73725752D02*
X148167259Y-73773371D01*
X148643450Y-74392419D02*
X148643450Y-73392419D01*
X149072021Y-74392419D02*
X149072021Y-73868609D01*
X149072021Y-73868609D02*
X149024402Y-73773371D01*
X149024402Y-73773371D02*
X148929164Y-73725752D01*
X148929164Y-73725752D02*
X148786307Y-73725752D01*
X148786307Y-73725752D02*
X148691069Y-73773371D01*
X148691069Y-73773371D02*
X148643450Y-73820990D01*
X149405355Y-73725752D02*
X149786307Y-73725752D01*
X149548212Y-73392419D02*
X149548212Y-74249561D01*
X149548212Y-74249561D02*
X149595831Y-74344800D01*
X149595831Y-74344800D02*
X149691069Y-74392419D01*
X149691069Y-74392419D02*
X149786307Y-74392419D01*
X150881546Y-74392419D02*
X150881546Y-73392419D01*
X150881546Y-73773371D02*
X150976784Y-73725752D01*
X150976784Y-73725752D02*
X151167260Y-73725752D01*
X151167260Y-73725752D02*
X151262498Y-73773371D01*
X151262498Y-73773371D02*
X151310117Y-73820990D01*
X151310117Y-73820990D02*
X151357736Y-73916228D01*
X151357736Y-73916228D02*
X151357736Y-74201942D01*
X151357736Y-74201942D02*
X151310117Y-74297180D01*
X151310117Y-74297180D02*
X151262498Y-74344800D01*
X151262498Y-74344800D02*
X151167260Y-74392419D01*
X151167260Y-74392419D02*
X150976784Y-74392419D01*
X150976784Y-74392419D02*
X150881546Y-74344800D01*
X152167260Y-74344800D02*
X152072022Y-74392419D01*
X152072022Y-74392419D02*
X151881546Y-74392419D01*
X151881546Y-74392419D02*
X151786308Y-74344800D01*
X151786308Y-74344800D02*
X151738689Y-74249561D01*
X151738689Y-74249561D02*
X151738689Y-73868609D01*
X151738689Y-73868609D02*
X151786308Y-73773371D01*
X151786308Y-73773371D02*
X151881546Y-73725752D01*
X151881546Y-73725752D02*
X152072022Y-73725752D01*
X152072022Y-73725752D02*
X152167260Y-73773371D01*
X152167260Y-73773371D02*
X152214879Y-73868609D01*
X152214879Y-73868609D02*
X152214879Y-73963847D01*
X152214879Y-73963847D02*
X151738689Y-74059085D01*
X152786308Y-74392419D02*
X152691070Y-74344800D01*
X152691070Y-74344800D02*
X152643451Y-74249561D01*
X152643451Y-74249561D02*
X152643451Y-73392419D01*
X153310118Y-74392419D02*
X153214880Y-74344800D01*
X153214880Y-74344800D02*
X153167261Y-74297180D01*
X153167261Y-74297180D02*
X153119642Y-74201942D01*
X153119642Y-74201942D02*
X153119642Y-73916228D01*
X153119642Y-73916228D02*
X153167261Y-73820990D01*
X153167261Y-73820990D02*
X153214880Y-73773371D01*
X153214880Y-73773371D02*
X153310118Y-73725752D01*
X153310118Y-73725752D02*
X153452975Y-73725752D01*
X153452975Y-73725752D02*
X153548213Y-73773371D01*
X153548213Y-73773371D02*
X153595832Y-73820990D01*
X153595832Y-73820990D02*
X153643451Y-73916228D01*
X153643451Y-73916228D02*
X153643451Y-74201942D01*
X153643451Y-74201942D02*
X153595832Y-74297180D01*
X153595832Y-74297180D02*
X153548213Y-74344800D01*
X153548213Y-74344800D02*
X153452975Y-74392419D01*
X153452975Y-74392419D02*
X153310118Y-74392419D01*
X153976785Y-73725752D02*
X154167261Y-74392419D01*
X154167261Y-74392419D02*
X154357737Y-73916228D01*
X154357737Y-73916228D02*
X154548213Y-74392419D01*
X154548213Y-74392419D02*
X154738689Y-73725752D01*
X155738690Y-73725752D02*
X156119642Y-73725752D01*
X155881547Y-74392419D02*
X155881547Y-73535276D01*
X155881547Y-73535276D02*
X155929166Y-73440038D01*
X155929166Y-73440038D02*
X156024404Y-73392419D01*
X156024404Y-73392419D02*
X156119642Y-73392419D01*
X156452976Y-74392419D02*
X156452976Y-73725752D01*
X156452976Y-73916228D02*
X156500595Y-73820990D01*
X156500595Y-73820990D02*
X156548214Y-73773371D01*
X156548214Y-73773371D02*
X156643452Y-73725752D01*
X156643452Y-73725752D02*
X156738690Y-73725752D01*
X157214881Y-74392419D02*
X157119643Y-74344800D01*
X157119643Y-74344800D02*
X157072024Y-74297180D01*
X157072024Y-74297180D02*
X157024405Y-74201942D01*
X157024405Y-74201942D02*
X157024405Y-73916228D01*
X157024405Y-73916228D02*
X157072024Y-73820990D01*
X157072024Y-73820990D02*
X157119643Y-73773371D01*
X157119643Y-73773371D02*
X157214881Y-73725752D01*
X157214881Y-73725752D02*
X157357738Y-73725752D01*
X157357738Y-73725752D02*
X157452976Y-73773371D01*
X157452976Y-73773371D02*
X157500595Y-73820990D01*
X157500595Y-73820990D02*
X157548214Y-73916228D01*
X157548214Y-73916228D02*
X157548214Y-74201942D01*
X157548214Y-74201942D02*
X157500595Y-74297180D01*
X157500595Y-74297180D02*
X157452976Y-74344800D01*
X157452976Y-74344800D02*
X157357738Y-74392419D01*
X157357738Y-74392419D02*
X157214881Y-74392419D01*
X157976786Y-73725752D02*
X157976786Y-74392419D01*
X157976786Y-73820990D02*
X158024405Y-73773371D01*
X158024405Y-73773371D02*
X158119643Y-73725752D01*
X158119643Y-73725752D02*
X158262500Y-73725752D01*
X158262500Y-73725752D02*
X158357738Y-73773371D01*
X158357738Y-73773371D02*
X158405357Y-73868609D01*
X158405357Y-73868609D02*
X158405357Y-74392419D01*
X158738691Y-73725752D02*
X159119643Y-73725752D01*
X158881548Y-73392419D02*
X158881548Y-74249561D01*
X158881548Y-74249561D02*
X158929167Y-74344800D01*
X158929167Y-74344800D02*
X159024405Y-74392419D01*
X159024405Y-74392419D02*
X159119643Y-74392419D01*
X160214882Y-73725752D02*
X160214882Y-74725752D01*
X160214882Y-73773371D02*
X160310120Y-73725752D01*
X160310120Y-73725752D02*
X160500596Y-73725752D01*
X160500596Y-73725752D02*
X160595834Y-73773371D01*
X160595834Y-73773371D02*
X160643453Y-73820990D01*
X160643453Y-73820990D02*
X160691072Y-73916228D01*
X160691072Y-73916228D02*
X160691072Y-74201942D01*
X160691072Y-74201942D02*
X160643453Y-74297180D01*
X160643453Y-74297180D02*
X160595834Y-74344800D01*
X160595834Y-74344800D02*
X160500596Y-74392419D01*
X160500596Y-74392419D02*
X160310120Y-74392419D01*
X160310120Y-74392419D02*
X160214882Y-74344800D01*
X161548215Y-74392419D02*
X161548215Y-73868609D01*
X161548215Y-73868609D02*
X161500596Y-73773371D01*
X161500596Y-73773371D02*
X161405358Y-73725752D01*
X161405358Y-73725752D02*
X161214882Y-73725752D01*
X161214882Y-73725752D02*
X161119644Y-73773371D01*
X161548215Y-74344800D02*
X161452977Y-74392419D01*
X161452977Y-74392419D02*
X161214882Y-74392419D01*
X161214882Y-74392419D02*
X161119644Y-74344800D01*
X161119644Y-74344800D02*
X161072025Y-74249561D01*
X161072025Y-74249561D02*
X161072025Y-74154323D01*
X161072025Y-74154323D02*
X161119644Y-74059085D01*
X161119644Y-74059085D02*
X161214882Y-74011466D01*
X161214882Y-74011466D02*
X161452977Y-74011466D01*
X161452977Y-74011466D02*
X161548215Y-73963847D01*
X162024406Y-73725752D02*
X162024406Y-74392419D01*
X162024406Y-73820990D02*
X162072025Y-73773371D01*
X162072025Y-73773371D02*
X162167263Y-73725752D01*
X162167263Y-73725752D02*
X162310120Y-73725752D01*
X162310120Y-73725752D02*
X162405358Y-73773371D01*
X162405358Y-73773371D02*
X162452977Y-73868609D01*
X162452977Y-73868609D02*
X162452977Y-74392419D01*
X163310120Y-74344800D02*
X163214882Y-74392419D01*
X163214882Y-74392419D02*
X163024406Y-74392419D01*
X163024406Y-74392419D02*
X162929168Y-74344800D01*
X162929168Y-74344800D02*
X162881549Y-74249561D01*
X162881549Y-74249561D02*
X162881549Y-73868609D01*
X162881549Y-73868609D02*
X162929168Y-73773371D01*
X162929168Y-73773371D02*
X163024406Y-73725752D01*
X163024406Y-73725752D02*
X163214882Y-73725752D01*
X163214882Y-73725752D02*
X163310120Y-73773371D01*
X163310120Y-73773371D02*
X163357739Y-73868609D01*
X163357739Y-73868609D02*
X163357739Y-73963847D01*
X163357739Y-73963847D02*
X162881549Y-74059085D01*
X163929168Y-74392419D02*
X163833930Y-74344800D01*
X163833930Y-74344800D02*
X163786311Y-74249561D01*
X163786311Y-74249561D02*
X163786311Y-73392419D01*
X165500597Y-74392419D02*
X165500597Y-73392419D01*
X165500597Y-74344800D02*
X165405359Y-74392419D01*
X165405359Y-74392419D02*
X165214883Y-74392419D01*
X165214883Y-74392419D02*
X165119645Y-74344800D01*
X165119645Y-74344800D02*
X165072026Y-74297180D01*
X165072026Y-74297180D02*
X165024407Y-74201942D01*
X165024407Y-74201942D02*
X165024407Y-73916228D01*
X165024407Y-73916228D02*
X165072026Y-73820990D01*
X165072026Y-73820990D02*
X165119645Y-73773371D01*
X165119645Y-73773371D02*
X165214883Y-73725752D01*
X165214883Y-73725752D02*
X165405359Y-73725752D01*
X165405359Y-73725752D02*
X165500597Y-73773371D01*
X166357740Y-74344800D02*
X166262502Y-74392419D01*
X166262502Y-74392419D02*
X166072026Y-74392419D01*
X166072026Y-74392419D02*
X165976788Y-74344800D01*
X165976788Y-74344800D02*
X165929169Y-74249561D01*
X165929169Y-74249561D02*
X165929169Y-73868609D01*
X165929169Y-73868609D02*
X165976788Y-73773371D01*
X165976788Y-73773371D02*
X166072026Y-73725752D01*
X166072026Y-73725752D02*
X166262502Y-73725752D01*
X166262502Y-73725752D02*
X166357740Y-73773371D01*
X166357740Y-73773371D02*
X166405359Y-73868609D01*
X166405359Y-73868609D02*
X166405359Y-73963847D01*
X166405359Y-73963847D02*
X165929169Y-74059085D01*
X166738693Y-73725752D02*
X166976788Y-74392419D01*
X166976788Y-74392419D02*
X167214883Y-73725752D01*
X167595836Y-74392419D02*
X167595836Y-73725752D01*
X167595836Y-73392419D02*
X167548217Y-73440038D01*
X167548217Y-73440038D02*
X167595836Y-73487657D01*
X167595836Y-73487657D02*
X167643455Y-73440038D01*
X167643455Y-73440038D02*
X167595836Y-73392419D01*
X167595836Y-73392419D02*
X167595836Y-73487657D01*
X168500597Y-74344800D02*
X168405359Y-74392419D01*
X168405359Y-74392419D02*
X168214883Y-74392419D01*
X168214883Y-74392419D02*
X168119645Y-74344800D01*
X168119645Y-74344800D02*
X168072026Y-74297180D01*
X168072026Y-74297180D02*
X168024407Y-74201942D01*
X168024407Y-74201942D02*
X168024407Y-73916228D01*
X168024407Y-73916228D02*
X168072026Y-73820990D01*
X168072026Y-73820990D02*
X168119645Y-73773371D01*
X168119645Y-73773371D02*
X168214883Y-73725752D01*
X168214883Y-73725752D02*
X168405359Y-73725752D01*
X168405359Y-73725752D02*
X168500597Y-73773371D01*
X169310121Y-74344800D02*
X169214883Y-74392419D01*
X169214883Y-74392419D02*
X169024407Y-74392419D01*
X169024407Y-74392419D02*
X168929169Y-74344800D01*
X168929169Y-74344800D02*
X168881550Y-74249561D01*
X168881550Y-74249561D02*
X168881550Y-73868609D01*
X168881550Y-73868609D02*
X168929169Y-73773371D01*
X168929169Y-73773371D02*
X169024407Y-73725752D01*
X169024407Y-73725752D02*
X169214883Y-73725752D01*
X169214883Y-73725752D02*
X169310121Y-73773371D01*
X169310121Y-73773371D02*
X169357740Y-73868609D01*
X169357740Y-73868609D02*
X169357740Y-73963847D01*
X169357740Y-73963847D02*
X168881550Y-74059085D01*
X169738693Y-74344800D02*
X169833931Y-74392419D01*
X169833931Y-74392419D02*
X170024407Y-74392419D01*
X170024407Y-74392419D02*
X170119645Y-74344800D01*
X170119645Y-74344800D02*
X170167264Y-74249561D01*
X170167264Y-74249561D02*
X170167264Y-74201942D01*
X170167264Y-74201942D02*
X170119645Y-74106704D01*
X170119645Y-74106704D02*
X170024407Y-74059085D01*
X170024407Y-74059085D02*
X169881550Y-74059085D01*
X169881550Y-74059085D02*
X169786312Y-74011466D01*
X169786312Y-74011466D02*
X169738693Y-73916228D01*
X169738693Y-73916228D02*
X169738693Y-73868609D01*
X169738693Y-73868609D02*
X169786312Y-73773371D01*
X169786312Y-73773371D02*
X169881550Y-73725752D01*
X169881550Y-73725752D02*
X170024407Y-73725752D01*
X170024407Y-73725752D02*
X170119645Y-73773371D01*
X143286309Y-89392419D02*
X143286309Y-88392419D01*
X143286309Y-88392419D02*
X143619642Y-89106704D01*
X143619642Y-89106704D02*
X143952975Y-88392419D01*
X143952975Y-88392419D02*
X143952975Y-89392419D01*
X144429166Y-89392419D02*
X144429166Y-88725752D01*
X144429166Y-88392419D02*
X144381547Y-88440038D01*
X144381547Y-88440038D02*
X144429166Y-88487657D01*
X144429166Y-88487657D02*
X144476785Y-88440038D01*
X144476785Y-88440038D02*
X144429166Y-88392419D01*
X144429166Y-88392419D02*
X144429166Y-88487657D01*
X144905356Y-88725752D02*
X144905356Y-89392419D01*
X144905356Y-88820990D02*
X144952975Y-88773371D01*
X144952975Y-88773371D02*
X145048213Y-88725752D01*
X145048213Y-88725752D02*
X145191070Y-88725752D01*
X145191070Y-88725752D02*
X145286308Y-88773371D01*
X145286308Y-88773371D02*
X145333927Y-88868609D01*
X145333927Y-88868609D02*
X145333927Y-89392419D01*
X145810118Y-89392419D02*
X145810118Y-88725752D01*
X145810118Y-88392419D02*
X145762499Y-88440038D01*
X145762499Y-88440038D02*
X145810118Y-88487657D01*
X145810118Y-88487657D02*
X145857737Y-88440038D01*
X145857737Y-88440038D02*
X145810118Y-88392419D01*
X145810118Y-88392419D02*
X145810118Y-88487657D01*
X146286308Y-89392419D02*
X146286308Y-88725752D01*
X146286308Y-88820990D02*
X146333927Y-88773371D01*
X146333927Y-88773371D02*
X146429165Y-88725752D01*
X146429165Y-88725752D02*
X146572022Y-88725752D01*
X146572022Y-88725752D02*
X146667260Y-88773371D01*
X146667260Y-88773371D02*
X146714879Y-88868609D01*
X146714879Y-88868609D02*
X146714879Y-89392419D01*
X146714879Y-88868609D02*
X146762498Y-88773371D01*
X146762498Y-88773371D02*
X146857736Y-88725752D01*
X146857736Y-88725752D02*
X147000593Y-88725752D01*
X147000593Y-88725752D02*
X147095832Y-88773371D01*
X147095832Y-88773371D02*
X147143451Y-88868609D01*
X147143451Y-88868609D02*
X147143451Y-89392419D01*
X147619641Y-89392419D02*
X147619641Y-88725752D01*
X147619641Y-88392419D02*
X147572022Y-88440038D01*
X147572022Y-88440038D02*
X147619641Y-88487657D01*
X147619641Y-88487657D02*
X147667260Y-88440038D01*
X147667260Y-88440038D02*
X147619641Y-88392419D01*
X147619641Y-88392419D02*
X147619641Y-88487657D01*
X148000593Y-88725752D02*
X148524402Y-88725752D01*
X148524402Y-88725752D02*
X148000593Y-89392419D01*
X148000593Y-89392419D02*
X148524402Y-89392419D01*
X149286307Y-89344800D02*
X149191069Y-89392419D01*
X149191069Y-89392419D02*
X149000593Y-89392419D01*
X149000593Y-89392419D02*
X148905355Y-89344800D01*
X148905355Y-89344800D02*
X148857736Y-89249561D01*
X148857736Y-89249561D02*
X148857736Y-88868609D01*
X148857736Y-88868609D02*
X148905355Y-88773371D01*
X148905355Y-88773371D02*
X149000593Y-88725752D01*
X149000593Y-88725752D02*
X149191069Y-88725752D01*
X149191069Y-88725752D02*
X149286307Y-88773371D01*
X149286307Y-88773371D02*
X149333926Y-88868609D01*
X149333926Y-88868609D02*
X149333926Y-88963847D01*
X149333926Y-88963847D02*
X148857736Y-89059085D01*
X150429165Y-88392419D02*
X151095831Y-88392419D01*
X151095831Y-88392419D02*
X150429165Y-89392419D01*
X150429165Y-89392419D02*
X151095831Y-89392419D01*
X152238689Y-89392419D02*
X152238689Y-88392419D01*
X152238689Y-88868609D02*
X152810117Y-88868609D01*
X152810117Y-89392419D02*
X152810117Y-88392419D01*
X153667260Y-89344800D02*
X153572022Y-89392419D01*
X153572022Y-89392419D02*
X153381546Y-89392419D01*
X153381546Y-89392419D02*
X153286308Y-89344800D01*
X153286308Y-89344800D02*
X153238689Y-89249561D01*
X153238689Y-89249561D02*
X153238689Y-88868609D01*
X153238689Y-88868609D02*
X153286308Y-88773371D01*
X153286308Y-88773371D02*
X153381546Y-88725752D01*
X153381546Y-88725752D02*
X153572022Y-88725752D01*
X153572022Y-88725752D02*
X153667260Y-88773371D01*
X153667260Y-88773371D02*
X153714879Y-88868609D01*
X153714879Y-88868609D02*
X153714879Y-88963847D01*
X153714879Y-88963847D02*
X153238689Y-89059085D01*
X154143451Y-89392419D02*
X154143451Y-88725752D01*
X154143451Y-88392419D02*
X154095832Y-88440038D01*
X154095832Y-88440038D02*
X154143451Y-88487657D01*
X154143451Y-88487657D02*
X154191070Y-88440038D01*
X154191070Y-88440038D02*
X154143451Y-88392419D01*
X154143451Y-88392419D02*
X154143451Y-88487657D01*
X155048212Y-88725752D02*
X155048212Y-89535276D01*
X155048212Y-89535276D02*
X155000593Y-89630514D01*
X155000593Y-89630514D02*
X154952974Y-89678133D01*
X154952974Y-89678133D02*
X154857736Y-89725752D01*
X154857736Y-89725752D02*
X154714879Y-89725752D01*
X154714879Y-89725752D02*
X154619641Y-89678133D01*
X155048212Y-89344800D02*
X154952974Y-89392419D01*
X154952974Y-89392419D02*
X154762498Y-89392419D01*
X154762498Y-89392419D02*
X154667260Y-89344800D01*
X154667260Y-89344800D02*
X154619641Y-89297180D01*
X154619641Y-89297180D02*
X154572022Y-89201942D01*
X154572022Y-89201942D02*
X154572022Y-88916228D01*
X154572022Y-88916228D02*
X154619641Y-88820990D01*
X154619641Y-88820990D02*
X154667260Y-88773371D01*
X154667260Y-88773371D02*
X154762498Y-88725752D01*
X154762498Y-88725752D02*
X154952974Y-88725752D01*
X154952974Y-88725752D02*
X155048212Y-88773371D01*
X155524403Y-89392419D02*
X155524403Y-88392419D01*
X155952974Y-89392419D02*
X155952974Y-88868609D01*
X155952974Y-88868609D02*
X155905355Y-88773371D01*
X155905355Y-88773371D02*
X155810117Y-88725752D01*
X155810117Y-88725752D02*
X155667260Y-88725752D01*
X155667260Y-88725752D02*
X155572022Y-88773371D01*
X155572022Y-88773371D02*
X155524403Y-88820990D01*
X156286308Y-88725752D02*
X156667260Y-88725752D01*
X156429165Y-88392419D02*
X156429165Y-89249561D01*
X156429165Y-89249561D02*
X156476784Y-89344800D01*
X156476784Y-89344800D02*
X156572022Y-89392419D01*
X156572022Y-89392419D02*
X156667260Y-89392419D01*
X157762499Y-89392419D02*
X157762499Y-88725752D01*
X157762499Y-88392419D02*
X157714880Y-88440038D01*
X157714880Y-88440038D02*
X157762499Y-88487657D01*
X157762499Y-88487657D02*
X157810118Y-88440038D01*
X157810118Y-88440038D02*
X157762499Y-88392419D01*
X157762499Y-88392419D02*
X157762499Y-88487657D01*
X158238689Y-88725752D02*
X158238689Y-89392419D01*
X158238689Y-88820990D02*
X158286308Y-88773371D01*
X158286308Y-88773371D02*
X158381546Y-88725752D01*
X158381546Y-88725752D02*
X158524403Y-88725752D01*
X158524403Y-88725752D02*
X158619641Y-88773371D01*
X158619641Y-88773371D02*
X158667260Y-88868609D01*
X158667260Y-88868609D02*
X158667260Y-89392419D01*
X159762499Y-88725752D02*
X160143451Y-88725752D01*
X159905356Y-88392419D02*
X159905356Y-89249561D01*
X159905356Y-89249561D02*
X159952975Y-89344800D01*
X159952975Y-89344800D02*
X160048213Y-89392419D01*
X160048213Y-89392419D02*
X160143451Y-89392419D01*
X160476785Y-89392419D02*
X160476785Y-88392419D01*
X160905356Y-89392419D02*
X160905356Y-88868609D01*
X160905356Y-88868609D02*
X160857737Y-88773371D01*
X160857737Y-88773371D02*
X160762499Y-88725752D01*
X160762499Y-88725752D02*
X160619642Y-88725752D01*
X160619642Y-88725752D02*
X160524404Y-88773371D01*
X160524404Y-88773371D02*
X160476785Y-88820990D01*
X161381547Y-89392419D02*
X161381547Y-88725752D01*
X161381547Y-88392419D02*
X161333928Y-88440038D01*
X161333928Y-88440038D02*
X161381547Y-88487657D01*
X161381547Y-88487657D02*
X161429166Y-88440038D01*
X161429166Y-88440038D02*
X161381547Y-88392419D01*
X161381547Y-88392419D02*
X161381547Y-88487657D01*
X161810118Y-89344800D02*
X161905356Y-89392419D01*
X161905356Y-89392419D02*
X162095832Y-89392419D01*
X162095832Y-89392419D02*
X162191070Y-89344800D01*
X162191070Y-89344800D02*
X162238689Y-89249561D01*
X162238689Y-89249561D02*
X162238689Y-89201942D01*
X162238689Y-89201942D02*
X162191070Y-89106704D01*
X162191070Y-89106704D02*
X162095832Y-89059085D01*
X162095832Y-89059085D02*
X161952975Y-89059085D01*
X161952975Y-89059085D02*
X161857737Y-89011466D01*
X161857737Y-89011466D02*
X161810118Y-88916228D01*
X161810118Y-88916228D02*
X161810118Y-88868609D01*
X161810118Y-88868609D02*
X161857737Y-88773371D01*
X161857737Y-88773371D02*
X161952975Y-88725752D01*
X161952975Y-88725752D02*
X162095832Y-88725752D01*
X162095832Y-88725752D02*
X162191070Y-88773371D01*
X163857737Y-89392419D02*
X163857737Y-88868609D01*
X163857737Y-88868609D02*
X163810118Y-88773371D01*
X163810118Y-88773371D02*
X163714880Y-88725752D01*
X163714880Y-88725752D02*
X163524404Y-88725752D01*
X163524404Y-88725752D02*
X163429166Y-88773371D01*
X163857737Y-89344800D02*
X163762499Y-89392419D01*
X163762499Y-89392419D02*
X163524404Y-89392419D01*
X163524404Y-89392419D02*
X163429166Y-89344800D01*
X163429166Y-89344800D02*
X163381547Y-89249561D01*
X163381547Y-89249561D02*
X163381547Y-89154323D01*
X163381547Y-89154323D02*
X163429166Y-89059085D01*
X163429166Y-89059085D02*
X163524404Y-89011466D01*
X163524404Y-89011466D02*
X163762499Y-89011466D01*
X163762499Y-89011466D02*
X163857737Y-88963847D01*
X164333928Y-89392419D02*
X164333928Y-88725752D01*
X164333928Y-88916228D02*
X164381547Y-88820990D01*
X164381547Y-88820990D02*
X164429166Y-88773371D01*
X164429166Y-88773371D02*
X164524404Y-88725752D01*
X164524404Y-88725752D02*
X164619642Y-88725752D01*
X165333928Y-89344800D02*
X165238690Y-89392419D01*
X165238690Y-89392419D02*
X165048214Y-89392419D01*
X165048214Y-89392419D02*
X164952976Y-89344800D01*
X164952976Y-89344800D02*
X164905357Y-89249561D01*
X164905357Y-89249561D02*
X164905357Y-88868609D01*
X164905357Y-88868609D02*
X164952976Y-88773371D01*
X164952976Y-88773371D02*
X165048214Y-88725752D01*
X165048214Y-88725752D02*
X165238690Y-88725752D01*
X165238690Y-88725752D02*
X165333928Y-88773371D01*
X165333928Y-88773371D02*
X165381547Y-88868609D01*
X165381547Y-88868609D02*
X165381547Y-88963847D01*
X165381547Y-88963847D02*
X164905357Y-89059085D01*
X166238690Y-89392419D02*
X166238690Y-88868609D01*
X166238690Y-88868609D02*
X166191071Y-88773371D01*
X166191071Y-88773371D02*
X166095833Y-88725752D01*
X166095833Y-88725752D02*
X165905357Y-88725752D01*
X165905357Y-88725752D02*
X165810119Y-88773371D01*
X166238690Y-89344800D02*
X166143452Y-89392419D01*
X166143452Y-89392419D02*
X165905357Y-89392419D01*
X165905357Y-89392419D02*
X165810119Y-89344800D01*
X165810119Y-89344800D02*
X165762500Y-89249561D01*
X165762500Y-89249561D02*
X165762500Y-89154323D01*
X165762500Y-89154323D02*
X165810119Y-89059085D01*
X165810119Y-89059085D02*
X165905357Y-89011466D01*
X165905357Y-89011466D02*
X166143452Y-89011466D01*
X166143452Y-89011466D02*
X166238690Y-88963847D01*
D10*
X200099279Y-30719819D02*
X200099279Y-29719819D01*
X201004040Y-30719819D02*
X201004040Y-29719819D01*
X201004040Y-30672200D02*
X200908802Y-30719819D01*
X200908802Y-30719819D02*
X200718326Y-30719819D01*
X200718326Y-30719819D02*
X200623088Y-30672200D01*
X200623088Y-30672200D02*
X200575469Y-30624580D01*
X200575469Y-30624580D02*
X200527850Y-30529342D01*
X200527850Y-30529342D02*
X200527850Y-30243628D01*
X200527850Y-30243628D02*
X200575469Y-30148390D01*
X200575469Y-30148390D02*
X200623088Y-30100771D01*
X200623088Y-30100771D02*
X200718326Y-30053152D01*
X200718326Y-30053152D02*
X200908802Y-30053152D01*
X200908802Y-30053152D02*
X201004040Y-30100771D01*
X201861183Y-30672200D02*
X201765945Y-30719819D01*
X201765945Y-30719819D02*
X201575469Y-30719819D01*
X201575469Y-30719819D02*
X201480231Y-30672200D01*
X201480231Y-30672200D02*
X201432612Y-30576961D01*
X201432612Y-30576961D02*
X201432612Y-30196009D01*
X201432612Y-30196009D02*
X201480231Y-30100771D01*
X201480231Y-30100771D02*
X201575469Y-30053152D01*
X201575469Y-30053152D02*
X201765945Y-30053152D01*
X201765945Y-30053152D02*
X201861183Y-30100771D01*
X201861183Y-30100771D02*
X201908802Y-30196009D01*
X201908802Y-30196009D02*
X201908802Y-30291247D01*
X201908802Y-30291247D02*
X201432612Y-30386485D01*
X202765945Y-30719819D02*
X202765945Y-30196009D01*
X202765945Y-30196009D02*
X202718326Y-30100771D01*
X202718326Y-30100771D02*
X202623088Y-30053152D01*
X202623088Y-30053152D02*
X202432612Y-30053152D01*
X202432612Y-30053152D02*
X202337374Y-30100771D01*
X202765945Y-30672200D02*
X202670707Y-30719819D01*
X202670707Y-30719819D02*
X202432612Y-30719819D01*
X202432612Y-30719819D02*
X202337374Y-30672200D01*
X202337374Y-30672200D02*
X202289755Y-30576961D01*
X202289755Y-30576961D02*
X202289755Y-30481723D01*
X202289755Y-30481723D02*
X202337374Y-30386485D01*
X202337374Y-30386485D02*
X202432612Y-30338866D01*
X202432612Y-30338866D02*
X202670707Y-30338866D01*
X202670707Y-30338866D02*
X202765945Y-30291247D01*
X203384993Y-30719819D02*
X203289755Y-30672200D01*
X203289755Y-30672200D02*
X203242136Y-30576961D01*
X203242136Y-30576961D02*
X203242136Y-29719819D01*
X204813565Y-29719819D02*
X204813565Y-30434104D01*
X204813565Y-30434104D02*
X204765946Y-30576961D01*
X204765946Y-30576961D02*
X204670708Y-30672200D01*
X204670708Y-30672200D02*
X204527851Y-30719819D01*
X204527851Y-30719819D02*
X204432613Y-30719819D01*
X205718327Y-30719819D02*
X205718327Y-30196009D01*
X205718327Y-30196009D02*
X205670708Y-30100771D01*
X205670708Y-30100771D02*
X205575470Y-30053152D01*
X205575470Y-30053152D02*
X205384994Y-30053152D01*
X205384994Y-30053152D02*
X205289756Y-30100771D01*
X205718327Y-30672200D02*
X205623089Y-30719819D01*
X205623089Y-30719819D02*
X205384994Y-30719819D01*
X205384994Y-30719819D02*
X205289756Y-30672200D01*
X205289756Y-30672200D02*
X205242137Y-30576961D01*
X205242137Y-30576961D02*
X205242137Y-30481723D01*
X205242137Y-30481723D02*
X205289756Y-30386485D01*
X205289756Y-30386485D02*
X205384994Y-30338866D01*
X205384994Y-30338866D02*
X205623089Y-30338866D01*
X205623089Y-30338866D02*
X205718327Y-30291247D01*
X206623089Y-30672200D02*
X206527851Y-30719819D01*
X206527851Y-30719819D02*
X206337375Y-30719819D01*
X206337375Y-30719819D02*
X206242137Y-30672200D01*
X206242137Y-30672200D02*
X206194518Y-30624580D01*
X206194518Y-30624580D02*
X206146899Y-30529342D01*
X206146899Y-30529342D02*
X206146899Y-30243628D01*
X206146899Y-30243628D02*
X206194518Y-30148390D01*
X206194518Y-30148390D02*
X206242137Y-30100771D01*
X206242137Y-30100771D02*
X206337375Y-30053152D01*
X206337375Y-30053152D02*
X206527851Y-30053152D01*
X206527851Y-30053152D02*
X206623089Y-30100771D01*
X207051661Y-30719819D02*
X207051661Y-29719819D01*
X207146899Y-30338866D02*
X207432613Y-30719819D01*
X207432613Y-30053152D02*
X207051661Y-30434104D01*
X208575471Y-30672200D02*
X208718328Y-30719819D01*
X208718328Y-30719819D02*
X208956423Y-30719819D01*
X208956423Y-30719819D02*
X209051661Y-30672200D01*
X209051661Y-30672200D02*
X209099280Y-30624580D01*
X209099280Y-30624580D02*
X209146899Y-30529342D01*
X209146899Y-30529342D02*
X209146899Y-30434104D01*
X209146899Y-30434104D02*
X209099280Y-30338866D01*
X209099280Y-30338866D02*
X209051661Y-30291247D01*
X209051661Y-30291247D02*
X208956423Y-30243628D01*
X208956423Y-30243628D02*
X208765947Y-30196009D01*
X208765947Y-30196009D02*
X208670709Y-30148390D01*
X208670709Y-30148390D02*
X208623090Y-30100771D01*
X208623090Y-30100771D02*
X208575471Y-30005533D01*
X208575471Y-30005533D02*
X208575471Y-29910295D01*
X208575471Y-29910295D02*
X208623090Y-29815057D01*
X208623090Y-29815057D02*
X208670709Y-29767438D01*
X208670709Y-29767438D02*
X208765947Y-29719819D01*
X208765947Y-29719819D02*
X209004042Y-29719819D01*
X209004042Y-29719819D02*
X209146899Y-29767438D01*
X209575471Y-30053152D02*
X209575471Y-31053152D01*
X209575471Y-30100771D02*
X209670709Y-30053152D01*
X209670709Y-30053152D02*
X209861185Y-30053152D01*
X209861185Y-30053152D02*
X209956423Y-30100771D01*
X209956423Y-30100771D02*
X210004042Y-30148390D01*
X210004042Y-30148390D02*
X210051661Y-30243628D01*
X210051661Y-30243628D02*
X210051661Y-30529342D01*
X210051661Y-30529342D02*
X210004042Y-30624580D01*
X210004042Y-30624580D02*
X209956423Y-30672200D01*
X209956423Y-30672200D02*
X209861185Y-30719819D01*
X209861185Y-30719819D02*
X209670709Y-30719819D01*
X209670709Y-30719819D02*
X209575471Y-30672200D01*
X210908804Y-30719819D02*
X210908804Y-30196009D01*
X210908804Y-30196009D02*
X210861185Y-30100771D01*
X210861185Y-30100771D02*
X210765947Y-30053152D01*
X210765947Y-30053152D02*
X210575471Y-30053152D01*
X210575471Y-30053152D02*
X210480233Y-30100771D01*
X210908804Y-30672200D02*
X210813566Y-30719819D01*
X210813566Y-30719819D02*
X210575471Y-30719819D01*
X210575471Y-30719819D02*
X210480233Y-30672200D01*
X210480233Y-30672200D02*
X210432614Y-30576961D01*
X210432614Y-30576961D02*
X210432614Y-30481723D01*
X210432614Y-30481723D02*
X210480233Y-30386485D01*
X210480233Y-30386485D02*
X210575471Y-30338866D01*
X210575471Y-30338866D02*
X210813566Y-30338866D01*
X210813566Y-30338866D02*
X210908804Y-30291247D01*
X211813566Y-30672200D02*
X211718328Y-30719819D01*
X211718328Y-30719819D02*
X211527852Y-30719819D01*
X211527852Y-30719819D02*
X211432614Y-30672200D01*
X211432614Y-30672200D02*
X211384995Y-30624580D01*
X211384995Y-30624580D02*
X211337376Y-30529342D01*
X211337376Y-30529342D02*
X211337376Y-30243628D01*
X211337376Y-30243628D02*
X211384995Y-30148390D01*
X211384995Y-30148390D02*
X211432614Y-30100771D01*
X211432614Y-30100771D02*
X211527852Y-30053152D01*
X211527852Y-30053152D02*
X211718328Y-30053152D01*
X211718328Y-30053152D02*
X211813566Y-30100771D01*
X212242138Y-30719819D02*
X212242138Y-30053152D01*
X212242138Y-29719819D02*
X212194519Y-29767438D01*
X212194519Y-29767438D02*
X212242138Y-29815057D01*
X212242138Y-29815057D02*
X212289757Y-29767438D01*
X212289757Y-29767438D02*
X212242138Y-29719819D01*
X212242138Y-29719819D02*
X212242138Y-29815057D01*
X212718328Y-30053152D02*
X212718328Y-30719819D01*
X212718328Y-30148390D02*
X212765947Y-30100771D01*
X212765947Y-30100771D02*
X212861185Y-30053152D01*
X212861185Y-30053152D02*
X213004042Y-30053152D01*
X213004042Y-30053152D02*
X213099280Y-30100771D01*
X213099280Y-30100771D02*
X213146899Y-30196009D01*
X213146899Y-30196009D02*
X213146899Y-30719819D01*
X214051661Y-30053152D02*
X214051661Y-30862676D01*
X214051661Y-30862676D02*
X214004042Y-30957914D01*
X214004042Y-30957914D02*
X213956423Y-31005533D01*
X213956423Y-31005533D02*
X213861185Y-31053152D01*
X213861185Y-31053152D02*
X213718328Y-31053152D01*
X213718328Y-31053152D02*
X213623090Y-31005533D01*
X214051661Y-30672200D02*
X213956423Y-30719819D01*
X213956423Y-30719819D02*
X213765947Y-30719819D01*
X213765947Y-30719819D02*
X213670709Y-30672200D01*
X213670709Y-30672200D02*
X213623090Y-30624580D01*
X213623090Y-30624580D02*
X213575471Y-30529342D01*
X213575471Y-30529342D02*
X213575471Y-30243628D01*
X213575471Y-30243628D02*
X213623090Y-30148390D01*
X213623090Y-30148390D02*
X213670709Y-30100771D01*
X213670709Y-30100771D02*
X213765947Y-30053152D01*
X213765947Y-30053152D02*
X213956423Y-30053152D01*
X213956423Y-30053152D02*
X214051661Y-30100771D01*
D12*
X183412784Y-115717798D02*
X183917861Y-115212722D01*
X183614815Y-116121859D02*
X182907708Y-114707645D01*
X182907708Y-114707645D02*
X184321922Y-115414752D01*
X184422937Y-113899523D02*
X185130043Y-114606630D01*
X183968368Y-114354092D02*
X184523952Y-114909676D01*
X184523952Y-114909676D02*
X184675475Y-114960184D01*
X184675475Y-114960184D02*
X184826998Y-114909676D01*
X184826998Y-114909676D02*
X184978520Y-114758153D01*
X184978520Y-114758153D02*
X185029028Y-114606630D01*
X185029028Y-114606630D02*
X185029028Y-114505615D01*
X186089688Y-113646985D02*
X185029028Y-112586325D01*
X186039181Y-113596478D02*
X185988673Y-113748000D01*
X185988673Y-113748000D02*
X185786643Y-113950031D01*
X185786643Y-113950031D02*
X185635120Y-114000539D01*
X185635120Y-114000539D02*
X185534104Y-114000539D01*
X185534104Y-114000539D02*
X185382582Y-113950031D01*
X185382582Y-113950031D02*
X185079536Y-113646985D01*
X185079536Y-113646985D02*
X185029028Y-113495462D01*
X185029028Y-113495462D02*
X185029028Y-113394447D01*
X185029028Y-113394447D02*
X185079536Y-113242924D01*
X185079536Y-113242924D02*
X185281566Y-113040894D01*
X185281566Y-113040894D02*
X185433089Y-112990386D01*
X186594765Y-113141909D02*
X185887658Y-112434802D01*
X185534105Y-112081249D02*
X185534105Y-112182264D01*
X185534105Y-112182264D02*
X185635120Y-112182264D01*
X185635120Y-112182264D02*
X185635120Y-112081249D01*
X185635120Y-112081249D02*
X185534105Y-112081249D01*
X185534105Y-112081249D02*
X185635120Y-112182264D01*
X187251364Y-112485309D02*
X187099841Y-112535817D01*
X187099841Y-112535817D02*
X186998826Y-112535817D01*
X186998826Y-112535817D02*
X186847303Y-112485309D01*
X186847303Y-112485309D02*
X186544257Y-112182264D01*
X186544257Y-112182264D02*
X186493750Y-112030741D01*
X186493750Y-112030741D02*
X186493750Y-111929726D01*
X186493750Y-111929726D02*
X186544257Y-111778203D01*
X186544257Y-111778203D02*
X186695780Y-111626680D01*
X186695780Y-111626680D02*
X186847303Y-111576172D01*
X186847303Y-111576172D02*
X186948318Y-111576172D01*
X186948318Y-111576172D02*
X187099841Y-111626680D01*
X187099841Y-111626680D02*
X187402887Y-111929726D01*
X187402887Y-111929726D02*
X187453395Y-112081248D01*
X187453395Y-112081248D02*
X187453395Y-112182264D01*
X187453395Y-112182264D02*
X187402887Y-112333787D01*
X187402887Y-112333787D02*
X187251364Y-112485309D01*
X188008979Y-109606375D02*
X188211009Y-109404344D01*
X188211009Y-109404344D02*
X188362532Y-109353837D01*
X188362532Y-109353837D02*
X188564562Y-109353837D01*
X188564562Y-109353837D02*
X188817101Y-109505359D01*
X188817101Y-109505359D02*
X189170654Y-109858913D01*
X189170654Y-109858913D02*
X189322177Y-110111451D01*
X189322177Y-110111451D02*
X189322177Y-110313482D01*
X189322177Y-110313482D02*
X189271669Y-110465004D01*
X189271669Y-110465004D02*
X189069639Y-110667035D01*
X189069639Y-110667035D02*
X188918116Y-110717543D01*
X188918116Y-110717543D02*
X188716085Y-110717543D01*
X188716085Y-110717543D02*
X188463547Y-110566020D01*
X188463547Y-110566020D02*
X188109994Y-110212466D01*
X188109994Y-110212466D02*
X187958471Y-109959928D01*
X187958471Y-109959928D02*
X187958471Y-109757898D01*
X187958471Y-109757898D02*
X188008979Y-109606375D01*
X189726238Y-108596222D02*
X190433345Y-109303329D01*
X189271670Y-109050791D02*
X189827253Y-109606374D01*
X189827253Y-109606374D02*
X189978776Y-109656882D01*
X189978776Y-109656882D02*
X190130299Y-109606374D01*
X190130299Y-109606374D02*
X190281822Y-109454852D01*
X190281822Y-109454852D02*
X190332330Y-109303329D01*
X190332330Y-109303329D02*
X190332330Y-109202313D01*
X190079792Y-108242668D02*
X190483853Y-107838607D01*
X189877761Y-107737592D02*
X190786898Y-108646729D01*
X190786898Y-108646729D02*
X190938421Y-108697237D01*
X190938421Y-108697237D02*
X191089944Y-108646729D01*
X191089944Y-108646729D02*
X191190959Y-108545714D01*
D11*
X203917262Y-33207419D02*
X203345834Y-33207419D01*
X203631548Y-33207419D02*
X203631548Y-32207419D01*
X203631548Y-32207419D02*
X203536310Y-32350276D01*
X203536310Y-32350276D02*
X203441072Y-32445514D01*
X203441072Y-32445514D02*
X203345834Y-32493133D01*
X204298215Y-32302657D02*
X204345834Y-32255038D01*
X204345834Y-32255038D02*
X204441072Y-32207419D01*
X204441072Y-32207419D02*
X204679167Y-32207419D01*
X204679167Y-32207419D02*
X204774405Y-32255038D01*
X204774405Y-32255038D02*
X204822024Y-32302657D01*
X204822024Y-32302657D02*
X204869643Y-32397895D01*
X204869643Y-32397895D02*
X204869643Y-32493133D01*
X204869643Y-32493133D02*
X204822024Y-32635990D01*
X204822024Y-32635990D02*
X204250596Y-33207419D01*
X204250596Y-33207419D02*
X204869643Y-33207419D01*
X205298215Y-33112180D02*
X205345834Y-33159800D01*
X205345834Y-33159800D02*
X205298215Y-33207419D01*
X205298215Y-33207419D02*
X205250596Y-33159800D01*
X205250596Y-33159800D02*
X205298215Y-33112180D01*
X205298215Y-33112180D02*
X205298215Y-33207419D01*
X206250595Y-32207419D02*
X205774405Y-32207419D01*
X205774405Y-32207419D02*
X205726786Y-32683609D01*
X205726786Y-32683609D02*
X205774405Y-32635990D01*
X205774405Y-32635990D02*
X205869643Y-32588371D01*
X205869643Y-32588371D02*
X206107738Y-32588371D01*
X206107738Y-32588371D02*
X206202976Y-32635990D01*
X206202976Y-32635990D02*
X206250595Y-32683609D01*
X206250595Y-32683609D02*
X206298214Y-32778847D01*
X206298214Y-32778847D02*
X206298214Y-33016942D01*
X206298214Y-33016942D02*
X206250595Y-33112180D01*
X206250595Y-33112180D02*
X206202976Y-33159800D01*
X206202976Y-33159800D02*
X206107738Y-33207419D01*
X206107738Y-33207419D02*
X205869643Y-33207419D01*
X205869643Y-33207419D02*
X205774405Y-33159800D01*
X205774405Y-33159800D02*
X205726786Y-33112180D01*
X206917262Y-32207419D02*
X207012500Y-32207419D01*
X207012500Y-32207419D02*
X207107738Y-32255038D01*
X207107738Y-32255038D02*
X207155357Y-32302657D01*
X207155357Y-32302657D02*
X207202976Y-32397895D01*
X207202976Y-32397895D02*
X207250595Y-32588371D01*
X207250595Y-32588371D02*
X207250595Y-32826466D01*
X207250595Y-32826466D02*
X207202976Y-33016942D01*
X207202976Y-33016942D02*
X207155357Y-33112180D01*
X207155357Y-33112180D02*
X207107738Y-33159800D01*
X207107738Y-33159800D02*
X207012500Y-33207419D01*
X207012500Y-33207419D02*
X206917262Y-33207419D01*
X206917262Y-33207419D02*
X206822024Y-33159800D01*
X206822024Y-33159800D02*
X206774405Y-33112180D01*
X206774405Y-33112180D02*
X206726786Y-33016942D01*
X206726786Y-33016942D02*
X206679167Y-32826466D01*
X206679167Y-32826466D02*
X206679167Y-32588371D01*
X206679167Y-32588371D02*
X206726786Y-32397895D01*
X206726786Y-32397895D02*
X206774405Y-32302657D01*
X206774405Y-32302657D02*
X206822024Y-32255038D01*
X206822024Y-32255038D02*
X206917262Y-32207419D01*
X208441072Y-33207419D02*
X208441072Y-32540752D01*
X208441072Y-32635990D02*
X208488691Y-32588371D01*
X208488691Y-32588371D02*
X208583929Y-32540752D01*
X208583929Y-32540752D02*
X208726786Y-32540752D01*
X208726786Y-32540752D02*
X208822024Y-32588371D01*
X208822024Y-32588371D02*
X208869643Y-32683609D01*
X208869643Y-32683609D02*
X208869643Y-33207419D01*
X208869643Y-32683609D02*
X208917262Y-32588371D01*
X208917262Y-32588371D02*
X209012500Y-32540752D01*
X209012500Y-32540752D02*
X209155357Y-32540752D01*
X209155357Y-32540752D02*
X209250596Y-32588371D01*
X209250596Y-32588371D02*
X209298215Y-32683609D01*
X209298215Y-32683609D02*
X209298215Y-33207419D01*
X209774405Y-33207419D02*
X209774405Y-32540752D01*
X209774405Y-32635990D02*
X209822024Y-32588371D01*
X209822024Y-32588371D02*
X209917262Y-32540752D01*
X209917262Y-32540752D02*
X210060119Y-32540752D01*
X210060119Y-32540752D02*
X210155357Y-32588371D01*
X210155357Y-32588371D02*
X210202976Y-32683609D01*
X210202976Y-32683609D02*
X210202976Y-33207419D01*
X210202976Y-32683609D02*
X210250595Y-32588371D01*
X210250595Y-32588371D02*
X210345833Y-32540752D01*
X210345833Y-32540752D02*
X210488690Y-32540752D01*
X210488690Y-32540752D02*
X210583929Y-32588371D01*
X210583929Y-32588371D02*
X210631548Y-32683609D01*
X210631548Y-32683609D02*
X210631548Y-33207419D01*
X200762500Y-49350000D02*
X200762500Y-33263580D01*
X213262500Y-49350000D02*
X213262500Y-33263580D01*
X200762500Y-33850000D02*
X213262500Y-33850000D01*
X200762500Y-33850000D02*
X213262500Y-33850000D01*
X200762500Y-33850000D02*
X201889004Y-33263579D01*
X200762500Y-33850000D02*
X201889004Y-34436421D01*
X213262500Y-33850000D02*
X212135996Y-34436421D01*
X213262500Y-33850000D02*
X212135996Y-33263579D01*
D10*
X205112499Y-144645180D02*
X205112499Y-145645180D01*
X205112499Y-145645180D02*
X204731547Y-145645180D01*
X204731547Y-145645180D02*
X204636309Y-145597561D01*
X204636309Y-145597561D02*
X204588690Y-145549942D01*
X204588690Y-145549942D02*
X204541071Y-145454704D01*
X204541071Y-145454704D02*
X204541071Y-145311847D01*
X204541071Y-145311847D02*
X204588690Y-145216609D01*
X204588690Y-145216609D02*
X204636309Y-145168990D01*
X204636309Y-145168990D02*
X204731547Y-145121371D01*
X204731547Y-145121371D02*
X205112499Y-145121371D01*
X203541071Y-144740419D02*
X203588690Y-144692800D01*
X203588690Y-144692800D02*
X203731547Y-144645180D01*
X203731547Y-144645180D02*
X203826785Y-144645180D01*
X203826785Y-144645180D02*
X203969642Y-144692800D01*
X203969642Y-144692800D02*
X204064880Y-144788038D01*
X204064880Y-144788038D02*
X204112499Y-144883276D01*
X204112499Y-144883276D02*
X204160118Y-145073752D01*
X204160118Y-145073752D02*
X204160118Y-145216609D01*
X204160118Y-145216609D02*
X204112499Y-145407085D01*
X204112499Y-145407085D02*
X204064880Y-145502323D01*
X204064880Y-145502323D02*
X203969642Y-145597561D01*
X203969642Y-145597561D02*
X203826785Y-145645180D01*
X203826785Y-145645180D02*
X203731547Y-145645180D01*
X203731547Y-145645180D02*
X203588690Y-145597561D01*
X203588690Y-145597561D02*
X203541071Y-145549942D01*
X202779166Y-145168990D02*
X202636309Y-145121371D01*
X202636309Y-145121371D02*
X202588690Y-145073752D01*
X202588690Y-145073752D02*
X202541071Y-144978514D01*
X202541071Y-144978514D02*
X202541071Y-144835657D01*
X202541071Y-144835657D02*
X202588690Y-144740419D01*
X202588690Y-144740419D02*
X202636309Y-144692800D01*
X202636309Y-144692800D02*
X202731547Y-144645180D01*
X202731547Y-144645180D02*
X203112499Y-144645180D01*
X203112499Y-144645180D02*
X203112499Y-145645180D01*
X203112499Y-145645180D02*
X202779166Y-145645180D01*
X202779166Y-145645180D02*
X202683928Y-145597561D01*
X202683928Y-145597561D02*
X202636309Y-145549942D01*
X202636309Y-145549942D02*
X202588690Y-145454704D01*
X202588690Y-145454704D02*
X202588690Y-145359466D01*
X202588690Y-145359466D02*
X202636309Y-145264228D01*
X202636309Y-145264228D02*
X202683928Y-145216609D01*
X202683928Y-145216609D02*
X202779166Y-145168990D01*
X202779166Y-145168990D02*
X203112499Y-145168990D01*
X201493451Y-145645180D02*
X200922023Y-145645180D01*
X201207737Y-144645180D02*
X201207737Y-145645180D01*
X200588689Y-144645180D02*
X200588689Y-145645180D01*
X200160118Y-144645180D02*
X200160118Y-145168990D01*
X200160118Y-145168990D02*
X200207737Y-145264228D01*
X200207737Y-145264228D02*
X200302975Y-145311847D01*
X200302975Y-145311847D02*
X200445832Y-145311847D01*
X200445832Y-145311847D02*
X200541070Y-145264228D01*
X200541070Y-145264228D02*
X200588689Y-145216609D01*
X199683927Y-144645180D02*
X199683927Y-145311847D01*
X199683927Y-145645180D02*
X199731546Y-145597561D01*
X199731546Y-145597561D02*
X199683927Y-145549942D01*
X199683927Y-145549942D02*
X199636308Y-145597561D01*
X199636308Y-145597561D02*
X199683927Y-145645180D01*
X199683927Y-145645180D02*
X199683927Y-145549942D01*
X198779166Y-144692800D02*
X198874404Y-144645180D01*
X198874404Y-144645180D02*
X199064880Y-144645180D01*
X199064880Y-144645180D02*
X199160118Y-144692800D01*
X199160118Y-144692800D02*
X199207737Y-144740419D01*
X199207737Y-144740419D02*
X199255356Y-144835657D01*
X199255356Y-144835657D02*
X199255356Y-145121371D01*
X199255356Y-145121371D02*
X199207737Y-145216609D01*
X199207737Y-145216609D02*
X199160118Y-145264228D01*
X199160118Y-145264228D02*
X199064880Y-145311847D01*
X199064880Y-145311847D02*
X198874404Y-145311847D01*
X198874404Y-145311847D02*
X198779166Y-145264228D01*
X198350594Y-144645180D02*
X198350594Y-145645180D01*
X198255356Y-145026133D02*
X197969642Y-144645180D01*
X197969642Y-145311847D02*
X198350594Y-144930895D01*
X197541070Y-145311847D02*
X197541070Y-144645180D01*
X197541070Y-145216609D02*
X197493451Y-145264228D01*
X197493451Y-145264228D02*
X197398213Y-145311847D01*
X197398213Y-145311847D02*
X197255356Y-145311847D01*
X197255356Y-145311847D02*
X197160118Y-145264228D01*
X197160118Y-145264228D02*
X197112499Y-145168990D01*
X197112499Y-145168990D02*
X197112499Y-144645180D01*
X196255356Y-144692800D02*
X196350594Y-144645180D01*
X196350594Y-144645180D02*
X196541070Y-144645180D01*
X196541070Y-144645180D02*
X196636308Y-144692800D01*
X196636308Y-144692800D02*
X196683927Y-144788038D01*
X196683927Y-144788038D02*
X196683927Y-145168990D01*
X196683927Y-145168990D02*
X196636308Y-145264228D01*
X196636308Y-145264228D02*
X196541070Y-145311847D01*
X196541070Y-145311847D02*
X196350594Y-145311847D01*
X196350594Y-145311847D02*
X196255356Y-145264228D01*
X196255356Y-145264228D02*
X196207737Y-145168990D01*
X196207737Y-145168990D02*
X196207737Y-145073752D01*
X196207737Y-145073752D02*
X196683927Y-144978514D01*
X195826784Y-144692800D02*
X195731546Y-144645180D01*
X195731546Y-144645180D02*
X195541070Y-144645180D01*
X195541070Y-144645180D02*
X195445832Y-144692800D01*
X195445832Y-144692800D02*
X195398213Y-144788038D01*
X195398213Y-144788038D02*
X195398213Y-144835657D01*
X195398213Y-144835657D02*
X195445832Y-144930895D01*
X195445832Y-144930895D02*
X195541070Y-144978514D01*
X195541070Y-144978514D02*
X195683927Y-144978514D01*
X195683927Y-144978514D02*
X195779165Y-145026133D01*
X195779165Y-145026133D02*
X195826784Y-145121371D01*
X195826784Y-145121371D02*
X195826784Y-145168990D01*
X195826784Y-145168990D02*
X195779165Y-145264228D01*
X195779165Y-145264228D02*
X195683927Y-145311847D01*
X195683927Y-145311847D02*
X195541070Y-145311847D01*
X195541070Y-145311847D02*
X195445832Y-145264228D01*
X195017260Y-144692800D02*
X194922022Y-144645180D01*
X194922022Y-144645180D02*
X194731546Y-144645180D01*
X194731546Y-144645180D02*
X194636308Y-144692800D01*
X194636308Y-144692800D02*
X194588689Y-144788038D01*
X194588689Y-144788038D02*
X194588689Y-144835657D01*
X194588689Y-144835657D02*
X194636308Y-144930895D01*
X194636308Y-144930895D02*
X194731546Y-144978514D01*
X194731546Y-144978514D02*
X194874403Y-144978514D01*
X194874403Y-144978514D02*
X194969641Y-145026133D01*
X194969641Y-145026133D02*
X195017260Y-145121371D01*
X195017260Y-145121371D02*
X195017260Y-145168990D01*
X195017260Y-145168990D02*
X194969641Y-145264228D01*
X194969641Y-145264228D02*
X194874403Y-145311847D01*
X194874403Y-145311847D02*
X194731546Y-145311847D01*
X194731546Y-145311847D02*
X194636308Y-145264228D01*
X192874403Y-144645180D02*
X193445831Y-144645180D01*
X193160117Y-144645180D02*
X193160117Y-145645180D01*
X193160117Y-145645180D02*
X193255355Y-145502323D01*
X193255355Y-145502323D02*
X193350593Y-145407085D01*
X193350593Y-145407085D02*
X193445831Y-145359466D01*
X192445831Y-144740419D02*
X192398212Y-144692800D01*
X192398212Y-144692800D02*
X192445831Y-144645180D01*
X192445831Y-144645180D02*
X192493450Y-144692800D01*
X192493450Y-144692800D02*
X192445831Y-144740419D01*
X192445831Y-144740419D02*
X192445831Y-144645180D01*
X191493451Y-145645180D02*
X191969641Y-145645180D01*
X191969641Y-145645180D02*
X192017260Y-145168990D01*
X192017260Y-145168990D02*
X191969641Y-145216609D01*
X191969641Y-145216609D02*
X191874403Y-145264228D01*
X191874403Y-145264228D02*
X191636308Y-145264228D01*
X191636308Y-145264228D02*
X191541070Y-145216609D01*
X191541070Y-145216609D02*
X191493451Y-145168990D01*
X191493451Y-145168990D02*
X191445832Y-145073752D01*
X191445832Y-145073752D02*
X191445832Y-144835657D01*
X191445832Y-144835657D02*
X191493451Y-144740419D01*
X191493451Y-144740419D02*
X191541070Y-144692800D01*
X191541070Y-144692800D02*
X191636308Y-144645180D01*
X191636308Y-144645180D02*
X191874403Y-144645180D01*
X191874403Y-144645180D02*
X191969641Y-144692800D01*
X191969641Y-144692800D02*
X192017260Y-144740419D01*
X191112498Y-145645180D02*
X190445832Y-145645180D01*
X190445832Y-145645180D02*
X190874403Y-144645180D01*
X189302974Y-144645180D02*
X189302974Y-145311847D01*
X189302974Y-145216609D02*
X189255355Y-145264228D01*
X189255355Y-145264228D02*
X189160117Y-145311847D01*
X189160117Y-145311847D02*
X189017260Y-145311847D01*
X189017260Y-145311847D02*
X188922022Y-145264228D01*
X188922022Y-145264228D02*
X188874403Y-145168990D01*
X188874403Y-145168990D02*
X188874403Y-144645180D01*
X188874403Y-145168990D02*
X188826784Y-145264228D01*
X188826784Y-145264228D02*
X188731546Y-145311847D01*
X188731546Y-145311847D02*
X188588689Y-145311847D01*
X188588689Y-145311847D02*
X188493450Y-145264228D01*
X188493450Y-145264228D02*
X188445831Y-145168990D01*
X188445831Y-145168990D02*
X188445831Y-144645180D01*
X187969641Y-144645180D02*
X187969641Y-145311847D01*
X187969641Y-145216609D02*
X187922022Y-145264228D01*
X187922022Y-145264228D02*
X187826784Y-145311847D01*
X187826784Y-145311847D02*
X187683927Y-145311847D01*
X187683927Y-145311847D02*
X187588689Y-145264228D01*
X187588689Y-145264228D02*
X187541070Y-145168990D01*
X187541070Y-145168990D02*
X187541070Y-144645180D01*
X187541070Y-145168990D02*
X187493451Y-145264228D01*
X187493451Y-145264228D02*
X187398213Y-145311847D01*
X187398213Y-145311847D02*
X187255356Y-145311847D01*
X187255356Y-145311847D02*
X187160117Y-145264228D01*
X187160117Y-145264228D02*
X187112498Y-145168990D01*
X187112498Y-145168990D02*
X187112498Y-144645180D01*
D11*
%TO.C,H6*%
X222562500Y-70850000D02*
G75*
G02*
X216962500Y-70850000I-2800000J0D01*
G01*
X216962500Y-70850000D02*
G75*
G02*
X222562500Y-70850000I2800000J0D01*
G01*
%TO.C,H1*%
X132562500Y-90850000D02*
G75*
G02*
X126962500Y-90850000I-2800000J0D01*
G01*
X126962500Y-90850000D02*
G75*
G02*
X132562500Y-90850000I2800000J0D01*
G01*
%TO.C,H5*%
X132562500Y-70850000D02*
G75*
G02*
X126962500Y-70850000I-2800000J0D01*
G01*
X126962500Y-70850000D02*
G75*
G02*
X132562500Y-70850000I2800000J0D01*
G01*
%TO.C,H3*%
X132562500Y-140850000D02*
G75*
G02*
X126962500Y-140850000I-2800000J0D01*
G01*
X126962500Y-140850000D02*
G75*
G02*
X132562500Y-140850000I2800000J0D01*
G01*
%TO.C,H4*%
X182562500Y-140850000D02*
G75*
G02*
X176962500Y-140850000I-2800000J0D01*
G01*
X176962500Y-140850000D02*
G75*
G02*
X182562500Y-140850000I2800000J0D01*
G01*
%TO.C,H2*%
X182562500Y-90850000D02*
G75*
G02*
X176962500Y-90850000I-2800000J0D01*
G01*
X176962500Y-90850000D02*
G75*
G02*
X182562500Y-90850000I2800000J0D01*
G01*
%TD*%
M02*
