%TF.GenerationSoftware,KiCad,Pcbnew,8.0.5*%
%TF.CreationDate,2024-10-29T15:45:57-04:00*%
%TF.ProjectId,Controller,436f6e74-726f-46c6-9c65-722e6b696361,rev?*%
%TF.SameCoordinates,Original*%
%TF.FileFunction,Paste,Top*%
%TF.FilePolarity,Positive*%
%FSLAX46Y46*%
G04 Gerber Fmt 4.6, Leading zero omitted, Abs format (unit mm)*
G04 Created by KiCad (PCBNEW 8.0.5) date 2024-10-29 15:45:57*
%MOMM*%
%LPD*%
G01*
G04 APERTURE LIST*
G04 Aperture macros list*
%AMRoundRect*
0 Rectangle with rounded corners*
0 $1 Rounding radius*
0 $2 $3 $4 $5 $6 $7 $8 $9 X,Y pos of 4 corners*
0 Add a 4 corners polygon primitive as box body*
4,1,4,$2,$3,$4,$5,$6,$7,$8,$9,$2,$3,0*
0 Add four circle primitives for the rounded corners*
1,1,$1+$1,$2,$3*
1,1,$1+$1,$4,$5*
1,1,$1+$1,$6,$7*
1,1,$1+$1,$8,$9*
0 Add four rect primitives between the rounded corners*
20,1,$1+$1,$2,$3,$4,$5,0*
20,1,$1+$1,$4,$5,$6,$7,0*
20,1,$1+$1,$6,$7,$8,$9,0*
20,1,$1+$1,$8,$9,$2,$3,0*%
G04 Aperture macros list end*
%ADD10RoundRect,0.250000X-0.070711X0.565685X-0.565685X0.070711X0.070711X-0.565685X0.565685X-0.070711X0*%
%ADD11RoundRect,0.250000X-0.548008X1.007627X-1.007627X0.548008X0.548008X-1.007627X1.007627X-0.548008X0*%
%ADD12RoundRect,0.250000X0.070711X-0.565685X0.565685X-0.070711X-0.070711X0.565685X-0.565685X0.070711X0*%
%ADD13R,1.200000X0.600000*%
%ADD14R,0.700000X3.600000*%
G04 APERTURE END LIST*
D10*
%TO.C,R3*%
X223712107Y-62492893D03*
X222297893Y-63907107D03*
%TD*%
D11*
%TO.C,C6*%
X227222500Y-57725000D03*
X225136534Y-59810966D03*
%TD*%
D10*
%TO.C,R1*%
X220712107Y-62492893D03*
X219297893Y-63907107D03*
%TD*%
D12*
%TO.C,R4*%
X229472500Y-60607107D03*
X230886714Y-59192893D03*
%TD*%
D13*
%TO.C,U2*%
X219505000Y-77850000D03*
X219505000Y-78800000D03*
X219505000Y-79750000D03*
X221705000Y-79750000D03*
X221705000Y-78800000D03*
X221705000Y-77850000D03*
%TD*%
D14*
%TO.C,J2*%
X146725000Y-43450000D03*
X147725000Y-43450000D03*
X148725000Y-43450000D03*
X149725000Y-43450000D03*
X150725000Y-43450000D03*
X151725000Y-43450000D03*
X152725000Y-43450000D03*
X153725000Y-43450000D03*
X154725000Y-43450000D03*
X155725000Y-43450000D03*
X156725000Y-43450000D03*
X159725000Y-43450000D03*
X160725000Y-43450000D03*
X161725000Y-43450000D03*
X162725000Y-43450000D03*
X163725000Y-43450000D03*
X164725000Y-43450000D03*
X165725000Y-43450000D03*
X166725000Y-43450000D03*
X167725000Y-43450000D03*
X168725000Y-43450000D03*
X169725000Y-43450000D03*
X170725000Y-43450000D03*
X171725000Y-43450000D03*
X172725000Y-43450000D03*
X173725000Y-43450000D03*
X174725000Y-43450000D03*
X175725000Y-43450000D03*
X176725000Y-43450000D03*
X177725000Y-43450000D03*
X178725000Y-43450000D03*
X179725000Y-43450000D03*
X180725000Y-43450000D03*
X181725000Y-43450000D03*
X182725000Y-43450000D03*
X183725000Y-43450000D03*
X184725000Y-43450000D03*
X185725000Y-43450000D03*
X186725000Y-43450000D03*
X187725000Y-43450000D03*
X188725000Y-43450000D03*
X189725000Y-43450000D03*
X190725000Y-43450000D03*
X191725000Y-43450000D03*
X192725000Y-43450000D03*
X193725000Y-43450000D03*
X194725000Y-43450000D03*
X195725000Y-43450000D03*
X196725000Y-43450000D03*
X197725000Y-43450000D03*
X198725000Y-43450000D03*
X199725000Y-43450000D03*
X200725000Y-43450000D03*
X201725000Y-43450000D03*
X202725000Y-43450000D03*
X203725000Y-43450000D03*
X204725000Y-43450000D03*
X205725000Y-43450000D03*
X206725000Y-43450000D03*
X207725000Y-43450000D03*
X208725000Y-43450000D03*
X209725000Y-43450000D03*
X210725000Y-43450000D03*
X211725000Y-43450000D03*
X212725000Y-43450000D03*
X213725000Y-43450000D03*
X214725000Y-43450000D03*
X215725000Y-43450000D03*
X216725000Y-43450000D03*
X217725000Y-43450000D03*
X218725000Y-43450000D03*
X219725000Y-43450000D03*
X220725000Y-43450000D03*
X221725000Y-43450000D03*
X222725000Y-43450000D03*
X223725000Y-43450000D03*
X224725000Y-43450000D03*
X225725000Y-43450000D03*
X226725000Y-43450000D03*
X227725000Y-43450000D03*
X228725000Y-43450000D03*
X229725000Y-43450000D03*
%TD*%
M02*
