M48
; DRILL file {KiCad 8.0.5} date 2024-11-15T20:40:57-0500
; FORMAT={-:-/ absolute / inch / decimal}
; #@! TF.CreationDate,2024-11-15T20:40:57-05:00
; #@! TF.GenerationSoftware,Kicad,Pcbnew,8.0.5
; #@! TF.FileFunction,Plated,1,2,PTH
FMAT,2
INCH
; #@! TA.AperFunction,Plated,PTH,ViaDrill
T1C0.0118
; #@! TA.AperFunction,Plated,PTH,ComponentDrill
T2C0.0354
; #@! TA.AperFunction,Plated,PTH,ComponentDrill
T3C0.1260
%
G90
G05
T1
X5.1321Y-3.8571
X5.1537Y-2.2986
X5.3231Y-4.9219
X5.4352Y-2.506
X5.67Y-3.8571
X6.324Y-3.7459
X6.3873Y-2.3269
X6.393Y-2.0895
X6.5666Y-2.1869
X6.6012Y-3.9988
X6.9252Y-3.743
X7.3014Y-2.3926
X7.3094Y-3.8363
X7.3783Y-2.0405
X7.8844Y-3.7459
X7.9797Y-2.4173
X8.068Y-2.4175
X8.1124Y-2.4053
X8.269Y-2.1341
X8.2781Y-2.3399
X8.2981Y-2.1323
X8.3093Y-3.9988
X8.371Y-2.113
X8.4576Y-2.2725
X8.4837Y-2.3138
X8.4896Y-2.2721
X8.5658Y-2.2737
T3
X5.1088Y-2.7894
X5.1088Y-3.2618
X5.1088Y-4.5217
X8.6521Y-2.7894
X8.6521Y-3.2618
X8.6521Y-4.5217
T2
G00X8.1147Y-1.9549
M15
G01X8.1147Y-1.9234
M16
G05
G00X8.1147Y-2.2093
M15
G01X8.1147Y-2.1384
M16
G05
G00X8.6855Y-1.9549
M15
G01X8.6855Y-1.9234
M16
G05
G00X8.6855Y-2.2093
M15
G01X8.6855Y-2.1384
M16
G05
M30
