%TF.GenerationSoftware,KiCad,Pcbnew,8.0.5*%
%TF.CreationDate,2024-11-15T20:40:57-05:00*%
%TF.ProjectId,One-8-DM5,4f6e652d-382d-4444-9d35-2e6b69636164,rev?*%
%TF.SameCoordinates,Original*%
%TF.FileFunction,Profile,NP*%
%FSLAX46Y46*%
G04 Gerber Fmt 4.6, Leading zero omitted, Abs format (unit mm)*
G04 Created by KiCad (PCBNEW 8.0.5) date 2024-11-15 20:40:57*
%MOMM*%
%LPD*%
G01*
G04 APERTURE LIST*
%TA.AperFunction,Profile*%
%ADD10C,0.100000*%
%TD*%
G04 APERTURE END LIST*
D10*
X176762500Y-109850000D02*
X194262500Y-109850000D01*
X129762500Y-139850001D02*
G75*
G02*
X124762499Y-134850000I0J5000001D01*
G01*
X172762500Y-107850000D02*
X155262500Y-107850000D01*
X133762500Y-107850000D02*
X151262500Y-107850000D01*
X215762500Y-77850000D02*
X198262500Y-77850000D01*
X198262500Y-77850000D02*
G75*
G02*
X198262500Y-75850000I0J1000000D01*
G01*
X224762500Y-70850000D02*
G75*
G02*
X219762500Y-75850000I-5000000J0D01*
G01*
X176762500Y-77850000D02*
G75*
G02*
X176762500Y-75850000I0J1000000D01*
G01*
X133762500Y-109850000D02*
G75*
G02*
X133762500Y-107850000I0J1000000D01*
G01*
X219762500Y-109850000D02*
G75*
G02*
X224762500Y-114850000I0J-5000000D01*
G01*
X194262500Y-75850000D02*
X176762500Y-75850000D01*
X194262500Y-75850000D02*
G75*
G02*
X194262500Y-77850000I0J-1000000D01*
G01*
X176762500Y-109850000D02*
G75*
G02*
X176762500Y-107850000I0J1000000D01*
G01*
X219762500Y-45850000D02*
X129762500Y-45850000D01*
X194262500Y-107850000D02*
X176762500Y-107850000D01*
X172762500Y-75850000D02*
G75*
G02*
X172762500Y-77850000I0J-1000000D01*
G01*
X194262500Y-107850000D02*
G75*
G02*
X194262500Y-109850000I0J-1000000D01*
G01*
X219762500Y-77850000D02*
G75*
G02*
X219762500Y-75850000I0J1000000D01*
G01*
X215762500Y-109850000D02*
X198262500Y-109850000D01*
X219762500Y-77850000D02*
G75*
G02*
X224762500Y-82850000I0J-5000000D01*
G01*
X155262500Y-77850000D02*
X172762500Y-77850000D01*
X124762500Y-82850000D02*
G75*
G02*
X129762500Y-77850000I5000000J0D01*
G01*
X219762500Y-109850000D02*
G75*
G02*
X219762500Y-107850000I0J1000000D01*
G01*
X151262500Y-77850000D02*
X133762500Y-77850000D01*
X224762500Y-114850000D02*
X224762500Y-134850000D01*
X224762500Y-134850000D02*
G75*
G02*
X219762500Y-139850000I-5000000J0D01*
G01*
X151262500Y-107850000D02*
G75*
G02*
X151262500Y-109850000I0J-1000000D01*
G01*
X224762500Y-102850000D02*
G75*
G02*
X219762500Y-107850000I-5000000J0D01*
G01*
X198262500Y-107850000D02*
X215762500Y-107850000D01*
X129762500Y-139850001D02*
X219762500Y-139850000D01*
X124762500Y-82850000D02*
X124762500Y-102850000D01*
X219762500Y-45850000D02*
G75*
G02*
X224762500Y-50850000I0J-5000000D01*
G01*
X124762500Y-50850000D02*
G75*
G02*
X129762500Y-45850000I5000000J0D01*
G01*
X129762500Y-107850000D02*
G75*
G02*
X124762500Y-102850000I0J5000000D01*
G01*
X155262500Y-109850000D02*
G75*
G02*
X155262500Y-107850000I0J1000000D01*
G01*
X133762500Y-75850000D02*
X151262500Y-75850000D01*
X129762500Y-75850000D02*
G75*
G02*
X124762500Y-70850000I0J5000000D01*
G01*
X224762500Y-82850000D02*
X224762500Y-102850000D01*
X215762500Y-75850000D02*
G75*
G02*
X215762500Y-77850000I0J-1000000D01*
G01*
X198262500Y-109850000D02*
G75*
G02*
X198262500Y-107850000I0J1000000D01*
G01*
X129762500Y-75850000D02*
G75*
G02*
X129762500Y-77850000I0J-1000000D01*
G01*
X176762500Y-77850000D02*
X194262500Y-77850000D01*
X133762500Y-77850000D02*
G75*
G02*
X133762500Y-75850000I0J1000000D01*
G01*
X172762500Y-107850000D02*
G75*
G02*
X172762500Y-109850000I0J-1000000D01*
G01*
X151262500Y-75850000D02*
G75*
G02*
X151262500Y-77850000I0J-1000000D01*
G01*
X124762500Y-114850000D02*
G75*
G02*
X129762500Y-109850000I5000000J0D01*
G01*
X224762500Y-70850000D02*
X224762500Y-50850000D01*
X124762500Y-70850000D02*
X124762500Y-50850000D01*
X198262500Y-75850000D02*
X215762500Y-75850000D01*
X155262500Y-77850000D02*
G75*
G02*
X155262500Y-75850000I0J1000000D01*
G01*
X124762500Y-114850000D02*
X124762500Y-134850000D01*
X172762500Y-75850000D02*
X155262500Y-75850000D01*
X155262500Y-109850000D02*
X172762500Y-109850000D01*
X151262500Y-109850000D02*
X133762500Y-109850000D01*
X215762500Y-107850000D02*
G75*
G02*
X215762500Y-109850000I0J-1000000D01*
G01*
X129762500Y-107850000D02*
G75*
G02*
X129762500Y-109850000I0J-1000000D01*
G01*
M02*
