%TF.GenerationSoftware,KiCad,Pcbnew,8.0.5*%
%TF.CreationDate,2024-11-15T20:40:57-05:00*%
%TF.ProjectId,One-8-DM5,4f6e652d-382d-4444-9d35-2e6b69636164,rev?*%
%TF.SameCoordinates,Original*%
%TF.FileFunction,Soldermask,Bot*%
%TF.FilePolarity,Negative*%
%FSLAX46Y46*%
G04 Gerber Fmt 4.6, Leading zero omitted, Abs format (unit mm)*
G04 Created by KiCad (PCBNEW 8.0.5) date 2024-11-15 20:40:57*
%MOMM*%
%LPD*%
G01*
G04 APERTURE LIST*
%ADD10C,0.500000*%
%ADD11C,1.700000*%
%ADD12C,5.600000*%
%ADD13O,1.500000X3.300000*%
%ADD14O,1.500000X2.300000*%
%ADD15R,2.800000X2.200000*%
%ADD16R,2.800000X2.800000*%
%ADD17R,2.800000X2.600000*%
G04 APERTURE END LIST*
D10*
%TO.C,H9*%
X174012500Y-76100000D03*
X174012500Y-77600000D03*
X174762500Y-76100000D03*
X174762500Y-77600000D03*
X175512500Y-76100000D03*
X175512500Y-77600000D03*
%TD*%
D11*
%TO.C,J4*%
X171212500Y-136250000D03*
X171212500Y-129250000D03*
%TD*%
%TO.C,J3*%
X158712500Y-136250000D03*
X158712500Y-129250000D03*
%TD*%
D12*
%TO.C,H4*%
X219762500Y-82850000D03*
%TD*%
D11*
%TO.C,J9*%
X140512500Y-104250000D03*
X140512500Y-97250000D03*
%TD*%
%TO.C,J1*%
X133712500Y-136250000D03*
X133712500Y-129250000D03*
%TD*%
D12*
%TO.C,H5*%
X129762500Y-114850000D03*
%TD*%
%TO.C,H2*%
X219762500Y-70850000D03*
%TD*%
D10*
%TO.C,H16*%
X217012500Y-108100000D03*
X217012500Y-109600000D03*
X217762500Y-108100000D03*
X217762500Y-109600000D03*
X218512500Y-108100000D03*
X218512500Y-109600000D03*
%TD*%
%TO.C,H7*%
X131012500Y-76100000D03*
X131012500Y-77600000D03*
X131762500Y-76100000D03*
X131762500Y-77600000D03*
X132512500Y-76100000D03*
X132512500Y-77600000D03*
%TD*%
D11*
%TO.C,J16*%
X145112500Y-49255000D03*
X145112500Y-56255000D03*
%TD*%
%TO.C,J26*%
X155062500Y-104250000D03*
X155062500Y-97250000D03*
%TD*%
%TO.C,J7*%
X208712500Y-136250000D03*
X208712500Y-129250000D03*
%TD*%
%TO.C,J27*%
X169562500Y-104250000D03*
X169562500Y-97250000D03*
%TD*%
D10*
%TO.C,H13*%
X152512500Y-108100000D03*
X152512500Y-109600000D03*
X153262500Y-108100000D03*
X153262500Y-109600000D03*
X154012500Y-108100000D03*
X154012500Y-109600000D03*
%TD*%
%TO.C,H10*%
X195512500Y-76100000D03*
X195512500Y-77600000D03*
X196262500Y-76100000D03*
X196262500Y-77600000D03*
X197012500Y-76100000D03*
X197012500Y-77600000D03*
%TD*%
D13*
%TO.C,J23*%
X206112500Y-55215000D03*
X220612500Y-55215000D03*
D14*
X206112500Y-49255000D03*
X220612500Y-49255000D03*
%TD*%
D11*
%TO.C,J22*%
X182612500Y-49255000D03*
X182612500Y-56255000D03*
%TD*%
D10*
%TO.C,H15*%
X195512500Y-108100000D03*
X195512500Y-109600000D03*
X196262500Y-108100000D03*
X196262500Y-109600000D03*
X197012500Y-108100000D03*
X197012500Y-109600000D03*
%TD*%
D11*
%TO.C,J2*%
X146212500Y-136250000D03*
X146212500Y-129250000D03*
%TD*%
D10*
%TO.C,H14*%
X174012500Y-108100000D03*
X174012500Y-109600000D03*
X174762500Y-108100000D03*
X174762500Y-109600000D03*
X175512500Y-108100000D03*
X175512500Y-109600000D03*
%TD*%
D11*
%TO.C,J6*%
X196212500Y-136250000D03*
X196212500Y-129250000D03*
%TD*%
D12*
%TO.C,H1*%
X129762500Y-70850000D03*
%TD*%
D11*
%TO.C,J31*%
X213062500Y-104250000D03*
X213062500Y-97250000D03*
%TD*%
%TO.C,J18*%
X157612500Y-49255000D03*
X157612500Y-56255000D03*
%TD*%
D10*
%TO.C,H11*%
X217012500Y-76100000D03*
X217012500Y-77600000D03*
X217762500Y-76100000D03*
X217762500Y-77600000D03*
X218512500Y-76100000D03*
X218512500Y-77600000D03*
%TD*%
%TO.C,H12*%
X131012500Y-108100000D03*
X131012500Y-109600000D03*
X131762500Y-108100000D03*
X131762500Y-109600000D03*
X132512500Y-108100000D03*
X132512500Y-109600000D03*
%TD*%
D11*
%TO.C,J13*%
X132612500Y-49255000D03*
X132612500Y-56255000D03*
%TD*%
%TO.C,J34*%
X184062500Y-104250000D03*
X184062500Y-97250000D03*
%TD*%
D10*
%TO.C,H8*%
X152512500Y-76100000D03*
X152512500Y-77600000D03*
X153262500Y-76100000D03*
X153262500Y-77600000D03*
X154012500Y-76100000D03*
X154012500Y-77600000D03*
%TD*%
D11*
%TO.C,J20*%
X170112500Y-49255000D03*
X170112500Y-56255000D03*
%TD*%
%TO.C,J30*%
X198562500Y-104250000D03*
X198562500Y-97250000D03*
%TD*%
D12*
%TO.C,H3*%
X129762500Y-82850000D03*
%TD*%
%TO.C,H6*%
X219762500Y-114850000D03*
%TD*%
D11*
%TO.C,J5*%
X183712500Y-136250000D03*
X183712500Y-129250000D03*
%TD*%
%TO.C,J19*%
X163895800Y-49255000D03*
X163895800Y-56255000D03*
D15*
X160195800Y-50155000D03*
X167595800Y-48155000D03*
D16*
X167595800Y-57555000D03*
D17*
X163145800Y-61555000D03*
%TD*%
D11*
%TO.C,J38*%
X202462500Y-136250000D03*
X202462500Y-129250000D03*
D15*
X206162500Y-135350000D03*
X198762500Y-137350000D03*
D16*
X198762500Y-127950000D03*
D17*
X203212500Y-123950000D03*
%TD*%
D11*
%TO.C,J8*%
X139962500Y-136250000D03*
X139962500Y-129250000D03*
D15*
X143662500Y-135350000D03*
X136262500Y-137350000D03*
D16*
X136262500Y-127950000D03*
D17*
X140712500Y-123950000D03*
%TD*%
D11*
%TO.C,J39*%
X214962500Y-136250000D03*
X214962500Y-129250000D03*
D15*
X218662500Y-135350000D03*
X211262500Y-137350000D03*
D16*
X211262500Y-127950000D03*
D17*
X215712500Y-123950000D03*
%TD*%
D11*
%TO.C,J12*%
X133312500Y-104250000D03*
X133312500Y-97250000D03*
D15*
X137012500Y-103350000D03*
X129612500Y-105350000D03*
D16*
X129612500Y-95950000D03*
D17*
X134062500Y-91950000D03*
%TD*%
D11*
%TO.C,J21*%
X176412500Y-49255000D03*
X176412500Y-56255000D03*
D15*
X172712500Y-50155000D03*
X180112500Y-48155000D03*
D16*
X180112500Y-57555000D03*
D17*
X175662500Y-61555000D03*
%TD*%
D11*
%TO.C,J32*%
X164962500Y-136250000D03*
X164962500Y-129250000D03*
D15*
X168662500Y-135350000D03*
X161262500Y-137350000D03*
D16*
X161262500Y-127950000D03*
D17*
X165712500Y-123950000D03*
%TD*%
D11*
%TO.C,J28*%
X205812500Y-104250000D03*
X205812500Y-97250000D03*
D15*
X209512500Y-103350000D03*
X202112500Y-105350000D03*
D16*
X202112500Y-95950000D03*
D17*
X206562500Y-91950000D03*
%TD*%
D11*
%TO.C,J25*%
X162312500Y-104250000D03*
X162312500Y-97250000D03*
D15*
X166012500Y-103350000D03*
X158612500Y-105350000D03*
D16*
X158612500Y-95950000D03*
D17*
X163062500Y-91950000D03*
%TD*%
D11*
%TO.C,J35*%
X176812500Y-104250000D03*
X176812500Y-97250000D03*
D15*
X180512500Y-103350000D03*
X173112500Y-105350000D03*
D16*
X173112500Y-95950000D03*
D17*
X177562500Y-91950000D03*
%TD*%
D11*
%TO.C,J17*%
X151379200Y-49255000D03*
X151379200Y-56255000D03*
D15*
X147679200Y-50155000D03*
X155079200Y-48155000D03*
D16*
X155079200Y-57555000D03*
D17*
X150629200Y-61555000D03*
%TD*%
D11*
%TO.C,J10*%
X147812500Y-104250000D03*
X147812500Y-97250000D03*
D15*
X151512500Y-103350000D03*
X144112500Y-105350000D03*
D16*
X144112500Y-95950000D03*
D17*
X148562500Y-91950000D03*
%TD*%
D11*
%TO.C,J29*%
X152462500Y-136250000D03*
X152462500Y-129250000D03*
D15*
X156162500Y-135350000D03*
X148762500Y-137350000D03*
D16*
X148762500Y-127950000D03*
D17*
X153212500Y-123950000D03*
%TD*%
D11*
%TO.C,J37*%
X189962500Y-136250000D03*
X189962500Y-129250000D03*
D15*
X193662500Y-135350000D03*
X186262500Y-137350000D03*
D16*
X186262500Y-127950000D03*
D17*
X190712500Y-123950000D03*
%TD*%
D11*
%TO.C,J36*%
X191312500Y-104250000D03*
X191312500Y-97250000D03*
D15*
X195012500Y-103350000D03*
X187612500Y-105350000D03*
D16*
X187612500Y-95950000D03*
D17*
X192062500Y-91950000D03*
%TD*%
D11*
%TO.C,J15*%
X138862500Y-49255000D03*
X138862500Y-56255000D03*
D15*
X135162500Y-50155000D03*
X142562500Y-48155000D03*
D16*
X142562500Y-57555000D03*
D17*
X138112500Y-61555000D03*
%TD*%
D11*
%TO.C,J33*%
X177462500Y-136250000D03*
X177462500Y-129250000D03*
D15*
X181162500Y-135350000D03*
X173762500Y-137350000D03*
D16*
X173762500Y-127950000D03*
D17*
X178212500Y-123950000D03*
%TD*%
D11*
%TO.C,J24*%
X195112500Y-49255000D03*
X195112500Y-56255000D03*
D15*
X191412500Y-50155000D03*
X198812500Y-48155000D03*
D16*
X198812500Y-57555000D03*
D17*
X194362500Y-61555000D03*
%TD*%
M02*
