%TF.GenerationSoftware,KiCad,Pcbnew,8.0.5*%
%TF.CreationDate,2024-11-15T20:40:57-05:00*%
%TF.ProjectId,One-8-DM5,4f6e652d-382d-4444-9d35-2e6b69636164,rev?*%
%TF.SameCoordinates,Original*%
%TF.FileFunction,Paste,Bot*%
%TF.FilePolarity,Positive*%
%FSLAX46Y46*%
G04 Gerber Fmt 4.6, Leading zero omitted, Abs format (unit mm)*
G04 Created by KiCad (PCBNEW 8.0.5) date 2024-11-15 20:40:57*
%MOMM*%
%LPD*%
G01*
G04 APERTURE LIST*
%ADD10R,2.800000X2.200000*%
%ADD11R,2.800000X2.800000*%
%ADD12R,2.800000X2.600000*%
G04 APERTURE END LIST*
D10*
%TO.C,J19*%
X160195800Y-50155000D03*
X167595800Y-48155000D03*
D11*
X167595800Y-57555000D03*
D12*
X163145800Y-61555000D03*
%TD*%
D10*
%TO.C,J38*%
X206162500Y-135350000D03*
X198762500Y-137350000D03*
D11*
X198762500Y-127950000D03*
D12*
X203212500Y-123950000D03*
%TD*%
D10*
%TO.C,J8*%
X143662500Y-135350000D03*
X136262500Y-137350000D03*
D11*
X136262500Y-127950000D03*
D12*
X140712500Y-123950000D03*
%TD*%
D10*
%TO.C,J39*%
X218662500Y-135350000D03*
X211262500Y-137350000D03*
D11*
X211262500Y-127950000D03*
D12*
X215712500Y-123950000D03*
%TD*%
D10*
%TO.C,J12*%
X137012500Y-103350000D03*
X129612500Y-105350000D03*
D11*
X129612500Y-95950000D03*
D12*
X134062500Y-91950000D03*
%TD*%
D10*
%TO.C,J21*%
X172712500Y-50155000D03*
X180112500Y-48155000D03*
D11*
X180112500Y-57555000D03*
D12*
X175662500Y-61555000D03*
%TD*%
D10*
%TO.C,J32*%
X168662500Y-135350000D03*
X161262500Y-137350000D03*
D11*
X161262500Y-127950000D03*
D12*
X165712500Y-123950000D03*
%TD*%
D10*
%TO.C,J28*%
X209512500Y-103350000D03*
X202112500Y-105350000D03*
D11*
X202112500Y-95950000D03*
D12*
X206562500Y-91950000D03*
%TD*%
D10*
%TO.C,J25*%
X166012500Y-103350000D03*
X158612500Y-105350000D03*
D11*
X158612500Y-95950000D03*
D12*
X163062500Y-91950000D03*
%TD*%
D10*
%TO.C,J35*%
X180512500Y-103350000D03*
X173112500Y-105350000D03*
D11*
X173112500Y-95950000D03*
D12*
X177562500Y-91950000D03*
%TD*%
D10*
%TO.C,J17*%
X147679200Y-50155000D03*
X155079200Y-48155000D03*
D11*
X155079200Y-57555000D03*
D12*
X150629200Y-61555000D03*
%TD*%
D10*
%TO.C,J10*%
X151512500Y-103350000D03*
X144112500Y-105350000D03*
D11*
X144112500Y-95950000D03*
D12*
X148562500Y-91950000D03*
%TD*%
D10*
%TO.C,J29*%
X156162500Y-135350000D03*
X148762500Y-137350000D03*
D11*
X148762500Y-127950000D03*
D12*
X153212500Y-123950000D03*
%TD*%
D10*
%TO.C,J37*%
X193662500Y-135350000D03*
X186262500Y-137350000D03*
D11*
X186262500Y-127950000D03*
D12*
X190712500Y-123950000D03*
%TD*%
D10*
%TO.C,J36*%
X195012500Y-103350000D03*
X187612500Y-105350000D03*
D11*
X187612500Y-95950000D03*
D12*
X192062500Y-91950000D03*
%TD*%
D10*
%TO.C,J15*%
X135162500Y-50155000D03*
X142562500Y-48155000D03*
D11*
X142562500Y-57555000D03*
D12*
X138112500Y-61555000D03*
%TD*%
D10*
%TO.C,J33*%
X181162500Y-135350000D03*
X173762500Y-137350000D03*
D11*
X173762500Y-127950000D03*
D12*
X178212500Y-123950000D03*
%TD*%
D10*
%TO.C,J24*%
X191412500Y-50155000D03*
X198812500Y-48155000D03*
D11*
X198812500Y-57555000D03*
D12*
X194362500Y-61555000D03*
%TD*%
M02*
