%TF.GenerationSoftware,KiCad,Pcbnew,8.0.5*%
%TF.CreationDate,2024-11-15T20:40:57-05:00*%
%TF.ProjectId,One-8-DM5,4f6e652d-382d-4444-9d35-2e6b69636164,rev?*%
%TF.SameCoordinates,Original*%
%TF.FileFunction,Soldermask,Top*%
%TF.FilePolarity,Negative*%
%FSLAX46Y46*%
G04 Gerber Fmt 4.6, Leading zero omitted, Abs format (unit mm)*
G04 Created by KiCad (PCBNEW 8.0.5) date 2024-11-15 20:40:57*
%MOMM*%
%LPD*%
G01*
G04 APERTURE LIST*
%ADD10C,0.500000*%
%ADD11C,1.700000*%
%ADD12R,2.800000X2.200000*%
%ADD13R,2.800000X2.800000*%
%ADD14R,2.800000X2.600000*%
%ADD15C,5.600000*%
%ADD16R,0.300000X2.600000*%
%ADD17O,1.500000X3.300000*%
%ADD18O,1.500000X2.300000*%
G04 APERTURE END LIST*
D10*
%TO.C,H9*%
X174012500Y-76100000D03*
X174012500Y-77600000D03*
X174762500Y-76100000D03*
X174762500Y-77600000D03*
X175512500Y-76100000D03*
X175512500Y-77600000D03*
%TD*%
D11*
%TO.C,J4*%
X171212500Y-136250000D03*
X171212500Y-129250000D03*
D12*
X167512500Y-135350000D03*
X174912500Y-137350000D03*
D13*
X174912500Y-127950000D03*
D14*
X170462500Y-123950000D03*
%TD*%
D11*
%TO.C,J3*%
X158712500Y-136250000D03*
X158712500Y-129250000D03*
D12*
X155012500Y-135350000D03*
X162412500Y-137350000D03*
D13*
X162412500Y-127950000D03*
D14*
X157962500Y-123950000D03*
%TD*%
D15*
%TO.C,H4*%
X219762500Y-82850000D03*
%TD*%
D11*
%TO.C,J9*%
X140512500Y-104250000D03*
X140512500Y-97250000D03*
D12*
X136812500Y-103350000D03*
X144212500Y-105350000D03*
D13*
X144212500Y-95950000D03*
D14*
X139762500Y-91950000D03*
%TD*%
D11*
%TO.C,J1*%
X133712500Y-136250000D03*
X133712500Y-129250000D03*
D12*
X130012500Y-135350000D03*
X137412500Y-137350000D03*
D13*
X137412500Y-127950000D03*
D14*
X132962500Y-123950000D03*
%TD*%
D15*
%TO.C,H5*%
X129762500Y-114850000D03*
%TD*%
%TO.C,H2*%
X219762500Y-70850000D03*
%TD*%
D10*
%TO.C,H16*%
X217012500Y-108100000D03*
X217012500Y-109600000D03*
X217762500Y-108100000D03*
X217762500Y-109600000D03*
X218512500Y-108100000D03*
X218512500Y-109600000D03*
%TD*%
%TO.C,H7*%
X131012500Y-76100000D03*
X131012500Y-77600000D03*
X131762500Y-76100000D03*
X131762500Y-77600000D03*
X132512500Y-76100000D03*
X132512500Y-77600000D03*
%TD*%
D11*
%TO.C,J16*%
X145112500Y-49255000D03*
X145112500Y-56255000D03*
D12*
X148812500Y-50155000D03*
X141412500Y-48155000D03*
D13*
X141412500Y-57555000D03*
D14*
X145862500Y-61555000D03*
%TD*%
D11*
%TO.C,J26*%
X155062500Y-104250000D03*
X155062500Y-97250000D03*
D12*
X151362500Y-103350000D03*
X158762500Y-105350000D03*
D13*
X158762500Y-95950000D03*
D14*
X154312500Y-91950000D03*
%TD*%
D11*
%TO.C,J7*%
X208712500Y-136250000D03*
X208712500Y-129250000D03*
D12*
X205012500Y-135350000D03*
X212412500Y-137350000D03*
D13*
X212412500Y-127950000D03*
D14*
X207962500Y-123950000D03*
%TD*%
D11*
%TO.C,J27*%
X169562500Y-104250000D03*
X169562500Y-97250000D03*
D12*
X165862500Y-103350000D03*
X173262500Y-105350000D03*
D13*
X173262500Y-95950000D03*
D14*
X168812500Y-91950000D03*
%TD*%
D10*
%TO.C,H13*%
X152512500Y-108100000D03*
X152512500Y-109600000D03*
X153262500Y-108100000D03*
X153262500Y-109600000D03*
X154012500Y-108100000D03*
X154012500Y-109600000D03*
%TD*%
%TO.C,H10*%
X195512500Y-76100000D03*
X195512500Y-77600000D03*
X196262500Y-76100000D03*
X196262500Y-77600000D03*
X197012500Y-76100000D03*
X197012500Y-77600000D03*
%TD*%
D16*
%TO.C,J23*%
X208862500Y-55975000D03*
X209362500Y-55975000D03*
X209862500Y-55975000D03*
X210362500Y-55975000D03*
X210862500Y-55975000D03*
X211362500Y-55975000D03*
X211862500Y-55975000D03*
X212362500Y-55975000D03*
X212862500Y-55975000D03*
X213362500Y-55975000D03*
X213862500Y-55975000D03*
X214362500Y-55975000D03*
X214862500Y-55975000D03*
X215362500Y-55975000D03*
X215862500Y-55975000D03*
X216362500Y-55975000D03*
X216862500Y-55975000D03*
X217362500Y-55975000D03*
X217862500Y-55975000D03*
D17*
X206112500Y-55215000D03*
X220612500Y-55215000D03*
D18*
X206112500Y-49255000D03*
X220612500Y-49255000D03*
%TD*%
D11*
%TO.C,J22*%
X182612500Y-49255000D03*
X182612500Y-56255000D03*
D12*
X186312500Y-50155000D03*
X178912500Y-48155000D03*
D13*
X178912500Y-57555000D03*
D14*
X183362500Y-61555000D03*
%TD*%
D10*
%TO.C,H15*%
X195512500Y-108100000D03*
X195512500Y-109600000D03*
X196262500Y-108100000D03*
X196262500Y-109600000D03*
X197012500Y-108100000D03*
X197012500Y-109600000D03*
%TD*%
D11*
%TO.C,J2*%
X146212500Y-136250000D03*
X146212500Y-129250000D03*
D12*
X142512500Y-135350000D03*
X149912500Y-137350000D03*
D13*
X149912500Y-127950000D03*
D14*
X145462500Y-123950000D03*
%TD*%
D10*
%TO.C,H14*%
X174012500Y-108100000D03*
X174012500Y-109600000D03*
X174762500Y-108100000D03*
X174762500Y-109600000D03*
X175512500Y-108100000D03*
X175512500Y-109600000D03*
%TD*%
D11*
%TO.C,J6*%
X196212500Y-136250000D03*
X196212500Y-129250000D03*
D12*
X192512500Y-135350000D03*
X199912500Y-137350000D03*
D13*
X199912500Y-127950000D03*
D14*
X195462500Y-123950000D03*
%TD*%
D15*
%TO.C,H1*%
X129762500Y-70850000D03*
%TD*%
D11*
%TO.C,J31*%
X213062500Y-104250000D03*
X213062500Y-97250000D03*
D12*
X209362500Y-103350000D03*
X216762500Y-105350000D03*
D13*
X216762500Y-95950000D03*
D14*
X212312500Y-91950000D03*
%TD*%
D11*
%TO.C,J18*%
X157612500Y-49255000D03*
X157612500Y-56255000D03*
D12*
X161312500Y-50155000D03*
X153912500Y-48155000D03*
D13*
X153912500Y-57555000D03*
D14*
X158362500Y-61555000D03*
%TD*%
D10*
%TO.C,H11*%
X217012500Y-76100000D03*
X217012500Y-77600000D03*
X217762500Y-76100000D03*
X217762500Y-77600000D03*
X218512500Y-76100000D03*
X218512500Y-77600000D03*
%TD*%
%TO.C,H12*%
X131012500Y-108100000D03*
X131012500Y-109600000D03*
X131762500Y-108100000D03*
X131762500Y-109600000D03*
X132512500Y-108100000D03*
X132512500Y-109600000D03*
%TD*%
D11*
%TO.C,J13*%
X132612500Y-49255000D03*
X132612500Y-56255000D03*
D12*
X136312500Y-50155000D03*
X128912500Y-48155000D03*
D13*
X128912500Y-57555000D03*
D14*
X133362500Y-61555000D03*
%TD*%
D11*
%TO.C,J34*%
X184062500Y-104250000D03*
X184062500Y-97250000D03*
D12*
X180362500Y-103350000D03*
X187762500Y-105350000D03*
D13*
X187762500Y-95950000D03*
D14*
X183312500Y-91950000D03*
%TD*%
D10*
%TO.C,H8*%
X152512500Y-76100000D03*
X152512500Y-77600000D03*
X153262500Y-76100000D03*
X153262500Y-77600000D03*
X154012500Y-76100000D03*
X154012500Y-77600000D03*
%TD*%
D11*
%TO.C,J20*%
X170112500Y-49255000D03*
X170112500Y-56255000D03*
D12*
X173812500Y-50155000D03*
X166412500Y-48155000D03*
D13*
X166412500Y-57555000D03*
D14*
X170862500Y-61555000D03*
%TD*%
D11*
%TO.C,J30*%
X198562500Y-104250000D03*
X198562500Y-97250000D03*
D12*
X194862500Y-103350000D03*
X202262500Y-105350000D03*
D13*
X202262500Y-95950000D03*
D14*
X197812500Y-91950000D03*
%TD*%
D15*
%TO.C,H3*%
X129762500Y-82850000D03*
%TD*%
%TO.C,H6*%
X219762500Y-114850000D03*
%TD*%
D11*
%TO.C,J5*%
X183712500Y-136250000D03*
X183712500Y-129250000D03*
D12*
X180012500Y-135350000D03*
X187412500Y-137350000D03*
D13*
X187412500Y-127950000D03*
D14*
X182962500Y-123950000D03*
%TD*%
D11*
%TO.C,J19*%
X163895800Y-49255000D03*
X163895800Y-56255000D03*
%TD*%
%TO.C,J38*%
X202462500Y-136250000D03*
X202462500Y-129250000D03*
%TD*%
%TO.C,J8*%
X139962500Y-136250000D03*
X139962500Y-129250000D03*
%TD*%
%TO.C,J39*%
X214962500Y-136250000D03*
X214962500Y-129250000D03*
%TD*%
%TO.C,J12*%
X133312500Y-104250000D03*
X133312500Y-97250000D03*
%TD*%
%TO.C,J21*%
X176412500Y-49255000D03*
X176412500Y-56255000D03*
%TD*%
%TO.C,J32*%
X164962500Y-136250000D03*
X164962500Y-129250000D03*
%TD*%
%TO.C,J28*%
X205812500Y-104250000D03*
X205812500Y-97250000D03*
%TD*%
%TO.C,J25*%
X162312500Y-104250000D03*
X162312500Y-97250000D03*
%TD*%
%TO.C,J35*%
X176812500Y-104250000D03*
X176812500Y-97250000D03*
%TD*%
%TO.C,J17*%
X151379200Y-49255000D03*
X151379200Y-56255000D03*
%TD*%
%TO.C,J10*%
X147812500Y-104250000D03*
X147812500Y-97250000D03*
%TD*%
%TO.C,J29*%
X152462500Y-136250000D03*
X152462500Y-129250000D03*
%TD*%
%TO.C,J37*%
X189962500Y-136250000D03*
X189962500Y-129250000D03*
%TD*%
%TO.C,J36*%
X191312500Y-104250000D03*
X191312500Y-97250000D03*
%TD*%
%TO.C,J15*%
X138862500Y-49255000D03*
X138862500Y-56255000D03*
%TD*%
%TO.C,J33*%
X177462500Y-136250000D03*
X177462500Y-129250000D03*
%TD*%
%TO.C,J24*%
X195112500Y-49255000D03*
X195112500Y-56255000D03*
%TD*%
M02*
