M48
; DRILL file {KiCad 8.0.5} date 2024-11-15T20:40:57-0500
; FORMAT={-:-/ absolute / inch / decimal}
; #@! TF.CreationDate,2024-11-15T20:40:57-05:00
; #@! TF.GenerationSoftware,Kicad,Pcbnew,8.0.5
; #@! TF.FileFunction,NonPlated,1,2,NPTH
FMAT,2
INCH
; #@! TA.AperFunction,NonPlated,NPTH,ComponentDrill
T1C0.0197
; #@! TA.AperFunction,NonPlated,NPTH,ComponentDrill
T2C0.0669
%
G90
G05
T1
X5.158Y-2.9961
X5.158Y-3.0551
X5.158Y-4.2559
X5.158Y-4.315
X5.1875Y-2.9961
X5.1875Y-3.0551
X5.1875Y-4.2559
X5.1875Y-4.315
X5.217Y-2.9961
X5.217Y-3.0551
X5.217Y-4.2559
X5.217Y-4.315
X6.0044Y-2.9961
X6.0044Y-3.0551
X6.0044Y-4.2559
X6.0044Y-4.315
X6.034Y-2.9961
X6.034Y-3.0551
X6.034Y-4.2559
X6.034Y-4.315
X6.0635Y-2.9961
X6.0635Y-3.0551
X6.0635Y-4.2559
X6.0635Y-4.315
X6.8509Y-2.9961
X6.8509Y-3.0551
X6.8509Y-4.2559
X6.8509Y-4.315
X6.8804Y-2.9961
X6.8804Y-3.0551
X6.8804Y-4.2559
X6.8804Y-4.315
X6.9099Y-2.9961
X6.9099Y-3.0551
X6.9099Y-4.2559
X6.9099Y-4.315
X7.6973Y-2.9961
X7.6973Y-3.0551
X7.6973Y-4.2559
X7.6973Y-4.315
X7.7269Y-2.9961
X7.7269Y-3.0551
X7.7269Y-4.2559
X7.7269Y-4.315
X7.7564Y-2.9961
X7.7564Y-3.0551
X7.7564Y-4.2559
X7.7564Y-4.315
X8.5438Y-2.9961
X8.5438Y-3.0551
X8.5438Y-4.2559
X8.5438Y-4.315
X8.5733Y-2.9961
X8.5733Y-3.0551
X8.5733Y-4.2559
X8.5733Y-4.315
X8.6029Y-2.9961
X8.6029Y-3.0551
X8.6029Y-4.2559
X8.6029Y-4.315
T2
X5.221Y-1.9392
X5.221Y-2.2148
X5.2485Y-3.8287
X5.2485Y-4.1043
X5.2643Y-5.0886
X5.2643Y-5.3642
X5.467Y-1.9392
X5.467Y-2.2148
X5.5103Y-5.0886
X5.5103Y-5.3642
X5.532Y-3.8287
X5.532Y-4.1043
X5.7131Y-1.9392
X5.7131Y-2.2148
X5.7564Y-5.0886
X5.7564Y-5.3642
X5.8194Y-3.8287
X5.8194Y-4.1043
X5.9598Y-1.9392
X5.9598Y-2.2148
X6.0025Y-5.0886
X6.0025Y-5.3642
X6.1048Y-3.8287
X6.1048Y-4.1043
X6.2052Y-1.9392
X6.2052Y-2.2148
X6.2485Y-5.0886
X6.2485Y-5.3642
X6.3903Y-3.8287
X6.3903Y-4.1043
X6.4526Y-1.9392
X6.4526Y-2.2148
X6.4946Y-5.0886
X6.4946Y-5.3642
X6.6757Y-3.8287
X6.6757Y-4.1043
X6.6973Y-1.9392
X6.6973Y-2.2148
X6.7406Y-5.0886
X6.7406Y-5.3642
X6.9454Y-1.9392
X6.9454Y-2.2148
X6.9611Y-3.8287
X6.9611Y-4.1043
X6.9867Y-5.0886
X6.9867Y-5.3642
X7.1895Y-1.9392
X7.1895Y-2.2148
X7.2328Y-5.0886
X7.2328Y-5.3642
X7.2466Y-3.8287
X7.2466Y-4.1043
X7.4788Y-5.0886
X7.4788Y-5.3642
X7.532Y-3.8287
X7.532Y-4.1043
X7.6816Y-1.9392
X7.6816Y-2.2148
X7.7249Y-5.0886
X7.7249Y-5.3642
X7.8174Y-3.8287
X7.8174Y-4.1043
X7.971Y-5.0886
X7.971Y-5.3642
X8.1029Y-3.8287
X8.1029Y-4.1043
X8.217Y-5.0886
X8.217Y-5.3642
X8.3883Y-3.8287
X8.3883Y-4.1043
X8.4631Y-5.0886
X8.4631Y-5.3642
M30
