%TF.GenerationSoftware,KiCad,Pcbnew,8.0.5*%
%TF.CreationDate,2024-10-29T15:45:57-04:00*%
%TF.ProjectId,Controller,436f6e74-726f-46c6-9c65-722e6b696361,rev?*%
%TF.SameCoordinates,Original*%
%TF.FileFunction,Soldermask,Bot*%
%TF.FilePolarity,Negative*%
%FSLAX46Y46*%
G04 Gerber Fmt 4.6, Leading zero omitted, Abs format (unit mm)*
G04 Created by KiCad (PCBNEW 8.0.5) date 2024-10-29 15:45:57*
%MOMM*%
%LPD*%
G01*
G04 APERTURE LIST*
G04 Aperture macros list*
%AMRoundRect*
0 Rectangle with rounded corners*
0 $1 Rounding radius*
0 $2 $3 $4 $5 $6 $7 $8 $9 X,Y pos of 4 corners*
0 Add a 4 corners polygon primitive as box body*
4,1,4,$2,$3,$4,$5,$6,$7,$8,$9,$2,$3,0*
0 Add four circle primitives for the rounded corners*
1,1,$1+$1,$2,$3*
1,1,$1+$1,$4,$5*
1,1,$1+$1,$6,$7*
1,1,$1+$1,$8,$9*
0 Add four rect primitives between the rounded corners*
20,1,$1+$1,$2,$3,$4,$5,0*
20,1,$1+$1,$4,$5,$6,$7,0*
20,1,$1+$1,$6,$7,$8,$9,0*
20,1,$1+$1,$8,$9,$2,$3,0*%
G04 Aperture macros list end*
%ADD10C,3.200000*%
%ADD11C,0.400000*%
%ADD12C,7.000000*%
%ADD13C,1.955800*%
%ADD14R,1.397000X1.397000*%
%ADD15C,1.397000*%
%ADD16R,2.300000X2.300000*%
%ADD17C,2.300000*%
%ADD18R,0.700000X3.200000*%
%ADD19R,0.700000X4.300000*%
%ADD20RoundRect,0.250000X-1.007627X-0.548008X-0.548008X-1.007627X1.007627X0.548008X0.548008X1.007627X0*%
%ADD21RoundRect,0.250000X0.565685X0.070711X0.070711X0.565685X-0.565685X-0.070711X-0.070711X-0.565685X0*%
%ADD22RoundRect,0.250000X0.548008X-1.007627X1.007627X-0.548008X-0.548008X1.007627X-1.007627X0.548008X0*%
%ADD23C,2.000000*%
%ADD24RoundRect,0.102000X-0.350000X-1.800000X0.350000X-1.800000X0.350000X1.800000X-0.350000X1.800000X0*%
%ADD25RoundRect,0.250000X-0.475000X0.337500X-0.475000X-0.337500X0.475000X-0.337500X0.475000X0.337500X0*%
%ADD26RoundRect,0.250000X0.070711X-0.565685X0.565685X-0.070711X-0.070711X0.565685X-0.565685X0.070711X0*%
%ADD27RoundRect,0.250000X0.450000X-0.350000X0.450000X0.350000X-0.450000X0.350000X-0.450000X-0.350000X0*%
%ADD28RoundRect,0.250000X-0.548008X1.007627X-1.007627X0.548008X0.548008X-1.007627X1.007627X-0.548008X0*%
%ADD29RoundRect,0.250000X-0.070711X0.565685X-0.565685X0.070711X0.070711X-0.565685X0.565685X-0.070711X0*%
%ADD30RoundRect,0.250000X-0.450000X0.350000X-0.450000X-0.350000X0.450000X-0.350000X0.450000X0.350000X0*%
G04 APERTURE END LIST*
D10*
%TO.C,REF\u002A\u002A*%
X202805000Y-92900000D03*
%TD*%
D11*
%TO.C,H5*%
X141749713Y-52267213D03*
X142549713Y-50317213D03*
X142549713Y-54217213D03*
X144499713Y-49517213D03*
D12*
X144499713Y-52267213D03*
D11*
X144499713Y-55017213D03*
X146449713Y-50317213D03*
X146449713Y-54217213D03*
X147249713Y-52267213D03*
%TD*%
D13*
%TO.C,U1*%
X177005000Y-65900000D03*
X166845000Y-65900000D03*
X161765000Y-65900000D03*
X149065000Y-111620000D03*
X159225000Y-111620000D03*
X169385000Y-111620000D03*
X179545000Y-111620000D03*
%TD*%
D11*
%TO.C,H6*%
X229199713Y-52267213D03*
X229999713Y-50317213D03*
X229999713Y-54217213D03*
X231949713Y-49517213D03*
D12*
X231949713Y-52267213D03*
D11*
X231949713Y-55017213D03*
X233899713Y-50317213D03*
X233899713Y-54217213D03*
X234699713Y-52267213D03*
%TD*%
%TO.C,H8*%
X229199713Y-125317213D03*
X229999713Y-123367213D03*
X229999713Y-127267213D03*
X231949713Y-122567213D03*
D12*
X231949713Y-125317213D03*
D11*
X231949713Y-128067213D03*
X233899713Y-123367213D03*
X233899713Y-127267213D03*
X234699713Y-125317213D03*
%TD*%
D14*
%TO.C,J6*%
X218605000Y-66600000D03*
D15*
X218605000Y-69140000D03*
X218605000Y-71680000D03*
X218605000Y-74220000D03*
X221145000Y-74220000D03*
X221145000Y-71680000D03*
X221145000Y-69140000D03*
X221145000Y-66600000D03*
%TD*%
D16*
%TO.C,J5*%
X232472500Y-66304002D03*
D17*
X232472500Y-70504001D03*
X232472500Y-74704000D03*
X232472500Y-78904000D03*
X232472500Y-83103999D03*
X232472500Y-87303998D03*
X232472500Y-91503997D03*
X232472500Y-95703997D03*
X232472500Y-99903996D03*
X232472500Y-104103992D03*
X232472500Y-108303992D03*
X232472500Y-112503991D03*
X226972501Y-66304002D03*
X226972501Y-70504001D03*
X226972501Y-74704000D03*
X226972501Y-78904000D03*
X226972501Y-83103999D03*
X226972501Y-87303998D03*
X226972501Y-91503997D03*
X226972501Y-95703997D03*
X226972501Y-99903996D03*
X226972501Y-104103992D03*
X226972501Y-108303992D03*
X226972501Y-112503991D03*
%TD*%
D18*
%TO.C,J1*%
X146724713Y-135717213D03*
D19*
X147724713Y-136267213D03*
X148724713Y-136267213D03*
X149724713Y-136267213D03*
X150724713Y-136267213D03*
X151724713Y-136267213D03*
X152724713Y-136267213D03*
X153724713Y-136267213D03*
X154724713Y-136267213D03*
X155724713Y-136267213D03*
X156724713Y-136267213D03*
X159724713Y-136267213D03*
X160724713Y-136267213D03*
X161724713Y-136267213D03*
X162724713Y-136267213D03*
X163724713Y-136267213D03*
X164724713Y-136267213D03*
X165724713Y-136267213D03*
X166724713Y-136267213D03*
X167724713Y-136267213D03*
X168724713Y-136267213D03*
X169724713Y-136267213D03*
X170724713Y-136267213D03*
X171724713Y-136267213D03*
X172724713Y-136267213D03*
X173724713Y-136267213D03*
X174724713Y-136267213D03*
X175724713Y-136267213D03*
X176724713Y-136267213D03*
X177724713Y-136267213D03*
X178724713Y-136267213D03*
X179724713Y-136267213D03*
X180724713Y-136267213D03*
X181724713Y-136267213D03*
X182724713Y-136267213D03*
X183724713Y-136267213D03*
X184724713Y-136267213D03*
X185724713Y-136267213D03*
X186724713Y-136267213D03*
X187724713Y-136267213D03*
X188724713Y-136267213D03*
X189724713Y-136267213D03*
X190724713Y-136267213D03*
X191724713Y-136267213D03*
X192724713Y-136267213D03*
X193724713Y-136267213D03*
X194724713Y-136267213D03*
X195724713Y-136267213D03*
X196724713Y-136267213D03*
X197724713Y-136267213D03*
X198724713Y-136267213D03*
X199724713Y-136267213D03*
X200724713Y-136267213D03*
X201724713Y-136267213D03*
X202724713Y-136267213D03*
X203724713Y-136267213D03*
X204724713Y-136267213D03*
X205724713Y-136267213D03*
X206724713Y-136267213D03*
X207724713Y-136267213D03*
X208724713Y-136267213D03*
X209724713Y-136267213D03*
X210724713Y-136267213D03*
X211724713Y-136267213D03*
X212724713Y-136267213D03*
X213724713Y-136267213D03*
X214724713Y-136267213D03*
X215724713Y-136267213D03*
X216724713Y-136267213D03*
X217724713Y-136267213D03*
X218724713Y-136267213D03*
X219724713Y-136267213D03*
X220724713Y-136267213D03*
X221724713Y-136267213D03*
X222724713Y-136267213D03*
X223724713Y-136267213D03*
X224724713Y-136267213D03*
X225724713Y-136267213D03*
X226724713Y-136267213D03*
X227724713Y-136267213D03*
X228724713Y-136267213D03*
X229724713Y-136267213D03*
%TD*%
D11*
%TO.C,H7*%
X142555169Y-127261757D03*
X141741997Y-125317213D03*
X144499713Y-128074929D03*
X142555169Y-123372669D03*
D12*
X144499713Y-125317213D03*
D11*
X146444257Y-127261757D03*
X144499713Y-122559497D03*
X147257429Y-125317213D03*
X146444257Y-123372669D03*
%TD*%
D20*
%TO.C,C3*%
X222386534Y-114814034D03*
X224472500Y-116900000D03*
%TD*%
D21*
%TO.C,R5*%
X231386714Y-60314214D03*
X229972500Y-58900000D03*
%TD*%
D22*
%TO.C,C5*%
X225519517Y-63412983D03*
X227605483Y-61327017D03*
%TD*%
D23*
%TO.C,J2*%
X141925000Y-42760000D03*
X234525000Y-42760000D03*
D24*
X146725000Y-43450000D03*
X147725000Y-43450000D03*
X148725000Y-43450000D03*
X149725000Y-43450000D03*
X150725000Y-43450000D03*
X151725000Y-43450000D03*
X152725000Y-43450000D03*
X153725000Y-43450000D03*
X154725000Y-43450000D03*
X155725000Y-43450000D03*
X156725000Y-43450000D03*
X159725000Y-43450000D03*
X160725000Y-43450000D03*
X161725000Y-43450000D03*
X162725000Y-43450000D03*
X163725000Y-43450000D03*
X164725000Y-43450000D03*
X165725000Y-43450000D03*
X166725000Y-43450000D03*
X167725000Y-43450000D03*
X168725000Y-43450000D03*
X169725000Y-43450000D03*
X170725000Y-43450000D03*
X171725000Y-43450000D03*
X172725000Y-43450000D03*
X173725000Y-43450000D03*
X174725000Y-43450000D03*
X175725000Y-43450000D03*
X176725000Y-43450000D03*
X177725000Y-43450000D03*
X178725000Y-43450000D03*
X179725000Y-43450000D03*
X180725000Y-43450000D03*
X181725000Y-43450000D03*
X182725000Y-43450000D03*
X183725000Y-43450000D03*
X184725000Y-43450000D03*
X185725000Y-43450000D03*
X186725000Y-43450000D03*
X187725000Y-43450000D03*
X188725000Y-43450000D03*
X189725000Y-43450000D03*
X190725000Y-43450000D03*
X191725000Y-43450000D03*
X192725000Y-43450000D03*
X193725000Y-43450000D03*
X194725000Y-43450000D03*
X195725000Y-43450000D03*
X196725000Y-43450000D03*
X197725000Y-43450000D03*
X198725000Y-43450000D03*
X199725000Y-43450000D03*
X200725000Y-43450000D03*
X201725000Y-43450000D03*
X202725000Y-43450000D03*
X203725000Y-43450000D03*
X204725000Y-43450000D03*
X205725000Y-43450000D03*
X206725000Y-43450000D03*
X207725000Y-43450000D03*
X208725000Y-43450000D03*
X209725000Y-43450000D03*
X210725000Y-43450000D03*
X211725000Y-43450000D03*
X212725000Y-43450000D03*
X213725000Y-43450000D03*
X214725000Y-43450000D03*
X215725000Y-43450000D03*
X216725000Y-43450000D03*
X217725000Y-43450000D03*
X218725000Y-43450000D03*
X219725000Y-43450000D03*
X220725000Y-43450000D03*
X221725000Y-43450000D03*
X222725000Y-43450000D03*
X223725000Y-43450000D03*
X224725000Y-43450000D03*
X225725000Y-43450000D03*
X226725000Y-43450000D03*
X227725000Y-43450000D03*
X228725000Y-43450000D03*
X229725000Y-43450000D03*
%TD*%
D25*
%TO.C,C1*%
X223805000Y-71962500D03*
X223805000Y-74037500D03*
%TD*%
D26*
%TO.C,R6*%
X224645393Y-60137107D03*
X226059607Y-58722893D03*
%TD*%
D27*
%TO.C,R2*%
X220605000Y-79800000D03*
X220605000Y-77800000D03*
%TD*%
D28*
%TO.C,C4*%
X233208376Y-116182632D03*
X231122410Y-118268598D03*
%TD*%
D29*
%TO.C,R7*%
X234679607Y-119464384D03*
X233265393Y-120878598D03*
%TD*%
D30*
%TO.C,R8*%
X223805000Y-66200000D03*
X223805000Y-68200000D03*
%TD*%
D25*
%TO.C,C2*%
X222805000Y-77762500D03*
X222805000Y-79837500D03*
%TD*%
M02*
