%TF.GenerationSoftware,KiCad,Pcbnew,8.0.5*%
%TF.CreationDate,2024-10-29T15:45:57-04:00*%
%TF.ProjectId,Controller,436f6e74-726f-46c6-9c65-722e6b696361,rev?*%
%TF.SameCoordinates,Original*%
%TF.FileFunction,Legend,Bot*%
%TF.FilePolarity,Positive*%
%FSLAX46Y46*%
G04 Gerber Fmt 4.6, Leading zero omitted, Abs format (unit mm)*
G04 Created by KiCad (PCBNEW 8.0.5) date 2024-10-29 15:45:57*
%MOMM*%
%LPD*%
G01*
G04 APERTURE LIST*
%ADD10C,0.300000*%
%ADD11C,0.203200*%
%ADD12C,0.150000*%
%ADD13C,0.120000*%
%ADD14C,0.127000*%
%ADD15C,0.200000*%
G04 APERTURE END LIST*
D10*
G36*
X165413055Y-131468041D02*
G01*
X165027036Y-131468041D01*
X164937622Y-131423334D01*
X164900617Y-131386329D01*
X164855912Y-131296917D01*
X164855912Y-131153450D01*
X164900617Y-131064038D01*
X164929795Y-131034860D01*
X165087398Y-130982327D01*
X165413055Y-130982327D01*
X165413055Y-131468041D01*
G37*
G36*
X165413055Y-130682327D02*
G01*
X165098465Y-130682327D01*
X165009051Y-130637619D01*
X164972047Y-130600616D01*
X164927340Y-130511202D01*
X164927340Y-130439165D01*
X164972047Y-130349751D01*
X165009051Y-130312748D01*
X165098465Y-130268041D01*
X165413055Y-130268041D01*
X165413055Y-130682327D01*
G37*
G36*
X170198770Y-131468041D02*
G01*
X170015970Y-131468041D01*
X169858367Y-131415507D01*
X169757762Y-131314901D01*
X169704581Y-131208541D01*
X169641627Y-130956720D01*
X169641627Y-130779361D01*
X169704581Y-130527540D01*
X169757762Y-130421180D01*
X169858368Y-130320574D01*
X170015970Y-130268041D01*
X170198770Y-130268041D01*
X170198770Y-131468041D01*
G37*
G36*
X178045631Y-130312748D02*
G01*
X178141897Y-130409014D01*
X178198770Y-130636504D01*
X178198770Y-131099577D01*
X178141897Y-131327067D01*
X178045631Y-131423334D01*
X177956218Y-131468041D01*
X177741323Y-131468041D01*
X177651910Y-131423334D01*
X177555643Y-131327067D01*
X177498770Y-131099575D01*
X177498770Y-130636506D01*
X177555643Y-130409014D01*
X177651910Y-130312747D01*
X177741323Y-130268041D01*
X177956217Y-130268041D01*
X178045631Y-130312748D01*
G37*
G36*
X179627342Y-131468041D02*
G01*
X179444542Y-131468041D01*
X179286939Y-131415507D01*
X179186334Y-131314901D01*
X179133153Y-131208541D01*
X179070199Y-130956720D01*
X179070199Y-130779361D01*
X179133153Y-130527540D01*
X179186334Y-130421180D01*
X179286940Y-130320574D01*
X179444542Y-130268041D01*
X179627342Y-130268041D01*
X179627342Y-131468041D01*
G37*
G36*
X185688489Y-130312748D02*
G01*
X185784755Y-130409014D01*
X185841628Y-130636504D01*
X185841628Y-131099577D01*
X185784755Y-131327067D01*
X185688489Y-131423334D01*
X185599076Y-131468041D01*
X185384181Y-131468041D01*
X185294768Y-131423334D01*
X185198501Y-131327067D01*
X185141628Y-131099575D01*
X185141628Y-130636506D01*
X185198501Y-130409014D01*
X185294768Y-130312747D01*
X185384181Y-130268041D01*
X185599075Y-130268041D01*
X185688489Y-130312748D01*
G37*
G36*
X187270200Y-131468041D02*
G01*
X187087400Y-131468041D01*
X186929797Y-131415507D01*
X186829192Y-131314901D01*
X186776011Y-131208541D01*
X186713057Y-130956720D01*
X186713057Y-130779361D01*
X186776011Y-130527540D01*
X186829192Y-130421180D01*
X186929798Y-130320574D01*
X187087400Y-130268041D01*
X187270200Y-130268041D01*
X187270200Y-131468041D01*
G37*
G36*
X189902775Y-130312748D02*
G01*
X189999041Y-130409014D01*
X190055914Y-130636504D01*
X190055914Y-131099577D01*
X189999041Y-131327067D01*
X189902775Y-131423334D01*
X189813362Y-131468041D01*
X189598467Y-131468041D01*
X189509054Y-131423334D01*
X189412787Y-131327067D01*
X189355914Y-131099575D01*
X189355914Y-130636506D01*
X189412787Y-130409014D01*
X189509054Y-130312747D01*
X189598467Y-130268041D01*
X189813361Y-130268041D01*
X189902775Y-130312748D01*
G37*
G36*
X204259918Y-130312748D02*
G01*
X204356184Y-130409014D01*
X204413057Y-130636504D01*
X204413057Y-131099577D01*
X204356184Y-131327067D01*
X204259918Y-131423334D01*
X204170505Y-131468041D01*
X203955610Y-131468041D01*
X203866197Y-131423334D01*
X203769930Y-131327067D01*
X203713057Y-131099575D01*
X203713057Y-130636506D01*
X203769930Y-130409014D01*
X203866197Y-130312747D01*
X203955610Y-130268041D01*
X204170504Y-130268041D01*
X204259918Y-130312748D01*
G37*
G36*
X214127343Y-131468041D02*
G01*
X213741324Y-131468041D01*
X213651910Y-131423334D01*
X213614905Y-131386329D01*
X213570200Y-131296917D01*
X213570200Y-131153450D01*
X213614905Y-131064038D01*
X213644083Y-131034860D01*
X213801686Y-130982327D01*
X214127343Y-130982327D01*
X214127343Y-131468041D01*
G37*
G36*
X214127343Y-130682327D02*
G01*
X213812753Y-130682327D01*
X213723339Y-130637619D01*
X213686335Y-130600616D01*
X213641628Y-130511202D01*
X213641628Y-130439165D01*
X213686335Y-130349751D01*
X213723339Y-130312748D01*
X213812753Y-130268041D01*
X214127343Y-130268041D01*
X214127343Y-130682327D01*
G37*
G36*
X219331347Y-130312748D02*
G01*
X219427613Y-130409014D01*
X219484486Y-130636504D01*
X219484486Y-131099577D01*
X219427613Y-131327067D01*
X219331347Y-131423334D01*
X219241934Y-131468041D01*
X219027039Y-131468041D01*
X218937626Y-131423334D01*
X218841359Y-131327067D01*
X218784486Y-131099575D01*
X218784486Y-130636506D01*
X218841359Y-130409014D01*
X218937626Y-130312747D01*
X219027039Y-130268041D01*
X219241933Y-130268041D01*
X219331347Y-130312748D01*
G37*
G36*
X195484485Y-130753755D02*
G01*
X195098466Y-130753755D01*
X195009052Y-130709048D01*
X194972047Y-130672043D01*
X194927342Y-130582631D01*
X194927342Y-130439164D01*
X194972047Y-130349753D01*
X195009052Y-130312748D01*
X195098466Y-130268041D01*
X195484485Y-130268041D01*
X195484485Y-130753755D01*
G37*
G36*
X212627343Y-130753755D02*
G01*
X212241324Y-130753755D01*
X212151910Y-130709048D01*
X212114905Y-130672043D01*
X212070200Y-130582631D01*
X212070200Y-130439164D01*
X212114905Y-130349753D01*
X212151910Y-130312748D01*
X212241324Y-130268041D01*
X212627343Y-130268041D01*
X212627343Y-130753755D01*
G37*
G36*
X209783515Y-131039470D02*
G01*
X209485456Y-131039470D01*
X209634485Y-130592382D01*
X209783515Y-131039470D01*
G37*
G36*
X201055914Y-130753755D02*
G01*
X200669895Y-130753755D01*
X200580481Y-130709048D01*
X200543476Y-130672043D01*
X200498771Y-130582631D01*
X200498771Y-130439164D01*
X200543476Y-130349753D01*
X200580481Y-130312748D01*
X200669895Y-130268041D01*
X201055914Y-130268041D01*
X201055914Y-130753755D01*
G37*
G36*
X225236869Y-132146112D02*
G01*
X164389245Y-132146112D01*
X164389245Y-131118041D01*
X164555912Y-131118041D01*
X164555912Y-131332327D01*
X164558794Y-131361591D01*
X164560856Y-131366569D01*
X164561238Y-131371945D01*
X164571748Y-131399409D01*
X164643176Y-131542266D01*
X164651103Y-131554859D01*
X164652619Y-131558519D01*
X164656000Y-131562638D01*
X164658841Y-131567152D01*
X164661834Y-131569748D01*
X164671274Y-131581250D01*
X164742703Y-131652679D01*
X164754207Y-131662120D01*
X164756802Y-131665112D01*
X164761311Y-131667950D01*
X164765434Y-131671334D01*
X164769095Y-131672850D01*
X164781687Y-131680777D01*
X164924545Y-131752205D01*
X164952008Y-131762715D01*
X164957383Y-131763096D01*
X164962362Y-131765159D01*
X164991626Y-131768041D01*
X165563055Y-131768041D01*
X165592319Y-131765159D01*
X165646391Y-131742761D01*
X165687775Y-131701377D01*
X165710173Y-131647305D01*
X165713055Y-131618041D01*
X165713055Y-130118041D01*
X166127341Y-130118041D01*
X166127341Y-131618041D01*
X166130223Y-131647305D01*
X166152621Y-131701377D01*
X166194005Y-131742761D01*
X166248077Y-131765159D01*
X166306605Y-131765159D01*
X166360677Y-131742761D01*
X166402061Y-131701377D01*
X166424459Y-131647305D01*
X166427341Y-131618041D01*
X166427341Y-130794174D01*
X166641414Y-131252903D01*
X166647760Y-131263616D01*
X166649081Y-131267248D01*
X166651432Y-131269816D01*
X166656401Y-131278203D01*
X166673206Y-131293593D01*
X166688608Y-131310411D01*
X166694651Y-131313231D01*
X166699564Y-131317730D01*
X166720984Y-131325519D01*
X166741646Y-131335161D01*
X166748303Y-131335453D01*
X166754566Y-131337731D01*
X166777345Y-131336730D01*
X166800116Y-131337731D01*
X166806375Y-131335454D01*
X166813037Y-131335162D01*
X166833704Y-131325517D01*
X166855119Y-131317730D01*
X166860032Y-131313230D01*
X166866074Y-131310411D01*
X166881469Y-131293598D01*
X166898282Y-131278203D01*
X166903250Y-131269814D01*
X166905601Y-131267248D01*
X166906920Y-131263618D01*
X166913268Y-131252903D01*
X167127341Y-130794175D01*
X167127341Y-131618041D01*
X167130223Y-131647305D01*
X167152621Y-131701377D01*
X167194005Y-131742761D01*
X167248077Y-131765159D01*
X167306605Y-131765159D01*
X167360677Y-131742761D01*
X167402061Y-131701377D01*
X167424459Y-131647305D01*
X167427341Y-131618041D01*
X167427341Y-130118041D01*
X167841627Y-130118041D01*
X167841627Y-131332327D01*
X167844509Y-131361591D01*
X167846571Y-131366569D01*
X167846953Y-131371945D01*
X167857463Y-131399409D01*
X167928891Y-131542266D01*
X167936818Y-131554859D01*
X167938334Y-131558519D01*
X167941715Y-131562638D01*
X167944556Y-131567152D01*
X167947549Y-131569748D01*
X167956989Y-131581250D01*
X168028418Y-131652679D01*
X168039922Y-131662120D01*
X168042517Y-131665112D01*
X168047026Y-131667950D01*
X168051149Y-131671334D01*
X168054810Y-131672850D01*
X168067402Y-131680777D01*
X168210260Y-131752205D01*
X168237723Y-131762715D01*
X168243098Y-131763096D01*
X168248077Y-131765159D01*
X168277341Y-131768041D01*
X168563055Y-131768041D01*
X168592319Y-131765159D01*
X168597297Y-131763096D01*
X168602673Y-131762715D01*
X168630136Y-131752205D01*
X168772995Y-131680777D01*
X168785589Y-131672848D01*
X168789249Y-131671333D01*
X168793369Y-131667951D01*
X168797880Y-131665112D01*
X168800474Y-131662120D01*
X168811980Y-131652678D01*
X168883408Y-131581249D01*
X168892846Y-131569748D01*
X168895840Y-131567152D01*
X168898680Y-131562639D01*
X168902062Y-131558519D01*
X168903577Y-131554859D01*
X168911505Y-131542266D01*
X168982934Y-131399410D01*
X168993443Y-131371946D01*
X168993824Y-131366571D01*
X168995888Y-131361591D01*
X168998770Y-131332327D01*
X168998770Y-130760898D01*
X169341627Y-130760898D01*
X169341627Y-130975184D01*
X169342129Y-130980287D01*
X169341804Y-130982475D01*
X169343423Y-130993425D01*
X169344509Y-131004448D01*
X169345356Y-131006492D01*
X169346106Y-131011564D01*
X169417534Y-131297278D01*
X169418305Y-131299436D01*
X169418382Y-131300517D01*
X169423040Y-131312691D01*
X169427427Y-131324969D01*
X169428071Y-131325839D01*
X169428891Y-131327980D01*
X169500320Y-131470837D01*
X169508247Y-131483430D01*
X169509763Y-131487090D01*
X169513144Y-131491209D01*
X169515985Y-131495723D01*
X169518978Y-131498319D01*
X169528418Y-131509821D01*
X169671275Y-131652679D01*
X169694005Y-131671334D01*
X169698984Y-131673396D01*
X169703056Y-131676928D01*
X169729907Y-131688916D01*
X169944193Y-131760344D01*
X169958705Y-131763643D01*
X169962363Y-131765159D01*
X169967665Y-131765681D01*
X169972867Y-131766864D01*
X169976821Y-131766582D01*
X169991627Y-131768041D01*
X170348770Y-131768041D01*
X170378034Y-131765159D01*
X170432106Y-131742761D01*
X170473490Y-131701377D01*
X170495888Y-131647305D01*
X170498770Y-131618041D01*
X170498770Y-130118041D01*
X170495888Y-130088777D01*
X171987366Y-130088777D01*
X171987366Y-130147305D01*
X172009764Y-130201377D01*
X172051148Y-130242761D01*
X172105220Y-130265159D01*
X172134484Y-130268041D01*
X172698770Y-130268041D01*
X172698770Y-130682327D01*
X172348770Y-130682327D01*
X172319506Y-130685209D01*
X172265434Y-130707607D01*
X172224050Y-130748991D01*
X172201652Y-130803063D01*
X172201652Y-130861591D01*
X172224050Y-130915663D01*
X172265434Y-130957047D01*
X172319506Y-130979445D01*
X172348770Y-130982327D01*
X172698770Y-130982327D01*
X172698770Y-131468041D01*
X172134484Y-131468041D01*
X172105220Y-131470923D01*
X172051148Y-131493321D01*
X172009764Y-131534705D01*
X171987366Y-131588777D01*
X171987366Y-131647305D01*
X172009764Y-131701377D01*
X172051148Y-131742761D01*
X172105220Y-131765159D01*
X172134484Y-131768041D01*
X172848770Y-131768041D01*
X172878034Y-131765159D01*
X172932106Y-131742761D01*
X172973490Y-131701377D01*
X172995888Y-131647305D01*
X172998770Y-131618041D01*
X172998770Y-130118041D01*
X173413056Y-130118041D01*
X173413056Y-131618041D01*
X173415938Y-131647305D01*
X173438336Y-131701377D01*
X173479720Y-131742761D01*
X173533792Y-131765159D01*
X173592320Y-131765159D01*
X173646392Y-131742761D01*
X173687776Y-131701377D01*
X173710174Y-131647305D01*
X173713056Y-131618041D01*
X173713056Y-130982327D01*
X174270199Y-130982327D01*
X174270199Y-131618041D01*
X174273081Y-131647305D01*
X174295479Y-131701377D01*
X174336863Y-131742761D01*
X174390935Y-131765159D01*
X174449463Y-131765159D01*
X174503535Y-131742761D01*
X174544919Y-131701377D01*
X174567317Y-131647305D01*
X174570199Y-131618041D01*
X174570199Y-130118041D01*
X174567317Y-130088777D01*
X174773081Y-130088777D01*
X174773081Y-130147305D01*
X174795479Y-130201377D01*
X174836863Y-130242761D01*
X174890935Y-130265159D01*
X174920199Y-130268041D01*
X175198770Y-130268041D01*
X175198770Y-131618041D01*
X175201652Y-131647305D01*
X175224050Y-131701377D01*
X175265434Y-131742761D01*
X175319506Y-131765159D01*
X175378034Y-131765159D01*
X175432106Y-131742761D01*
X175473490Y-131701377D01*
X175495888Y-131647305D01*
X175498770Y-131618041D01*
X175498770Y-130618041D01*
X177198770Y-130618041D01*
X177198770Y-131118041D01*
X177199272Y-131123144D01*
X177198947Y-131125332D01*
X177200566Y-131136283D01*
X177201652Y-131147305D01*
X177202498Y-131149349D01*
X177203249Y-131154422D01*
X177274678Y-131440135D01*
X177284571Y-131467826D01*
X177291210Y-131476786D01*
X177295478Y-131487090D01*
X177314133Y-131509821D01*
X177456990Y-131652679D01*
X177468496Y-131662122D01*
X177471089Y-131665112D01*
X177475594Y-131667948D01*
X177479720Y-131671334D01*
X177483383Y-131672851D01*
X177495974Y-131680777D01*
X177638832Y-131752205D01*
X177666295Y-131762715D01*
X177671670Y-131763096D01*
X177676649Y-131765159D01*
X177705913Y-131768041D01*
X177991627Y-131768041D01*
X178020891Y-131765159D01*
X178025869Y-131763096D01*
X178031245Y-131762715D01*
X178058708Y-131752205D01*
X178201567Y-131680777D01*
X178214157Y-131672851D01*
X178217821Y-131671334D01*
X178221946Y-131667948D01*
X178226452Y-131665112D01*
X178229045Y-131662122D01*
X178240551Y-131652679D01*
X178383408Y-131509821D01*
X178402063Y-131487090D01*
X178406330Y-131476786D01*
X178412970Y-131467826D01*
X178422863Y-131440135D01*
X178494291Y-131154421D01*
X178495040Y-131149349D01*
X178495888Y-131147305D01*
X178496973Y-131136282D01*
X178498593Y-131125332D01*
X178498267Y-131123144D01*
X178498770Y-131118041D01*
X178498770Y-130760898D01*
X178770199Y-130760898D01*
X178770199Y-130975184D01*
X178770701Y-130980287D01*
X178770376Y-130982475D01*
X178771995Y-130993425D01*
X178773081Y-131004448D01*
X178773928Y-131006492D01*
X178774678Y-131011564D01*
X178846106Y-131297278D01*
X178846877Y-131299436D01*
X178846954Y-131300517D01*
X178851612Y-131312691D01*
X178855999Y-131324969D01*
X178856643Y-131325839D01*
X178857463Y-131327980D01*
X178928892Y-131470837D01*
X178936819Y-131483430D01*
X178938335Y-131487090D01*
X178941716Y-131491209D01*
X178944557Y-131495723D01*
X178947550Y-131498319D01*
X178956990Y-131509821D01*
X179099847Y-131652679D01*
X179122577Y-131671334D01*
X179127556Y-131673396D01*
X179131628Y-131676928D01*
X179158479Y-131688916D01*
X179372765Y-131760344D01*
X179387277Y-131763643D01*
X179390935Y-131765159D01*
X179396237Y-131765681D01*
X179401439Y-131766864D01*
X179405393Y-131766582D01*
X179420199Y-131768041D01*
X179777342Y-131768041D01*
X179806606Y-131765159D01*
X179860678Y-131742761D01*
X179902062Y-131701377D01*
X179924460Y-131647305D01*
X179927342Y-131618041D01*
X179927342Y-130118041D01*
X179924460Y-130088777D01*
X181273081Y-130088777D01*
X181273081Y-130147305D01*
X181295479Y-130201377D01*
X181336863Y-130242761D01*
X181390935Y-130265159D01*
X181420199Y-130268041D01*
X181698770Y-130268041D01*
X181698770Y-131618041D01*
X181701652Y-131647305D01*
X181724050Y-131701377D01*
X181765434Y-131742761D01*
X181819506Y-131765159D01*
X181878034Y-131765159D01*
X181932106Y-131742761D01*
X181973490Y-131701377D01*
X181995888Y-131647305D01*
X181998770Y-131618041D01*
X181998770Y-130268041D01*
X182277341Y-130268041D01*
X182306605Y-130265159D01*
X182360677Y-130242761D01*
X182402061Y-130201377D01*
X182424459Y-130147305D01*
X182424459Y-130099279D01*
X182557091Y-130099279D01*
X182561239Y-130157660D01*
X182571749Y-130185123D01*
X182714606Y-130470837D01*
X182730271Y-130495723D01*
X182774486Y-130534069D01*
X182830009Y-130552577D01*
X182888389Y-130548429D01*
X182940738Y-130522254D01*
X182979084Y-130478039D01*
X182997592Y-130422517D01*
X182993444Y-130364136D01*
X182982934Y-130336673D01*
X182873618Y-130118041D01*
X183341628Y-130118041D01*
X183341628Y-131618041D01*
X183342369Y-131625566D01*
X183341994Y-131628518D01*
X183343036Y-131632338D01*
X183344510Y-131647305D01*
X183352145Y-131665737D01*
X183357394Y-131684982D01*
X183363248Y-131692541D01*
X183366908Y-131701377D01*
X183381015Y-131715484D01*
X183393229Y-131731256D01*
X183401531Y-131736000D01*
X183408292Y-131742761D01*
X183426722Y-131750395D01*
X183444045Y-131760294D01*
X183453530Y-131761499D01*
X183462364Y-131765159D01*
X183482314Y-131765159D01*
X183502105Y-131767675D01*
X183511330Y-131765159D01*
X183520892Y-131765159D01*
X183539324Y-131757523D01*
X183558569Y-131752275D01*
X183566128Y-131746420D01*
X183574964Y-131742761D01*
X183589071Y-131728653D01*
X183604843Y-131716440D01*
X183613548Y-131704176D01*
X183616348Y-131701377D01*
X183617486Y-131698629D01*
X183621864Y-131692462D01*
X184198771Y-130682876D01*
X184198771Y-131618041D01*
X184201653Y-131647305D01*
X184224051Y-131701377D01*
X184265435Y-131742761D01*
X184319507Y-131765159D01*
X184378035Y-131765159D01*
X184432107Y-131742761D01*
X184473491Y-131701377D01*
X184495889Y-131647305D01*
X184498771Y-131618041D01*
X184498771Y-130618041D01*
X184841628Y-130618041D01*
X184841628Y-131118041D01*
X184842130Y-131123144D01*
X184841805Y-131125332D01*
X184843424Y-131136283D01*
X184844510Y-131147305D01*
X184845356Y-131149349D01*
X184846107Y-131154422D01*
X184917536Y-131440135D01*
X184927429Y-131467826D01*
X184934068Y-131476786D01*
X184938336Y-131487090D01*
X184956991Y-131509821D01*
X185099848Y-131652679D01*
X185111354Y-131662122D01*
X185113947Y-131665112D01*
X185118452Y-131667948D01*
X185122578Y-131671334D01*
X185126241Y-131672851D01*
X185138832Y-131680777D01*
X185281690Y-131752205D01*
X185309153Y-131762715D01*
X185314528Y-131763096D01*
X185319507Y-131765159D01*
X185348771Y-131768041D01*
X185634485Y-131768041D01*
X185663749Y-131765159D01*
X185668727Y-131763096D01*
X185674103Y-131762715D01*
X185701566Y-131752205D01*
X185844425Y-131680777D01*
X185857015Y-131672851D01*
X185860679Y-131671334D01*
X185864804Y-131667948D01*
X185869310Y-131665112D01*
X185871903Y-131662122D01*
X185883409Y-131652679D01*
X186026266Y-131509821D01*
X186044921Y-131487090D01*
X186049188Y-131476786D01*
X186055828Y-131467826D01*
X186065721Y-131440135D01*
X186137149Y-131154421D01*
X186137898Y-131149349D01*
X186138746Y-131147305D01*
X186139831Y-131136282D01*
X186141451Y-131125332D01*
X186141125Y-131123144D01*
X186141628Y-131118041D01*
X186141628Y-130760898D01*
X186413057Y-130760898D01*
X186413057Y-130975184D01*
X186413559Y-130980287D01*
X186413234Y-130982475D01*
X186414853Y-130993425D01*
X186415939Y-131004448D01*
X186416786Y-131006492D01*
X186417536Y-131011564D01*
X186488964Y-131297278D01*
X186489735Y-131299436D01*
X186489812Y-131300517D01*
X186494470Y-131312691D01*
X186498857Y-131324969D01*
X186499501Y-131325839D01*
X186500321Y-131327980D01*
X186571750Y-131470837D01*
X186579677Y-131483430D01*
X186581193Y-131487090D01*
X186584574Y-131491209D01*
X186587415Y-131495723D01*
X186590408Y-131498319D01*
X186599848Y-131509821D01*
X186742705Y-131652679D01*
X186765435Y-131671334D01*
X186770414Y-131673396D01*
X186774486Y-131676928D01*
X186801337Y-131688916D01*
X187015623Y-131760344D01*
X187030135Y-131763643D01*
X187033793Y-131765159D01*
X187039095Y-131765681D01*
X187044297Y-131766864D01*
X187048251Y-131766582D01*
X187063057Y-131768041D01*
X187420200Y-131768041D01*
X187449464Y-131765159D01*
X187503536Y-131742761D01*
X187544920Y-131701377D01*
X187567318Y-131647305D01*
X187570200Y-131618041D01*
X187570200Y-130618041D01*
X189055914Y-130618041D01*
X189055914Y-131118041D01*
X189056416Y-131123144D01*
X189056091Y-131125332D01*
X189057710Y-131136283D01*
X189058796Y-131147305D01*
X189059642Y-131149349D01*
X189060393Y-131154422D01*
X189131822Y-131440135D01*
X189141715Y-131467826D01*
X189148354Y-131476786D01*
X189152622Y-131487090D01*
X189171277Y-131509821D01*
X189314134Y-131652679D01*
X189325640Y-131662122D01*
X189328233Y-131665112D01*
X189332738Y-131667948D01*
X189336864Y-131671334D01*
X189340527Y-131672851D01*
X189353118Y-131680777D01*
X189495976Y-131752205D01*
X189523439Y-131762715D01*
X189528814Y-131763096D01*
X189533793Y-131765159D01*
X189563057Y-131768041D01*
X189848771Y-131768041D01*
X189878035Y-131765159D01*
X189883013Y-131763096D01*
X189888389Y-131762715D01*
X189915852Y-131752205D01*
X190058711Y-131680777D01*
X190071301Y-131672851D01*
X190074965Y-131671334D01*
X190079090Y-131667948D01*
X190083596Y-131665112D01*
X190086189Y-131662122D01*
X190097695Y-131652679D01*
X190240552Y-131509821D01*
X190259207Y-131487090D01*
X190263474Y-131476786D01*
X190270114Y-131467826D01*
X190280007Y-131440135D01*
X190342673Y-131189470D01*
X190627342Y-131189470D01*
X190627342Y-131332327D01*
X190630224Y-131361591D01*
X190632287Y-131366571D01*
X190632669Y-131371946D01*
X190643178Y-131399409D01*
X190714607Y-131542266D01*
X190722534Y-131554859D01*
X190724050Y-131558519D01*
X190727431Y-131562638D01*
X190730272Y-131567152D01*
X190733265Y-131569748D01*
X190742705Y-131581250D01*
X190814134Y-131652679D01*
X190825638Y-131662120D01*
X190828233Y-131665112D01*
X190832742Y-131667950D01*
X190836865Y-131671334D01*
X190840526Y-131672850D01*
X190853118Y-131680777D01*
X190995976Y-131752205D01*
X191023439Y-131762715D01*
X191028814Y-131763096D01*
X191033793Y-131765159D01*
X191063057Y-131768041D01*
X191420200Y-131768041D01*
X191435005Y-131766582D01*
X191438960Y-131766864D01*
X191444161Y-131765681D01*
X191449464Y-131765159D01*
X191453121Y-131763643D01*
X191467634Y-131760344D01*
X191681919Y-131688916D01*
X191708770Y-131676927D01*
X191752984Y-131638580D01*
X191779158Y-131586233D01*
X191783307Y-131527853D01*
X191764799Y-131472328D01*
X191726452Y-131428114D01*
X191674105Y-131401940D01*
X191615725Y-131397791D01*
X191587051Y-131404310D01*
X191395857Y-131468041D01*
X191098467Y-131468041D01*
X191009053Y-131423334D01*
X190972049Y-131386330D01*
X190927342Y-131296916D01*
X190927342Y-131224880D01*
X190945047Y-131189470D01*
X193198770Y-131189470D01*
X193198770Y-131332327D01*
X193201652Y-131361591D01*
X193203715Y-131366571D01*
X193204097Y-131371946D01*
X193214606Y-131399409D01*
X193286035Y-131542266D01*
X193293962Y-131554859D01*
X193295478Y-131558519D01*
X193298859Y-131562638D01*
X193301700Y-131567152D01*
X193304693Y-131569748D01*
X193314133Y-131581250D01*
X193385562Y-131652679D01*
X193397066Y-131662120D01*
X193399661Y-131665112D01*
X193404170Y-131667950D01*
X193408293Y-131671334D01*
X193411954Y-131672850D01*
X193424546Y-131680777D01*
X193567404Y-131752205D01*
X193594867Y-131762715D01*
X193600242Y-131763096D01*
X193605221Y-131765159D01*
X193634485Y-131768041D01*
X193991628Y-131768041D01*
X194006433Y-131766582D01*
X194010388Y-131766864D01*
X194015589Y-131765681D01*
X194020892Y-131765159D01*
X194024549Y-131763643D01*
X194039062Y-131760344D01*
X194253347Y-131688916D01*
X194280198Y-131676927D01*
X194324412Y-131638580D01*
X194350586Y-131586233D01*
X194354735Y-131527853D01*
X194336227Y-131472328D01*
X194297880Y-131428114D01*
X194245533Y-131401940D01*
X194187153Y-131397791D01*
X194158479Y-131404310D01*
X193967285Y-131468041D01*
X193669895Y-131468041D01*
X193580481Y-131423334D01*
X193543477Y-131386330D01*
X193498770Y-131296916D01*
X193498770Y-131224880D01*
X193543477Y-131135466D01*
X193580482Y-131098461D01*
X193686841Y-131045282D01*
X193956579Y-130977848D01*
X193958737Y-130977076D01*
X193959818Y-130977000D01*
X193971992Y-130972341D01*
X193984270Y-130967955D01*
X193985140Y-130967310D01*
X193987281Y-130966491D01*
X194130138Y-130895062D01*
X194142733Y-130887133D01*
X194146390Y-130885619D01*
X194150507Y-130882239D01*
X194155024Y-130879397D01*
X194157621Y-130876402D01*
X194169121Y-130866965D01*
X194240550Y-130795537D01*
X194249992Y-130784031D01*
X194252984Y-130781437D01*
X194255823Y-130776926D01*
X194259205Y-130772806D01*
X194260720Y-130769146D01*
X194268649Y-130756552D01*
X194340077Y-130613694D01*
X194350587Y-130586231D01*
X194350968Y-130580855D01*
X194353031Y-130575877D01*
X194355913Y-130546613D01*
X194355913Y-130403755D01*
X194627342Y-130403755D01*
X194627342Y-130618041D01*
X194630224Y-130647305D01*
X194632286Y-130652283D01*
X194632668Y-130657659D01*
X194643178Y-130685123D01*
X194714606Y-130827980D01*
X194722533Y-130840573D01*
X194724049Y-130844233D01*
X194727430Y-130848352D01*
X194730271Y-130852866D01*
X194733264Y-130855462D01*
X194742704Y-130866964D01*
X194814133Y-130938393D01*
X194825637Y-130947834D01*
X194828232Y-130950826D01*
X194832741Y-130953664D01*
X194836864Y-130957048D01*
X194840525Y-130958564D01*
X194853117Y-130966491D01*
X194995975Y-131037919D01*
X194999409Y-131039233D01*
X194654457Y-131532022D01*
X194640036Y-131557648D01*
X194627377Y-131614790D01*
X194637548Y-131672426D01*
X194669001Y-131721783D01*
X194716949Y-131755347D01*
X194774091Y-131768006D01*
X194831727Y-131757835D01*
X194881084Y-131726382D01*
X194900227Y-131704060D01*
X195355440Y-131053755D01*
X195484485Y-131053755D01*
X195484485Y-131618041D01*
X195487367Y-131647305D01*
X195509765Y-131701377D01*
X195551149Y-131742761D01*
X195605221Y-131765159D01*
X195663749Y-131765159D01*
X195717821Y-131742761D01*
X195759205Y-131701377D01*
X195781603Y-131647305D01*
X195784485Y-131618041D01*
X195784485Y-130118041D01*
X195781603Y-130088777D01*
X196130224Y-130088777D01*
X196130224Y-130147305D01*
X196152622Y-130201377D01*
X196194006Y-130242761D01*
X196248078Y-130265159D01*
X196277342Y-130268041D01*
X196841628Y-130268041D01*
X196841628Y-130682327D01*
X196491628Y-130682327D01*
X196462364Y-130685209D01*
X196408292Y-130707607D01*
X196366908Y-130748991D01*
X196344510Y-130803063D01*
X196344510Y-130861591D01*
X196366908Y-130915663D01*
X196408292Y-130957047D01*
X196462364Y-130979445D01*
X196491628Y-130982327D01*
X196841628Y-130982327D01*
X196841628Y-131468041D01*
X196277342Y-131468041D01*
X196248078Y-131470923D01*
X196194006Y-131493321D01*
X196152622Y-131534705D01*
X196130224Y-131588777D01*
X196130224Y-131647305D01*
X196152622Y-131701377D01*
X196194006Y-131742761D01*
X196248078Y-131765159D01*
X196277342Y-131768041D01*
X196991628Y-131768041D01*
X197020892Y-131765159D01*
X197074964Y-131742761D01*
X197116348Y-131701377D01*
X197138746Y-131647305D01*
X197141628Y-131618041D01*
X197141628Y-130118041D01*
X197138746Y-130088777D01*
X197344510Y-130088777D01*
X197344510Y-130147305D01*
X197366908Y-130201377D01*
X197408292Y-130242761D01*
X197462364Y-130265159D01*
X197491628Y-130268041D01*
X197770199Y-130268041D01*
X197770199Y-131618041D01*
X197773081Y-131647305D01*
X197795479Y-131701377D01*
X197836863Y-131742761D01*
X197890935Y-131765159D01*
X197949463Y-131765159D01*
X198003535Y-131742761D01*
X198044919Y-131701377D01*
X198067317Y-131647305D01*
X198070199Y-131618041D01*
X198070199Y-130268041D01*
X198348770Y-130268041D01*
X198378034Y-130265159D01*
X198432106Y-130242761D01*
X198473490Y-130201377D01*
X198495888Y-130147305D01*
X198495888Y-130118041D01*
X198698771Y-130118041D01*
X198698771Y-131332327D01*
X198701653Y-131361591D01*
X198703715Y-131366569D01*
X198704097Y-131371945D01*
X198714607Y-131399409D01*
X198786035Y-131542266D01*
X198793962Y-131554859D01*
X198795478Y-131558519D01*
X198798859Y-131562638D01*
X198801700Y-131567152D01*
X198804693Y-131569748D01*
X198814133Y-131581250D01*
X198885562Y-131652679D01*
X198897066Y-131662120D01*
X198899661Y-131665112D01*
X198904170Y-131667950D01*
X198908293Y-131671334D01*
X198911954Y-131672850D01*
X198924546Y-131680777D01*
X199067404Y-131752205D01*
X199094867Y-131762715D01*
X199100242Y-131763096D01*
X199105221Y-131765159D01*
X199134485Y-131768041D01*
X199420199Y-131768041D01*
X199449463Y-131765159D01*
X199454441Y-131763096D01*
X199459817Y-131762715D01*
X199487280Y-131752205D01*
X199630139Y-131680777D01*
X199642733Y-131672848D01*
X199646393Y-131671333D01*
X199650513Y-131667951D01*
X199655024Y-131665112D01*
X199657618Y-131662120D01*
X199669124Y-131652678D01*
X199740552Y-131581249D01*
X199749990Y-131569748D01*
X199752984Y-131567152D01*
X199755824Y-131562639D01*
X199759206Y-131558519D01*
X199760721Y-131554859D01*
X199768649Y-131542266D01*
X199840078Y-131399410D01*
X199850587Y-131371946D01*
X199850968Y-131366571D01*
X199853032Y-131361591D01*
X199855914Y-131332327D01*
X199855914Y-130403755D01*
X200198771Y-130403755D01*
X200198771Y-130618041D01*
X200201653Y-130647305D01*
X200203715Y-130652283D01*
X200204097Y-130657659D01*
X200214607Y-130685123D01*
X200286035Y-130827980D01*
X200293962Y-130840573D01*
X200295478Y-130844233D01*
X200298859Y-130848352D01*
X200301700Y-130852866D01*
X200304693Y-130855462D01*
X200314133Y-130866964D01*
X200385562Y-130938393D01*
X200397066Y-130947834D01*
X200399661Y-130950826D01*
X200404170Y-130953664D01*
X200408293Y-130957048D01*
X200411954Y-130958564D01*
X200424546Y-130966491D01*
X200567404Y-131037919D01*
X200594867Y-131048429D01*
X200600242Y-131048810D01*
X200605221Y-131050873D01*
X200634485Y-131053755D01*
X201055914Y-131053755D01*
X201055914Y-131618041D01*
X201058796Y-131647305D01*
X201081194Y-131701377D01*
X201122578Y-131742761D01*
X201176650Y-131765159D01*
X201235178Y-131765159D01*
X201289250Y-131742761D01*
X201330634Y-131701377D01*
X201353032Y-131647305D01*
X201355914Y-131618041D01*
X201355914Y-130118041D01*
X201770200Y-130118041D01*
X201770200Y-131618041D01*
X201773082Y-131647305D01*
X201795480Y-131701377D01*
X201836864Y-131742761D01*
X201890936Y-131765159D01*
X201949464Y-131765159D01*
X202003536Y-131742761D01*
X202044920Y-131701377D01*
X202067318Y-131647305D01*
X202070200Y-131618041D01*
X202070200Y-130794174D01*
X202284273Y-131252903D01*
X202290619Y-131263616D01*
X202291940Y-131267248D01*
X202294291Y-131269816D01*
X202299260Y-131278203D01*
X202316065Y-131293593D01*
X202331467Y-131310411D01*
X202337510Y-131313231D01*
X202342423Y-131317730D01*
X202363843Y-131325519D01*
X202384505Y-131335161D01*
X202391162Y-131335453D01*
X202397425Y-131337731D01*
X202420204Y-131336730D01*
X202442975Y-131337731D01*
X202449234Y-131335454D01*
X202455896Y-131335162D01*
X202476563Y-131325517D01*
X202497978Y-131317730D01*
X202502891Y-131313230D01*
X202508933Y-131310411D01*
X202524328Y-131293598D01*
X202541141Y-131278203D01*
X202546109Y-131269814D01*
X202548460Y-131267248D01*
X202549779Y-131263618D01*
X202556127Y-131252903D01*
X202770200Y-130794175D01*
X202770200Y-131618041D01*
X202773082Y-131647305D01*
X202795480Y-131701377D01*
X202836864Y-131742761D01*
X202890936Y-131765159D01*
X202949464Y-131765159D01*
X203003536Y-131742761D01*
X203044920Y-131701377D01*
X203067318Y-131647305D01*
X203070200Y-131618041D01*
X203070200Y-130618041D01*
X203413057Y-130618041D01*
X203413057Y-131118041D01*
X203413559Y-131123144D01*
X203413234Y-131125332D01*
X203414853Y-131136283D01*
X203415939Y-131147305D01*
X203416785Y-131149349D01*
X203417536Y-131154422D01*
X203488965Y-131440135D01*
X203498858Y-131467826D01*
X203505497Y-131476786D01*
X203509765Y-131487090D01*
X203528420Y-131509821D01*
X203671277Y-131652679D01*
X203682783Y-131662122D01*
X203685376Y-131665112D01*
X203689881Y-131667948D01*
X203694007Y-131671334D01*
X203697670Y-131672851D01*
X203710261Y-131680777D01*
X203853119Y-131752205D01*
X203880582Y-131762715D01*
X203885957Y-131763096D01*
X203890936Y-131765159D01*
X203920200Y-131768041D01*
X204205914Y-131768041D01*
X204235178Y-131765159D01*
X204240156Y-131763096D01*
X204245532Y-131762715D01*
X204272995Y-131752205D01*
X204415854Y-131680777D01*
X204428444Y-131672851D01*
X204432108Y-131671334D01*
X204436233Y-131667948D01*
X204440739Y-131665112D01*
X204443332Y-131662122D01*
X204454838Y-131652679D01*
X204597695Y-131509821D01*
X204616350Y-131487090D01*
X204620617Y-131476786D01*
X204627257Y-131467826D01*
X204637150Y-131440135D01*
X204708578Y-131154421D01*
X204709327Y-131149349D01*
X204710175Y-131147305D01*
X204711260Y-131136282D01*
X204712880Y-131125332D01*
X204712554Y-131123144D01*
X204713057Y-131118041D01*
X204713057Y-130618041D01*
X204712554Y-130612937D01*
X204712880Y-130610750D01*
X204711260Y-130599799D01*
X204710175Y-130588777D01*
X204709327Y-130586732D01*
X204708578Y-130581661D01*
X204637150Y-130295947D01*
X204627257Y-130268256D01*
X204620618Y-130259296D01*
X204616350Y-130248991D01*
X204602106Y-130231635D01*
X204987368Y-130231635D01*
X204987368Y-130290161D01*
X205009765Y-130344233D01*
X205051151Y-130385619D01*
X205105223Y-130408016D01*
X205163749Y-130408016D01*
X205217821Y-130385619D01*
X205240552Y-130366964D01*
X205286941Y-130320574D01*
X205444543Y-130268041D01*
X205538717Y-130268041D01*
X205696315Y-130320574D01*
X205796922Y-130421181D01*
X205850101Y-130527540D01*
X205913057Y-130779361D01*
X205913057Y-130956720D01*
X205850101Y-131208541D01*
X205796922Y-131314901D01*
X205696316Y-131415507D01*
X205538714Y-131468041D01*
X205444543Y-131468041D01*
X205286940Y-131415507D01*
X205240553Y-131369119D01*
X205217822Y-131350464D01*
X205163750Y-131328066D01*
X205105224Y-131328066D01*
X205051152Y-131350463D01*
X205009766Y-131391848D01*
X204987368Y-131445920D01*
X204987368Y-131504446D01*
X205009765Y-131558518D01*
X205028419Y-131581249D01*
X205099847Y-131652678D01*
X205122578Y-131671333D01*
X205127554Y-131673394D01*
X205131629Y-131676928D01*
X205158480Y-131688916D01*
X205372766Y-131760344D01*
X205387278Y-131763643D01*
X205390936Y-131765159D01*
X205396238Y-131765681D01*
X205401440Y-131766864D01*
X205405394Y-131766582D01*
X205420200Y-131768041D01*
X205563057Y-131768041D01*
X205577862Y-131766582D01*
X205581817Y-131766864D01*
X205587018Y-131765681D01*
X205592321Y-131765159D01*
X205595978Y-131763643D01*
X205610491Y-131760344D01*
X205824777Y-131688916D01*
X205851628Y-131676928D01*
X205855699Y-131673396D01*
X205860679Y-131671334D01*
X205883409Y-131652679D01*
X205926210Y-131609878D01*
X207627565Y-131609878D01*
X207635842Y-131667815D01*
X207665661Y-131718177D01*
X207712483Y-131753294D01*
X207769180Y-131767819D01*
X207827117Y-131759542D01*
X207877479Y-131729723D01*
X207897343Y-131708041D01*
X208436429Y-130989259D01*
X208484486Y-131037316D01*
X208484486Y-131618041D01*
X208487368Y-131647305D01*
X208509766Y-131701377D01*
X208551150Y-131742761D01*
X208605222Y-131765159D01*
X208663750Y-131765159D01*
X208717822Y-131742761D01*
X208759206Y-131701377D01*
X208781604Y-131647305D01*
X208784486Y-131618041D01*
X208784486Y-131599280D01*
X208985663Y-131599280D01*
X208989812Y-131657661D01*
X209015986Y-131710008D01*
X209060200Y-131748355D01*
X209115724Y-131766863D01*
X209174105Y-131762714D01*
X209226452Y-131736540D01*
X209264799Y-131692326D01*
X209276787Y-131665475D01*
X209385456Y-131339470D01*
X209883515Y-131339470D01*
X209992183Y-131665475D01*
X210004171Y-131692326D01*
X210042518Y-131736541D01*
X210094866Y-131762714D01*
X210153246Y-131766864D01*
X210208770Y-131748355D01*
X210252984Y-131710008D01*
X210279158Y-131657661D01*
X210283308Y-131599281D01*
X210276788Y-131570607D01*
X209782844Y-130088777D01*
X210415939Y-130088777D01*
X210415939Y-130147305D01*
X210438337Y-130201377D01*
X210479721Y-130242761D01*
X210533793Y-130265159D01*
X210563057Y-130268041D01*
X211127343Y-130268041D01*
X211127343Y-130682327D01*
X210777343Y-130682327D01*
X210748079Y-130685209D01*
X210694007Y-130707607D01*
X210652623Y-130748991D01*
X210630225Y-130803063D01*
X210630225Y-130861591D01*
X210652623Y-130915663D01*
X210694007Y-130957047D01*
X210748079Y-130979445D01*
X210777343Y-130982327D01*
X211127343Y-130982327D01*
X211127343Y-131468041D01*
X210563057Y-131468041D01*
X210533793Y-131470923D01*
X210479721Y-131493321D01*
X210438337Y-131534705D01*
X210415939Y-131588777D01*
X210415939Y-131647305D01*
X210438337Y-131701377D01*
X210479721Y-131742761D01*
X210533793Y-131765159D01*
X210563057Y-131768041D01*
X211277343Y-131768041D01*
X211306607Y-131765159D01*
X211360679Y-131742761D01*
X211402063Y-131701377D01*
X211424461Y-131647305D01*
X211427343Y-131618041D01*
X211427343Y-130403755D01*
X211770200Y-130403755D01*
X211770200Y-130618041D01*
X211773082Y-130647305D01*
X211775144Y-130652283D01*
X211775526Y-130657659D01*
X211786036Y-130685123D01*
X211857464Y-130827980D01*
X211865391Y-130840573D01*
X211866907Y-130844233D01*
X211870288Y-130848352D01*
X211873129Y-130852866D01*
X211876122Y-130855462D01*
X211885562Y-130866964D01*
X211956991Y-130938393D01*
X211968495Y-130947834D01*
X211971090Y-130950826D01*
X211975599Y-130953664D01*
X211979722Y-130957048D01*
X211983383Y-130958564D01*
X211995975Y-130966491D01*
X212138833Y-131037919D01*
X212142267Y-131039233D01*
X211797315Y-131532022D01*
X211782894Y-131557648D01*
X211770235Y-131614790D01*
X211780406Y-131672426D01*
X211811859Y-131721783D01*
X211859807Y-131755347D01*
X211916949Y-131768006D01*
X211974585Y-131757835D01*
X212023942Y-131726382D01*
X212043085Y-131704060D01*
X212498298Y-131053755D01*
X212627343Y-131053755D01*
X212627343Y-131618041D01*
X212630225Y-131647305D01*
X212652623Y-131701377D01*
X212694007Y-131742761D01*
X212748079Y-131765159D01*
X212806607Y-131765159D01*
X212860679Y-131742761D01*
X212902063Y-131701377D01*
X212924461Y-131647305D01*
X212927343Y-131618041D01*
X212927343Y-131118041D01*
X213270200Y-131118041D01*
X213270200Y-131332327D01*
X213273082Y-131361591D01*
X213275144Y-131366569D01*
X213275526Y-131371945D01*
X213286036Y-131399409D01*
X213357464Y-131542266D01*
X213365391Y-131554859D01*
X213366907Y-131558519D01*
X213370288Y-131562638D01*
X213373129Y-131567152D01*
X213376122Y-131569748D01*
X213385562Y-131581250D01*
X213456991Y-131652679D01*
X213468495Y-131662120D01*
X213471090Y-131665112D01*
X213475599Y-131667950D01*
X213479722Y-131671334D01*
X213483383Y-131672850D01*
X213495975Y-131680777D01*
X213638833Y-131752205D01*
X213666296Y-131762715D01*
X213671671Y-131763096D01*
X213676650Y-131765159D01*
X213705914Y-131768041D01*
X214277343Y-131768041D01*
X214306607Y-131765159D01*
X214360679Y-131742761D01*
X214402063Y-131701377D01*
X214424461Y-131647305D01*
X214427343Y-131618041D01*
X214427343Y-130118041D01*
X215984486Y-130118041D01*
X215984486Y-131618041D01*
X215987368Y-131647305D01*
X216009766Y-131701377D01*
X216051150Y-131742761D01*
X216105222Y-131765159D01*
X216163750Y-131765159D01*
X216217822Y-131742761D01*
X216259206Y-131701377D01*
X216281604Y-131647305D01*
X216284486Y-131618041D01*
X216284486Y-131546613D01*
X217770200Y-131546613D01*
X217770200Y-131618041D01*
X217773082Y-131647305D01*
X217775145Y-131652285D01*
X217775527Y-131657660D01*
X217786036Y-131685123D01*
X217857465Y-131827980D01*
X217865393Y-131840575D01*
X217866908Y-131844232D01*
X217870287Y-131848349D01*
X217873130Y-131852866D01*
X217876124Y-131855463D01*
X217885562Y-131866963D01*
X217956990Y-131938392D01*
X217979721Y-131957047D01*
X218033793Y-131979444D01*
X218092319Y-131979445D01*
X218146391Y-131957048D01*
X218187777Y-131915663D01*
X218210174Y-131861591D01*
X218210175Y-131803065D01*
X218187778Y-131748992D01*
X218169124Y-131726262D01*
X218114907Y-131672045D01*
X218070200Y-131582630D01*
X218070200Y-131546613D01*
X218067318Y-131517349D01*
X218044920Y-131463277D01*
X218003536Y-131421893D01*
X217949464Y-131399495D01*
X217890936Y-131399495D01*
X217836864Y-131421893D01*
X217795480Y-131463277D01*
X217773082Y-131517349D01*
X217770200Y-131546613D01*
X216284486Y-131546613D01*
X216284486Y-130618041D01*
X218484486Y-130618041D01*
X218484486Y-131118041D01*
X218484988Y-131123144D01*
X218484663Y-131125332D01*
X218486282Y-131136283D01*
X218487368Y-131147305D01*
X218488214Y-131149349D01*
X218488965Y-131154422D01*
X218560394Y-131440135D01*
X218570287Y-131467826D01*
X218576926Y-131476786D01*
X218581194Y-131487090D01*
X218599849Y-131509821D01*
X218742706Y-131652679D01*
X218754212Y-131662122D01*
X218756805Y-131665112D01*
X218761310Y-131667948D01*
X218765436Y-131671334D01*
X218769099Y-131672851D01*
X218781690Y-131680777D01*
X218924548Y-131752205D01*
X218952011Y-131762715D01*
X218957386Y-131763096D01*
X218962365Y-131765159D01*
X218991629Y-131768041D01*
X219277343Y-131768041D01*
X219306607Y-131765159D01*
X219311585Y-131763096D01*
X219316961Y-131762715D01*
X219344424Y-131752205D01*
X219487283Y-131680777D01*
X219499873Y-131672851D01*
X219503537Y-131671334D01*
X219507662Y-131667948D01*
X219512168Y-131665112D01*
X219514761Y-131662122D01*
X219526267Y-131652679D01*
X219590169Y-131588777D01*
X219915940Y-131588777D01*
X219915940Y-131647305D01*
X219938338Y-131701377D01*
X219979722Y-131742761D01*
X220033794Y-131765159D01*
X220063058Y-131768041D01*
X220777344Y-131768041D01*
X220806608Y-131765159D01*
X220860680Y-131742761D01*
X220902064Y-131701377D01*
X220924462Y-131647305D01*
X220927344Y-131618041D01*
X220927344Y-131588777D01*
X221130226Y-131588777D01*
X221130226Y-131647305D01*
X221152624Y-131701377D01*
X221194008Y-131742761D01*
X221248080Y-131765159D01*
X221277344Y-131768041D01*
X221991630Y-131768041D01*
X222020894Y-131765159D01*
X222074966Y-131742761D01*
X222116350Y-131701377D01*
X222138748Y-131647305D01*
X222141630Y-131618041D01*
X222141630Y-130118041D01*
X222138748Y-130088777D01*
X222487369Y-130088777D01*
X222487369Y-130147305D01*
X222509767Y-130201377D01*
X222551151Y-130242761D01*
X222605223Y-130265159D01*
X222634487Y-130268041D01*
X223198773Y-130268041D01*
X223198773Y-130682327D01*
X222848773Y-130682327D01*
X222819509Y-130685209D01*
X222765437Y-130707607D01*
X222724053Y-130748991D01*
X222701655Y-130803063D01*
X222701655Y-130861591D01*
X222724053Y-130915663D01*
X222765437Y-130957047D01*
X222819509Y-130979445D01*
X222848773Y-130982327D01*
X223198773Y-130982327D01*
X223198773Y-131468041D01*
X222634487Y-131468041D01*
X222605223Y-131470923D01*
X222551151Y-131493321D01*
X222509767Y-131534705D01*
X222487369Y-131588777D01*
X222487369Y-131647305D01*
X222509767Y-131701377D01*
X222551151Y-131742761D01*
X222605223Y-131765159D01*
X222634487Y-131768041D01*
X223348773Y-131768041D01*
X223378037Y-131765159D01*
X223432109Y-131742761D01*
X223473493Y-131701377D01*
X223495891Y-131647305D01*
X223498773Y-131618041D01*
X223498773Y-130118041D01*
X223913059Y-130118041D01*
X223913059Y-131618041D01*
X223915941Y-131647305D01*
X223938339Y-131701377D01*
X223979723Y-131742761D01*
X224033795Y-131765159D01*
X224092323Y-131765159D01*
X224146395Y-131742761D01*
X224187779Y-131701377D01*
X224210177Y-131647305D01*
X224213059Y-131618041D01*
X224213059Y-130982327D01*
X224770202Y-130982327D01*
X224770202Y-131618041D01*
X224773084Y-131647305D01*
X224795482Y-131701377D01*
X224836866Y-131742761D01*
X224890938Y-131765159D01*
X224949466Y-131765159D01*
X225003538Y-131742761D01*
X225044922Y-131701377D01*
X225067320Y-131647305D01*
X225070202Y-131618041D01*
X225070202Y-130118041D01*
X225067320Y-130088777D01*
X225044922Y-130034705D01*
X225003538Y-129993321D01*
X224949466Y-129970923D01*
X224890938Y-129970923D01*
X224836866Y-129993321D01*
X224795482Y-130034705D01*
X224773084Y-130088777D01*
X224770202Y-130118041D01*
X224770202Y-130682327D01*
X224213059Y-130682327D01*
X224213059Y-130118041D01*
X224210177Y-130088777D01*
X224187779Y-130034705D01*
X224146395Y-129993321D01*
X224092323Y-129970923D01*
X224033795Y-129970923D01*
X223979723Y-129993321D01*
X223938339Y-130034705D01*
X223915941Y-130088777D01*
X223913059Y-130118041D01*
X223498773Y-130118041D01*
X223495891Y-130088777D01*
X223473493Y-130034705D01*
X223432109Y-129993321D01*
X223378037Y-129970923D01*
X223348773Y-129968041D01*
X222634487Y-129968041D01*
X222605223Y-129970923D01*
X222551151Y-129993321D01*
X222509767Y-130034705D01*
X222487369Y-130088777D01*
X222138748Y-130088777D01*
X222116350Y-130034705D01*
X222074966Y-129993321D01*
X222020894Y-129970923D01*
X221962366Y-129970923D01*
X221908294Y-129993321D01*
X221866910Y-130034705D01*
X221844512Y-130088777D01*
X221841630Y-130118041D01*
X221841630Y-131468041D01*
X221277344Y-131468041D01*
X221248080Y-131470923D01*
X221194008Y-131493321D01*
X221152624Y-131534705D01*
X221130226Y-131588777D01*
X220927344Y-131588777D01*
X220927344Y-130118041D01*
X220924462Y-130088777D01*
X220902064Y-130034705D01*
X220860680Y-129993321D01*
X220806608Y-129970923D01*
X220748080Y-129970923D01*
X220694008Y-129993321D01*
X220652624Y-130034705D01*
X220630226Y-130088777D01*
X220627344Y-130118041D01*
X220627344Y-131468041D01*
X220063058Y-131468041D01*
X220033794Y-131470923D01*
X219979722Y-131493321D01*
X219938338Y-131534705D01*
X219915940Y-131588777D01*
X219590169Y-131588777D01*
X219669124Y-131509821D01*
X219687779Y-131487090D01*
X219692046Y-131476786D01*
X219698686Y-131467826D01*
X219708579Y-131440135D01*
X219780007Y-131154421D01*
X219780756Y-131149349D01*
X219781604Y-131147305D01*
X219782689Y-131136282D01*
X219784309Y-131125332D01*
X219783983Y-131123144D01*
X219784486Y-131118041D01*
X219784486Y-130618041D01*
X219783983Y-130612937D01*
X219784309Y-130610750D01*
X219782689Y-130599799D01*
X219781604Y-130588777D01*
X219780756Y-130586732D01*
X219780007Y-130581661D01*
X219708579Y-130295947D01*
X219698686Y-130268256D01*
X219692047Y-130259296D01*
X219687779Y-130248991D01*
X219669124Y-130226261D01*
X219526267Y-130083404D01*
X219514765Y-130073964D01*
X219512169Y-130070971D01*
X219507655Y-130068130D01*
X219503536Y-130064749D01*
X219499876Y-130063233D01*
X219487283Y-130055306D01*
X219344425Y-129983877D01*
X219316962Y-129973367D01*
X219311584Y-129972984D01*
X219306607Y-129970923D01*
X219277343Y-129968041D01*
X218991629Y-129968041D01*
X218962365Y-129970923D01*
X218957384Y-129972986D01*
X218952010Y-129973368D01*
X218924546Y-129983877D01*
X218781690Y-130055306D01*
X218769098Y-130063232D01*
X218765436Y-130064749D01*
X218761313Y-130068132D01*
X218756804Y-130070971D01*
X218754208Y-130073963D01*
X218742706Y-130083404D01*
X218599849Y-130226261D01*
X218581194Y-130248992D01*
X218576926Y-130259295D01*
X218570287Y-130268256D01*
X218560394Y-130295947D01*
X218488965Y-130581660D01*
X218488214Y-130586732D01*
X218487368Y-130588777D01*
X218486282Y-130599798D01*
X218484663Y-130610750D01*
X218484988Y-130612937D01*
X218484486Y-130618041D01*
X216284486Y-130618041D01*
X216284486Y-130118041D01*
X216281604Y-130088777D01*
X216259206Y-130034705D01*
X216217822Y-129993321D01*
X216163750Y-129970923D01*
X216105222Y-129970923D01*
X216051150Y-129993321D01*
X216009766Y-130034705D01*
X215987368Y-130088777D01*
X215984486Y-130118041D01*
X214427343Y-130118041D01*
X214424461Y-130088777D01*
X214402063Y-130034705D01*
X214360679Y-129993321D01*
X214306607Y-129970923D01*
X214277343Y-129968041D01*
X213777343Y-129968041D01*
X213748079Y-129970923D01*
X213743098Y-129972986D01*
X213737724Y-129973368D01*
X213710260Y-129983877D01*
X213567404Y-130055306D01*
X213554810Y-130063233D01*
X213551151Y-130064749D01*
X213547030Y-130068130D01*
X213542518Y-130070971D01*
X213539921Y-130073964D01*
X213528421Y-130083403D01*
X213456992Y-130154831D01*
X213447552Y-130166333D01*
X213444558Y-130168930D01*
X213441716Y-130173444D01*
X213438337Y-130177562D01*
X213436821Y-130181220D01*
X213428893Y-130193816D01*
X213357464Y-130336673D01*
X213346955Y-130364136D01*
X213346573Y-130369510D01*
X213344510Y-130374491D01*
X213341628Y-130403755D01*
X213341628Y-130546613D01*
X213344510Y-130575877D01*
X213346573Y-130580857D01*
X213346955Y-130586232D01*
X213357464Y-130613695D01*
X213428893Y-130756552D01*
X213436821Y-130769147D01*
X213438337Y-130772806D01*
X213441716Y-130776923D01*
X213444558Y-130781438D01*
X213447552Y-130784034D01*
X213456992Y-130795537D01*
X213458173Y-130796718D01*
X213456991Y-130797689D01*
X213385562Y-130869118D01*
X213376122Y-130880619D01*
X213373129Y-130883216D01*
X213370288Y-130887729D01*
X213366907Y-130891849D01*
X213365391Y-130895508D01*
X213357464Y-130908102D01*
X213286036Y-131050959D01*
X213275526Y-131078423D01*
X213275144Y-131083798D01*
X213273082Y-131088777D01*
X213270200Y-131118041D01*
X212927343Y-131118041D01*
X212927343Y-130118041D01*
X212924461Y-130088777D01*
X212902063Y-130034705D01*
X212860679Y-129993321D01*
X212806607Y-129970923D01*
X212777343Y-129968041D01*
X212205914Y-129968041D01*
X212176650Y-129970923D01*
X212171669Y-129972986D01*
X212166295Y-129973368D01*
X212138831Y-129983877D01*
X211995975Y-130055306D01*
X211983381Y-130063233D01*
X211979722Y-130064749D01*
X211975601Y-130068130D01*
X211971089Y-130070971D01*
X211968492Y-130073964D01*
X211956992Y-130083403D01*
X211885563Y-130154831D01*
X211876123Y-130166333D01*
X211873129Y-130168930D01*
X211870287Y-130173444D01*
X211866908Y-130177562D01*
X211865392Y-130181220D01*
X211857464Y-130193816D01*
X211786036Y-130336673D01*
X211775526Y-130364137D01*
X211775144Y-130369512D01*
X211773082Y-130374491D01*
X211770200Y-130403755D01*
X211427343Y-130403755D01*
X211427343Y-130118041D01*
X211424461Y-130088777D01*
X211402063Y-130034705D01*
X211360679Y-129993321D01*
X211306607Y-129970923D01*
X211277343Y-129968041D01*
X210563057Y-129968041D01*
X210533793Y-129970923D01*
X210479721Y-129993321D01*
X210438337Y-130034705D01*
X210415939Y-130088777D01*
X209782844Y-130088777D01*
X209776787Y-130070607D01*
X209764799Y-130043756D01*
X209757776Y-130035659D01*
X209752984Y-130026074D01*
X209738775Y-130013750D01*
X209726452Y-129999542D01*
X209716866Y-129994749D01*
X209708770Y-129987727D01*
X209690926Y-129981778D01*
X209674105Y-129973368D01*
X209663416Y-129972608D01*
X209653246Y-129969218D01*
X209634480Y-129970551D01*
X209615724Y-129969219D01*
X209605556Y-129972608D01*
X209594866Y-129973368D01*
X209578042Y-129981779D01*
X209560200Y-129987727D01*
X209552105Y-129994747D01*
X209542518Y-129999541D01*
X209530192Y-130013752D01*
X209515986Y-130026074D01*
X209511193Y-130035658D01*
X209504171Y-130043756D01*
X209492183Y-130070607D01*
X208992183Y-131570607D01*
X208985663Y-131599280D01*
X208784486Y-131599280D01*
X208784486Y-130118041D01*
X208781604Y-130088777D01*
X208759206Y-130034705D01*
X208717822Y-129993321D01*
X208663750Y-129970923D01*
X208605222Y-129970923D01*
X208551150Y-129993321D01*
X208509766Y-130034705D01*
X208487368Y-130088777D01*
X208484486Y-130118041D01*
X208484486Y-130613052D01*
X207883409Y-130011975D01*
X207860678Y-129993320D01*
X207806606Y-129970923D01*
X207748080Y-129970923D01*
X207694008Y-129993320D01*
X207652622Y-130034706D01*
X207630225Y-130088778D01*
X207630225Y-130147304D01*
X207652622Y-130201376D01*
X207671277Y-130224107D01*
X208222143Y-130774973D01*
X207657343Y-131528041D01*
X207642090Y-131553181D01*
X207627565Y-131609878D01*
X205926210Y-131609878D01*
X206026266Y-131509821D01*
X206035704Y-131498319D01*
X206038699Y-131495723D01*
X206041539Y-131491209D01*
X206044921Y-131487090D01*
X206046436Y-131483430D01*
X206054364Y-131470837D01*
X206125793Y-131327981D01*
X206126612Y-131325838D01*
X206127257Y-131324969D01*
X206131641Y-131312697D01*
X206136302Y-131300517D01*
X206136378Y-131299436D01*
X206137150Y-131297278D01*
X206208578Y-131011564D01*
X206209327Y-131006492D01*
X206210175Y-131004448D01*
X206211260Y-130993425D01*
X206212880Y-130982475D01*
X206212554Y-130980287D01*
X206213057Y-130975184D01*
X206213057Y-130760898D01*
X206212554Y-130755794D01*
X206212880Y-130753607D01*
X206211260Y-130742656D01*
X206210175Y-130731634D01*
X206209327Y-130729589D01*
X206208578Y-130724518D01*
X206137150Y-130438804D01*
X206136378Y-130436645D01*
X206136302Y-130435565D01*
X206131641Y-130423384D01*
X206127257Y-130411113D01*
X206126612Y-130410243D01*
X206125793Y-130408101D01*
X206054364Y-130265245D01*
X206046437Y-130252653D01*
X206044921Y-130248991D01*
X206041537Y-130244868D01*
X206038699Y-130240359D01*
X206035706Y-130237763D01*
X206026266Y-130226261D01*
X205883409Y-130083404D01*
X205860678Y-130064749D01*
X205855698Y-130062686D01*
X205851628Y-130059156D01*
X205824777Y-130047167D01*
X205610491Y-129975739D01*
X205595983Y-129972440D01*
X205592321Y-129970923D01*
X205587012Y-129970400D01*
X205581818Y-129969219D01*
X205577868Y-129969499D01*
X205563057Y-129968041D01*
X205420200Y-129968041D01*
X205405388Y-129969499D01*
X205401439Y-129969219D01*
X205396244Y-129970400D01*
X205390936Y-129970923D01*
X205387274Y-129972439D01*
X205372765Y-129975739D01*
X205158480Y-130047168D01*
X205131629Y-130059156D01*
X205127558Y-130062685D01*
X205122578Y-130064749D01*
X205099848Y-130083404D01*
X205028420Y-130154832D01*
X205009765Y-130177563D01*
X204987368Y-130231635D01*
X204602106Y-130231635D01*
X204597695Y-130226261D01*
X204454838Y-130083404D01*
X204443336Y-130073964D01*
X204440740Y-130070971D01*
X204436226Y-130068130D01*
X204432107Y-130064749D01*
X204428447Y-130063233D01*
X204415854Y-130055306D01*
X204272996Y-129983877D01*
X204245533Y-129973367D01*
X204240155Y-129972984D01*
X204235178Y-129970923D01*
X204205914Y-129968041D01*
X203920200Y-129968041D01*
X203890936Y-129970923D01*
X203885955Y-129972986D01*
X203880581Y-129973368D01*
X203853117Y-129983877D01*
X203710261Y-130055306D01*
X203697669Y-130063232D01*
X203694007Y-130064749D01*
X203689884Y-130068132D01*
X203685375Y-130070971D01*
X203682779Y-130073963D01*
X203671277Y-130083404D01*
X203528420Y-130226261D01*
X203509765Y-130248992D01*
X203505497Y-130259295D01*
X203498858Y-130268256D01*
X203488965Y-130295947D01*
X203417536Y-130581660D01*
X203416785Y-130586732D01*
X203415939Y-130588777D01*
X203414853Y-130599798D01*
X203413234Y-130610750D01*
X203413559Y-130612937D01*
X203413057Y-130618041D01*
X203070200Y-130618041D01*
X203070200Y-130118041D01*
X203068305Y-130098803D01*
X203068461Y-130095265D01*
X203067769Y-130093364D01*
X203067318Y-130088777D01*
X203057357Y-130064731D01*
X203048460Y-130040263D01*
X203046200Y-130037795D01*
X203044920Y-130034705D01*
X203026522Y-130016307D01*
X203008933Y-129997100D01*
X203005899Y-129995684D01*
X203003536Y-129993321D01*
X202979505Y-129983367D01*
X202955896Y-129972349D01*
X202952551Y-129972202D01*
X202949464Y-129970923D01*
X202923440Y-129970923D01*
X202897425Y-129969780D01*
X202894282Y-129970923D01*
X202890936Y-129970923D01*
X202866883Y-129980886D01*
X202842423Y-129989781D01*
X202839955Y-129992040D01*
X202836864Y-129993321D01*
X202818455Y-130011729D01*
X202799260Y-130029308D01*
X202796910Y-130033274D01*
X202795480Y-130034705D01*
X202794124Y-130037977D01*
X202784273Y-130054608D01*
X202420200Y-130834764D01*
X202056127Y-130054608D01*
X202046273Y-130037973D01*
X202044920Y-130034705D01*
X202043491Y-130033276D01*
X202041141Y-130029308D01*
X202021933Y-130011718D01*
X202003536Y-129993321D01*
X202000445Y-129992040D01*
X201997978Y-129989781D01*
X201973512Y-129980884D01*
X201949464Y-129970923D01*
X201946118Y-129970923D01*
X201942975Y-129969780D01*
X201916971Y-129970923D01*
X201890936Y-129970923D01*
X201887845Y-129972203D01*
X201884505Y-129972350D01*
X201860909Y-129983360D01*
X201836864Y-129993321D01*
X201834500Y-129995684D01*
X201831467Y-129997100D01*
X201813877Y-130016307D01*
X201795480Y-130034705D01*
X201794199Y-130037795D01*
X201791940Y-130040263D01*
X201783043Y-130064728D01*
X201773082Y-130088777D01*
X201772630Y-130093365D01*
X201771939Y-130095266D01*
X201772094Y-130098804D01*
X201770200Y-130118041D01*
X201355914Y-130118041D01*
X201353032Y-130088777D01*
X201330634Y-130034705D01*
X201289250Y-129993321D01*
X201235178Y-129970923D01*
X201205914Y-129968041D01*
X200634485Y-129968041D01*
X200605221Y-129970923D01*
X200600240Y-129972986D01*
X200594866Y-129973368D01*
X200567402Y-129983877D01*
X200424546Y-130055306D01*
X200411952Y-130063233D01*
X200408293Y-130064749D01*
X200404172Y-130068130D01*
X200399660Y-130070971D01*
X200397063Y-130073964D01*
X200385563Y-130083403D01*
X200314134Y-130154831D01*
X200304694Y-130166333D01*
X200301700Y-130168930D01*
X200298858Y-130173444D01*
X200295479Y-130177562D01*
X200293963Y-130181220D01*
X200286035Y-130193816D01*
X200214607Y-130336673D01*
X200204097Y-130364137D01*
X200203715Y-130369512D01*
X200201653Y-130374491D01*
X200198771Y-130403755D01*
X199855914Y-130403755D01*
X199855914Y-130118041D01*
X199853032Y-130088777D01*
X199830634Y-130034705D01*
X199789250Y-129993321D01*
X199735178Y-129970923D01*
X199676650Y-129970923D01*
X199622578Y-129993321D01*
X199581194Y-130034705D01*
X199558796Y-130088777D01*
X199555914Y-130118041D01*
X199555914Y-131296916D01*
X199511206Y-131386330D01*
X199474203Y-131423334D01*
X199384790Y-131468041D01*
X199169895Y-131468041D01*
X199080481Y-131423334D01*
X199043476Y-131386329D01*
X198998771Y-131296917D01*
X198998771Y-130118041D01*
X198995889Y-130088777D01*
X198973491Y-130034705D01*
X198932107Y-129993321D01*
X198878035Y-129970923D01*
X198819507Y-129970923D01*
X198765435Y-129993321D01*
X198724051Y-130034705D01*
X198701653Y-130088777D01*
X198698771Y-130118041D01*
X198495888Y-130118041D01*
X198495888Y-130088777D01*
X198473490Y-130034705D01*
X198432106Y-129993321D01*
X198378034Y-129970923D01*
X198348770Y-129968041D01*
X197491628Y-129968041D01*
X197462364Y-129970923D01*
X197408292Y-129993321D01*
X197366908Y-130034705D01*
X197344510Y-130088777D01*
X197138746Y-130088777D01*
X197116348Y-130034705D01*
X197074964Y-129993321D01*
X197020892Y-129970923D01*
X196991628Y-129968041D01*
X196277342Y-129968041D01*
X196248078Y-129970923D01*
X196194006Y-129993321D01*
X196152622Y-130034705D01*
X196130224Y-130088777D01*
X195781603Y-130088777D01*
X195759205Y-130034705D01*
X195717821Y-129993321D01*
X195663749Y-129970923D01*
X195634485Y-129968041D01*
X195063056Y-129968041D01*
X195033792Y-129970923D01*
X195028811Y-129972986D01*
X195023437Y-129973368D01*
X194995973Y-129983877D01*
X194853117Y-130055306D01*
X194840523Y-130063233D01*
X194836864Y-130064749D01*
X194832743Y-130068130D01*
X194828231Y-130070971D01*
X194825634Y-130073964D01*
X194814134Y-130083403D01*
X194742705Y-130154831D01*
X194733265Y-130166333D01*
X194730271Y-130168930D01*
X194727429Y-130173444D01*
X194724050Y-130177562D01*
X194722534Y-130181220D01*
X194714606Y-130193816D01*
X194643178Y-130336673D01*
X194632668Y-130364137D01*
X194632286Y-130369512D01*
X194630224Y-130374491D01*
X194627342Y-130403755D01*
X194355913Y-130403755D01*
X194353031Y-130374491D01*
X194350968Y-130369512D01*
X194350587Y-130364137D01*
X194340077Y-130336674D01*
X194268649Y-130193816D01*
X194260720Y-130181221D01*
X194259205Y-130177562D01*
X194255823Y-130173441D01*
X194252984Y-130168931D01*
X194249992Y-130166336D01*
X194240550Y-130154831D01*
X194169121Y-130083403D01*
X194157621Y-130073965D01*
X194155024Y-130070971D01*
X194150507Y-130068128D01*
X194146390Y-130064749D01*
X194142733Y-130063234D01*
X194130138Y-130055306D01*
X193987281Y-129983877D01*
X193959818Y-129973368D01*
X193954443Y-129972986D01*
X193949463Y-129970923D01*
X193920199Y-129968041D01*
X193563056Y-129968041D01*
X193548244Y-129969499D01*
X193544295Y-129969219D01*
X193539100Y-129970400D01*
X193533792Y-129970923D01*
X193530130Y-129972439D01*
X193515621Y-129975739D01*
X193301336Y-130047168D01*
X193274485Y-130059156D01*
X193230270Y-130097504D01*
X193204097Y-130149851D01*
X193199948Y-130208231D01*
X193218456Y-130263755D01*
X193256804Y-130307970D01*
X193309151Y-130334143D01*
X193367531Y-130338292D01*
X193396204Y-130331772D01*
X193587399Y-130268041D01*
X193884789Y-130268041D01*
X193974203Y-130312748D01*
X194011207Y-130349752D01*
X194055913Y-130439164D01*
X194055913Y-130511203D01*
X194011207Y-130600615D01*
X193974203Y-130637619D01*
X193867842Y-130690800D01*
X193598105Y-130758234D01*
X193595946Y-130759005D01*
X193594866Y-130759082D01*
X193582685Y-130763742D01*
X193570414Y-130768127D01*
X193569544Y-130768771D01*
X193567402Y-130769591D01*
X193424546Y-130841020D01*
X193411952Y-130848947D01*
X193408293Y-130850463D01*
X193404173Y-130853844D01*
X193399660Y-130856685D01*
X193397063Y-130859679D01*
X193385562Y-130869118D01*
X193314133Y-130940547D01*
X193304693Y-130952048D01*
X193301700Y-130954645D01*
X193298859Y-130959158D01*
X193295478Y-130963278D01*
X193293962Y-130966937D01*
X193286035Y-130979531D01*
X193214606Y-131122388D01*
X193204097Y-131149851D01*
X193203715Y-131155225D01*
X193201652Y-131160206D01*
X193198770Y-131189470D01*
X190945047Y-131189470D01*
X190972049Y-131135466D01*
X191009054Y-131098461D01*
X191115413Y-131045282D01*
X191385151Y-130977848D01*
X191387309Y-130977076D01*
X191388390Y-130977000D01*
X191400564Y-130972341D01*
X191412842Y-130967955D01*
X191413712Y-130967310D01*
X191415853Y-130966491D01*
X191558710Y-130895062D01*
X191571305Y-130887133D01*
X191574962Y-130885619D01*
X191579079Y-130882239D01*
X191583596Y-130879397D01*
X191586193Y-130876402D01*
X191597693Y-130866965D01*
X191669122Y-130795537D01*
X191678564Y-130784031D01*
X191681556Y-130781437D01*
X191684395Y-130776926D01*
X191687777Y-130772806D01*
X191689292Y-130769146D01*
X191697221Y-130756552D01*
X191768649Y-130613694D01*
X191779159Y-130586231D01*
X191779540Y-130580855D01*
X191781603Y-130575877D01*
X191784485Y-130546613D01*
X191784485Y-130403755D01*
X191781603Y-130374491D01*
X191779540Y-130369512D01*
X191779159Y-130364137D01*
X191768649Y-130336674D01*
X191697221Y-130193816D01*
X191689292Y-130181221D01*
X191687777Y-130177562D01*
X191684395Y-130173441D01*
X191681556Y-130168931D01*
X191678564Y-130166336D01*
X191669122Y-130154831D01*
X191597693Y-130083403D01*
X191586193Y-130073965D01*
X191583596Y-130070971D01*
X191579079Y-130068128D01*
X191574962Y-130064749D01*
X191571305Y-130063234D01*
X191558710Y-130055306D01*
X191415853Y-129983877D01*
X191388390Y-129973368D01*
X191383015Y-129972986D01*
X191378035Y-129970923D01*
X191348771Y-129968041D01*
X190991628Y-129968041D01*
X190976816Y-129969499D01*
X190972867Y-129969219D01*
X190967672Y-129970400D01*
X190962364Y-129970923D01*
X190958702Y-129972439D01*
X190944193Y-129975739D01*
X190729908Y-130047168D01*
X190703057Y-130059156D01*
X190658842Y-130097504D01*
X190632669Y-130149851D01*
X190628520Y-130208231D01*
X190647028Y-130263755D01*
X190685376Y-130307970D01*
X190737723Y-130334143D01*
X190796103Y-130338292D01*
X190824776Y-130331772D01*
X191015971Y-130268041D01*
X191313361Y-130268041D01*
X191402775Y-130312748D01*
X191439779Y-130349752D01*
X191484485Y-130439164D01*
X191484485Y-130511203D01*
X191439779Y-130600615D01*
X191402775Y-130637619D01*
X191296414Y-130690800D01*
X191026677Y-130758234D01*
X191024518Y-130759005D01*
X191023438Y-130759082D01*
X191011257Y-130763742D01*
X190998986Y-130768127D01*
X190998116Y-130768771D01*
X190995974Y-130769591D01*
X190853118Y-130841020D01*
X190840524Y-130848947D01*
X190836865Y-130850463D01*
X190832745Y-130853844D01*
X190828232Y-130856685D01*
X190825635Y-130859679D01*
X190814134Y-130869118D01*
X190742705Y-130940547D01*
X190733265Y-130952048D01*
X190730272Y-130954645D01*
X190727431Y-130959158D01*
X190724050Y-130963278D01*
X190722534Y-130966937D01*
X190714607Y-130979531D01*
X190643178Y-131122388D01*
X190632669Y-131149851D01*
X190632287Y-131155225D01*
X190630224Y-131160206D01*
X190627342Y-131189470D01*
X190342673Y-131189470D01*
X190351435Y-131154421D01*
X190352184Y-131149349D01*
X190353032Y-131147305D01*
X190354117Y-131136282D01*
X190355737Y-131125332D01*
X190355411Y-131123144D01*
X190355914Y-131118041D01*
X190355914Y-130618041D01*
X190355411Y-130612937D01*
X190355737Y-130610750D01*
X190354117Y-130599799D01*
X190353032Y-130588777D01*
X190352184Y-130586732D01*
X190351435Y-130581661D01*
X190280007Y-130295947D01*
X190270114Y-130268256D01*
X190263475Y-130259296D01*
X190259207Y-130248991D01*
X190240552Y-130226261D01*
X190097695Y-130083404D01*
X190086193Y-130073964D01*
X190083597Y-130070971D01*
X190079083Y-130068130D01*
X190074964Y-130064749D01*
X190071304Y-130063233D01*
X190058711Y-130055306D01*
X189915853Y-129983877D01*
X189888390Y-129973367D01*
X189883012Y-129972984D01*
X189878035Y-129970923D01*
X189848771Y-129968041D01*
X189563057Y-129968041D01*
X189533793Y-129970923D01*
X189528812Y-129972986D01*
X189523438Y-129973368D01*
X189495974Y-129983877D01*
X189353118Y-130055306D01*
X189340526Y-130063232D01*
X189336864Y-130064749D01*
X189332741Y-130068132D01*
X189328232Y-130070971D01*
X189325636Y-130073963D01*
X189314134Y-130083404D01*
X189171277Y-130226261D01*
X189152622Y-130248992D01*
X189148354Y-130259295D01*
X189141715Y-130268256D01*
X189131822Y-130295947D01*
X189060393Y-130581660D01*
X189059642Y-130586732D01*
X189058796Y-130588777D01*
X189057710Y-130599798D01*
X189056091Y-130610750D01*
X189056416Y-130612937D01*
X189055914Y-130618041D01*
X187570200Y-130618041D01*
X187570200Y-130118041D01*
X187567318Y-130088777D01*
X187544920Y-130034705D01*
X187503536Y-129993321D01*
X187449464Y-129970923D01*
X187420200Y-129968041D01*
X187063057Y-129968041D01*
X187048245Y-129969499D01*
X187044296Y-129969219D01*
X187039101Y-129970400D01*
X187033793Y-129970923D01*
X187030131Y-129972439D01*
X187015622Y-129975739D01*
X186801337Y-130047168D01*
X186774486Y-130059156D01*
X186770416Y-130062685D01*
X186765435Y-130064749D01*
X186742705Y-130083404D01*
X186599848Y-130226261D01*
X186590408Y-130237762D01*
X186587415Y-130240359D01*
X186584574Y-130244872D01*
X186581193Y-130248992D01*
X186579677Y-130252651D01*
X186571750Y-130265245D01*
X186500321Y-130408102D01*
X186499501Y-130410242D01*
X186498857Y-130411113D01*
X186494470Y-130423390D01*
X186489812Y-130435565D01*
X186489735Y-130436645D01*
X186488964Y-130438804D01*
X186417536Y-130724518D01*
X186416786Y-130729589D01*
X186415939Y-130731634D01*
X186414853Y-130742656D01*
X186413234Y-130753607D01*
X186413559Y-130755794D01*
X186413057Y-130760898D01*
X186141628Y-130760898D01*
X186141628Y-130618041D01*
X186141125Y-130612937D01*
X186141451Y-130610750D01*
X186139831Y-130599799D01*
X186138746Y-130588777D01*
X186137898Y-130586732D01*
X186137149Y-130581661D01*
X186065721Y-130295947D01*
X186055828Y-130268256D01*
X186049189Y-130259296D01*
X186044921Y-130248991D01*
X186026266Y-130226261D01*
X185883409Y-130083404D01*
X185871907Y-130073964D01*
X185869311Y-130070971D01*
X185864797Y-130068130D01*
X185860678Y-130064749D01*
X185857018Y-130063233D01*
X185844425Y-130055306D01*
X185701567Y-129983877D01*
X185674104Y-129973367D01*
X185668726Y-129972984D01*
X185663749Y-129970923D01*
X185634485Y-129968041D01*
X185348771Y-129968041D01*
X185319507Y-129970923D01*
X185314526Y-129972986D01*
X185309152Y-129973368D01*
X185281688Y-129983877D01*
X185138832Y-130055306D01*
X185126240Y-130063232D01*
X185122578Y-130064749D01*
X185118455Y-130068132D01*
X185113946Y-130070971D01*
X185111350Y-130073963D01*
X185099848Y-130083404D01*
X184956991Y-130226261D01*
X184938336Y-130248992D01*
X184934068Y-130259295D01*
X184927429Y-130268256D01*
X184917536Y-130295947D01*
X184846107Y-130581660D01*
X184845356Y-130586732D01*
X184844510Y-130588777D01*
X184843424Y-130599798D01*
X184841805Y-130610750D01*
X184842130Y-130612937D01*
X184841628Y-130618041D01*
X184498771Y-130618041D01*
X184498771Y-130118041D01*
X184498029Y-130110514D01*
X184498405Y-130107563D01*
X184497362Y-130103741D01*
X184495889Y-130088777D01*
X184488253Y-130070344D01*
X184483005Y-130051100D01*
X184477150Y-130043540D01*
X184473491Y-130034705D01*
X184459383Y-130020597D01*
X184447170Y-130004826D01*
X184438867Y-130000081D01*
X184432107Y-129993321D01*
X184413676Y-129985686D01*
X184396354Y-129975788D01*
X184386868Y-129974582D01*
X184378035Y-129970923D01*
X184358085Y-129970923D01*
X184338294Y-129968407D01*
X184329069Y-129970923D01*
X184319507Y-129970923D01*
X184301078Y-129978556D01*
X184281830Y-129983806D01*
X184274268Y-129989662D01*
X184265435Y-129993321D01*
X184251329Y-130007426D01*
X184235556Y-130019642D01*
X184226850Y-130031905D01*
X184224051Y-130034705D01*
X184222912Y-130037452D01*
X184218535Y-130043620D01*
X183641628Y-131053207D01*
X183641628Y-130118041D01*
X183638746Y-130088777D01*
X183616348Y-130034705D01*
X183574964Y-129993321D01*
X183520892Y-129970923D01*
X183462364Y-129970923D01*
X183408292Y-129993321D01*
X183366908Y-130034705D01*
X183344510Y-130088777D01*
X183341628Y-130118041D01*
X182873618Y-130118041D01*
X182840077Y-130050959D01*
X182824412Y-130026073D01*
X182780197Y-129987727D01*
X182724675Y-129969219D01*
X182666294Y-129973367D01*
X182613945Y-129999542D01*
X182575599Y-130043757D01*
X182557091Y-130099279D01*
X182424459Y-130099279D01*
X182424459Y-130088777D01*
X182402061Y-130034705D01*
X182360677Y-129993321D01*
X182306605Y-129970923D01*
X182277341Y-129968041D01*
X181420199Y-129968041D01*
X181390935Y-129970923D01*
X181336863Y-129993321D01*
X181295479Y-130034705D01*
X181273081Y-130088777D01*
X179924460Y-130088777D01*
X179902062Y-130034705D01*
X179860678Y-129993321D01*
X179806606Y-129970923D01*
X179777342Y-129968041D01*
X179420199Y-129968041D01*
X179405387Y-129969499D01*
X179401438Y-129969219D01*
X179396243Y-129970400D01*
X179390935Y-129970923D01*
X179387273Y-129972439D01*
X179372764Y-129975739D01*
X179158479Y-130047168D01*
X179131628Y-130059156D01*
X179127558Y-130062685D01*
X179122577Y-130064749D01*
X179099847Y-130083404D01*
X178956990Y-130226261D01*
X178947550Y-130237762D01*
X178944557Y-130240359D01*
X178941716Y-130244872D01*
X178938335Y-130248992D01*
X178936819Y-130252651D01*
X178928892Y-130265245D01*
X178857463Y-130408102D01*
X178856643Y-130410242D01*
X178855999Y-130411113D01*
X178851612Y-130423390D01*
X178846954Y-130435565D01*
X178846877Y-130436645D01*
X178846106Y-130438804D01*
X178774678Y-130724518D01*
X178773928Y-130729589D01*
X178773081Y-130731634D01*
X178771995Y-130742656D01*
X178770376Y-130753607D01*
X178770701Y-130755794D01*
X178770199Y-130760898D01*
X178498770Y-130760898D01*
X178498770Y-130618041D01*
X178498267Y-130612937D01*
X178498593Y-130610750D01*
X178496973Y-130599799D01*
X178495888Y-130588777D01*
X178495040Y-130586732D01*
X178494291Y-130581661D01*
X178422863Y-130295947D01*
X178412970Y-130268256D01*
X178406331Y-130259296D01*
X178402063Y-130248991D01*
X178383408Y-130226261D01*
X178240551Y-130083404D01*
X178229049Y-130073964D01*
X178226453Y-130070971D01*
X178221939Y-130068130D01*
X178217820Y-130064749D01*
X178214160Y-130063233D01*
X178201567Y-130055306D01*
X178058709Y-129983877D01*
X178031246Y-129973367D01*
X178025868Y-129972984D01*
X178020891Y-129970923D01*
X177991627Y-129968041D01*
X177705913Y-129968041D01*
X177676649Y-129970923D01*
X177671668Y-129972986D01*
X177666294Y-129973368D01*
X177638830Y-129983877D01*
X177495974Y-130055306D01*
X177483382Y-130063232D01*
X177479720Y-130064749D01*
X177475597Y-130068132D01*
X177471088Y-130070971D01*
X177468492Y-130073963D01*
X177456990Y-130083404D01*
X177314133Y-130226261D01*
X177295478Y-130248992D01*
X177291210Y-130259295D01*
X177284571Y-130268256D01*
X177274678Y-130295947D01*
X177203249Y-130581660D01*
X177202498Y-130586732D01*
X177201652Y-130588777D01*
X177200566Y-130599798D01*
X177198947Y-130610750D01*
X177199272Y-130612937D01*
X177198770Y-130618041D01*
X175498770Y-130618041D01*
X175498770Y-130268041D01*
X175777341Y-130268041D01*
X175806605Y-130265159D01*
X175860677Y-130242761D01*
X175902061Y-130201377D01*
X175924459Y-130147305D01*
X175924459Y-130088777D01*
X175902061Y-130034705D01*
X175860677Y-129993321D01*
X175806605Y-129970923D01*
X175777341Y-129968041D01*
X174920199Y-129968041D01*
X174890935Y-129970923D01*
X174836863Y-129993321D01*
X174795479Y-130034705D01*
X174773081Y-130088777D01*
X174567317Y-130088777D01*
X174544919Y-130034705D01*
X174503535Y-129993321D01*
X174449463Y-129970923D01*
X174390935Y-129970923D01*
X174336863Y-129993321D01*
X174295479Y-130034705D01*
X174273081Y-130088777D01*
X174270199Y-130118041D01*
X174270199Y-130682327D01*
X173713056Y-130682327D01*
X173713056Y-130118041D01*
X173710174Y-130088777D01*
X173687776Y-130034705D01*
X173646392Y-129993321D01*
X173592320Y-129970923D01*
X173533792Y-129970923D01*
X173479720Y-129993321D01*
X173438336Y-130034705D01*
X173415938Y-130088777D01*
X173413056Y-130118041D01*
X172998770Y-130118041D01*
X172995888Y-130088777D01*
X172973490Y-130034705D01*
X172932106Y-129993321D01*
X172878034Y-129970923D01*
X172848770Y-129968041D01*
X172134484Y-129968041D01*
X172105220Y-129970923D01*
X172051148Y-129993321D01*
X172009764Y-130034705D01*
X171987366Y-130088777D01*
X170495888Y-130088777D01*
X170473490Y-130034705D01*
X170432106Y-129993321D01*
X170378034Y-129970923D01*
X170348770Y-129968041D01*
X169991627Y-129968041D01*
X169976815Y-129969499D01*
X169972866Y-129969219D01*
X169967671Y-129970400D01*
X169962363Y-129970923D01*
X169958701Y-129972439D01*
X169944192Y-129975739D01*
X169729907Y-130047168D01*
X169703056Y-130059156D01*
X169698986Y-130062685D01*
X169694005Y-130064749D01*
X169671275Y-130083404D01*
X169528418Y-130226261D01*
X169518978Y-130237762D01*
X169515985Y-130240359D01*
X169513144Y-130244872D01*
X169509763Y-130248992D01*
X169508247Y-130252651D01*
X169500320Y-130265245D01*
X169428891Y-130408102D01*
X169428071Y-130410242D01*
X169427427Y-130411113D01*
X169423040Y-130423390D01*
X169418382Y-130435565D01*
X169418305Y-130436645D01*
X169417534Y-130438804D01*
X169346106Y-130724518D01*
X169345356Y-130729589D01*
X169344509Y-130731634D01*
X169343423Y-130742656D01*
X169341804Y-130753607D01*
X169342129Y-130755794D01*
X169341627Y-130760898D01*
X168998770Y-130760898D01*
X168998770Y-130118041D01*
X168995888Y-130088777D01*
X168973490Y-130034705D01*
X168932106Y-129993321D01*
X168878034Y-129970923D01*
X168819506Y-129970923D01*
X168765434Y-129993321D01*
X168724050Y-130034705D01*
X168701652Y-130088777D01*
X168698770Y-130118041D01*
X168698770Y-131296916D01*
X168654062Y-131386330D01*
X168617059Y-131423334D01*
X168527646Y-131468041D01*
X168312751Y-131468041D01*
X168223337Y-131423334D01*
X168186332Y-131386329D01*
X168141627Y-131296917D01*
X168141627Y-130118041D01*
X168138745Y-130088777D01*
X168116347Y-130034705D01*
X168074963Y-129993321D01*
X168020891Y-129970923D01*
X167962363Y-129970923D01*
X167908291Y-129993321D01*
X167866907Y-130034705D01*
X167844509Y-130088777D01*
X167841627Y-130118041D01*
X167427341Y-130118041D01*
X167425446Y-130098803D01*
X167425602Y-130095265D01*
X167424910Y-130093364D01*
X167424459Y-130088777D01*
X167414498Y-130064731D01*
X167405601Y-130040263D01*
X167403341Y-130037795D01*
X167402061Y-130034705D01*
X167383663Y-130016307D01*
X167366074Y-129997100D01*
X167363040Y-129995684D01*
X167360677Y-129993321D01*
X167336646Y-129983367D01*
X167313037Y-129972349D01*
X167309692Y-129972202D01*
X167306605Y-129970923D01*
X167280581Y-129970923D01*
X167254566Y-129969780D01*
X167251423Y-129970923D01*
X167248077Y-129970923D01*
X167224024Y-129980886D01*
X167199564Y-129989781D01*
X167197096Y-129992040D01*
X167194005Y-129993321D01*
X167175596Y-130011729D01*
X167156401Y-130029308D01*
X167154051Y-130033274D01*
X167152621Y-130034705D01*
X167151265Y-130037977D01*
X167141414Y-130054608D01*
X166777341Y-130834764D01*
X166413268Y-130054608D01*
X166403414Y-130037973D01*
X166402061Y-130034705D01*
X166400632Y-130033276D01*
X166398282Y-130029308D01*
X166379074Y-130011718D01*
X166360677Y-129993321D01*
X166357586Y-129992040D01*
X166355119Y-129989781D01*
X166330653Y-129980884D01*
X166306605Y-129970923D01*
X166303259Y-129970923D01*
X166300116Y-129969780D01*
X166274112Y-129970923D01*
X166248077Y-129970923D01*
X166244986Y-129972203D01*
X166241646Y-129972350D01*
X166218050Y-129983360D01*
X166194005Y-129993321D01*
X166191641Y-129995684D01*
X166188608Y-129997100D01*
X166171018Y-130016307D01*
X166152621Y-130034705D01*
X166151340Y-130037795D01*
X166149081Y-130040263D01*
X166140184Y-130064728D01*
X166130223Y-130088777D01*
X166129771Y-130093365D01*
X166129080Y-130095266D01*
X166129235Y-130098804D01*
X166127341Y-130118041D01*
X165713055Y-130118041D01*
X165710173Y-130088777D01*
X165687775Y-130034705D01*
X165646391Y-129993321D01*
X165592319Y-129970923D01*
X165563055Y-129968041D01*
X165063055Y-129968041D01*
X165033791Y-129970923D01*
X165028810Y-129972986D01*
X165023436Y-129973368D01*
X164995972Y-129983877D01*
X164853116Y-130055306D01*
X164840522Y-130063233D01*
X164836863Y-130064749D01*
X164832742Y-130068130D01*
X164828230Y-130070971D01*
X164825633Y-130073964D01*
X164814133Y-130083403D01*
X164742704Y-130154831D01*
X164733264Y-130166333D01*
X164730270Y-130168930D01*
X164727428Y-130173444D01*
X164724049Y-130177562D01*
X164722533Y-130181220D01*
X164714605Y-130193816D01*
X164643176Y-130336673D01*
X164632667Y-130364136D01*
X164632285Y-130369510D01*
X164630222Y-130374491D01*
X164627340Y-130403755D01*
X164627340Y-130546613D01*
X164630222Y-130575877D01*
X164632285Y-130580857D01*
X164632667Y-130586232D01*
X164643176Y-130613695D01*
X164714605Y-130756552D01*
X164722533Y-130769147D01*
X164724049Y-130772806D01*
X164727428Y-130776923D01*
X164730270Y-130781438D01*
X164733264Y-130784034D01*
X164742704Y-130795537D01*
X164743885Y-130796718D01*
X164742703Y-130797689D01*
X164671274Y-130869118D01*
X164661834Y-130880619D01*
X164658841Y-130883216D01*
X164656000Y-130887729D01*
X164652619Y-130891849D01*
X164651103Y-130895508D01*
X164643176Y-130908102D01*
X164571748Y-131050959D01*
X164561238Y-131078423D01*
X164560856Y-131083798D01*
X164558794Y-131088777D01*
X164555912Y-131118041D01*
X164389245Y-131118041D01*
X164389245Y-129801374D01*
X225236869Y-129801374D01*
X225236869Y-132146112D01*
G37*
D11*
X222335774Y-118776198D02*
X222335774Y-118844619D01*
X222335774Y-118844619D02*
X222404195Y-118981461D01*
X222404195Y-118981461D02*
X222472616Y-119049882D01*
X222472616Y-119049882D02*
X222609458Y-119118303D01*
X222609458Y-119118303D02*
X222746300Y-119118303D01*
X222746300Y-119118303D02*
X222848931Y-119084092D01*
X222848931Y-119084092D02*
X223019984Y-118981461D01*
X223019984Y-118981461D02*
X223122615Y-118878829D01*
X223122615Y-118878829D02*
X223225247Y-118707777D01*
X223225247Y-118707777D02*
X223259457Y-118605145D01*
X223259457Y-118605145D02*
X223259457Y-118468303D01*
X223259457Y-118468303D02*
X223191036Y-118331461D01*
X223191036Y-118331461D02*
X223122615Y-118263040D01*
X223122615Y-118263040D02*
X222985773Y-118194619D01*
X222985773Y-118194619D02*
X222917352Y-118194619D01*
X222746300Y-117886725D02*
X222301563Y-117441988D01*
X222301563Y-117441988D02*
X222267353Y-117955146D01*
X222267353Y-117955146D02*
X222164721Y-117852514D01*
X222164721Y-117852514D02*
X222062090Y-117818304D01*
X222062090Y-117818304D02*
X221993669Y-117818304D01*
X221993669Y-117818304D02*
X221891037Y-117852514D01*
X221891037Y-117852514D02*
X221719985Y-118023567D01*
X221719985Y-118023567D02*
X221685774Y-118126198D01*
X221685774Y-118126198D02*
X221685774Y-118194619D01*
X221685774Y-118194619D02*
X221719985Y-118297251D01*
X221719985Y-118297251D02*
X221925248Y-118502514D01*
X221925248Y-118502514D02*
X222027879Y-118536724D01*
X222027879Y-118536724D02*
X222096300Y-118536724D01*
X221148273Y-120225539D02*
X221517747Y-120595013D01*
X221333010Y-120410276D02*
X222051430Y-119691855D01*
X222051430Y-119691855D02*
X222010378Y-119856066D01*
X222010378Y-119856066D02*
X222003536Y-119986066D01*
X222003536Y-119986066D02*
X222030904Y-120081855D01*
X221466431Y-119106856D02*
X221404852Y-119045277D01*
X221404852Y-119045277D02*
X221309063Y-119017909D01*
X221309063Y-119017909D02*
X221244063Y-119021330D01*
X221244063Y-119021330D02*
X221144852Y-119058961D01*
X221144852Y-119058961D02*
X220977221Y-119165014D01*
X220977221Y-119165014D02*
X220806168Y-119336066D01*
X220806168Y-119336066D02*
X220700116Y-119503698D01*
X220700116Y-119503698D02*
X220662484Y-119602908D01*
X220662484Y-119602908D02*
X220659063Y-119667908D01*
X220659063Y-119667908D02*
X220686432Y-119763698D01*
X220686432Y-119763698D02*
X220748010Y-119825276D01*
X220748010Y-119825276D02*
X220843800Y-119852645D01*
X220843800Y-119852645D02*
X220908800Y-119849224D01*
X220908800Y-119849224D02*
X221008010Y-119811592D01*
X221008010Y-119811592D02*
X221175642Y-119705540D01*
X221175642Y-119705540D02*
X221346694Y-119534487D01*
X221346694Y-119534487D02*
X221452747Y-119366856D01*
X221452747Y-119366856D02*
X221490378Y-119267645D01*
X221490378Y-119267645D02*
X221493799Y-119202645D01*
X221493799Y-119202645D02*
X221466431Y-119106856D01*
X220850642Y-118491067D02*
X220789063Y-118429488D01*
X220789063Y-118429488D02*
X220693274Y-118402120D01*
X220693274Y-118402120D02*
X220628274Y-118405541D01*
X220628274Y-118405541D02*
X220529063Y-118443172D01*
X220529063Y-118443172D02*
X220361432Y-118549225D01*
X220361432Y-118549225D02*
X220190379Y-118720277D01*
X220190379Y-118720277D02*
X220084327Y-118887909D01*
X220084327Y-118887909D02*
X220046695Y-118987119D01*
X220046695Y-118987119D02*
X220043274Y-119052119D01*
X220043274Y-119052119D02*
X220070643Y-119147909D01*
X220070643Y-119147909D02*
X220132222Y-119209488D01*
X220132222Y-119209488D02*
X220228011Y-119236856D01*
X220228011Y-119236856D02*
X220293011Y-119233435D01*
X220293011Y-119233435D02*
X220392221Y-119195803D01*
X220392221Y-119195803D02*
X220559853Y-119089751D01*
X220559853Y-119089751D02*
X220730905Y-118918698D01*
X220730905Y-118918698D02*
X220836958Y-118751067D01*
X220836958Y-118751067D02*
X220874589Y-118651856D01*
X220874589Y-118651856D02*
X220878010Y-118586856D01*
X220878010Y-118586856D02*
X220850642Y-118491067D01*
X219841432Y-117960804D02*
X219362485Y-118439751D01*
X220118537Y-118237909D02*
X219742222Y-118614225D01*
X219742222Y-118614225D02*
X219643012Y-118651857D01*
X219643012Y-118651857D02*
X219547222Y-118624488D01*
X219547222Y-118624488D02*
X219454854Y-118532120D01*
X219454854Y-118532120D02*
X219427485Y-118436330D01*
X219427485Y-118436330D02*
X219430906Y-118371330D01*
X219215380Y-117540016D02*
X219430907Y-117755542D01*
X219054591Y-118131857D02*
X219773012Y-117413437D01*
X219773012Y-117413437D02*
X219465117Y-117105542D01*
D12*
X231642578Y-58879837D02*
X232214997Y-58778822D01*
X232046639Y-59283898D02*
X232753745Y-58576791D01*
X232753745Y-58576791D02*
X232484371Y-58307417D01*
X232484371Y-58307417D02*
X232383356Y-58273745D01*
X232383356Y-58273745D02*
X232316013Y-58273745D01*
X232316013Y-58273745D02*
X232214997Y-58307417D01*
X232214997Y-58307417D02*
X232113982Y-58408432D01*
X232113982Y-58408432D02*
X232080310Y-58509448D01*
X232080310Y-58509448D02*
X232080310Y-58576791D01*
X232080310Y-58576791D02*
X232113982Y-58677806D01*
X232113982Y-58677806D02*
X232383356Y-58947180D01*
X231709921Y-57532967D02*
X232046639Y-57869684D01*
X232046639Y-57869684D02*
X231743593Y-58240074D01*
X231743593Y-58240074D02*
X231743593Y-58172730D01*
X231743593Y-58172730D02*
X231709921Y-58071715D01*
X231709921Y-58071715D02*
X231541562Y-57903356D01*
X231541562Y-57903356D02*
X231440547Y-57869684D01*
X231440547Y-57869684D02*
X231373204Y-57869684D01*
X231373204Y-57869684D02*
X231272188Y-57903356D01*
X231272188Y-57903356D02*
X231103830Y-58071715D01*
X231103830Y-58071715D02*
X231070158Y-58172730D01*
X231070158Y-58172730D02*
X231070158Y-58240074D01*
X231070158Y-58240074D02*
X231103830Y-58341089D01*
X231103830Y-58341089D02*
X231272188Y-58509448D01*
X231272188Y-58509448D02*
X231373204Y-58543119D01*
X231373204Y-58543119D02*
X231440547Y-58543119D01*
D11*
X228706465Y-64274492D02*
X228774886Y-64274492D01*
X228774886Y-64274492D02*
X228911728Y-64206071D01*
X228911728Y-64206071D02*
X228980149Y-64137650D01*
X228980149Y-64137650D02*
X229048570Y-64000808D01*
X229048570Y-64000808D02*
X229048570Y-63863966D01*
X229048570Y-63863966D02*
X229014359Y-63761335D01*
X229014359Y-63761335D02*
X228911728Y-63590282D01*
X228911728Y-63590282D02*
X228809096Y-63487651D01*
X228809096Y-63487651D02*
X228638044Y-63385019D01*
X228638044Y-63385019D02*
X228535412Y-63350809D01*
X228535412Y-63350809D02*
X228398570Y-63350809D01*
X228398570Y-63350809D02*
X228261728Y-63419230D01*
X228261728Y-63419230D02*
X228193307Y-63487651D01*
X228193307Y-63487651D02*
X228124886Y-63624493D01*
X228124886Y-63624493D02*
X228124886Y-63692914D01*
X227406466Y-64274492D02*
X227748571Y-63932387D01*
X227748571Y-63932387D02*
X228124886Y-64240282D01*
X228124886Y-64240282D02*
X228056465Y-64240282D01*
X228056465Y-64240282D02*
X227953834Y-64274492D01*
X227953834Y-64274492D02*
X227782781Y-64445545D01*
X227782781Y-64445545D02*
X227748571Y-64548176D01*
X227748571Y-64548176D02*
X227748571Y-64616597D01*
X227748571Y-64616597D02*
X227782781Y-64719229D01*
X227782781Y-64719229D02*
X227953834Y-64890281D01*
X227953834Y-64890281D02*
X228056465Y-64924492D01*
X228056465Y-64924492D02*
X228124886Y-64924492D01*
X228124886Y-64924492D02*
X228227518Y-64890281D01*
X228227518Y-64890281D02*
X228398570Y-64719229D01*
X228398570Y-64719229D02*
X228432781Y-64616597D01*
X228432781Y-64616597D02*
X228432781Y-64548176D01*
X225766719Y-59572906D02*
X226136193Y-59203432D01*
X225951456Y-59388169D02*
X225233035Y-58669749D01*
X225233035Y-58669749D02*
X225397246Y-58710801D01*
X225397246Y-58710801D02*
X225527246Y-58717643D01*
X225527246Y-58717643D02*
X225623035Y-58690275D01*
X224648036Y-59254748D02*
X224586457Y-59316327D01*
X224586457Y-59316327D02*
X224559089Y-59412116D01*
X224559089Y-59412116D02*
X224562510Y-59477116D01*
X224562510Y-59477116D02*
X224600141Y-59576327D01*
X224600141Y-59576327D02*
X224706194Y-59743958D01*
X224706194Y-59743958D02*
X224877246Y-59915011D01*
X224877246Y-59915011D02*
X225044878Y-60021063D01*
X225044878Y-60021063D02*
X225144088Y-60058695D01*
X225144088Y-60058695D02*
X225209088Y-60062116D01*
X225209088Y-60062116D02*
X225304878Y-60034747D01*
X225304878Y-60034747D02*
X225366456Y-59973169D01*
X225366456Y-59973169D02*
X225393825Y-59877379D01*
X225393825Y-59877379D02*
X225390404Y-59812379D01*
X225390404Y-59812379D02*
X225352772Y-59713169D01*
X225352772Y-59713169D02*
X225246720Y-59545537D01*
X225246720Y-59545537D02*
X225075667Y-59374485D01*
X225075667Y-59374485D02*
X224908036Y-59268432D01*
X224908036Y-59268432D02*
X224808825Y-59230801D01*
X224808825Y-59230801D02*
X224743825Y-59227380D01*
X224743825Y-59227380D02*
X224648036Y-59254748D01*
X224032247Y-59870537D02*
X223970668Y-59932116D01*
X223970668Y-59932116D02*
X223943300Y-60027905D01*
X223943300Y-60027905D02*
X223946721Y-60092905D01*
X223946721Y-60092905D02*
X223984352Y-60192116D01*
X223984352Y-60192116D02*
X224090405Y-60359747D01*
X224090405Y-60359747D02*
X224261457Y-60530800D01*
X224261457Y-60530800D02*
X224429089Y-60636852D01*
X224429089Y-60636852D02*
X224528299Y-60674484D01*
X224528299Y-60674484D02*
X224593299Y-60677905D01*
X224593299Y-60677905D02*
X224689089Y-60650536D01*
X224689089Y-60650536D02*
X224750668Y-60588957D01*
X224750668Y-60588957D02*
X224778036Y-60493168D01*
X224778036Y-60493168D02*
X224774615Y-60428168D01*
X224774615Y-60428168D02*
X224736983Y-60328958D01*
X224736983Y-60328958D02*
X224630931Y-60161326D01*
X224630931Y-60161326D02*
X224459878Y-59990274D01*
X224459878Y-59990274D02*
X224292247Y-59884221D01*
X224292247Y-59884221D02*
X224193036Y-59846590D01*
X224193036Y-59846590D02*
X224128036Y-59843169D01*
X224128036Y-59843169D02*
X224032247Y-59870537D01*
X223501984Y-60879747D02*
X223980931Y-61358694D01*
X223779089Y-60602642D02*
X224155405Y-60978957D01*
X224155405Y-60978957D02*
X224193037Y-61078167D01*
X224193037Y-61078167D02*
X224165668Y-61173957D01*
X224165668Y-61173957D02*
X224073300Y-61266325D01*
X224073300Y-61266325D02*
X223977510Y-61293694D01*
X223977510Y-61293694D02*
X223912510Y-61290273D01*
X223081196Y-61505799D02*
X223296722Y-61290272D01*
X223673037Y-61666588D02*
X222954617Y-60948167D01*
X222954617Y-60948167D02*
X222646722Y-61256062D01*
D12*
X142233333Y-48589819D02*
X142233333Y-49304104D01*
X142233333Y-49304104D02*
X142280952Y-49446961D01*
X142280952Y-49446961D02*
X142376190Y-49542200D01*
X142376190Y-49542200D02*
X142519047Y-49589819D01*
X142519047Y-49589819D02*
X142614285Y-49589819D01*
X141804761Y-48685057D02*
X141757142Y-48637438D01*
X141757142Y-48637438D02*
X141661904Y-48589819D01*
X141661904Y-48589819D02*
X141423809Y-48589819D01*
X141423809Y-48589819D02*
X141328571Y-48637438D01*
X141328571Y-48637438D02*
X141280952Y-48685057D01*
X141280952Y-48685057D02*
X141233333Y-48780295D01*
X141233333Y-48780295D02*
X141233333Y-48875533D01*
X141233333Y-48875533D02*
X141280952Y-49018390D01*
X141280952Y-49018390D02*
X141852380Y-49589819D01*
X141852380Y-49589819D02*
X141233333Y-49589819D01*
X222484581Y-72833333D02*
X222532201Y-72785714D01*
X222532201Y-72785714D02*
X222579820Y-72642857D01*
X222579820Y-72642857D02*
X222579820Y-72547619D01*
X222579820Y-72547619D02*
X222532201Y-72404762D01*
X222532201Y-72404762D02*
X222436962Y-72309524D01*
X222436962Y-72309524D02*
X222341724Y-72261905D01*
X222341724Y-72261905D02*
X222151248Y-72214286D01*
X222151248Y-72214286D02*
X222008391Y-72214286D01*
X222008391Y-72214286D02*
X221817915Y-72261905D01*
X221817915Y-72261905D02*
X221722677Y-72309524D01*
X221722677Y-72309524D02*
X221627439Y-72404762D01*
X221627439Y-72404762D02*
X221579820Y-72547619D01*
X221579820Y-72547619D02*
X221579820Y-72642857D01*
X221579820Y-72642857D02*
X221627439Y-72785714D01*
X221627439Y-72785714D02*
X221675058Y-72833333D01*
X222579820Y-73785714D02*
X222579820Y-73214286D01*
X222579820Y-73500000D02*
X221579820Y-73500000D01*
X221579820Y-73500000D02*
X221722677Y-73404762D01*
X221722677Y-73404762D02*
X221817915Y-73309524D01*
X221817915Y-73309524D02*
X221865534Y-73214286D01*
X226958682Y-60800480D02*
X226857667Y-60228061D01*
X227362743Y-60396419D02*
X226655636Y-59689313D01*
X226655636Y-59689313D02*
X226386262Y-59958687D01*
X226386262Y-59958687D02*
X226352590Y-60059702D01*
X226352590Y-60059702D02*
X226352590Y-60127045D01*
X226352590Y-60127045D02*
X226386262Y-60228061D01*
X226386262Y-60228061D02*
X226487277Y-60329076D01*
X226487277Y-60329076D02*
X226588293Y-60362748D01*
X226588293Y-60362748D02*
X226655636Y-60362748D01*
X226655636Y-60362748D02*
X226756651Y-60329076D01*
X226756651Y-60329076D02*
X227026025Y-60059702D01*
X225645484Y-60699465D02*
X225780171Y-60564778D01*
X225780171Y-60564778D02*
X225881186Y-60531106D01*
X225881186Y-60531106D02*
X225948529Y-60531106D01*
X225948529Y-60531106D02*
X226116888Y-60564778D01*
X226116888Y-60564778D02*
X226285247Y-60665793D01*
X226285247Y-60665793D02*
X226554621Y-60935167D01*
X226554621Y-60935167D02*
X226588293Y-61036183D01*
X226588293Y-61036183D02*
X226588293Y-61103526D01*
X226588293Y-61103526D02*
X226554621Y-61204541D01*
X226554621Y-61204541D02*
X226419934Y-61339228D01*
X226419934Y-61339228D02*
X226318919Y-61372900D01*
X226318919Y-61372900D02*
X226251575Y-61372900D01*
X226251575Y-61372900D02*
X226150560Y-61339228D01*
X226150560Y-61339228D02*
X225982201Y-61170870D01*
X225982201Y-61170870D02*
X225948529Y-61069854D01*
X225948529Y-61069854D02*
X225948529Y-61002511D01*
X225948529Y-61002511D02*
X225982201Y-60901496D01*
X225982201Y-60901496D02*
X226116888Y-60766809D01*
X226116888Y-60766809D02*
X226217903Y-60733137D01*
X226217903Y-60733137D02*
X226285247Y-60733137D01*
X226285247Y-60733137D02*
X226386262Y-60766809D01*
X221059819Y-81653332D02*
X220583628Y-81319999D01*
X221059819Y-81081904D02*
X220059819Y-81081904D01*
X220059819Y-81081904D02*
X220059819Y-81462856D01*
X220059819Y-81462856D02*
X220107438Y-81558094D01*
X220107438Y-81558094D02*
X220155057Y-81605713D01*
X220155057Y-81605713D02*
X220250295Y-81653332D01*
X220250295Y-81653332D02*
X220393152Y-81653332D01*
X220393152Y-81653332D02*
X220488390Y-81605713D01*
X220488390Y-81605713D02*
X220536009Y-81558094D01*
X220536009Y-81558094D02*
X220583628Y-81462856D01*
X220583628Y-81462856D02*
X220583628Y-81081904D01*
X220155057Y-82034285D02*
X220107438Y-82081904D01*
X220107438Y-82081904D02*
X220059819Y-82177142D01*
X220059819Y-82177142D02*
X220059819Y-82415237D01*
X220059819Y-82415237D02*
X220107438Y-82510475D01*
X220107438Y-82510475D02*
X220155057Y-82558094D01*
X220155057Y-82558094D02*
X220250295Y-82605713D01*
X220250295Y-82605713D02*
X220345533Y-82605713D01*
X220345533Y-82605713D02*
X220488390Y-82558094D01*
X220488390Y-82558094D02*
X221059819Y-81986666D01*
X221059819Y-81986666D02*
X221059819Y-82605713D01*
D11*
X229041591Y-118862340D02*
X229110012Y-118862340D01*
X229110012Y-118862340D02*
X229246854Y-118793919D01*
X229246854Y-118793919D02*
X229315275Y-118725498D01*
X229315275Y-118725498D02*
X229383696Y-118588656D01*
X229383696Y-118588656D02*
X229383696Y-118451814D01*
X229383696Y-118451814D02*
X229349485Y-118349183D01*
X229349485Y-118349183D02*
X229246854Y-118178130D01*
X229246854Y-118178130D02*
X229144222Y-118075499D01*
X229144222Y-118075499D02*
X228973170Y-117972867D01*
X228973170Y-117972867D02*
X228870538Y-117938657D01*
X228870538Y-117938657D02*
X228733696Y-117938657D01*
X228733696Y-117938657D02*
X228596854Y-118007078D01*
X228596854Y-118007078D02*
X228528433Y-118075499D01*
X228528433Y-118075499D02*
X228460012Y-118212341D01*
X228460012Y-118212341D02*
X228460012Y-118280762D01*
X228015276Y-119067603D02*
X228494223Y-119546550D01*
X227912644Y-118622867D02*
X228596854Y-118964972D01*
X228596854Y-118964972D02*
X228152118Y-119409708D01*
X230198591Y-119985616D02*
X230568065Y-119616142D01*
X230383328Y-119800879D02*
X229664907Y-119082459D01*
X229664907Y-119082459D02*
X229829118Y-119123511D01*
X229829118Y-119123511D02*
X229959118Y-119130353D01*
X229959118Y-119130353D02*
X230054907Y-119102985D01*
X229079908Y-119667458D02*
X229018329Y-119729037D01*
X229018329Y-119729037D02*
X228990961Y-119824826D01*
X228990961Y-119824826D02*
X228994382Y-119889826D01*
X228994382Y-119889826D02*
X229032013Y-119989037D01*
X229032013Y-119989037D02*
X229138066Y-120156668D01*
X229138066Y-120156668D02*
X229309118Y-120327721D01*
X229309118Y-120327721D02*
X229476750Y-120433773D01*
X229476750Y-120433773D02*
X229575960Y-120471405D01*
X229575960Y-120471405D02*
X229640960Y-120474826D01*
X229640960Y-120474826D02*
X229736750Y-120447457D01*
X229736750Y-120447457D02*
X229798328Y-120385879D01*
X229798328Y-120385879D02*
X229825697Y-120290089D01*
X229825697Y-120290089D02*
X229822276Y-120225089D01*
X229822276Y-120225089D02*
X229784644Y-120125879D01*
X229784644Y-120125879D02*
X229678592Y-119958247D01*
X229678592Y-119958247D02*
X229507539Y-119787195D01*
X229507539Y-119787195D02*
X229339908Y-119681142D01*
X229339908Y-119681142D02*
X229240697Y-119643511D01*
X229240697Y-119643511D02*
X229175697Y-119640090D01*
X229175697Y-119640090D02*
X229079908Y-119667458D01*
X228464119Y-120283247D02*
X228402540Y-120344826D01*
X228402540Y-120344826D02*
X228375172Y-120440615D01*
X228375172Y-120440615D02*
X228378593Y-120505615D01*
X228378593Y-120505615D02*
X228416224Y-120604826D01*
X228416224Y-120604826D02*
X228522277Y-120772457D01*
X228522277Y-120772457D02*
X228693329Y-120943510D01*
X228693329Y-120943510D02*
X228860961Y-121049562D01*
X228860961Y-121049562D02*
X228960171Y-121087194D01*
X228960171Y-121087194D02*
X229025171Y-121090615D01*
X229025171Y-121090615D02*
X229120961Y-121063246D01*
X229120961Y-121063246D02*
X229182540Y-121001667D01*
X229182540Y-121001667D02*
X229209908Y-120905878D01*
X229209908Y-120905878D02*
X229206487Y-120840878D01*
X229206487Y-120840878D02*
X229168855Y-120741668D01*
X229168855Y-120741668D02*
X229062803Y-120574036D01*
X229062803Y-120574036D02*
X228891750Y-120402984D01*
X228891750Y-120402984D02*
X228724119Y-120296931D01*
X228724119Y-120296931D02*
X228624908Y-120259300D01*
X228624908Y-120259300D02*
X228559908Y-120255879D01*
X228559908Y-120255879D02*
X228464119Y-120283247D01*
X227933856Y-121292457D02*
X228412803Y-121771404D01*
X228210961Y-121015352D02*
X228587277Y-121391667D01*
X228587277Y-121391667D02*
X228624909Y-121490877D01*
X228624909Y-121490877D02*
X228597540Y-121586667D01*
X228597540Y-121586667D02*
X228505172Y-121679035D01*
X228505172Y-121679035D02*
X228409382Y-121706404D01*
X228409382Y-121706404D02*
X228344382Y-121702983D01*
X227513068Y-121918509D02*
X227728594Y-121702982D01*
X228104909Y-122079298D02*
X227386489Y-121360877D01*
X227386489Y-121360877D02*
X227078594Y-121668772D01*
D12*
X232046481Y-122523241D02*
X231945466Y-121950822D01*
X232450542Y-122119180D02*
X231743435Y-121412074D01*
X231743435Y-121412074D02*
X231474061Y-121681448D01*
X231474061Y-121681448D02*
X231440389Y-121782463D01*
X231440389Y-121782463D02*
X231440389Y-121849806D01*
X231440389Y-121849806D02*
X231474061Y-121950822D01*
X231474061Y-121950822D02*
X231575076Y-122051837D01*
X231575076Y-122051837D02*
X231676092Y-122085509D01*
X231676092Y-122085509D02*
X231743435Y-122085509D01*
X231743435Y-122085509D02*
X231844450Y-122051837D01*
X231844450Y-122051837D02*
X232113824Y-121782463D01*
X231103672Y-122051837D02*
X230632267Y-122523241D01*
X230632267Y-122523241D02*
X231642420Y-122927302D01*
X224309819Y-63733333D02*
X223833628Y-63400000D01*
X224309819Y-63161905D02*
X223309819Y-63161905D01*
X223309819Y-63161905D02*
X223309819Y-63542857D01*
X223309819Y-63542857D02*
X223357438Y-63638095D01*
X223357438Y-63638095D02*
X223405057Y-63685714D01*
X223405057Y-63685714D02*
X223500295Y-63733333D01*
X223500295Y-63733333D02*
X223643152Y-63733333D01*
X223643152Y-63733333D02*
X223738390Y-63685714D01*
X223738390Y-63685714D02*
X223786009Y-63638095D01*
X223786009Y-63638095D02*
X223833628Y-63542857D01*
X223833628Y-63542857D02*
X223833628Y-63161905D01*
X223738390Y-64304762D02*
X223690771Y-64209524D01*
X223690771Y-64209524D02*
X223643152Y-64161905D01*
X223643152Y-64161905D02*
X223547914Y-64114286D01*
X223547914Y-64114286D02*
X223500295Y-64114286D01*
X223500295Y-64114286D02*
X223405057Y-64161905D01*
X223405057Y-64161905D02*
X223357438Y-64209524D01*
X223357438Y-64209524D02*
X223309819Y-64304762D01*
X223309819Y-64304762D02*
X223309819Y-64495238D01*
X223309819Y-64495238D02*
X223357438Y-64590476D01*
X223357438Y-64590476D02*
X223405057Y-64638095D01*
X223405057Y-64638095D02*
X223500295Y-64685714D01*
X223500295Y-64685714D02*
X223547914Y-64685714D01*
X223547914Y-64685714D02*
X223643152Y-64638095D01*
X223643152Y-64638095D02*
X223690771Y-64590476D01*
X223690771Y-64590476D02*
X223738390Y-64495238D01*
X223738390Y-64495238D02*
X223738390Y-64304762D01*
X223738390Y-64304762D02*
X223786009Y-64209524D01*
X223786009Y-64209524D02*
X223833628Y-64161905D01*
X223833628Y-64161905D02*
X223928866Y-64114286D01*
X223928866Y-64114286D02*
X224119342Y-64114286D01*
X224119342Y-64114286D02*
X224214580Y-64161905D01*
X224214580Y-64161905D02*
X224262200Y-64209524D01*
X224262200Y-64209524D02*
X224309819Y-64304762D01*
X224309819Y-64304762D02*
X224309819Y-64495238D01*
X224309819Y-64495238D02*
X224262200Y-64590476D01*
X224262200Y-64590476D02*
X224214580Y-64638095D01*
X224214580Y-64638095D02*
X224119342Y-64685714D01*
X224119342Y-64685714D02*
X223928866Y-64685714D01*
X223928866Y-64685714D02*
X223833628Y-64638095D01*
X223833628Y-64638095D02*
X223786009Y-64590476D01*
X223786009Y-64590476D02*
X223738390Y-64495238D01*
X221484580Y-78633333D02*
X221532200Y-78585714D01*
X221532200Y-78585714D02*
X221579819Y-78442857D01*
X221579819Y-78442857D02*
X221579819Y-78347619D01*
X221579819Y-78347619D02*
X221532200Y-78204762D01*
X221532200Y-78204762D02*
X221436961Y-78109524D01*
X221436961Y-78109524D02*
X221341723Y-78061905D01*
X221341723Y-78061905D02*
X221151247Y-78014286D01*
X221151247Y-78014286D02*
X221008390Y-78014286D01*
X221008390Y-78014286D02*
X220817914Y-78061905D01*
X220817914Y-78061905D02*
X220722676Y-78109524D01*
X220722676Y-78109524D02*
X220627438Y-78204762D01*
X220627438Y-78204762D02*
X220579819Y-78347619D01*
X220579819Y-78347619D02*
X220579819Y-78442857D01*
X220579819Y-78442857D02*
X220627438Y-78585714D01*
X220627438Y-78585714D02*
X220675057Y-78633333D01*
X220675057Y-79014286D02*
X220627438Y-79061905D01*
X220627438Y-79061905D02*
X220579819Y-79157143D01*
X220579819Y-79157143D02*
X220579819Y-79395238D01*
X220579819Y-79395238D02*
X220627438Y-79490476D01*
X220627438Y-79490476D02*
X220675057Y-79538095D01*
X220675057Y-79538095D02*
X220770295Y-79585714D01*
X220770295Y-79585714D02*
X220865533Y-79585714D01*
X220865533Y-79585714D02*
X221008390Y-79538095D01*
X221008390Y-79538095D02*
X221579819Y-78966667D01*
X221579819Y-78966667D02*
X221579819Y-79585714D01*
D13*
%TO.C,C3*%
X222970783Y-117321613D02*
X221964921Y-116315751D01*
X224894113Y-115398283D02*
X223888251Y-114392421D01*
%TO.C,R5*%
X229999325Y-59966272D02*
X230320442Y-60287389D01*
X231038772Y-58926825D02*
X231359889Y-59247942D01*
%TO.C,C5*%
X226103766Y-60905404D02*
X225097904Y-61911266D01*
X228027096Y-62828734D02*
X227021234Y-63834596D01*
D14*
%TO.C,J2*%
X138825000Y-46550000D02*
X138825000Y-40250000D01*
X145325000Y-40250000D02*
X145325000Y-46550000D01*
X145325000Y-46550000D02*
X138825000Y-46550000D01*
X231125000Y-40250000D02*
X231125000Y-46550000D01*
X231125000Y-46550000D02*
X237625000Y-46550000D01*
X237625000Y-46550000D02*
X237625000Y-40250000D01*
D15*
X146825000Y-46000000D02*
G75*
G02*
X146625000Y-46000000I-100000J0D01*
G01*
X146625000Y-46000000D02*
G75*
G02*
X146825000Y-46000000I100000J0D01*
G01*
D13*
%TO.C,C1*%
X223070000Y-73261253D02*
X223070000Y-72738747D01*
X224540000Y-73261253D02*
X224540000Y-72738747D01*
%TO.C,R6*%
X224993335Y-58749718D02*
X224672218Y-59070835D01*
X226032782Y-59789165D02*
X225711665Y-60110282D01*
%TO.C,R2*%
X219870000Y-78572936D02*
X219870000Y-79027064D01*
X221340000Y-78572936D02*
X221340000Y-79027064D01*
%TO.C,C4*%
X230700797Y-116766881D02*
X231706659Y-115761019D01*
X232624127Y-118690211D02*
X233629989Y-117684349D01*
%TO.C,R7*%
X233292218Y-119812326D02*
X233613335Y-119491209D01*
X234331665Y-120851773D02*
X234652782Y-120530656D01*
%TO.C,R8*%
X223070000Y-67427064D02*
X223070000Y-66972936D01*
X224540000Y-67427064D02*
X224540000Y-66972936D01*
%TO.C,C2*%
X222070000Y-79061252D02*
X222070000Y-78538748D01*
X223540000Y-79061252D02*
X223540000Y-78538748D01*
%TD*%
M02*
