%TF.GenerationSoftware,KiCad,Pcbnew,8.0.5*%
%TF.CreationDate,2024-10-29T15:45:57-04:00*%
%TF.ProjectId,Controller,436f6e74-726f-46c6-9c65-722e6b696361,rev?*%
%TF.SameCoordinates,Original*%
%TF.FileFunction,Profile,NP*%
%FSLAX46Y46*%
G04 Gerber Fmt 4.6, Leading zero omitted, Abs format (unit mm)*
G04 Created by KiCad (PCBNEW 8.0.5) date 2024-10-29 15:45:57*
%MOMM*%
%LPD*%
G01*
G04 APERTURE LIST*
%TA.AperFunction,Profile*%
%ADD10C,0.100000*%
%TD*%
%TA.AperFunction,Profile*%
%ADD11C,0.010000*%
%TD*%
G04 APERTURE END LIST*
D10*
X237949920Y-125317212D02*
G75*
G02*
X231949712Y-131317420I-6000220J12D01*
G01*
X144499714Y-131317420D02*
G75*
G02*
X138499480Y-125317212I-14J6000220D01*
G01*
X146074713Y-131317213D02*
X144499714Y-131317420D01*
X138499506Y-125317212D02*
X138499311Y-43250213D01*
X230292500Y-29860000D02*
X231867499Y-29860220D01*
X234966545Y-40266811D02*
G75*
G02*
X237949889Y-43250213I-45J-2983389D01*
G01*
X230374713Y-131317213D02*
X231949712Y-131317433D01*
X138499311Y-43250213D02*
G75*
G02*
X141482713Y-40266811I2983389J13D01*
G01*
X141482713Y-40266811D02*
X234966545Y-40266811D01*
X237949947Y-43250213D02*
X237949920Y-125317212D01*
%TO.C,J1*%
X146074713Y-131317213D02*
X146074713Y-139217213D01*
X146074713Y-139217213D02*
X146574713Y-139717213D01*
X146574713Y-139717213D02*
X156774713Y-139717213D01*
X157274713Y-132267213D02*
X157274713Y-139217213D01*
X157274713Y-139217213D02*
X156774713Y-139717213D01*
X159174713Y-132267213D02*
X159174713Y-139217213D01*
X159174713Y-139217213D02*
X159674713Y-139717213D01*
X159674713Y-139717213D02*
X229874713Y-139717213D01*
X230374713Y-131317213D02*
X230374713Y-139217213D01*
X230374713Y-139217213D02*
X229874713Y-139717213D01*
X157274713Y-132267213D02*
G75*
G02*
X159174713Y-132267213I950000J0D01*
G01*
D11*
%TO.C,J2*%
X156750000Y-40250000D02*
X159700000Y-40250000D01*
X157250000Y-40750000D02*
X156750000Y-40250000D01*
X157250000Y-45275000D02*
X157250000Y-40750000D01*
X159200000Y-40750000D02*
X159200000Y-45275000D01*
X159700000Y-40250000D02*
X159200000Y-40750000D01*
X158225000Y-46250000D02*
G75*
G02*
X157250000Y-45275000I0J975000D01*
G01*
X159200000Y-45275000D02*
G75*
G02*
X158225000Y-46250000I-975000J0D01*
G01*
%TD*%
M02*
