M48
; DRILL file {KiCad 8.0.5} date 2024-11-27T23:03:38-0500
; FORMAT={-:-/ absolute / inch / decimal}
; #@! TF.CreationDate,2024-11-27T23:03:38-05:00
; #@! TF.GenerationSoftware,Kicad,Pcbnew,8.0.5
; #@! TF.FileFunction,Plated,1,4,PTH
FMAT,2
INCH
; #@! TA.AperFunction,Plated,PTH,ViaDrill
T1C0.0118
; #@! TA.AperFunction,Plated,PTH,ComponentDrill
T2C0.0394
; #@! TA.AperFunction,Plated,PTH,ComponentDrill
T3C0.0510
; #@! TA.AperFunction,Plated,PTH,ComponentDrill
T4C0.0730
; #@! TA.AperFunction,Plated,PTH,ComponentDrill
T5C0.0906
; #@! TA.AperFunction,Plated,PTH,ComponentDrill
T6C0.1260
%
G90
G05
T1
X5.3462Y-4.0015
X5.3509Y-4.027
X5.3702Y-4.0444
X5.4052Y-4.0406
X5.4052Y-4.08
X5.4052Y-4.1193
X7.4059Y-4.8943
X7.5306Y-4.8674
X7.5445Y-4.8943
X7.6663Y-5.3426
X7.7263Y-4.9963
X7.7618Y-5.4974
X7.93Y-4.9559
X8.4936Y-5.413
X8.593Y-5.0984
X8.6127Y-5.1181
X8.6324Y-5.1378
X8.652Y-5.1575
X8.6717Y-5.1772
X8.6914Y-5.1969
X8.7111Y-5.2165
X8.7308Y-5.2362
T2
X5.2662Y-2.002
X5.3647Y-2.002
X5.4631Y-2.002
X5.9542Y-2.0
X6.0527Y-2.0
X6.1511Y-2.0
X6.6235Y-2.0
X6.7219Y-2.0
X6.8204Y-2.0
X8.6292Y-3.8098
X8.6292Y-3.9098
X8.6292Y-4.0098
X8.6292Y-4.1098
X8.7292Y-3.8098
X8.7292Y-3.9098
X8.7292Y-4.0098
X8.7292Y-4.1098
X8.7308Y-4.3642
X8.7308Y-4.4642
X8.7308Y-4.5642
X8.7308Y-4.6642
T3
X7.3064Y-5.1382
X7.3064Y-5.2382
X7.4064Y-5.1382
X7.4064Y-5.2382
X7.5064Y-5.1382
X7.5064Y-5.2382
X7.6064Y-5.1382
X7.6064Y-5.2382
X7.7064Y-5.1382
X7.7064Y-5.2382
X7.8064Y-5.1382
X7.8064Y-5.2382
X7.9064Y-5.1382
X7.9064Y-5.2382
X8.0064Y-5.1382
X8.0064Y-5.2382
T4
X7.1585Y-2.4232
X7.1585Y-2.5732
X7.2435Y-1.9232
X7.3435Y-2.4232
X7.3435Y-2.5732
X7.4435Y-1.9232
X7.5285Y-2.4232
X7.5285Y-2.5732
T5
X5.1678Y-2.1319
X5.5615Y-2.1319
X5.8558Y-2.1299
X6.2495Y-2.1299
X6.5251Y-2.1299
X6.9188Y-2.1299
T6
X5.1088Y-2.7894
X5.1088Y-3.5768
X5.1088Y-5.5453
X7.0773Y-3.5768
X7.0773Y-5.5453
X8.6521Y-2.7894
M30
