%TF.GenerationSoftware,KiCad,Pcbnew,8.0.5*%
%TF.CreationDate,2024-11-27T23:03:38-05:00*%
%TF.ProjectId,HacKeys,4861634b-6579-4732-9e6b-696361645f70,rev?*%
%TF.SameCoordinates,Original*%
%TF.FileFunction,Paste,Top*%
%TF.FilePolarity,Positive*%
%FSLAX46Y46*%
G04 Gerber Fmt 4.6, Leading zero omitted, Abs format (unit mm)*
G04 Created by KiCad (PCBNEW 8.0.5) date 2024-11-27 23:03:38*
%MOMM*%
%LPD*%
G01*
G04 APERTURE LIST*
G04 Aperture macros list*
%AMRoundRect*
0 Rectangle with rounded corners*
0 $1 Rounding radius*
0 $2 $3 $4 $5 $6 $7 $8 $9 X,Y pos of 4 corners*
0 Add a 4 corners polygon primitive as box body*
4,1,4,$2,$3,$4,$5,$6,$7,$8,$9,$2,$3,0*
0 Add four circle primitives for the rounded corners*
1,1,$1+$1,$2,$3*
1,1,$1+$1,$4,$5*
1,1,$1+$1,$6,$7*
1,1,$1+$1,$8,$9*
0 Add four rect primitives between the rounded corners*
20,1,$1+$1,$2,$3,$4,$5,0*
20,1,$1+$1,$4,$5,$6,$7,0*
20,1,$1+$1,$6,$7,$8,$9,0*
20,1,$1+$1,$8,$9,$2,$3,0*%
G04 Aperture macros list end*
%ADD10C,0.100000*%
%ADD11R,2.800000X2.200000*%
%ADD12R,2.800000X2.800000*%
%ADD13R,2.800000X2.600000*%
%ADD14R,0.300000X0.800000*%
%ADD15R,0.400000X0.800000*%
%ADD16R,1.400000X0.300000*%
%ADD17RoundRect,0.250000X-0.450000X0.325000X-0.450000X-0.325000X0.450000X-0.325000X0.450000X0.325000X0*%
%ADD18RoundRect,0.250000X0.450000X-0.325000X0.450000X0.325000X-0.450000X0.325000X-0.450000X-0.325000X0*%
%ADD19R,1.549400X0.660400*%
%ADD20R,1.905000X1.295400*%
G04 APERTURE END LIST*
D10*
%TO.C,J11*%
X133843100Y-95730501D02*
X134343100Y-95730501D01*
X134343100Y-97680501D01*
X132043100Y-97680501D01*
X132043100Y-96430501D01*
X132743100Y-96430501D01*
X132743100Y-95030501D01*
X133843100Y-95030501D01*
X133843100Y-95730501D01*
G36*
X133843100Y-95730501D02*
G01*
X134343100Y-95730501D01*
X134343100Y-97680501D01*
X132043100Y-97680501D01*
X132043100Y-96430501D01*
X132743100Y-96430501D01*
X132743100Y-95030501D01*
X133843100Y-95030501D01*
X133843100Y-95730501D01*
G37*
X134343100Y-115030501D02*
X133843100Y-115030501D01*
X133843100Y-115730501D01*
X132743100Y-115730501D01*
X132743100Y-114330501D01*
X132043100Y-114330501D01*
X132043100Y-113080501D01*
X134343100Y-113080501D01*
X134343100Y-115030501D01*
G36*
X134343100Y-115030501D02*
G01*
X133843100Y-115030501D01*
X133843100Y-115730501D01*
X132743100Y-115730501D01*
X132743100Y-114330501D01*
X132043100Y-114330501D01*
X132043100Y-113080501D01*
X134343100Y-113080501D01*
X134343100Y-115030501D01*
G37*
%TO.C,J14*%
X133843100Y-116980501D02*
X134343100Y-116980501D01*
X134343100Y-118930501D01*
X132043100Y-118930501D01*
X132043100Y-117680501D01*
X132743100Y-117680501D01*
X132743100Y-116280501D01*
X133843100Y-116280501D01*
X133843100Y-116980501D01*
G36*
X133843100Y-116980501D02*
G01*
X134343100Y-116980501D01*
X134343100Y-118930501D01*
X132043100Y-118930501D01*
X132043100Y-117680501D01*
X132743100Y-117680501D01*
X132743100Y-116280501D01*
X133843100Y-116280501D01*
X133843100Y-116980501D01*
G37*
X134343100Y-136280501D02*
X133843100Y-136280501D01*
X133843100Y-136980501D01*
X132743100Y-136980501D01*
X132743100Y-135580501D01*
X132043100Y-135580501D01*
X132043100Y-134330501D01*
X134343100Y-134330501D01*
X134343100Y-136280501D01*
G36*
X134343100Y-136280501D02*
G01*
X133843100Y-136280501D01*
X133843100Y-136980501D01*
X132743100Y-136980501D01*
X132743100Y-135580501D01*
X132043100Y-135580501D01*
X132043100Y-134330501D01*
X134343100Y-134330501D01*
X134343100Y-136280501D01*
G37*
%TD*%
D11*
%TO.C,J10*%
X216962500Y-50450000D03*
X209562499Y-48450000D03*
D12*
X209562500Y-57850000D03*
D13*
X214012501Y-61850000D03*
%TD*%
D14*
%TO.C,J6*%
X218862500Y-128300000D03*
X219362500Y-128300000D03*
X219862500Y-128300000D03*
X220362500Y-128300000D03*
X220862500Y-128300000D03*
X221362500Y-128300000D03*
X221862500Y-128300000D03*
X222362500Y-128300000D03*
D15*
X217862500Y-130800000D03*
X223362500Y-130800000D03*
%TD*%
D16*
%TO.C,J11*%
X134443100Y-98130501D03*
X134443100Y-98630501D03*
X134443100Y-99130501D03*
X134443100Y-99630501D03*
X134443100Y-100130501D03*
X134443100Y-100630501D03*
X134443100Y-101130501D03*
X134443100Y-101630501D03*
X134443100Y-102130501D03*
X134443100Y-102630501D03*
X134443100Y-103130501D03*
X134443100Y-103630501D03*
X134443100Y-104130501D03*
X134443100Y-104630501D03*
X134443100Y-105130501D03*
X134443100Y-105630501D03*
X134443100Y-106130501D03*
X134443100Y-106630501D03*
X134443100Y-107130501D03*
X134443100Y-107630501D03*
X134443100Y-108130501D03*
X134443100Y-108630501D03*
X134443100Y-109130501D03*
X134443100Y-109630501D03*
X134443100Y-110130501D03*
X134443100Y-110630501D03*
X134443100Y-111130501D03*
X134443100Y-111630501D03*
X134443100Y-112130501D03*
X134443100Y-112630501D03*
%TD*%
D17*
%TO.C,D1*%
X189262500Y-123825000D03*
X189262500Y-125875000D03*
%TD*%
%TO.C,D3*%
X196762500Y-123825000D03*
X196762500Y-125875000D03*
%TD*%
D11*
%TO.C,J9*%
X204462500Y-50450000D03*
X197062499Y-48450000D03*
D12*
X197062500Y-57850000D03*
D13*
X201512501Y-61850000D03*
%TD*%
D18*
%TO.C,D4*%
X200262500Y-125875000D03*
X200262500Y-123825000D03*
%TD*%
D16*
%TO.C,J14*%
X134443100Y-119380501D03*
X134443100Y-119880501D03*
X134443100Y-120380501D03*
X134443100Y-120880501D03*
X134443100Y-121380501D03*
X134443100Y-121880501D03*
X134443100Y-122380501D03*
X134443100Y-122880501D03*
X134443100Y-123380501D03*
X134443100Y-123880501D03*
X134443100Y-124380501D03*
X134443100Y-124880501D03*
X134443100Y-125380501D03*
X134443100Y-125880501D03*
X134443100Y-126380501D03*
X134443100Y-126880501D03*
X134443100Y-127380501D03*
X134443100Y-127880501D03*
X134443100Y-128380501D03*
X134443100Y-128880501D03*
X134443100Y-129380501D03*
X134443100Y-129880501D03*
X134443100Y-130380501D03*
X134443100Y-130880501D03*
X134443100Y-131380501D03*
X134443100Y-131880501D03*
X134443100Y-132380501D03*
X134443100Y-132880501D03*
X134443100Y-133380501D03*
X134443100Y-133880501D03*
%TD*%
D17*
%TO.C,D2*%
X192762500Y-123825000D03*
X192762500Y-125875000D03*
%TD*%
D19*
%TO.C,J7*%
X212834100Y-114349999D03*
X212834100Y-115350000D03*
X212834100Y-116350001D03*
D20*
X215359099Y-117650000D03*
X215359099Y-113050000D03*
%TD*%
D14*
%TO.C,J5*%
X211362500Y-128300000D03*
X211862500Y-128300000D03*
X212362500Y-128300000D03*
X212862500Y-128300000D03*
X213362500Y-128300000D03*
X213862500Y-128300000D03*
X214362500Y-128300000D03*
X214862500Y-128300000D03*
D15*
X210362500Y-130800000D03*
X215862500Y-130800000D03*
%TD*%
M02*
